G04 ================== begin FILE IDENTIFICATION RECORD ==================*
G04 Layout Name:  LEXICON_GLOVE2_10.brd*
G04 Film Name:    BOTTOM*
G04 File Format:  Gerber RS274X*
G04 File Origin:  Cadence Allegro 17.2-S055*
G04 Origin Date:  Mon Mar 09 14:08:56 2020*
G04 *
G04 Layer:  ETCH/BOTTOM*
G04 Layer:  PIN/BOTTOM*
G04 Layer:  VIA CLASS/BOTTOM*
G04 *
G04 Offset:    (0.00 0.00)*
G04 Mirror:    No*
G04 Mode:      Positive*
G04 Rotation:  0*
G04 FullContactRelief:  No*
G04 UndefLineWidth:     0.00*
G04 ================== end FILE IDENTIFICATION RECORD ====================*
%FSLAX25Y25*MOIN*%
%IR0*IPPOS*OFA0.00000B0.00000*MIA0B0*SFA1.00000B1.00000*%
%ADD14O,.055X.1*%
%ADD13R,.055X.1*%
%ADD11C,.024*%
%ADD10C,.08*%
%ADD19C,.05315*%
%ADD24R,.09252X.10906*%
%AMMACRO23*
4,1,40,.01771,-.01181,
-.01771,-.01181,
-.018736,-.01172,
-.019731,-.011454,
-.020665,-.011018,
-.021509,-.010427,
-.022237,-.009699,
-.022828,-.008855,
-.023264,-.007921,
-.02353,-.006926,
-.02362,-.0059,
-.02362,.0059,
-.02353,.006926,
-.023264,.007921,
-.022828,.008855,
-.022237,.009699,
-.021509,.010427,
-.020665,.011018,
-.019731,.011454,
-.018736,.01172,
-.01771,.01181,
.01771,.01181,
.018736,.01172,
.019731,.011454,
.020665,.011018,
.021509,.010427,
.022237,.009699,
.022828,.008855,
.023264,.007921,
.02353,.006926,
.02362,.0059,
.02362,-.0059,
.02353,-.006926,
.023264,-.007921,
.022828,-.008855,
.022237,-.009699,
.021509,-.010427,
.020665,-.011018,
.019731,-.011454,
.018736,-.01172,
.01771,-.01181,
0.0*
%
%ADD23MACRO23*%
%ADD16C,.03937*%
%ADD15R,.05X.05*%
%ADD17R,.038X.044*%
%ADD18R,.038X.055*%
%ADD25R,.16732X.10906*%
%ADD21R,.04724X.02362*%
%ADD12R,.10906X.16732*%
%ADD22R,.08701X.09252*%
%AMMACRO20*
4,1,40,-.01771,.01181,
.01771,.01181,
.018736,.01172,
.019731,.011454,
.020665,.011018,
.021509,.010427,
.022237,.009699,
.022828,.008855,
.023264,.007921,
.02353,.006926,
.02362,.0059,
.02362,-.0059,
.02353,-.006926,
.023264,-.007921,
.022828,-.008855,
.022237,-.009699,
.021509,-.010427,
.020665,-.011018,
.019731,-.011454,
.018736,-.01172,
.01771,-.01181,
-.01771,-.01181,
-.018736,-.01172,
-.019731,-.011454,
-.020665,-.011018,
-.021509,-.010427,
-.022237,-.009699,
-.022828,-.008855,
-.023264,-.007921,
-.02353,-.006926,
-.02362,-.0059,
-.02362,.0059,
-.02353,.006926,
-.023264,.007921,
-.022828,.008855,
-.022237,.009699,
-.021509,.010427,
-.020665,.011018,
-.019731,.011454,
-.018736,.01172,
-.01771,.01181,
0.0*
%
%ADD20MACRO20*%
%ADD26C,.01*%
%ADD27C,.02*%
%ADD28C,.03*%
%ADD29O,.07104X.11604*%
%ADD30C,.13156*%
G75*
%LPD*%
G75*
G36*
G01X70670Y49999D02*
G02X71028Y49422I-1J-400D01*
G03X69998Y45002I8972J-4421D01*
G01Y45000D01*
G03X80000Y34998I10002J0D01*
G01X80002D01*
G03X84422Y36028I-1J10002D01*
G02X84999Y35670I177J-359D01*
G01Y-60670D01*
G02X84422Y-61028I-400J1D01*
G03X80002Y-59998I-4421J-8972D01*
G01X80000D01*
G03X69998Y-70000I0J-10002D01*
G01Y-70002D01*
G03X71028Y-74422I10002J1D01*
G02X70670Y-74999I-359J-177D01*
G01X-80670D01*
G02X-81028Y-74422I1J400D01*
G03X-79998Y-70002I-8972J4421D01*
G01Y-70000D01*
G03X-90000Y-59998I-10002J0D01*
G01X-90002D01*
G03X-94422Y-61028I1J-10002D01*
G02X-94999Y-60670I-177J359D01*
G01Y-41792D01*
G02X-94333Y-41494I400J0D01*
G03X-93000Y-42002I1333J1495D01*
G01X-92999D01*
G03X-92127Y-41802I0J2002D01*
G01X-39873D01*
G03X-39001Y-42002I872J1802D01*
G01X-39000D01*
G03Y-37998I0J2002D01*
G01X-39001D01*
G03X-39873Y-38198I0J-2002D01*
G01X-92127D01*
G03X-92999Y-37998I-872J-1802D01*
G01X-93000D01*
G03X-94333Y-38506I0J-2003D01*
G02X-94999Y-38208I-266J298D01*
G01Y35670D01*
G02X-94422Y36028I400J-1D01*
G03X-90002Y34998I4421J8972D01*
G01X-90000D01*
G03X-79998Y45000I0J10002D01*
G01Y45002D01*
G03X-81028Y49422I-10002J-1D01*
G02X-80670Y49999I359J177D01*
G01X70670D01*
G37*
%LPC*%
G75*
G36*
G01X62034Y-4622D02*
X68098D01*
Y2000D01*
G02X72702I2302J0D01*
G01Y-4622D01*
X78766D01*
G02X79568Y-5424I0J-802D01*
G01Y-16330D01*
G02X78766Y-17132I-802J0D01*
G01X62034D01*
G02X61232Y-16330I0J802D01*
G01Y-5424D01*
G02X62034Y-4622I802J0D01*
G37*
G36*
G01X58448Y-66000D02*
Y-56000D01*
G02X59250Y-55198I802J0D01*
G01X64750D01*
G02X65552Y-56000I0J-802D01*
G01Y-66000D01*
G02X64750Y-66802I-802J0D01*
G01X59250D01*
G02X58448Y-66000I0J802D01*
G37*
G36*
G01X-63878Y-366D02*
Y16366D01*
G02X-63376Y16868I502J0D01*
G01X-52470D01*
G02X-51968Y16366I0J-502D01*
G01Y-366D01*
G02X-52470Y-868I-502J0D01*
G01X-63376D01*
G02X-63878Y-366I0J502D01*
G37*
G36*
G01X-31552Y-27650D02*
Y-22150D01*
G02X-31050Y-21648I502J0D01*
G01X-27250D01*
G02X-26748Y-22150I0J-502D01*
G01Y-27650D01*
G02X-27250Y-28152I-502J0D01*
G01X-31050D01*
G02X-31552Y-27650I0J502D01*
G37*
G36*
G01X23018Y-26626D02*
Y-17374D01*
G02X23520Y-16872I502J0D01*
G01X32220D01*
G02X32722Y-17374I0J-502D01*
G01Y-26626D01*
G02X32220Y-27128I-502J0D01*
G01X23520D01*
G02X23018Y-26626I0J502D01*
G37*
G36*
G01X32872Y-62571D02*
Y-51665D01*
G02X33374Y-51164I502J-1D01*
G01X42626D01*
G02X43128Y-51665I1J-501D01*
G01Y-62571D01*
G02X42626Y-63072I-502J1D01*
G01X33374D01*
G02X32872Y-62571I-1J501D01*
G37*
G36*
G01X28478Y-33850D02*
G02X27086Y-35242I-1392J0D01*
G01X23544D01*
G02X22152Y-33850I0J1392D01*
G01Y-32670D01*
G02X23544Y-31278I1392J0D01*
G01X27086D01*
G02X28478Y-32670I0J-1392D01*
G01Y-33850D01*
G37*
G36*
G01X-35552Y33000D02*
Y43000D01*
G02X-34750Y43802I802J0D01*
G01X-29250D01*
G02X-28448Y43000I0J-802D01*
G01Y33000D01*
G02X-29250Y32198I-802J0D01*
G01X-34750D01*
G02X-35552Y33000I0J802D01*
G37*
G36*
G01X2448D02*
Y43000D01*
G02X3250Y43802I802J0D01*
G01X8750D01*
G02X9552Y43000I0J-802D01*
G01Y33000D01*
G02X8750Y32198I-802J0D01*
G01X3250D01*
G02X2448Y33000I0J802D01*
G37*
G36*
G01X40448D02*
Y43000D01*
G02X41250Y43802I802J0D01*
G01X46750D01*
G02X47552Y43000I0J-802D01*
G01Y33000D01*
G02X46750Y32198I-802J0D01*
G01X41250D01*
G02X40448Y33000I0J802D01*
G37*
G36*
G01X35698Y-29429D02*
G02X36373Y-27802I2301J-1D01*
G01X39802Y-24373D01*
G02X41429Y-23698I1628J-1626D01*
G02X43730Y-26000I-1J-2302D01*
G02X43056Y-27627I-2301J0D01*
G01X40739Y-29945D01*
G03X41022Y-30628I283J-283D01*
G01X42626D01*
G02X43428Y-31429I1J-801D01*
G01Y-42335D01*
G02X42626Y-43136I-802J1D01*
G01X33374D01*
G02X32572Y-42335I-1J801D01*
G01Y-38684D01*
X31100D01*
X28480Y-41303D01*
X28478Y-41382D01*
G02X27086Y-42722I-1392J53D01*
G01X23544D01*
G02X22152Y-41330I0J1392D01*
G01Y-40150D01*
G02X23544Y-38758I1392J0D01*
G01X25931D01*
X29080Y-35608D01*
G02X30354Y-35080I1274J-1273D01*
G01X32572D01*
Y-31429D01*
G02X33374Y-30628I802J-1D01*
G01X35698D01*
Y-29429D01*
G37*
G36*
G01X31514Y-3939D02*
Y11442D01*
G02X31313Y12315I1801J874D01*
G02X35317I2002J0D01*
G02X35116Y11442I-2002J1D01*
G01Y-4685D01*
G02X34589Y-5959I-1801J-1D01*
G01X26274Y-14274D01*
G02X25000Y-14802I-1274J1273D01*
G01X-19127D01*
G02X-20000Y-15002I-872J1802D01*
G02Y-10998I0J2002D01*
G02X-19127Y-11198I1J-2002D01*
G01X24254D01*
X31514Y-3939D01*
G37*
G36*
G01X8978Y-17374D02*
G02X9780Y-16572I802J0D01*
G01X18480D01*
G02X19282Y-17374I0J-802D01*
G01Y-26626D01*
G02X18480Y-27428I-802J0D01*
G01X15932D01*
Y-29278D01*
G02X16486Y-30579I-1248J-1300D01*
G01Y-31267D01*
X16658Y-31292D01*
G02X17848Y-32670I-203J-1378D01*
G01Y-33850D01*
G02X17250Y-34994I-1393J0D01*
G03X17204Y-35614I228J-329D01*
G02X17548Y-36410I-749J-796D01*
G01Y-37590D01*
G02X17317Y-38263I-1092J-1D01*
G03X17437Y-38859I315J-247D01*
G02X17848Y-39559I-391J-700D01*
G01Y-41921D01*
G02X17047Y-42722I-801J0D01*
G01X12323D01*
G02X11863Y-42578I-2J802D01*
G01X11812Y-42542D01*
X11028D01*
G02X9754Y-42014I0J1801D01*
G01X9356Y-41616D01*
X9145Y-41827D01*
X9158Y-41924D01*
G02X9183Y-42323I-3134J-397D01*
G02X6024Y-39164I-3159J0D01*
G02X7599Y-39585I-1J-3159D01*
G03X8198Y-39238I199J347D01*
G01Y-35000D01*
G02X8726Y-33726I1801J0D01*
G01X10466Y-31986D01*
G02X11740Y-31458I1274J-1273D01*
G01X12226D01*
X12269Y-31436D01*
G02X12340Y-31401I651J-1231D01*
G03X12530Y-30853I-165J364D01*
G02X12328Y-30024I1600J829D01*
G01Y-27428D01*
X9780D01*
G02X8978Y-26626I0J802D01*
G01Y-23802D01*
X6302D01*
Y-24500D01*
G02X5501Y-25301I-801J0D01*
G03X5302Y-25501I1J-200D01*
G01Y-26673D01*
G02X4627Y-28300I-2301J1D01*
G01X4310Y-28618D01*
Y-29741D01*
G02X5467Y-32323I-2303J-2582D01*
G02X2008Y-35782I-3459J0D01*
G02X1298Y-35708I2J3459D01*
G01X1192Y-35686D01*
X-1405Y-38284D01*
G03X-1214Y-38956I283J-283D01*
G02X1451Y-42323I-794J-3367D01*
G02X-206Y-45276I-3460J0D01*
G01Y-66208D01*
G02X-734Y-67482I-1801J0D01*
G01X-3526Y-70274D01*
G02X-4800Y-70802I-1274J1273D01*
G01X-40000D01*
G02X-41274Y-70274I0J1801D01*
G01X-43656Y-67892D01*
X-43697Y-67877D01*
G02X-45002Y-66000I697J1877D01*
G02X-44802Y-65127I2002J1D01*
G01Y-52400D01*
G02X-44274Y-51126I1801J0D01*
G01X-34702Y-41554D01*
Y-35416D01*
X-34881Y-35397D01*
G02X-35602Y-34600I80J797D01*
G01Y-30200D01*
G02X-34800Y-29398I802J0D01*
G01X-31000D01*
G02X-30198Y-30200I0J-802D01*
G01Y-34600D01*
G02X-30919Y-35397I-801J0D01*
G01X-31098Y-35416D01*
Y-42300D01*
G02X-31626Y-43574I-1801J0D01*
G01X-41198Y-53146D01*
Y-65127D01*
G02X-41123Y-65303I-1802J-872D01*
G01X-41108Y-65344D01*
X-39254Y-67198D01*
X-32664D01*
G03X-32276Y-66699I1J400D01*
G02X-32302Y-66500I776J203D01*
G01Y-61500D01*
G02X-31500Y-60698I802J0D01*
G01X-26500D01*
G02X-25698Y-61500I0J-802D01*
G01Y-66500D01*
G02X-25724Y-66699I-802J4D01*
G03X-25336Y-67198I387J-99D01*
G01X-23664D01*
G03X-23276Y-66699I1J400D01*
G02X-23302Y-66500I776J203D01*
G01Y-61500D01*
G02X-22500Y-60698I802J0D01*
G01X-17500D01*
G02X-16698Y-61500I0J-802D01*
G01Y-62198D01*
X-14146D01*
X-12602Y-60654D01*
Y-42800D01*
G02X-12074Y-41526I1801J0D01*
G01X-6939Y-36391D01*
G02X-6863Y-36319I1277J-1271D01*
G03X-7014Y-35637I-266J299D01*
G02X-8977Y-34124I990J3314D01*
G01X-21478D01*
X-21505Y-34132D01*
G02X-22000Y-34202I-497J1732D01*
G01X-22698D01*
Y-34600D01*
G02X-23419Y-35397I-801J0D01*
G01X-23598Y-35416D01*
Y-43400D01*
G02X-24126Y-44674I-1801J0D01*
G01X-31108Y-51656D01*
X-31123Y-51697D01*
G02X-33000Y-53002I-1877J697D01*
G02X-35002Y-51000I0J2002D01*
G02X-33697Y-49123I2002J0D01*
G01X-33656Y-49108D01*
X-27202Y-42654D01*
Y-35416D01*
X-27381Y-35397D01*
G02X-28102Y-34600I80J797D01*
G01Y-30200D01*
G02X-27300Y-29398I802J0D01*
G01X-23500D01*
G02X-22698Y-30200I0J-802D01*
G01Y-30598D01*
X-22445D01*
X-22418Y-30591D01*
G02X-21923Y-30522I494J-1732D01*
G01X-8977D01*
G02X-7826Y-29370I2954J-1800D01*
G01Y-28165D01*
G02X-7804Y-27887I1802J-3D01*
G01X-7802Y-27872D01*
Y-25302D01*
X-8500D01*
G02X-9302Y-24500I0J802D01*
G01Y-19500D01*
G02X-8500Y-18698I802J0D01*
G01X-3500D01*
G02X-2698Y-19500I0J-802D01*
G01Y-24500D01*
G02X-3500Y-25302I-802J0D01*
G01X-4198D01*
Y-28141D01*
G02X-4220Y-28419I-1802J3D01*
G01X-4222Y-28434D01*
Y-29370D01*
G02X-2565Y-32323I-1803J-2953D01*
G02X-4613Y-35481I-3459J0D01*
G01X-4731Y-35534D01*
Y-35864D01*
X-4080D01*
X-1355Y-33139D01*
X-1377Y-33033D01*
G02X-1451Y-32323I3385J712D01*
G02X-294Y-29741I3460J0D01*
G01Y-27665D01*
G02X381Y-26038I2301J-1D01*
G01X698Y-25720D01*
Y-25501D01*
G03X499Y-25301I-200J0D01*
G02X-302Y-24500I0J801D01*
G01Y-19500D01*
G02X500Y-18698I802J0D01*
G01X5500D01*
G02X6302Y-19500I0J-802D01*
G01Y-20198D01*
X8978D01*
Y-17374D01*
G37*
G36*
G01X61532Y9024D02*
Y19930D01*
G02X62034Y20432I502J0D01*
G01X78766D01*
G02X79268Y19930I0J-502D01*
G01Y9024D01*
G02X78766Y8522I-502J0D01*
G01X62034D01*
G02X61532Y9024I0J502D01*
G37*
G36*
G01X55198Y-16600D02*
Y17127D01*
G02X54998Y18000I1802J872D01*
G02X59002I2002J0D01*
G02X58802Y17127I-2002J-1D01*
G01Y-15854D01*
X63346Y-20398D01*
X68727D01*
G02X69600Y-20198I872J-1802D01*
G02Y-24202I0J-2002D01*
G02X68727Y-24002I-1J2002D01*
G01X62600D01*
G02X61326Y-23474I0J1801D01*
G01X55726Y-17874D01*
G02X55198Y-16600I1273J1274D01*
G37*
G36*
G01X50448Y35750D02*
Y40250D01*
G02X57552I3552J0D01*
G01Y35750D01*
G02X55802Y32689I-3552J0D01*
G01Y31500D01*
G02X55274Y30226I-1801J0D01*
G01X43774Y18726D01*
G02X42500Y18198I-1274J1273D01*
G01X-14254D01*
X-24108Y8344D01*
X-24123Y8303D01*
G02X-26000Y6998I-1877J697D01*
G02X-27499Y7673I0J2002D01*
G03X-28198Y7408I-299J-265D01*
G01Y4873D01*
G02X-27998Y4000I-1802J-872D01*
G02X-32002I-2002J0D01*
G02X-31802Y4873I2002J1D01*
G01Y13000D01*
G02X-31274Y14274I1801J0D01*
G01X-20274Y25274D01*
G02X-19000Y25802I1274J-1273D01*
G01X12254D01*
X14198Y27746D01*
Y32689D01*
G02X12448Y35750I1802J3061D01*
G01Y40250D01*
G02X19552I3552J0D01*
G01Y35750D01*
G02X17802Y32689I-3552J0D01*
G01Y27000D01*
G02X17274Y25726I-1801J0D01*
G01X14274Y22726D01*
G02X14039Y22528I-1274J1274D01*
G03X14270Y21802I231J-326D01*
G01X41754D01*
X52198Y32246D01*
Y32687D01*
X52105Y32746D01*
G02X50448Y35750I1894J3004D01*
G37*
G36*
G01X-74552Y33000D02*
Y43000D01*
G02X-73750Y43802I802J0D01*
G01X-68250D01*
G02X-67448Y43000I0J-802D01*
G01Y33000D01*
G02X-68250Y32198I-802J0D01*
G01X-73750D01*
G02X-74552Y33000I0J802D01*
G37*
G36*
G01X-88730Y-1168D02*
G02X-89532Y-366I0J802D01*
G01Y16366D01*
G02X-88730Y17168I802J0D01*
G01X-77824D01*
G02X-77022Y16366I0J-802D01*
G01Y10302D01*
X-72600D01*
G02Y5698I0J-2302D01*
G01X-77022D01*
Y-366D01*
G02X-77824Y-1168I-802J0D01*
G01X-88730D01*
G37*
G54D29*
X52000Y-61000D03*
X-61000Y38000D03*
X-22000D03*
G54D30*
X19685Y-51378D03*
X-19685D03*
%LPD*%
G75*
G54D10*
X-90000Y-70000D03*
Y45000D03*
X80000Y-70000D03*
Y45000D03*
G54D20*
X14685Y-37000D03*
Y-33260D03*
G54D11*
X-93000Y-40000D03*
X-72600Y16600D03*
Y8000D03*
X-89000Y29000D03*
X-43000Y-66000D03*
X-39000Y-40000D03*
X-33000Y-51000D03*
X-29000Y-8000D03*
X-20000Y-13000D03*
X-30000Y4000D03*
X-26000Y9000D03*
X-3000Y-8000D03*
X10000Y15000D03*
X41429Y-26000D03*
X26600Y15200D03*
X33315Y12315D03*
X69600Y-22200D03*
X57000Y18000D03*
X63600Y2400D03*
X70400Y2000D03*
G54D12*
X-83277Y8000D03*
X-57923D03*
G54D21*
X14685Y-40740D03*
G54D22*
X14130Y-22000D03*
X27870D03*
G54D13*
X-71000Y38000D03*
X-32000D03*
X6000D03*
X44000D03*
X62000Y-61000D03*
G54D23*
X25315Y-40740D03*
Y-33260D03*
G54D14*
X-61000Y38000D03*
X-22000D03*
X16000D03*
X52000Y-61000D03*
X54000Y38000D03*
G54D15*
X-29000Y-64000D03*
X-20000D03*
X-6000Y-22000D03*
X3000D03*
G54D24*
X38000Y-57118D03*
Y-36882D03*
G54D25*
X70400Y-10877D03*
Y14477D03*
G54D16*
X-19685Y-51378D03*
X19685D03*
G54D26*
G01X-57923Y-1068D02*
Y8000D01*
G01D02*
Y17068D01*
G01X-64078Y8000D02*
X-57923D01*
G01D02*
X-51768D01*
G01X-29150Y-28352D02*
Y-24900D01*
G01D02*
Y-21448D01*
G01X-31752Y-24900D02*
X-29150D01*
G01D02*
X-26548D01*
G01X6024Y-45683D02*
Y-42323D01*
G01D02*
Y-38963D01*
G01X2664Y-42323D02*
X6024D01*
G01X38000Y-63273D02*
Y-57118D01*
G01D02*
Y-50963D01*
G01X32672Y-57118D02*
X38000D01*
G01D02*
X43328D01*
G01X27870Y-27328D02*
Y-22000D01*
G01D02*
Y-16672D01*
G01X22817Y-22000D02*
X27870D01*
G01D02*
X32923D01*
G01X70400Y8322D02*
Y14477D01*
G01D02*
Y20632D01*
G01X61332Y14477D02*
X70400D01*
G01D02*
X79468D01*
G54D17*
X-32900Y-32400D03*
X-25400D03*
G54D27*
G01X-39000Y-40000D02*
X-93000D01*
G01X-43000Y-66000D02*
X-40000Y-69000D01*
X-29000D01*
G01X-32900Y-32400D02*
Y-42300D01*
X-43000Y-52400D01*
Y-66000D01*
G01X-29000Y-69000D02*
X-4800D01*
X-2008Y-66208D01*
Y-42323D01*
G01X-29000Y-69000D02*
Y-64000D01*
G01X-20000D02*
X-13400D01*
X-10800Y-61400D01*
Y-42800D01*
X-5665Y-37665D01*
X-3334D01*
X2008Y-32323D01*
G01X-33000Y-51000D02*
X-25400Y-43400D01*
Y-32400D01*
G01X-20000Y-13000D02*
X25000D01*
X33315Y-4685D01*
Y12315D01*
G01X-25400Y-32400D02*
X-22000D01*
X-21923Y-32323D01*
X-6024D01*
G01X-30000Y4000D02*
Y13000D01*
X-19000Y24000D01*
X13000D01*
X16000Y27000D01*
Y38000D01*
G01X54000D02*
Y31500D01*
X42500Y20000D01*
X-15000D01*
X-26000Y9000D01*
G01X14685Y-37000D02*
X20000D01*
G01X14685Y-33260D02*
X11740D01*
X10000Y-35000D01*
Y-39712D01*
X11028Y-40740D01*
X14685D01*
G01X-6000Y-22000D02*
Y-28141D01*
X-6024Y-28165D01*
Y-32323D01*
G01X14130Y-22000D02*
Y-30024D01*
X14685Y-30579D01*
Y-33260D01*
G01X3000Y-22000D02*
X14130D01*
G01X25315Y-40740D02*
X26496D01*
X30354Y-36882D01*
X38000D01*
G01X69600Y-22200D02*
X62600D01*
X57000Y-16600D01*
Y18000D01*
G54D18*
X-29150Y-24900D03*
G54D28*
G01X-83277Y8000D02*
X-72600D01*
G01X3000Y-22000D02*
Y-26673D01*
X2008Y-27665D01*
Y-32323D01*
G01X38000Y-36882D02*
Y-29429D01*
X41429Y-26000D01*
G01X70400Y-10877D02*
Y2000D01*
G54D19*
X-6024Y-32323D03*
X-2008Y-42323D03*
X2008Y-32323D03*
X6024Y-42323D03*
M02*
