M48
INCH
T01C.013
T02C.035
T03C.03543
T04C.09449
T05C.156
;LEADER: 12 
;HEADER: 
;CODE  : ASCII 
;FILE  : LEXICON_GLOVE_DRILL-1-2.drl for board H:/University/Real Time Embedded Prog 5/sensor_pcb/allegro/#Taaaacp08520.tmp ... layers TOP and BOTTOM
;T01 Holesize 1. = 13.000000 Tolerance = +0.000000/-0.000000 PLATED MILS Quantity = 20
;T02 Holesize 2. = 35.000000 Tolerance = +0.000000/-0.000000 PLATED MILS Quantity = 10
;T03 Holesize 3. = 35.430000 Tolerance = +0.000000/-0.000000 PLATED MILS Quantity = 4
;T04 Holesize 4. = 94.490000 Tolerance = +0.000000/-0.000000 NON_PLATED MILS Quantity = 2
;T05 Holesize 5. = 156.000000 Tolerance = +0.000000/-0.000000 NON_PLATED MILS Quantity = 4
%
G90
T01
X-0093000Y-0040000
X-0043000Y-0066000
X-0039000Y-0040000
X-0033000Y-0051000
X-0029000Y-0008000
X-0020000Y-0013000
X-0003000Y-0008000
X0041429Y-0026000
X0069600Y-0022200
X0070400Y0002000
X0063600Y0002400
X0057000Y0018000
X0033315Y0012315
X0026600Y0015200
X0010000Y0015000
X-0026000Y0009000
X-0030000Y0004000
X-0072600Y0016600
X-0072600Y0008000
X-0089000Y0029000
T02
X-0071000Y0038000
X-0061000Y0038000
X-0032000Y0038000
X-0022000Y0038000
X0006000Y0038000
X0016000Y0038000
X0044000Y0038000
X0054000Y0038000
X0052000Y-0061000
X0062000Y-0061000
T03
X-0002008Y-0042323
X0006024Y-0042323
X0002008Y-0032323
X-0006024Y-0032323
T04
X-0019685Y-0051378
X0019685Y-0051378
T05
X-0090000Y0045000
X-0090000Y-0070000
X0080000Y-0070000
X0080000Y0045000
M30
