G04 ================== begin FILE IDENTIFICATION RECORD ==================*
G04 Layout Name:  LEXICON_GLOVE2_10.brd*
G04 Film Name:    SOLDERMASK_BOTTOM*
G04 File Format:  Gerber RS274X*
G04 File Origin:  Cadence Allegro 17.2-S055*
G04 Origin Date:  Mon Mar 09 14:09:23 2020*
G04 *
G04 Layer:  VIA CLASS/SOLDERMASK_BOTTOM*
G04 Layer:  PIN/SOLDERMASK_BOTTOM*
G04 *
G04 Offset:    (0.00 0.00)*
G04 Mirror:    No*
G04 Mode:      Positive*
G04 Rotation:  0*
G04 FullContactRelief:  No*
G04 UndefLineWidth:     0.00*
G04 ================== end FILE IDENTIFICATION RECORD ====================*
%FSLAX25Y25*MOIN*%
%IR0*IPPOS*OFA0.00000B0.00000*MIA0B0*SFA1.00000B1.00000*%
%ADD14O,.075X.12*%
%ADD13R,.075X.12*%
%ADD11C,.044*%
%ADD19C,.05315*%
%ADD24R,.09252X.10906*%
%AMMACRO23*
4,1,40,.01771,-.01181,
-.01771,-.01181,
-.018736,-.01172,
-.019731,-.011454,
-.020665,-.011018,
-.021509,-.010427,
-.022237,-.009699,
-.022828,-.008855,
-.023264,-.007921,
-.02353,-.006926,
-.02362,-.0059,
-.02362,.0059,
-.02353,.006926,
-.023264,.007921,
-.022828,.008855,
-.022237,.009699,
-.021509,.010427,
-.020665,.011018,
-.019731,.011454,
-.018736,.01172,
-.01771,.01181,
.01771,.01181,
.018736,.01172,
.019731,.011454,
.020665,.011018,
.021509,.010427,
.022237,.009699,
.022828,.008855,
.023264,.007921,
.02353,.006926,
.02362,.0059,
.02362,-.0059,
.02353,-.006926,
.023264,-.007921,
.022828,-.008855,
.022237,-.009699,
.021509,-.010427,
.020665,-.011018,
.019731,-.011454,
.018736,-.01172,
.01771,-.01181,
0.0*
%
%ADD23MACRO23*%
%ADD16C,.09449*%
%ADD10C,.2*%
%ADD18R,.043X.06*%
%ADD17R,.043X.049*%
%ADD15R,.055X.055*%
%ADD25R,.16732X.10906*%
%ADD21R,.04724X.02362*%
%ADD12R,.10906X.16732*%
%ADD22R,.08701X.09252*%
%AMMACRO20*
4,1,40,-.01771,.01181,
.01771,.01181,
.018736,.01172,
.019731,.011454,
.020665,.011018,
.021509,.010427,
.022237,.009699,
.022828,.008855,
.023264,.007921,
.02353,.006926,
.02362,.0059,
.02362,-.0059,
.02353,-.006926,
.023264,-.007921,
.022828,-.008855,
.022237,-.009699,
.021509,-.010427,
.020665,-.011018,
.019731,-.011454,
.018736,-.01172,
.01771,-.01181,
-.01771,-.01181,
-.018736,-.01172,
-.019731,-.011454,
-.020665,-.011018,
-.021509,-.010427,
-.022237,-.009699,
-.022828,-.008855,
-.023264,-.007921,
-.02353,-.006926,
-.02362,-.0059,
-.02362,.0059,
-.02353,.006926,
-.023264,.007921,
-.022828,.008855,
-.022237,.009699,
-.021509,.010427,
-.020665,.011018,
-.019731,.011454,
-.018736,.01172,
-.01771,.01181,
0.0*
%
%ADD20MACRO20*%
%LPD*%
G75*
G54D10*
X-90000Y-70000D03*
Y45000D03*
X80000Y-70000D03*
Y45000D03*
G54D20*
X14685Y-37000D03*
Y-33260D03*
G54D11*
X-93000Y-40000D03*
X-72600Y16600D03*
Y8000D03*
X-89000Y29000D03*
X-43000Y-66000D03*
X-39000Y-40000D03*
X-33000Y-51000D03*
X-29000Y-8000D03*
X-20000Y-13000D03*
X-30000Y4000D03*
X-26000Y9000D03*
X-3000Y-8000D03*
X10000Y15000D03*
X41429Y-26000D03*
X26600Y15200D03*
X33315Y12315D03*
X69600Y-22200D03*
X57000Y18000D03*
X63600Y2400D03*
X70400Y2000D03*
G54D12*
X-83277Y8000D03*
X-57923D03*
G54D21*
X14685Y-40740D03*
G54D22*
X14130Y-22000D03*
X27870D03*
G54D13*
X-71000Y38000D03*
X-32000D03*
X6000D03*
X44000D03*
X62000Y-61000D03*
G54D23*
X25315Y-40740D03*
Y-33260D03*
G54D14*
X-61000Y38000D03*
X-22000D03*
X16000D03*
X52000Y-61000D03*
X54000Y38000D03*
G54D15*
X-29000Y-64000D03*
X-20000D03*
X-6000Y-22000D03*
X3000D03*
G54D24*
X38000Y-57118D03*
Y-36882D03*
G54D25*
X70400Y-10877D03*
Y14477D03*
G54D16*
X-19685Y-51378D03*
X19685D03*
G54D17*
X-32900Y-32400D03*
X-25400D03*
G54D18*
X-29150Y-24900D03*
G54D19*
X-6024Y-32323D03*
X-2008Y-42323D03*
X2008Y-32323D03*
X6024Y-42323D03*
M02*
