G04 ================== begin FILE IDENTIFICATION RECORD ==================*
G04 Layout Name:  LEXICON_GLOVE2_10.brd*
G04 Film Name:    SOLDERMASK_TOP*
G04 File Format:  Gerber RS274X*
G04 File Origin:  Cadence Allegro 17.2-S055*
G04 Origin Date:  Mon Mar 09 14:09:43 2020*
G04 *
G04 Layer:  VIA CLASS/SOLDERMASK_TOP*
G04 Layer:  PIN/SOLDERMASK_TOP*
G04 *
G04 Offset:    (0.00 0.00)*
G04 Mirror:    No*
G04 Mode:      Positive*
G04 Rotation:  0*
G04 FullContactRelief:  No*
G04 UndefLineWidth:     0.00*
G04 ================== end FILE IDENTIFICATION RECORD ====================*
%FSLAX25Y25*MOIN*%
%IR0*IPPOS*OFA0.00000B0.00000*MIA0B0*SFA1.00000B1.00000*%
%ADD21O,.075X.12*%
%ADD15R,.075X.12*%
%AMMACRO29*
4,1,40,.00512,-.01299,
.00512,.01299,
.005078,.013469,
.004954,.013934,
.00475,.01437,
.004474,.014764,
.004134,.015104,
.00374,.01538,
.003304,.015584,
.002839,.015708,
.00236,.01575,
-.00236,.01575,
-.002839,.015708,
-.003304,.015584,
-.00374,.01538,
-.004134,.015104,
-.004474,.014764,
-.00475,.01437,
-.004954,.013934,
-.005078,.013469,
-.00512,.01299,
-.00512,-.01299,
-.005078,-.013469,
-.004954,-.013934,
-.00475,-.01437,
-.004474,-.014764,
-.004134,-.015104,
-.00374,-.01538,
-.003304,-.015584,
-.002839,-.015708,
-.00236,-.01575,
.00236,-.01575,
.002839,-.015708,
.003304,-.015584,
.00374,-.01538,
.004134,-.015104,
.004474,-.014764,
.00475,-.01437,
.004954,-.013934,
.005078,-.013469,
.00512,-.01299,
0.0*
%
%ADD29MACRO29*%
%AMMACRO24*
4,1,40,-.01299,-.00512,
.01299,-.00512,
.013469,-.005078,
.013934,-.004954,
.01437,-.00475,
.014764,-.004474,
.015104,-.004134,
.01538,-.00374,
.015584,-.003304,
.015708,-.002839,
.01575,-.00236,
.01575,.00236,
.015708,.002839,
.015584,.003304,
.01538,.00374,
.015104,.004134,
.014764,.004474,
.01437,.00475,
.013934,.004954,
.013469,.005078,
.01299,.00512,
-.01299,.00512,
-.013469,.005078,
-.013934,.004954,
-.01437,.00475,
-.014764,.004474,
-.015104,.004134,
-.01538,.00374,
-.015584,.003304,
-.015708,.002839,
-.01575,.00236,
-.01575,-.00236,
-.015708,-.002839,
-.015584,-.003304,
-.01538,-.00374,
-.015104,-.004134,
-.014764,-.004474,
-.01437,-.00475,
-.013934,-.004954,
-.013469,-.005078,
-.01299,-.00512,
0.0*
%
%ADD24MACRO24*%
%ADD13C,.044*%
%AMMACRO19*
4,1,44,-.02106,-.00767,
.02106,-.00767,
.021744,-.007615,
.022408,-.007437,
.02303,-.007147,
.023593,-.006753,
.024078,-.006268,
.024472,-.005705,
.024762,-.005083,
.02494,-.004419,
.025,-.003735,
.025,-.00373,
.025,.00373,
.024941,.004414,
.024764,.005078,
.024475,.005701,
.024081,.006264,
.023596,.00675,
.023034,.007145,
.022412,.007436,
.021749,.007614,
.021065,.007675,
.02106,.00767,
-.02106,.00767,
-.021744,.007615,
-.022408,.007437,
-.02303,.007147,
-.023593,.006753,
-.024078,.006268,
-.024472,.005705,
-.024762,.005083,
-.02494,.004419,
-.025,.003735,
-.025,.00373,
-.025,-.00373,
-.024941,-.004414,
-.024764,-.005078,
-.024475,-.005701,
-.024081,-.006264,
-.023596,-.00675,
-.023034,-.007145,
-.022412,-.007436,
-.021749,-.007614,
-.021065,-.007675,
-.02106,-.00767,
0.0*
%
%ADD19MACRO19*%
%ADD25C,.05315*%
%AMMACRO30*
4,1,40,.01181,-.01771,
.01181,.01771,
.01172,.018736,
.011454,.019731,
.011018,.020665,
.010427,.021509,
.009699,.022237,
.008855,.022828,
.007921,.023264,
.006926,.02353,
.0059,.02362,
-.0059,.02362,
-.006926,.02353,
-.007921,.023264,
-.008855,.022828,
-.009699,.022237,
-.010427,.021509,
-.011018,.020665,
-.011454,.019731,
-.01172,.018736,
-.01181,.01771,
-.01181,-.01771,
-.01172,-.018736,
-.011454,-.019731,
-.011018,-.020665,
-.010427,-.021509,
-.009699,-.022237,
-.008855,-.022828,
-.007921,-.023264,
-.006926,-.02353,
-.0059,-.02362,
.0059,-.02362,
.006926,-.02353,
.007921,-.023264,
.008855,-.022828,
.009699,-.022237,
.010427,-.021509,
.011018,-.020665,
.011454,-.019731,
.01172,-.018736,
.01181,-.01771,
0.0*
%
%ADD30MACRO30*%
%ADD22C,.09449*%
%ADD12O,.03X.07*%
%ADD16O,.07X.03*%
%ADD18R,.03X.07*%
%ADD17R,.07X.03*%
%ADD10C,.2*%
%ADD20R,.05X.01535*%
%ADD14R,.055X.055*%
%AMMACRO27*
4,1,40,-.00512,.01299,
-.00512,-.01299,
-.005078,-.013469,
-.004954,-.013934,
-.00475,-.01437,
-.004474,-.014764,
-.004134,-.015104,
-.00374,-.01538,
-.003304,-.015584,
-.002839,-.015708,
-.00236,-.01575,
.00236,-.01575,
.002839,-.015708,
.003304,-.015584,
.00374,-.01538,
.004134,-.015104,
.004474,-.014764,
.00475,-.01437,
.004954,-.013934,
.005078,-.013469,
.00512,-.01299,
.00512,.01299,
.005078,.013469,
.004954,.013934,
.00475,.01437,
.004474,.014764,
.004134,.015104,
.00374,.01538,
.003304,.015584,
.002839,.015708,
.00236,.01575,
-.00236,.01575,
-.002839,.015708,
-.003304,.015584,
-.00374,.01538,
-.004134,.015104,
-.004474,.014764,
-.00475,.01437,
-.004954,.013934,
-.005078,.013469,
-.00512,.01299,
0.0*
%
%ADD27MACRO27*%
%ADD11R,.055X.055*%
%AMMACRO28*
4,1,40,.01299,.00512,
-.01299,.00512,
-.013469,.005078,
-.013934,.004954,
-.01437,.00475,
-.014764,.004474,
-.015104,.004134,
-.01538,.00374,
-.015584,.003304,
-.015708,.002839,
-.01575,.00236,
-.01575,-.00236,
-.015708,-.002839,
-.015584,-.003304,
-.01538,-.00374,
-.015104,-.004134,
-.014764,-.004474,
-.01437,-.00475,
-.013934,-.004954,
-.013469,-.005078,
-.01299,-.00512,
.01299,-.00512,
.013469,-.005078,
.013934,-.004954,
.01437,-.00475,
.014764,-.004474,
.015104,-.004134,
.01538,-.00374,
.015584,-.003304,
.015708,-.002839,
.01575,-.00236,
.01575,.00236,
.015708,.002839,
.015584,.003304,
.01538,.00374,
.015104,.004134,
.014764,.004474,
.01437,.00475,
.013934,.004954,
.013469,.005078,
.01299,.00512,
0.0*
%
%ADD28MACRO28*%
%AMMACRO23*
4,1,44,.02106,.00767,
-.02106,.00767,
-.021744,.007615,
-.022408,.007437,
-.02303,.007147,
-.023593,.006753,
-.024078,.006268,
-.024472,.005705,
-.024762,.005083,
-.02494,.004419,
-.025,.003735,
-.025,.00373,
-.025,-.00373,
-.024941,-.004414,
-.024764,-.005078,
-.024475,-.005701,
-.024081,-.006264,
-.023596,-.00675,
-.023034,-.007145,
-.022412,-.007436,
-.021749,-.007614,
-.021065,-.007675,
-.02106,-.00767,
.02106,-.00767,
.021744,-.007615,
.022408,-.007437,
.02303,-.007147,
.023593,-.006753,
.024078,-.006268,
.024472,-.005705,
.024762,-.005083,
.02494,-.004419,
.025,-.003735,
.025,-.00373,
.025,.00373,
.024941,.004414,
.024764,.005078,
.024475,.005701,
.024081,.006264,
.023596,.00675,
.023034,.007145,
.022412,.007436,
.021749,.007614,
.021065,.007675,
.02106,.00767,
0.0*
%
%ADD23MACRO23*%
%ADD32R,.02362X.04724*%
%AMMACRO31*
4,1,40,-.01181,.01771,
-.01181,-.01771,
-.01172,-.018736,
-.011454,-.019731,
-.011018,-.020665,
-.010427,-.021509,
-.009699,-.022237,
-.008855,-.022828,
-.007921,-.023264,
-.006926,-.02353,
-.0059,-.02362,
.0059,-.02362,
.006926,-.02353,
.007921,-.023264,
.008855,-.022828,
.009699,-.022237,
.010427,-.021509,
.011018,-.020665,
.011454,-.019731,
.01172,-.018736,
.01181,-.01771,
.01181,.01771,
.01172,.018736,
.011454,.019731,
.011018,.020665,
.010427,.021509,
.009699,.022237,
.008855,.022828,
.007921,.023264,
.006926,.02353,
.0059,.02362,
-.0059,.02362,
-.006926,.02353,
-.007921,.023264,
-.008855,.022828,
-.009699,.022237,
-.010427,.021509,
-.011018,.020665,
-.011454,.019731,
-.01172,.018736,
-.01181,.01771,
0.0*
%
%ADD31MACRO31*%
%AMMACRO26*
4,1,5,-.05118,.05118,
-.05118,-.03149,
-.03149,-.05118,
.05118,-.05118,
.05118,.05118,
-.05118,.05118,
0.0*
%
%ADD26MACRO26*%
%LPD*%
G75*
G54D10*
X-90000Y-70000D03*
Y45000D03*
X80000Y-70000D03*
Y45000D03*
G54D11*
X-90000Y-47000D03*
Y-56000D03*
X-80000Y-47000D03*
Y-56000D03*
X-47000Y31000D03*
Y40000D03*
X-18000Y-1000D03*
Y8000D03*
X-8000Y31000D03*
Y40000D03*
X15000Y8000D03*
Y-1000D03*
X37000Y-67000D03*
Y-58000D03*
X25000Y-1000D03*
Y8000D03*
X30000Y31000D03*
Y40000D03*
X71000Y-40000D03*
Y-31000D03*
X66000Y22000D03*
X56000Y2000D03*
Y11000D03*
X66000Y31000D03*
G54D20*
X-59358Y13677D03*
G54D12*
X-72000Y-33250D03*
X-77000D03*
X-82000D03*
X-87000D03*
Y-10750D03*
X-82000D03*
X-77000D03*
X-72000D03*
X-57000Y-33250D03*
X-62000D03*
X-67000D03*
Y-10750D03*
X-62000D03*
X48000Y-17500D03*
X63000Y-40000D03*
X58000D03*
X53000D03*
Y-17500D03*
X58000D03*
X63000D03*
G54D30*
X47740Y1685D03*
X44000D03*
X40260D03*
G54D21*
X-61000Y38000D03*
X-22000D03*
X16000D03*
X52000Y-61000D03*
X54000Y38000D03*
G54D31*
X40260Y12315D03*
X44000D03*
G54D22*
X-19685Y-51378D03*
X19685D03*
G54D13*
X-93000Y-40000D03*
X-72600Y16600D03*
Y8000D03*
X-89000Y29000D03*
X-43000Y-66000D03*
X-39000Y-40000D03*
X-33000Y-51000D03*
X-29000Y-8000D03*
X-20000Y-13000D03*
X-30000Y4000D03*
X-26000Y9000D03*
X-3000Y-8000D03*
X10000Y15000D03*
X41429Y-26000D03*
X26600Y15200D03*
X33315Y12315D03*
X69600Y-22200D03*
X57000Y18000D03*
X63600Y2400D03*
X70400Y2000D03*
G54D32*
X47740Y12315D03*
G54D23*
X-36642Y13677D03*
Y11118D03*
Y8559D03*
Y6000D03*
Y3441D03*
Y882D03*
Y-1677D03*
G54D14*
X-82000Y-2000D03*
X-73000D03*
X-65000Y-68000D03*
X-56000D03*
X-44000Y21000D03*
X-53000D03*
X2000Y20000D03*
X-7000D03*
G54D24*
X-10776Y79D03*
Y2047D03*
Y4016D03*
Y5984D03*
Y7953D03*
Y9921D03*
G54D15*
X-71000Y38000D03*
X-32000D03*
X6000D03*
X44000D03*
X62000Y-61000D03*
G54D16*
X-65500D03*
Y-56000D03*
Y-51000D03*
Y-46000D03*
X-43000D03*
Y-51000D03*
Y-56000D03*
G54D25*
X-6024Y-32323D03*
X-2008Y-42323D03*
X2008Y-32323D03*
X6024Y-42323D03*
G54D26*
X-3000Y5000D03*
G54D17*
X-43000Y-61000D03*
G54D27*
X-7921Y12776D03*
X-5953D03*
X-3984D03*
X-2016D03*
X-47D03*
X1921D03*
G54D18*
X-57000Y-10750D03*
X48000Y-40000D03*
G54D28*
X4776Y9921D03*
Y7953D03*
Y5984D03*
Y4016D03*
Y2047D03*
Y79D03*
G54D19*
X-59358Y-1677D03*
Y882D03*
Y3441D03*
Y6000D03*
Y8559D03*
Y11118D03*
G54D29*
X1921Y-2776D03*
X-47D03*
X-2016D03*
X-3984D03*
X-5953D03*
X-7921D03*
M02*
