<?xml version="1.0" encoding="UTF-8" standalone="no"?>
<!DOCTYPE svg PUBLIC "-//W3C//DTD SVG 1.1//EN"
 "http://www.w3.org/Graphics/SVG/1.1/DTD/svg11.dtd">
<!-- Generated by graphviz version 2.40.1 (20161225.0304)
 -->
<!-- Title: /Users/jamielee/Desktop/uni stuff/RTE5/ENG5220/code/CSVtoVectorCpp/main.cpp Pages: 1 -->
<svg width="423pt" height="102pt"
 viewBox="0.00 0.00 422.62 102.00" xmlns="http://www.w3.org/2000/svg" xmlns:xlink="http://www.w3.org/1999/xlink">
<g id="graph0" class="graph" transform="scale(1 1) rotate(0) translate(4 98)">
<title>/Users/jamielee/Desktop/uni stuff/RTE5/ENG5220/code/CSVtoVectorCpp/main.cpp</title>
<polygon fill="#ffffff" stroke="transparent" points="-4,4 -4,-98 418.6196,-98 418.6196,4 -4,4"/>
<!-- Node0 -->
<g id="node1" class="node">
<title>Node0</title>
<g id="a_node1"><a xlink:title=" ">
<polygon fill="#bfbfbf" stroke="#000000" points="118.0742,-55.5 118.0742,-93.5 280.2705,-93.5 280.2705,-55.5 118.0742,-55.5"/>
<text text-anchor="start" x="126.0742" y="-81.5" font-family="Helvetica,sans-Serif" font-size="10.00" fill="#000000">/Users/jamielee/Desktop</text>
<text text-anchor="start" x="126.0742" y="-71.5" font-family="Helvetica,sans-Serif" font-size="10.00" fill="#000000">/uni stuff/RTE5/ENG5220</text>
<text text-anchor="middle" x="199.1724" y="-61.5" font-family="Helvetica,sans-Serif" font-size="10.00" fill="#000000">/code/CSVtoVectorCpp/main.cpp</text>
</a>
</g>
</g>
<!-- Node1 -->
<g id="node2" class="node">
<title>Node1</title>
<g id="a_node2"><a xlink:title=" ">
<polygon fill="#ffffff" stroke="#bfbfbf" points="0,-.5 0,-18.5 54.3447,-18.5 54.3447,-.5 0,-.5"/>
<text text-anchor="middle" x="27.1724" y="-6.5" font-family="Helvetica,sans-Serif" font-size="10.00" fill="#000000">iostream</text>
</a>
</g>
</g>
<!-- Node0&#45;&gt;Node1 -->
<g id="edge1" class="edge">
<title>Node0&#45;&gt;Node1</title>
<path fill="none" stroke="#191970" d="M148.497,-55.3494C120.1532,-44.6381 85.6134,-31.5853 60.6464,-22.1501"/>
<polygon fill="#191970" stroke="#191970" points="61.8383,-18.859 51.2467,-18.5978 59.3637,-25.407 61.8383,-18.859"/>
</g>
<!-- Node2 -->
<g id="node3" class="node">
<title>Node2</title>
<g id="a_node3"><a xlink:title=" ">
<polygon fill="#ffffff" stroke="#bfbfbf" points="72.6602,-.5 72.6602,-18.5 123.6846,-18.5 123.6846,-.5 72.6602,-.5"/>
<text text-anchor="middle" x="98.1724" y="-6.5" font-family="Helvetica,sans-Serif" font-size="10.00" fill="#000000">unistd.h</text>
</a>
</g>
</g>
<!-- Node0&#45;&gt;Node2 -->
<g id="edge2" class="edge">
<title>Node0&#45;&gt;Node2</title>
<path fill="none" stroke="#191970" d="M169.4153,-55.3494C153.9499,-45.3964 135.343,-33.4217 121.0237,-24.2063"/>
<polygon fill="#191970" stroke="#191970" points="122.6123,-21.0665 112.309,-18.5978 118.824,-26.9529 122.6123,-21.0665"/>
</g>
<!-- Node3 -->
<g id="node4" class="node">
<title>Node3</title>
<g id="a_node4"><a xlink:title=" ">
<polygon fill="#ffffff" stroke="#bfbfbf" points="142.0518,-.5 142.0518,-18.5 190.293,-18.5 190.293,-.5 142.0518,-.5"/>
<text text-anchor="middle" x="166.1724" y="-6.5" font-family="Helvetica,sans-Serif" font-size="10.00" fill="#000000">stdint.h</text>
</a>
</g>
</g>
<!-- Node0&#45;&gt;Node3 -->
<g id="edge3" class="edge">
<title>Node0&#45;&gt;Node3</title>
<path fill="none" stroke="#191970" d="M189.4498,-55.3494C185.0223,-46.6287 179.8069,-36.3559 175.4362,-27.747"/>
<polygon fill="#191970" stroke="#191970" points="178.4391,-25.9301 170.7913,-18.5978 172.1974,-29.099 178.4391,-25.9301"/>
</g>
<!-- Node4 -->
<g id="node5" class="node">
<title>Node4</title>
<g id="a_node5"><a xlink:title=" ">
<polygon fill="#ffffff" stroke="#bfbfbf" points="208.3301,-.5 208.3301,-18.5 256.0146,-18.5 256.0146,-.5 208.3301,-.5"/>
<text text-anchor="middle" x="232.1724" y="-6.5" font-family="Helvetica,sans-Serif" font-size="10.00" fill="#000000">stdlib.h</text>
</a>
</g>
</g>
<!-- Node0&#45;&gt;Node4 -->
<g id="edge4" class="edge">
<title>Node0&#45;&gt;Node4</title>
<path fill="none" stroke="#191970" d="M208.895,-55.3494C213.3224,-46.6287 218.5378,-36.3559 222.9085,-27.747"/>
<polygon fill="#191970" stroke="#191970" points="226.1473,-29.099 227.5535,-18.5978 219.9056,-25.9301 226.1473,-29.099"/>
</g>
<!-- Node5 -->
<g id="node6" class="node">
<title>Node5</title>
<g id="a_node6"><a xlink:title=" ">
<polygon fill="#ffffff" stroke="#bfbfbf" points="274.5024,-.5 274.5024,-18.5 323.8423,-18.5 323.8423,-.5 274.5024,-.5"/>
<text text-anchor="middle" x="299.1724" y="-6.5" font-family="Helvetica,sans-Serif" font-size="10.00" fill="#000000">fstream</text>
</a>
</g>
</g>
<!-- Node0&#45;&gt;Node5 -->
<g id="edge5" class="edge">
<title>Node0&#45;&gt;Node5</title>
<path fill="none" stroke="#191970" d="M228.6348,-55.3494C243.9471,-45.3964 262.3697,-33.4217 276.5473,-24.2063"/>
<polygon fill="#191970" stroke="#191970" points="278.6987,-26.9823 285.1757,-18.5978 274.8837,-21.1132 278.6987,-26.9823"/>
</g>
<!-- Node6 -->
<g id="node7" class="node">
<title>Node6</title>
<g id="a_node7"><a xlink:href="_c_s_vto_vector_cpp_2_c_s_vreader_8h.html" target="_top" xlink:title=" ">
<polygon fill="#ffffff" stroke="#000000" points="341.7251,-.5 341.7251,-18.5 414.6196,-18.5 414.6196,-.5 341.7251,-.5"/>
<text text-anchor="middle" x="378.1724" y="-6.5" font-family="Helvetica,sans-Serif" font-size="10.00" fill="#000000">CSVreader.h</text>
</a>
</g>
</g>
<!-- Node0&#45;&gt;Node6 -->
<g id="edge6" class="edge">
<title>Node0&#45;&gt;Node6</title>
<path fill="none" stroke="#191970" d="M251.9101,-55.3494C281.5379,-44.5907 317.6712,-31.4697 343.6804,-22.025"/>
<polygon fill="#191970" stroke="#191970" points="344.9135,-25.3009 353.1183,-18.5978 342.5242,-18.7213 344.9135,-25.3009"/>
</g>
</g>
</svg>
