<?xml version="1.0" encoding="UTF-8" standalone="no"?>
<!DOCTYPE svg PUBLIC "-//W3C//DTD SVG 1.1//EN"
 "http://www.w3.org/Graphics/SVG/1.1/DTD/svg11.dtd">
<!-- Generated by graphviz version 2.40.1 (20161225.0304)
 -->
<!-- Title: /Users/jamielee/Desktop/uni stuff/RTE5/ENG5220/code/neuralnet_predict/CSVreader.h Pages: 1 -->
<svg width="450pt" height="142pt"
 viewBox="0.00 0.00 450.22 142.00" xmlns="http://www.w3.org/2000/svg" xmlns:xlink="http://www.w3.org/1999/xlink">
<g id="graph0" class="graph" transform="scale(1 1) rotate(0) translate(4 138)">
<title>/Users/jamielee/Desktop/uni stuff/RTE5/ENG5220/code/neuralnet_predict/CSVreader.h</title>
<polygon fill="#ffffff" stroke="transparent" points="-4,4 -4,-138 446.2178,-138 446.2178,4 -4,4"/>
<!-- Node3 -->
<g id="node1" class="node">
<title>Node3</title>
<g id="a_node1"><a xlink:title=" ">
<polygon fill="#bfbfbf" stroke="#000000" points="146,-85.5 146,-133.5 274.4805,-133.5 274.4805,-85.5 146,-85.5"/>
<text text-anchor="start" x="154" y="-121.5" font-family="Helvetica,sans-Serif" font-size="10.00" fill="#000000">/Users/jamielee/Desktop</text>
<text text-anchor="start" x="154" y="-111.5" font-family="Helvetica,sans-Serif" font-size="10.00" fill="#000000">/uni stuff/RTE5/ENG5220</text>
<text text-anchor="start" x="154" y="-101.5" font-family="Helvetica,sans-Serif" font-size="10.00" fill="#000000">/code/neuralnet_predict</text>
<text text-anchor="middle" x="210.2402" y="-91.5" font-family="Helvetica,sans-Serif" font-size="10.00" fill="#000000">/CSVreader.h</text>
</a>
</g>
</g>
<!-- Node4 -->
<g id="node2" class="node">
<title>Node4</title>
<g id="a_node2"><a xlink:href="_c_s_vreader_8cpp.html" target="_top" xlink:title=" ">
<polygon fill="#ffffff" stroke="#000000" points="0,-.5 0,-48.5 128.4805,-48.5 128.4805,-.5 0,-.5"/>
<text text-anchor="start" x="8" y="-36.5" font-family="Helvetica,sans-Serif" font-size="10.00" fill="#000000">/Users/jamielee/Desktop</text>
<text text-anchor="start" x="8" y="-26.5" font-family="Helvetica,sans-Serif" font-size="10.00" fill="#000000">/uni stuff/RTE5/ENG5220</text>
<text text-anchor="start" x="8" y="-16.5" font-family="Helvetica,sans-Serif" font-size="10.00" fill="#000000">/code/neuralnet_predict</text>
<text text-anchor="middle" x="64.2402" y="-6.5" font-family="Helvetica,sans-Serif" font-size="10.00" fill="#000000">/CSVreader.cpp</text>
</a>
</g>
</g>
<!-- Node3&#45;&gt;Node4 -->
<g id="edge1" class="edge">
<title>Node3&#45;&gt;Node4</title>
<path fill="none" stroke="#191970" d="M159.7421,-80.1004C142.0451,-69.7973 122.3926,-58.3558 105.5382,-48.5433"/>
<polygon fill="#191970" stroke="#191970" points="158.3899,-83.3631 168.793,-85.3698 161.9119,-77.3136 158.3899,-83.3631"/>
</g>
<!-- Node5 -->
<g id="node3" class="node">
<title>Node5</title>
<g id="a_node3"><a xlink:href="neuralnet__predict_2main_8cpp.html" target="_top" xlink:title=" ">
<polygon fill="#ffffff" stroke="#000000" points="146,-.5 146,-48.5 274.4805,-48.5 274.4805,-.5 146,-.5"/>
<text text-anchor="start" x="154" y="-36.5" font-family="Helvetica,sans-Serif" font-size="10.00" fill="#000000">/Users/jamielee/Desktop</text>
<text text-anchor="start" x="154" y="-26.5" font-family="Helvetica,sans-Serif" font-size="10.00" fill="#000000">/uni stuff/RTE5/ENG5220</text>
<text text-anchor="start" x="154" y="-16.5" font-family="Helvetica,sans-Serif" font-size="10.00" fill="#000000">/code/neuralnet_predict</text>
<text text-anchor="middle" x="210.2402" y="-6.5" font-family="Helvetica,sans-Serif" font-size="10.00" fill="#000000">/main.cpp</text>
</a>
</g>
</g>
<!-- Node3&#45;&gt;Node5 -->
<g id="edge2" class="edge">
<title>Node3&#45;&gt;Node5</title>
<path fill="none" stroke="#191970" d="M210.2402,-75.2518C210.2402,-66.3524 210.2402,-56.951 210.2402,-48.6906"/>
<polygon fill="#191970" stroke="#191970" points="206.7403,-75.3697 210.2402,-85.3698 213.7403,-75.3698 206.7403,-75.3697"/>
</g>
<!-- Node6 -->
<g id="node4" class="node">
<title>Node6</title>
<g id="a_node4"><a xlink:href="unit_tests_2neural_network_2main_8cpp.html" target="_top" xlink:title=" ">
<polygon fill="#ffffff" stroke="#000000" points="292.2627,-.5 292.2627,-48.5 442.2178,-48.5 442.2178,-.5 292.2627,-.5"/>
<text text-anchor="start" x="300.2627" y="-36.5" font-family="Helvetica,sans-Serif" font-size="10.00" fill="#000000">/Users/jamielee/Desktop</text>
<text text-anchor="start" x="300.2627" y="-26.5" font-family="Helvetica,sans-Serif" font-size="10.00" fill="#000000">/uni stuff/RTE5/ENG5220</text>
<text text-anchor="start" x="300.2627" y="-16.5" font-family="Helvetica,sans-Serif" font-size="10.00" fill="#000000">/code/unitTests/neuralNetwork</text>
<text text-anchor="middle" x="367.2402" y="-6.5" font-family="Helvetica,sans-Serif" font-size="10.00" fill="#000000">/main.cpp</text>
</a>
</g>
</g>
<!-- Node3&#45;&gt;Node6 -->
<g id="edge3" class="edge">
<title>Node3&#45;&gt;Node6</title>
<path fill="none" stroke="#191970" d="M263.7586,-80.5251C282.9912,-70.1125 304.4572,-58.4908 322.8308,-48.5433"/>
<polygon fill="#191970" stroke="#191970" points="261.9377,-77.5308 254.8102,-85.3698 265.2705,-83.6866 261.9377,-77.5308"/>
</g>
</g>
</svg>
