<?xml version="1.0" encoding="UTF-8" standalone="no"?>
<!DOCTYPE svg PUBLIC "-//W3C//DTD SVG 1.1//EN"
 "http://www.w3.org/Graphics/SVG/1.1/DTD/svg11.dtd">
<!-- Generated by graphviz version 2.40.1 (20161225.0304)
 -->
<!-- Title: code/CSVtoVectorCpp/main.cpp Pages: 1 -->
<svg width="423pt" height="92pt"
 viewBox="0.00 0.00 422.62 92.00" xmlns="http://www.w3.org/2000/svg" xmlns:xlink="http://www.w3.org/1999/xlink">
<g id="graph0" class="graph" transform="scale(1 1) rotate(0) translate(4 88)">
<title>code/CSVtoVectorCpp/main.cpp</title>
<polygon fill="#ffffff" stroke="transparent" points="-4,4 -4,-88 418.6196,-88 418.6196,4 -4,4"/>
<!-- Node0 -->
<g id="node1" class="node">
<title>Node0</title>
<g id="a_node1"><a xlink:title=" ">
<polygon fill="#bfbfbf" stroke="#000000" points="141.1406,-55.5 141.1406,-83.5 257.2041,-83.5 257.2041,-55.5 141.1406,-55.5"/>
<text text-anchor="start" x="149.1406" y="-71.5" font-family="Helvetica,sans-Serif" font-size="10.00" fill="#000000">code/CSVtoVectorCpp</text>
<text text-anchor="middle" x="199.1724" y="-61.5" font-family="Helvetica,sans-Serif" font-size="10.00" fill="#000000">/main.cpp</text>
</a>
</g>
</g>
<!-- Node1 -->
<g id="node2" class="node">
<title>Node1</title>
<g id="a_node2"><a xlink:title=" ">
<polygon fill="#ffffff" stroke="#bfbfbf" points="0,-.5 0,-18.5 54.3447,-18.5 54.3447,-.5 0,-.5"/>
<text text-anchor="middle" x="27.1724" y="-6.5" font-family="Helvetica,sans-Serif" font-size="10.00" fill="#000000">iostream</text>
</a>
</g>
</g>
<!-- Node0&#45;&gt;Node1 -->
<g id="edge1" class="edge">
<title>Node0&#45;&gt;Node1</title>
<path fill="none" stroke="#191970" d="M158.846,-55.4327C129.7516,-45.2835 90.8323,-31.707 62.8627,-21.9501"/>
<polygon fill="#191970" stroke="#191970" points="63.6868,-18.5308 53.092,-18.5417 61.3812,-25.1402 63.6868,-18.5308"/>
</g>
<!-- Node2 -->
<g id="node3" class="node">
<title>Node2</title>
<g id="a_node3"><a xlink:title=" ">
<polygon fill="#ffffff" stroke="#bfbfbf" points="72.6602,-.5 72.6602,-18.5 123.6846,-18.5 123.6846,-.5 72.6602,-.5"/>
<text text-anchor="middle" x="98.1724" y="-6.5" font-family="Helvetica,sans-Serif" font-size="10.00" fill="#000000">unistd.h</text>
</a>
</g>
</g>
<!-- Node0&#45;&gt;Node2 -->
<g id="edge2" class="edge">
<title>Node0&#45;&gt;Node2</title>
<path fill="none" stroke="#191970" d="M175.4924,-55.4327C159.5056,-45.9356 138.4672,-33.4376 122.3725,-23.8763"/>
<polygon fill="#191970" stroke="#191970" points="123.928,-20.7294 113.543,-18.6311 120.3528,-26.7475 123.928,-20.7294"/>
</g>
<!-- Node3 -->
<g id="node4" class="node">
<title>Node3</title>
<g id="a_node4"><a xlink:title=" ">
<polygon fill="#ffffff" stroke="#bfbfbf" points="142.0518,-.5 142.0518,-18.5 190.293,-18.5 190.293,-.5 142.0518,-.5"/>
<text text-anchor="middle" x="166.1724" y="-6.5" font-family="Helvetica,sans-Serif" font-size="10.00" fill="#000000">stdint.h</text>
</a>
</g>
</g>
<!-- Node0&#45;&gt;Node3 -->
<g id="edge3" class="edge">
<title>Node0&#45;&gt;Node3</title>
<path fill="none" stroke="#191970" d="M191.3518,-55.2808C186.7608,-46.9336 180.9166,-36.3076 176.0144,-27.3946"/>
<polygon fill="#191970" stroke="#191970" points="179.0547,-25.6596 171.1687,-18.5842 172.9211,-29.0331 179.0547,-25.6596"/>
</g>
<!-- Node4 -->
<g id="node5" class="node">
<title>Node4</title>
<g id="a_node5"><a xlink:title=" ">
<polygon fill="#ffffff" stroke="#bfbfbf" points="208.3301,-.5 208.3301,-18.5 256.0146,-18.5 256.0146,-.5 208.3301,-.5"/>
<text text-anchor="middle" x="232.1724" y="-6.5" font-family="Helvetica,sans-Serif" font-size="10.00" fill="#000000">stdlib.h</text>
</a>
</g>
</g>
<!-- Node0&#45;&gt;Node4 -->
<g id="edge4" class="edge">
<title>Node0&#45;&gt;Node4</title>
<path fill="none" stroke="#191970" d="M206.9929,-55.2808C211.5839,-46.9336 217.4282,-36.3076 222.3303,-27.3946"/>
<polygon fill="#191970" stroke="#191970" points="225.4236,-29.0331 227.1761,-18.5842 219.2901,-25.6596 225.4236,-29.0331"/>
</g>
<!-- Node5 -->
<g id="node6" class="node">
<title>Node5</title>
<g id="a_node6"><a xlink:title=" ">
<polygon fill="#ffffff" stroke="#bfbfbf" points="274.5024,-.5 274.5024,-18.5 323.8423,-18.5 323.8423,-.5 274.5024,-.5"/>
<text text-anchor="middle" x="299.1724" y="-6.5" font-family="Helvetica,sans-Serif" font-size="10.00" fill="#000000">fstream</text>
</a>
</g>
</g>
<!-- Node0&#45;&gt;Node5 -->
<g id="edge5" class="edge">
<title>Node0&#45;&gt;Node5</title>
<path fill="none" stroke="#191970" d="M222.6179,-55.4327C238.4464,-45.9356 259.2764,-33.4376 275.2118,-23.8763"/>
<polygon fill="#191970" stroke="#191970" points="277.1797,-26.7773 283.9539,-18.6311 273.5782,-20.7748 277.1797,-26.7773"/>
</g>
<!-- Node6 -->
<g id="node7" class="node">
<title>Node6</title>
<g id="a_node7"><a xlink:href="_c_s_vto_vector_cpp_2_c_s_vreader_8h.html" target="_top" xlink:title=" ">
<polygon fill="#ffffff" stroke="#000000" points="341.7251,-.5 341.7251,-18.5 414.6196,-18.5 414.6196,-.5 341.7251,-.5"/>
<text text-anchor="middle" x="378.1724" y="-6.5" font-family="Helvetica,sans-Serif" font-size="10.00" fill="#000000">CSVreader.h</text>
</a>
</g>
</g>
<!-- Node0&#45;&gt;Node6 -->
<g id="edge6" class="edge">
<title>Node0&#45;&gt;Node6</title>
<path fill="none" stroke="#191970" d="M241.1399,-55.4327C271.5512,-45.2389 312.2771,-31.5878 341.4119,-21.822"/>
<polygon fill="#191970" stroke="#191970" points="342.8287,-25.0385 351.1979,-18.5417 340.604,-18.4014 342.8287,-25.0385"/>
</g>
</g>
</svg>
