<?xml version="1.0" encoding="UTF-8" standalone="no"?>
<!DOCTYPE svg PUBLIC "-//W3C//DTD SVG 1.1//EN"
 "http://www.w3.org/Graphics/SVG/1.1/DTD/svg11.dtd">
<!-- Generated by graphviz version 2.40.1 (20161225.0304)
 -->
<!-- Title: code/CSVtoVectorCpp/CSVreader.h Pages: 1 -->
<svg width="258pt" height="102pt"
 viewBox="0.00 0.00 258.06 102.00" xmlns="http://www.w3.org/2000/svg" xmlns:xlink="http://www.w3.org/1999/xlink">
<g id="graph0" class="graph" transform="scale(1 1) rotate(0) translate(4 98)">
<title>code/CSVtoVectorCpp/CSVreader.h</title>
<polygon fill="#ffffff" stroke="transparent" points="-4,4 -4,-98 254.0635,-98 254.0635,4 -4,4"/>
<!-- Node1 -->
<g id="node1" class="node">
<title>Node1</title>
<g id="a_node1"><a xlink:title=" ">
<polygon fill="#bfbfbf" stroke="#000000" points="67,-65.5 67,-93.5 183.0635,-93.5 183.0635,-65.5 67,-65.5"/>
<text text-anchor="start" x="75" y="-81.5" font-family="Helvetica,sans-Serif" font-size="10.00" fill="#000000">code/CSVtoVectorCpp</text>
<text text-anchor="middle" x="125.0317" y="-71.5" font-family="Helvetica,sans-Serif" font-size="10.00" fill="#000000">/CSVreader.h</text>
</a>
</g>
</g>
<!-- Node2 -->
<g id="node2" class="node">
<title>Node2</title>
<g id="a_node2"><a xlink:href="_c_s_vto_vector_cpp_2_c_s_vreader_8cpp.html" target="_top" xlink:title=" ">
<polygon fill="#ffffff" stroke="#000000" points="0,-.5 0,-28.5 116.0635,-28.5 116.0635,-.5 0,-.5"/>
<text text-anchor="start" x="8" y="-16.5" font-family="Helvetica,sans-Serif" font-size="10.00" fill="#000000">code/CSVtoVectorCpp</text>
<text text-anchor="middle" x="58.0317" y="-6.5" font-family="Helvetica,sans-Serif" font-size="10.00" fill="#000000">/CSVreader.cpp</text>
</a>
</g>
</g>
<!-- Node1&#45;&gt;Node2 -->
<g id="edge1" class="edge">
<title>Node1&#45;&gt;Node2</title>
<path fill="none" stroke="#191970" d="M103.1913,-58.3115C93.141,-48.5612 81.4911,-37.259 72.5414,-28.5765"/>
<polygon fill="#191970" stroke="#191970" points="100.8792,-60.9449 110.4937,-65.396 105.7534,-55.9207 100.8792,-60.9449"/>
</g>
<!-- Node3 -->
<g id="node3" class="node">
<title>Node3</title>
<g id="a_node3"><a xlink:href="_c_s_vto_vector_cpp_2main_8cpp.html" target="_top" xlink:title=" ">
<polygon fill="#ffffff" stroke="#000000" points="134,-.5 134,-28.5 250.0635,-28.5 250.0635,-.5 134,-.5"/>
<text text-anchor="start" x="142" y="-16.5" font-family="Helvetica,sans-Serif" font-size="10.00" fill="#000000">code/CSVtoVectorCpp</text>
<text text-anchor="middle" x="192.0317" y="-6.5" font-family="Helvetica,sans-Serif" font-size="10.00" fill="#000000">/main.cpp</text>
</a>
</g>
</g>
<!-- Node1&#45;&gt;Node3 -->
<g id="edge2" class="edge">
<title>Node1&#45;&gt;Node3</title>
<path fill="none" stroke="#191970" d="M146.8722,-58.3115C156.9225,-48.5612 168.5724,-37.259 177.5221,-28.5765"/>
<polygon fill="#191970" stroke="#191970" points="144.31,-55.9207 139.5697,-65.396 149.1843,-60.9449 144.31,-55.9207"/>
</g>
</g>
</svg>
