<?xml version="1.0" encoding="UTF-8" standalone="no"?>
<!DOCTYPE svg PUBLIC "-//W3C//DTD SVG 1.1//EN"
 "http://www.w3.org/Graphics/SVG/1.1/DTD/svg11.dtd">
<!-- Generated by graphviz version 2.40.1 (20161225.0304)
 -->
<!-- Title: /Users/jamielee/Desktop/uni stuff/RTE5/ENG5220/code/CSVtoVectorCpp/CSVreader.h Pages: 1 -->
<svg width="378pt" height="122pt"
 viewBox="0.00 0.00 377.64 122.00" xmlns="http://www.w3.org/2000/svg" xmlns:xlink="http://www.w3.org/1999/xlink">
<g id="graph0" class="graph" transform="scale(1 1) rotate(0) translate(4 118)">
<title>/Users/jamielee/Desktop/uni stuff/RTE5/ENG5220/code/CSVtoVectorCpp/CSVreader.h</title>
<polygon fill="#ffffff" stroke="transparent" points="-4,4 -4,-118 373.6362,-118 373.6362,4 -4,4"/>
<!-- Node1 -->
<g id="node1" class="node">
<title>Node1</title>
<g id="a_node1"><a xlink:title=" ">
<polygon fill="#bfbfbf" stroke="#000000" points="102.2808,-75.5 102.2808,-113.5 280.7954,-113.5 280.7954,-75.5 102.2808,-75.5"/>
<text text-anchor="start" x="110.2808" y="-101.5" font-family="Helvetica,sans-Serif" font-size="10.00" fill="#000000">/Users/jamielee/Desktop</text>
<text text-anchor="start" x="110.2808" y="-91.5" font-family="Helvetica,sans-Serif" font-size="10.00" fill="#000000">/uni stuff/RTE5/ENG5220</text>
<text text-anchor="middle" x="191.5381" y="-81.5" font-family="Helvetica,sans-Serif" font-size="10.00" fill="#000000">/code/CSVtoVectorCpp/CSVreader.h</text>
</a>
</g>
</g>
<!-- Node2 -->
<g id="node2" class="node">
<title>Node2</title>
<g id="a_node2"><a xlink:href="_c_s_vto_vector_cpp_2_c_s_vreader_8cpp.html" target="_top" xlink:title=" ">
<polygon fill="#ffffff" stroke="#000000" points="0,-.5 0,-38.5 189.0762,-38.5 189.0762,-.5 0,-.5"/>
<text text-anchor="start" x="8" y="-26.5" font-family="Helvetica,sans-Serif" font-size="10.00" fill="#000000">/Users/jamielee/Desktop</text>
<text text-anchor="start" x="8" y="-16.5" font-family="Helvetica,sans-Serif" font-size="10.00" fill="#000000">/uni stuff/RTE5/ENG5220</text>
<text text-anchor="middle" x="94.5381" y="-6.5" font-family="Helvetica,sans-Serif" font-size="10.00" fill="#000000">/code/CSVtoVectorCpp/CSVreader.cpp</text>
</a>
</g>
</g>
<!-- Node1&#45;&gt;Node2 -->
<g id="edge1" class="edge">
<title>Node1&#45;&gt;Node2</title>
<path fill="none" stroke="#191970" d="M158.6177,-69.0461C145.7238,-59.0766 131.1862,-47.8361 119.2211,-38.5848"/>
<polygon fill="#191970" stroke="#191970" points="156.7579,-72.0323 166.8099,-75.3803 161.0397,-66.4946 156.7579,-72.0323"/>
</g>
<!-- Node3 -->
<g id="node3" class="node">
<title>Node3</title>
<g id="a_node3"><a xlink:href="_c_s_vto_vector_cpp_2main_8cpp.html" target="_top" xlink:title=" ">
<polygon fill="#ffffff" stroke="#000000" points="207.4399,-.5 207.4399,-38.5 369.6362,-38.5 369.6362,-.5 207.4399,-.5"/>
<text text-anchor="start" x="215.4399" y="-26.5" font-family="Helvetica,sans-Serif" font-size="10.00" fill="#000000">/Users/jamielee/Desktop</text>
<text text-anchor="start" x="215.4399" y="-16.5" font-family="Helvetica,sans-Serif" font-size="10.00" fill="#000000">/uni stuff/RTE5/ENG5220</text>
<text text-anchor="middle" x="288.5381" y="-6.5" font-family="Helvetica,sans-Serif" font-size="10.00" fill="#000000">/code/CSVtoVectorCpp/main.cpp</text>
</a>
</g>
</g>
<!-- Node1&#45;&gt;Node3 -->
<g id="edge2" class="edge">
<title>Node1&#45;&gt;Node3</title>
<path fill="none" stroke="#191970" d="M224.4585,-69.0461C237.3524,-59.0766 251.89,-47.8361 263.8551,-38.5848"/>
<polygon fill="#191970" stroke="#191970" points="222.0364,-66.4946 216.2663,-75.3803 226.3182,-72.0323 222.0364,-66.4946"/>
</g>
</g>
</svg>
