<?xml version="1.0" encoding="UTF-8" standalone="no"?>
<!DOCTYPE svg PUBLIC "-//W3C//DTD SVG 1.1//EN"
 "http://www.w3.org/Graphics/SVG/1.1/DTD/svg11.dtd">
<!-- Generated by graphviz version 2.40.1 (20161225.0304)
 -->
<!-- Title: /Users/jamielee/Desktop/uni stuff/RTE5/ENG5220/code/neuralnet_predict/CSVreader.cpp Pages: 1 -->
<svg width="367pt" height="167pt"
 viewBox="0.00 0.00 367.46 167.00" xmlns="http://www.w3.org/2000/svg" xmlns:xlink="http://www.w3.org/1999/xlink">
<g id="graph0" class="graph" transform="scale(1 1) rotate(0) translate(4 163)">
<title>/Users/jamielee/Desktop/uni stuff/RTE5/ENG5220/code/neuralnet_predict/CSVreader.cpp</title>
<polygon fill="#ffffff" stroke="transparent" points="-4,4 -4,-163 363.458,-163 363.458,4 -4,4"/>
<!-- Node0 -->
<g id="node1" class="node">
<title>Node0</title>
<g id="a_node1"><a xlink:title=" ">
<polygon fill="#bfbfbf" stroke="#000000" points="136.3755,-110.5 136.3755,-158.5 264.856,-158.5 264.856,-110.5 136.3755,-110.5"/>
<text text-anchor="start" x="144.3755" y="-146.5" font-family="Helvetica,sans-Serif" font-size="10.00" fill="#000000">/Users/jamielee/Desktop</text>
<text text-anchor="start" x="144.3755" y="-136.5" font-family="Helvetica,sans-Serif" font-size="10.00" fill="#000000">/uni stuff/RTE5/ENG5220</text>
<text text-anchor="start" x="144.3755" y="-126.5" font-family="Helvetica,sans-Serif" font-size="10.00" fill="#000000">/code/neuralnet_predict</text>
<text text-anchor="middle" x="200.6157" y="-116.5" font-family="Helvetica,sans-Serif" font-size="10.00" fill="#000000">/CSVreader.cpp</text>
</a>
</g>
</g>
<!-- Node1 -->
<g id="node2" class="node">
<title>Node1</title>
<g id="a_node2"><a xlink:href="_c_s_vreader_8h.html" target="_top" xlink:title=" ">
<polygon fill="#ffffff" stroke="#000000" points="18.1685,-55.5 18.1685,-73.5 91.063,-73.5 91.063,-55.5 18.1685,-55.5"/>
<text text-anchor="middle" x="54.6157" y="-61.5" font-family="Helvetica,sans-Serif" font-size="10.00" fill="#000000">CSVreader.h</text>
</a>
</g>
</g>
<!-- Node0&#45;&gt;Node1 -->
<g id="edge1" class="edge">
<title>Node0&#45;&gt;Node1</title>
<path fill="none" stroke="#191970" d="M150.3708,-110.41C127.6493,-99.5161 101.6598,-87.0554 82.4956,-77.8671"/>
<polygon fill="#191970" stroke="#191970" points="83.9458,-74.6809 73.4154,-73.5136 80.9194,-80.9929 83.9458,-74.6809"/>
</g>
<!-- Node4 -->
<g id="node5" class="node">
<title>Node4</title>
<g id="a_node5"><a xlink:title=" ">
<polygon fill="#ffffff" stroke="#bfbfbf" points="108.9458,-55.5 108.9458,-73.5 158.2856,-73.5 158.2856,-55.5 108.9458,-55.5"/>
<text text-anchor="middle" x="133.6157" y="-61.5" font-family="Helvetica,sans-Serif" font-size="10.00" fill="#000000">fstream</text>
</a>
</g>
</g>
<!-- Node0&#45;&gt;Node4 -->
<g id="edge4" class="edge">
<title>Node0&#45;&gt;Node4</title>
<path fill="none" stroke="#191970" d="M177.5581,-110.41C168.2842,-100.7207 157.8239,-89.7921 149.4361,-81.0288"/>
<polygon fill="#191970" stroke="#191970" points="151.8523,-78.4913 142.4092,-73.6872 146.7954,-83.3316 151.8523,-78.4913"/>
</g>
<!-- Node5 -->
<g id="node6" class="node">
<title>Node5</title>
<g id="a_node6"><a xlink:title=" ">
<polygon fill="#ffffff" stroke="#bfbfbf" points="176.4951,-55.5 176.4951,-73.5 224.7363,-73.5 224.7363,-55.5 176.4951,-55.5"/>
<text text-anchor="middle" x="200.6157" y="-61.5" font-family="Helvetica,sans-Serif" font-size="10.00" fill="#000000">stdint.h</text>
</a>
</g>
</g>
<!-- Node0&#45;&gt;Node5 -->
<g id="edge5" class="edge">
<title>Node0&#45;&gt;Node5</title>
<path fill="none" stroke="#191970" d="M200.6157,-110.41C200.6157,-101.7094 200.6157,-92.0095 200.6157,-83.7754"/>
<polygon fill="#191970" stroke="#191970" points="204.1158,-83.6872 200.6157,-73.6872 197.1158,-83.6873 204.1158,-83.6872"/>
</g>
<!-- Node6 -->
<g id="node7" class="node">
<title>Node6</title>
<g id="a_node7"><a xlink:title=" ">
<polygon fill="#ffffff" stroke="#bfbfbf" points="243.1035,-55.5 243.1035,-73.5 294.1279,-73.5 294.1279,-55.5 243.1035,-55.5"/>
<text text-anchor="middle" x="268.6157" y="-61.5" font-family="Helvetica,sans-Serif" font-size="10.00" fill="#000000">unistd.h</text>
</a>
</g>
</g>
<!-- Node0&#45;&gt;Node6 -->
<g id="edge6" class="edge">
<title>Node0&#45;&gt;Node6</title>
<path fill="none" stroke="#191970" d="M224.0175,-110.41C233.4299,-100.7207 244.0463,-89.7921 252.5592,-81.0288"/>
<polygon fill="#191970" stroke="#191970" points="255.2336,-83.2988 259.691,-73.6872 250.2126,-78.4213 255.2336,-83.2988"/>
</g>
<!-- Node7 -->
<g id="node8" class="node">
<title>Node7</title>
<g id="a_node8"><a xlink:title=" ">
<polygon fill="#ffffff" stroke="#bfbfbf" points="311.7734,-55.5 311.7734,-73.5 359.458,-73.5 359.458,-55.5 311.7734,-55.5"/>
<text text-anchor="middle" x="335.6157" y="-61.5" font-family="Helvetica,sans-Serif" font-size="10.00" fill="#000000">stdlib.h</text>
</a>
</g>
</g>
<!-- Node0&#45;&gt;Node7 -->
<g id="edge7" class="edge">
<title>Node0&#45;&gt;Node7</title>
<path fill="none" stroke="#191970" d="M247.0751,-110.41C267.7969,-99.6653 291.4582,-87.3965 309.1046,-78.2465"/>
<polygon fill="#191970" stroke="#191970" points="310.966,-81.2239 318.2324,-73.5136 307.7438,-75.0096 310.966,-81.2239"/>
</g>
<!-- Node2 -->
<g id="node3" class="node">
<title>Node2</title>
<g id="a_node3"><a xlink:title=" ">
<polygon fill="#ffffff" stroke="#bfbfbf" points="0,-.5 0,-18.5 43.2314,-18.5 43.2314,-.5 0,-.5"/>
<text text-anchor="middle" x="21.6157" y="-6.5" font-family="Helvetica,sans-Serif" font-size="10.00" fill="#000000">vector</text>
</a>
</g>
</g>
<!-- Node1&#45;&gt;Node2 -->
<g id="edge2" class="edge">
<title>Node1&#45;&gt;Node2</title>
<path fill="none" stroke="#191970" d="M49.1664,-55.4179C44.6081,-47.8207 37.9673,-36.7527 32.3477,-27.3866"/>
<polygon fill="#191970" stroke="#191970" points="35.3296,-25.5536 27.1834,-18.7795 29.3272,-29.1552 35.3296,-25.5536"/>
</g>
<!-- Node3 -->
<g id="node4" class="node">
<title>Node3</title>
<g id="a_node4"><a xlink:title=" ">
<polygon fill="#ffffff" stroke="#bfbfbf" points="61.4434,-.5 61.4434,-18.5 115.7881,-18.5 115.7881,-.5 61.4434,-.5"/>
<text text-anchor="middle" x="88.6157" y="-6.5" font-family="Helvetica,sans-Serif" font-size="10.00" fill="#000000">iostream</text>
</a>
</g>
</g>
<!-- Node1&#45;&gt;Node3 -->
<g id="edge3" class="edge">
<title>Node1&#45;&gt;Node3</title>
<path fill="none" stroke="#191970" d="M60.2301,-55.4179C64.9266,-47.8207 71.7686,-36.7527 77.5585,-27.3866"/>
<polygon fill="#191970" stroke="#191970" points="80.5981,-29.1258 82.8793,-18.7795 74.644,-25.445 80.5981,-29.1258"/>
</g>
</g>
</svg>
