<?xml version="1.0" encoding="UTF-8" standalone="no"?>
<!DOCTYPE svg PUBLIC "-//W3C//DTD SVG 1.1//EN"
 "http://www.w3.org/Graphics/SVG/1.1/DTD/svg11.dtd">
<!-- Generated by graphviz version 2.40.1 (20161225.0304)
 -->
<!-- Title: /Users/jamielee/Desktop/uni stuff/RTE5/ENG5220/code/filters/FilterBank.h Pages: 1 -->
<svg width="365pt" height="272pt"
 viewBox="0.00 0.00 364.92 272.00" xmlns="http://www.w3.org/2000/svg" xmlns:xlink="http://www.w3.org/1999/xlink">
<g id="graph0" class="graph" transform="scale(1 1) rotate(0) translate(4 268)">
<title>/Users/jamielee/Desktop/uni stuff/RTE5/ENG5220/code/filters/FilterBank.h</title>
<polygon fill="#ffffff" stroke="transparent" points="-4,4 -4,-268 360.9248,-268 360.9248,4 -4,4"/>
<!-- Node2 -->
<g id="node1" class="node">
<title>Node2</title>
<g id="a_node1"><a xlink:title=" ">
<polygon fill="#bfbfbf" stroke="#000000" points="76.6733,-225.5 76.6733,-263.5 205.1538,-263.5 205.1538,-225.5 76.6733,-225.5"/>
<text text-anchor="start" x="84.6733" y="-251.5" font-family="Helvetica,sans-Serif" font-size="10.00" fill="#000000">/Users/jamielee/Desktop</text>
<text text-anchor="start" x="84.6733" y="-241.5" font-family="Helvetica,sans-Serif" font-size="10.00" fill="#000000">/uni stuff/RTE5/ENG5220</text>
<text text-anchor="middle" x="140.9136" y="-231.5" font-family="Helvetica,sans-Serif" font-size="10.00" fill="#000000">/code/filters/FilterBank.h</text>
</a>
</g>
</g>
<!-- Node3 -->
<g id="node2" class="node">
<title>Node3</title>
<g id="a_node2"><a xlink:href="_filter_bank_8cpp.html" target="_top" xlink:title=" ">
<polygon fill="#ffffff" stroke="#000000" points="0,-150.5 0,-188.5 133.8271,-188.5 133.8271,-150.5 0,-150.5"/>
<text text-anchor="start" x="8" y="-176.5" font-family="Helvetica,sans-Serif" font-size="10.00" fill="#000000">/Users/jamielee/Desktop</text>
<text text-anchor="start" x="8" y="-166.5" font-family="Helvetica,sans-Serif" font-size="10.00" fill="#000000">/uni stuff/RTE5/ENG5220</text>
<text text-anchor="middle" x="66.9136" y="-156.5" font-family="Helvetica,sans-Serif" font-size="10.00" fill="#000000">/code/filters/FilterBank.cpp</text>
</a>
</g>
</g>
<!-- Node2&#45;&gt;Node3 -->
<g id="edge1" class="edge">
<title>Node2&#45;&gt;Node3</title>
<path fill="none" stroke="#191970" d="M114.8227,-218.0566C105.2923,-208.3973 94.7013,-197.6633 85.9058,-188.7489"/>
<polygon fill="#191970" stroke="#191970" points="112.3418,-220.5255 121.8567,-225.1856 117.3247,-215.609 112.3418,-220.5255"/>
</g>
<!-- Node4 -->
<g id="node3" class="node">
<title>Node4</title>
<g id="a_node3"><a xlink:href="_sample_timer_8h.html" target="_top" xlink:title=" ">
<polygon fill="#ffffff" stroke="#000000" points="151.6733,-150.5 151.6733,-188.5 280.1538,-188.5 280.1538,-150.5 151.6733,-150.5"/>
<text text-anchor="start" x="159.6733" y="-176.5" font-family="Helvetica,sans-Serif" font-size="10.00" fill="#000000">/Users/jamielee/Desktop</text>
<text text-anchor="start" x="159.6733" y="-166.5" font-family="Helvetica,sans-Serif" font-size="10.00" fill="#000000">/uni stuff/RTE5/ENG5220</text>
<text text-anchor="middle" x="215.9136" y="-156.5" font-family="Helvetica,sans-Serif" font-size="10.00" fill="#000000">/code/Qt/SampleTimer.h</text>
</a>
</g>
</g>
<!-- Node2&#45;&gt;Node4 -->
<g id="edge2" class="edge">
<title>Node2&#45;&gt;Node4</title>
<path fill="none" stroke="#191970" d="M167.357,-218.0566C177.0162,-208.3973 187.7503,-197.6633 196.6647,-188.7489"/>
<polygon fill="#191970" stroke="#191970" points="164.8242,-215.6397 160.2279,-225.1856 169.7739,-220.5894 164.8242,-215.6397"/>
</g>
<!-- Node5 -->
<g id="node4" class="node">
<title>Node5</title>
<g id="a_node4"><a xlink:href="mainwindow_8h.html" target="_top" xlink:title=" ">
<polygon fill="#ffffff" stroke="#000000" points="76.6733,-75.5 76.6733,-113.5 205.1538,-113.5 205.1538,-75.5 76.6733,-75.5"/>
<text text-anchor="start" x="84.6733" y="-101.5" font-family="Helvetica,sans-Serif" font-size="10.00" fill="#000000">/Users/jamielee/Desktop</text>
<text text-anchor="start" x="84.6733" y="-91.5" font-family="Helvetica,sans-Serif" font-size="10.00" fill="#000000">/uni stuff/RTE5/ENG5220</text>
<text text-anchor="middle" x="140.9136" y="-81.5" font-family="Helvetica,sans-Serif" font-size="10.00" fill="#000000">/code/Qt/mainwindow.h</text>
</a>
</g>
</g>
<!-- Node4&#45;&gt;Node5 -->
<g id="edge3" class="edge">
<title>Node4&#45;&gt;Node5</title>
<path fill="none" stroke="#191970" d="M189.4702,-143.0566C179.8109,-133.3973 169.0768,-122.6633 160.1625,-113.7489"/>
<polygon fill="#191970" stroke="#191970" points="187.0532,-145.5894 196.5992,-150.1856 192.003,-140.6397 187.0532,-145.5894"/>
</g>
<!-- Node8 -->
<g id="node7" class="node">
<title>Node8</title>
<g id="a_node7"><a xlink:href="_sample_timer_8cpp.html" target="_top" xlink:title=" ">
<polygon fill="#ffffff" stroke="#000000" points="222.9023,-75.5 222.9023,-113.5 356.9248,-113.5 356.9248,-75.5 222.9023,-75.5"/>
<text text-anchor="start" x="230.9023" y="-101.5" font-family="Helvetica,sans-Serif" font-size="10.00" fill="#000000">/Users/jamielee/Desktop</text>
<text text-anchor="start" x="230.9023" y="-91.5" font-family="Helvetica,sans-Serif" font-size="10.00" fill="#000000">/uni stuff/RTE5/ENG5220</text>
<text text-anchor="middle" x="289.9136" y="-81.5" font-family="Helvetica,sans-Serif" font-size="10.00" fill="#000000">/code/Qt/SampleTimer.cpp</text>
</a>
</g>
</g>
<!-- Node4&#45;&gt;Node8 -->
<g id="edge6" class="edge">
<title>Node4&#45;&gt;Node8</title>
<path fill="none" stroke="#191970" d="M242.0044,-143.0566C251.5349,-133.3973 262.1258,-122.6633 270.9213,-113.7489"/>
<polygon fill="#191970" stroke="#191970" points="239.5025,-140.609 234.9704,-150.1856 244.4853,-145.5255 239.5025,-140.609"/>
</g>
<!-- Node6 -->
<g id="node5" class="node">
<title>Node6</title>
<g id="a_node5"><a xlink:href="_qt_2main_8cpp.html" target="_top" xlink:title=" ">
<polygon fill="#ffffff" stroke="#000000" points="3.6733,-.5 3.6733,-38.5 132.1538,-38.5 132.1538,-.5 3.6733,-.5"/>
<text text-anchor="start" x="11.6733" y="-26.5" font-family="Helvetica,sans-Serif" font-size="10.00" fill="#000000">/Users/jamielee/Desktop</text>
<text text-anchor="start" x="11.6733" y="-16.5" font-family="Helvetica,sans-Serif" font-size="10.00" fill="#000000">/uni stuff/RTE5/ENG5220</text>
<text text-anchor="middle" x="67.9136" y="-6.5" font-family="Helvetica,sans-Serif" font-size="10.00" fill="#000000">/code/Qt/main.cpp</text>
</a>
</g>
</g>
<!-- Node5&#45;&gt;Node6 -->
<g id="edge4" class="edge">
<title>Node5&#45;&gt;Node6</title>
<path fill="none" stroke="#191970" d="M114.8985,-67.7722C105.569,-58.187 95.2408,-47.5759 86.6492,-38.7489"/>
<polygon fill="#191970" stroke="#191970" points="112.6313,-70.4609 122.1143,-75.1856 117.6475,-65.5784 112.6313,-70.4609"/>
</g>
<!-- Node7 -->
<g id="node6" class="node">
<title>Node7</title>
<g id="a_node6"><a xlink:href="mainwindow_8cpp.html" target="_top" xlink:title=" ">
<polygon fill="#ffffff" stroke="#000000" points="149.936,-.5 149.936,-38.5 279.8911,-38.5 279.8911,-.5 149.936,-.5"/>
<text text-anchor="start" x="157.936" y="-26.5" font-family="Helvetica,sans-Serif" font-size="10.00" fill="#000000">/Users/jamielee/Desktop</text>
<text text-anchor="start" x="157.936" y="-16.5" font-family="Helvetica,sans-Serif" font-size="10.00" fill="#000000">/uni stuff/RTE5/ENG5220</text>
<text text-anchor="middle" x="214.9136" y="-6.5" font-family="Helvetica,sans-Serif" font-size="10.00" fill="#000000">/code/Qt/mainwindow.cpp</text>
</a>
</g>
</g>
<!-- Node5&#45;&gt;Node7 -->
<g id="edge5" class="edge">
<title>Node5&#45;&gt;Node7</title>
<path fill="none" stroke="#191970" d="M167.0044,-68.0566C176.5349,-58.3973 187.1258,-47.6633 195.9213,-38.7489"/>
<polygon fill="#191970" stroke="#191970" points="164.5025,-65.609 159.9704,-75.1856 169.4853,-70.5255 164.5025,-65.609"/>
</g>
</g>
</svg>
