<?xml version="1.0" encoding="UTF-8" standalone="no"?>
<!DOCTYPE svg PUBLIC "-//W3C//DTD SVG 1.1//EN"
 "http://www.w3.org/Graphics/SVG/1.1/DTD/svg11.dtd">
<!-- Generated by graphviz version 2.40.1 (20161225.0304)
 -->
<!-- Title: /Users/jamielee/Desktop/uni stuff/RTE5/ENG5220/code/filters/FilterBank.cpp Pages: 1 -->
<svg width="142pt" height="157pt"
 viewBox="0.00 0.00 141.83 157.00" xmlns="http://www.w3.org/2000/svg" xmlns:xlink="http://www.w3.org/1999/xlink">
<g id="graph0" class="graph" transform="scale(1 1) rotate(0) translate(4 153)">
<title>/Users/jamielee/Desktop/uni stuff/RTE5/ENG5220/code/filters/FilterBank.cpp</title>
<polygon fill="#ffffff" stroke="transparent" points="-4,4 -4,-153 137.8271,-153 137.8271,4 -4,4"/>
<!-- Node0 -->
<g id="node1" class="node">
<title>Node0</title>
<g id="a_node1"><a xlink:title=" ">
<polygon fill="#bfbfbf" stroke="#000000" points="0,-110.5 0,-148.5 133.8271,-148.5 133.8271,-110.5 0,-110.5"/>
<text text-anchor="start" x="8" y="-136.5" font-family="Helvetica,sans-Serif" font-size="10.00" fill="#000000">/Users/jamielee/Desktop</text>
<text text-anchor="start" x="8" y="-126.5" font-family="Helvetica,sans-Serif" font-size="10.00" fill="#000000">/uni stuff/RTE5/ENG5220</text>
<text text-anchor="middle" x="66.9136" y="-116.5" font-family="Helvetica,sans-Serif" font-size="10.00" fill="#000000">/code/filters/FilterBank.cpp</text>
</a>
</g>
</g>
<!-- Node1 -->
<g id="node2" class="node">
<title>Node1</title>
<g id="a_node2"><a xlink:href="_filter_bank_8h.html" target="_top" xlink:title=" ">
<polygon fill="#ffffff" stroke="#000000" points="32.2363,-55.5 32.2363,-73.5 101.5908,-73.5 101.5908,-55.5 32.2363,-55.5"/>
<text text-anchor="middle" x="66.9136" y="-61.5" font-family="Helvetica,sans-Serif" font-size="10.00" fill="#000000">FilterBank.h</text>
</a>
</g>
</g>
<!-- Node0&#45;&gt;Node1 -->
<g id="edge1" class="edge">
<title>Node0&#45;&gt;Node1</title>
<path fill="none" stroke="#191970" d="M66.9136,-110.3494C66.9136,-102.0079 66.9136,-92.2463 66.9136,-83.879"/>
<polygon fill="#191970" stroke="#191970" points="70.4137,-83.5978 66.9136,-73.5978 63.4137,-83.5979 70.4137,-83.5978"/>
</g>
<!-- Node2 -->
<g id="node3" class="node">
<title>Node2</title>
<g id="a_node3"><a xlink:title=" ">
<polygon fill="#ffffff" stroke="#bfbfbf" points="50.8521,-.5 50.8521,-18.5 82.9751,-18.5 82.9751,-.5 50.8521,-.5"/>
<text text-anchor="middle" x="66.9136" y="-6.5" font-family="Helvetica,sans-Serif" font-size="10.00" fill="#000000">Iir.h</text>
</a>
</g>
</g>
<!-- Node1&#45;&gt;Node2 -->
<g id="edge2" class="edge">
<title>Node1&#45;&gt;Node2</title>
<path fill="none" stroke="#191970" d="M66.9136,-55.4179C66.9136,-48.2164 66.9136,-37.8962 66.9136,-28.8632"/>
<polygon fill="#191970" stroke="#191970" points="70.4137,-28.7794 66.9136,-18.7795 63.4137,-28.7795 70.4137,-28.7794"/>
</g>
</g>
</svg>
