<?xml version="1.0" encoding="UTF-8" standalone="no"?>
<!DOCTYPE svg PUBLIC "-//W3C//DTD SVG 1.1//EN"
 "http://www.w3.org/Graphics/SVG/1.1/DTD/svg11.dtd">
<!-- Generated by graphviz version 2.40.1 (20161225.0304)
 -->
<!-- Title: code/FilterBank.h Pages: 1 -->
<svg width="401pt" height="137pt"
 viewBox="0.00 0.00 401.06 137.00" xmlns="http://www.w3.org/2000/svg" xmlns:xlink="http://www.w3.org/1999/xlink">
<g id="graph0" class="graph" transform="scale(1 1) rotate(0) translate(4 133)">
<title>code/FilterBank.h</title>
<polygon fill="#ffffff" stroke="transparent" points="-4,4 -4,-133 397.0562,-133 397.0562,4 -4,4"/>
<!-- Node2 -->
<g id="node1" class="node">
<title>Node2</title>
<g id="a_node1"><a xlink:title=" ">
<polygon fill="#bfbfbf" stroke="#000000" points="87.5591,-110.5 87.5591,-128.5 181.3765,-128.5 181.3765,-110.5 87.5591,-110.5"/>
<text text-anchor="middle" x="134.4678" y="-116.5" font-family="Helvetica,sans-Serif" font-size="10.00" fill="#000000">code/FilterBank.h</text>
</a>
</g>
</g>
<!-- Node3 -->
<g id="node2" class="node">
<title>Node3</title>
<g id="a_node2"><a xlink:href="_filter_bank_8cpp.html" target="_top" xlink:title=" ">
<polygon fill="#ffffff" stroke="#000000" points="18.2783,-55.5 18.2783,-73.5 122.6572,-73.5 122.6572,-55.5 18.2783,-55.5"/>
<text text-anchor="middle" x="70.4678" y="-61.5" font-family="Helvetica,sans-Serif" font-size="10.00" fill="#000000">code/FilterBank.cpp</text>
</a>
</g>
</g>
<!-- Node2&#45;&gt;Node3 -->
<g id="edge1" class="edge">
<title>Node2&#45;&gt;Node3</title>
<path fill="none" stroke="#191970" d="M116.2775,-103.8678C104.9736,-94.1535 90.8249,-81.9944 81.2657,-73.7795"/>
<polygon fill="#191970" stroke="#191970" points="114.0341,-106.5546 123.8995,-110.4179 118.5965,-101.2457 114.0341,-106.5546"/>
</g>
<!-- Node5 -->
<g id="node4" class="node">
<title>Node5</title>
<g id="a_node4"><a xlink:href="mainwindow_8h.html" target="_top" xlink:title=" ">
<polygon fill="#ffffff" stroke="#000000" points="142.1602,-55.5 142.1602,-73.5 258.7754,-73.5 258.7754,-55.5 142.1602,-55.5"/>
<text text-anchor="middle" x="200.4678" y="-61.5" font-family="Helvetica,sans-Serif" font-size="10.00" fill="#000000">code/Qt/mainwindow.h</text>
</a>
</g>
</g>
<!-- Node2&#45;&gt;Node5 -->
<g id="edge3" class="edge">
<title>Node2&#45;&gt;Node5</title>
<path fill="none" stroke="#191970" d="M153.2264,-103.8678C164.8836,-94.1535 179.4745,-81.9944 189.3324,-73.7795"/>
<polygon fill="#191970" stroke="#191970" points="150.8079,-101.3272 145.3663,-110.4179 155.2892,-106.7048 150.8079,-101.3272"/>
</g>
<!-- Node4 -->
<g id="node3" class="node">
<title>Node4</title>
<g id="a_node3"><a xlink:href="_filter_bank_test_8cpp.html" target="_top" xlink:title=" ">
<polygon fill="#ffffff" stroke="#000000" points="0,-.5 0,-18.5 134.9355,-18.5 134.9355,-.5 0,-.5"/>
<text text-anchor="middle" x="67.4678" y="-6.5" font-family="Helvetica,sans-Serif" font-size="10.00" fill="#000000">testfiles/FilterBankTest.cpp</text>
</a>
</g>
</g>
<!-- Node3&#45;&gt;Node4 -->
<g id="edge2" class="edge">
<title>Node3&#45;&gt;Node4</title>
<path fill="none" stroke="#191970" d="M69.425,-45.383C68.9336,-36.3738 68.3698,-26.0373 67.9739,-18.7795"/>
<polygon fill="#191970" stroke="#191970" points="65.9328,-45.6234 69.9724,-55.4179 72.9225,-45.2421 65.9328,-45.6234"/>
</g>
<!-- Node6 -->
<g id="node5" class="node">
<title>Node6</title>
<g id="a_node5"><a xlink:href="_qt_2main_8cpp.html" target="_top" xlink:title=" ">
<polygon fill="#ffffff" stroke="#000000" points="153.2808,-.5 153.2808,-18.5 247.6548,-18.5 247.6548,-.5 153.2808,-.5"/>
<text text-anchor="middle" x="200.4678" y="-6.5" font-family="Helvetica,sans-Serif" font-size="10.00" fill="#000000">code/Qt/main.cpp</text>
</a>
</g>
</g>
<!-- Node5&#45;&gt;Node6 -->
<g id="edge4" class="edge">
<title>Node5&#45;&gt;Node6</title>
<path fill="none" stroke="#191970" d="M200.4678,-45.383C200.4678,-36.3738 200.4678,-26.0373 200.4678,-18.7795"/>
<polygon fill="#191970" stroke="#191970" points="196.9679,-45.4178 200.4678,-55.4179 203.9679,-45.4179 196.9679,-45.4178"/>
</g>
<!-- Node7 -->
<g id="node6" class="node">
<title>Node7</title>
<g id="a_node6"><a xlink:href="mainwindow_8cpp.html" target="_top" xlink:title=" ">
<polygon fill="#ffffff" stroke="#000000" points="265.8794,-.5 265.8794,-18.5 393.0562,-18.5 393.0562,-.5 265.8794,-.5"/>
<text text-anchor="middle" x="329.4678" y="-6.5" font-family="Helvetica,sans-Serif" font-size="10.00" fill="#000000">code/Qt/mainwindow.cpp</text>
</a>
</g>
</g>
<!-- Node5&#45;&gt;Node7 -->
<g id="edge5" class="edge">
<title>Node5&#45;&gt;Node7</title>
<path fill="none" stroke="#191970" d="M231.0449,-51.4633C254.7926,-41.3383 287.1158,-27.5571 308.1344,-18.5956"/>
<polygon fill="#191970" stroke="#191970" points="229.5956,-48.2762 221.7695,-55.4179 232.341,-54.7154 229.5956,-48.2762"/>
</g>
</g>
</svg>
