<?xml version="1.0" encoding="UTF-8" standalone="no"?>
<!DOCTYPE svg PUBLIC "-//W3C//DTD SVG 1.1//EN"
 "http://www.w3.org/Graphics/SVG/1.1/DTD/svg11.dtd">
<!-- Generated by graphviz version 2.40.1 (20161225.0304)
 -->
<!-- Title: /Users/jamielee/Desktop/uni stuff/RTE5/ENG5220/code/FilterBank.cpp Pages: 1 -->
<svg width="146pt" height="122pt"
 viewBox="0.00 0.00 145.71 122.00" xmlns="http://www.w3.org/2000/svg" xmlns:xlink="http://www.w3.org/1999/xlink">
<g id="graph0" class="graph" transform="scale(1 1) rotate(0) translate(4 118)">
<title>/Users/jamielee/Desktop/uni stuff/RTE5/ENG5220/code/FilterBank.cpp</title>
<polygon fill="#ffffff" stroke="transparent" points="-4,4 -4,-118 141.7139,-118 141.7139,4 -4,4"/>
<!-- Node3 -->
<g id="node1" class="node">
<title>Node3</title>
<g id="a_node1"><a xlink:title=" ">
<polygon fill="#bfbfbf" stroke="#000000" points="4.6167,-75.5 4.6167,-113.5 133.0972,-113.5 133.0972,-75.5 4.6167,-75.5"/>
<text text-anchor="start" x="12.6167" y="-101.5" font-family="Helvetica,sans-Serif" font-size="10.00" fill="#000000">/Users/jamielee/Desktop</text>
<text text-anchor="start" x="12.6167" y="-91.5" font-family="Helvetica,sans-Serif" font-size="10.00" fill="#000000">/uni stuff/RTE5/ENG5220</text>
<text text-anchor="middle" x="68.8569" y="-81.5" font-family="Helvetica,sans-Serif" font-size="10.00" fill="#000000">/code/FilterBank.cpp</text>
</a>
</g>
</g>
<!-- Node4 -->
<g id="node2" class="node">
<title>Node4</title>
<g id="a_node2"><a xlink:href="_filter_bank_test_8cpp.html" target="_top" xlink:title=" ">
<polygon fill="#ffffff" stroke="#000000" points="0,-.5 0,-38.5 137.7139,-38.5 137.7139,-.5 0,-.5"/>
<text text-anchor="start" x="8" y="-26.5" font-family="Helvetica,sans-Serif" font-size="10.00" fill="#000000">/Users/jamielee/Desktop</text>
<text text-anchor="start" x="8" y="-16.5" font-family="Helvetica,sans-Serif" font-size="10.00" fill="#000000">/uni stuff/RTE5/ENG5220</text>
<text text-anchor="middle" x="68.8569" y="-6.5" font-family="Helvetica,sans-Serif" font-size="10.00" fill="#000000">/testfiles/FilterBankTest.cpp</text>
</a>
</g>
</g>
<!-- Node3&#45;&gt;Node4 -->
<g id="edge1" class="edge">
<title>Node3&#45;&gt;Node4</title>
<path fill="none" stroke="#191970" d="M68.8569,-64.8977C68.8569,-56.1033 68.8569,-46.7019 68.8569,-38.7489"/>
<polygon fill="#191970" stroke="#191970" points="65.357,-65.1856 68.8569,-75.1856 72.357,-65.1857 65.357,-65.1856"/>
</g>
</g>
</svg>
