<?xml version="1.0" encoding="UTF-8" standalone="no"?>
<!DOCTYPE svg PUBLIC "-//W3C//DTD SVG 1.1//EN"
 "http://www.w3.org/Graphics/SVG/1.1/DTD/svg11.dtd">
<!-- Generated by graphviz version 2.40.1 (20161225.0304)
 -->
<!-- Title: code/FilterBank.cpp Pages: 1 -->
<svg width="112pt" height="137pt"
 viewBox="0.00 0.00 112.38 137.00" xmlns="http://www.w3.org/2000/svg" xmlns:xlink="http://www.w3.org/1999/xlink">
<g id="graph0" class="graph" transform="scale(1 1) rotate(0) translate(4 133)">
<title>code/FilterBank.cpp</title>
<polygon fill="#ffffff" stroke="transparent" points="-4,4 -4,-133 108.3789,-133 108.3789,4 -4,4"/>
<!-- Node0 -->
<g id="node1" class="node">
<title>Node0</title>
<g id="a_node1"><a xlink:title=" ">
<polygon fill="#bfbfbf" stroke="#000000" points="0,-110.5 0,-128.5 104.3789,-128.5 104.3789,-110.5 0,-110.5"/>
<text text-anchor="middle" x="52.1895" y="-116.5" font-family="Helvetica,sans-Serif" font-size="10.00" fill="#000000">code/FilterBank.cpp</text>
</a>
</g>
</g>
<!-- Node1 -->
<g id="node2" class="node">
<title>Node1</title>
<g id="a_node2"><a xlink:href="_filter_bank_8h.html" target="_top" xlink:title=" ">
<polygon fill="#ffffff" stroke="#000000" points="17.5122,-55.5 17.5122,-73.5 86.8667,-73.5 86.8667,-55.5 17.5122,-55.5"/>
<text text-anchor="middle" x="52.1895" y="-61.5" font-family="Helvetica,sans-Serif" font-size="10.00" fill="#000000">FilterBank.h</text>
</a>
</g>
</g>
<!-- Node0&#45;&gt;Node1 -->
<g id="edge1" class="edge">
<title>Node0&#45;&gt;Node1</title>
<path fill="none" stroke="#191970" d="M52.1895,-110.4179C52.1895,-103.2164 52.1895,-92.8962 52.1895,-83.8632"/>
<polygon fill="#191970" stroke="#191970" points="55.6896,-83.7794 52.1895,-73.7795 48.6896,-83.7795 55.6896,-83.7794"/>
</g>
<!-- Node2 -->
<g id="node3" class="node">
<title>Node2</title>
<g id="a_node3"><a xlink:title=" ">
<polygon fill="#ffffff" stroke="#bfbfbf" points="36.1279,-.5 36.1279,-18.5 68.251,-18.5 68.251,-.5 36.1279,-.5"/>
<text text-anchor="middle" x="52.1895" y="-6.5" font-family="Helvetica,sans-Serif" font-size="10.00" fill="#000000">Iir.h</text>
</a>
</g>
</g>
<!-- Node1&#45;&gt;Node2 -->
<g id="edge2" class="edge">
<title>Node1&#45;&gt;Node2</title>
<path fill="none" stroke="#191970" d="M52.1895,-55.4179C52.1895,-48.2164 52.1895,-37.8962 52.1895,-28.8632"/>
<polygon fill="#191970" stroke="#191970" points="55.6896,-28.7794 52.1895,-18.7795 48.6896,-28.7795 55.6896,-28.7794"/>
</g>
</g>
</svg>
