<?xml version="1.0" encoding="UTF-8" standalone="no"?>
<!DOCTYPE svg PUBLIC "-//W3C//DTD SVG 1.1//EN"
 "http://www.w3.org/Graphics/SVG/1.1/DTD/svg11.dtd">
<!-- Generated by graphviz version 2.40.1 (20161225.0304)
 -->
<!-- Title: /Users/jamielee/Desktop/uni stuff/RTE5/ENG5220/code/Qt/InterpretWindow.h Pages: 1 -->
<svg width="376pt" height="197pt"
 viewBox="0.00 0.00 375.85 197.00" xmlns="http://www.w3.org/2000/svg" xmlns:xlink="http://www.w3.org/1999/xlink">
<g id="graph0" class="graph" transform="scale(1 1) rotate(0) translate(4 193)">
<title>/Users/jamielee/Desktop/uni stuff/RTE5/ENG5220/code/Qt/InterpretWindow.h</title>
<polygon fill="#ffffff" stroke="transparent" points="-4,4 -4,-193 371.8467,-193 371.8467,4 -4,4"/>
<!-- Node16 -->
<g id="node1" class="node">
<title>Node16</title>
<g id="a_node1"><a xlink:title=" ">
<polygon fill="#bfbfbf" stroke="#000000" points="83.2808,-150.5 83.2808,-188.5 220.4575,-188.5 220.4575,-150.5 83.2808,-150.5"/>
<text text-anchor="start" x="91.2808" y="-176.5" font-family="Helvetica,sans-Serif" font-size="10.00" fill="#000000">/Users/jamielee/Desktop</text>
<text text-anchor="start" x="91.2808" y="-166.5" font-family="Helvetica,sans-Serif" font-size="10.00" fill="#000000">/uni stuff/RTE5/ENG5220</text>
<text text-anchor="middle" x="151.8691" y="-156.5" font-family="Helvetica,sans-Serif" font-size="10.00" fill="#000000">/code/Qt/InterpretWindow.h</text>
</a>
</g>
</g>
<!-- Node17 -->
<g id="node2" class="node">
<title>Node17</title>
<g id="a_node2"><a xlink:href="_interpret_window_8cpp.html" target="_top" xlink:title=" ">
<polygon fill="#ffffff" stroke="#000000" points="0,-75.5 0,-113.5 147.7383,-113.5 147.7383,-75.5 0,-75.5"/>
<text text-anchor="start" x="8" y="-101.5" font-family="Helvetica,sans-Serif" font-size="10.00" fill="#000000">/Users/jamielee/Desktop</text>
<text text-anchor="start" x="8" y="-91.5" font-family="Helvetica,sans-Serif" font-size="10.00" fill="#000000">/uni stuff/RTE5/ENG5220</text>
<text text-anchor="middle" x="73.8691" y="-81.5" font-family="Helvetica,sans-Serif" font-size="10.00" fill="#000000">/code/Qt/InterpretWindow.cpp</text>
</a>
</g>
</g>
<!-- Node16&#45;&gt;Node17 -->
<g id="edge1" class="edge">
<title>Node16&#45;&gt;Node17</title>
<path fill="none" stroke="#191970" d="M124.368,-143.0566C114.3224,-133.3973 103.1589,-122.6633 93.888,-113.7489"/>
<polygon fill="#191970" stroke="#191970" points="122.148,-145.7774 131.7822,-150.1856 126.9997,-140.7316 122.148,-145.7774"/>
</g>
<!-- Node18 -->
<g id="node3" class="node">
<title>Node18</title>
<g id="a_node3"><a xlink:href="mainwindow_8h.html" target="_top" xlink:title=" ">
<polygon fill="#ffffff" stroke="#000000" points="165.6289,-75.5 165.6289,-113.5 294.1094,-113.5 294.1094,-75.5 165.6289,-75.5"/>
<text text-anchor="start" x="173.6289" y="-101.5" font-family="Helvetica,sans-Serif" font-size="10.00" fill="#000000">/Users/jamielee/Desktop</text>
<text text-anchor="start" x="173.6289" y="-91.5" font-family="Helvetica,sans-Serif" font-size="10.00" fill="#000000">/uni stuff/RTE5/ENG5220</text>
<text text-anchor="middle" x="229.8691" y="-81.5" font-family="Helvetica,sans-Serif" font-size="10.00" fill="#000000">/code/Qt/mainwindow.h</text>
</a>
</g>
</g>
<!-- Node16&#45;&gt;Node18 -->
<g id="edge2" class="edge">
<title>Node16&#45;&gt;Node18</title>
<path fill="none" stroke="#191970" d="M179.3703,-143.0566C189.4159,-133.3973 200.5793,-122.6633 209.8503,-113.7489"/>
<polygon fill="#191970" stroke="#191970" points="176.7385,-140.7316 171.9561,-150.1856 181.5903,-145.7774 176.7385,-140.7316"/>
</g>
<!-- Node19 -->
<g id="node4" class="node">
<title>Node19</title>
<g id="a_node4"><a xlink:href="_qt_2main_8cpp.html" target="_top" xlink:title=" ">
<polygon fill="#ffffff" stroke="#000000" points="91.6289,-.5 91.6289,-38.5 220.1094,-38.5 220.1094,-.5 91.6289,-.5"/>
<text text-anchor="start" x="99.6289" y="-26.5" font-family="Helvetica,sans-Serif" font-size="10.00" fill="#000000">/Users/jamielee/Desktop</text>
<text text-anchor="start" x="99.6289" y="-16.5" font-family="Helvetica,sans-Serif" font-size="10.00" fill="#000000">/uni stuff/RTE5/ENG5220</text>
<text text-anchor="middle" x="155.8691" y="-6.5" font-family="Helvetica,sans-Serif" font-size="10.00" fill="#000000">/code/Qt/main.cpp</text>
</a>
</g>
</g>
<!-- Node18&#45;&gt;Node19 -->
<g id="edge3" class="edge">
<title>Node18&#45;&gt;Node19</title>
<path fill="none" stroke="#191970" d="M203.7783,-68.0566C194.2478,-58.3973 183.6569,-47.6633 174.8614,-38.7489"/>
<polygon fill="#191970" stroke="#191970" points="201.2974,-70.5255 210.8123,-75.1856 206.2803,-65.609 201.2974,-70.5255"/>
</g>
<!-- Node20 -->
<g id="node5" class="node">
<title>Node20</title>
<g id="a_node5"><a xlink:href="mainwindow_8cpp.html" target="_top" xlink:title=" ">
<polygon fill="#ffffff" stroke="#000000" points="237.8916,-.5 237.8916,-38.5 367.8467,-38.5 367.8467,-.5 237.8916,-.5"/>
<text text-anchor="start" x="245.8916" y="-26.5" font-family="Helvetica,sans-Serif" font-size="10.00" fill="#000000">/Users/jamielee/Desktop</text>
<text text-anchor="start" x="245.8916" y="-16.5" font-family="Helvetica,sans-Serif" font-size="10.00" fill="#000000">/uni stuff/RTE5/ENG5220</text>
<text text-anchor="middle" x="302.8691" y="-6.5" font-family="Helvetica,sans-Serif" font-size="10.00" fill="#000000">/code/Qt/mainwindow.cpp</text>
</a>
</g>
</g>
<!-- Node18&#45;&gt;Node20 -->
<g id="edge4" class="edge">
<title>Node18&#45;&gt;Node20</title>
<path fill="none" stroke="#191970" d="M255.8842,-67.7722C265.2138,-58.187 275.542,-47.5759 284.1335,-38.7489"/>
<polygon fill="#191970" stroke="#191970" points="253.1353,-65.5784 248.6685,-75.1856 258.1515,-70.4609 253.1353,-65.5784"/>
</g>
</g>
</svg>
