<?xml version="1.0" encoding="UTF-8" standalone="no"?>
<!DOCTYPE svg PUBLIC "-//W3C//DTD SVG 1.1//EN"
 "http://www.w3.org/Graphics/SVG/1.1/DTD/svg11.dtd">
<!-- Generated by graphviz version 2.40.1 (20161225.0304)
 -->
<!-- Title: code/Qt/InterpretWindow.h Pages: 1 -->
<svg width="357pt" height="137pt"
 viewBox="0.00 0.00 357.07 137.00" xmlns="http://www.w3.org/2000/svg" xmlns:xlink="http://www.w3.org/1999/xlink">
<g id="graph0" class="graph" transform="scale(1 1) rotate(0) translate(4 133)">
<title>code/Qt/InterpretWindow.h</title>
<polygon fill="#ffffff" stroke="transparent" points="-4,4 -4,-133 353.0684,-133 353.0684,4 -4,4"/>
<!-- Node16 -->
<g id="node1" class="node">
<title>Node16</title>
<g id="a_node1"><a xlink:title=" ">
<polygon fill="#bfbfbf" stroke="#000000" points="79.2808,-110.5 79.2808,-128.5 213.6792,-128.5 213.6792,-110.5 79.2808,-110.5"/>
<text text-anchor="middle" x="146.48" y="-116.5" font-family="Helvetica,sans-Serif" font-size="10.00" fill="#000000">code/Qt/InterpretWindow.h</text>
</a>
</g>
</g>
<!-- Node17 -->
<g id="node2" class="node">
<title>Node17</title>
<g id="a_node2"><a xlink:href="_interpret_window_8cpp.html" target="_top" xlink:title=" ">
<polygon fill="#ffffff" stroke="#000000" points="0,-55.5 0,-73.5 144.96,-73.5 144.96,-55.5 0,-55.5"/>
<text text-anchor="middle" x="72.48" y="-61.5" font-family="Helvetica,sans-Serif" font-size="10.00" fill="#000000">code/Qt/InterpretWindow.cpp</text>
</a>
</g>
</g>
<!-- Node16&#45;&gt;Node17 -->
<g id="edge1" class="edge">
<title>Node16&#45;&gt;Node17</title>
<path fill="none" stroke="#191970" d="M126.1529,-104.392C112.8735,-94.5222 95.9711,-81.9596 84.7177,-73.5956"/>
<polygon fill="#191970" stroke="#191970" points="124.1466,-107.2617 134.2604,-110.4179 128.3223,-101.6435 124.1466,-107.2617"/>
</g>
<!-- Node18 -->
<g id="node3" class="node">
<title>Node18</title>
<g id="a_node3"><a xlink:href="mainwindow_8h.html" target="_top" xlink:title=" ">
<polygon fill="#ffffff" stroke="#000000" points="163.1724,-55.5 163.1724,-73.5 279.7876,-73.5 279.7876,-55.5 163.1724,-55.5"/>
<text text-anchor="middle" x="221.48" y="-61.5" font-family="Helvetica,sans-Serif" font-size="10.00" fill="#000000">code/Qt/mainwindow.h</text>
</a>
</g>
</g>
<!-- Node16&#45;&gt;Node18 -->
<g id="edge2" class="edge">
<title>Node16&#45;&gt;Node18</title>
<path fill="none" stroke="#191970" d="M167.0818,-104.392C180.5406,-94.5222 197.6714,-81.9596 209.0769,-73.5956"/>
<polygon fill="#191970" stroke="#191970" points="164.859,-101.6818 158.8647,-110.4179 168.9986,-107.3266 164.859,-101.6818"/>
</g>
<!-- Node19 -->
<g id="node4" class="node">
<title>Node19</title>
<g id="a_node4"><a xlink:href="_qt_2main_8cpp.html" target="_top" xlink:title=" ">
<polygon fill="#ffffff" stroke="#000000" points="109.293,-.5 109.293,-18.5 203.667,-18.5 203.667,-.5 109.293,-.5"/>
<text text-anchor="middle" x="156.48" y="-6.5" font-family="Helvetica,sans-Serif" font-size="10.00" fill="#000000">code/Qt/main.cpp</text>
</a>
</g>
</g>
<!-- Node18&#45;&gt;Node19 -->
<g id="edge3" class="edge">
<title>Node18&#45;&gt;Node19</title>
<path fill="none" stroke="#191970" d="M203.0055,-48.8678C191.525,-39.1535 177.1552,-26.9944 167.4466,-18.7795"/>
<polygon fill="#191970" stroke="#191970" points="200.8519,-51.6303 210.7466,-55.4179 205.3735,-46.2866 200.8519,-51.6303"/>
</g>
<!-- Node20 -->
<g id="node5" class="node">
<title>Node20</title>
<g id="a_node5"><a xlink:href="mainwindow_8cpp.html" target="_top" xlink:title=" ">
<polygon fill="#ffffff" stroke="#000000" points="221.8916,-.5 221.8916,-18.5 349.0684,-18.5 349.0684,-.5 221.8916,-.5"/>
<text text-anchor="middle" x="285.48" y="-6.5" font-family="Helvetica,sans-Serif" font-size="10.00" fill="#000000">code/Qt/mainwindow.cpp</text>
</a>
</g>
</g>
<!-- Node18&#45;&gt;Node20 -->
<g id="edge4" class="edge">
<title>Node18&#45;&gt;Node20</title>
<path fill="none" stroke="#191970" d="M239.6702,-48.8678C250.9741,-39.1535 265.1228,-26.9944 274.6821,-18.7795"/>
<polygon fill="#191970" stroke="#191970" points="237.3513,-46.2457 232.0483,-55.4179 241.9137,-51.5546 237.3513,-46.2457"/>
</g>
</g>
</svg>
