<?xml version="1.0" encoding="UTF-8" standalone="no"?>
<!DOCTYPE svg PUBLIC "-//W3C//DTD SVG 1.1//EN"
 "http://www.w3.org/Graphics/SVG/1.1/DTD/svg11.dtd">
<!-- Generated by graphviz version 2.40.1 (20161225.0304)
 -->
<!-- Title: /Users/jamielee/Desktop/uni stuff/RTE5/ENG5220/code/Qt/InterpretWindow.cpp Pages: 1 -->
<!--zoomable 222 -->
<svg id="main" version="1.1" xmlns="http://www.w3.org/2000/svg" xmlns:xlink="http://www.w3.org/1999/xlink" xml:space="preserve" onload="init(evt)">
<style type="text/css"><![CDATA[
.edge:hover path { stroke: red; }
.edge:hover polygon { stroke: red; fill: red; }
]]></style>
<script type="text/javascript"><![CDATA[
var edges = document.getElementsByTagName('g');
if (edges && edges.length) {
  for (var i=0;i<edges.length;i++) {
    if (edges[i].id.substr(0,4)=='edge') {
      edges[i].setAttribute('class','edge');
    }
  }
}
]]></script>
        <defs>
                <circle id="rim" cx="0" cy="0" r="7"/>
                <circle id="rim2" cx="0" cy="0" r="3.5"/>
                <g id="zoomPlus">
                        <use xlink:href="#rim" fill="#404040">
                                <set attributeName="fill" to="#808080" begin="zoomplus.mouseover" end="zoomplus.mouseout"/>
                        </use>
                        <path d="M-4,0h8M0,-4v8" fill="none" stroke="white" stroke-width="1.5" pointer-events="none"/>
                </g>
                <g id="zoomMin">
                        <use xlink:href="#rim" fill="#404040">
                                <set attributeName="fill" to="#808080" begin="zoomminus.mouseover" end="zoomminus.mouseout"/>
                        </use>
                        <path d="M-4,0h8" fill="none" stroke="white" stroke-width="1.5" pointer-events="none"/>
                </g>
                <g id="dirArrow">
                        <path fill="none" stroke="white" stroke-width="1.5" d="M0,-3.0v7 M-2.5,-0.5L0,-3.0L2.5,-0.5"/>
                </g>
               <g id="resetDef">
                       <use xlink:href="#rim2" fill="#404040">
                               <set attributeName="fill" to="#808080" begin="reset.mouseover" end="reset.mouseout"/>
                       </use>
               </g>
        </defs>

<script type="text/javascript">
var viewWidth = 1141;
var viewHeight = 222;
var sectionId = 'dynsection-0';
</script>
<script xlink:href="svgpan.js"/>
<svg id="graph" class="graph">
<g id="viewport">
<title>/Users/jamielee/Desktop/uni stuff/RTE5/ENG5220/code/Qt/InterpretWindow.cpp</title>
<polygon fill="#ffffff" stroke="transparent" points="-4,4 -4,-218 1137.3223,-218 1137.3223,4 -4,4"/>
<!-- Node0 -->
<g id="node1" class="node">
<title>Node0</title>
<g id="a_node1"><a xlink:title=" ">
<polygon fill="#bfbfbf" stroke="#000000" points="449.6479,-175.5 449.6479,-213.5 597.3862,-213.5 597.3862,-175.5 449.6479,-175.5"/>
<text text-anchor="start" x="457.6479" y="-201.5" font-family="Helvetica,sans-Serif" font-size="10.00" fill="#000000">/Users/jamielee/Desktop</text>
<text text-anchor="start" x="457.6479" y="-191.5" font-family="Helvetica,sans-Serif" font-size="10.00" fill="#000000">/uni stuff/RTE5/ENG5220</text>
<text text-anchor="middle" x="523.5171" y="-181.5" font-family="Helvetica,sans-Serif" font-size="10.00" fill="#000000">/code/Qt/InterpretWindow.cpp</text>
</a>
</g>
</g>
<!-- Node1 -->
<g id="node2" class="node">
<title>Node1</title>
<g id="a_node2"><a xlink:href="_interpret_window_8h.html" target="_top" xlink:title=" ">
<polygon fill="#ffffff" stroke="#000000" points="475.2168,-120.5 475.2168,-138.5 571.8174,-138.5 571.8174,-120.5 475.2168,-120.5"/>
<text text-anchor="middle" x="523.5171" y="-126.5" font-family="Helvetica,sans-Serif" font-size="10.00" fill="#000000">InterpretWindow.h</text>
</a>
</g>
</g>
<!-- Node0&#45;&gt;Node1 -->
<g id="edge1" class="edge">
<title>Node0&#45;&gt;Node1</title>
<path fill="none" stroke="#191970" d="M523.5171,-175.3494C523.5171,-167.0079 523.5171,-157.2463 523.5171,-148.879"/>
<polygon fill="#191970" stroke="#191970" points="527.0172,-148.5978 523.5171,-138.5978 520.0172,-148.5979 527.0172,-148.5978"/>
</g>
<!-- Node2 -->
<g id="node3" class="node">
<title>Node2</title>
<g id="a_node3"><a xlink:title=" ">
<polygon fill="#ffffff" stroke="#bfbfbf" points="0,-60.5 0,-78.5 71.0342,-78.5 71.0342,-60.5 0,-60.5"/>
<text text-anchor="middle" x="35.5171" y="-66.5" font-family="Helvetica,sans-Serif" font-size="10.00" fill="#000000">QBoxLayout</text>
</a>
</g>
</g>
<!-- Node1&#45;&gt;Node2 -->
<g id="edge2" class="edge">
<title>Node1&#45;&gt;Node2</title>
<path fill="none" stroke="#191970" d="M475.0234,-127.9557C392.8195,-124.5785 221.2276,-114.2385 79.5171,-84 76.2921,-83.3118 72.9715,-82.4722 69.6686,-81.5472"/>
<polygon fill="#191970" stroke="#191970" points="70.5125,-78.1456 59.9266,-78.5825 68.4744,-84.8423 70.5125,-78.1456"/>
</g>
<!-- Node3 -->
<g id="node4" class="node">
<title>Node3</title>
<g id="a_node4"><a xlink:title=" ">
<polygon fill="#ffffff" stroke="#bfbfbf" points="88.6797,-60.5 88.6797,-78.5 136.3545,-78.5 136.3545,-60.5 88.6797,-60.5"/>
<text text-anchor="middle" x="112.5171" y="-66.5" font-family="Helvetica,sans-Serif" font-size="10.00" fill="#000000">QColor</text>
</a>
</g>
</g>
<!-- Node1&#45;&gt;Node3 -->
<g id="edge3" class="edge">
<title>Node1&#45;&gt;Node3</title>
<path fill="none" stroke="#191970" d="M475.2119,-128.2094C402.4855,-125.2602 261.0792,-115.597 145.5171,-84 143.8156,-83.5348 142.0888,-82.9962 140.3627,-82.4061"/>
<polygon fill="#191970" stroke="#191970" points="141.2566,-78.9976 130.6687,-78.6143 138.7067,-85.5166 141.2566,-78.9976"/>
</g>
<!-- Node4 -->
<g id="node5" class="node">
<title>Node4</title>
<g id="a_node5"><a xlink:title=" ">
<polygon fill="#ffffff" stroke="#bfbfbf" points="154.8398,-60.5 154.8398,-78.5 224.1943,-78.5 224.1943,-60.5 154.8398,-60.5"/>
<text text-anchor="middle" x="189.5171" y="-66.5" font-family="Helvetica,sans-Serif" font-size="10.00" fill="#000000">QCheckBox</text>
</a>
</g>
</g>
<!-- Node1&#45;&gt;Node4 -->
<g id="edge4" class="edge">
<title>Node1&#45;&gt;Node4</title>
<path fill="none" stroke="#191970" d="M475.1328,-124.4877C416.9793,-117.879 316.7026,-104.6166 232.5171,-84 229.5519,-83.2738 226.4991,-82.4353 223.4533,-81.535"/>
<polygon fill="#191970" stroke="#191970" points="224.4532,-78.1805 213.8635,-78.5112 222.3481,-84.8565 224.4532,-78.1805"/>
</g>
<!-- Node5 -->
<g id="node6" class="node">
<title>Node5</title>
<g id="a_node6"><a xlink:title=" ">
<polygon fill="#ffffff" stroke="#bfbfbf" points="241.7759,-60.5 241.7759,-78.5 317.2583,-78.5 317.2583,-60.5 241.7759,-60.5"/>
<text text-anchor="middle" x="279.5171" y="-66.5" font-family="Helvetica,sans-Serif" font-size="10.00" fill="#000000">QPushButton</text>
</a>
</g>
</g>
<!-- Node1&#45;&gt;Node5 -->
<g id="edge5" class="edge">
<title>Node1&#45;&gt;Node5</title>
<path fill="none" stroke="#191970" d="M480.253,-120.4495C440.1894,-111.8459 379.0524,-98.1509 326.5171,-84 323.5617,-83.2039 320.5124,-82.3465 317.4536,-81.4605"/>
<polygon fill="#191970" stroke="#191970" points="318.3371,-78.0718 307.7542,-78.5737 316.3402,-84.781 318.3371,-78.0718"/>
</g>
<!-- Node6 -->
<g id="node7" class="node">
<title>Node6</title>
<g id="a_node7"><a xlink:title=" ">
<polygon fill="#ffffff" stroke="#bfbfbf" points="335.5664,-60.5 335.5664,-78.5 385.4678,-78.5 385.4678,-60.5 335.5664,-60.5"/>
<text text-anchor="middle" x="360.5171" y="-66.5" font-family="Helvetica,sans-Serif" font-size="10.00" fill="#000000">QString</text>
</a>
</g>
</g>
<!-- Node1&#45;&gt;Node6 -->
<g id="edge6" class="edge">
<title>Node1&#45;&gt;Node6</title>
<path fill="none" stroke="#191970" d="M496.1511,-120.4154C469.91,-111.5708 429.2636,-97.521 394.5171,-84 393.3061,-83.5288 392.0739,-83.0413 390.8315,-82.5432"/>
<polygon fill="#191970" stroke="#191970" points="391.8675,-79.1846 381.2883,-78.6075 389.1986,-85.6558 391.8675,-79.1846"/>
</g>
<!-- Node7 -->
<g id="node8" class="node">
<title>Node7</title>
<g id="a_node8"><a xlink:title=" ">
<polygon fill="#ffffff" stroke="#bfbfbf" points="403.394,-60.5 403.394,-78.5 451.6401,-78.5 451.6401,-60.5 403.394,-60.5"/>
<text text-anchor="middle" x="427.5171" y="-66.5" font-family="Helvetica,sans-Serif" font-size="10.00" fill="#000000">QLabel</text>
</a>
</g>
</g>
<!-- Node1&#45;&gt;Node7 -->
<g id="edge7" class="edge">
<title>Node1&#45;&gt;Node7</title>
<path fill="none" stroke="#191970" d="M508.9368,-120.3873C493.4821,-110.7281 468.8514,-95.334 450.7238,-84.0042"/>
<polygon fill="#191970" stroke="#191970" points="452.2551,-80.8339 441.9201,-78.5019 448.5451,-86.7699 452.2551,-80.8339"/>
</g>
<!-- Node8 -->
<g id="node9" class="node">
<title>Node8</title>
<g id="a_node9"><a xlink:title=" ">
<polygon fill="#ffffff" stroke="#bfbfbf" points="469.623,-60.5 469.623,-78.5 513.4111,-78.5 513.4111,-60.5 469.623,-60.5"/>
<text text-anchor="middle" x="491.5171" y="-66.5" font-family="Helvetica,sans-Serif" font-size="10.00" fill="#000000">QFont</text>
</a>
</g>
</g>
<!-- Node1&#45;&gt;Node8 -->
<g id="edge8" class="edge">
<title>Node1&#45;&gt;Node8</title>
<path fill="none" stroke="#191970" d="M518.657,-120.3873C514.0521,-111.7531 507.0032,-98.5365 501.2433,-87.7366"/>
<polygon fill="#191970" stroke="#191970" points="504.2171,-85.8749 496.4229,-78.6985 498.0406,-89.1691 504.2171,-85.8749"/>
</g>
<!-- Node9 -->
<g id="node10" class="node">
<title>Node9</title>
<g id="a_node10"><a xlink:title=" ">
<polygon fill="#ffffff" stroke="#bfbfbf" points="531.0352,-60.5 531.0352,-78.5 579.999,-78.5 579.999,-60.5 531.0352,-60.5"/>
<text text-anchor="middle" x="555.5171" y="-66.5" font-family="Helvetica,sans-Serif" font-size="10.00" fill="#000000">QTimer</text>
</a>
</g>
</g>
<!-- Node1&#45;&gt;Node9 -->
<g id="edge9" class="edge">
<title>Node1&#45;&gt;Node9</title>
<path fill="none" stroke="#191970" d="M528.3772,-120.3873C532.9821,-111.7531 540.031,-98.5365 545.7909,-87.7366"/>
<polygon fill="#191970" stroke="#191970" points="548.9935,-89.1691 550.6112,-78.6985 542.8171,-85.8749 548.9935,-89.1691"/>
</g>
<!-- Node10 -->
<g id="node11" class="node">
<title>Node10</title>
<g id="a_node11"><a xlink:title=" ">
<polygon fill="#ffffff" stroke="#bfbfbf" points="598.2192,-60.5 598.2192,-78.5 684.8149,-78.5 684.8149,-60.5 598.2192,-60.5"/>
<text text-anchor="middle" x="641.5171" y="-66.5" font-family="Helvetica,sans-Serif" font-size="10.00" fill="#000000">QTextToSpeech</text>
</a>
</g>
</g>
<!-- Node1&#45;&gt;Node10 -->
<g id="edge10" class="edge">
<title>Node1&#45;&gt;Node10</title>
<path fill="none" stroke="#191970" d="M541.4388,-120.3873C560.9579,-110.4623 592.3854,-94.4822 614.8134,-83.0782"/>
<polygon fill="#191970" stroke="#191970" points="616.4859,-86.1542 623.8134,-78.5019 613.3132,-79.9145 616.4859,-86.1542"/>
</g>
<!-- Node11 -->
<g id="node12" class="node">
<title>Node11</title>
<g id="a_node12"><a xlink:title=" ">
<polygon fill="#ffffff" stroke="#bfbfbf" points="702.665,-60.5 702.665,-78.5 780.3691,-78.5 780.3691,-60.5 702.665,-60.5"/>
<text text-anchor="middle" x="741.5171" y="-66.5" font-family="Helvetica,sans-Serif" font-size="10.00" fill="#000000">QVBoxLayout</text>
</a>
</g>
</g>
<!-- Node1&#45;&gt;Node11 -->
<g id="edge11" class="edge">
<title>Node1&#45;&gt;Node11</title>
<path fill="none" stroke="#191970" d="M558.4439,-120.4993C592.8737,-111.545 646.9429,-97.2637 693.5171,-84 696.437,-83.1685 699.4521,-82.2944 702.4823,-81.4048"/>
<polygon fill="#191970" stroke="#191970" points="703.525,-84.7463 712.1144,-78.5437 701.5317,-78.0361 703.525,-84.7463"/>
</g>
<!-- Node12 -->
<g id="node13" class="node">
<title>Node12</title>
<g id="a_node13"><a xlink:title=" ">
<polygon fill="#ffffff" stroke="#bfbfbf" points="798.8398,-60.5 798.8398,-78.5 878.1943,-78.5 878.1943,-60.5 798.8398,-60.5"/>
<text text-anchor="middle" x="838.5171" y="-66.5" font-family="Helvetica,sans-Serif" font-size="10.00" fill="#000000">QProgressBar</text>
</a>
</g>
</g>
<!-- Node1&#45;&gt;Node12 -->
<g id="edge12" class="edge">
<title>Node1&#45;&gt;Node12</title>
<path fill="none" stroke="#191970" d="M571.9132,-122.9791C625.4858,-115.354 714.2229,-101.5153 789.5171,-84 793.0977,-83.1671 796.8029,-82.2239 800.4986,-81.2279"/>
<polygon fill="#191970" stroke="#191970" points="801.4887,-84.5854 810.1672,-78.508 799.593,-77.8469 801.4887,-84.5854"/>
</g>
<!-- Node13 -->
<g id="node14" class="node">
<title>Node13</title>
<g id="a_node14"><a xlink:title=" ">
<polygon fill="#ffffff" stroke="#bfbfbf" points="895.7856,-60.5 895.7856,-78.5 941.2485,-78.5 941.2485,-60.5 895.7856,-60.5"/>
<text text-anchor="middle" x="918.5171" y="-66.5" font-family="Helvetica,sans-Serif" font-size="10.00" fill="#000000">stdio.h</text>
</a>
</g>
</g>
<!-- Node1&#45;&gt;Node13 -->
<g id="edge13" class="edge">
<title>Node1&#45;&gt;Node13</title>
<path fill="none" stroke="#191970" d="M571.8847,-128.2421C642.5402,-125.3389 777.5288,-115.7387 887.5171,-84 888.9799,-83.5779 890.4605,-83.095 891.9407,-82.5677"/>
<polygon fill="#191970" stroke="#191970" points="893.6011,-85.6688 901.509,-78.6179 890.9301,-79.1984 893.6011,-85.6688"/>
</g>
<!-- Node14 -->
<g id="node15" class="node">
<title>Node14</title>
<g id="a_node15"><a xlink:title=" ">
<polygon fill="#ffffff" stroke="#bfbfbf" points="959.3447,-60.5 959.3447,-78.5 1013.6895,-78.5 1013.6895,-60.5 959.3447,-60.5"/>
<text text-anchor="middle" x="986.5171" y="-66.5" font-family="Helvetica,sans-Serif" font-size="10.00" fill="#000000">iostream</text>
</a>
</g>
</g>
<!-- Node1&#45;&gt;Node14 -->
<g id="edge14" class="edge">
<title>Node1&#45;&gt;Node14</title>
<path fill="none" stroke="#191970" d="M571.9431,-126.0336C668.0732,-118.8743 879.8108,-101.6427 950.5171,-84 952.6949,-83.4566 954.9155,-82.8091 957.1309,-82.0938"/>
<polygon fill="#191970" stroke="#191970" points="958.4545,-85.3368 966.6613,-78.6361 956.0671,-78.7565 958.4545,-85.3368"/>
</g>
<!-- Node15 -->
<g id="node16" class="node">
<title>Node15</title>
<g id="a_node16"><a xlink:href="_neural_net_8h.html" target="_top" xlink:title=" ">
<polygon fill="#ffffff" stroke="#000000" points="1031.7119,-55.5 1031.7119,-83.5 1133.3223,-83.5 1133.3223,-55.5 1031.7119,-55.5"/>
<text text-anchor="start" x="1039.7119" y="-71.5" font-family="Helvetica,sans-Serif" font-size="10.00" fill="#000000">../neuralnet_predict</text>
<text text-anchor="middle" x="1082.5171" y="-61.5" font-family="Helvetica,sans-Serif" font-size="10.00" fill="#000000">/NeuralNet.h</text>
</a>
</g>
</g>
<!-- Node1&#45;&gt;Node15 -->
<g id="edge15" class="edge">
<title>Node1&#45;&gt;Node15</title>
<path fill="none" stroke="#191970" d="M571.9865,-127.437C659.7988,-123.188 851.1264,-111.5847 1021.6514,-83.9775"/>
<polygon fill="#191970" stroke="#191970" points="1022.2569,-87.4251 1031.558,-82.3516 1021.1231,-80.5175 1022.2569,-87.4251"/>
</g>
<!-- Node16 -->
<g id="node17" class="node">
<title>Node16</title>
<g id="a_node17"><a xlink:title=" ">
<polygon fill="#ffffff" stroke="#bfbfbf" points="1038.3721,-.5 1038.3721,-18.5 1126.6621,-18.5 1126.6621,-.5 1038.3721,-.5"/>
<text text-anchor="middle" x="1082.5171" y="-6.5" font-family="Helvetica,sans-Serif" font-size="10.00" fill="#000000">fdeep/fdeep.hpp</text>
</a>
</g>
</g>
<!-- Node15&#45;&gt;Node16 -->
<g id="edge16" class="edge">
<title>Node15&#45;&gt;Node16</title>
<path fill="none" stroke="#191970" d="M1082.5171,-55.2808C1082.5171,-47.3776 1082.5171,-37.4316 1082.5171,-28.8308"/>
<polygon fill="#191970" stroke="#191970" points="1086.0172,-28.5842 1082.5171,-18.5842 1079.0172,-28.5842 1086.0172,-28.5842"/>
</g>
</g>
</svg>
        <g id="navigator" transform="translate(0 0)" fill="#404254">
                <rect fill="#f2f5e9" fill-opacity="0.5" stroke="#606060" stroke-width=".5" x="0" y="0" width="60" height="60"/>
                <use id="zoomplus" xlink:href="#zoomPlus" x="17" y="9" onmousedown="handleZoom(evt,'in')"/>
                <use id="zoomminus" xlink:href="#zoomMin" x="42" y="9" onmousedown="handleZoom(evt,'out')"/>
                <use id="reset" xlink:href="#resetDef" x="30" y="36" onmousedown="handleReset()"/>
                <g id="arrowUp" xlink:href="#dirArrow" transform="translate(30 24)" onmousedown="handlePan(0,-1)">
                  <use xlink:href="#rim" fill="#404040">
                        <set attributeName="fill" to="#808080" begin="arrowUp.mouseover" end="arrowUp.mouseout"/>
                  </use>
                  <path fill="none" stroke="white" stroke-width="1.5" d="M0,-3.0v7 M-2.5,-0.5L0,-3.0L2.5,-0.5"/>
                </g>
                <g id="arrowRight" xlink:href="#dirArrow" transform="rotate(90) translate(36 -43)" onmousedown="handlePan(1,0)">
                  <use xlink:href="#rim" fill="#404040">
                        <set attributeName="fill" to="#808080" begin="arrowRight.mouseover" end="arrowRight.mouseout"/>
                  </use>
                  <path fill="none" stroke="white" stroke-width="1.5" d="M0,-3.0v7 M-2.5,-0.5L0,-3.0L2.5,-0.5"/>
                </g>
                <g id="arrowDown" xlink:href="#dirArrow" transform="rotate(180) translate(-30 -48)" onmousedown="handlePan(0,1)">
                  <use xlink:href="#rim" fill="#404040">
                        <set attributeName="fill" to="#808080" begin="arrowDown.mouseover" end="arrowDown.mouseout"/>
                  </use>
                  <path fill="none" stroke="white" stroke-width="1.5" d="M0,-3.0v7 M-2.5,-0.5L0,-3.0L2.5,-0.5"/>
                </g>
                <g id="arrowLeft" xlink:href="#dirArrow" transform="rotate(270) translate(-36 17)" onmousedown="handlePan(-1,0)">
                  <use xlink:href="#rim" fill="#404040">
                        <set attributeName="fill" to="#808080" begin="arrowLeft.mouseover" end="arrowLeft.mouseout"/>
                  </use>
                  <path fill="none" stroke="white" stroke-width="1.5" d="M0,-3.0v7 M-2.5,-0.5L0,-3.0L2.5,-0.5"/>
                </g>
        </g>
        <svg viewBox="0 0 15 15" width="100%" height="30px" preserveAspectRatio="xMaxYMin meet">
         <g id="arrow_out" transform="scale(0.3 0.3)">
          <a xlink:href="_interpret_window_8cpp__incl_org.svg" target="_base">
           <rect id="button" ry="5" rx="5" y="6" x="6" height="38" width="38"
                fill="#f2f5e9" fill-opacity="0.5" stroke="#606060" stroke-width="1.0"/>
           <path id="arrow"
             d="M 11.500037,31.436501 C 11.940474,20.09759 22.043105,11.32322 32.158766,21.979434 L 37.068811,17.246167 C 37.068811,17.246167 37.088388,32 37.088388,32 L 22.160133,31.978069 C 22.160133,31.978069 26.997745,27.140456 26.997745,27.140456 C 18.528582,18.264221 13.291696,25.230495 11.500037,31.436501 z"
             style="fill:#404040;"/>
          </a>
         </g>
        </svg>
</svg>
