<?xml version="1.0" encoding="UTF-8" standalone="no"?>
<!DOCTYPE svg PUBLIC "-//W3C//DTD SVG 1.1//EN"
 "http://www.w3.org/Graphics/SVG/1.1/DTD/svg11.dtd">
<!-- Generated by graphviz version 2.40.1 (20161225.0304)
 -->
<!-- Title: /Users/jamielee/Desktop/uni stuff/RTE5/ENG5220/code/Qt/InterpretWindow.h Pages: 1 -->
<!--zoomable 167 -->
<svg id="main" version="1.1" xmlns="http://www.w3.org/2000/svg" xmlns:xlink="http://www.w3.org/1999/xlink" xml:space="preserve" onload="init(evt)">
<style type="text/css"><![CDATA[
.edge:hover path { stroke: red; }
.edge:hover polygon { stroke: red; fill: red; }
]]></style>
<script type="text/javascript"><![CDATA[
var edges = document.getElementsByTagName('g');
if (edges && edges.length) {
  for (var i=0;i<edges.length;i++) {
    if (edges[i].id.substr(0,4)=='edge') {
      edges[i].setAttribute('class','edge');
    }
  }
}
]]></script>
        <defs>
                <circle id="rim" cx="0" cy="0" r="7"/>
                <circle id="rim2" cx="0" cy="0" r="3.5"/>
                <g id="zoomPlus">
                        <use xlink:href="#rim" fill="#404040">
                                <set attributeName="fill" to="#808080" begin="zoomplus.mouseover" end="zoomplus.mouseout"/>
                        </use>
                        <path d="M-4,0h8M0,-4v8" fill="none" stroke="white" stroke-width="1.5" pointer-events="none"/>
                </g>
                <g id="zoomMin">
                        <use xlink:href="#rim" fill="#404040">
                                <set attributeName="fill" to="#808080" begin="zoomminus.mouseover" end="zoomminus.mouseout"/>
                        </use>
                        <path d="M-4,0h8" fill="none" stroke="white" stroke-width="1.5" pointer-events="none"/>
                </g>
                <g id="dirArrow">
                        <path fill="none" stroke="white" stroke-width="1.5" d="M0,-3.0v7 M-2.5,-0.5L0,-3.0L2.5,-0.5"/>
                </g>
               <g id="resetDef">
                       <use xlink:href="#rim2" fill="#404040">
                               <set attributeName="fill" to="#808080" begin="reset.mouseover" end="reset.mouseout"/>
                       </use>
               </g>
        </defs>

<script type="text/javascript">
var viewWidth = 1141;
var viewHeight = 167;
var sectionId = 'dynsection-0';
</script>
<script xlink:href="svgpan.js"/>
<svg id="graph" class="graph">
<g id="viewport">
<title>/Users/jamielee/Desktop/uni stuff/RTE5/ENG5220/code/Qt/InterpretWindow.h</title>
<polygon fill="#ffffff" stroke="transparent" points="-4,4 -4,-163 1137.3223,-163 1137.3223,4 -4,4"/>
<!-- Node0 -->
<g id="node1" class="node">
<title>Node0</title>
<g id="a_node1"><a xlink:title=" ">
<polygon fill="#bfbfbf" stroke="#000000" points="454.9287,-120.5 454.9287,-158.5 592.1055,-158.5 592.1055,-120.5 454.9287,-120.5"/>
<text text-anchor="start" x="462.9287" y="-146.5" font-family="Helvetica,sans-Serif" font-size="10.00" fill="#000000">/Users/jamielee/Desktop</text>
<text text-anchor="start" x="462.9287" y="-136.5" font-family="Helvetica,sans-Serif" font-size="10.00" fill="#000000">/uni stuff/RTE5/ENG5220</text>
<text text-anchor="middle" x="523.5171" y="-126.5" font-family="Helvetica,sans-Serif" font-size="10.00" fill="#000000">/code/Qt/InterpretWindow.h</text>
</a>
</g>
</g>
<!-- Node1 -->
<g id="node2" class="node">
<title>Node1</title>
<g id="a_node2"><a xlink:title=" ">
<polygon fill="#ffffff" stroke="#bfbfbf" points="0,-60.5 0,-78.5 71.0342,-78.5 71.0342,-60.5 0,-60.5"/>
<text text-anchor="middle" x="35.5171" y="-66.5" font-family="Helvetica,sans-Serif" font-size="10.00" fill="#000000">QBoxLayout</text>
</a>
</g>
</g>
<!-- Node0&#45;&gt;Node1 -->
<g id="edge1" class="edge">
<title>Node0&#45;&gt;Node1</title>
<path fill="none" stroke="#191970" d="M454.7301,-135.0567C366.8491,-128.4345 210.4408,-113.4622 79.5171,-84 76.4765,-83.3158 73.3482,-82.5064 70.2285,-81.6256"/>
<polygon fill="#191970" stroke="#191970" points="70.9968,-78.2009 60.4108,-78.6339 68.9563,-84.8969 70.9968,-78.2009"/>
</g>
<!-- Node2 -->
<g id="node3" class="node">
<title>Node2</title>
<g id="a_node3"><a xlink:title=" ">
<polygon fill="#ffffff" stroke="#bfbfbf" points="88.6797,-60.5 88.6797,-78.5 136.3545,-78.5 136.3545,-60.5 88.6797,-60.5"/>
<text text-anchor="middle" x="112.5171" y="-66.5" font-family="Helvetica,sans-Serif" font-size="10.00" fill="#000000">QColor</text>
</a>
</g>
</g>
<!-- Node0&#45;&gt;Node2 -->
<g id="edge2" class="edge">
<title>Node0&#45;&gt;Node2</title>
<path fill="none" stroke="#191970" d="M454.7523,-134.9654C378.0924,-128.6366 251.0191,-114.3252 145.5171,-84 143.8218,-83.5127 142.0998,-82.9569 140.3774,-82.3537"/>
<polygon fill="#191970" stroke="#191970" points="141.2801,-78.947 130.6937,-78.5253 138.7065,-85.4568 141.2801,-78.947"/>
</g>
<!-- Node3 -->
<g id="node4" class="node">
<title>Node3</title>
<g id="a_node4"><a xlink:title=" ">
<polygon fill="#ffffff" stroke="#bfbfbf" points="154.8398,-60.5 154.8398,-78.5 224.1943,-78.5 224.1943,-60.5 154.8398,-60.5"/>
<text text-anchor="middle" x="189.5171" y="-66.5" font-family="Helvetica,sans-Serif" font-size="10.00" fill="#000000">QCheckBox</text>
</a>
</g>
</g>
<!-- Node0&#45;&gt;Node3 -->
<g id="edge3" class="edge">
<title>Node0&#45;&gt;Node3</title>
<path fill="none" stroke="#191970" d="M454.7206,-129.1057C395.3774,-119.4929 307.631,-103.7285 232.5171,-84 229.7311,-83.2683 226.8638,-82.4498 223.9952,-81.5842"/>
<polygon fill="#191970" stroke="#191970" points="224.9442,-78.2133 214.3537,-78.5179 222.8226,-84.8841 224.9442,-78.2133"/>
</g>
<!-- Node4 -->
<g id="node5" class="node">
<title>Node4</title>
<g id="a_node5"><a xlink:title=" ">
<polygon fill="#ffffff" stroke="#bfbfbf" points="241.7759,-60.5 241.7759,-78.5 317.2583,-78.5 317.2583,-60.5 241.7759,-60.5"/>
<text text-anchor="middle" x="279.5171" y="-66.5" font-family="Helvetica,sans-Serif" font-size="10.00" fill="#000000">QPushButton</text>
</a>
</g>
</g>
<!-- Node0&#45;&gt;Node4 -->
<g id="edge4" class="edge">
<title>Node0&#45;&gt;Node4</title>
<path fill="none" stroke="#191970" d="M454.5644,-120.5224C416.7005,-109.9886 368.9468,-96.5197 326.5171,-84 323.7529,-83.1844 320.9007,-82.3318 318.0317,-81.4662"/>
<polygon fill="#191970" stroke="#191970" points="318.9019,-78.0725 308.316,-78.5076 316.8627,-84.769 318.9019,-78.0725"/>
</g>
<!-- Node5 -->
<g id="node6" class="node">
<title>Node5</title>
<g id="a_node6"><a xlink:title=" ">
<polygon fill="#ffffff" stroke="#bfbfbf" points="335.5664,-60.5 335.5664,-78.5 385.4678,-78.5 385.4678,-60.5 335.5664,-60.5"/>
<text text-anchor="middle" x="360.5171" y="-66.5" font-family="Helvetica,sans-Serif" font-size="10.00" fill="#000000">QString</text>
</a>
</g>
</g>
<!-- Node0&#45;&gt;Node5 -->
<g id="edge5" class="edge">
<title>Node0&#45;&gt;Node5</title>
<path fill="none" stroke="#191970" d="M478.9766,-120.3722C451.0167,-108.3648 415.6937,-93.1955 390.9238,-82.5581"/>
<polygon fill="#191970" stroke="#191970" points="392.229,-79.3096 381.6594,-78.5795 389.4668,-85.7416 392.229,-79.3096"/>
</g>
<!-- Node6 -->
<g id="node7" class="node">
<title>Node6</title>
<g id="a_node7"><a xlink:title=" ">
<polygon fill="#ffffff" stroke="#bfbfbf" points="403.394,-60.5 403.394,-78.5 451.6401,-78.5 451.6401,-60.5 403.394,-60.5"/>
<text text-anchor="middle" x="427.5171" y="-66.5" font-family="Helvetica,sans-Serif" font-size="10.00" fill="#000000">QLabel</text>
</a>
</g>
</g>
<!-- Node0&#45;&gt;Node6 -->
<g id="edge6" class="edge">
<title>Node0&#45;&gt;Node6</title>
<path fill="none" stroke="#191970" d="M497.2847,-120.3722C481.8375,-109.1087 462.5746,-95.0627 448.2055,-84.5853"/>
<polygon fill="#191970" stroke="#191970" points="450.1112,-81.6432 439.969,-78.5795 445.987,-87.2993 450.1112,-81.6432"/>
</g>
<!-- Node7 -->
<g id="node8" class="node">
<title>Node7</title>
<g id="a_node8"><a xlink:title=" ">
<polygon fill="#ffffff" stroke="#bfbfbf" points="469.623,-60.5 469.623,-78.5 513.4111,-78.5 513.4111,-60.5 469.623,-60.5"/>
<text text-anchor="middle" x="491.5171" y="-66.5" font-family="Helvetica,sans-Serif" font-size="10.00" fill="#000000">QFont</text>
</a>
</g>
</g>
<!-- Node0&#45;&gt;Node7 -->
<g id="edge7" class="edge">
<title>Node0&#45;&gt;Node7</title>
<path fill="none" stroke="#191970" d="M514.7729,-120.3722C510.1582,-110.2775 504.5219,-97.948 499.9538,-87.9553"/>
<polygon fill="#191970" stroke="#191970" points="503.0085,-86.2191 495.6677,-78.5795 496.6422,-89.1294 503.0085,-86.2191"/>
</g>
<!-- Node8 -->
<g id="node9" class="node">
<title>Node8</title>
<g id="a_node9"><a xlink:title=" ">
<polygon fill="#ffffff" stroke="#bfbfbf" points="531.0352,-60.5 531.0352,-78.5 579.999,-78.5 579.999,-60.5 531.0352,-60.5"/>
<text text-anchor="middle" x="555.5171" y="-66.5" font-family="Helvetica,sans-Serif" font-size="10.00" fill="#000000">QTimer</text>
</a>
</g>
</g>
<!-- Node0&#45;&gt;Node8 -->
<g id="edge8" class="edge">
<title>Node0&#45;&gt;Node8</title>
<path fill="none" stroke="#191970" d="M532.2612,-120.3722C536.8759,-110.2775 542.5123,-97.948 547.0804,-87.9553"/>
<polygon fill="#191970" stroke="#191970" points="550.392,-89.1294 551.3665,-78.5795 544.0256,-86.2191 550.392,-89.1294"/>
</g>
<!-- Node9 -->
<g id="node10" class="node">
<title>Node9</title>
<g id="a_node10"><a xlink:title=" ">
<polygon fill="#ffffff" stroke="#bfbfbf" points="598.2192,-60.5 598.2192,-78.5 684.8149,-78.5 684.8149,-60.5 598.2192,-60.5"/>
<text text-anchor="middle" x="641.5171" y="-66.5" font-family="Helvetica,sans-Serif" font-size="10.00" fill="#000000">QTextToSpeech</text>
</a>
</g>
</g>
<!-- Node0&#45;&gt;Node9 -->
<g id="edge9" class="edge">
<title>Node0&#45;&gt;Node9</title>
<path fill="none" stroke="#191970" d="M555.7611,-120.3722C575.2856,-108.7899 599.7696,-94.2655 617.5725,-83.7044"/>
<polygon fill="#191970" stroke="#191970" points="619.3968,-86.6918 626.2116,-78.5795 615.8253,-80.6714 619.3968,-86.6918"/>
</g>
<!-- Node10 -->
<g id="node11" class="node">
<title>Node10</title>
<g id="a_node11"><a xlink:title=" ">
<polygon fill="#ffffff" stroke="#bfbfbf" points="702.665,-60.5 702.665,-78.5 780.3691,-78.5 780.3691,-60.5 702.665,-60.5"/>
<text text-anchor="middle" x="741.5171" y="-66.5" font-family="Helvetica,sans-Serif" font-size="10.00" fill="#000000">QVBoxLayout</text>
</a>
</g>
</g>
<!-- Node0&#45;&gt;Node10 -->
<g id="edge10" class="edge">
<title>Node0&#45;&gt;Node10</title>
<path fill="none" stroke="#191970" d="M582.7986,-120.4647C621.3049,-108.1002 670.3468,-92.3529 703.6545,-81.6577"/>
<polygon fill="#191970" stroke="#191970" points="705.006,-84.8998 713.4572,-78.5101 702.8659,-78.235 705.006,-84.8998"/>
</g>
<!-- Node11 -->
<g id="node12" class="node">
<title>Node11</title>
<g id="a_node12"><a xlink:title=" ">
<polygon fill="#ffffff" stroke="#bfbfbf" points="798.8398,-60.5 798.8398,-78.5 878.1943,-78.5 878.1943,-60.5 798.8398,-60.5"/>
<text text-anchor="middle" x="838.5171" y="-66.5" font-family="Helvetica,sans-Serif" font-size="10.00" fill="#000000">QProgressBar</text>
</a>
</g>
</g>
<!-- Node0&#45;&gt;Node11 -->
<g id="edge11" class="edge">
<title>Node0&#45;&gt;Node11</title>
<path fill="none" stroke="#191970" d="M592.2077,-126.7746C646.1292,-116.3989 722.9556,-100.7623 789.5171,-84 792.844,-83.1622 796.284,-82.2466 799.7269,-81.2959"/>
<polygon fill="#191970" stroke="#191970" points="800.6859,-84.662 809.3462,-78.5588 798.7701,-77.9292 800.6859,-84.662"/>
</g>
<!-- Node12 -->
<g id="node13" class="node">
<title>Node12</title>
<g id="a_node13"><a xlink:title=" ">
<polygon fill="#ffffff" stroke="#bfbfbf" points="895.7856,-60.5 895.7856,-78.5 941.2485,-78.5 941.2485,-60.5 895.7856,-60.5"/>
<text text-anchor="middle" x="918.5171" y="-66.5" font-family="Helvetica,sans-Serif" font-size="10.00" fill="#000000">stdio.h</text>
</a>
</g>
</g>
<!-- Node0&#45;&gt;Node12 -->
<g id="edge12" class="edge">
<title>Node0&#45;&gt;Node12</title>
<path fill="none" stroke="#191970" d="M592.2283,-134.9061C666.3914,-128.5988 787.3441,-114.3745 887.5171,-84 888.9741,-83.5582 890.4501,-83.0596 891.9265,-82.5199"/>
<polygon fill="#191970" stroke="#191970" points="893.6032,-85.6128 901.4832,-78.5306 890.9066,-79.153 893.6032,-85.6128"/>
</g>
<!-- Node13 -->
<g id="node14" class="node">
<title>Node13</title>
<g id="a_node14"><a xlink:title=" ">
<polygon fill="#ffffff" stroke="#bfbfbf" points="959.3447,-60.5 959.3447,-78.5 1013.6895,-78.5 1013.6895,-60.5 959.3447,-60.5"/>
<text text-anchor="middle" x="986.5171" y="-66.5" font-family="Helvetica,sans-Serif" font-size="10.00" fill="#000000">iostream</text>
</a>
</g>
</g>
<!-- Node0&#45;&gt;Node13 -->
<g id="edge13" class="edge">
<title>Node0&#45;&gt;Node13</title>
<path fill="none" stroke="#191970" d="M592.2067,-135.9406C677.4413,-130.3047 826.6728,-116.4254 950.5171,-84 952.6885,-83.4315 954.9043,-82.7654 957.1163,-82.0368"/>
<polygon fill="#191970" stroke="#191970" points="958.4521,-85.275 966.6394,-78.5505 956.0456,-78.7016 958.4521,-85.275"/>
</g>
<!-- Node14 -->
<g id="node15" class="node">
<title>Node14</title>
<g id="a_node15"><a xlink:href="_neural_net_8h.html" target="_top" xlink:title=" ">
<polygon fill="#ffffff" stroke="#000000" points="1031.7119,-55.5 1031.7119,-83.5 1133.3223,-83.5 1133.3223,-55.5 1031.7119,-55.5"/>
<text text-anchor="start" x="1039.7119" y="-71.5" font-family="Helvetica,sans-Serif" font-size="10.00" fill="#000000">../neuralnet_predict</text>
<text text-anchor="middle" x="1082.5171" y="-61.5" font-family="Helvetica,sans-Serif" font-size="10.00" fill="#000000">/NeuralNet.h</text>
</a>
</g>
</g>
<!-- Node0&#45;&gt;Node14 -->
<g id="edge14" class="edge">
<title>Node0&#45;&gt;Node14</title>
<path fill="none" stroke="#191970" d="M592.1089,-134.6297C686.6794,-127.3027 862.5185,-111.481 1021.5782,-84.0219"/>
<polygon fill="#191970" stroke="#191970" points="1022.297,-87.4494 1031.5461,-82.2818 1021.0931,-80.5537 1022.297,-87.4494"/>
</g>
<!-- Node15 -->
<g id="node16" class="node">
<title>Node15</title>
<g id="a_node16"><a xlink:title=" ">
<polygon fill="#ffffff" stroke="#bfbfbf" points="1038.3721,-.5 1038.3721,-18.5 1126.6621,-18.5 1126.6621,-.5 1038.3721,-.5"/>
<text text-anchor="middle" x="1082.5171" y="-6.5" font-family="Helvetica,sans-Serif" font-size="10.00" fill="#000000">fdeep/fdeep.hpp</text>
</a>
</g>
</g>
<!-- Node14&#45;&gt;Node15 -->
<g id="edge15" class="edge">
<title>Node14&#45;&gt;Node15</title>
<path fill="none" stroke="#191970" d="M1082.5171,-55.2808C1082.5171,-47.3776 1082.5171,-37.4316 1082.5171,-28.8308"/>
<polygon fill="#191970" stroke="#191970" points="1086.0172,-28.5842 1082.5171,-18.5842 1079.0172,-28.5842 1086.0172,-28.5842"/>
</g>
</g>
</svg>
        <g id="navigator" transform="translate(0 0)" fill="#404254">
                <rect fill="#f2f5e9" fill-opacity="0.5" stroke="#606060" stroke-width=".5" x="0" y="0" width="60" height="60"/>
                <use id="zoomplus" xlink:href="#zoomPlus" x="17" y="9" onmousedown="handleZoom(evt,'in')"/>
                <use id="zoomminus" xlink:href="#zoomMin" x="42" y="9" onmousedown="handleZoom(evt,'out')"/>
                <use id="reset" xlink:href="#resetDef" x="30" y="36" onmousedown="handleReset()"/>
                <g id="arrowUp" xlink:href="#dirArrow" transform="translate(30 24)" onmousedown="handlePan(0,-1)">
                  <use xlink:href="#rim" fill="#404040">
                        <set attributeName="fill" to="#808080" begin="arrowUp.mouseover" end="arrowUp.mouseout"/>
                  </use>
                  <path fill="none" stroke="white" stroke-width="1.5" d="M0,-3.0v7 M-2.5,-0.5L0,-3.0L2.5,-0.5"/>
                </g>
                <g id="arrowRight" xlink:href="#dirArrow" transform="rotate(90) translate(36 -43)" onmousedown="handlePan(1,0)">
                  <use xlink:href="#rim" fill="#404040">
                        <set attributeName="fill" to="#808080" begin="arrowRight.mouseover" end="arrowRight.mouseout"/>
                  </use>
                  <path fill="none" stroke="white" stroke-width="1.5" d="M0,-3.0v7 M-2.5,-0.5L0,-3.0L2.5,-0.5"/>
                </g>
                <g id="arrowDown" xlink:href="#dirArrow" transform="rotate(180) translate(-30 -48)" onmousedown="handlePan(0,1)">
                  <use xlink:href="#rim" fill="#404040">
                        <set attributeName="fill" to="#808080" begin="arrowDown.mouseover" end="arrowDown.mouseout"/>
                  </use>
                  <path fill="none" stroke="white" stroke-width="1.5" d="M0,-3.0v7 M-2.5,-0.5L0,-3.0L2.5,-0.5"/>
                </g>
                <g id="arrowLeft" xlink:href="#dirArrow" transform="rotate(270) translate(-36 17)" onmousedown="handlePan(-1,0)">
                  <use xlink:href="#rim" fill="#404040">
                        <set attributeName="fill" to="#808080" begin="arrowLeft.mouseover" end="arrowLeft.mouseout"/>
                  </use>
                  <path fill="none" stroke="white" stroke-width="1.5" d="M0,-3.0v7 M-2.5,-0.5L0,-3.0L2.5,-0.5"/>
                </g>
        </g>
        <svg viewBox="0 0 15 15" width="100%" height="30px" preserveAspectRatio="xMaxYMin meet">
         <g id="arrow_out" transform="scale(0.3 0.3)">
          <a xlink:href="_interpret_window_8h__incl_org.svg" target="_base">
           <rect id="button" ry="5" rx="5" y="6" x="6" height="38" width="38"
                fill="#f2f5e9" fill-opacity="0.5" stroke="#606060" stroke-width="1.0"/>
           <path id="arrow"
             d="M 11.500037,31.436501 C 11.940474,20.09759 22.043105,11.32322 32.158766,21.979434 L 37.068811,17.246167 C 37.068811,17.246167 37.088388,32 37.088388,32 L 22.160133,31.978069 C 22.160133,31.978069 26.997745,27.140456 26.997745,27.140456 C 18.528582,18.264221 13.291696,25.230495 11.500037,31.436501 z"
             style="fill:#404040;"/>
          </a>
         </g>
        </svg>
</svg>
