<?xml version="1.0" encoding="UTF-8" standalone="no"?>
<!DOCTYPE svg PUBLIC "-//W3C//DTD SVG 1.1//EN"
 "http://www.w3.org/Graphics/SVG/1.1/DTD/svg11.dtd">
<!-- Generated by graphviz version 2.40.1 (20161225.0304)
 -->
<!-- Title: code/MCP3428/I2Cdev/I2Cdev.cpp Pages: 1 -->
<svg width="828pt" height="147pt"
 viewBox="0.00 0.00 828.38 147.00" xmlns="http://www.w3.org/2000/svg" xmlns:xlink="http://www.w3.org/1999/xlink">
<g id="graph0" class="graph" transform="scale(1 1) rotate(0) translate(4 143)">
<title>code/MCP3428/I2Cdev/I2Cdev.cpp</title>
<polygon fill="#ffffff" stroke="transparent" points="-4,4 -4,-143 824.375,-143 824.375,4 -4,4"/>
<!-- Node0 -->
<g id="node1" class="node">
<title>Node0</title>
<g id="a_node1"><a xlink:title=" ">
<polygon fill="#bfbfbf" stroke="#000000" points="295.0347,-110.5 295.0347,-138.5 414.4282,-138.5 414.4282,-110.5 295.0347,-110.5"/>
<text text-anchor="start" x="303.0347" y="-126.5" font-family="Helvetica,sans-Serif" font-size="10.00" fill="#000000">code/MCP3428/I2Cdev</text>
<text text-anchor="middle" x="354.7314" y="-116.5" font-family="Helvetica,sans-Serif" font-size="10.00" fill="#000000">/I2Cdev.cpp</text>
</a>
</g>
</g>
<!-- Node1 -->
<g id="node2" class="node">
<title>Node1</title>
<g id="a_node2"><a xlink:title=" ">
<polygon fill="#ffffff" stroke="#bfbfbf" points="0,-55.5 0,-73.5 45.4629,-73.5 45.4629,-55.5 0,-55.5"/>
<text text-anchor="middle" x="22.7314" y="-61.5" font-family="Helvetica,sans-Serif" font-size="10.00" fill="#000000">stdio.h</text>
</a>
</g>
</g>
<!-- Node0&#45;&gt;Node1 -->
<g id="edge1" class="edge">
<title>Node0&#45;&gt;Node1</title>
<path fill="none" stroke="#191970" d="M294.8255,-116.6084C236.1636,-108.3873 144.1319,-94.1779 55.6484,-73.9838"/>
<polygon fill="#191970" stroke="#191970" points="56.2456,-70.5297 45.7142,-71.6875 54.669,-77.3498 56.2456,-70.5297"/>
</g>
<!-- Node2 -->
<g id="node3" class="node">
<title>Node2</title>
<g id="a_node3"><a xlink:title=" ">
<polygon fill="#ffffff" stroke="#bfbfbf" points="63.6108,-55.5 63.6108,-73.5 111.8521,-73.5 111.8521,-55.5 63.6108,-55.5"/>
<text text-anchor="middle" x="87.7314" y="-61.5" font-family="Helvetica,sans-Serif" font-size="10.00" fill="#000000">stdint.h</text>
</a>
</g>
</g>
<!-- Node0&#45;&gt;Node2 -->
<g id="edge2" class="edge">
<title>Node0&#45;&gt;Node2</title>
<path fill="none" stroke="#191970" d="M294.8389,-111.771C248.5768,-101.8231 182.9977,-87.4698 125.7314,-74 124.5027,-73.711 123.2523,-73.4139 121.99,-73.1115"/>
<polygon fill="#191970" stroke="#191970" points="122.7813,-69.702 112.2367,-70.7331 121.1228,-76.5027 122.7813,-69.702"/>
</g>
<!-- Node3 -->
<g id="node4" class="node">
<title>Node3</title>
<g id="a_node4"><a xlink:title=" ">
<polygon fill="#ffffff" stroke="#bfbfbf" points="441.8892,-.5 441.8892,-18.5 489.5737,-18.5 489.5737,-.5 441.8892,-.5"/>
<text text-anchor="middle" x="465.7314" y="-6.5" font-family="Helvetica,sans-Serif" font-size="10.00" fill="#000000">stdlib.h</text>
</a>
</g>
</g>
<!-- Node0&#45;&gt;Node3 -->
<g id="edge3" class="edge">
<title>Node0&#45;&gt;Node3</title>
<path fill="none" stroke="#191970" d="M294.5721,-117.0978C243.3065,-109.4074 175.3598,-95.4557 158.7314,-74 153.5586,-67.3254 153.2154,-61.3939 158.7314,-55 176.4213,-34.4951 355.6656,-18.1347 431.8079,-12.0554"/>
<polygon fill="#191970" stroke="#191970" points="432.1453,-15.5397 441.8401,-11.2664 431.5965,-8.5613 432.1453,-15.5397"/>
</g>
<!-- Node4 -->
<g id="node5" class="node">
<title>Node4</title>
<g id="a_node5"><a xlink:title=" ">
<polygon fill="#ffffff" stroke="#bfbfbf" points="167.3916,-55.5 167.3916,-73.5 210.0713,-73.5 210.0713,-55.5 167.3916,-55.5"/>
<text text-anchor="middle" x="188.7314" y="-61.5" font-family="Helvetica,sans-Serif" font-size="10.00" fill="#000000">fcntl.h</text>
</a>
</g>
</g>
<!-- Node0&#45;&gt;Node4 -->
<g id="edge4" class="edge">
<title>Node0&#45;&gt;Node4</title>
<path fill="none" stroke="#191970" d="M315.8118,-110.4327C286.5809,-99.8673 247.0742,-85.5877 219.9106,-75.7696"/>
<polygon fill="#191970" stroke="#191970" points="220.7458,-72.3499 210.1515,-72.2422 218.3663,-78.9331 220.7458,-72.3499"/>
</g>
<!-- Node5 -->
<g id="node6" class="node">
<title>Node5</title>
<g id="a_node6"><a xlink:title=" ">
<polygon fill="#ffffff" stroke="#bfbfbf" points="228.2192,-55.5 228.2192,-73.5 279.2437,-73.5 279.2437,-55.5 228.2192,-55.5"/>
<text text-anchor="middle" x="253.7314" y="-61.5" font-family="Helvetica,sans-Serif" font-size="10.00" fill="#000000">unistd.h</text>
</a>
</g>
</g>
<!-- Node0&#45;&gt;Node5 -->
<g id="edge5" class="edge">
<title>Node0&#45;&gt;Node5</title>
<path fill="none" stroke="#191970" d="M331.0514,-110.4327C315.0647,-100.9356 294.0263,-88.4376 277.9316,-78.8763"/>
<polygon fill="#191970" stroke="#191970" points="279.487,-75.7294 269.1021,-73.6311 275.9119,-81.7475 279.487,-75.7294"/>
</g>
<!-- Node6 -->
<g id="node7" class="node">
<title>Node6</title>
<g id="a_node7"><a xlink:title=" ">
<polygon fill="#ffffff" stroke="#bfbfbf" points="297.335,-55.5 297.335,-73.5 346.1279,-73.5 346.1279,-55.5 297.335,-55.5"/>
<text text-anchor="middle" x="321.7314" y="-61.5" font-family="Helvetica,sans-Serif" font-size="10.00" fill="#000000">string.h</text>
</a>
</g>
</g>
<!-- Node0&#45;&gt;Node6 -->
<g id="edge6" class="edge">
<title>Node0&#45;&gt;Node6</title>
<path fill="none" stroke="#191970" d="M346.9109,-110.2808C342.3199,-101.9336 336.4757,-91.3076 331.5735,-82.3946"/>
<polygon fill="#191970" stroke="#191970" points="334.6137,-80.6596 326.7277,-73.5842 328.4802,-84.0331 334.6137,-80.6596"/>
</g>
<!-- Node7 -->
<g id="node8" class="node">
<title>Node7</title>
<g id="a_node8"><a xlink:title=" ">
<polygon fill="#ffffff" stroke="#bfbfbf" points="363.8892,-55.5 363.8892,-73.5 411.5737,-73.5 411.5737,-55.5 363.8892,-55.5"/>
<text text-anchor="middle" x="387.7314" y="-61.5" font-family="Helvetica,sans-Serif" font-size="10.00" fill="#000000">errno.h</text>
</a>
</g>
</g>
<!-- Node0&#45;&gt;Node7 -->
<g id="edge7" class="edge">
<title>Node0&#45;&gt;Node7</title>
<path fill="none" stroke="#191970" d="M362.552,-110.2808C367.143,-101.9336 372.9872,-91.3076 377.8894,-82.3946"/>
<polygon fill="#191970" stroke="#191970" points="380.9827,-84.0331 382.7351,-73.5842 374.8491,-80.6596 380.9827,-84.0331"/>
</g>
<!-- Node8 -->
<g id="node9" class="node">
<title>Node8</title>
<g id="a_node9"><a xlink:title=" ">
<polygon fill="#ffffff" stroke="#bfbfbf" points="429.7808,-55.5 429.7808,-73.5 489.6821,-73.5 489.6821,-55.5 429.7808,-55.5"/>
<text text-anchor="middle" x="459.7314" y="-61.5" font-family="Helvetica,sans-Serif" font-size="10.00" fill="#000000">sys/ioctl.h</text>
</a>
</g>
</g>
<!-- Node0&#45;&gt;Node8 -->
<g id="edge8" class="edge">
<title>Node0&#45;&gt;Node8</title>
<path fill="none" stroke="#191970" d="M379.3493,-110.4327C396.1245,-100.8468 418.25,-88.2037 435.0407,-78.609"/>
<polygon fill="#191970" stroke="#191970" points="436.8061,-81.6314 443.7521,-73.6311 433.3331,-75.5536 436.8061,-81.6314"/>
</g>
<!-- Node9 -->
<g id="node10" class="node">
<title>Node9</title>
<g id="a_node10"><a xlink:title=" ">
<polygon fill="#ffffff" stroke="#bfbfbf" points="507.7217,-55.5 507.7217,-73.5 573.7412,-73.5 573.7412,-55.5 507.7217,-55.5"/>
<text text-anchor="middle" x="540.7314" y="-61.5" font-family="Helvetica,sans-Serif" font-size="10.00" fill="#000000">sys/types.h</text>
</a>
</g>
</g>
<!-- Node0&#45;&gt;Node9 -->
<g id="edge9" class="edge">
<title>Node0&#45;&gt;Node9</title>
<path fill="none" stroke="#191970" d="M398.3402,-110.4327C430.0787,-100.1944 472.6291,-86.4685 502.9293,-76.6942"/>
<polygon fill="#191970" stroke="#191970" points="504.2595,-79.9428 512.7021,-73.5417 502.1105,-73.2808 504.2595,-79.9428"/>
</g>
<!-- Node10 -->
<g id="node11" class="node">
<title>Node10</title>
<g id="a_node11"><a xlink:title=" ">
<polygon fill="#ffffff" stroke="#bfbfbf" points="591.6133,-55.5 591.6133,-73.5 649.8496,-73.5 649.8496,-55.5 591.6133,-55.5"/>
<text text-anchor="middle" x="620.7314" y="-61.5" font-family="Helvetica,sans-Serif" font-size="10.00" fill="#000000">sys/stat.h</text>
</a>
</g>
</g>
<!-- Node0&#45;&gt;Node10 -->
<g id="edge10" class="edge">
<title>Node0&#45;&gt;Node10</title>
<path fill="none" stroke="#191970" d="M414.8382,-111.6505C458.532,-102.2032 519.3507,-88.8351 581.3362,-74.2876"/>
<polygon fill="#191970" stroke="#191970" points="582.3606,-77.6422 591.2921,-71.9432 580.7561,-70.8286 582.3606,-77.6422"/>
</g>
<!-- Node11 -->
<g id="node12" class="node">
<title>Node11</title>
<g id="a_node12"><a xlink:title=" ">
<polygon fill="#ffffff" stroke="#bfbfbf" points="668.1396,-55.5 668.1396,-73.5 747.3232,-73.5 747.3232,-55.5 668.1396,-55.5"/>
<text text-anchor="middle" x="707.7314" y="-61.5" font-family="Helvetica,sans-Serif" font-size="10.00" fill="#000000">linux/i2c&#45;dev.h</text>
</a>
</g>
</g>
<!-- Node0&#45;&gt;Node11 -->
<g id="edge11" class="edge">
<title>Node0&#45;&gt;Node11</title>
<path fill="none" stroke="#191970" d="M414.5154,-115.0555C473.7218,-105.5921 567.2285,-90.3511 657.9934,-74.0956"/>
<polygon fill="#191970" stroke="#191970" points="658.6791,-77.5285 667.9023,-72.3148 657.4409,-70.6389 658.6791,-77.5285"/>
</g>
<!-- Node12 -->
<g id="node13" class="node">
<title>Node12</title>
<g id="a_node13"><a xlink:href="_m_c_p3428_2_i2_cdev_2_i2_cdev_8h.html" target="_top" xlink:title=" ">
<polygon fill="#ffffff" stroke="#000000" points="765.0879,-55.5 765.0879,-73.5 820.375,-73.5 820.375,-55.5 765.0879,-55.5"/>
<text text-anchor="middle" x="792.7314" y="-61.5" font-family="Helvetica,sans-Serif" font-size="10.00" fill="#000000">I2Cdev.h</text>
</a>
</g>
</g>
<!-- Node0&#45;&gt;Node12 -->
<g id="edge12" class="edge">
<title>Node0&#45;&gt;Node12</title>
<path fill="none" stroke="#191970" d="M414.7207,-119.4761C491.5529,-112.4845 628.9194,-98.1109 754.7146,-74.1975"/>
<polygon fill="#191970" stroke="#191970" points="755.7506,-77.5623 764.9078,-72.2336 754.4262,-70.6887 755.7506,-77.5623"/>
</g>
<!-- Node12&#45;&gt;Node3 -->
<g id="edge13" class="edge">
<title>Node12&#45;&gt;Node3</title>
<path fill="none" stroke="#191970" d="M764.8909,-56.8505C762.1429,-56.1866 759.3886,-55.5568 756.7314,-55 664.5342,-35.6807 554.3393,-20.6046 499.7918,-13.669"/>
<polygon fill="#191970" stroke="#191970" points="500.0049,-10.1683 489.646,-12.3916 499.1304,-17.1135 500.0049,-10.1683"/>
</g>
</g>
</svg>
