<?xml version="1.0" encoding="UTF-8" standalone="no"?>
<!DOCTYPE svg PUBLIC "-//W3C//DTD SVG 1.1//EN"
 "http://www.w3.org/Graphics/SVG/1.1/DTD/svg11.dtd">
<!-- Generated by graphviz version 2.40.1 (20161225.0304)
 -->
<!-- Title: /Users/jamielee/Desktop/uni stuff/RTE5/ENG5220/code/MCP3428/I2Cdev/I2Cdev.cpp Pages: 1 -->
<!--zoomable 157 -->
<svg id="main" version="1.1" xmlns="http://www.w3.org/2000/svg" xmlns:xlink="http://www.w3.org/1999/xlink" xml:space="preserve" onload="init(evt)">
<style type="text/css"><![CDATA[
.edge:hover path { stroke: red; }
.edge:hover polygon { stroke: red; fill: red; }
]]></style>
<script type="text/javascript"><![CDATA[
var edges = document.getElementsByTagName('g');
if (edges && edges.length) {
  for (var i=0;i<edges.length;i++) {
    if (edges[i].id.substr(0,4)=='edge') {
      edges[i].setAttribute('class','edge');
    }
  }
}
]]></script>
        <defs>
                <circle id="rim" cx="0" cy="0" r="7"/>
                <circle id="rim2" cx="0" cy="0" r="3.5"/>
                <g id="zoomPlus">
                        <use xlink:href="#rim" fill="#404040">
                                <set attributeName="fill" to="#808080" begin="zoomplus.mouseover" end="zoomplus.mouseout"/>
                        </use>
                        <path d="M-4,0h8M0,-4v8" fill="none" stroke="white" stroke-width="1.5" pointer-events="none"/>
                </g>
                <g id="zoomMin">
                        <use xlink:href="#rim" fill="#404040">
                                <set attributeName="fill" to="#808080" begin="zoomminus.mouseover" end="zoomminus.mouseout"/>
                        </use>
                        <path d="M-4,0h8" fill="none" stroke="white" stroke-width="1.5" pointer-events="none"/>
                </g>
                <g id="dirArrow">
                        <path fill="none" stroke="white" stroke-width="1.5" d="M0,-3.0v7 M-2.5,-0.5L0,-3.0L2.5,-0.5"/>
                </g>
               <g id="resetDef">
                       <use xlink:href="#rim2" fill="#404040">
                               <set attributeName="fill" to="#808080" begin="reset.mouseover" end="reset.mouseout"/>
                       </use>
               </g>
        </defs>

<script type="text/javascript">
var viewWidth = 828;
var viewHeight = 157;
var sectionId = 'dynsection-0';
</script>
<script xlink:href="svgpan.js"/>
<svg id="graph" class="graph">
<g id="viewport">
<title>/Users/jamielee/Desktop/uni stuff/RTE5/ENG5220/code/MCP3428/I2Cdev/I2Cdev.cpp</title>
<polygon fill="#ffffff" stroke="transparent" points="-4,4 -4,-153 824.375,-153 824.375,4 -4,4"/>
<!-- Node0 -->
<g id="node1" class="node">
<title>Node0</title>
<g id="a_node1"><a xlink:title=" ">
<polygon fill="#bfbfbf" stroke="#000000" points="267.332,-110.5 267.332,-148.5 442.1309,-148.5 442.1309,-110.5 267.332,-110.5"/>
<text text-anchor="start" x="275.332" y="-136.5" font-family="Helvetica,sans-Serif" font-size="10.00" fill="#000000">/Users/jamielee/Desktop</text>
<text text-anchor="start" x="275.332" y="-126.5" font-family="Helvetica,sans-Serif" font-size="10.00" fill="#000000">/uni stuff/RTE5/ENG5220</text>
<text text-anchor="middle" x="354.7314" y="-116.5" font-family="Helvetica,sans-Serif" font-size="10.00" fill="#000000">/code/MCP3428/I2Cdev/I2Cdev.cpp</text>
</a>
</g>
</g>
<!-- Node1 -->
<g id="node2" class="node">
<title>Node1</title>
<g id="a_node2"><a xlink:title=" ">
<polygon fill="#ffffff" stroke="#bfbfbf" points="0,-55.5 0,-73.5 45.4629,-73.5 45.4629,-55.5 0,-55.5"/>
<text text-anchor="middle" x="22.7314" y="-61.5" font-family="Helvetica,sans-Serif" font-size="10.00" fill="#000000">stdio.h</text>
</a>
</g>
</g>
<!-- Node0&#45;&gt;Node1 -->
<g id="edge1" class="edge">
<title>Node0&#45;&gt;Node1</title>
<path fill="none" stroke="#191970" d="M267.2477,-115.8234C209.598,-106.2243 132.3214,-92.2463 55.5686,-74.0062"/>
<polygon fill="#191970" stroke="#191970" points="56.2657,-70.5741 45.7249,-71.6424 54.6312,-77.3806 56.2657,-70.5741"/>
</g>
<!-- Node2 -->
<g id="node3" class="node">
<title>Node2</title>
<g id="a_node3"><a xlink:title=" ">
<polygon fill="#ffffff" stroke="#bfbfbf" points="63.6108,-55.5 63.6108,-73.5 111.8521,-73.5 111.8521,-55.5 63.6108,-55.5"/>
<text text-anchor="middle" x="87.7314" y="-61.5" font-family="Helvetica,sans-Serif" font-size="10.00" fill="#000000">stdint.h</text>
</a>
</g>
</g>
<!-- Node0&#45;&gt;Node2 -->
<g id="edge2" class="edge">
<title>Node0&#45;&gt;Node2</title>
<path fill="none" stroke="#191970" d="M275.4765,-110.4405C231.3686,-99.796 175.4832,-86.2477 125.7314,-74 124.5057,-73.6983 123.258,-73.3903 121.9979,-73.0787"/>
<polygon fill="#191970" stroke="#191970" points="122.8036,-69.6725 112.2547,-70.6584 121.1159,-76.4661 122.8036,-69.6725"/>
</g>
<!-- Node3 -->
<g id="node4" class="node">
<title>Node3</title>
<g id="a_node4"><a xlink:title=" ">
<polygon fill="#ffffff" stroke="#bfbfbf" points="441.8892,-.5 441.8892,-18.5 489.5737,-18.5 489.5737,-.5 441.8892,-.5"/>
<text text-anchor="middle" x="465.7314" y="-6.5" font-family="Helvetica,sans-Serif" font-size="10.00" fill="#000000">stdlib.h</text>
</a>
</g>
</g>
<!-- Node0&#45;&gt;Node3 -->
<g id="edge3" class="edge">
<title>Node0&#45;&gt;Node3</title>
<path fill="none" stroke="#191970" d="M267.0755,-123.4655C199.2133,-115.4858 122.4088,-97.1028 158.7314,-55 176.4213,-34.4951 355.6656,-18.1347 431.8079,-12.0554"/>
<polygon fill="#191970" stroke="#191970" points="432.1453,-15.5397 441.8401,-11.2664 431.5965,-8.5613 432.1453,-15.5397"/>
</g>
<!-- Node4 -->
<g id="node5" class="node">
<title>Node4</title>
<g id="a_node5"><a xlink:title=" ">
<polygon fill="#ffffff" stroke="#bfbfbf" points="167.3916,-55.5 167.3916,-73.5 210.0713,-73.5 210.0713,-55.5 167.3916,-55.5"/>
<text text-anchor="middle" x="188.7314" y="-61.5" font-family="Helvetica,sans-Serif" font-size="10.00" fill="#000000">fcntl.h</text>
</a>
</g>
</g>
<!-- Node0&#45;&gt;Node4 -->
<g id="edge4" class="edge">
<title>Node0&#45;&gt;Node4</title>
<path fill="none" stroke="#191970" d="M305.8238,-110.3494C277.9174,-99.4222 243.7875,-86.0581 219.592,-76.5839"/>
<polygon fill="#191970" stroke="#191970" points="220.7869,-73.2932 210.1992,-72.906 218.2346,-79.8113 220.7869,-73.2932"/>
</g>
<!-- Node5 -->
<g id="node6" class="node">
<title>Node5</title>
<g id="a_node6"><a xlink:title=" ">
<polygon fill="#ffffff" stroke="#bfbfbf" points="228.2192,-55.5 228.2192,-73.5 279.2437,-73.5 279.2437,-55.5 228.2192,-55.5"/>
<text text-anchor="middle" x="253.7314" y="-61.5" font-family="Helvetica,sans-Serif" font-size="10.00" fill="#000000">unistd.h</text>
</a>
</g>
</g>
<!-- Node0&#45;&gt;Node5 -->
<g id="edge5" class="edge">
<title>Node0&#45;&gt;Node5</title>
<path fill="none" stroke="#191970" d="M324.9744,-110.3494C309.509,-100.3964 290.9021,-88.4217 276.5827,-79.2063"/>
<polygon fill="#191970" stroke="#191970" points="278.1713,-76.0665 267.8681,-73.5978 274.3831,-81.9529 278.1713,-76.0665"/>
</g>
<!-- Node6 -->
<g id="node7" class="node">
<title>Node6</title>
<g id="a_node7"><a xlink:title=" ">
<polygon fill="#ffffff" stroke="#bfbfbf" points="297.335,-55.5 297.335,-73.5 346.1279,-73.5 346.1279,-55.5 297.335,-55.5"/>
<text text-anchor="middle" x="321.7314" y="-61.5" font-family="Helvetica,sans-Serif" font-size="10.00" fill="#000000">string.h</text>
</a>
</g>
</g>
<!-- Node0&#45;&gt;Node6 -->
<g id="edge6" class="edge">
<title>Node0&#45;&gt;Node6</title>
<path fill="none" stroke="#191970" d="M345.0088,-110.3494C340.5814,-101.6287 335.366,-91.3559 330.9953,-82.747"/>
<polygon fill="#191970" stroke="#191970" points="333.9982,-80.9301 326.3504,-73.5978 327.7565,-84.099 333.9982,-80.9301"/>
</g>
<!-- Node7 -->
<g id="node8" class="node">
<title>Node7</title>
<g id="a_node8"><a xlink:title=" ">
<polygon fill="#ffffff" stroke="#bfbfbf" points="363.8892,-55.5 363.8892,-73.5 411.5737,-73.5 411.5737,-55.5 363.8892,-55.5"/>
<text text-anchor="middle" x="387.7314" y="-61.5" font-family="Helvetica,sans-Serif" font-size="10.00" fill="#000000">errno.h</text>
</a>
</g>
</g>
<!-- Node0&#45;&gt;Node7 -->
<g id="edge7" class="edge">
<title>Node0&#45;&gt;Node7</title>
<path fill="none" stroke="#191970" d="M364.454,-110.3494C368.8815,-101.6287 374.0969,-91.3559 378.4676,-82.747"/>
<polygon fill="#191970" stroke="#191970" points="381.7064,-84.099 383.1125,-73.5978 375.4647,-80.9301 381.7064,-84.099"/>
</g>
<!-- Node8 -->
<g id="node9" class="node">
<title>Node8</title>
<g id="a_node9"><a xlink:title=" ">
<polygon fill="#ffffff" stroke="#bfbfbf" points="429.7808,-55.5 429.7808,-73.5 489.6821,-73.5 489.6821,-55.5 429.7808,-55.5"/>
<text text-anchor="middle" x="459.7314" y="-61.5" font-family="Helvetica,sans-Serif" font-size="10.00" fill="#000000">sys/ioctl.h</text>
</a>
</g>
</g>
<!-- Node0&#45;&gt;Node8 -->
<g id="edge8" class="edge">
<title>Node0&#45;&gt;Node8</title>
<path fill="none" stroke="#191970" d="M385.667,-110.3494C401.898,-100.3016 421.4574,-88.1934 436.3993,-78.9437"/>
<polygon fill="#191970" stroke="#191970" points="438.3745,-81.8374 445.0349,-73.5978 434.69,-75.8855 438.3745,-81.8374"/>
</g>
<!-- Node9 -->
<g id="node10" class="node">
<title>Node9</title>
<g id="a_node10"><a xlink:title=" ">
<polygon fill="#ffffff" stroke="#bfbfbf" points="507.7217,-55.5 507.7217,-73.5 573.7412,-73.5 573.7412,-55.5 507.7217,-55.5"/>
<text text-anchor="middle" x="540.7314" y="-61.5" font-family="Helvetica,sans-Serif" font-size="10.00" fill="#000000">sys/types.h</text>
</a>
</g>
</g>
<!-- Node0&#45;&gt;Node9 -->
<g id="edge9" class="edge">
<title>Node0&#45;&gt;Node9</title>
<path fill="none" stroke="#191970" d="M409.2808,-110.437C440.3084,-99.5941 478.2664,-86.3292 505.4021,-76.8463"/>
<polygon fill="#191970" stroke="#191970" points="506.5915,-80.1383 514.877,-73.5352 504.2821,-73.5302 506.5915,-80.1383"/>
</g>
<!-- Node10 -->
<g id="node11" class="node">
<title>Node10</title>
<g id="a_node11"><a xlink:title=" ">
<polygon fill="#ffffff" stroke="#bfbfbf" points="591.6133,-55.5 591.6133,-73.5 649.8496,-73.5 649.8496,-55.5 591.6133,-55.5"/>
<text text-anchor="middle" x="620.7314" y="-61.5" font-family="Helvetica,sans-Serif" font-size="10.00" fill="#000000">sys/stat.h</text>
</a>
</g>
</g>
<!-- Node0&#45;&gt;Node10 -->
<g id="edge10" class="edge">
<title>Node0&#45;&gt;Node10</title>
<path fill="none" stroke="#191970" d="M433.3729,-110.4842C474.8378,-100.4277 526.8129,-87.7751 581.4155,-74.3154"/>
<polygon fill="#191970" stroke="#191970" points="582.4068,-77.6759 591.2775,-71.8826 580.7302,-70.8796 582.4068,-77.6759"/>
</g>
<!-- Node11 -->
<g id="node12" class="node">
<title>Node11</title>
<g id="a_node12"><a xlink:title=" ">
<polygon fill="#ffffff" stroke="#bfbfbf" points="668.1396,-55.5 668.1396,-73.5 747.3232,-73.5 747.3232,-55.5 668.1396,-55.5"/>
<text text-anchor="middle" x="707.7314" y="-61.5" font-family="Helvetica,sans-Serif" font-size="10.00" fill="#000000">linux/i2c&#45;dev.h</text>
</a>
</g>
</g>
<!-- Node0&#45;&gt;Node11 -->
<g id="edge11" class="edge">
<title>Node0&#45;&gt;Node11</title>
<path fill="none" stroke="#191970" d="M442.249,-113.7837C500.5253,-103.2571 579.0831,-88.9501 657.7939,-74.1615"/>
<polygon fill="#191970" stroke="#191970" points="658.7121,-77.5502 667.8925,-72.2616 657.4178,-70.6709 658.7121,-77.5502"/>
</g>
<!-- Node12 -->
<g id="node13" class="node">
<title>Node12</title>
<g id="a_node13"><a xlink:href="_m_c_p3428_2_i2_cdev_2_i2_cdev_8h.html" target="_top" xlink:title=" ">
<polygon fill="#ffffff" stroke="#000000" points="765.0879,-55.5 765.0879,-73.5 820.375,-73.5 820.375,-55.5 765.0879,-55.5"/>
<text text-anchor="middle" x="792.7314" y="-61.5" font-family="Helvetica,sans-Serif" font-size="10.00" fill="#000000">I2Cdev.h</text>
</a>
</g>
</g>
<!-- Node0&#45;&gt;Node12 -->
<g id="edge12" class="edge">
<title>Node0&#45;&gt;Node12</title>
<path fill="none" stroke="#191970" d="M442.2851,-120.4993C521.7487,-111.6228 642.2489,-96.4003 755.0582,-74.1618"/>
<polygon fill="#191970" stroke="#191970" points="755.7784,-77.5872 764.9011,-72.1995 754.4097,-70.7223 755.7784,-77.5872"/>
</g>
<!-- Node12&#45;&gt;Node3 -->
<g id="edge13" class="edge">
<title>Node12&#45;&gt;Node3</title>
<path fill="none" stroke="#191970" d="M764.8909,-56.8505C762.1429,-56.1866 759.3886,-55.5568 756.7314,-55 664.5342,-35.6807 554.3393,-20.6046 499.7918,-13.669"/>
<polygon fill="#191970" stroke="#191970" points="500.0049,-10.1683 489.646,-12.3916 499.1304,-17.1135 500.0049,-10.1683"/>
</g>
</g>
</svg>
        <g id="navigator" transform="translate(0 0)" fill="#404254">
                <rect fill="#f2f5e9" fill-opacity="0.5" stroke="#606060" stroke-width=".5" x="0" y="0" width="60" height="60"/>
                <use id="zoomplus" xlink:href="#zoomPlus" x="17" y="9" onmousedown="handleZoom(evt,'in')"/>
                <use id="zoomminus" xlink:href="#zoomMin" x="42" y="9" onmousedown="handleZoom(evt,'out')"/>
                <use id="reset" xlink:href="#resetDef" x="30" y="36" onmousedown="handleReset()"/>
                <g id="arrowUp" xlink:href="#dirArrow" transform="translate(30 24)" onmousedown="handlePan(0,-1)">
                  <use xlink:href="#rim" fill="#404040">
                        <set attributeName="fill" to="#808080" begin="arrowUp.mouseover" end="arrowUp.mouseout"/>
                  </use>
                  <path fill="none" stroke="white" stroke-width="1.5" d="M0,-3.0v7 M-2.5,-0.5L0,-3.0L2.5,-0.5"/>
                </g>
                <g id="arrowRight" xlink:href="#dirArrow" transform="rotate(90) translate(36 -43)" onmousedown="handlePan(1,0)">
                  <use xlink:href="#rim" fill="#404040">
                        <set attributeName="fill" to="#808080" begin="arrowRight.mouseover" end="arrowRight.mouseout"/>
                  </use>
                  <path fill="none" stroke="white" stroke-width="1.5" d="M0,-3.0v7 M-2.5,-0.5L0,-3.0L2.5,-0.5"/>
                </g>
                <g id="arrowDown" xlink:href="#dirArrow" transform="rotate(180) translate(-30 -48)" onmousedown="handlePan(0,1)">
                  <use xlink:href="#rim" fill="#404040">
                        <set attributeName="fill" to="#808080" begin="arrowDown.mouseover" end="arrowDown.mouseout"/>
                  </use>
                  <path fill="none" stroke="white" stroke-width="1.5" d="M0,-3.0v7 M-2.5,-0.5L0,-3.0L2.5,-0.5"/>
                </g>
                <g id="arrowLeft" xlink:href="#dirArrow" transform="rotate(270) translate(-36 17)" onmousedown="handlePan(-1,0)">
                  <use xlink:href="#rim" fill="#404040">
                        <set attributeName="fill" to="#808080" begin="arrowLeft.mouseover" end="arrowLeft.mouseout"/>
                  </use>
                  <path fill="none" stroke="white" stroke-width="1.5" d="M0,-3.0v7 M-2.5,-0.5L0,-3.0L2.5,-0.5"/>
                </g>
        </g>
        <svg viewBox="0 0 15 15" width="100%" height="30px" preserveAspectRatio="xMaxYMin meet">
         <g id="arrow_out" transform="scale(0.3 0.3)">
          <a xlink:href="_m_c_p3428_2_i2_cdev_2_i2_cdev_8cpp__incl_org.svg" target="_base">
           <rect id="button" ry="5" rx="5" y="6" x="6" height="38" width="38"
                fill="#f2f5e9" fill-opacity="0.5" stroke="#606060" stroke-width="1.0"/>
           <path id="arrow"
             d="M 11.500037,31.436501 C 11.940474,20.09759 22.043105,11.32322 32.158766,21.979434 L 37.068811,17.246167 C 37.068811,17.246167 37.088388,32 37.088388,32 L 22.160133,31.978069 C 22.160133,31.978069 26.997745,27.140456 26.997745,27.140456 C 18.528582,18.264221 13.291696,25.230495 11.500037,31.436501 z"
             style="fill:#404040;"/>
          </a>
         </g>
        </svg>
</svg>
