<?xml version="1.0" encoding="UTF-8" standalone="no"?>
<!DOCTYPE svg PUBLIC "-//W3C//DTD SVG 1.1//EN"
 "http://www.w3.org/Graphics/SVG/1.1/DTD/svg11.dtd">
<!-- Generated by graphviz version 2.40.1 (20161225.0304)
 -->
<!-- Title: code/MCP3428/MCP3428.cpp Pages: 1 -->
<svg width="488pt" height="192pt"
 viewBox="0.00 0.00 487.63 192.00" xmlns="http://www.w3.org/2000/svg" xmlns:xlink="http://www.w3.org/1999/xlink">
<g id="graph0" class="graph" transform="scale(1 1) rotate(0) translate(4 188)">
<title>code/MCP3428/MCP3428.cpp</title>
<polygon fill="#ffffff" stroke="transparent" points="-4,4 -4,-188 483.6328,-188 483.6328,4 -4,4"/>
<!-- Node0 -->
<g id="node1" class="node">
<title>Node0</title>
<g id="a_node1"><a xlink:title=" ">
<polygon fill="#bfbfbf" stroke="#000000" points="200.5815,-165.5 200.5815,-183.5 351.6597,-183.5 351.6597,-165.5 200.5815,-165.5"/>
<text text-anchor="middle" x="276.1206" y="-171.5" font-family="Helvetica,sans-Serif" font-size="10.00" fill="#000000">code/MCP3428/MCP3428.cpp</text>
</a>
</g>
</g>
<!-- Node1 -->
<g id="node2" class="node">
<title>Node1</title>
<g id="a_node2"><a xlink:href="_m_c_p3428_8h.html" target="_top" xlink:title=" ">
<polygon fill="#ffffff" stroke="#000000" points="32.7168,-110.5 32.7168,-128.5 101.5244,-128.5 101.5244,-110.5 32.7168,-110.5"/>
<text text-anchor="middle" x="67.1206" y="-116.5" font-family="Helvetica,sans-Serif" font-size="10.00" fill="#000000">MCP3428.h</text>
</a>
</g>
</g>
<!-- Node0&#45;&gt;Node1 -->
<g id="edge1" class="edge">
<title>Node0&#45;&gt;Node1</title>
<path fill="none" stroke="#191970" d="M241.6085,-165.4179C205.9543,-156.0352 150.1833,-141.3586 111.3229,-131.1322"/>
<polygon fill="#191970" stroke="#191970" points="111.8981,-127.6645 101.3366,-128.5042 110.1166,-134.434 111.8981,-127.6645"/>
</g>
<!-- Node5 -->
<g id="node6" class="node">
<title>Node5</title>
<g id="a_node6"><a xlink:title=" ">
<polygon fill="#ffffff" stroke="#bfbfbf" points="119.9482,-110.5 119.9482,-128.5 174.293,-128.5 174.293,-110.5 119.9482,-110.5"/>
<text text-anchor="middle" x="147.1206" y="-116.5" font-family="Helvetica,sans-Serif" font-size="10.00" fill="#000000">iostream</text>
</a>
</g>
</g>
<!-- Node0&#45;&gt;Node5 -->
<g id="edge5" class="edge">
<title>Node0&#45;&gt;Node5</title>
<path fill="none" stroke="#191970" d="M254.8189,-165.4179C233.8116,-156.4613 201.4898,-142.6806 177.7335,-132.552"/>
<polygon fill="#191970" stroke="#191970" points="179.0255,-129.2981 168.454,-128.5956 176.2801,-135.7372 179.0255,-129.2981"/>
</g>
<!-- Node6 -->
<g id="node7" class="node">
<title>Node6</title>
<g id="a_node7"><a xlink:title=" ">
<polygon fill="#ffffff" stroke="#bfbfbf" points="192.5288,-110.5 192.5288,-128.5 271.7124,-128.5 271.7124,-110.5 192.5288,-110.5"/>
<text text-anchor="middle" x="232.1206" y="-116.5" font-family="Helvetica,sans-Serif" font-size="10.00" fill="#000000">linux/i2c&#45;dev.h</text>
</a>
</g>
</g>
<!-- Node0&#45;&gt;Node6 -->
<g id="edge6" class="edge">
<title>Node0&#45;&gt;Node6</title>
<path fill="none" stroke="#191970" d="M268.8549,-165.4179C262.6505,-157.6624 253.5526,-146.29 245.9634,-136.8035"/>
<polygon fill="#191970" stroke="#191970" points="248.5242,-134.4017 239.5442,-128.7795 243.0581,-138.7746 248.5242,-134.4017"/>
</g>
<!-- Node7 -->
<g id="node8" class="node">
<title>Node7</title>
<g id="a_node8"><a xlink:title=" ">
<polygon fill="#ffffff" stroke="#bfbfbf" points="290.1699,-110.5 290.1699,-128.5 350.0713,-128.5 350.0713,-110.5 290.1699,-110.5"/>
<text text-anchor="middle" x="320.1206" y="-116.5" font-family="Helvetica,sans-Serif" font-size="10.00" fill="#000000">sys/ioctl.h</text>
</a>
</g>
</g>
<!-- Node0&#45;&gt;Node7 -->
<g id="edge7" class="edge">
<title>Node0&#45;&gt;Node7</title>
<path fill="none" stroke="#191970" d="M283.3863,-165.4179C289.5907,-157.6624 298.6886,-146.29 306.2778,-136.8035"/>
<polygon fill="#191970" stroke="#191970" points="309.1831,-138.7746 312.697,-128.7795 303.717,-134.4017 309.1831,-138.7746"/>
</g>
<!-- Node8 -->
<g id="node9" class="node">
<title>Node8</title>
<g id="a_node9"><a xlink:title=" ">
<polygon fill="#ffffff" stroke="#bfbfbf" points="367.7808,-110.5 367.7808,-128.5 410.4604,-128.5 410.4604,-110.5 367.7808,-110.5"/>
<text text-anchor="middle" x="389.1206" y="-116.5" font-family="Helvetica,sans-Serif" font-size="10.00" fill="#000000">fcntl.h</text>
</a>
</g>
</g>
<!-- Node0&#45;&gt;Node8 -->
<g id="edge8" class="edge">
<title>Node0&#45;&gt;Node8</title>
<path fill="none" stroke="#191970" d="M294.7803,-165.4179C312.8548,-156.6205 340.4914,-143.1691 361.1878,-133.0956"/>
<polygon fill="#191970" stroke="#191970" points="362.9735,-136.1191 370.4332,-128.5956 359.91,-129.825 362.9735,-136.1191"/>
</g>
<!-- Node9 -->
<g id="node10" class="node">
<title>Node9</title>
<g id="a_node10"><a xlink:title=" ">
<polygon fill="#ffffff" stroke="#bfbfbf" points="428.6084,-110.5 428.6084,-128.5 479.6328,-128.5 479.6328,-110.5 428.6084,-110.5"/>
<text text-anchor="middle" x="454.1206" y="-116.5" font-family="Helvetica,sans-Serif" font-size="10.00" fill="#000000">unistd.h</text>
</a>
</g>
</g>
<!-- Node0&#45;&gt;Node9 -->
<g id="edge9" class="edge">
<title>Node0&#45;&gt;Node9</title>
<path fill="none" stroke="#191970" d="M305.5137,-165.4179C336.5656,-155.8232 385.5337,-140.6926 418.6959,-130.4458"/>
<polygon fill="#191970" stroke="#191970" points="419.9218,-133.7304 428.4428,-127.4342 417.8552,-127.0424 419.9218,-133.7304"/>
</g>
<!-- Node2 -->
<g id="node3" class="node">
<title>Node2</title>
<g id="a_node3"><a xlink:title=" ">
<polygon fill="#ffffff" stroke="#bfbfbf" points="0,-55.5 0,-73.5 48.2412,-73.5 48.2412,-55.5 0,-55.5"/>
<text text-anchor="middle" x="24.1206" y="-61.5" font-family="Helvetica,sans-Serif" font-size="10.00" fill="#000000">stdint.h</text>
</a>
</g>
</g>
<!-- Node1&#45;&gt;Node2 -->
<g id="edge2" class="edge">
<title>Node1&#45;&gt;Node2</title>
<path fill="none" stroke="#191970" d="M60.02,-110.4179C53.9567,-102.6624 45.0655,-91.29 37.6488,-81.8035"/>
<polygon fill="#191970" stroke="#191970" points="40.292,-79.5018 31.3755,-73.7795 34.7774,-83.8133 40.292,-79.5018"/>
</g>
<!-- Node3 -->
<g id="node4" class="node">
<title>Node3</title>
<g id="a_node4"><a xlink:href="_m_c_p3428_2_i2_cdev_2_i2_cdev_8h.html" target="_top" xlink:title=" ">
<polygon fill="#ffffff" stroke="#000000" points="66.2456,-55.5 66.2456,-73.5 155.9956,-73.5 155.9956,-55.5 66.2456,-55.5"/>
<text text-anchor="middle" x="111.1206" y="-61.5" font-family="Helvetica,sans-Serif" font-size="10.00" fill="#000000">I2Cdev/I2Cdev.h</text>
</a>
</g>
</g>
<!-- Node1&#45;&gt;Node3 -->
<g id="edge3" class="edge">
<title>Node1&#45;&gt;Node3</title>
<path fill="none" stroke="#191970" d="M74.3863,-110.4179C80.5907,-102.6624 89.6886,-91.29 97.2778,-81.8035"/>
<polygon fill="#191970" stroke="#191970" points="100.1831,-83.7746 103.697,-73.7795 94.717,-79.4017 100.1831,-83.7746"/>
</g>
<!-- Node4 -->
<g id="node5" class="node">
<title>Node4</title>
<g id="a_node5"><a xlink:title=" ">
<polygon fill="#ffffff" stroke="#bfbfbf" points="87.2783,-.5 87.2783,-18.5 134.9629,-18.5 134.9629,-.5 87.2783,-.5"/>
<text text-anchor="middle" x="111.1206" y="-6.5" font-family="Helvetica,sans-Serif" font-size="10.00" fill="#000000">stdlib.h</text>
</a>
</g>
</g>
<!-- Node3&#45;&gt;Node4 -->
<g id="edge4" class="edge">
<title>Node3&#45;&gt;Node4</title>
<path fill="none" stroke="#191970" d="M111.1206,-55.4179C111.1206,-48.2164 111.1206,-37.8962 111.1206,-28.8632"/>
<polygon fill="#191970" stroke="#191970" points="114.6207,-28.7794 111.1206,-18.7795 107.6207,-28.7795 114.6207,-28.7794"/>
</g>
</g>
</svg>
