<?xml version="1.0" encoding="UTF-8" standalone="no"?>
<!DOCTYPE svg PUBLIC "-//W3C//DTD SVG 1.1//EN"
 "http://www.w3.org/Graphics/SVG/1.1/DTD/svg11.dtd">
<!-- Generated by graphviz version 2.40.1 (20161225.0304)
 -->
<!-- Title: /Users/jamielee/Desktop/uni stuff/RTE5/ENG5220/code/MCP3428/I2Cdev/I2Cdev.h Pages: 1 -->
<svg width="825pt" height="357pt"
 viewBox="0.00 0.00 824.86 357.00" xmlns="http://www.w3.org/2000/svg" xmlns:xlink="http://www.w3.org/1999/xlink">
<g id="graph0" class="graph" transform="scale(1 1) rotate(0) translate(4 353)">
<title>/Users/jamielee/Desktop/uni stuff/RTE5/ENG5220/code/MCP3428/I2Cdev/I2Cdev.h</title>
<polygon fill="#ffffff" stroke="transparent" points="-4,4 -4,-353 820.8564,-353 820.8564,4 -4,4"/>
<!-- Node2 -->
<g id="node1" class="node">
<title>Node2</title>
<g id="a_node1"><a xlink:title=" ">
<polygon fill="#bfbfbf" stroke="#000000" points="226.8096,-310.5 226.8096,-348.5 391.0469,-348.5 391.0469,-310.5 226.8096,-310.5"/>
<text text-anchor="start" x="234.8096" y="-336.5" font-family="Helvetica,sans-Serif" font-size="10.00" fill="#000000">/Users/jamielee/Desktop</text>
<text text-anchor="start" x="234.8096" y="-326.5" font-family="Helvetica,sans-Serif" font-size="10.00" fill="#000000">/uni stuff/RTE5/ENG5220</text>
<text text-anchor="middle" x="308.9282" y="-316.5" font-family="Helvetica,sans-Serif" font-size="10.00" fill="#000000">/code/MCP3428/I2Cdev/I2Cdev.h</text>
</a>
</g>
</g>
<!-- Node3 -->
<g id="node2" class="node">
<title>Node3</title>
<g id="a_node2"><a xlink:href="_m_c_p3428_2_i2_cdev_2_i2_cdev_8cpp.html" target="_top" xlink:title=" ">
<polygon fill="#ffffff" stroke="#000000" points="44.5288,-235.5 44.5288,-273.5 219.3276,-273.5 219.3276,-235.5 44.5288,-235.5"/>
<text text-anchor="start" x="52.5288" y="-261.5" font-family="Helvetica,sans-Serif" font-size="10.00" fill="#000000">/Users/jamielee/Desktop</text>
<text text-anchor="start" x="52.5288" y="-251.5" font-family="Helvetica,sans-Serif" font-size="10.00" fill="#000000">/uni stuff/RTE5/ENG5220</text>
<text text-anchor="middle" x="131.9282" y="-241.5" font-family="Helvetica,sans-Serif" font-size="10.00" fill="#000000">/code/MCP3428/I2Cdev/I2Cdev.cpp</text>
</a>
</g>
</g>
<!-- Node2&#45;&gt;Node3 -->
<g id="edge1" class="edge">
<title>Node2&#45;&gt;Node3</title>
<path fill="none" stroke="#191970" d="M254.5079,-306.4405C229.6546,-295.9095 200.569,-283.5851 176.9684,-273.5848"/>
<polygon fill="#191970" stroke="#191970" points="253.2326,-309.7014 263.8057,-310.3803 255.9637,-303.2561 253.2326,-309.7014"/>
</g>
<!-- Node4 -->
<g id="node3" class="node">
<title>Node4</title>
<g id="a_node3"><a xlink:href="_m_c_p3428_8h.html" target="_top" xlink:title=" ">
<polygon fill="#ffffff" stroke="#000000" points="237.2808,-235.5 237.2808,-273.5 380.5757,-273.5 380.5757,-235.5 237.2808,-235.5"/>
<text text-anchor="start" x="245.2808" y="-261.5" font-family="Helvetica,sans-Serif" font-size="10.00" fill="#000000">/Users/jamielee/Desktop</text>
<text text-anchor="start" x="245.2808" y="-251.5" font-family="Helvetica,sans-Serif" font-size="10.00" fill="#000000">/uni stuff/RTE5/ENG5220</text>
<text text-anchor="middle" x="308.9282" y="-241.5" font-family="Helvetica,sans-Serif" font-size="10.00" fill="#000000">/code/MCP3428/MCP3428.h</text>
</a>
</g>
</g>
<!-- Node2&#45;&gt;Node4 -->
<g id="edge2" class="edge">
<title>Node2&#45;&gt;Node4</title>
<path fill="none" stroke="#191970" d="M308.9282,-299.8977C308.9282,-291.1033 308.9282,-281.7019 308.9282,-273.7489"/>
<polygon fill="#191970" stroke="#191970" points="305.4283,-300.1856 308.9282,-310.1856 312.4283,-300.1857 305.4283,-300.1856"/>
</g>
<!-- Node13 -->
<g id="node12" class="node">
<title>Node13</title>
<g id="a_node12"><a xlink:href="_m_p_u6050_8h.html" target="_top" xlink:title=" ">
<polygon fill="#ffffff" stroke="#000000" points="398.2808,-235.5 398.2808,-273.5 541.5757,-273.5 541.5757,-235.5 398.2808,-235.5"/>
<text text-anchor="start" x="406.2808" y="-261.5" font-family="Helvetica,sans-Serif" font-size="10.00" fill="#000000">/Users/jamielee/Desktop</text>
<text text-anchor="start" x="406.2808" y="-251.5" font-family="Helvetica,sans-Serif" font-size="10.00" fill="#000000">/uni stuff/RTE5/ENG5220</text>
<text text-anchor="middle" x="469.9282" y="-241.5" font-family="Helvetica,sans-Serif" font-size="10.00" fill="#000000">/code/MPU6050/MPU6050.h</text>
</a>
</g>
</g>
<!-- Node2&#45;&gt;Node13 -->
<g id="edge11" class="edge">
<title>Node2&#45;&gt;Node13</title>
<path fill="none" stroke="#191970" d="M359.3275,-306.0221C381.7343,-295.5841 407.776,-283.4529 428.9595,-273.5848"/>
<polygon fill="#191970" stroke="#191970" points="357.5587,-302.9849 349.9719,-310.3803 360.5146,-309.3302 357.5587,-302.9849"/>
</g>
<!-- Node5 -->
<g id="node4" class="node">
<title>Node5</title>
<g id="a_node4"><a xlink:href="_m_c_p3428_8cpp.html" target="_top" xlink:title=" ">
<polygon fill="#ffffff" stroke="#000000" points="0,-155.5 0,-193.5 153.8564,-193.5 153.8564,-155.5 0,-155.5"/>
<text text-anchor="start" x="8" y="-181.5" font-family="Helvetica,sans-Serif" font-size="10.00" fill="#000000">/Users/jamielee/Desktop</text>
<text text-anchor="start" x="8" y="-171.5" font-family="Helvetica,sans-Serif" font-size="10.00" fill="#000000">/uni stuff/RTE5/ENG5220</text>
<text text-anchor="middle" x="76.9282" y="-161.5" font-family="Helvetica,sans-Serif" font-size="10.00" fill="#000000">/code/MCP3428/MCP3428.cpp</text>
</a>
</g>
</g>
<!-- Node4&#45;&gt;Node5 -->
<g id="edge3" class="edge">
<title>Node4&#45;&gt;Node5</title>
<path fill="none" stroke="#191970" d="M243.9494,-232.0935C208.7586,-219.9588 165.7443,-205.1262 132.1814,-193.5528"/>
<polygon fill="#191970" stroke="#191970" points="243.0585,-235.4885 253.6532,-235.4396 245.3404,-228.8709 243.0585,-235.4885"/>
</g>
<!-- Node6 -->
<g id="node5" class="node">
<title>Node6</title>
<g id="a_node5"><a xlink:href="_sample_timer_8h.html" target="_top" xlink:title=" ">
<polygon fill="#ffffff" stroke="#000000" points="171.688,-155.5 171.688,-193.5 300.1685,-193.5 300.1685,-155.5 171.688,-155.5"/>
<text text-anchor="start" x="179.688" y="-181.5" font-family="Helvetica,sans-Serif" font-size="10.00" fill="#000000">/Users/jamielee/Desktop</text>
<text text-anchor="start" x="179.688" y="-171.5" font-family="Helvetica,sans-Serif" font-size="10.00" fill="#000000">/uni stuff/RTE5/ENG5220</text>
<text text-anchor="middle" x="235.9282" y="-161.5" font-family="Helvetica,sans-Serif" font-size="10.00" fill="#000000">/code/Qt/SampleTimer.h</text>
</a>
</g>
</g>
<!-- Node4&#45;&gt;Node6 -->
<g id="edge4" class="edge">
<title>Node4&#45;&gt;Node6</title>
<path fill="none" stroke="#191970" d="M284.4855,-227.7134C274.3142,-216.5668 262.7357,-203.8781 253.4368,-193.6874"/>
<polygon fill="#191970" stroke="#191970" points="281.931,-230.1065 291.257,-235.1342 287.1018,-225.3882 281.931,-230.1065"/>
</g>
<!-- Node11 -->
<g id="node10" class="node">
<title>Node11</title>
<g id="a_node10"><a xlink:href="unit_tests_2sensors_2main_8cpp.html" target="_top" xlink:title=" ">
<polygon fill="#ffffff" stroke="#000000" points="317.688,-150.5 317.688,-198.5 446.1685,-198.5 446.1685,-150.5 317.688,-150.5"/>
<text text-anchor="start" x="325.688" y="-186.5" font-family="Helvetica,sans-Serif" font-size="10.00" fill="#000000">/Users/jamielee/Desktop</text>
<text text-anchor="start" x="325.688" y="-176.5" font-family="Helvetica,sans-Serif" font-size="10.00" fill="#000000">/uni stuff/RTE5/ENG5220</text>
<text text-anchor="start" x="325.688" y="-166.5" font-family="Helvetica,sans-Serif" font-size="10.00" fill="#000000">/code/unitTests/sensors</text>
<text text-anchor="middle" x="381.9282" y="-156.5" font-family="Helvetica,sans-Serif" font-size="10.00" fill="#000000">/main.cpp</text>
</a>
</g>
</g>
<!-- Node4&#45;&gt;Node11 -->
<g id="edge9" class="edge">
<title>Node4&#45;&gt;Node11</title>
<path fill="none" stroke="#191970" d="M333.5178,-227.5525C342.0866,-218.162 351.6391,-207.6936 359.9794,-198.5535"/>
<polygon fill="#191970" stroke="#191970" points="330.7546,-225.3882 326.5995,-235.1342 335.9254,-230.1065 330.7546,-225.3882"/>
</g>
<!-- Node12 -->
<g id="node11" class="node">
<title>Node12</title>
<g id="a_node11"><a xlink:href="sampledata_8cpp.html" target="_top" xlink:title=" ">
<polygon fill="#ffffff" stroke="#000000" points="464.6602,-155.5 464.6602,-193.5 645.1963,-193.5 645.1963,-155.5 464.6602,-155.5"/>
<text text-anchor="start" x="472.6602" y="-181.5" font-family="Helvetica,sans-Serif" font-size="10.00" fill="#000000">/Users/jamielee/Desktop</text>
<text text-anchor="start" x="472.6602" y="-171.5" font-family="Helvetica,sans-Serif" font-size="10.00" fill="#000000">/uni stuff/RTE5/ENG5220</text>
<text text-anchor="middle" x="554.9282" y="-161.5" font-family="Helvetica,sans-Serif" font-size="10.00" fill="#000000">/testfiles/sampledata/sampledata.cpp</text>
</a>
</g>
</g>
<!-- Node4&#45;&gt;Node12 -->
<g id="edge10" class="edge">
<title>Node4&#45;&gt;Node12</title>
<path fill="none" stroke="#191970" d="M377.3502,-232.2489C414.7525,-220.0856 460.6005,-205.1757 496.3408,-193.5528"/>
<polygon fill="#191970" stroke="#191970" points="375.9662,-229.0185 367.5388,-235.4396 378.131,-235.6754 375.9662,-229.0185"/>
</g>
<!-- Node7 -->
<g id="node6" class="node">
<title>Node7</title>
<g id="a_node6"><a xlink:href="mainwindow_8h.html" target="_top" xlink:title=" ">
<polygon fill="#ffffff" stroke="#000000" points="97.688,-75.5 97.688,-113.5 226.1685,-113.5 226.1685,-75.5 97.688,-75.5"/>
<text text-anchor="start" x="105.688" y="-101.5" font-family="Helvetica,sans-Serif" font-size="10.00" fill="#000000">/Users/jamielee/Desktop</text>
<text text-anchor="start" x="105.688" y="-91.5" font-family="Helvetica,sans-Serif" font-size="10.00" fill="#000000">/uni stuff/RTE5/ENG5220</text>
<text text-anchor="middle" x="161.9282" y="-81.5" font-family="Helvetica,sans-Serif" font-size="10.00" fill="#000000">/code/Qt/mainwindow.h</text>
</a>
</g>
</g>
<!-- Node6&#45;&gt;Node7 -->
<g id="edge5" class="edge">
<title>Node6&#45;&gt;Node7</title>
<path fill="none" stroke="#191970" d="M211.1506,-147.7134C200.8401,-136.5668 189.1029,-123.8781 179.6766,-113.6874"/>
<polygon fill="#191970" stroke="#191970" points="208.6551,-150.1699 218.0149,-155.1342 213.7938,-145.4166 208.6551,-150.1699"/>
</g>
<!-- Node10 -->
<g id="node9" class="node">
<title>Node10</title>
<g id="a_node9"><a xlink:href="_sample_timer_8cpp.html" target="_top" xlink:title=" ">
<polygon fill="#ffffff" stroke="#000000" points="243.917,-75.5 243.917,-113.5 377.9395,-113.5 377.9395,-75.5 243.917,-75.5"/>
<text text-anchor="start" x="251.917" y="-101.5" font-family="Helvetica,sans-Serif" font-size="10.00" fill="#000000">/Users/jamielee/Desktop</text>
<text text-anchor="start" x="251.917" y="-91.5" font-family="Helvetica,sans-Serif" font-size="10.00" fill="#000000">/uni stuff/RTE5/ENG5220</text>
<text text-anchor="middle" x="310.9282" y="-81.5" font-family="Helvetica,sans-Serif" font-size="10.00" fill="#000000">/code/Qt/SampleTimer.cpp</text>
</a>
</g>
</g>
<!-- Node6&#45;&gt;Node10 -->
<g id="edge8" class="edge">
<title>Node6&#45;&gt;Node10</title>
<path fill="none" stroke="#191970" d="M261.0406,-147.7134C271.4906,-136.5668 283.3863,-123.8781 292.94,-113.6874"/>
<polygon fill="#191970" stroke="#191970" points="258.3697,-145.445 254.0836,-155.1342 263.4765,-150.2326 258.3697,-145.445"/>
</g>
<!-- Node8 -->
<g id="node7" class="node">
<title>Node8</title>
<g id="a_node7"><a xlink:href="_qt_2main_8cpp.html" target="_top" xlink:title=" ">
<polygon fill="#ffffff" stroke="#000000" points="24.688,-.5 24.688,-38.5 153.1685,-38.5 153.1685,-.5 24.688,-.5"/>
<text text-anchor="start" x="32.688" y="-26.5" font-family="Helvetica,sans-Serif" font-size="10.00" fill="#000000">/Users/jamielee/Desktop</text>
<text text-anchor="start" x="32.688" y="-16.5" font-family="Helvetica,sans-Serif" font-size="10.00" fill="#000000">/uni stuff/RTE5/ENG5220</text>
<text text-anchor="middle" x="88.9282" y="-6.5" font-family="Helvetica,sans-Serif" font-size="10.00" fill="#000000">/code/Qt/main.cpp</text>
</a>
</g>
</g>
<!-- Node7&#45;&gt;Node8 -->
<g id="edge6" class="edge">
<title>Node7&#45;&gt;Node8</title>
<path fill="none" stroke="#191970" d="M135.9132,-67.7722C126.5836,-58.187 116.2554,-47.5759 107.6638,-38.7489"/>
<polygon fill="#191970" stroke="#191970" points="133.6459,-70.4609 143.1289,-75.1856 138.6621,-65.5784 133.6459,-70.4609"/>
</g>
<!-- Node9 -->
<g id="node8" class="node">
<title>Node9</title>
<g id="a_node8"><a xlink:href="mainwindow_8cpp.html" target="_top" xlink:title=" ">
<polygon fill="#ffffff" stroke="#000000" points="170.9507,-.5 170.9507,-38.5 300.9058,-38.5 300.9058,-.5 170.9507,-.5"/>
<text text-anchor="start" x="178.9507" y="-26.5" font-family="Helvetica,sans-Serif" font-size="10.00" fill="#000000">/Users/jamielee/Desktop</text>
<text text-anchor="start" x="178.9507" y="-16.5" font-family="Helvetica,sans-Serif" font-size="10.00" fill="#000000">/uni stuff/RTE5/ENG5220</text>
<text text-anchor="middle" x="235.9282" y="-6.5" font-family="Helvetica,sans-Serif" font-size="10.00" fill="#000000">/code/Qt/mainwindow.cpp</text>
</a>
</g>
</g>
<!-- Node7&#45;&gt;Node9 -->
<g id="edge7" class="edge">
<title>Node7&#45;&gt;Node9</title>
<path fill="none" stroke="#191970" d="M188.019,-68.0566C197.5495,-58.3973 208.1405,-47.6633 216.936,-38.7489"/>
<polygon fill="#191970" stroke="#191970" points="185.5171,-65.609 180.9851,-75.1856 190.5,-70.5255 185.5171,-65.609"/>
</g>
<!-- Node13&#45;&gt;Node6 -->
<g id="edge13" class="edge">
<title>Node13&#45;&gt;Node6</title>
<path fill="none" stroke="#191970" d="M404.3892,-232.0935C368.8951,-219.9588 325.5099,-205.1262 291.6577,-193.5528"/>
<polygon fill="#191970" stroke="#191970" points="403.5821,-235.5164 414.1767,-235.4396 405.8467,-228.8928 403.5821,-235.5164"/>
</g>
<!-- Node13&#45;&gt;Node11 -->
<g id="edge14" class="edge">
<title>Node13&#45;&gt;Node11</title>
<path fill="none" stroke="#191970" d="M441.2124,-228.3947C430.6487,-218.7913 418.7428,-207.9678 408.387,-198.5535"/>
<polygon fill="#191970" stroke="#191970" points="438.8721,-230.9973 448.6259,-235.1342 443.5808,-225.8177 438.8721,-230.9973"/>
</g>
<!-- Node13&#45;&gt;Node12 -->
<g id="edge15" class="edge">
<title>Node13&#45;&gt;Node12</title>
<path fill="none" stroke="#191970" d="M498.0478,-228.0345C509.9727,-216.8111 523.6099,-203.9761 534.5416,-193.6874"/>
<polygon fill="#191970" stroke="#191970" points="495.3876,-225.7318 490.5044,-235.1342 500.1852,-230.8293 495.3876,-225.7318"/>
</g>
<!-- Node14 -->
<g id="node13" class="node">
<title>Node14</title>
<g id="a_node13"><a xlink:href="_m_p_u6050_8cpp.html" target="_top" xlink:title=" ">
<polygon fill="#ffffff" stroke="#000000" points="663,-155.5 663,-193.5 816.8564,-193.5 816.8564,-155.5 663,-155.5"/>
<text text-anchor="start" x="671" y="-181.5" font-family="Helvetica,sans-Serif" font-size="10.00" fill="#000000">/Users/jamielee/Desktop</text>
<text text-anchor="start" x="671" y="-171.5" font-family="Helvetica,sans-Serif" font-size="10.00" fill="#000000">/uni stuff/RTE5/ENG5220</text>
<text text-anchor="middle" x="739.9282" y="-161.5" font-family="Helvetica,sans-Serif" font-size="10.00" fill="#000000">/code/MPU6050/MPU6050.cpp</text>
</a>
</g>
</g>
<!-- Node13&#45;&gt;Node14 -->
<g id="edge12" class="edge">
<title>Node13&#45;&gt;Node14</title>
<path fill="none" stroke="#191970" d="M543.9795,-232.5589C585.2195,-220.3396 636.0639,-205.2746 675.625,-193.5528"/>
<polygon fill="#191970" stroke="#191970" points="542.8506,-229.2429 534.2569,-235.4396 544.8392,-235.9545 542.8506,-229.2429"/>
</g>
</g>
</svg>
