<?xml version="1.0" encoding="UTF-8" standalone="no"?>
<!DOCTYPE svg PUBLIC "-//W3C//DTD SVG 1.1//EN"
 "http://www.w3.org/Graphics/SVG/1.1/DTD/svg11.dtd">
<!-- Generated by graphviz version 2.40.1 (20161225.0304)
 -->
<!-- Title: /Users/jamielee/Desktop/uni stuff/RTE5/ENG5220/code/MCP3428/MCP3428.h Pages: 1 -->
<svg width="169pt" height="157pt"
 viewBox="0.00 0.00 168.52 157.00" xmlns="http://www.w3.org/2000/svg" xmlns:xlink="http://www.w3.org/1999/xlink">
<g id="graph0" class="graph" transform="scale(1 1) rotate(0) translate(4 153)">
<title>/Users/jamielee/Desktop/uni stuff/RTE5/ENG5220/code/MCP3428/MCP3428.h</title>
<polygon fill="#ffffff" stroke="transparent" points="-4,4 -4,-153 164.5225,-153 164.5225,4 -4,4"/>
<!-- Node0 -->
<g id="node1" class="node">
<title>Node0</title>
<g id="a_node1"><a xlink:title=" ">
<polygon fill="#bfbfbf" stroke="#000000" points="0,-110.5 0,-148.5 143.2949,-148.5 143.2949,-110.5 0,-110.5"/>
<text text-anchor="start" x="8" y="-136.5" font-family="Helvetica,sans-Serif" font-size="10.00" fill="#000000">/Users/jamielee/Desktop</text>
<text text-anchor="start" x="8" y="-126.5" font-family="Helvetica,sans-Serif" font-size="10.00" fill="#000000">/uni stuff/RTE5/ENG5220</text>
<text text-anchor="middle" x="71.6475" y="-116.5" font-family="Helvetica,sans-Serif" font-size="10.00" fill="#000000">/code/MCP3428/MCP3428.h</text>
</a>
</g>
</g>
<!-- Node1 -->
<g id="node2" class="node">
<title>Node1</title>
<g id="a_node2"><a xlink:title=" ">
<polygon fill="#ffffff" stroke="#bfbfbf" points="4.5269,-55.5 4.5269,-73.5 52.7681,-73.5 52.7681,-55.5 4.5269,-55.5"/>
<text text-anchor="middle" x="28.6475" y="-61.5" font-family="Helvetica,sans-Serif" font-size="10.00" fill="#000000">stdint.h</text>
</a>
</g>
</g>
<!-- Node0&#45;&gt;Node1 -->
<g id="edge1" class="edge">
<title>Node0&#45;&gt;Node1</title>
<path fill="none" stroke="#191970" d="M58.9786,-110.3494C53.0841,-101.4391 46.1177,-90.9085 40.3487,-82.1879"/>
<polygon fill="#191970" stroke="#191970" points="43.1025,-80.007 34.666,-73.5978 37.2644,-83.8691 43.1025,-80.007"/>
</g>
<!-- Node2 -->
<g id="node3" class="node">
<title>Node2</title>
<g id="a_node3"><a xlink:href="_m_c_p3428_2_i2_cdev_2_i2_cdev_8h.html" target="_top" xlink:title=" ">
<polygon fill="#ffffff" stroke="#000000" points="70.7725,-55.5 70.7725,-73.5 160.5225,-73.5 160.5225,-55.5 70.7725,-55.5"/>
<text text-anchor="middle" x="115.6475" y="-61.5" font-family="Helvetica,sans-Serif" font-size="10.00" fill="#000000">I2Cdev/I2Cdev.h</text>
</a>
</g>
</g>
<!-- Node0&#45;&gt;Node2 -->
<g id="edge2" class="edge">
<title>Node0&#45;&gt;Node2</title>
<path fill="none" stroke="#191970" d="M84.6109,-110.3494C90.7067,-101.3443 97.9227,-90.6843 103.8621,-81.9102"/>
<polygon fill="#191970" stroke="#191970" points="106.7816,-83.841 109.4889,-73.5978 100.9848,-79.917 106.7816,-83.841"/>
</g>
<!-- Node3 -->
<g id="node4" class="node">
<title>Node3</title>
<g id="a_node4"><a xlink:title=" ">
<polygon fill="#ffffff" stroke="#bfbfbf" points="91.8052,-.5 91.8052,-18.5 139.4897,-18.5 139.4897,-.5 91.8052,-.5"/>
<text text-anchor="middle" x="115.6475" y="-6.5" font-family="Helvetica,sans-Serif" font-size="10.00" fill="#000000">stdlib.h</text>
</a>
</g>
</g>
<!-- Node2&#45;&gt;Node3 -->
<g id="edge3" class="edge">
<title>Node2&#45;&gt;Node3</title>
<path fill="none" stroke="#191970" d="M115.6475,-55.4179C115.6475,-48.2164 115.6475,-37.8962 115.6475,-28.8632"/>
<polygon fill="#191970" stroke="#191970" points="119.1476,-28.7794 115.6475,-18.7795 112.1476,-28.7795 119.1476,-28.7794"/>
</g>
</g>
</svg>
