<?xml version="1.0" encoding="UTF-8" standalone="no"?>
<!DOCTYPE svg PUBLIC "-//W3C//DTD SVG 1.1//EN"
 "http://www.w3.org/Graphics/SVG/1.1/DTD/svg11.dtd">
<!-- Generated by graphviz version 2.40.1 (20161225.0304)
 -->
<!-- Title: /Users/jamielee/Desktop/uni stuff/RTE5/ENG5220/code/MCP3428/MCP3428.cpp Pages: 1 -->
<svg width="488pt" height="212pt"
 viewBox="0.00 0.00 487.63 212.00" xmlns="http://www.w3.org/2000/svg" xmlns:xlink="http://www.w3.org/1999/xlink">
<g id="graph0" class="graph" transform="scale(1 1) rotate(0) translate(4 208)">
<title>/Users/jamielee/Desktop/uni stuff/RTE5/ENG5220/code/MCP3428/MCP3428.cpp</title>
<polygon fill="#ffffff" stroke="transparent" points="-4,4 -4,-208 483.6328,-208 483.6328,4 -4,4"/>
<!-- Node0 -->
<g id="node1" class="node">
<title>Node0</title>
<g id="a_node1"><a xlink:title=" ">
<polygon fill="#bfbfbf" stroke="#000000" points="199.1924,-165.5 199.1924,-203.5 353.0488,-203.5 353.0488,-165.5 199.1924,-165.5"/>
<text text-anchor="start" x="207.1924" y="-191.5" font-family="Helvetica,sans-Serif" font-size="10.00" fill="#000000">/Users/jamielee/Desktop</text>
<text text-anchor="start" x="207.1924" y="-181.5" font-family="Helvetica,sans-Serif" font-size="10.00" fill="#000000">/uni stuff/RTE5/ENG5220</text>
<text text-anchor="middle" x="276.1206" y="-171.5" font-family="Helvetica,sans-Serif" font-size="10.00" fill="#000000">/code/MCP3428/MCP3428.cpp</text>
</a>
</g>
</g>
<!-- Node1 -->
<g id="node2" class="node">
<title>Node1</title>
<g id="a_node2"><a xlink:href="_m_c_p3428_8h.html" target="_top" xlink:title=" ">
<polygon fill="#ffffff" stroke="#000000" points="32.7168,-110.5 32.7168,-128.5 101.5244,-128.5 101.5244,-110.5 32.7168,-110.5"/>
<text text-anchor="middle" x="67.1206" y="-116.5" font-family="Helvetica,sans-Serif" font-size="10.00" fill="#000000">MCP3428.h</text>
</a>
</g>
</g>
<!-- Node0&#45;&gt;Node1 -->
<g id="edge1" class="edge">
<title>Node0&#45;&gt;Node1</title>
<path fill="none" stroke="#191970" d="M214.8259,-165.437C179.6557,-154.499 136.5609,-141.0963 106.019,-131.5976"/>
<polygon fill="#191970" stroke="#191970" points="106.7604,-128.1629 96.1721,-128.5352 104.6816,-134.8471 106.7604,-128.1629"/>
</g>
<!-- Node5 -->
<g id="node6" class="node">
<title>Node5</title>
<g id="a_node6"><a xlink:title=" ">
<polygon fill="#ffffff" stroke="#bfbfbf" points="119.9482,-110.5 119.9482,-128.5 174.293,-128.5 174.293,-110.5 119.9482,-110.5"/>
<text text-anchor="middle" x="147.1206" y="-116.5" font-family="Helvetica,sans-Serif" font-size="10.00" fill="#000000">iostream</text>
</a>
</g>
</g>
<!-- Node0&#45;&gt;Node5 -->
<g id="edge5" class="edge">
<title>Node0&#45;&gt;Node5</title>
<path fill="none" stroke="#191970" d="M238.1141,-165.3494C217.6087,-155.0173 192.7795,-142.5064 174.2411,-133.1654"/>
<polygon fill="#191970" stroke="#191970" points="175.6817,-129.9721 165.1763,-128.5978 172.5318,-136.2233 175.6817,-129.9721"/>
</g>
<!-- Node6 -->
<g id="node7" class="node">
<title>Node6</title>
<g id="a_node7"><a xlink:title=" ">
<polygon fill="#ffffff" stroke="#bfbfbf" points="192.5288,-110.5 192.5288,-128.5 271.7124,-128.5 271.7124,-110.5 192.5288,-110.5"/>
<text text-anchor="middle" x="232.1206" y="-116.5" font-family="Helvetica,sans-Serif" font-size="10.00" fill="#000000">linux/i2c&#45;dev.h</text>
</a>
</g>
</g>
<!-- Node0&#45;&gt;Node6 -->
<g id="edge6" class="edge">
<title>Node0&#45;&gt;Node6</title>
<path fill="none" stroke="#191970" d="M263.1571,-165.3494C257.0614,-156.3443 249.8453,-145.6843 243.906,-136.9102"/>
<polygon fill="#191970" stroke="#191970" points="246.7832,-134.917 238.2791,-128.5978 240.9865,-138.841 246.7832,-134.917"/>
</g>
<!-- Node7 -->
<g id="node8" class="node">
<title>Node7</title>
<g id="a_node8"><a xlink:title=" ">
<polygon fill="#ffffff" stroke="#bfbfbf" points="290.1699,-110.5 290.1699,-128.5 350.0713,-128.5 350.0713,-110.5 290.1699,-110.5"/>
<text text-anchor="middle" x="320.1206" y="-116.5" font-family="Helvetica,sans-Serif" font-size="10.00" fill="#000000">sys/ioctl.h</text>
</a>
</g>
</g>
<!-- Node0&#45;&gt;Node7 -->
<g id="edge7" class="edge">
<title>Node0&#45;&gt;Node7</title>
<path fill="none" stroke="#191970" d="M289.0841,-165.3494C295.1798,-156.3443 302.3959,-145.6843 308.3352,-136.9102"/>
<polygon fill="#191970" stroke="#191970" points="311.2547,-138.841 313.9621,-128.5978 305.458,-134.917 311.2547,-138.841"/>
</g>
<!-- Node8 -->
<g id="node9" class="node">
<title>Node8</title>
<g id="a_node9"><a xlink:title=" ">
<polygon fill="#ffffff" stroke="#bfbfbf" points="367.7808,-110.5 367.7808,-128.5 410.4604,-128.5 410.4604,-110.5 367.7808,-110.5"/>
<text text-anchor="middle" x="389.1206" y="-116.5" font-family="Helvetica,sans-Serif" font-size="10.00" fill="#000000">fcntl.h</text>
</a>
</g>
</g>
<!-- Node0&#45;&gt;Node8 -->
<g id="edge8" class="edge">
<title>Node0&#45;&gt;Node8</title>
<path fill="none" stroke="#191970" d="M309.4132,-165.3494C327.0456,-155.2069 348.3279,-142.9648 364.4645,-133.6827"/>
<polygon fill="#191970" stroke="#191970" points="366.3813,-136.6179 373.3043,-128.5978 362.8909,-130.5502 366.3813,-136.6179"/>
</g>
<!-- Node9 -->
<g id="node10" class="node">
<title>Node9</title>
<g id="a_node10"><a xlink:title=" ">
<polygon fill="#ffffff" stroke="#bfbfbf" points="428.6084,-110.5 428.6084,-128.5 479.6328,-128.5 479.6328,-110.5 428.6084,-110.5"/>
<text text-anchor="middle" x="454.1206" y="-116.5" font-family="Helvetica,sans-Serif" font-size="10.00" fill="#000000">unistd.h</text>
</a>
</g>
</g>
<!-- Node0&#45;&gt;Node9 -->
<g id="edge9" class="edge">
<title>Node0&#45;&gt;Node9</title>
<path fill="none" stroke="#191970" d="M328.5637,-165.3494C357.8962,-154.6381 393.6409,-141.5853 419.4789,-132.1501"/>
<polygon fill="#191970" stroke="#191970" points="421.0138,-135.3157 429.2065,-128.5978 418.6126,-128.7404 421.0138,-135.3157"/>
</g>
<!-- Node2 -->
<g id="node3" class="node">
<title>Node2</title>
<g id="a_node3"><a xlink:title=" ">
<polygon fill="#ffffff" stroke="#bfbfbf" points="0,-55.5 0,-73.5 48.2412,-73.5 48.2412,-55.5 0,-55.5"/>
<text text-anchor="middle" x="24.1206" y="-61.5" font-family="Helvetica,sans-Serif" font-size="10.00" fill="#000000">stdint.h</text>
</a>
</g>
</g>
<!-- Node1&#45;&gt;Node2 -->
<g id="edge2" class="edge">
<title>Node1&#45;&gt;Node2</title>
<path fill="none" stroke="#191970" d="M60.02,-110.4179C53.9567,-102.6624 45.0655,-91.29 37.6488,-81.8035"/>
<polygon fill="#191970" stroke="#191970" points="40.292,-79.5018 31.3755,-73.7795 34.7774,-83.8133 40.292,-79.5018"/>
</g>
<!-- Node3 -->
<g id="node4" class="node">
<title>Node3</title>
<g id="a_node4"><a xlink:href="_m_c_p3428_2_i2_cdev_2_i2_cdev_8h.html" target="_top" xlink:title=" ">
<polygon fill="#ffffff" stroke="#000000" points="66.2456,-55.5 66.2456,-73.5 155.9956,-73.5 155.9956,-55.5 66.2456,-55.5"/>
<text text-anchor="middle" x="111.1206" y="-61.5" font-family="Helvetica,sans-Serif" font-size="10.00" fill="#000000">I2Cdev/I2Cdev.h</text>
</a>
</g>
</g>
<!-- Node1&#45;&gt;Node3 -->
<g id="edge3" class="edge">
<title>Node1&#45;&gt;Node3</title>
<path fill="none" stroke="#191970" d="M74.3863,-110.4179C80.5907,-102.6624 89.6886,-91.29 97.2778,-81.8035"/>
<polygon fill="#191970" stroke="#191970" points="100.1831,-83.7746 103.697,-73.7795 94.717,-79.4017 100.1831,-83.7746"/>
</g>
<!-- Node4 -->
<g id="node5" class="node">
<title>Node4</title>
<g id="a_node5"><a xlink:title=" ">
<polygon fill="#ffffff" stroke="#bfbfbf" points="87.2783,-.5 87.2783,-18.5 134.9629,-18.5 134.9629,-.5 87.2783,-.5"/>
<text text-anchor="middle" x="111.1206" y="-6.5" font-family="Helvetica,sans-Serif" font-size="10.00" fill="#000000">stdlib.h</text>
</a>
</g>
</g>
<!-- Node3&#45;&gt;Node4 -->
<g id="edge4" class="edge">
<title>Node3&#45;&gt;Node4</title>
<path fill="none" stroke="#191970" d="M111.1206,-55.4179C111.1206,-48.2164 111.1206,-37.8962 111.1206,-28.8632"/>
<polygon fill="#191970" stroke="#191970" points="114.6207,-28.7794 111.1206,-18.7795 107.6207,-28.7795 114.6207,-28.7794"/>
</g>
</g>
</svg>
