<?xml version="1.0" encoding="UTF-8" standalone="no"?>
<!DOCTYPE svg PUBLIC "-//W3C//DTD SVG 1.1//EN"
 "http://www.w3.org/Graphics/SVG/1.1/DTD/svg11.dtd">
<!-- Generated by graphviz version 2.40.1 (20161225.0304)
 -->
<!-- Title: code/MCP3428/MCP3428.h Pages: 1 -->
<svg width="167pt" height="137pt"
 viewBox="0.00 0.00 167.13 137.00" xmlns="http://www.w3.org/2000/svg" xmlns:xlink="http://www.w3.org/1999/xlink">
<g id="graph0" class="graph" transform="scale(1 1) rotate(0) translate(4 133)">
<title>code/MCP3428/MCP3428.h</title>
<polygon fill="#ffffff" stroke="transparent" points="-4,4 -4,-133 163.1333,-133 163.1333,4 -4,4"/>
<!-- Node0 -->
<g id="node1" class="node">
<title>Node0</title>
<g id="a_node1"><a xlink:title=" ">
<polygon fill="#bfbfbf" stroke="#000000" points="0,-110.5 0,-128.5 140.5166,-128.5 140.5166,-110.5 0,-110.5"/>
<text text-anchor="middle" x="70.2583" y="-116.5" font-family="Helvetica,sans-Serif" font-size="10.00" fill="#000000">code/MCP3428/MCP3428.h</text>
</a>
</g>
</g>
<!-- Node1 -->
<g id="node2" class="node">
<title>Node1</title>
<g id="a_node2"><a xlink:title=" ">
<polygon fill="#ffffff" stroke="#bfbfbf" points="3.1377,-55.5 3.1377,-73.5 51.3789,-73.5 51.3789,-55.5 3.1377,-55.5"/>
<text text-anchor="middle" x="27.2583" y="-61.5" font-family="Helvetica,sans-Serif" font-size="10.00" fill="#000000">stdint.h</text>
</a>
</g>
</g>
<!-- Node0&#45;&gt;Node1 -->
<g id="edge1" class="edge">
<title>Node0&#45;&gt;Node1</title>
<path fill="none" stroke="#191970" d="M63.1577,-110.4179C57.0944,-102.6624 48.2032,-91.29 40.7865,-81.8035"/>
<polygon fill="#191970" stroke="#191970" points="43.4297,-79.5018 34.5131,-73.7795 37.9151,-83.8133 43.4297,-79.5018"/>
</g>
<!-- Node2 -->
<g id="node3" class="node">
<title>Node2</title>
<g id="a_node3"><a xlink:href="_m_c_p3428_2_i2_cdev_2_i2_cdev_8h.html" target="_top" xlink:title=" ">
<polygon fill="#ffffff" stroke="#000000" points="69.3833,-55.5 69.3833,-73.5 159.1333,-73.5 159.1333,-55.5 69.3833,-55.5"/>
<text text-anchor="middle" x="114.2583" y="-61.5" font-family="Helvetica,sans-Serif" font-size="10.00" fill="#000000">I2Cdev/I2Cdev.h</text>
</a>
</g>
</g>
<!-- Node0&#45;&gt;Node2 -->
<g id="edge2" class="edge">
<title>Node0&#45;&gt;Node2</title>
<path fill="none" stroke="#191970" d="M77.524,-110.4179C83.7284,-102.6624 92.8263,-91.29 100.4155,-81.8035"/>
<polygon fill="#191970" stroke="#191970" points="103.3208,-83.7746 106.8347,-73.7795 97.8547,-79.4017 103.3208,-83.7746"/>
</g>
<!-- Node3 -->
<g id="node4" class="node">
<title>Node3</title>
<g id="a_node4"><a xlink:title=" ">
<polygon fill="#ffffff" stroke="#bfbfbf" points="90.416,-.5 90.416,-18.5 138.1006,-18.5 138.1006,-.5 90.416,-.5"/>
<text text-anchor="middle" x="114.2583" y="-6.5" font-family="Helvetica,sans-Serif" font-size="10.00" fill="#000000">stdlib.h</text>
</a>
</g>
</g>
<!-- Node2&#45;&gt;Node3 -->
<g id="edge3" class="edge">
<title>Node2&#45;&gt;Node3</title>
<path fill="none" stroke="#191970" d="M114.2583,-55.4179C114.2583,-48.2164 114.2583,-37.8962 114.2583,-28.8632"/>
<polygon fill="#191970" stroke="#191970" points="117.7584,-28.7794 114.2583,-18.7795 110.7584,-28.7795 117.7584,-28.7794"/>
</g>
</g>
</svg>
