<?xml version="1.0" encoding="UTF-8" standalone="no"?>
<!DOCTYPE svg PUBLIC "-//W3C//DTD SVG 1.1//EN"
 "http://www.w3.org/Graphics/SVG/1.1/DTD/svg11.dtd">
<!-- Generated by graphviz version 2.40.1 (20161225.0304)
 -->
<!-- Title: code/MPU6050/MPU6050.cpp Pages: 1 -->
<svg width="382pt" height="192pt"
 viewBox="0.00 0.00 382.14 192.00" xmlns="http://www.w3.org/2000/svg" xmlns:xlink="http://www.w3.org/1999/xlink">
<g id="graph0" class="graph" transform="scale(1 1) rotate(0) translate(4 188)">
<title>code/MPU6050/MPU6050.cpp</title>
<polygon fill="#ffffff" stroke="transparent" points="-4,4 -4,-188 378.1353,-188 378.1353,4 -4,4"/>
<!-- Node0 -->
<g id="node1" class="node">
<title>Node0</title>
<g id="a_node1"><a xlink:title=" ">
<polygon fill="#bfbfbf" stroke="#000000" points="86.1924,-165.5 86.1924,-183.5 237.2705,-183.5 237.2705,-165.5 86.1924,-165.5"/>
<text text-anchor="middle" x="161.7314" y="-171.5" font-family="Helvetica,sans-Serif" font-size="10.00" fill="#000000">code/MPU6050/MPU6050.cpp</text>
</a>
</g>
</g>
<!-- Node1 -->
<g id="node2" class="node">
<title>Node1</title>
<g id="a_node2"><a xlink:title=" ">
<polygon fill="#ffffff" stroke="#bfbfbf" points="0,-110.5 0,-128.5 45.4629,-128.5 45.4629,-110.5 0,-110.5"/>
<text text-anchor="middle" x="22.7314" y="-116.5" font-family="Helvetica,sans-Serif" font-size="10.00" fill="#000000">stdio.h</text>
</a>
</g>
</g>
<!-- Node0&#45;&gt;Node1 -->
<g id="edge1" class="edge">
<title>Node0&#45;&gt;Node1</title>
<path fill="none" stroke="#191970" d="M138.7784,-165.4179C115.9415,-156.3817 80.6951,-142.4353 55.037,-132.2828"/>
<polygon fill="#191970" stroke="#191970" points="56.3049,-129.0205 45.7186,-128.5956 53.7293,-135.5295 56.3049,-129.0205"/>
</g>
<!-- Node2 -->
<g id="node3" class="node">
<title>Node2</title>
<g id="a_node3"><a xlink:title=" ">
<polygon fill="#ffffff" stroke="#bfbfbf" points="85.8892,-.5 85.8892,-18.5 133.5737,-18.5 133.5737,-.5 85.8892,-.5"/>
<text text-anchor="middle" x="109.7314" y="-6.5" font-family="Helvetica,sans-Serif" font-size="10.00" fill="#000000">stdlib.h</text>
</a>
</g>
</g>
<!-- Node0&#45;&gt;Node2 -->
<g id="edge2" class="edge">
<title>Node0&#45;&gt;Node2</title>
<path fill="none" stroke="#191970" d="M136.9054,-165.3658C121.1568,-158.1227 102.051,-146.3089 92.7314,-129 75.2592,-96.5495 89.818,-52.2845 100.6431,-27.7546"/>
<polygon fill="#191970" stroke="#191970" points="103.8854,-29.0833 104.9495,-18.542 97.544,-26.119 103.8854,-29.0833"/>
</g>
<!-- Node3 -->
<g id="node4" class="node">
<title>Node3</title>
<g id="a_node4"><a xlink:title=" ">
<polygon fill="#ffffff" stroke="#bfbfbf" points="102.2192,-110.5 102.2192,-128.5 153.2437,-128.5 153.2437,-110.5 102.2192,-110.5"/>
<text text-anchor="middle" x="127.7314" y="-116.5" font-family="Helvetica,sans-Serif" font-size="10.00" fill="#000000">unistd.h</text>
</a>
</g>
</g>
<!-- Node0&#45;&gt;Node3 -->
<g id="edge3" class="edge">
<title>Node0&#45;&gt;Node3</title>
<path fill="none" stroke="#191970" d="M156.117,-165.4179C151.4206,-157.8207 144.5786,-146.7527 138.7886,-137.3866"/>
<polygon fill="#191970" stroke="#191970" points="141.7032,-135.445 133.4678,-128.7795 135.749,-139.1258 141.7032,-135.445"/>
</g>
<!-- Node4 -->
<g id="node5" class="node">
<title>Node4</title>
<g id="a_node5"><a xlink:title=" ">
<polygon fill="#ffffff" stroke="#bfbfbf" points="171.335,-110.5 171.335,-128.5 220.1279,-128.5 220.1279,-110.5 171.335,-110.5"/>
<text text-anchor="middle" x="195.7314" y="-116.5" font-family="Helvetica,sans-Serif" font-size="10.00" fill="#000000">string.h</text>
</a>
</g>
</g>
<!-- Node0&#45;&gt;Node4 -->
<g id="edge4" class="edge">
<title>Node0&#45;&gt;Node4</title>
<path fill="none" stroke="#191970" d="M167.3459,-165.4179C172.0423,-157.8207 178.8843,-146.7527 184.6743,-137.3866"/>
<polygon fill="#191970" stroke="#191970" points="187.7139,-139.1258 189.9951,-128.7795 181.7597,-135.445 187.7139,-139.1258"/>
</g>
<!-- Node5 -->
<g id="node6" class="node">
<title>Node5</title>
<g id="a_node6"><a xlink:title=" ">
<polygon fill="#ffffff" stroke="#bfbfbf" points="238.6108,-110.5 238.6108,-128.5 286.8521,-128.5 286.8521,-110.5 238.6108,-110.5"/>
<text text-anchor="middle" x="262.7314" y="-116.5" font-family="Helvetica,sans-Serif" font-size="10.00" fill="#000000">stdint.h</text>
</a>
</g>
</g>
<!-- Node0&#45;&gt;Node5 -->
<g id="edge5" class="edge">
<title>Node0&#45;&gt;Node5</title>
<path fill="none" stroke="#191970" d="M178.4095,-165.4179C194.3454,-156.7399 218.5973,-143.5334 237.0082,-133.5077"/>
<polygon fill="#191970" stroke="#191970" points="238.9202,-136.4519 246.0286,-128.5956 235.5724,-130.3043 238.9202,-136.4519"/>
</g>
<!-- Node6 -->
<g id="node7" class="node">
<title>Node6</title>
<g id="a_node7"><a xlink:href="_m_p_u6050_8h.html" target="_top" xlink:title=" ">
<polygon fill="#ffffff" stroke="#000000" points="305.3276,-110.5 305.3276,-128.5 374.1353,-128.5 374.1353,-110.5 305.3276,-110.5"/>
<text text-anchor="middle" x="339.7314" y="-116.5" font-family="Helvetica,sans-Serif" font-size="10.00" fill="#000000">MPU6050.h</text>
</a>
</g>
</g>
<!-- Node0&#45;&gt;Node6 -->
<g id="edge6" class="edge">
<title>Node0&#45;&gt;Node6</title>
<path fill="none" stroke="#191970" d="M191.1245,-165.4179C221.1026,-156.155 267.7791,-141.7325 300.8109,-131.526"/>
<polygon fill="#191970" stroke="#191970" points="302.0695,-134.8005 310.5905,-128.5042 300.003,-128.1124 302.0695,-134.8005"/>
</g>
<!-- Node7 -->
<g id="node8" class="node">
<title>Node7</title>
<g id="a_node8"><a xlink:href="_m_p_u6050_2_i2_cdev_2_i2_cdev_8h.html" target="_top" xlink:title=" ">
<polygon fill="#ffffff" stroke="#000000" points="197.8564,-55.5 197.8564,-73.5 287.6064,-73.5 287.6064,-55.5 197.8564,-55.5"/>
<text text-anchor="middle" x="242.7314" y="-61.5" font-family="Helvetica,sans-Serif" font-size="10.00" fill="#000000">I2Cdev/I2Cdev.h</text>
</a>
</g>
</g>
<!-- Node6&#45;&gt;Node7 -->
<g id="edge7" class="edge">
<title>Node6&#45;&gt;Node7</title>
<path fill="none" stroke="#191970" d="M323.7139,-110.4179C308.5495,-101.8195 285.5444,-88.7754 267.924,-78.7844"/>
<polygon fill="#191970" stroke="#191970" points="269.1981,-75.4834 258.7728,-73.5956 265.7454,-81.5727 269.1981,-75.4834"/>
</g>
<!-- Node7&#45;&gt;Node2 -->
<g id="edge8" class="edge">
<title>Node7&#45;&gt;Node2</title>
<path fill="none" stroke="#191970" d="M220.7692,-55.4179C199.0143,-46.4215 165.49,-32.5581 140.9675,-22.4172"/>
<polygon fill="#191970" stroke="#191970" points="142.3049,-19.1828 131.7263,-18.5956 139.6298,-25.6515 142.3049,-19.1828"/>
</g>
</g>
</svg>
