<?xml version="1.0" encoding="UTF-8" standalone="no"?>
<!DOCTYPE svg PUBLIC "-//W3C//DTD SVG 1.1//EN"
 "http://www.w3.org/Graphics/SVG/1.1/DTD/svg11.dtd">
<!-- Generated by graphviz version 2.40.1 (20161225.0304)
 -->
<!-- Title: /Users/jamielee/Desktop/uni stuff/RTE5/ENG5220/code/MPU6050/I2Cdev/I2Cdev.h Pages: 1 -->
<svg width="183pt" height="122pt"
 viewBox="0.00 0.00 182.80 122.00" xmlns="http://www.w3.org/2000/svg" xmlns:xlink="http://www.w3.org/1999/xlink">
<g id="graph0" class="graph" transform="scale(1 1) rotate(0) translate(4 118)">
<title>/Users/jamielee/Desktop/uni stuff/RTE5/ENG5220/code/MPU6050/I2Cdev/I2Cdev.h</title>
<polygon fill="#ffffff" stroke="transparent" points="-4,4 -4,-118 178.7988,-118 178.7988,4 -4,4"/>
<!-- Node2 -->
<g id="node1" class="node">
<title>Node2</title>
<g id="a_node1"><a xlink:title=" ">
<polygon fill="#bfbfbf" stroke="#000000" points="5.2808,-75.5 5.2808,-113.5 169.5181,-113.5 169.5181,-75.5 5.2808,-75.5"/>
<text text-anchor="start" x="13.2808" y="-101.5" font-family="Helvetica,sans-Serif" font-size="10.00" fill="#000000">/Users/jamielee/Desktop</text>
<text text-anchor="start" x="13.2808" y="-91.5" font-family="Helvetica,sans-Serif" font-size="10.00" fill="#000000">/uni stuff/RTE5/ENG5220</text>
<text text-anchor="middle" x="87.3994" y="-81.5" font-family="Helvetica,sans-Serif" font-size="10.00" fill="#000000">/code/MPU6050/I2Cdev/I2Cdev.h</text>
</a>
</g>
</g>
<!-- Node3 -->
<g id="node2" class="node">
<title>Node3</title>
<g id="a_node2"><a xlink:href="_m_p_u6050_2_i2_cdev_2_i2_cdev_8cpp.html" target="_top" xlink:title=" ">
<polygon fill="#ffffff" stroke="#000000" points="0,-.5 0,-38.5 174.7988,-38.5 174.7988,-.5 0,-.5"/>
<text text-anchor="start" x="8" y="-26.5" font-family="Helvetica,sans-Serif" font-size="10.00" fill="#000000">/Users/jamielee/Desktop</text>
<text text-anchor="start" x="8" y="-16.5" font-family="Helvetica,sans-Serif" font-size="10.00" fill="#000000">/uni stuff/RTE5/ENG5220</text>
<text text-anchor="middle" x="87.3994" y="-6.5" font-family="Helvetica,sans-Serif" font-size="10.00" fill="#000000">/code/MPU6050/I2Cdev/I2Cdev.cpp</text>
</a>
</g>
</g>
<!-- Node2&#45;&gt;Node3 -->
<g id="edge1" class="edge">
<title>Node2&#45;&gt;Node3</title>
<path fill="none" stroke="#191970" d="M87.3994,-64.8977C87.3994,-56.1033 87.3994,-46.7019 87.3994,-38.7489"/>
<polygon fill="#191970" stroke="#191970" points="83.8995,-65.1856 87.3994,-75.1856 90.8995,-65.1857 83.8995,-65.1856"/>
</g>
</g>
</svg>
