<?xml version="1.0" encoding="UTF-8" standalone="no"?>
<!DOCTYPE svg PUBLIC "-//W3C//DTD SVG 1.1//EN"
 "http://www.w3.org/Graphics/SVG/1.1/DTD/svg11.dtd">
<!-- Generated by graphviz version 2.40.1 (20161225.0304)
 -->
<!-- Title: code/MPU6050/MPU6050.h Pages: 1 -->
<svg width="149pt" height="137pt"
 viewBox="0.00 0.00 148.52 137.00" xmlns="http://www.w3.org/2000/svg" xmlns:xlink="http://www.w3.org/1999/xlink">
<g id="graph0" class="graph" transform="scale(1 1) rotate(0) translate(4 133)">
<title>code/MPU6050/MPU6050.h</title>
<polygon fill="#ffffff" stroke="transparent" points="-4,4 -4,-133 144.5166,-133 144.5166,4 -4,4"/>
<!-- Node0 -->
<g id="node1" class="node">
<title>Node0</title>
<g id="a_node1"><a xlink:title=" ">
<polygon fill="#bfbfbf" stroke="#000000" points="0,-110.5 0,-128.5 140.5166,-128.5 140.5166,-110.5 0,-110.5"/>
<text text-anchor="middle" x="70.2583" y="-116.5" font-family="Helvetica,sans-Serif" font-size="10.00" fill="#000000">code/MPU6050/MPU6050.h</text>
</a>
</g>
</g>
<!-- Node1 -->
<g id="node2" class="node">
<title>Node1</title>
<g id="a_node2"><a xlink:href="_m_p_u6050_2_i2_cdev_2_i2_cdev_8h.html" target="_top" xlink:title=" ">
<polygon fill="#ffffff" stroke="#000000" points="25.3833,-55.5 25.3833,-73.5 115.1333,-73.5 115.1333,-55.5 25.3833,-55.5"/>
<text text-anchor="middle" x="70.2583" y="-61.5" font-family="Helvetica,sans-Serif" font-size="10.00" fill="#000000">I2Cdev/I2Cdev.h</text>
</a>
</g>
</g>
<!-- Node0&#45;&gt;Node1 -->
<g id="edge1" class="edge">
<title>Node0&#45;&gt;Node1</title>
<path fill="none" stroke="#191970" d="M70.2583,-110.4179C70.2583,-103.2164 70.2583,-92.8962 70.2583,-83.8632"/>
<polygon fill="#191970" stroke="#191970" points="73.7584,-83.7794 70.2583,-73.7795 66.7584,-83.7795 73.7584,-83.7794"/>
</g>
<!-- Node2 -->
<g id="node3" class="node">
<title>Node2</title>
<g id="a_node3"><a xlink:title=" ">
<polygon fill="#ffffff" stroke="#bfbfbf" points="46.416,-.5 46.416,-18.5 94.1006,-18.5 94.1006,-.5 46.416,-.5"/>
<text text-anchor="middle" x="70.2583" y="-6.5" font-family="Helvetica,sans-Serif" font-size="10.00" fill="#000000">stdlib.h</text>
</a>
</g>
</g>
<!-- Node1&#45;&gt;Node2 -->
<g id="edge2" class="edge">
<title>Node1&#45;&gt;Node2</title>
<path fill="none" stroke="#191970" d="M70.2583,-55.4179C70.2583,-48.2164 70.2583,-37.8962 70.2583,-28.8632"/>
<polygon fill="#191970" stroke="#191970" points="73.7584,-28.7794 70.2583,-18.7795 66.7584,-28.7795 73.7584,-28.7794"/>
</g>
</g>
</svg>
