<?xml version="1.0" encoding="UTF-8" standalone="no"?>
<!DOCTYPE svg PUBLIC "-//W3C//DTD SVG 1.1//EN"
 "http://www.w3.org/Graphics/SVG/1.1/DTD/svg11.dtd">
<!-- Generated by graphviz version 2.40.1 (20161225.0304)
 -->
<!-- Title: /Users/jamielee/Desktop/uni stuff/RTE5/ENG5220/code/MPU6050/MPU6050.cpp Pages: 1 -->
<svg width="382pt" height="212pt"
 viewBox="0.00 0.00 382.14 212.00" xmlns="http://www.w3.org/2000/svg" xmlns:xlink="http://www.w3.org/1999/xlink">
<g id="graph0" class="graph" transform="scale(1 1) rotate(0) translate(4 208)">
<title>/Users/jamielee/Desktop/uni stuff/RTE5/ENG5220/code/MPU6050/MPU6050.cpp</title>
<polygon fill="#ffffff" stroke="transparent" points="-4,4 -4,-208 378.1353,-208 378.1353,4 -4,4"/>
<!-- Node0 -->
<g id="node1" class="node">
<title>Node0</title>
<g id="a_node1"><a xlink:title=" ">
<polygon fill="#bfbfbf" stroke="#000000" points="84.8032,-165.5 84.8032,-203.5 238.6597,-203.5 238.6597,-165.5 84.8032,-165.5"/>
<text text-anchor="start" x="92.8032" y="-191.5" font-family="Helvetica,sans-Serif" font-size="10.00" fill="#000000">/Users/jamielee/Desktop</text>
<text text-anchor="start" x="92.8032" y="-181.5" font-family="Helvetica,sans-Serif" font-size="10.00" fill="#000000">/uni stuff/RTE5/ENG5220</text>
<text text-anchor="middle" x="161.7314" y="-171.5" font-family="Helvetica,sans-Serif" font-size="10.00" fill="#000000">/code/MPU6050/MPU6050.cpp</text>
</a>
</g>
</g>
<!-- Node1 -->
<g id="node2" class="node">
<title>Node1</title>
<g id="a_node2"><a xlink:title=" ">
<polygon fill="#ffffff" stroke="#bfbfbf" points="0,-110.5 0,-128.5 45.4629,-128.5 45.4629,-110.5 0,-110.5"/>
<text text-anchor="middle" x="22.7314" y="-116.5" font-family="Helvetica,sans-Serif" font-size="10.00" fill="#000000">stdio.h</text>
</a>
</g>
</g>
<!-- Node0&#45;&gt;Node1 -->
<g id="edge1" class="edge">
<title>Node0&#45;&gt;Node1</title>
<path fill="none" stroke="#191970" d="M120.7787,-165.3494C98.4811,-154.9225 71.4385,-142.2767 51.4062,-132.9091"/>
<polygon fill="#191970" stroke="#191970" points="52.728,-129.6634 42.1868,-128.5978 49.7627,-136.0044 52.728,-129.6634"/>
</g>
<!-- Node2 -->
<g id="node3" class="node">
<title>Node2</title>
<g id="a_node3"><a xlink:title=" ">
<polygon fill="#ffffff" stroke="#bfbfbf" points="99.8892,-.5 99.8892,-18.5 147.5737,-18.5 147.5737,-.5 99.8892,-.5"/>
<text text-anchor="middle" x="123.7314" y="-6.5" font-family="Helvetica,sans-Serif" font-size="10.00" fill="#000000">stdlib.h</text>
</a>
</g>
</g>
<!-- Node0&#45;&gt;Node2 -->
<g id="edge2" class="edge">
<title>Node0&#45;&gt;Node2</title>
<path fill="none" stroke="#191970" d="M126.4031,-165.3133C113.3052,-156.1916 99.904,-143.9741 92.7314,-129 76.4557,-95.0213 97.1472,-51.3631 111.7129,-27.3386"/>
<polygon fill="#191970" stroke="#191970" points="114.8559,-28.9189 117.2719,-18.6032 108.9502,-25.1607 114.8559,-28.9189"/>
</g>
<!-- Node3 -->
<g id="node4" class="node">
<title>Node3</title>
<g id="a_node4"><a xlink:title=" ">
<polygon fill="#ffffff" stroke="#bfbfbf" points="102.2192,-110.5 102.2192,-128.5 153.2437,-128.5 153.2437,-110.5 102.2192,-110.5"/>
<text text-anchor="middle" x="127.7314" y="-116.5" font-family="Helvetica,sans-Serif" font-size="10.00" fill="#000000">unistd.h</text>
</a>
</g>
</g>
<!-- Node0&#45;&gt;Node3 -->
<g id="edge3" class="edge">
<title>Node0&#45;&gt;Node3</title>
<path fill="none" stroke="#191970" d="M151.7142,-165.3494C147.103,-156.5339 141.6622,-146.1324 137.1295,-137.4668"/>
<polygon fill="#191970" stroke="#191970" points="140.2267,-135.8366 132.4903,-128.5978 134.024,-139.0811 140.2267,-135.8366"/>
</g>
<!-- Node4 -->
<g id="node5" class="node">
<title>Node4</title>
<g id="a_node5"><a xlink:title=" ">
<polygon fill="#ffffff" stroke="#bfbfbf" points="171.335,-110.5 171.335,-128.5 220.1279,-128.5 220.1279,-110.5 171.335,-110.5"/>
<text text-anchor="middle" x="195.7314" y="-116.5" font-family="Helvetica,sans-Serif" font-size="10.00" fill="#000000">string.h</text>
</a>
</g>
</g>
<!-- Node0&#45;&gt;Node4 -->
<g id="edge4" class="edge">
<title>Node0&#45;&gt;Node4</title>
<path fill="none" stroke="#191970" d="M171.7487,-165.3494C176.3599,-156.5339 181.8007,-146.1324 186.3334,-137.4668"/>
<polygon fill="#191970" stroke="#191970" points="189.4389,-139.0811 190.9726,-128.5978 183.2362,-135.8366 189.4389,-139.0811"/>
</g>
<!-- Node5 -->
<g id="node6" class="node">
<title>Node5</title>
<g id="a_node6"><a xlink:title=" ">
<polygon fill="#ffffff" stroke="#bfbfbf" points="238.6108,-110.5 238.6108,-128.5 286.8521,-128.5 286.8521,-110.5 238.6108,-110.5"/>
<text text-anchor="middle" x="262.7314" y="-116.5" font-family="Helvetica,sans-Serif" font-size="10.00" fill="#000000">stdint.h</text>
</a>
</g>
</g>
<!-- Node0&#45;&gt;Node5 -->
<g id="edge5" class="edge">
<title>Node0&#45;&gt;Node5</title>
<path fill="none" stroke="#191970" d="M191.4885,-165.3494C206.9539,-155.3964 225.5608,-143.4217 239.8802,-134.2063"/>
<polygon fill="#191970" stroke="#191970" points="242.0798,-136.9529 248.5948,-128.5978 238.2916,-131.0665 242.0798,-136.9529"/>
</g>
<!-- Node6 -->
<g id="node7" class="node">
<title>Node6</title>
<g id="a_node7"><a xlink:href="_m_p_u6050_8h.html" target="_top" xlink:title=" ">
<polygon fill="#ffffff" stroke="#000000" points="305.3276,-110.5 305.3276,-128.5 374.1353,-128.5 374.1353,-110.5 305.3276,-110.5"/>
<text text-anchor="middle" x="339.7314" y="-116.5" font-family="Helvetica,sans-Serif" font-size="10.00" fill="#000000">MPU6050.h</text>
</a>
</g>
</g>
<!-- Node0&#45;&gt;Node6 -->
<g id="edge6" class="edge">
<title>Node0&#45;&gt;Node6</title>
<path fill="none" stroke="#191970" d="M214.1746,-165.3494C243.5071,-154.6381 279.2518,-141.5853 305.0898,-132.1501"/>
<polygon fill="#191970" stroke="#191970" points="306.6246,-135.3157 314.8173,-128.5978 304.2235,-128.7404 306.6246,-135.3157"/>
</g>
<!-- Node7 -->
<g id="node8" class="node">
<title>Node7</title>
<g id="a_node8"><a xlink:href="_m_c_p3428_2_i2_cdev_2_i2_cdev_8h.html" target="_top" xlink:title=" ">
<polygon fill="#ffffff" stroke="#000000" points="184.0659,-55.5 184.0659,-73.5 329.397,-73.5 329.397,-55.5 184.0659,-55.5"/>
<text text-anchor="middle" x="256.7314" y="-61.5" font-family="Helvetica,sans-Serif" font-size="10.00" fill="#000000">../MCP3428/I2Cdev/I2Cdev.h</text>
</a>
</g>
</g>
<!-- Node6&#45;&gt;Node7 -->
<g id="edge7" class="edge">
<title>Node6&#45;&gt;Node7</title>
<path fill="none" stroke="#191970" d="M326.0257,-110.4179C313.2903,-101.9788 294.092,-89.257 279.1302,-79.3426"/>
<polygon fill="#191970" stroke="#191970" points="280.7269,-76.2019 270.4576,-73.5956 276.8602,-82.037 280.7269,-76.2019"/>
</g>
<!-- Node7&#45;&gt;Node2 -->
<g id="edge8" class="edge">
<title>Node7&#45;&gt;Node2</title>
<path fill="none" stroke="#191970" d="M234.7692,-55.4179C213.0143,-46.4215 179.49,-32.5581 154.9675,-22.4172"/>
<polygon fill="#191970" stroke="#191970" points="156.3049,-19.1828 145.7263,-18.5956 153.6298,-25.6515 156.3049,-19.1828"/>
</g>
</g>
</svg>
