<?xml version="1.0" encoding="UTF-8" standalone="no"?>
<!DOCTYPE svg PUBLIC "-//W3C//DTD SVG 1.1//EN"
 "http://www.w3.org/Graphics/SVG/1.1/DTD/svg11.dtd">
<!-- Generated by graphviz version 2.40.1 (20161225.0304)
 -->
<!-- Title: code/MPU6050/I2Cdev/I2Cdev.h Pages: 1 -->
<svg width="421pt" height="277pt"
 viewBox="0.00 0.00 420.73 277.00" xmlns="http://www.w3.org/2000/svg" xmlns:xlink="http://www.w3.org/1999/xlink">
<g id="graph0" class="graph" transform="scale(1 1) rotate(0) translate(4 273)">
<title>code/MPU6050/I2Cdev/I2Cdev.h</title>
<polygon fill="#ffffff" stroke="transparent" points="-4,4 -4,-273 416.7285,-273 416.7285,4 -4,4"/>
<!-- Node2 -->
<g id="node1" class="node">
<title>Node2</title>
<g id="a_node1"><a xlink:title=" ">
<polygon fill="#bfbfbf" stroke="#000000" points="95.8423,-240.5 95.8423,-268.5 215.2358,-268.5 215.2358,-240.5 95.8423,-240.5"/>
<text text-anchor="start" x="103.8423" y="-256.5" font-family="Helvetica,sans-Serif" font-size="10.00" fill="#000000">code/MPU6050/I2Cdev</text>
<text text-anchor="middle" x="155.5391" y="-246.5" font-family="Helvetica,sans-Serif" font-size="10.00" fill="#000000">/I2Cdev.h</text>
</a>
</g>
</g>
<!-- Node3 -->
<g id="node2" class="node">
<title>Node3</title>
<g id="a_node2"><a xlink:href="_m_p_u6050_2_i2_cdev_2_i2_cdev_8cpp.html" target="_top" xlink:title=" ">
<polygon fill="#ffffff" stroke="#000000" points="21.8423,-175.5 21.8423,-203.5 141.2358,-203.5 141.2358,-175.5 21.8423,-175.5"/>
<text text-anchor="start" x="29.8423" y="-191.5" font-family="Helvetica,sans-Serif" font-size="10.00" fill="#000000">code/MPU6050/I2Cdev</text>
<text text-anchor="middle" x="81.5391" y="-181.5" font-family="Helvetica,sans-Serif" font-size="10.00" fill="#000000">/I2Cdev.cpp</text>
</a>
</g>
</g>
<!-- Node2&#45;&gt;Node3 -->
<g id="edge1" class="edge">
<title>Node2&#45;&gt;Node3</title>
<path fill="none" stroke="#191970" d="M131.7427,-233.5978C120.569,-223.7831 107.5463,-212.3442 97.5646,-203.5765"/>
<polygon fill="#191970" stroke="#191970" points="129.6592,-236.4261 139.4822,-240.396 134.2788,-231.1669 129.6592,-236.4261"/>
</g>
<!-- Node4 -->
<g id="node3" class="node">
<title>Node4</title>
<g id="a_node3"><a xlink:href="_m_p_u6050_8h.html" target="_top" xlink:title=" ">
<polygon fill="#ffffff" stroke="#000000" points="159.2808,-180.5 159.2808,-198.5 299.7974,-198.5 299.7974,-180.5 159.2808,-180.5"/>
<text text-anchor="middle" x="229.5391" y="-186.5" font-family="Helvetica,sans-Serif" font-size="10.00" fill="#000000">code/MPU6050/MPU6050.h</text>
</a>
</g>
</g>
<!-- Node2&#45;&gt;Node4 -->
<g id="edge2" class="edge">
<title>Node2&#45;&gt;Node4</title>
<path fill="none" stroke="#191970" d="M179.1573,-233.7543C192.649,-221.9034 208.8842,-207.6427 219.2083,-198.5743"/>
<polygon fill="#191970" stroke="#191970" points="176.7994,-231.1669 171.596,-240.396 181.419,-236.4261 176.7994,-231.1669"/>
</g>
<!-- Node5 -->
<g id="node4" class="node">
<title>Node5</title>
<g id="a_node4"><a xlink:href="_m_p_u6050_8cpp.html" target="_top" xlink:title=" ">
<polygon fill="#ffffff" stroke="#000000" points="0,-115.5 0,-133.5 151.0781,-133.5 151.0781,-115.5 0,-115.5"/>
<text text-anchor="middle" x="75.5391" y="-121.5" font-family="Helvetica,sans-Serif" font-size="10.00" fill="#000000">code/MPU6050/MPU6050.cpp</text>
</a>
</g>
</g>
<!-- Node4&#45;&gt;Node5 -->
<g id="edge3" class="edge">
<title>Node4&#45;&gt;Node5</title>
<path fill="none" stroke="#191970" d="M198.5503,-176.4203C168.5044,-163.7386 123.6989,-144.8272 97.2667,-133.6708"/>
<polygon fill="#191970" stroke="#191970" points="197.552,-179.7979 208.126,-180.462 200.2741,-173.3488 197.552,-179.7979"/>
</g>
<!-- Node6 -->
<g id="node5" class="node">
<title>Node6</title>
<g id="a_node5"><a xlink:href="_sample_timer_8h.html" target="_top" xlink:title=" ">
<polygon fill="#ffffff" stroke="#000000" points="169.1978,-115.5 169.1978,-133.5 289.8804,-133.5 289.8804,-115.5 169.1978,-115.5"/>
<text text-anchor="middle" x="229.5391" y="-121.5" font-family="Helvetica,sans-Serif" font-size="10.00" fill="#000000">code/Qt/SampleTimer.h</text>
</a>
</g>
</g>
<!-- Node4&#45;&gt;Node6 -->
<g id="edge4" class="edge">
<title>Node4&#45;&gt;Node6</title>
<path fill="none" stroke="#191970" d="M229.5391,-170.1265C229.5391,-158.1522 229.5391,-143.3205 229.5391,-133.8821"/>
<polygon fill="#191970" stroke="#191970" points="226.0392,-170.462 229.5391,-180.462 233.0392,-170.4621 226.0392,-170.462"/>
</g>
<!-- Node11 -->
<g id="node10" class="node">
<title>Node11</title>
<g id="a_node10"><a xlink:href="sampledata_8cpp.html" target="_top" xlink:title=" ">
<polygon fill="#ffffff" stroke="#000000" points="308.3496,-110.5 308.3496,-138.5 412.7285,-138.5 412.7285,-110.5 308.3496,-110.5"/>
<text text-anchor="start" x="316.3496" y="-126.5" font-family="Helvetica,sans-Serif" font-size="10.00" fill="#000000">testfiles/sampledata</text>
<text text-anchor="middle" x="360.5391" y="-116.5" font-family="Helvetica,sans-Serif" font-size="10.00" fill="#000000">/sampledata.cpp</text>
</a>
</g>
</g>
<!-- Node4&#45;&gt;Node11 -->
<g id="edge9" class="edge">
<title>Node4&#45;&gt;Node11</title>
<path fill="none" stroke="#191970" d="M256.8718,-175.938C278.8372,-165.0391 309.5976,-149.7763 331.9019,-138.7093"/>
<polygon fill="#191970" stroke="#191970" points="255.1563,-172.8819 247.7541,-180.462 258.2677,-179.1525 255.1563,-172.8819"/>
</g>
<!-- Node7 -->
<g id="node6" class="node">
<title>Node7</title>
<g id="a_node6"><a xlink:href="mainwindow_8h.html" target="_top" xlink:title=" ">
<polygon fill="#ffffff" stroke="#000000" points="100.2314,-55.5 100.2314,-73.5 216.8467,-73.5 216.8467,-55.5 100.2314,-55.5"/>
<text text-anchor="middle" x="158.5391" y="-61.5" font-family="Helvetica,sans-Serif" font-size="10.00" fill="#000000">code/Qt/mainwindow.h</text>
</a>
</g>
</g>
<!-- Node6&#45;&gt;Node7 -->
<g id="edge5" class="edge">
<title>Node6&#45;&gt;Node7</title>
<path fill="none" stroke="#191970" d="M210.773,-108.6414C197.5878,-97.4989 180.4091,-82.9817 169.4239,-73.6985"/>
<polygon fill="#191970" stroke="#191970" points="208.8586,-111.6059 218.7557,-115.3873 213.3768,-106.2594 208.8586,-111.6059"/>
</g>
<!-- Node10 -->
<g id="node9" class="node">
<title>Node10</title>
<g id="a_node9"><a xlink:href="_sample_timer_8cpp.html" target="_top" xlink:title=" ">
<polygon fill="#ffffff" stroke="#000000" points="234.917,-55.5 234.917,-73.5 366.1611,-73.5 366.1611,-55.5 234.917,-55.5"/>
<text text-anchor="middle" x="300.5391" y="-61.5" font-family="Helvetica,sans-Serif" font-size="10.00" fill="#000000">code/Qt/SampleTimer.cpp</text>
</a>
</g>
</g>
<!-- Node6&#45;&gt;Node10 -->
<g id="edge8" class="edge">
<title>Node6&#45;&gt;Node10</title>
<path fill="none" stroke="#191970" d="M248.3051,-108.6414C261.4903,-97.4989 278.669,-82.9817 289.6542,-73.6985"/>
<polygon fill="#191970" stroke="#191970" points="245.7013,-106.2594 240.3224,-115.3873 250.2195,-111.6059 245.7013,-106.2594"/>
</g>
<!-- Node8 -->
<g id="node7" class="node">
<title>Node8</title>
<g id="a_node7"><a xlink:href="_qt_2main_8cpp.html" target="_top" xlink:title=" ">
<polygon fill="#ffffff" stroke="#000000" points="47.3521,-.5 47.3521,-18.5 141.7261,-18.5 141.7261,-.5 47.3521,-.5"/>
<text text-anchor="middle" x="94.5391" y="-6.5" font-family="Helvetica,sans-Serif" font-size="10.00" fill="#000000">code/Qt/main.cpp</text>
</a>
</g>
</g>
<!-- Node7&#45;&gt;Node8 -->
<g id="edge6" class="edge">
<title>Node7&#45;&gt;Node8</title>
<path fill="none" stroke="#191970" d="M140.3488,-48.8678C129.0449,-39.1535 114.8962,-26.9944 105.337,-18.7795"/>
<polygon fill="#191970" stroke="#191970" points="138.1053,-51.5546 147.9708,-55.4179 142.6677,-46.2457 138.1053,-51.5546"/>
</g>
<!-- Node9 -->
<g id="node8" class="node">
<title>Node9</title>
<g id="a_node8"><a xlink:href="mainwindow_8cpp.html" target="_top" xlink:title=" ">
<polygon fill="#ffffff" stroke="#000000" points="159.9507,-.5 159.9507,-18.5 287.1274,-18.5 287.1274,-.5 159.9507,-.5"/>
<text text-anchor="middle" x="223.5391" y="-6.5" font-family="Helvetica,sans-Serif" font-size="10.00" fill="#000000">code/Qt/mainwindow.cpp</text>
</a>
</g>
</g>
<!-- Node7&#45;&gt;Node9 -->
<g id="edge7" class="edge">
<title>Node7&#45;&gt;Node9</title>
<path fill="none" stroke="#191970" d="M177.0135,-48.8678C188.494,-39.1535 202.8638,-26.9944 212.5724,-18.7795"/>
<polygon fill="#191970" stroke="#191970" points="174.6456,-46.2866 169.2725,-55.4179 179.1672,-51.6303 174.6456,-46.2866"/>
</g>
</g>
</svg>
