<?xml version="1.0" encoding="UTF-8" standalone="no"?>
<!DOCTYPE svg PUBLIC "-//W3C//DTD SVG 1.1//EN"
 "http://www.w3.org/Graphics/SVG/1.1/DTD/svg11.dtd">
<!-- Generated by graphviz version 2.40.1 (20161225.0304)
 -->
<!-- Title: /Users/jamielee/Desktop/uni stuff/RTE5/ENG5220/code/MPU6050/I2Cdev/I2Cdev.h Pages: 1 -->
<svg width="172pt" height="102pt"
 viewBox="0.00 0.00 172.24 102.00" xmlns="http://www.w3.org/2000/svg" xmlns:xlink="http://www.w3.org/1999/xlink">
<g id="graph0" class="graph" transform="scale(1 1) rotate(0) translate(4 98)">
<title>/Users/jamielee/Desktop/uni stuff/RTE5/ENG5220/code/MPU6050/I2Cdev/I2Cdev.h</title>
<polygon fill="#ffffff" stroke="transparent" points="-4,4 -4,-98 168.2373,-98 168.2373,4 -4,4"/>
<!-- Node0 -->
<g id="node1" class="node">
<title>Node0</title>
<g id="a_node1"><a xlink:title=" ">
<polygon fill="#bfbfbf" stroke="#000000" points="0,-55.5 0,-93.5 164.2373,-93.5 164.2373,-55.5 0,-55.5"/>
<text text-anchor="start" x="8" y="-81.5" font-family="Helvetica,sans-Serif" font-size="10.00" fill="#000000">/Users/jamielee/Desktop</text>
<text text-anchor="start" x="8" y="-71.5" font-family="Helvetica,sans-Serif" font-size="10.00" fill="#000000">/uni stuff/RTE5/ENG5220</text>
<text text-anchor="middle" x="82.1187" y="-61.5" font-family="Helvetica,sans-Serif" font-size="10.00" fill="#000000">/code/MPU6050/I2Cdev/I2Cdev.h</text>
</a>
</g>
</g>
<!-- Node1 -->
<g id="node2" class="node">
<title>Node1</title>
<g id="a_node2"><a xlink:title=" ">
<polygon fill="#ffffff" stroke="#bfbfbf" points="58.2764,-.5 58.2764,-18.5 105.9609,-18.5 105.9609,-.5 58.2764,-.5"/>
<text text-anchor="middle" x="82.1187" y="-6.5" font-family="Helvetica,sans-Serif" font-size="10.00" fill="#000000">stdlib.h</text>
</a>
</g>
</g>
<!-- Node0&#45;&gt;Node1 -->
<g id="edge1" class="edge">
<title>Node0&#45;&gt;Node1</title>
<path fill="none" stroke="#191970" d="M82.1187,-55.3494C82.1187,-47.0079 82.1187,-37.2463 82.1187,-28.879"/>
<polygon fill="#191970" stroke="#191970" points="85.6187,-28.5978 82.1187,-18.5978 78.6187,-28.5979 85.6187,-28.5978"/>
</g>
</g>
</svg>
