<?xml version="1.0" encoding="UTF-8" standalone="no"?>
<!DOCTYPE svg PUBLIC "-//W3C//DTD SVG 1.1//EN"
 "http://www.w3.org/Graphics/SVG/1.1/DTD/svg11.dtd">
<!-- Generated by graphviz version 2.40.1 (20161225.0304)
 -->
<!-- Title: /Users/jamielee/Desktop/uni stuff/RTE5/ENG5220/code/MPU6050/I2Cdev/I2Cdev.h Pages: 1 -->
<svg width="653pt" height="357pt"
 viewBox="0.00 0.00 653.20 357.00" xmlns="http://www.w3.org/2000/svg" xmlns:xlink="http://www.w3.org/1999/xlink">
<g id="graph0" class="graph" transform="scale(1 1) rotate(0) translate(4 353)">
<title>/Users/jamielee/Desktop/uni stuff/RTE5/ENG5220/code/MPU6050/I2Cdev/I2Cdev.h</title>
<polygon fill="#ffffff" stroke="transparent" points="-4,4 -4,-353 649.1963,-353 649.1963,4 -4,4"/>
<!-- Node2 -->
<g id="node1" class="node">
<title>Node2</title>
<g id="a_node1"><a xlink:title=" ">
<polygon fill="#bfbfbf" stroke="#000000" points="137.8096,-310.5 137.8096,-348.5 302.0469,-348.5 302.0469,-310.5 137.8096,-310.5"/>
<text text-anchor="start" x="145.8096" y="-336.5" font-family="Helvetica,sans-Serif" font-size="10.00" fill="#000000">/Users/jamielee/Desktop</text>
<text text-anchor="start" x="145.8096" y="-326.5" font-family="Helvetica,sans-Serif" font-size="10.00" fill="#000000">/uni stuff/RTE5/ENG5220</text>
<text text-anchor="middle" x="219.9282" y="-316.5" font-family="Helvetica,sans-Serif" font-size="10.00" fill="#000000">/code/MPU6050/I2Cdev/I2Cdev.h</text>
</a>
</g>
</g>
<!-- Node3 -->
<g id="node2" class="node">
<title>Node3</title>
<g id="a_node2"><a xlink:href="_m_p_u6050_2_i2_cdev_2_i2_cdev_8cpp.html" target="_top" xlink:title=" ">
<polygon fill="#ffffff" stroke="#000000" points="44.5288,-235.5 44.5288,-273.5 219.3276,-273.5 219.3276,-235.5 44.5288,-235.5"/>
<text text-anchor="start" x="52.5288" y="-261.5" font-family="Helvetica,sans-Serif" font-size="10.00" fill="#000000">/Users/jamielee/Desktop</text>
<text text-anchor="start" x="52.5288" y="-251.5" font-family="Helvetica,sans-Serif" font-size="10.00" fill="#000000">/uni stuff/RTE5/ENG5220</text>
<text text-anchor="middle" x="131.9282" y="-241.5" font-family="Helvetica,sans-Serif" font-size="10.00" fill="#000000">/code/MPU6050/I2Cdev/I2Cdev.cpp</text>
</a>
</g>
</g>
<!-- Node2&#45;&gt;Node3 -->
<g id="edge1" class="edge">
<title>Node2&#45;&gt;Node3</title>
<path fill="none" stroke="#191970" d="M189.5665,-303.6235C178.0625,-293.819 165.1782,-282.8381 154.5136,-273.7489"/>
<polygon fill="#191970" stroke="#191970" points="187.3849,-306.3629 197.266,-310.1856 191.9255,-301.0353 187.3849,-306.3629"/>
</g>
<!-- Node4 -->
<g id="node3" class="node">
<title>Node4</title>
<g id="a_node3"><a xlink:href="_m_p_u6050_8h.html" target="_top" xlink:title=" ">
<polygon fill="#ffffff" stroke="#000000" points="237.2808,-235.5 237.2808,-273.5 380.5757,-273.5 380.5757,-235.5 237.2808,-235.5"/>
<text text-anchor="start" x="245.2808" y="-261.5" font-family="Helvetica,sans-Serif" font-size="10.00" fill="#000000">/Users/jamielee/Desktop</text>
<text text-anchor="start" x="245.2808" y="-251.5" font-family="Helvetica,sans-Serif" font-size="10.00" fill="#000000">/uni stuff/RTE5/ENG5220</text>
<text text-anchor="middle" x="308.9282" y="-241.5" font-family="Helvetica,sans-Serif" font-size="10.00" fill="#000000">/code/MPU6050/MPU6050.h</text>
</a>
</g>
</g>
<!-- Node2&#45;&gt;Node4 -->
<g id="edge2" class="edge">
<title>Node2&#45;&gt;Node4</title>
<path fill="none" stroke="#191970" d="M250.635,-303.6235C262.2697,-293.819 275.3004,-282.8381 286.0862,-273.7489"/>
<polygon fill="#191970" stroke="#191970" points="248.2394,-301.0652 242.8479,-310.1856 252.7503,-306.418 248.2394,-301.0652"/>
</g>
<!-- Node5 -->
<g id="node4" class="node">
<title>Node5</title>
<g id="a_node4"><a xlink:href="_m_p_u6050_8cpp.html" target="_top" xlink:title=" ">
<polygon fill="#ffffff" stroke="#000000" points="0,-155.5 0,-193.5 153.8564,-193.5 153.8564,-155.5 0,-155.5"/>
<text text-anchor="start" x="8" y="-181.5" font-family="Helvetica,sans-Serif" font-size="10.00" fill="#000000">/Users/jamielee/Desktop</text>
<text text-anchor="start" x="8" y="-171.5" font-family="Helvetica,sans-Serif" font-size="10.00" fill="#000000">/uni stuff/RTE5/ENG5220</text>
<text text-anchor="middle" x="76.9282" y="-161.5" font-family="Helvetica,sans-Serif" font-size="10.00" fill="#000000">/code/MPU6050/MPU6050.cpp</text>
</a>
</g>
</g>
<!-- Node4&#45;&gt;Node5 -->
<g id="edge3" class="edge">
<title>Node4&#45;&gt;Node5</title>
<path fill="none" stroke="#191970" d="M243.9494,-232.0935C208.7586,-219.9588 165.7443,-205.1262 132.1814,-193.5528"/>
<polygon fill="#191970" stroke="#191970" points="243.0585,-235.4885 253.6532,-235.4396 245.3404,-228.8709 243.0585,-235.4885"/>
</g>
<!-- Node6 -->
<g id="node5" class="node">
<title>Node6</title>
<g id="a_node5"><a xlink:href="_sample_timer_8h.html" target="_top" xlink:title=" ">
<polygon fill="#ffffff" stroke="#000000" points="171.688,-155.5 171.688,-193.5 300.1685,-193.5 300.1685,-155.5 171.688,-155.5"/>
<text text-anchor="start" x="179.688" y="-181.5" font-family="Helvetica,sans-Serif" font-size="10.00" fill="#000000">/Users/jamielee/Desktop</text>
<text text-anchor="start" x="179.688" y="-171.5" font-family="Helvetica,sans-Serif" font-size="10.00" fill="#000000">/uni stuff/RTE5/ENG5220</text>
<text text-anchor="middle" x="235.9282" y="-161.5" font-family="Helvetica,sans-Serif" font-size="10.00" fill="#000000">/code/Qt/SampleTimer.h</text>
</a>
</g>
</g>
<!-- Node4&#45;&gt;Node6 -->
<g id="edge4" class="edge">
<title>Node4&#45;&gt;Node6</title>
<path fill="none" stroke="#191970" d="M284.4855,-227.7134C274.3142,-216.5668 262.7357,-203.8781 253.4368,-193.6874"/>
<polygon fill="#191970" stroke="#191970" points="281.931,-230.1065 291.257,-235.1342 287.1018,-225.3882 281.931,-230.1065"/>
</g>
<!-- Node11 -->
<g id="node10" class="node">
<title>Node11</title>
<g id="a_node10"><a xlink:href="unit_tests_2sensors_2main_8cpp.html" target="_top" xlink:title=" ">
<polygon fill="#ffffff" stroke="#000000" points="317.688,-150.5 317.688,-198.5 446.1685,-198.5 446.1685,-150.5 317.688,-150.5"/>
<text text-anchor="start" x="325.688" y="-186.5" font-family="Helvetica,sans-Serif" font-size="10.00" fill="#000000">/Users/jamielee/Desktop</text>
<text text-anchor="start" x="325.688" y="-176.5" font-family="Helvetica,sans-Serif" font-size="10.00" fill="#000000">/uni stuff/RTE5/ENG5220</text>
<text text-anchor="start" x="325.688" y="-166.5" font-family="Helvetica,sans-Serif" font-size="10.00" fill="#000000">/code/unitTests/sensors</text>
<text text-anchor="middle" x="381.9282" y="-156.5" font-family="Helvetica,sans-Serif" font-size="10.00" fill="#000000">/main.cpp</text>
</a>
</g>
</g>
<!-- Node4&#45;&gt;Node11 -->
<g id="edge9" class="edge">
<title>Node4&#45;&gt;Node11</title>
<path fill="none" stroke="#191970" d="M333.5178,-227.5525C342.0866,-218.162 351.6391,-207.6936 359.9794,-198.5535"/>
<polygon fill="#191970" stroke="#191970" points="330.7546,-225.3882 326.5995,-235.1342 335.9254,-230.1065 330.7546,-225.3882"/>
</g>
<!-- Node12 -->
<g id="node11" class="node">
<title>Node12</title>
<g id="a_node11"><a xlink:href="sampledata_8cpp.html" target="_top" xlink:title=" ">
<polygon fill="#ffffff" stroke="#000000" points="464.6602,-155.5 464.6602,-193.5 645.1963,-193.5 645.1963,-155.5 464.6602,-155.5"/>
<text text-anchor="start" x="472.6602" y="-181.5" font-family="Helvetica,sans-Serif" font-size="10.00" fill="#000000">/Users/jamielee/Desktop</text>
<text text-anchor="start" x="472.6602" y="-171.5" font-family="Helvetica,sans-Serif" font-size="10.00" fill="#000000">/uni stuff/RTE5/ENG5220</text>
<text text-anchor="middle" x="554.9282" y="-161.5" font-family="Helvetica,sans-Serif" font-size="10.00" fill="#000000">/testfiles/sampledata/sampledata.cpp</text>
</a>
</g>
</g>
<!-- Node4&#45;&gt;Node12 -->
<g id="edge10" class="edge">
<title>Node4&#45;&gt;Node12</title>
<path fill="none" stroke="#191970" d="M377.3502,-232.2489C414.7525,-220.0856 460.6005,-205.1757 496.3408,-193.5528"/>
<polygon fill="#191970" stroke="#191970" points="375.9662,-229.0185 367.5388,-235.4396 378.131,-235.6754 375.9662,-229.0185"/>
</g>
<!-- Node7 -->
<g id="node6" class="node">
<title>Node7</title>
<g id="a_node6"><a xlink:href="mainwindow_8h.html" target="_top" xlink:title=" ">
<polygon fill="#ffffff" stroke="#000000" points="96.688,-75.5 96.688,-113.5 225.1685,-113.5 225.1685,-75.5 96.688,-75.5"/>
<text text-anchor="start" x="104.688" y="-101.5" font-family="Helvetica,sans-Serif" font-size="10.00" fill="#000000">/Users/jamielee/Desktop</text>
<text text-anchor="start" x="104.688" y="-91.5" font-family="Helvetica,sans-Serif" font-size="10.00" fill="#000000">/uni stuff/RTE5/ENG5220</text>
<text text-anchor="middle" x="160.9282" y="-81.5" font-family="Helvetica,sans-Serif" font-size="10.00" fill="#000000">/code/Qt/mainwindow.h</text>
</a>
</g>
</g>
<!-- Node6&#45;&gt;Node7 -->
<g id="edge5" class="edge">
<title>Node6&#45;&gt;Node7</title>
<path fill="none" stroke="#191970" d="M210.8158,-147.7134C200.3659,-136.5668 188.4702,-123.8781 178.9164,-113.6874"/>
<polygon fill="#191970" stroke="#191970" points="208.38,-150.2326 217.7728,-155.1342 213.4868,-145.445 208.38,-150.2326"/>
</g>
<!-- Node10 -->
<g id="node9" class="node">
<title>Node10</title>
<g id="a_node9"><a xlink:href="_sample_timer_8cpp.html" target="_top" xlink:title=" ">
<polygon fill="#ffffff" stroke="#000000" points="242.917,-75.5 242.917,-113.5 376.9395,-113.5 376.9395,-75.5 242.917,-75.5"/>
<text text-anchor="start" x="250.917" y="-101.5" font-family="Helvetica,sans-Serif" font-size="10.00" fill="#000000">/Users/jamielee/Desktop</text>
<text text-anchor="start" x="250.917" y="-91.5" font-family="Helvetica,sans-Serif" font-size="10.00" fill="#000000">/uni stuff/RTE5/ENG5220</text>
<text text-anchor="middle" x="309.9282" y="-81.5" font-family="Helvetica,sans-Serif" font-size="10.00" fill="#000000">/code/Qt/SampleTimer.cpp</text>
</a>
</g>
</g>
<!-- Node6&#45;&gt;Node10 -->
<g id="edge8" class="edge">
<title>Node6&#45;&gt;Node10</title>
<path fill="none" stroke="#191970" d="M260.7058,-147.7134C271.0164,-136.5668 282.7535,-123.8781 292.1799,-113.6874"/>
<polygon fill="#191970" stroke="#191970" points="258.0627,-145.4166 253.8416,-155.1342 263.2014,-150.1699 258.0627,-145.4166"/>
</g>
<!-- Node8 -->
<g id="node7" class="node">
<title>Node8</title>
<g id="a_node7"><a xlink:href="_qt_2main_8cpp.html" target="_top" xlink:title=" ">
<polygon fill="#ffffff" stroke="#000000" points="23.688,-.5 23.688,-38.5 152.1685,-38.5 152.1685,-.5 23.688,-.5"/>
<text text-anchor="start" x="31.688" y="-26.5" font-family="Helvetica,sans-Serif" font-size="10.00" fill="#000000">/Users/jamielee/Desktop</text>
<text text-anchor="start" x="31.688" y="-16.5" font-family="Helvetica,sans-Serif" font-size="10.00" fill="#000000">/uni stuff/RTE5/ENG5220</text>
<text text-anchor="middle" x="87.9282" y="-6.5" font-family="Helvetica,sans-Serif" font-size="10.00" fill="#000000">/code/Qt/main.cpp</text>
</a>
</g>
</g>
<!-- Node7&#45;&gt;Node8 -->
<g id="edge6" class="edge">
<title>Node7&#45;&gt;Node8</title>
<path fill="none" stroke="#191970" d="M134.9132,-67.7722C125.5836,-58.187 115.2554,-47.5759 106.6638,-38.7489"/>
<polygon fill="#191970" stroke="#191970" points="132.6459,-70.4609 142.1289,-75.1856 137.6621,-65.5784 132.6459,-70.4609"/>
</g>
<!-- Node9 -->
<g id="node8" class="node">
<title>Node9</title>
<g id="a_node8"><a xlink:href="mainwindow_8cpp.html" target="_top" xlink:title=" ">
<polygon fill="#ffffff" stroke="#000000" points="169.9507,-.5 169.9507,-38.5 299.9058,-38.5 299.9058,-.5 169.9507,-.5"/>
<text text-anchor="start" x="177.9507" y="-26.5" font-family="Helvetica,sans-Serif" font-size="10.00" fill="#000000">/Users/jamielee/Desktop</text>
<text text-anchor="start" x="177.9507" y="-16.5" font-family="Helvetica,sans-Serif" font-size="10.00" fill="#000000">/uni stuff/RTE5/ENG5220</text>
<text text-anchor="middle" x="234.9282" y="-6.5" font-family="Helvetica,sans-Serif" font-size="10.00" fill="#000000">/code/Qt/mainwindow.cpp</text>
</a>
</g>
</g>
<!-- Node7&#45;&gt;Node9 -->
<g id="edge7" class="edge">
<title>Node7&#45;&gt;Node9</title>
<path fill="none" stroke="#191970" d="M187.019,-68.0566C196.5495,-58.3973 207.1405,-47.6633 215.936,-38.7489"/>
<polygon fill="#191970" stroke="#191970" points="184.5171,-65.609 179.9851,-75.1856 189.5,-70.5255 184.5171,-65.609"/>
</g>
</g>
</svg>
