<?xml version="1.0" encoding="UTF-8" standalone="no"?>
<!DOCTYPE svg PUBLIC "-//W3C//DTD SVG 1.1//EN"
 "http://www.w3.org/Graphics/SVG/1.1/DTD/svg11.dtd">
<!-- Generated by graphviz version 2.40.1 (20161225.0304)
 -->
<!-- Title: /Users/jamielee/Desktop/uni stuff/RTE5/ENG5220/code/Qt/MonitorWindow.h Pages: 1 -->
<!--zoomable 102 -->
<svg id="main" version="1.1" xmlns="http://www.w3.org/2000/svg" xmlns:xlink="http://www.w3.org/1999/xlink" xml:space="preserve" onload="init(evt)">
<style type="text/css"><![CDATA[
.edge:hover path { stroke: red; }
.edge:hover polygon { stroke: red; fill: red; }
]]></style>
<script type="text/javascript"><![CDATA[
var edges = document.getElementsByTagName('g');
if (edges && edges.length) {
  for (var i=0;i<edges.length;i++) {
    if (edges[i].id.substr(0,4)=='edge') {
      edges[i].setAttribute('class','edge');
    }
  }
}
]]></script>
        <defs>
                <circle id="rim" cx="0" cy="0" r="7"/>
                <circle id="rim2" cx="0" cy="0" r="3.5"/>
                <g id="zoomPlus">
                        <use xlink:href="#rim" fill="#404040">
                                <set attributeName="fill" to="#808080" begin="zoomplus.mouseover" end="zoomplus.mouseout"/>
                        </use>
                        <path d="M-4,0h8M0,-4v8" fill="none" stroke="white" stroke-width="1.5" pointer-events="none"/>
                </g>
                <g id="zoomMin">
                        <use xlink:href="#rim" fill="#404040">
                                <set attributeName="fill" to="#808080" begin="zoomminus.mouseover" end="zoomminus.mouseout"/>
                        </use>
                        <path d="M-4,0h8" fill="none" stroke="white" stroke-width="1.5" pointer-events="none"/>
                </g>
                <g id="dirArrow">
                        <path fill="none" stroke="white" stroke-width="1.5" d="M0,-3.0v7 M-2.5,-0.5L0,-3.0L2.5,-0.5"/>
                </g>
               <g id="resetDef">
                       <use xlink:href="#rim2" fill="#404040">
                               <set attributeName="fill" to="#808080" begin="reset.mouseover" end="reset.mouseout"/>
                       </use>
               </g>
        </defs>

<script type="text/javascript">
var viewWidth = 785;
var viewHeight = 102;
var sectionId = 'dynsection-0';
</script>
<script xlink:href="svgpan.js"/>
<svg id="graph" class="graph">
<g id="viewport">
<title>/Users/jamielee/Desktop/uni stuff/RTE5/ENG5220/code/Qt/MonitorWindow.h</title>
<polygon fill="#ffffff" stroke="transparent" points="-4,4 -4,-98 780.9209,-98 780.9209,4 -4,4"/>
<!-- Node0 -->
<g id="node1" class="node">
<title>Node0</title>
<g id="a_node1"><a xlink:title=" ">
<polygon fill="#bfbfbf" stroke="#000000" points="375.1035,-55.5 375.1035,-93.5 508.3838,-93.5 508.3838,-55.5 375.1035,-55.5"/>
<text text-anchor="start" x="383.1035" y="-81.5" font-family="Helvetica,sans-Serif" font-size="10.00" fill="#000000">/Users/jamielee/Desktop</text>
<text text-anchor="start" x="383.1035" y="-71.5" font-family="Helvetica,sans-Serif" font-size="10.00" fill="#000000">/uni stuff/RTE5/ENG5220</text>
<text text-anchor="middle" x="441.7437" y="-61.5" font-family="Helvetica,sans-Serif" font-size="10.00" fill="#000000">/code/Qt/MonitorWindow.h</text>
</a>
</g>
</g>
<!-- Node1 -->
<g id="node2" class="node">
<title>Node1</title>
<g id="a_node2"><a xlink:title=" ">
<polygon fill="#ffffff" stroke="#bfbfbf" points="0,-.5 0,-18.5 85.4873,-18.5 85.4873,-.5 0,-.5"/>
<text text-anchor="middle" x="42.7437" y="-6.5" font-family="Helvetica,sans-Serif" font-size="10.00" fill="#000000">qwt/qwt_knob.h</text>
</a>
</g>
</g>
<!-- Node0&#45;&gt;Node1 -->
<g id="edge1" class="edge">
<title>Node0&#45;&gt;Node1</title>
<path fill="none" stroke="#191970" d="M374.8253,-64.246C307.0762,-53.7627 199.0218,-36.7645 95.5743,-19.1132"/>
<polygon fill="#191970" stroke="#191970" points="96.0261,-15.6397 85.5791,-17.4031 94.8456,-22.5395 96.0261,-15.6397"/>
</g>
<!-- Node2 -->
<g id="node3" class="node">
<title>Node2</title>
<g id="a_node3"><a xlink:title=" ">
<polygon fill="#ffffff" stroke="#bfbfbf" points="103.7808,-.5 103.7808,-18.5 183.7065,-18.5 183.7065,-.5 103.7808,-.5"/>
<text text-anchor="middle" x="143.7437" y="-6.5" font-family="Helvetica,sans-Serif" font-size="10.00" fill="#000000">qwt/qwt_plot.h</text>
</a>
</g>
</g>
<!-- Node0&#45;&gt;Node2 -->
<g id="edge2" class="edge">
<title>Node0&#45;&gt;Node2</title>
<path fill="none" stroke="#191970" d="M374.8666,-59.9127C319.9613,-47.9367 243.4203,-31.2415 193.7261,-20.4022"/>
<polygon fill="#191970" stroke="#191970" points="194.3696,-16.9604 183.8535,-18.2488 192.8778,-23.7996 194.3696,-16.9604"/>
</g>
<!-- Node3 -->
<g id="node4" class="node">
<title>Node3</title>
<g id="a_node4"><a xlink:title=" ">
<polygon fill="#ffffff" stroke="#bfbfbf" points="201.7734,-.5 201.7734,-18.5 311.7139,-18.5 311.7139,-.5 201.7734,-.5"/>
<text text-anchor="middle" x="256.7437" y="-6.5" font-family="Helvetica,sans-Serif" font-size="10.00" fill="#000000">qwt/qwt_plot_curve.h</text>
</a>
</g>
</g>
<!-- Node0&#45;&gt;Node3 -->
<g id="edge3" class="edge">
<title>Node0&#45;&gt;Node3</title>
<path fill="none" stroke="#191970" d="M387.2382,-55.3494C356.6172,-44.5907 319.2728,-31.4697 292.3918,-22.025"/>
<polygon fill="#191970" stroke="#191970" points="293.2324,-18.6107 282.6375,-18.5978 290.9119,-25.2149 293.2324,-18.6107"/>
</g>
<!-- Node4 -->
<g id="node5" class="node">
<title>Node4</title>
<g id="a_node5"><a xlink:title=" ">
<polygon fill="#ffffff" stroke="#bfbfbf" points="329.2266,-.5 329.2266,-18.5 400.2607,-18.5 400.2607,-.5 329.2266,-.5"/>
<text text-anchor="middle" x="364.7437" y="-6.5" font-family="Helvetica,sans-Serif" font-size="10.00" fill="#000000">QBoxLayout</text>
</a>
</g>
</g>
<!-- Node0&#45;&gt;Node4 -->
<g id="edge4" class="edge">
<title>Node0&#45;&gt;Node4</title>
<path fill="none" stroke="#191970" d="M419.0576,-55.3494C407.7163,-45.7756 394.159,-34.3311 383.4265,-25.2712"/>
<polygon fill="#191970" stroke="#191970" points="385.4202,-22.3739 375.5211,-18.5978 380.9048,-27.7229 385.4202,-22.3739"/>
</g>
<!-- Node5 -->
<g id="node6" class="node">
<title>Node5</title>
<g id="a_node6"><a xlink:title=" ">
<polygon fill="#ffffff" stroke="#bfbfbf" points="417.9063,-.5 417.9063,-18.5 465.5811,-18.5 465.5811,-.5 417.9063,-.5"/>
<text text-anchor="middle" x="441.7437" y="-6.5" font-family="Helvetica,sans-Serif" font-size="10.00" fill="#000000">QColor</text>
</a>
</g>
</g>
<!-- Node0&#45;&gt;Node5 -->
<g id="edge5" class="edge">
<title>Node0&#45;&gt;Node5</title>
<path fill="none" stroke="#191970" d="M441.7437,-55.3494C441.7437,-47.0079 441.7437,-37.2463 441.7437,-28.879"/>
<polygon fill="#191970" stroke="#191970" points="445.2437,-28.5978 441.7437,-18.5978 438.2437,-28.5979 445.2437,-28.5978"/>
</g>
<!-- Node6 -->
<g id="node7" class="node">
<title>Node6</title>
<g id="a_node7"><a xlink:title=" ">
<polygon fill="#ffffff" stroke="#bfbfbf" points="484.0664,-.5 484.0664,-18.5 553.4209,-18.5 553.4209,-.5 484.0664,-.5"/>
<text text-anchor="middle" x="518.7437" y="-6.5" font-family="Helvetica,sans-Serif" font-size="10.00" fill="#000000">QCheckBox</text>
</a>
</g>
</g>
<!-- Node0&#45;&gt;Node6 -->
<g id="edge6" class="edge">
<title>Node0&#45;&gt;Node6</title>
<path fill="none" stroke="#191970" d="M464.4297,-55.3494C475.771,-45.7756 489.3283,-34.3311 500.0608,-25.2712"/>
<polygon fill="#191970" stroke="#191970" points="502.5825,-27.7229 507.9662,-18.5978 498.0671,-22.3739 502.5825,-27.7229"/>
</g>
<!-- Node7 -->
<g id="node8" class="node">
<title>Node7</title>
<g id="a_node8"><a xlink:title=" ">
<polygon fill="#ffffff" stroke="#bfbfbf" points="571.0024,-.5 571.0024,-18.5 646.4849,-18.5 646.4849,-.5 571.0024,-.5"/>
<text text-anchor="middle" x="608.7437" y="-6.5" font-family="Helvetica,sans-Serif" font-size="10.00" fill="#000000">QPushButton</text>
</a>
</g>
</g>
<!-- Node0&#45;&gt;Node7 -->
<g id="edge7" class="edge">
<title>Node0&#45;&gt;Node7</title>
<path fill="none" stroke="#191970" d="M490.9459,-55.3494C518.344,-44.6855 551.7048,-31.7007 575.9204,-22.2755"/>
<polygon fill="#191970" stroke="#191970" points="577.3197,-25.4867 585.3692,-18.5978 574.7807,-18.9634 577.3197,-25.4867"/>
</g>
<!-- Node8 -->
<g id="node9" class="node">
<title>Node8</title>
<g id="a_node9"><a xlink:title=" ">
<polygon fill="#ffffff" stroke="#bfbfbf" points="664.793,-.5 664.793,-18.5 714.6943,-18.5 714.6943,-.5 664.793,-.5"/>
<text text-anchor="middle" x="689.7437" y="-6.5" font-family="Helvetica,sans-Serif" font-size="10.00" fill="#000000">QString</text>
</a>
</g>
</g>
<!-- Node0&#45;&gt;Node8 -->
<g id="edge8" class="edge">
<title>Node0&#45;&gt;Node8</title>
<path fill="none" stroke="#191970" d="M508.8181,-57.4477C548.6451,-47.2423 600.3821,-33.8469 654.6977,-19.2498"/>
<polygon fill="#191970" stroke="#191970" points="655.7614,-22.5882 664.5071,-16.608 653.9409,-15.829 655.7614,-22.5882"/>
</g>
<!-- Node9 -->
<g id="node10" class="node">
<title>Node9</title>
<g id="a_node10"><a xlink:title=" ">
<polygon fill="#ffffff" stroke="#bfbfbf" points="732.5664,-.5 732.5664,-18.5 776.9209,-18.5 776.9209,-.5 732.5664,-.5"/>
<text text-anchor="middle" x="754.7437" y="-6.5" font-family="Helvetica,sans-Serif" font-size="10.00" fill="#000000">thread</text>
</a>
</g>
</g>
<!-- Node0&#45;&gt;Node9 -->
<g id="edge9" class="edge">
<title>Node0&#45;&gt;Node9</title>
<path fill="none" stroke="#191970" d="M508.552,-63.3535C563.6098,-53.7109 643.8731,-38.6087 722.4049,-19.1472"/>
<polygon fill="#191970" stroke="#191970" points="723.6197,-22.4511 732.4697,-16.6262 721.9189,-15.6608 723.6197,-22.4511"/>
</g>
</g>
</svg>
        <g id="navigator" transform="translate(0 0)" fill="#404254">
                <rect fill="#f2f5e9" fill-opacity="0.5" stroke="#606060" stroke-width=".5" x="0" y="0" width="60" height="60"/>
                <use id="zoomplus" xlink:href="#zoomPlus" x="17" y="9" onmousedown="handleZoom(evt,'in')"/>
                <use id="zoomminus" xlink:href="#zoomMin" x="42" y="9" onmousedown="handleZoom(evt,'out')"/>
                <use id="reset" xlink:href="#resetDef" x="30" y="36" onmousedown="handleReset()"/>
                <g id="arrowUp" xlink:href="#dirArrow" transform="translate(30 24)" onmousedown="handlePan(0,-1)">
                  <use xlink:href="#rim" fill="#404040">
                        <set attributeName="fill" to="#808080" begin="arrowUp.mouseover" end="arrowUp.mouseout"/>
                  </use>
                  <path fill="none" stroke="white" stroke-width="1.5" d="M0,-3.0v7 M-2.5,-0.5L0,-3.0L2.5,-0.5"/>
                </g>
                <g id="arrowRight" xlink:href="#dirArrow" transform="rotate(90) translate(36 -43)" onmousedown="handlePan(1,0)">
                  <use xlink:href="#rim" fill="#404040">
                        <set attributeName="fill" to="#808080" begin="arrowRight.mouseover" end="arrowRight.mouseout"/>
                  </use>
                  <path fill="none" stroke="white" stroke-width="1.5" d="M0,-3.0v7 M-2.5,-0.5L0,-3.0L2.5,-0.5"/>
                </g>
                <g id="arrowDown" xlink:href="#dirArrow" transform="rotate(180) translate(-30 -48)" onmousedown="handlePan(0,1)">
                  <use xlink:href="#rim" fill="#404040">
                        <set attributeName="fill" to="#808080" begin="arrowDown.mouseover" end="arrowDown.mouseout"/>
                  </use>
                  <path fill="none" stroke="white" stroke-width="1.5" d="M0,-3.0v7 M-2.5,-0.5L0,-3.0L2.5,-0.5"/>
                </g>
                <g id="arrowLeft" xlink:href="#dirArrow" transform="rotate(270) translate(-36 17)" onmousedown="handlePan(-1,0)">
                  <use xlink:href="#rim" fill="#404040">
                        <set attributeName="fill" to="#808080" begin="arrowLeft.mouseover" end="arrowLeft.mouseout"/>
                  </use>
                  <path fill="none" stroke="white" stroke-width="1.5" d="M0,-3.0v7 M-2.5,-0.5L0,-3.0L2.5,-0.5"/>
                </g>
        </g>
        <svg viewBox="0 0 15 15" width="100%" height="30px" preserveAspectRatio="xMaxYMin meet">
         <g id="arrow_out" transform="scale(0.3 0.3)">
          <a xlink:href="_monitor_window_8h__incl_org.svg" target="_base">
           <rect id="button" ry="5" rx="5" y="6" x="6" height="38" width="38"
                fill="#f2f5e9" fill-opacity="0.5" stroke="#606060" stroke-width="1.0"/>
           <path id="arrow"
             d="M 11.500037,31.436501 C 11.940474,20.09759 22.043105,11.32322 32.158766,21.979434 L 37.068811,17.246167 C 37.068811,17.246167 37.088388,32 37.088388,32 L 22.160133,31.978069 C 22.160133,31.978069 26.997745,27.140456 26.997745,27.140456 C 18.528582,18.264221 13.291696,25.230495 11.500037,31.436501 z"
             style="fill:#404040;"/>
          </a>
         </g>
        </svg>
</svg>
