<?xml version="1.0" encoding="UTF-8" standalone="no"?>
<!DOCTYPE svg PUBLIC "-//W3C//DTD SVG 1.1//EN"
 "http://www.w3.org/Graphics/SVG/1.1/DTD/svg11.dtd">
<!-- Generated by graphviz version 2.40.1 (20161225.0304)
 -->
<!-- Title: /Users/jamielee/Desktop/uni stuff/RTE5/ENG5220/code/Qt/MonitorWindow.h Pages: 1 -->
<svg width="371pt" height="197pt"
 viewBox="0.00 0.00 371.16 197.00" xmlns="http://www.w3.org/2000/svg" xmlns:xlink="http://www.w3.org/1999/xlink">
<g id="graph0" class="graph" transform="scale(1 1) rotate(0) translate(4 193)">
<title>/Users/jamielee/Desktop/uni stuff/RTE5/ENG5220/code/Qt/MonitorWindow.h</title>
<polygon fill="#ffffff" stroke="transparent" points="-4,4 -4,-193 367.1611,-193 367.1611,4 -4,4"/>
<!-- Node10 -->
<g id="node1" class="node">
<title>Node10</title>
<g id="a_node1"><a xlink:title=" ">
<polygon fill="#bfbfbf" stroke="#000000" points="147.6001,-150.5 147.6001,-188.5 280.8804,-188.5 280.8804,-150.5 147.6001,-150.5"/>
<text text-anchor="start" x="155.6001" y="-176.5" font-family="Helvetica,sans-Serif" font-size="10.00" fill="#000000">/Users/jamielee/Desktop</text>
<text text-anchor="start" x="155.6001" y="-166.5" font-family="Helvetica,sans-Serif" font-size="10.00" fill="#000000">/uni stuff/RTE5/ENG5220</text>
<text text-anchor="middle" x="214.2402" y="-156.5" font-family="Helvetica,sans-Serif" font-size="10.00" fill="#000000">/code/Qt/MonitorWindow.h</text>
</a>
</g>
</g>
<!-- Node11 -->
<g id="node2" class="node">
<title>Node11</title>
<g id="a_node2"><a xlink:href="mainwindow_8h.html" target="_top" xlink:title=" ">
<polygon fill="#ffffff" stroke="#000000" points="73,-75.5 73,-113.5 201.4805,-113.5 201.4805,-75.5 73,-75.5"/>
<text text-anchor="start" x="81" y="-101.5" font-family="Helvetica,sans-Serif" font-size="10.00" fill="#000000">/Users/jamielee/Desktop</text>
<text text-anchor="start" x="81" y="-91.5" font-family="Helvetica,sans-Serif" font-size="10.00" fill="#000000">/uni stuff/RTE5/ENG5220</text>
<text text-anchor="middle" x="137.2402" y="-81.5" font-family="Helvetica,sans-Serif" font-size="10.00" fill="#000000">/code/Qt/mainwindow.h</text>
</a>
</g>
</g>
<!-- Node10&#45;&gt;Node11 -->
<g id="edge1" class="edge">
<title>Node10&#45;&gt;Node11</title>
<path fill="none" stroke="#191970" d="M187.0917,-143.0566C177.1748,-133.3973 166.1545,-122.6633 157.0025,-113.7489"/>
<polygon fill="#191970" stroke="#191970" points="184.8052,-145.7154 194.4108,-150.1856 189.6894,-140.701 184.8052,-145.7154"/>
</g>
<!-- Node14 -->
<g id="node5" class="node">
<title>Node14</title>
<g id="a_node5"><a xlink:href="_monitor_window_8cpp.html" target="_top" xlink:title=" ">
<polygon fill="#ffffff" stroke="#000000" points="219.3193,-75.5 219.3193,-113.5 363.1611,-113.5 363.1611,-75.5 219.3193,-75.5"/>
<text text-anchor="start" x="227.3193" y="-101.5" font-family="Helvetica,sans-Serif" font-size="10.00" fill="#000000">/Users/jamielee/Desktop</text>
<text text-anchor="start" x="227.3193" y="-91.5" font-family="Helvetica,sans-Serif" font-size="10.00" fill="#000000">/uni stuff/RTE5/ENG5220</text>
<text text-anchor="middle" x="291.2402" y="-81.5" font-family="Helvetica,sans-Serif" font-size="10.00" fill="#000000">/code/Qt/MonitorWindow.cpp</text>
</a>
</g>
</g>
<!-- Node10&#45;&gt;Node14 -->
<g id="edge4" class="edge">
<title>Node10&#45;&gt;Node14</title>
<path fill="none" stroke="#191970" d="M241.3888,-143.0566C251.3056,-133.3973 262.3259,-122.6633 271.478,-113.7489"/>
<polygon fill="#191970" stroke="#191970" points="238.7911,-140.701 234.0696,-150.1856 243.6753,-145.7154 238.7911,-140.701"/>
</g>
<!-- Node12 -->
<g id="node3" class="node">
<title>Node12</title>
<g id="a_node3"><a xlink:href="_qt_2main_8cpp.html" target="_top" xlink:title=" ">
<polygon fill="#ffffff" stroke="#000000" points="0,-.5 0,-38.5 128.4805,-38.5 128.4805,-.5 0,-.5"/>
<text text-anchor="start" x="8" y="-26.5" font-family="Helvetica,sans-Serif" font-size="10.00" fill="#000000">/Users/jamielee/Desktop</text>
<text text-anchor="start" x="8" y="-16.5" font-family="Helvetica,sans-Serif" font-size="10.00" fill="#000000">/uni stuff/RTE5/ENG5220</text>
<text text-anchor="middle" x="64.2402" y="-6.5" font-family="Helvetica,sans-Serif" font-size="10.00" fill="#000000">/code/Qt/main.cpp</text>
</a>
</g>
</g>
<!-- Node11&#45;&gt;Node12 -->
<g id="edge2" class="edge">
<title>Node11&#45;&gt;Node12</title>
<path fill="none" stroke="#191970" d="M111.2252,-67.7722C101.8956,-58.187 91.5674,-47.5759 82.9758,-38.7489"/>
<polygon fill="#191970" stroke="#191970" points="108.9579,-70.4609 118.4409,-75.1856 113.9741,-65.5784 108.9579,-70.4609"/>
</g>
<!-- Node13 -->
<g id="node4" class="node">
<title>Node13</title>
<g id="a_node4"><a xlink:href="mainwindow_8cpp.html" target="_top" xlink:title=" ">
<polygon fill="#ffffff" stroke="#000000" points="146.2627,-.5 146.2627,-38.5 276.2178,-38.5 276.2178,-.5 146.2627,-.5"/>
<text text-anchor="start" x="154.2627" y="-26.5" font-family="Helvetica,sans-Serif" font-size="10.00" fill="#000000">/Users/jamielee/Desktop</text>
<text text-anchor="start" x="154.2627" y="-16.5" font-family="Helvetica,sans-Serif" font-size="10.00" fill="#000000">/uni stuff/RTE5/ENG5220</text>
<text text-anchor="middle" x="211.2402" y="-6.5" font-family="Helvetica,sans-Serif" font-size="10.00" fill="#000000">/code/Qt/mainwindow.cpp</text>
</a>
</g>
</g>
<!-- Node11&#45;&gt;Node13 -->
<g id="edge3" class="edge">
<title>Node11&#45;&gt;Node13</title>
<path fill="none" stroke="#191970" d="M163.3311,-68.0566C172.8615,-58.3973 183.4525,-47.6633 192.248,-38.7489"/>
<polygon fill="#191970" stroke="#191970" points="160.8291,-65.609 156.2971,-75.1856 165.812,-70.5255 160.8291,-65.609"/>
</g>
</g>
</svg>
