<?xml version="1.0" encoding="UTF-8" standalone="no"?>
<!DOCTYPE svg PUBLIC "-//W3C//DTD SVG 1.1//EN"
 "http://www.w3.org/Graphics/SVG/1.1/DTD/svg11.dtd">
<!-- Generated by graphviz version 2.40.1 (20161225.0304)
 -->
<!-- Title: code/Qt/MonitorWindow.h Pages: 1 -->
<svg width="785pt" height="82pt"
 viewBox="0.00 0.00 784.92 82.00" xmlns="http://www.w3.org/2000/svg" xmlns:xlink="http://www.w3.org/1999/xlink">
<g id="graph0" class="graph" transform="scale(1 1) rotate(0) translate(4 78)">
<title>code/Qt/MonitorWindow.h</title>
<polygon fill="#ffffff" stroke="transparent" points="-4,4 -4,-78 780.9209,-78 780.9209,4 -4,4"/>
<!-- Node0 -->
<g id="node1" class="node">
<title>Node0</title>
<g id="a_node1"><a xlink:title=" ">
<polygon fill="#bfbfbf" stroke="#000000" points="376.4927,-55.5 376.4927,-73.5 506.9946,-73.5 506.9946,-55.5 376.4927,-55.5"/>
<text text-anchor="middle" x="441.7437" y="-61.5" font-family="Helvetica,sans-Serif" font-size="10.00" fill="#000000">code/Qt/MonitorWindow.h</text>
</a>
</g>
</g>
<!-- Node1 -->
<g id="node2" class="node">
<title>Node1</title>
<g id="a_node2"><a xlink:title=" ">
<polygon fill="#ffffff" stroke="#bfbfbf" points="0,-.5 0,-18.5 85.4873,-18.5 85.4873,-.5 0,-.5"/>
<text text-anchor="middle" x="42.7437" y="-6.5" font-family="Helvetica,sans-Serif" font-size="10.00" fill="#000000">qwt/qwt_knob.h</text>
</a>
</g>
</g>
<!-- Node0&#45;&gt;Node1 -->
<g id="edge1" class="edge">
<title>Node0&#45;&gt;Node1</title>
<path fill="none" stroke="#191970" d="M376.3695,-56.9227C308.6921,-48.8535 199.6621,-35.227 95.6153,-19.0705"/>
<polygon fill="#191970" stroke="#191970" points="95.984,-15.5857 85.5634,-17.4991 94.9028,-22.5017 95.984,-15.5857"/>
</g>
<!-- Node2 -->
<g id="node3" class="node">
<title>Node2</title>
<g id="a_node3"><a xlink:title=" ">
<polygon fill="#ffffff" stroke="#bfbfbf" points="103.7808,-.5 103.7808,-18.5 183.7065,-18.5 183.7065,-.5 103.7808,-.5"/>
<text text-anchor="middle" x="143.7437" y="-6.5" font-family="Helvetica,sans-Serif" font-size="10.00" fill="#000000">qwt/qwt_plot.h</text>
</a>
</g>
</g>
<!-- Node0&#45;&gt;Node2 -->
<g id="edge2" class="edge">
<title>Node0&#45;&gt;Node2</title>
<path fill="none" stroke="#191970" d="M391.1629,-55.422C342.9957,-46.74 268.1812,-33.1591 193.8543,-19.1947"/>
<polygon fill="#191970" stroke="#191970" points="194.3231,-15.7215 183.8483,-17.3118 193.0285,-22.6008 194.3231,-15.7215"/>
</g>
<!-- Node3 -->
<g id="node4" class="node">
<title>Node3</title>
<g id="a_node4"><a xlink:title=" ">
<polygon fill="#ffffff" stroke="#bfbfbf" points="201.7734,-.5 201.7734,-18.5 311.7139,-18.5 311.7139,-.5 201.7734,-.5"/>
<text text-anchor="middle" x="256.7437" y="-6.5" font-family="Helvetica,sans-Serif" font-size="10.00" fill="#000000">qwt/qwt_plot_curve.h</text>
</a>
</g>
</g>
<!-- Node0&#45;&gt;Node3 -->
<g id="edge3" class="edge">
<title>Node0&#45;&gt;Node3</title>
<path fill="none" stroke="#191970" d="M411.1947,-55.4179C379.9034,-46.115 331.107,-31.608 296.7516,-21.3943"/>
<polygon fill="#191970" stroke="#191970" points="297.6133,-17.9991 287.0305,-18.5042 295.6185,-24.7089 297.6133,-17.9991"/>
</g>
<!-- Node4 -->
<g id="node5" class="node">
<title>Node4</title>
<g id="a_node5"><a xlink:title=" ">
<polygon fill="#ffffff" stroke="#bfbfbf" points="329.2266,-.5 329.2266,-18.5 400.2607,-18.5 400.2607,-.5 329.2266,-.5"/>
<text text-anchor="middle" x="364.7437" y="-6.5" font-family="Helvetica,sans-Serif" font-size="10.00" fill="#000000">QBoxLayout</text>
</a>
</g>
</g>
<!-- Node0&#45;&gt;Node4 -->
<g id="edge4" class="edge">
<title>Node0&#45;&gt;Node4</title>
<path fill="none" stroke="#191970" d="M429.0287,-55.4179C417.3254,-47.0584 399.7389,-34.4966 385.9171,-24.6239"/>
<polygon fill="#191970" stroke="#191970" points="387.6492,-21.56 377.4775,-18.5956 383.5805,-27.2561 387.6492,-21.56"/>
</g>
<!-- Node5 -->
<g id="node6" class="node">
<title>Node5</title>
<g id="a_node6"><a xlink:title=" ">
<polygon fill="#ffffff" stroke="#bfbfbf" points="417.9063,-.5 417.9063,-18.5 465.5811,-18.5 465.5811,-.5 417.9063,-.5"/>
<text text-anchor="middle" x="441.7437" y="-6.5" font-family="Helvetica,sans-Serif" font-size="10.00" fill="#000000">QColor</text>
</a>
</g>
</g>
<!-- Node0&#45;&gt;Node5 -->
<g id="edge5" class="edge">
<title>Node0&#45;&gt;Node5</title>
<path fill="none" stroke="#191970" d="M441.7437,-55.4179C441.7437,-48.2164 441.7437,-37.8962 441.7437,-28.8632"/>
<polygon fill="#191970" stroke="#191970" points="445.2438,-28.7794 441.7437,-18.7795 438.2438,-28.7795 445.2438,-28.7794"/>
</g>
<!-- Node6 -->
<g id="node7" class="node">
<title>Node6</title>
<g id="a_node7"><a xlink:title=" ">
<polygon fill="#ffffff" stroke="#bfbfbf" points="484.0664,-.5 484.0664,-18.5 553.4209,-18.5 553.4209,-.5 484.0664,-.5"/>
<text text-anchor="middle" x="518.7437" y="-6.5" font-family="Helvetica,sans-Serif" font-size="10.00" fill="#000000">QCheckBox</text>
</a>
</g>
</g>
<!-- Node0&#45;&gt;Node6 -->
<g id="edge6" class="edge">
<title>Node0&#45;&gt;Node6</title>
<path fill="none" stroke="#191970" d="M454.4586,-55.4179C466.1619,-47.0584 483.7484,-34.4966 497.5702,-24.6239"/>
<polygon fill="#191970" stroke="#191970" points="499.9068,-27.2561 506.0098,-18.5956 495.8381,-21.56 499.9068,-27.2561"/>
</g>
<!-- Node7 -->
<g id="node8" class="node">
<title>Node7</title>
<g id="a_node8"><a xlink:title=" ">
<polygon fill="#ffffff" stroke="#bfbfbf" points="571.0024,-.5 571.0024,-18.5 646.4849,-18.5 646.4849,-.5 571.0024,-.5"/>
<text text-anchor="middle" x="608.7437" y="-6.5" font-family="Helvetica,sans-Serif" font-size="10.00" fill="#000000">QPushButton</text>
</a>
</g>
</g>
<!-- Node0&#45;&gt;Node7 -->
<g id="edge7" class="edge">
<title>Node0&#45;&gt;Node7</title>
<path fill="none" stroke="#191970" d="M469.3203,-55.4179C497.3246,-46.1949 540.8606,-31.8567 571.8269,-21.6582"/>
<polygon fill="#191970" stroke="#191970" points="573.0003,-24.9568 581.4036,-18.5042 570.8106,-18.3081 573.0003,-24.9568"/>
</g>
<!-- Node8 -->
<g id="node9" class="node">
<title>Node8</title>
<g id="a_node9"><a xlink:title=" ">
<polygon fill="#ffffff" stroke="#bfbfbf" points="664.793,-.5 664.793,-18.5 714.6943,-18.5 714.6943,-.5 664.793,-.5"/>
<text text-anchor="middle" x="689.7437" y="-6.5" font-family="Helvetica,sans-Serif" font-size="10.00" fill="#000000">QString</text>
</a>
</g>
</g>
<!-- Node0&#45;&gt;Node8 -->
<g id="edge8" class="edge">
<title>Node0&#45;&gt;Node8</title>
<path fill="none" stroke="#191970" d="M488.2725,-55.486C529.5436,-47.2935 591.6785,-34.4801 654.4606,-19.2052"/>
<polygon fill="#191970" stroke="#191970" points="655.6611,-22.5145 664.5392,-16.7328 653.9933,-15.7161 655.6611,-22.5145"/>
</g>
<!-- Node9 -->
<g id="node10" class="node">
<title>Node9</title>
<g id="a_node10"><a xlink:title=" ">
<polygon fill="#ffffff" stroke="#bfbfbf" points="732.5664,-.5 732.5664,-18.5 776.9209,-18.5 776.9209,-.5 732.5664,-.5"/>
<text text-anchor="middle" x="754.7437" y="-6.5" font-family="Helvetica,sans-Serif" font-size="10.00" fill="#000000">thread</text>
</a>
</g>
</g>
<!-- Node0&#45;&gt;Node9 -->
<g id="edge9" class="edge">
<title>Node0&#45;&gt;Node9</title>
<path fill="none" stroke="#191970" d="M507.2021,-56.5335C562.319,-49.2357 643.3481,-37.1311 722.3666,-19.0696"/>
<polygon fill="#191970" stroke="#191970" points="723.5425,-22.3898 732.4922,-16.7193 721.9598,-15.571 723.5425,-22.3898"/>
</g>
</g>
</svg>
