<?xml version="1.0" encoding="UTF-8" standalone="no"?>
<!DOCTYPE svg PUBLIC "-//W3C//DTD SVG 1.1//EN"
 "http://www.w3.org/Graphics/SVG/1.1/DTD/svg11.dtd">
<!-- Generated by graphviz version 2.40.1 (20161225.0304)
 -->
<!-- Title: code/Qt/MonitorWindow.h Pages: 1 -->
<svg width="337pt" height="137pt"
 viewBox="0.00 0.00 336.72 137.00" xmlns="http://www.w3.org/2000/svg" xmlns:xlink="http://www.w3.org/1999/xlink">
<g id="graph0" class="graph" transform="scale(1 1) rotate(0) translate(4 133)">
<title>code/Qt/MonitorWindow.h</title>
<polygon fill="#ffffff" stroke="transparent" points="-4,4 -4,-133 332.7188,-133 332.7188,4 -4,4"/>
<!-- Node10 -->
<g id="node1" class="node">
<title>Node10</title>
<g id="a_node1"><a xlink:title=" ">
<polygon fill="#bfbfbf" stroke="#000000" points="118.936,-110.5 118.936,-128.5 249.438,-128.5 249.438,-110.5 118.936,-110.5"/>
<text text-anchor="middle" x="184.187" y="-116.5" font-family="Helvetica,sans-Serif" font-size="10.00" fill="#000000">code/Qt/MonitorWindow.h</text>
</a>
</g>
</g>
<!-- Node11 -->
<g id="node2" class="node">
<title>Node11</title>
<g id="a_node2"><a xlink:href="mainwindow_8h.html" target="_top" xlink:title=" ">
<polygon fill="#ffffff" stroke="#000000" points="52.8794,-55.5 52.8794,-73.5 169.4946,-73.5 169.4946,-55.5 52.8794,-55.5"/>
<text text-anchor="middle" x="111.187" y="-61.5" font-family="Helvetica,sans-Serif" font-size="10.00" fill="#000000">code/Qt/mainwindow.h</text>
</a>
</g>
</g>
<!-- Node10&#45;&gt;Node11 -->
<g id="edge1" class="edge">
<title>Node10&#45;&gt;Node11</title>
<path fill="none" stroke="#191970" d="M163.8134,-104.15C150.8591,-94.3899 134.5128,-82.0742 123.5034,-73.7795"/>
<polygon fill="#191970" stroke="#191970" points="162.0395,-107.1957 172.1325,-110.4179 166.2518,-101.6049 162.0395,-107.1957"/>
</g>
<!-- Node14 -->
<g id="node5" class="node">
<title>Node14</title>
<g id="a_node5"><a xlink:href="_monitor_window_8cpp.html" target="_top" xlink:title=" ">
<polygon fill="#ffffff" stroke="#000000" points="187.6553,-55.5 187.6553,-73.5 328.7188,-73.5 328.7188,-55.5 187.6553,-55.5"/>
<text text-anchor="middle" x="258.187" y="-61.5" font-family="Helvetica,sans-Serif" font-size="10.00" fill="#000000">code/Qt/MonitorWindow.cpp</text>
</a>
</g>
</g>
<!-- Node10&#45;&gt;Node14 -->
<g id="edge4" class="edge">
<title>Node10&#45;&gt;Node14</title>
<path fill="none" stroke="#191970" d="M204.5141,-104.392C217.7935,-94.5222 234.6959,-81.9596 245.9493,-73.5956"/>
<polygon fill="#191970" stroke="#191970" points="202.3447,-101.6435 196.4066,-110.4179 206.5204,-107.2617 202.3447,-101.6435"/>
</g>
<!-- Node12 -->
<g id="node3" class="node">
<title>Node12</title>
<g id="a_node3"><a xlink:href="_qt_2main_8cpp.html" target="_top" xlink:title=" ">
<polygon fill="#ffffff" stroke="#000000" points="0,-.5 0,-18.5 94.374,-18.5 94.374,-.5 0,-.5"/>
<text text-anchor="middle" x="47.187" y="-6.5" font-family="Helvetica,sans-Serif" font-size="10.00" fill="#000000">code/Qt/main.cpp</text>
</a>
</g>
</g>
<!-- Node11&#45;&gt;Node12 -->
<g id="edge2" class="edge">
<title>Node11&#45;&gt;Node12</title>
<path fill="none" stroke="#191970" d="M92.9968,-48.8678C81.6929,-39.1535 67.5442,-26.9944 57.9849,-18.7795"/>
<polygon fill="#191970" stroke="#191970" points="90.7533,-51.5546 100.6187,-55.4179 95.3157,-46.2457 90.7533,-51.5546"/>
</g>
<!-- Node13 -->
<g id="node4" class="node">
<title>Node13</title>
<g id="a_node4"><a xlink:href="mainwindow_8cpp.html" target="_top" xlink:title=" ">
<polygon fill="#ffffff" stroke="#000000" points="112.5986,-.5 112.5986,-18.5 239.7754,-18.5 239.7754,-.5 112.5986,-.5"/>
<text text-anchor="middle" x="176.187" y="-6.5" font-family="Helvetica,sans-Serif" font-size="10.00" fill="#000000">code/Qt/mainwindow.cpp</text>
</a>
</g>
</g>
<!-- Node11&#45;&gt;Node13 -->
<g id="edge3" class="edge">
<title>Node11&#45;&gt;Node13</title>
<path fill="none" stroke="#191970" d="M129.6615,-48.8678C141.142,-39.1535 155.5118,-26.9944 165.2204,-18.7795"/>
<polygon fill="#191970" stroke="#191970" points="127.2935,-46.2866 121.9204,-55.4179 131.8151,-51.6303 127.2935,-46.2866"/>
</g>
</g>
</svg>
