<?xml version="1.0" encoding="UTF-8" standalone="no"?>
<!DOCTYPE svg PUBLIC "-//W3C//DTD SVG 1.1//EN"
 "http://www.w3.org/Graphics/SVG/1.1/DTD/svg11.dtd">
<!-- Generated by graphviz version 2.40.1 (20161225.0304)
 -->
<!-- Title: /Users/jamielee/Desktop/uni stuff/RTE5/ENG5220/code/neuralnet_predict/NeuralNet.h Pages: 1 -->
<svg width="606pt" height="292pt"
 viewBox="0.00 0.00 606.22 292.00" xmlns="http://www.w3.org/2000/svg" xmlns:xlink="http://www.w3.org/1999/xlink">
<g id="graph0" class="graph" transform="scale(1 1) rotate(0) translate(4 288)">
<title>/Users/jamielee/Desktop/uni stuff/RTE5/ENG5220/code/neuralnet_predict/NeuralNet.h</title>
<polygon fill="#ffffff" stroke="transparent" points="-4,4 -4,-288 602.2178,-288 602.2178,4 -4,4"/>
<!-- Node2 -->
<g id="node1" class="node">
<title>Node2</title>
<g id="a_node1"><a xlink:title=" ">
<polygon fill="#bfbfbf" stroke="#000000" points="221,-235.5 221,-283.5 349.4805,-283.5 349.4805,-235.5 221,-235.5"/>
<text text-anchor="start" x="229" y="-271.5" font-family="Helvetica,sans-Serif" font-size="10.00" fill="#000000">/Users/jamielee/Desktop</text>
<text text-anchor="start" x="229" y="-261.5" font-family="Helvetica,sans-Serif" font-size="10.00" fill="#000000">/uni stuff/RTE5/ENG5220</text>
<text text-anchor="start" x="229" y="-251.5" font-family="Helvetica,sans-Serif" font-size="10.00" fill="#000000">/code/neuralnet_predict</text>
<text text-anchor="middle" x="285.2402" y="-241.5" font-family="Helvetica,sans-Serif" font-size="10.00" fill="#000000">/NeuralNet.h</text>
</a>
</g>
</g>
<!-- Node3 -->
<g id="node2" class="node">
<title>Node3</title>
<g id="a_node2"><a xlink:href="neuralnet__predict_2main_8cpp.html" target="_top" xlink:title=" ">
<polygon fill="#ffffff" stroke="#000000" points="0,-150.5 0,-198.5 128.4805,-198.5 128.4805,-150.5 0,-150.5"/>
<text text-anchor="start" x="8" y="-186.5" font-family="Helvetica,sans-Serif" font-size="10.00" fill="#000000">/Users/jamielee/Desktop</text>
<text text-anchor="start" x="8" y="-176.5" font-family="Helvetica,sans-Serif" font-size="10.00" fill="#000000">/uni stuff/RTE5/ENG5220</text>
<text text-anchor="start" x="8" y="-166.5" font-family="Helvetica,sans-Serif" font-size="10.00" fill="#000000">/code/neuralnet_predict</text>
<text text-anchor="middle" x="64.2402" y="-156.5" font-family="Helvetica,sans-Serif" font-size="10.00" fill="#000000">/main.cpp</text>
</a>
</g>
</g>
<!-- Node2&#45;&gt;Node3 -->
<g id="edge1" class="edge">
<title>Node2&#45;&gt;Node3</title>
<path fill="none" stroke="#191970" d="M213.1238,-231.7629C185.3011,-221.0619 153.7712,-208.935 126.9125,-198.6047"/>
<polygon fill="#191970" stroke="#191970" points="212.2067,-235.1601 222.7967,-235.4832 214.7196,-228.6267 212.2067,-235.1601"/>
</g>
<!-- Node4 -->
<g id="node3" class="node">
<title>Node4</title>
<g id="a_node3"><a xlink:href="_neural_net_8cpp.html" target="_top" xlink:title=" ">
<polygon fill="#ffffff" stroke="#000000" points="146,-150.5 146,-198.5 274.4805,-198.5 274.4805,-150.5 146,-150.5"/>
<text text-anchor="start" x="154" y="-186.5" font-family="Helvetica,sans-Serif" font-size="10.00" fill="#000000">/Users/jamielee/Desktop</text>
<text text-anchor="start" x="154" y="-176.5" font-family="Helvetica,sans-Serif" font-size="10.00" fill="#000000">/uni stuff/RTE5/ENG5220</text>
<text text-anchor="start" x="154" y="-166.5" font-family="Helvetica,sans-Serif" font-size="10.00" fill="#000000">/code/neuralnet_predict</text>
<text text-anchor="middle" x="210.2402" y="-156.5" font-family="Helvetica,sans-Serif" font-size="10.00" fill="#000000">/NeuralNet.cpp</text>
</a>
</g>
</g>
<!-- Node2&#45;&gt;Node4 -->
<g id="edge2" class="edge">
<title>Node2&#45;&gt;Node4</title>
<path fill="none" stroke="#191970" d="M257.3116,-227.8476C248.8015,-218.2027 239.5865,-207.7591 231.5848,-198.6906"/>
<polygon fill="#191970" stroke="#191970" points="254.7082,-230.1871 263.9489,-235.3698 259.9571,-225.5557 254.7082,-230.1871"/>
</g>
<!-- Node5 -->
<g id="node4" class="node">
<title>Node5</title>
<g id="a_node4"><a xlink:href="_interpret_window_8h.html" target="_top" xlink:title=" ">
<polygon fill="#ffffff" stroke="#000000" points="292.6519,-155.5 292.6519,-193.5 429.8286,-193.5 429.8286,-155.5 292.6519,-155.5"/>
<text text-anchor="start" x="300.6519" y="-181.5" font-family="Helvetica,sans-Serif" font-size="10.00" fill="#000000">/Users/jamielee/Desktop</text>
<text text-anchor="start" x="300.6519" y="-171.5" font-family="Helvetica,sans-Serif" font-size="10.00" fill="#000000">/uni stuff/RTE5/ENG5220</text>
<text text-anchor="middle" x="361.2402" y="-161.5" font-family="Helvetica,sans-Serif" font-size="10.00" fill="#000000">/code/Qt/InterpretWindow.h</text>
</a>
</g>
</g>
<!-- Node2&#45;&gt;Node5 -->
<g id="edge3" class="edge">
<title>Node2&#45;&gt;Node5</title>
<path fill="none" stroke="#191970" d="M313.7187,-227.6491C323.9761,-216.177 335.2229,-203.5984 344.1991,-193.5591"/>
<polygon fill="#191970" stroke="#191970" points="310.8718,-225.5821 306.8155,-235.3698 316.0901,-230.2479 310.8718,-225.5821"/>
</g>
<!-- Node10 -->
<g id="node9" class="node">
<title>Node10</title>
<g id="a_node9"><a xlink:href="unit_tests_2neural_network_2main_8cpp.html" target="_top" xlink:title=" ">
<polygon fill="#ffffff" stroke="#000000" points="448.2627,-150.5 448.2627,-198.5 598.2178,-198.5 598.2178,-150.5 448.2627,-150.5"/>
<text text-anchor="start" x="456.2627" y="-186.5" font-family="Helvetica,sans-Serif" font-size="10.00" fill="#000000">/Users/jamielee/Desktop</text>
<text text-anchor="start" x="456.2627" y="-176.5" font-family="Helvetica,sans-Serif" font-size="10.00" fill="#000000">/uni stuff/RTE5/ENG5220</text>
<text text-anchor="start" x="456.2627" y="-166.5" font-family="Helvetica,sans-Serif" font-size="10.00" fill="#000000">/code/unitTests/neuralNetwork</text>
<text text-anchor="middle" x="523.2402" y="-156.5" font-family="Helvetica,sans-Serif" font-size="10.00" fill="#000000">/main.cpp</text>
</a>
</g>
</g>
<!-- Node2&#45;&gt;Node10 -->
<g id="edge8" class="edge">
<title>Node2&#45;&gt;Node10</title>
<path fill="none" stroke="#191970" d="M359.0762,-233.13C389.9917,-222.0888 425.6825,-209.342 455.873,-198.5597"/>
<polygon fill="#191970" stroke="#191970" points="357.8867,-229.8382 349.6465,-236.4978 360.2411,-236.4304 357.8867,-229.8382"/>
</g>
<!-- Node6 -->
<g id="node5" class="node">
<title>Node6</title>
<g id="a_node5"><a xlink:href="_interpret_window_8cpp.html" target="_top" xlink:title=" ">
<polygon fill="#ffffff" stroke="#000000" points="209.3711,-75.5 209.3711,-113.5 357.1094,-113.5 357.1094,-75.5 209.3711,-75.5"/>
<text text-anchor="start" x="217.3711" y="-101.5" font-family="Helvetica,sans-Serif" font-size="10.00" fill="#000000">/Users/jamielee/Desktop</text>
<text text-anchor="start" x="217.3711" y="-91.5" font-family="Helvetica,sans-Serif" font-size="10.00" fill="#000000">/uni stuff/RTE5/ENG5220</text>
<text text-anchor="middle" x="283.2402" y="-81.5" font-family="Helvetica,sans-Serif" font-size="10.00" fill="#000000">/code/Qt/InterpretWindow.cpp</text>
</a>
</g>
</g>
<!-- Node5&#45;&gt;Node6 -->
<g id="edge4" class="edge">
<title>Node5&#45;&gt;Node6</title>
<path fill="none" stroke="#191970" d="M335.1233,-147.7134C324.2554,-136.5668 311.8839,-123.8781 301.948,-113.6874"/>
<polygon fill="#191970" stroke="#191970" points="332.8716,-150.4176 342.3586,-155.1342 337.8836,-145.5308 332.8716,-150.4176"/>
</g>
<!-- Node7 -->
<g id="node6" class="node">
<title>Node7</title>
<g id="a_node6"><a xlink:href="mainwindow_8h.html" target="_top" xlink:title=" ">
<polygon fill="#ffffff" stroke="#000000" points="375,-75.5 375,-113.5 503.4805,-113.5 503.4805,-75.5 375,-75.5"/>
<text text-anchor="start" x="383" y="-101.5" font-family="Helvetica,sans-Serif" font-size="10.00" fill="#000000">/Users/jamielee/Desktop</text>
<text text-anchor="start" x="383" y="-91.5" font-family="Helvetica,sans-Serif" font-size="10.00" fill="#000000">/uni stuff/RTE5/ENG5220</text>
<text text-anchor="middle" x="439.2402" y="-81.5" font-family="Helvetica,sans-Serif" font-size="10.00" fill="#000000">/code/Qt/mainwindow.h</text>
</a>
</g>
</g>
<!-- Node5&#45;&gt;Node7 -->
<g id="edge5" class="edge">
<title>Node5&#45;&gt;Node7</title>
<path fill="none" stroke="#191970" d="M387.3572,-147.7134C398.2251,-136.5668 410.5966,-123.8781 420.5325,-113.6874"/>
<polygon fill="#191970" stroke="#191970" points="384.5969,-145.5308 380.1219,-155.1342 389.6089,-150.4176 384.5969,-145.5308"/>
</g>
<!-- Node8 -->
<g id="node7" class="node">
<title>Node8</title>
<g id="a_node7"><a xlink:href="_qt_2main_8cpp.html" target="_top" xlink:title=" ">
<polygon fill="#ffffff" stroke="#000000" points="301,-.5 301,-38.5 429.4805,-38.5 429.4805,-.5 301,-.5"/>
<text text-anchor="start" x="309" y="-26.5" font-family="Helvetica,sans-Serif" font-size="10.00" fill="#000000">/Users/jamielee/Desktop</text>
<text text-anchor="start" x="309" y="-16.5" font-family="Helvetica,sans-Serif" font-size="10.00" fill="#000000">/uni stuff/RTE5/ENG5220</text>
<text text-anchor="middle" x="365.2402" y="-6.5" font-family="Helvetica,sans-Serif" font-size="10.00" fill="#000000">/code/Qt/main.cpp</text>
</a>
</g>
</g>
<!-- Node7&#45;&gt;Node8 -->
<g id="edge6" class="edge">
<title>Node7&#45;&gt;Node8</title>
<path fill="none" stroke="#191970" d="M413.1494,-68.0566C403.6189,-58.3973 393.028,-47.6633 384.2325,-38.7489"/>
<polygon fill="#191970" stroke="#191970" points="410.6685,-70.5255 420.1834,-75.1856 415.6514,-65.609 410.6685,-70.5255"/>
</g>
<!-- Node9 -->
<g id="node8" class="node">
<title>Node9</title>
<g id="a_node8"><a xlink:href="mainwindow_8cpp.html" target="_top" xlink:title=" ">
<polygon fill="#ffffff" stroke="#000000" points="447.2627,-.5 447.2627,-38.5 577.2178,-38.5 577.2178,-.5 447.2627,-.5"/>
<text text-anchor="start" x="455.2627" y="-26.5" font-family="Helvetica,sans-Serif" font-size="10.00" fill="#000000">/Users/jamielee/Desktop</text>
<text text-anchor="start" x="455.2627" y="-16.5" font-family="Helvetica,sans-Serif" font-size="10.00" fill="#000000">/uni stuff/RTE5/ENG5220</text>
<text text-anchor="middle" x="512.2402" y="-6.5" font-family="Helvetica,sans-Serif" font-size="10.00" fill="#000000">/code/Qt/mainwindow.cpp</text>
</a>
</g>
</g>
<!-- Node7&#45;&gt;Node9 -->
<g id="edge7" class="edge">
<title>Node7&#45;&gt;Node9</title>
<path fill="none" stroke="#191970" d="M465.2553,-67.7722C474.5848,-58.187 484.9131,-47.5759 493.5046,-38.7489"/>
<polygon fill="#191970" stroke="#191970" points="462.5064,-65.5784 458.0395,-75.1856 467.5226,-70.4609 462.5064,-65.5784"/>
</g>
</g>
</svg>
