<?xml version="1.0" encoding="UTF-8" standalone="no"?>
<!DOCTYPE svg PUBLIC "-//W3C//DTD SVG 1.1//EN"
 "http://www.w3.org/Graphics/SVG/1.1/DTD/svg11.dtd">
<!-- Generated by graphviz version 2.40.1 (20161225.0304)
 -->
<!-- Title: code/neuralnet_predict/NeuralNet.h Pages: 1 -->
<svg width="548pt" height="212pt"
 viewBox="0.00 0.00 548.46 212.00" xmlns="http://www.w3.org/2000/svg" xmlns:xlink="http://www.w3.org/1999/xlink">
<g id="graph0" class="graph" transform="scale(1 1) rotate(0) translate(4 208)">
<title>code/neuralnet_predict/NeuralNet.h</title>
<polygon fill="#ffffff" stroke="transparent" points="-4,4 -4,-208 544.4575,-208 544.4575,4 -4,4"/>
<!-- Node2 -->
<g id="node1" class="node">
<title>Node2</title>
<g id="a_node1"><a xlink:title=" ">
<polygon fill="#bfbfbf" stroke="#000000" points="136,-175.5 136,-203.5 253.7383,-203.5 253.7383,-175.5 136,-175.5"/>
<text text-anchor="start" x="144" y="-191.5" font-family="Helvetica,sans-Serif" font-size="10.00" fill="#000000">code/neuralnet_predict</text>
<text text-anchor="middle" x="194.8691" y="-181.5" font-family="Helvetica,sans-Serif" font-size="10.00" fill="#000000">/NeuralNet.h</text>
</a>
</g>
</g>
<!-- Node3 -->
<g id="node2" class="node">
<title>Node3</title>
<g id="a_node2"><a xlink:href="neuralnet__predict_2main_8cpp.html" target="_top" xlink:title=" ">
<polygon fill="#ffffff" stroke="#000000" points="0,-110.5 0,-138.5 117.7383,-138.5 117.7383,-110.5 0,-110.5"/>
<text text-anchor="start" x="8" y="-126.5" font-family="Helvetica,sans-Serif" font-size="10.00" fill="#000000">code/neuralnet_predict</text>
<text text-anchor="middle" x="58.8691" y="-116.5" font-family="Helvetica,sans-Serif" font-size="10.00" fill="#000000">/main.cpp</text>
</a>
</g>
</g>
<!-- Node2&#45;&gt;Node3 -->
<g id="edge1" class="edge">
<title>Node2&#45;&gt;Node3</title>
<path fill="none" stroke="#191970" d="M156.1448,-170.9921C134.5881,-160.6892 108.1801,-148.0677 88.3215,-138.5765"/>
<polygon fill="#191970" stroke="#191970" points="154.8274,-174.2416 165.3592,-175.396 157.846,-167.9258 154.8274,-174.2416"/>
</g>
<!-- Node4 -->
<g id="node3" class="node">
<title>Node4</title>
<g id="a_node3"><a xlink:href="_neural_net_8cpp.html" target="_top" xlink:title=" ">
<polygon fill="#ffffff" stroke="#000000" points="136,-110.5 136,-138.5 253.7383,-138.5 253.7383,-110.5 136,-110.5"/>
<text text-anchor="start" x="144" y="-126.5" font-family="Helvetica,sans-Serif" font-size="10.00" fill="#000000">code/neuralnet_predict</text>
<text text-anchor="middle" x="194.8691" y="-116.5" font-family="Helvetica,sans-Serif" font-size="10.00" fill="#000000">/NeuralNet.cpp</text>
</a>
</g>
</g>
<!-- Node2&#45;&gt;Node4 -->
<g id="edge2" class="edge">
<title>Node2&#45;&gt;Node4</title>
<path fill="none" stroke="#191970" d="M194.8691,-165.1081C194.8691,-156.1539 194.8691,-146.3227 194.8691,-138.5765"/>
<polygon fill="#191970" stroke="#191970" points="191.3692,-165.3959 194.8691,-175.396 198.3692,-165.396 191.3692,-165.3959"/>
</g>
<!-- Node5 -->
<g id="node4" class="node">
<title>Node5</title>
<g id="a_node4"><a xlink:href="_interpret_window_8h.html" target="_top" xlink:title=" ">
<polygon fill="#ffffff" stroke="#000000" points="271.6699,-115.5 271.6699,-133.5 406.0684,-133.5 406.0684,-115.5 271.6699,-115.5"/>
<text text-anchor="middle" x="338.8691" y="-121.5" font-family="Helvetica,sans-Serif" font-size="10.00" fill="#000000">code/Qt/InterpretWindow.h</text>
</a>
</g>
</g>
<!-- Node2&#45;&gt;Node5 -->
<g id="edge3" class="edge">
<title>Node2&#45;&gt;Node5</title>
<path fill="none" stroke="#191970" d="M235.3926,-171.2082C262.5977,-158.9281 297.2678,-143.2784 318.7661,-133.5743"/>
<polygon fill="#191970" stroke="#191970" points="233.7895,-168.0917 226.115,-175.396 236.6695,-174.4718 233.7895,-168.0917"/>
</g>
<!-- Node6 -->
<g id="node5" class="node">
<title>Node6</title>
<g id="a_node5"><a xlink:href="_interpret_window_8cpp.html" target="_top" xlink:title=" ">
<polygon fill="#ffffff" stroke="#000000" points="191.3892,-55.5 191.3892,-73.5 336.3491,-73.5 336.3491,-55.5 191.3892,-55.5"/>
<text text-anchor="middle" x="263.8691" y="-61.5" font-family="Helvetica,sans-Serif" font-size="10.00" fill="#000000">code/Qt/InterpretWindow.cpp</text>
</a>
</g>
</g>
<!-- Node5&#45;&gt;Node6 -->
<g id="edge4" class="edge">
<title>Node5&#45;&gt;Node6</title>
<path fill="none" stroke="#191970" d="M319.4427,-108.9588C305.4641,-97.7759 287.0818,-83.0702 275.3672,-73.6985"/>
<polygon fill="#191970" stroke="#191970" points="317.4831,-111.8734 327.4783,-115.3873 321.856,-106.4073 317.4831,-111.8734"/>
</g>
<!-- Node7 -->
<g id="node6" class="node">
<title>Node7</title>
<g id="a_node6"><a xlink:href="mainwindow_8h.html" target="_top" xlink:title=" ">
<polygon fill="#ffffff" stroke="#000000" points="354.5615,-55.5 354.5615,-73.5 471.1768,-73.5 471.1768,-55.5 354.5615,-55.5"/>
<text text-anchor="middle" x="412.8691" y="-61.5" font-family="Helvetica,sans-Serif" font-size="10.00" fill="#000000">code/Qt/mainwindow.h</text>
</a>
</g>
</g>
<!-- Node5&#45;&gt;Node7 -->
<g id="edge5" class="edge">
<title>Node5&#45;&gt;Node7</title>
<path fill="none" stroke="#191970" d="M358.0366,-108.9588C371.8288,-97.7759 389.9659,-83.0702 401.5244,-73.6985"/>
<polygon fill="#191970" stroke="#191970" points="355.6714,-106.3706 350.1081,-115.3873 360.08,-111.8079 355.6714,-106.3706"/>
</g>
<!-- Node8 -->
<g id="node7" class="node">
<title>Node8</title>
<g id="a_node7"><a xlink:href="_qt_2main_8cpp.html" target="_top" xlink:title=" ">
<polygon fill="#ffffff" stroke="#000000" points="300.6821,-.5 300.6821,-18.5 395.0562,-18.5 395.0562,-.5 300.6821,-.5"/>
<text text-anchor="middle" x="347.8691" y="-6.5" font-family="Helvetica,sans-Serif" font-size="10.00" fill="#000000">code/Qt/main.cpp</text>
</a>
</g>
</g>
<!-- Node7&#45;&gt;Node8 -->
<g id="edge6" class="edge">
<title>Node7&#45;&gt;Node8</title>
<path fill="none" stroke="#191970" d="M394.3947,-48.8678C382.9142,-39.1535 368.5444,-26.9944 358.8358,-18.7795"/>
<polygon fill="#191970" stroke="#191970" points="392.241,-51.6303 402.1357,-55.4179 396.7626,-46.2866 392.241,-51.6303"/>
</g>
<!-- Node9 -->
<g id="node8" class="node">
<title>Node9</title>
<g id="a_node8"><a xlink:href="mainwindow_8cpp.html" target="_top" xlink:title=" ">
<polygon fill="#ffffff" stroke="#000000" points="413.2808,-.5 413.2808,-18.5 540.4575,-18.5 540.4575,-.5 413.2808,-.5"/>
<text text-anchor="middle" x="476.8691" y="-6.5" font-family="Helvetica,sans-Serif" font-size="10.00" fill="#000000">code/Qt/mainwindow.cpp</text>
</a>
</g>
</g>
<!-- Node7&#45;&gt;Node9 -->
<g id="edge7" class="edge">
<title>Node7&#45;&gt;Node9</title>
<path fill="none" stroke="#191970" d="M431.0594,-48.8678C442.3633,-39.1535 456.512,-26.9944 466.0712,-18.7795"/>
<polygon fill="#191970" stroke="#191970" points="428.7405,-46.2457 423.4374,-55.4179 433.3029,-51.5546 428.7405,-46.2457"/>
</g>
</g>
</svg>
