<?xml version="1.0" encoding="UTF-8" standalone="no"?>
<!DOCTYPE svg PUBLIC "-//W3C//DTD SVG 1.1//EN"
 "http://www.w3.org/Graphics/SVG/1.1/DTD/svg11.dtd">
<!-- Generated by graphviz version 2.40.1 (20161225.0304)
 -->
<!-- Title: /Users/jamielee/Desktop/uni stuff/RTE5/ENG5220/code/neuralnet_predict/NeuralNet.cpp Pages: 1 -->
<svg width="153pt" height="167pt"
 viewBox="0.00 0.00 153.39 167.00" xmlns="http://www.w3.org/2000/svg" xmlns:xlink="http://www.w3.org/1999/xlink">
<g id="graph0" class="graph" transform="scale(1 1) rotate(0) translate(4 163)">
<title>/Users/jamielee/Desktop/uni stuff/RTE5/ENG5220/code/neuralnet_predict/NeuralNet.cpp</title>
<polygon fill="#ffffff" stroke="transparent" points="-4,4 -4,-163 149.3853,-163 149.3853,4 -4,4"/>
<!-- Node0 -->
<g id="node1" class="node">
<title>Node0</title>
<g id="a_node1"><a xlink:title=" ">
<polygon fill="#bfbfbf" stroke="#000000" points="16.9048,-110.5 16.9048,-158.5 145.3853,-158.5 145.3853,-110.5 16.9048,-110.5"/>
<text text-anchor="start" x="24.9048" y="-146.5" font-family="Helvetica,sans-Serif" font-size="10.00" fill="#000000">/Users/jamielee/Desktop</text>
<text text-anchor="start" x="24.9048" y="-136.5" font-family="Helvetica,sans-Serif" font-size="10.00" fill="#000000">/uni stuff/RTE5/ENG5220</text>
<text text-anchor="start" x="24.9048" y="-126.5" font-family="Helvetica,sans-Serif" font-size="10.00" fill="#000000">/code/neuralnet_predict</text>
<text text-anchor="middle" x="81.145" y="-116.5" font-family="Helvetica,sans-Serif" font-size="10.00" fill="#000000">/NeuralNet.cpp</text>
</a>
</g>
</g>
<!-- Node1 -->
<g id="node2" class="node">
<title>Node1</title>
<g id="a_node2"><a xlink:href="_neural_net_8h.html" target="_top" xlink:title=" ">
<polygon fill="#ffffff" stroke="#000000" points="9.4653,-55.5 9.4653,-73.5 78.8247,-73.5 78.8247,-55.5 9.4653,-55.5"/>
<text text-anchor="middle" x="44.145" y="-61.5" font-family="Helvetica,sans-Serif" font-size="10.00" fill="#000000">NeuralNet.h</text>
</a>
</g>
</g>
<!-- Node0&#45;&gt;Node1 -->
<g id="edge1" class="edge">
<title>Node0&#45;&gt;Node1</title>
<path fill="none" stroke="#191970" d="M68.4117,-110.41C63.6038,-101.314 58.2186,-91.1256 53.7449,-82.6619"/>
<polygon fill="#191970" stroke="#191970" points="56.7686,-80.8926 49.0011,-73.6872 50.5799,-84.1638 56.7686,-80.8926"/>
</g>
<!-- Node3 -->
<g id="node4" class="node">
<title>Node3</title>
<g id="a_node4"><a xlink:title=" ">
<polygon fill="#ffffff" stroke="#bfbfbf" points="96.5293,-55.5 96.5293,-73.5 139.7607,-73.5 139.7607,-55.5 96.5293,-55.5"/>
<text text-anchor="middle" x="118.145" y="-61.5" font-family="Helvetica,sans-Serif" font-size="10.00" fill="#000000">vector</text>
</a>
</g>
</g>
<!-- Node0&#45;&gt;Node3 -->
<g id="edge3" class="edge">
<title>Node0&#45;&gt;Node3</title>
<path fill="none" stroke="#191970" d="M93.8783,-110.41C98.6862,-101.314 104.0715,-91.1256 108.5451,-82.6619"/>
<polygon fill="#191970" stroke="#191970" points="111.7101,-84.1638 113.2889,-73.6872 105.5214,-80.8926 111.7101,-84.1638"/>
</g>
<!-- Node2 -->
<g id="node3" class="node">
<title>Node2</title>
<g id="a_node3"><a xlink:title=" ">
<polygon fill="#ffffff" stroke="#bfbfbf" points="0,-.5 0,-18.5 88.29,-18.5 88.29,-.5 0,-.5"/>
<text text-anchor="middle" x="44.145" y="-6.5" font-family="Helvetica,sans-Serif" font-size="10.00" fill="#000000">fdeep/fdeep.hpp</text>
</a>
</g>
</g>
<!-- Node1&#45;&gt;Node2 -->
<g id="edge2" class="edge">
<title>Node1&#45;&gt;Node2</title>
<path fill="none" stroke="#191970" d="M44.145,-55.4179C44.145,-48.2164 44.145,-37.8962 44.145,-28.8632"/>
<polygon fill="#191970" stroke="#191970" points="47.6451,-28.7794 44.145,-18.7795 40.6451,-28.7795 47.6451,-28.7794"/>
</g>
</g>
</svg>
