<?xml version="1.0" encoding="UTF-8" standalone="no"?>
<!DOCTYPE svg PUBLIC "-//W3C//DTD SVG 1.1//EN"
 "http://www.w3.org/Graphics/SVG/1.1/DTD/svg11.dtd">
<!-- Generated by graphviz version 2.40.1 (20161225.0304)
 -->
<!-- Title: code/neuralnet_predict/NeuralNet.cpp Pages: 1 -->
<svg width="148pt" height="147pt"
 viewBox="0.00 0.00 148.01 147.00" xmlns="http://www.w3.org/2000/svg" xmlns:xlink="http://www.w3.org/1999/xlink">
<g id="graph0" class="graph" transform="scale(1 1) rotate(0) translate(4 143)">
<title>code/neuralnet_predict/NeuralNet.cpp</title>
<polygon fill="#ffffff" stroke="transparent" points="-4,4 -4,-143 144.0142,-143 144.0142,4 -4,4"/>
<!-- Node0 -->
<g id="node1" class="node">
<title>Node0</title>
<g id="a_node1"><a xlink:title=" ">
<polygon fill="#bfbfbf" stroke="#000000" points="22.2759,-110.5 22.2759,-138.5 140.0142,-138.5 140.0142,-110.5 22.2759,-110.5"/>
<text text-anchor="start" x="30.2759" y="-126.5" font-family="Helvetica,sans-Serif" font-size="10.00" fill="#000000">code/neuralnet_predict</text>
<text text-anchor="middle" x="81.145" y="-116.5" font-family="Helvetica,sans-Serif" font-size="10.00" fill="#000000">/NeuralNet.cpp</text>
</a>
</g>
</g>
<!-- Node1 -->
<g id="node2" class="node">
<title>Node1</title>
<g id="a_node2"><a xlink:href="_neural_net_8h.html" target="_top" xlink:title=" ">
<polygon fill="#ffffff" stroke="#000000" points="9.4653,-55.5 9.4653,-73.5 78.8247,-73.5 78.8247,-55.5 9.4653,-55.5"/>
<text text-anchor="middle" x="44.145" y="-61.5" font-family="Helvetica,sans-Serif" font-size="10.00" fill="#000000">NeuralNet.h</text>
</a>
</g>
</g>
<!-- Node0&#45;&gt;Node1 -->
<g id="edge1" class="edge">
<title>Node0&#45;&gt;Node1</title>
<path fill="none" stroke="#191970" d="M72.3765,-110.2808C67.1743,-101.8448 60.5368,-91.0813 55.005,-82.1107"/>
<polygon fill="#191970" stroke="#191970" points="57.975,-80.2588 49.7469,-73.5842 52.0168,-83.933 57.975,-80.2588"/>
</g>
<!-- Node3 -->
<g id="node4" class="node">
<title>Node3</title>
<g id="a_node4"><a xlink:title=" ">
<polygon fill="#ffffff" stroke="#bfbfbf" points="96.5293,-55.5 96.5293,-73.5 139.7607,-73.5 139.7607,-55.5 96.5293,-55.5"/>
<text text-anchor="middle" x="118.145" y="-61.5" font-family="Helvetica,sans-Serif" font-size="10.00" fill="#000000">vector</text>
</a>
</g>
</g>
<!-- Node0&#45;&gt;Node3 -->
<g id="edge3" class="edge">
<title>Node0&#45;&gt;Node3</title>
<path fill="none" stroke="#191970" d="M89.9135,-110.2808C95.1157,-101.8448 101.7532,-91.0813 107.2851,-82.1107"/>
<polygon fill="#191970" stroke="#191970" points="110.2733,-83.933 112.5431,-73.5842 104.3151,-80.2588 110.2733,-83.933"/>
</g>
<!-- Node2 -->
<g id="node3" class="node">
<title>Node2</title>
<g id="a_node3"><a xlink:title=" ">
<polygon fill="#ffffff" stroke="#bfbfbf" points="0,-.5 0,-18.5 88.29,-18.5 88.29,-.5 0,-.5"/>
<text text-anchor="middle" x="44.145" y="-6.5" font-family="Helvetica,sans-Serif" font-size="10.00" fill="#000000">fdeep/fdeep.hpp</text>
</a>
</g>
</g>
<!-- Node1&#45;&gt;Node2 -->
<g id="edge2" class="edge">
<title>Node1&#45;&gt;Node2</title>
<path fill="none" stroke="#191970" d="M44.145,-55.4179C44.145,-48.2164 44.145,-37.8962 44.145,-28.8632"/>
<polygon fill="#191970" stroke="#191970" points="47.6451,-28.7794 44.145,-18.7795 40.6451,-28.7795 47.6451,-28.7794"/>
</g>
</g>
</svg>
