<?xml version="1.0" encoding="UTF-8" standalone="no"?>
<!DOCTYPE svg PUBLIC "-//W3C//DTD SVG 1.1//EN"
 "http://www.w3.org/Graphics/SVG/1.1/DTD/svg11.dtd">
<!-- Generated by graphviz version 2.40.1 (20161225.0304)
 -->
<!-- Title: /Users/jamielee/Desktop/uni stuff/RTE5/ENG5220/code/neuralnet_predict/NeuralNet.h Pages: 1 -->
<svg width="136pt" height="112pt"
 viewBox="0.00 0.00 136.48 112.00" xmlns="http://www.w3.org/2000/svg" xmlns:xlink="http://www.w3.org/1999/xlink">
<g id="graph0" class="graph" transform="scale(1 1) rotate(0) translate(4 108)">
<title>/Users/jamielee/Desktop/uni stuff/RTE5/ENG5220/code/neuralnet_predict/NeuralNet.h</title>
<polygon fill="#ffffff" stroke="transparent" points="-4,4 -4,-108 132.4805,-108 132.4805,4 -4,4"/>
<!-- Node0 -->
<g id="node1" class="node">
<title>Node0</title>
<g id="a_node1"><a xlink:title=" ">
<polygon fill="#bfbfbf" stroke="#000000" points="0,-55.5 0,-103.5 128.4805,-103.5 128.4805,-55.5 0,-55.5"/>
<text text-anchor="start" x="8" y="-91.5" font-family="Helvetica,sans-Serif" font-size="10.00" fill="#000000">/Users/jamielee/Desktop</text>
<text text-anchor="start" x="8" y="-81.5" font-family="Helvetica,sans-Serif" font-size="10.00" fill="#000000">/uni stuff/RTE5/ENG5220</text>
<text text-anchor="start" x="8" y="-71.5" font-family="Helvetica,sans-Serif" font-size="10.00" fill="#000000">/code/neuralnet_predict</text>
<text text-anchor="middle" x="64.2402" y="-61.5" font-family="Helvetica,sans-Serif" font-size="10.00" fill="#000000">/NeuralNet.h</text>
</a>
</g>
</g>
<!-- Node1 -->
<g id="node2" class="node">
<title>Node1</title>
<g id="a_node2"><a xlink:title=" ">
<polygon fill="#ffffff" stroke="#bfbfbf" points="20.0952,-.5 20.0952,-18.5 108.3853,-18.5 108.3853,-.5 20.0952,-.5"/>
<text text-anchor="middle" x="64.2402" y="-6.5" font-family="Helvetica,sans-Serif" font-size="10.00" fill="#000000">fdeep/fdeep.hpp</text>
</a>
</g>
</g>
<!-- Node0&#45;&gt;Node1 -->
<g id="edge1" class="edge">
<title>Node0&#45;&gt;Node1</title>
<path fill="none" stroke="#191970" d="M64.2402,-55.41C64.2402,-46.7094 64.2402,-37.0095 64.2402,-28.7754"/>
<polygon fill="#191970" stroke="#191970" points="67.7403,-28.6872 64.2402,-18.6872 60.7403,-28.6873 67.7403,-28.6872"/>
</g>
</g>
</svg>
