<?xml version="1.0" encoding="UTF-8" standalone="no"?>
<!DOCTYPE svg PUBLIC "-//W3C//DTD SVG 1.1//EN"
 "http://www.w3.org/Graphics/SVG/1.1/DTD/svg11.dtd">
<!-- Generated by graphviz version 2.40.1 (20161225.0304)
 -->
<!-- Title: /Users/jamielee/Desktop/uni stuff/RTE5/ENG5220/code/Qt/QLed.h Pages: 1 -->
<svg width="361pt" height="272pt"
 viewBox="0.00 0.00 360.70 272.00" xmlns="http://www.w3.org/2000/svg" xmlns:xlink="http://www.w3.org/1999/xlink">
<g id="graph0" class="graph" transform="scale(1 1) rotate(0) translate(4 268)">
<title>/Users/jamielee/Desktop/uni stuff/RTE5/ENG5220/code/Qt/QLed.h</title>
<polygon fill="#ffffff" stroke="transparent" points="-4,4 -4,-268 356.6973,-268 356.6973,4 -4,4"/>
<!-- Node3 -->
<g id="node1" class="node">
<title>Node3</title>
<g id="a_node1"><a xlink:title=" ">
<polygon fill="#bfbfbf" stroke="#000000" points="147,-225.5 147,-263.5 275.4805,-263.5 275.4805,-225.5 147,-225.5"/>
<text text-anchor="start" x="155" y="-251.5" font-family="Helvetica,sans-Serif" font-size="10.00" fill="#000000">/Users/jamielee/Desktop</text>
<text text-anchor="start" x="155" y="-241.5" font-family="Helvetica,sans-Serif" font-size="10.00" fill="#000000">/uni stuff/RTE5/ENG5220</text>
<text text-anchor="middle" x="211.2402" y="-231.5" font-family="Helvetica,sans-Serif" font-size="10.00" fill="#000000">/code/Qt/QLed.h</text>
</a>
</g>
</g>
<!-- Node4 -->
<g id="node2" class="node">
<title>Node4</title>
<g id="a_node2"><a xlink:href="_train_window_8h.html" target="_top" xlink:title=" ">
<polygon fill="#ffffff" stroke="#000000" points="147,-150.5 147,-188.5 275.4805,-188.5 275.4805,-150.5 147,-150.5"/>
<text text-anchor="start" x="155" y="-176.5" font-family="Helvetica,sans-Serif" font-size="10.00" fill="#000000">/Users/jamielee/Desktop</text>
<text text-anchor="start" x="155" y="-166.5" font-family="Helvetica,sans-Serif" font-size="10.00" fill="#000000">/uni stuff/RTE5/ENG5220</text>
<text text-anchor="middle" x="211.2402" y="-156.5" font-family="Helvetica,sans-Serif" font-size="10.00" fill="#000000">/code/Qt/TrainWindow.h</text>
</a>
</g>
</g>
<!-- Node3&#45;&gt;Node4 -->
<g id="edge1" class="edge">
<title>Node3&#45;&gt;Node4</title>
<path fill="none" stroke="#191970" d="M211.2402,-214.8977C211.2402,-206.1033 211.2402,-196.7019 211.2402,-188.7489"/>
<polygon fill="#191970" stroke="#191970" points="207.7403,-215.1856 211.2402,-225.1856 214.7403,-215.1857 207.7403,-215.1856"/>
</g>
<!-- Node5 -->
<g id="node3" class="node">
<title>Node5</title>
<g id="a_node3"><a xlink:href="mainwindow_8h.html" target="_top" xlink:title=" ">
<polygon fill="#ffffff" stroke="#000000" points="73,-75.5 73,-113.5 201.4805,-113.5 201.4805,-75.5 73,-75.5"/>
<text text-anchor="start" x="81" y="-101.5" font-family="Helvetica,sans-Serif" font-size="10.00" fill="#000000">/Users/jamielee/Desktop</text>
<text text-anchor="start" x="81" y="-91.5" font-family="Helvetica,sans-Serif" font-size="10.00" fill="#000000">/uni stuff/RTE5/ENG5220</text>
<text text-anchor="middle" x="137.2402" y="-81.5" font-family="Helvetica,sans-Serif" font-size="10.00" fill="#000000">/code/Qt/mainwindow.h</text>
</a>
</g>
</g>
<!-- Node4&#45;&gt;Node5 -->
<g id="edge2" class="edge">
<title>Node4&#45;&gt;Node5</title>
<path fill="none" stroke="#191970" d="M185.1494,-143.0566C175.6189,-133.3973 165.028,-122.6633 156.2325,-113.7489"/>
<polygon fill="#191970" stroke="#191970" points="182.6685,-145.5255 192.1834,-150.1856 187.6514,-140.609 182.6685,-145.5255"/>
</g>
<!-- Node8 -->
<g id="node6" class="node">
<title>Node8</title>
<g id="a_node6"><a xlink:href="_train_window_8cpp.html" target="_top" xlink:title=" ">
<polygon fill="#ffffff" stroke="#000000" points="219.7832,-75.5 219.7832,-113.5 352.6973,-113.5 352.6973,-75.5 219.7832,-75.5"/>
<text text-anchor="start" x="227.7832" y="-101.5" font-family="Helvetica,sans-Serif" font-size="10.00" fill="#000000">/Users/jamielee/Desktop</text>
<text text-anchor="start" x="227.7832" y="-91.5" font-family="Helvetica,sans-Serif" font-size="10.00" fill="#000000">/uni stuff/RTE5/ENG5220</text>
<text text-anchor="middle" x="286.2402" y="-81.5" font-family="Helvetica,sans-Serif" font-size="10.00" fill="#000000">/code/Qt/TrainWindow.cpp</text>
</a>
</g>
</g>
<!-- Node4&#45;&gt;Node8 -->
<g id="edge5" class="edge">
<title>Node4&#45;&gt;Node8</title>
<path fill="none" stroke="#191970" d="M237.6836,-143.0566C247.3429,-133.3973 258.077,-122.6633 266.9913,-113.7489"/>
<polygon fill="#191970" stroke="#191970" points="235.1508,-140.6397 230.5546,-150.1856 240.1006,-145.5894 235.1508,-140.6397"/>
</g>
<!-- Node6 -->
<g id="node4" class="node">
<title>Node6</title>
<g id="a_node4"><a xlink:href="_qt_2main_8cpp.html" target="_top" xlink:title=" ">
<polygon fill="#ffffff" stroke="#000000" points="0,-.5 0,-38.5 128.4805,-38.5 128.4805,-.5 0,-.5"/>
<text text-anchor="start" x="8" y="-26.5" font-family="Helvetica,sans-Serif" font-size="10.00" fill="#000000">/Users/jamielee/Desktop</text>
<text text-anchor="start" x="8" y="-16.5" font-family="Helvetica,sans-Serif" font-size="10.00" fill="#000000">/uni stuff/RTE5/ENG5220</text>
<text text-anchor="middle" x="64.2402" y="-6.5" font-family="Helvetica,sans-Serif" font-size="10.00" fill="#000000">/code/Qt/main.cpp</text>
</a>
</g>
</g>
<!-- Node5&#45;&gt;Node6 -->
<g id="edge3" class="edge">
<title>Node5&#45;&gt;Node6</title>
<path fill="none" stroke="#191970" d="M111.2252,-67.7722C101.8956,-58.187 91.5674,-47.5759 82.9758,-38.7489"/>
<polygon fill="#191970" stroke="#191970" points="108.9579,-70.4609 118.4409,-75.1856 113.9741,-65.5784 108.9579,-70.4609"/>
</g>
<!-- Node7 -->
<g id="node5" class="node">
<title>Node7</title>
<g id="a_node5"><a xlink:href="mainwindow_8cpp.html" target="_top" xlink:title=" ">
<polygon fill="#ffffff" stroke="#000000" points="146.2627,-.5 146.2627,-38.5 276.2178,-38.5 276.2178,-.5 146.2627,-.5"/>
<text text-anchor="start" x="154.2627" y="-26.5" font-family="Helvetica,sans-Serif" font-size="10.00" fill="#000000">/Users/jamielee/Desktop</text>
<text text-anchor="start" x="154.2627" y="-16.5" font-family="Helvetica,sans-Serif" font-size="10.00" fill="#000000">/uni stuff/RTE5/ENG5220</text>
<text text-anchor="middle" x="211.2402" y="-6.5" font-family="Helvetica,sans-Serif" font-size="10.00" fill="#000000">/code/Qt/mainwindow.cpp</text>
</a>
</g>
</g>
<!-- Node5&#45;&gt;Node7 -->
<g id="edge4" class="edge">
<title>Node5&#45;&gt;Node7</title>
<path fill="none" stroke="#191970" d="M163.3311,-68.0566C172.8615,-58.3973 183.4525,-47.6633 192.248,-38.7489"/>
<polygon fill="#191970" stroke="#191970" points="160.8291,-65.609 156.2971,-75.1856 165.812,-70.5255 160.8291,-65.609"/>
</g>
</g>
</svg>
