<?xml version="1.0" encoding="UTF-8" standalone="no"?>
<!DOCTYPE svg PUBLIC "-//W3C//DTD SVG 1.1//EN"
 "http://www.w3.org/Graphics/SVG/1.1/DTD/svg11.dtd">
<!-- Generated by graphviz version 2.40.1 (20161225.0304)
 -->
<!-- Title: code/Qt/QLed.h Pages: 1 -->
<svg width="126pt" height="82pt"
 viewBox="0.00 0.00 126.17 82.00" xmlns="http://www.w3.org/2000/svg" xmlns:xlink="http://www.w3.org/1999/xlink">
<g id="graph0" class="graph" transform="scale(1 1) rotate(0) translate(4 78)">
<title>code/Qt/QLed.h</title>
<polygon fill="#ffffff" stroke="transparent" points="-4,4 -4,-78 122.1724,-78 122.1724,4 -4,4"/>
<!-- Node0 -->
<g id="node1" class="node">
<title>Node0</title>
<g id="a_node1"><a xlink:title=" ">
<polygon fill="#bfbfbf" stroke="#000000" points="17.0347,-55.5 17.0347,-73.5 103.6353,-73.5 103.6353,-55.5 17.0347,-55.5"/>
<text text-anchor="middle" x="60.335" y="-61.5" font-family="Helvetica,sans-Serif" font-size="10.00" fill="#000000">code/Qt/QLed.h</text>
</a>
</g>
</g>
<!-- Node1 -->
<g id="node2" class="node">
<title>Node1</title>
<g id="a_node2"><a xlink:title=" ">
<polygon fill="#ffffff" stroke="#bfbfbf" points="0,-.5 0,-18.5 52.6699,-18.5 52.6699,-.5 0,-.5"/>
<text text-anchor="middle" x="26.335" y="-6.5" font-family="Helvetica,sans-Serif" font-size="10.00" fill="#000000">QFrame</text>
</a>
</g>
</g>
<!-- Node0&#45;&gt;Node1 -->
<g id="edge1" class="edge">
<title>Node0&#45;&gt;Node1</title>
<path fill="none" stroke="#191970" d="M54.7206,-55.4179C50.0241,-47.8207 43.1821,-36.7527 37.3921,-27.3866"/>
<polygon fill="#191970" stroke="#191970" points="40.3067,-25.445 32.0714,-18.7795 34.3525,-29.1258 40.3067,-25.445"/>
</g>
<!-- Node2 -->
<g id="node3" class="node">
<title>Node2</title>
<g id="a_node3"><a xlink:title=" ">
<polygon fill="#ffffff" stroke="#bfbfbf" points="70.4976,-.5 70.4976,-18.5 118.1724,-18.5 118.1724,-.5 70.4976,-.5"/>
<text text-anchor="middle" x="94.335" y="-6.5" font-family="Helvetica,sans-Serif" font-size="10.00" fill="#000000">QColor</text>
</a>
</g>
</g>
<!-- Node0&#45;&gt;Node2 -->
<g id="edge2" class="edge">
<title>Node0&#45;&gt;Node2</title>
<path fill="none" stroke="#191970" d="M65.9494,-55.4179C70.6458,-47.8207 77.4879,-36.7527 83.2778,-27.3866"/>
<polygon fill="#191970" stroke="#191970" points="86.3174,-29.1258 88.5986,-18.7795 80.3632,-25.445 86.3174,-29.1258"/>
</g>
</g>
</svg>
