<?xml version="1.0" encoding="UTF-8" standalone="no"?>
<!DOCTYPE svg PUBLIC "-//W3C//DTD SVG 1.1//EN"
 "http://www.w3.org/Graphics/SVG/1.1/DTD/svg11.dtd">
<!-- Generated by graphviz version 2.40.1 (20161225.0304)
 -->
<!-- Title: /Users/jamielee/Desktop/uni stuff/RTE5/ENG5220/code/Qt/QLed.h Pages: 1 -->
<svg width="136pt" height="102pt"
 viewBox="0.00 0.00 136.48 102.00" xmlns="http://www.w3.org/2000/svg" xmlns:xlink="http://www.w3.org/1999/xlink">
<g id="graph0" class="graph" transform="scale(1 1) rotate(0) translate(4 98)">
<title>/Users/jamielee/Desktop/uni stuff/RTE5/ENG5220/code/Qt/QLed.h</title>
<polygon fill="#ffffff" stroke="transparent" points="-4,4 -4,-98 132.4805,-98 132.4805,4 -4,4"/>
<!-- Node0 -->
<g id="node1" class="node">
<title>Node0</title>
<g id="a_node1"><a xlink:title=" ">
<polygon fill="#bfbfbf" stroke="#000000" points="0,-55.5 0,-93.5 128.4805,-93.5 128.4805,-55.5 0,-55.5"/>
<text text-anchor="start" x="8" y="-81.5" font-family="Helvetica,sans-Serif" font-size="10.00" fill="#000000">/Users/jamielee/Desktop</text>
<text text-anchor="start" x="8" y="-71.5" font-family="Helvetica,sans-Serif" font-size="10.00" fill="#000000">/uni stuff/RTE5/ENG5220</text>
<text text-anchor="middle" x="64.2402" y="-61.5" font-family="Helvetica,sans-Serif" font-size="10.00" fill="#000000">/code/Qt/QLed.h</text>
</a>
</g>
</g>
<!-- Node1 -->
<g id="node2" class="node">
<title>Node1</title>
<g id="a_node2"><a xlink:title=" ">
<polygon fill="#ffffff" stroke="#bfbfbf" points="3.9053,-.5 3.9053,-18.5 56.5752,-18.5 56.5752,-.5 3.9053,-.5"/>
<text text-anchor="middle" x="30.2402" y="-6.5" font-family="Helvetica,sans-Serif" font-size="10.00" fill="#000000">QFrame</text>
</a>
</g>
</g>
<!-- Node0&#45;&gt;Node1 -->
<g id="edge1" class="edge">
<title>Node0&#45;&gt;Node1</title>
<path fill="none" stroke="#191970" d="M54.223,-55.3494C49.6118,-46.5339 44.171,-36.1324 39.6383,-27.4668"/>
<polygon fill="#191970" stroke="#191970" points="42.7355,-25.8366 34.9991,-18.5978 36.5328,-29.0811 42.7355,-25.8366"/>
</g>
<!-- Node2 -->
<g id="node3" class="node">
<title>Node2</title>
<g id="a_node3"><a xlink:title=" ">
<polygon fill="#ffffff" stroke="#bfbfbf" points="74.4028,-.5 74.4028,-18.5 122.0776,-18.5 122.0776,-.5 74.4028,-.5"/>
<text text-anchor="middle" x="98.2402" y="-6.5" font-family="Helvetica,sans-Serif" font-size="10.00" fill="#000000">QColor</text>
</a>
</g>
</g>
<!-- Node0&#45;&gt;Node2 -->
<g id="edge2" class="edge">
<title>Node0&#45;&gt;Node2</title>
<path fill="none" stroke="#191970" d="M74.2575,-55.3494C78.8686,-46.5339 84.3094,-36.1324 88.8422,-27.4668"/>
<polygon fill="#191970" stroke="#191970" points="91.9477,-29.0811 93.4814,-18.5978 85.745,-25.8366 91.9477,-29.0811"/>
</g>
</g>
</svg>
