<?xml version="1.0" encoding="UTF-8" standalone="no"?>
<!DOCTYPE svg PUBLIC "-//W3C//DTD SVG 1.1//EN"
 "http://www.w3.org/Graphics/SVG/1.1/DTD/svg11.dtd">
<!-- Generated by graphviz version 2.40.1 (20161225.0304)
 -->
<!-- Title: code/Qt/main.cpp Pages: 1 -->
<svg width="3100pt" height="257pt"
 viewBox="0.00 0.00 3100.09 257.00" xmlns="http://www.w3.org/2000/svg" xmlns:xlink="http://www.w3.org/1999/xlink">
<g id="graph0" class="graph" transform="scale(1 1) rotate(0) translate(4 253)">
<title>code/Qt/main.cpp</title>
<polygon fill="#ffffff" stroke="transparent" points="-4,4 -4,-253 3096.0933,-253 3096.0933,4 -4,4"/>
<!-- Node0 -->
<g id="node1" class="node">
<title>Node0</title>
<g id="a_node1"><a xlink:title=" ">
<polygon fill="#bfbfbf" stroke="#000000" points="2814.5566,-230.5 2814.5566,-248.5 2908.9307,-248.5 2908.9307,-230.5 2814.5566,-230.5"/>
<text text-anchor="middle" x="2861.7437" y="-236.5" font-family="Helvetica,sans-Serif" font-size="10.00" fill="#000000">code/Qt/main.cpp</text>
</a>
</g>
</g>
<!-- Node1 -->
<g id="node2" class="node">
<title>Node1</title>
<g id="a_node2"><a xlink:href="mainwindow_8h.html" target="_top" xlink:title=" ">
<polygon fill="#ffffff" stroke="#000000" points="1567.335,-175.5 1567.335,-193.5 1646.1523,-193.5 1646.1523,-175.5 1567.335,-175.5"/>
<text text-anchor="middle" x="1606.7437" y="-181.5" font-family="Helvetica,sans-Serif" font-size="10.00" fill="#000000">mainwindow.h</text>
</a>
</g>
</g>
<!-- Node0&#45;&gt;Node1 -->
<g id="edge1" class="edge">
<title>Node0&#45;&gt;Node1</title>
<path fill="none" stroke="#191970" d="M2814.4583,-237.4277C2616.9177,-228.7706 1858.554,-195.5355 1656.468,-186.6792"/>
<polygon fill="#191970" stroke="#191970" points="1656.5811,-183.1808 1646.4374,-186.2396 1656.2746,-190.1741 1656.5811,-183.1808"/>
</g>
<!-- Node19 -->
<g id="node20" class="node">
<title>Node19</title>
<g id="a_node20"><a xlink:title=" ">
<polygon fill="#ffffff" stroke="#bfbfbf" points="2258.0122,-60.5 2258.0122,-78.5 2303.4751,-78.5 2303.4751,-60.5 2258.0122,-60.5"/>
<text text-anchor="middle" x="2280.7437" y="-66.5" font-family="Helvetica,sans-Serif" font-size="10.00" fill="#000000">stdio.h</text>
</a>
</g>
</g>
<!-- Node0&#45;&gt;Node19 -->
<g id="edge71" class="edge">
<title>Node0&#45;&gt;Node19</title>
<path fill="none" stroke="#191970" d="M2855.2392,-230.175C2838.2704,-206.714 2789.9808,-145.3101 2732.7437,-120 2561.3974,-44.2312 2494.0139,-131.345 2312.7437,-84 2311.0396,-83.5549 2309.3129,-83.0258 2307.5903,-82.4372"/>
<polygon fill="#191970" stroke="#191970" points="2308.5404,-79.0479 2297.9555,-78.5877 2305.9431,-85.5482 2308.5404,-79.0479"/>
</g>
<!-- Node39 -->
<g id="node38" class="node">
<title>Node39</title>
<g id="a_node38"><a xlink:title=" ">
<polygon fill="#ffffff" stroke="#bfbfbf" points="2804.2314,-60.5 2804.2314,-78.5 2855.2559,-78.5 2855.2559,-60.5 2804.2314,-60.5"/>
<text text-anchor="middle" x="2829.7437" y="-66.5" font-family="Helvetica,sans-Serif" font-size="10.00" fill="#000000">unistd.h</text>
</a>
</g>
</g>
<!-- Node0&#45;&gt;Node39 -->
<g id="edge70" class="edge">
<title>Node0&#45;&gt;Node39</title>
<path fill="none" stroke="#191970" d="M2858.4182,-230.2028C2855.2685,-221.0864 2850.6066,-206.7406 2847.7437,-194 2839.4766,-157.2105 2834.1732,-113.4145 2831.5962,-88.7973"/>
<polygon fill="#191970" stroke="#191970" points="2835.0587,-88.2482 2830.5761,-78.6484 2828.0938,-88.9484 2835.0587,-88.2482"/>
</g>
<!-- Node41 -->
<g id="node40" class="node">
<title>Node41</title>
<g id="a_node40"><a xlink:title=" ">
<polygon fill="#ffffff" stroke="#bfbfbf" points="2872.9014,-60.5 2872.9014,-78.5 2920.5859,-78.5 2920.5859,-60.5 2872.9014,-60.5"/>
<text text-anchor="middle" x="2896.7437" y="-66.5" font-family="Helvetica,sans-Serif" font-size="10.00" fill="#000000">stdlib.h</text>
</a>
</g>
</g>
<!-- Node0&#45;&gt;Node41 -->
<g id="edge69" class="edge">
<title>Node0&#45;&gt;Node41</title>
<path fill="none" stroke="#191970" d="M2863.6254,-230.3601C2869.1328,-203.6098 2885.3026,-125.0707 2892.8191,-88.5621"/>
<polygon fill="#191970" stroke="#191970" points="2896.2641,-89.1855 2894.8526,-78.6851 2889.4079,-87.7739 2896.2641,-89.1855"/>
</g>
<!-- Node53 -->
<g id="node48" class="node">
<title>Node53</title>
<g id="a_node48"><a xlink:title=" ">
<polygon fill="#ffffff" stroke="#bfbfbf" points="2889.5098,-175.5 2889.5098,-193.5 2939.9775,-193.5 2939.9775,-175.5 2889.5098,-175.5"/>
<text text-anchor="middle" x="2914.7437" y="-181.5" font-family="Helvetica,sans-Serif" font-size="10.00" fill="#000000">signal.h</text>
</a>
</g>
</g>
<!-- Node0&#45;&gt;Node53 -->
<g id="edge72" class="edge">
<title>Node0&#45;&gt;Node53</title>
<path fill="none" stroke="#191970" d="M2870.4955,-230.4179C2878.1215,-222.5041 2889.3766,-210.8243 2898.6267,-201.2251"/>
<polygon fill="#191970" stroke="#191970" points="2901.383,-203.4089 2905.8016,-193.7795 2896.3424,-198.5516 2901.383,-203.4089"/>
</g>
<!-- Node54 -->
<g id="node49" class="node">
<title>Node54</title>
<g id="a_node49"><a xlink:title=" ">
<polygon fill="#ffffff" stroke="#bfbfbf" points="2958.1279,-175.5 2958.1279,-193.5 3001.3594,-193.5 3001.3594,-175.5 2958.1279,-175.5"/>
<text text-anchor="middle" x="2979.7437" y="-181.5" font-family="Helvetica,sans-Serif" font-size="10.00" fill="#000000">time.h</text>
</a>
</g>
</g>
<!-- Node0&#45;&gt;Node54 -->
<g id="edge73" class="edge">
<title>Node0&#45;&gt;Node54</title>
<path fill="none" stroke="#191970" d="M2881.229,-230.4179C2900.2741,-221.5409 2929.4858,-207.9253 2951.1599,-197.823"/>
<polygon fill="#191970" stroke="#191970" points="2952.6442,-200.9927 2960.2294,-193.5956 2949.687,-194.648 2952.6442,-200.9927"/>
</g>
<!-- Node55 -->
<g id="node50" class="node">
<title>Node55</title>
<g id="a_node50"><a xlink:title=" ">
<polygon fill="#ffffff" stroke="#bfbfbf" points="3019.394,-175.5 3019.394,-193.5 3092.0933,-193.5 3092.0933,-175.5 3019.394,-175.5"/>
<text text-anchor="middle" x="3055.7437" y="-181.5" font-family="Helvetica,sans-Serif" font-size="10.00" fill="#000000">QApplication</text>
</a>
</g>
</g>
<!-- Node0&#45;&gt;Node55 -->
<g id="edge74" class="edge">
<title>Node0&#45;&gt;Node55</title>
<path fill="none" stroke="#191970" d="M2893.7788,-230.4179C2926.7332,-221.0751 2978.2022,-206.4834 3014.2524,-196.263"/>
<polygon fill="#191970" stroke="#191970" points="3015.3172,-199.5991 3023.9833,-193.5042 3013.4078,-192.8645 3015.3172,-199.5991"/>
</g>
<!-- Node2 -->
<g id="node3" class="node">
<title>Node2</title>
<g id="a_node3"><a xlink:href="_monitor_window_8h.html" target="_top" xlink:title=" ">
<polygon fill="#ffffff" stroke="#000000" points="381.3916,-120.5 381.3916,-138.5 474.0957,-138.5 474.0957,-120.5 381.3916,-120.5"/>
<text text-anchor="middle" x="427.7437" y="-126.5" font-family="Helvetica,sans-Serif" font-size="10.00" fill="#000000">MonitorWindow.h</text>
</a>
</g>
</g>
<!-- Node1&#45;&gt;Node2 -->
<g id="edge2" class="edge">
<title>Node1&#45;&gt;Node2</title>
<path fill="none" stroke="#191970" d="M1567.1139,-182.9026C1431.2848,-177.3888 971.998,-158.4261 592.7437,-139 556.6727,-137.1524 516.1815,-134.8249 484.338,-132.9361"/>
<polygon fill="#191970" stroke="#191970" points="484.51,-129.4402 474.3196,-132.3395 484.0938,-136.4279 484.51,-129.4402"/>
</g>
<!-- Node6 -->
<g id="node7" class="node">
<title>Node6</title>
<g id="a_node7"><a xlink:title=" ">
<polygon fill="#ffffff" stroke="#bfbfbf" points="430.2266,-60.5 430.2266,-78.5 501.2607,-78.5 501.2607,-60.5 430.2266,-60.5"/>
<text text-anchor="middle" x="465.7437" y="-66.5" font-family="Helvetica,sans-Serif" font-size="10.00" fill="#000000">QBoxLayout</text>
</a>
</g>
</g>
<!-- Node1&#45;&gt;Node6 -->
<g id="edge62" class="edge">
<title>Node1&#45;&gt;Node6</title>
<path fill="none" stroke="#191970" d="M1567.0895,-183.3027C1420.7022,-178.7415 910.8541,-161.5659 749.7437,-139 641.3698,-123.8206 615.1579,-113.3794 509.7437,-84 507.1457,-83.276 504.4735,-82.4928 501.791,-81.6785"/>
<polygon fill="#191970" stroke="#191970" points="502.7357,-78.3066 492.1462,-78.6428 500.6341,-84.9837 502.7357,-78.3066"/>
</g>
<!-- Node9 -->
<g id="node10" class="node">
<title>Node9</title>
<g id="a_node10"><a xlink:title=" ">
<polygon fill="#ffffff" stroke="#bfbfbf" points="519.0024,-60.5 519.0024,-78.5 594.4849,-78.5 594.4849,-60.5 519.0024,-60.5"/>
<text text-anchor="middle" x="556.7437" y="-66.5" font-family="Helvetica,sans-Serif" font-size="10.00" fill="#000000">QPushButton</text>
</a>
</g>
</g>
<!-- Node1&#45;&gt;Node9 -->
<g id="edge60" class="edge">
<title>Node1&#45;&gt;Node9</title>
<path fill="none" stroke="#191970" d="M1567.0615,-184.0061C1456.3773,-182.2072 1135.0269,-174.1103 870.7437,-139 750.2091,-122.9869 720.4393,-114.5403 602.7437,-84 599.76,-83.2258 596.6832,-82.3744 593.6018,-81.484"/>
<polygon fill="#191970" stroke="#191970" points="594.4365,-78.0803 583.8522,-78.5543 592.4219,-84.7842 594.4365,-78.0803"/>
</g>
<!-- Node12 -->
<g id="node13" class="node">
<title>Node12</title>
<g id="a_node13"><a xlink:href="_interpret_window_8h.html" target="_top" xlink:title=" ">
<polygon fill="#ffffff" stroke="#000000" points="928.4434,-120.5 928.4434,-138.5 1025.0439,-138.5 1025.0439,-120.5 928.4434,-120.5"/>
<text text-anchor="middle" x="976.7437" y="-126.5" font-family="Helvetica,sans-Serif" font-size="10.00" fill="#000000">InterpretWindow.h</text>
</a>
</g>
</g>
<!-- Node1&#45;&gt;Node12 -->
<g id="edge12" class="edge">
<title>Node1&#45;&gt;Node12</title>
<path fill="none" stroke="#191970" d="M1567.3343,-181.0595C1460.1707,-171.7039 1162.9931,-145.7599 1035.7729,-134.6533"/>
<polygon fill="#191970" stroke="#191970" points="1035.721,-131.1356 1025.4544,-133.7525 1035.1121,-138.1091 1035.721,-131.1356"/>
</g>
<!-- Node13 -->
<g id="node14" class="node">
<title>Node13</title>
<g id="a_node14"><a xlink:title=" ">
<polygon fill="#ffffff" stroke="#bfbfbf" points="805.6206,-60.5 805.6206,-78.5 853.8667,-78.5 853.8667,-60.5 805.6206,-60.5"/>
<text text-anchor="middle" x="829.7437" y="-66.5" font-family="Helvetica,sans-Serif" font-size="10.00" fill="#000000">QLabel</text>
</a>
</g>
</g>
<!-- Node1&#45;&gt;Node13 -->
<g id="edge63" class="edge">
<title>Node1&#45;&gt;Node13</title>
<path fill="none" stroke="#191970" d="M1566.8802,-183.5263C1426.8445,-179.8869 962.6043,-165.8938 901.7437,-139 876.5364,-127.8611 854.9237,-103.8424 842.1291,-87.1819"/>
<polygon fill="#191970" stroke="#191970" points="844.7112,-84.7858 835.9614,-78.8116 839.0759,-88.9383 844.7112,-84.7858"/>
</g>
<!-- Node14 -->
<g id="node15" class="node">
<title>Node14</title>
<g id="a_node15"><a xlink:title=" ">
<polygon fill="#ffffff" stroke="#bfbfbf" points="871.8496,-60.5 871.8496,-78.5 915.6377,-78.5 915.6377,-60.5 871.8496,-60.5"/>
<text text-anchor="middle" x="893.7437" y="-66.5" font-family="Helvetica,sans-Serif" font-size="10.00" fill="#000000">QFont</text>
</a>
</g>
</g>
<!-- Node1&#45;&gt;Node14 -->
<g id="edge66" class="edge">
<title>Node1&#45;&gt;Node14</title>
<path fill="none" stroke="#191970" d="M1567.0643,-183.0566C1424.5871,-177.7212 945.8502,-158.4161 919.7437,-139 903.9536,-127.2565 897.7501,-104.7834 895.3146,-88.5659"/>
<polygon fill="#191970" stroke="#191970" points="898.7818,-88.0797 894.1589,-78.5466 891.8279,-88.8818 898.7818,-88.0797"/>
</g>
<!-- Node20 -->
<g id="node21" class="node">
<title>Node20</title>
<g id="a_node21"><a xlink:title=" ">
<polygon fill="#ffffff" stroke="#bfbfbf" points="1350.5713,-60.5 1350.5713,-78.5 1404.916,-78.5 1404.916,-60.5 1350.5713,-60.5"/>
<text text-anchor="middle" x="1377.7437" y="-66.5" font-family="Helvetica,sans-Serif" font-size="10.00" fill="#000000">iostream</text>
</a>
</g>
</g>
<!-- Node1&#45;&gt;Node20 -->
<g id="edge67" class="edge">
<title>Node1&#45;&gt;Node20</title>
<path fill="none" stroke="#191970" d="M1588.7744,-175.4761C1548.8241,-155.4137 1452.4323,-107.0074 1405.0148,-83.1951"/>
<polygon fill="#191970" stroke="#191970" points="1406.4535,-80.0011 1395.9463,-78.6411 1403.312,-86.2566 1406.4535,-80.0011"/>
</g>
<!-- Node23 -->
<g id="node23" class="node">
<title>Node23</title>
<g id="a_node23"><a xlink:href="_train_window_8h.html" target="_top" xlink:title=" ">
<polygon fill="#ffffff" stroke="#000000" points="1565.8555,-120.5 1565.8555,-138.5 1647.6318,-138.5 1647.6318,-120.5 1565.8555,-120.5"/>
<text text-anchor="middle" x="1606.7437" y="-126.5" font-family="Helvetica,sans-Serif" font-size="10.00" fill="#000000">TrainWindow.h</text>
</a>
</g>
</g>
<!-- Node1&#45;&gt;Node23 -->
<g id="edge27" class="edge">
<title>Node1&#45;&gt;Node23</title>
<path fill="none" stroke="#191970" d="M1606.7437,-175.4179C1606.7437,-168.2164 1606.7437,-157.8962 1606.7437,-148.8632"/>
<polygon fill="#191970" stroke="#191970" points="1610.2438,-148.7794 1606.7437,-138.7795 1603.2438,-148.7795 1610.2438,-148.7794"/>
</g>
<!-- Node24 -->
<g id="node24" class="node">
<title>Node24</title>
<g id="a_node24"><a xlink:href="config_8h.html" target="_top" xlink:title=" ">
<polygon fill="#ffffff" stroke="#000000" points="1490.2314,-60.5 1490.2314,-78.5 1541.2559,-78.5 1541.2559,-60.5 1490.2314,-60.5"/>
<text text-anchor="middle" x="1515.7437" y="-66.5" font-family="Helvetica,sans-Serif" font-size="10.00" fill="#000000">config.h</text>
</a>
</g>
</g>
<!-- Node1&#45;&gt;Node24 -->
<g id="edge58" class="edge">
<title>Node1&#45;&gt;Node24</title>
<path fill="none" stroke="#191970" d="M1594.6871,-175.265C1583.9247,-166.6402 1568.1472,-153.0232 1556.7437,-139 1543.6737,-122.9275 1532.0228,-102.2335 1524.5127,-87.6199"/>
<polygon fill="#191970" stroke="#191970" points="1527.6092,-85.9865 1520.0083,-78.6057 1521.3475,-89.1156 1527.6092,-85.9865"/>
</g>
<!-- Node34 -->
<g id="node33" class="node">
<title>Node34</title>
<g id="a_node33"><a xlink:href="_filter_bank_8h.html" target="_top" xlink:title=" ">
<polygon fill="#ffffff" stroke="#000000" points="1893.8989,-120.5 1893.8989,-138.5 1971.5884,-138.5 1971.5884,-120.5 1893.8989,-120.5"/>
<text text-anchor="middle" x="1932.7437" y="-126.5" font-family="Helvetica,sans-Serif" font-size="10.00" fill="#000000">../FilterBank.h</text>
</a>
</g>
</g>
<!-- Node1&#45;&gt;Node34 -->
<g id="edge47" class="edge">
<title>Node1&#45;&gt;Node34</title>
<path fill="none" stroke="#191970" d="M1646.3917,-177.8109C1706.1486,-167.7292 1819.1716,-148.6609 1883.9163,-137.7377"/>
<polygon fill="#191970" stroke="#191970" points="1884.599,-141.1721 1893.8774,-136.0572 1883.4344,-134.2697 1884.599,-141.1721"/>
</g>
<!-- Node36 -->
<g id="node35" class="node">
<title>Node36</title>
<g id="a_node35"><a xlink:href="_sample_timer_8h.html" target="_top" xlink:title=" ">
<polygon fill="#ffffff" stroke="#ff0000" points="2245.3013,-120.5 2245.3013,-138.5 2328.186,-138.5 2328.186,-120.5 2245.3013,-120.5"/>
<text text-anchor="middle" x="2286.7437" y="-126.5" font-family="Helvetica,sans-Serif" font-size="10.00" fill="#000000">SampleTimer.h</text>
</a>
</g>
</g>
<!-- Node1&#45;&gt;Node36 -->
<g id="edge49" class="edge">
<title>Node1&#45;&gt;Node36</title>
<path fill="none" stroke="#191970" d="M1646.2425,-181.3052C1762.5683,-171.8965 2103.9115,-144.2879 2234.8186,-133.6998"/>
<polygon fill="#191970" stroke="#191970" points="2235.2971,-137.1726 2244.9823,-132.8778 2234.7327,-130.1954 2235.2971,-137.1726"/>
</g>
<!-- Node48 -->
<g id="node43" class="node">
<title>Node48</title>
<g id="a_node43"><a xlink:title=" ">
<polygon fill="#ffffff" stroke="#bfbfbf" points="2346.2339,-120.5 2346.2339,-138.5 2427.2534,-138.5 2427.2534,-120.5 2346.2339,-120.5"/>
<text text-anchor="middle" x="2386.7437" y="-126.5" font-family="Helvetica,sans-Serif" font-size="10.00" fill="#000000">QMainWindow</text>
</a>
</g>
</g>
<!-- Node1&#45;&gt;Node48 -->
<g id="edge59" class="edge">
<title>Node1&#45;&gt;Node48</title>
<path fill="none" stroke="#191970" d="M1646.4725,-183.7742C1755.2126,-181.4153 2066.9462,-172.1605 2336.1902,-138.898"/>
<polygon fill="#191970" stroke="#191970" points="2336.663,-142.3662 2346.1522,-137.6538 2335.7955,-135.4202 2336.663,-142.3662"/>
</g>
<!-- Node49 -->
<g id="node44" class="node">
<title>Node49</title>
<g id="a_node44"><a xlink:title=" ">
<polygon fill="#ffffff" stroke="#bfbfbf" points="2444.8423,-120.5 2444.8423,-138.5 2498.645,-138.5 2498.645,-120.5 2444.8423,-120.5"/>
<text text-anchor="middle" x="2471.7437" y="-126.5" font-family="Helvetica,sans-Serif" font-size="10.00" fill="#000000">QLayout</text>
</a>
</g>
</g>
<!-- Node1&#45;&gt;Node49 -->
<g id="edge61" class="edge">
<title>Node1&#45;&gt;Node49</title>
<path fill="none" stroke="#191970" d="M1646.406,-183.4317C1787.0859,-179.4738 2262.551,-164.6137 2434.8056,-138.9789"/>
<polygon fill="#191970" stroke="#191970" points="2435.3908,-142.43 2444.7337,-137.4341 2434.3145,-135.5133 2435.3908,-142.43"/>
</g>
<!-- Node50 -->
<g id="node45" class="node">
<title>Node50</title>
<g id="a_node45"><a xlink:title=" ">
<polygon fill="#ffffff" stroke="#bfbfbf" points="2516.1821,-120.5 2516.1821,-138.5 2573.3052,-138.5 2573.3052,-120.5 2516.1821,-120.5"/>
<text text-anchor="middle" x="2544.7437" y="-126.5" font-family="Helvetica,sans-Serif" font-size="10.00" fill="#000000">QPixmap</text>
</a>
</g>
</g>
<!-- Node1&#45;&gt;Node50 -->
<g id="edge64" class="edge">
<title>Node1&#45;&gt;Node50</title>
<path fill="none" stroke="#191970" d="M1646.3628,-183.5583C1794.7791,-179.8693 2318.5012,-165.3619 2506.1649,-138.9111"/>
<polygon fill="#191970" stroke="#191970" points="2506.7931,-142.3565 2516.1775,-137.439 2505.7748,-135.431 2506.7931,-142.3565"/>
</g>
<!-- Node51 -->
<g id="node46" class="node">
<title>Node51</title>
<g id="a_node46"><a xlink:title=" ">
<polygon fill="#ffffff" stroke="#bfbfbf" points="2591.2266,-120.5 2591.2266,-138.5 2662.2607,-138.5 2662.2607,-120.5 2591.2266,-120.5"/>
<text text-anchor="middle" x="2626.7437" y="-126.5" font-family="Helvetica,sans-Serif" font-size="10.00" fill="#000000">QToolButton</text>
</a>
</g>
</g>
<!-- Node1&#45;&gt;Node51 -->
<g id="edge65" class="edge">
<title>Node1&#45;&gt;Node51</title>
<path fill="none" stroke="#191970" d="M1646.3321,-183.5328C1802.5843,-179.5819 2377.4527,-163.7512 2580.8313,-139.0268"/>
<polygon fill="#191970" stroke="#191970" points="2581.3272,-142.492 2590.81,-137.767 2580.4504,-135.5472 2581.3272,-142.492"/>
</g>
<!-- Node52 -->
<g id="node47" class="node">
<title>Node52</title>
<g id="a_node47"><a xlink:title=" ">
<polygon fill="#ffffff" stroke="#bfbfbf" points="2680.1279,-120.5 2680.1279,-138.5 2723.3594,-138.5 2723.3594,-120.5 2680.1279,-120.5"/>
<text text-anchor="middle" x="2701.7437" y="-126.5" font-family="Helvetica,sans-Serif" font-size="10.00" fill="#000000">cmath</text>
</a>
</g>
</g>
<!-- Node1&#45;&gt;Node52 -->
<g id="edge68" class="edge">
<title>Node1&#45;&gt;Node52</title>
<path fill="none" stroke="#191970" d="M1646.2665,-184.2047C1811.6316,-182.7582 2449.2807,-175.0219 2670.0737,-138.8215"/>
<polygon fill="#191970" stroke="#191970" points="2670.6883,-142.2673 2679.9554,-137.1321 2669.5086,-135.3674 2670.6883,-142.2673"/>
</g>
<!-- Node3 -->
<g id="node4" class="node">
<title>Node3</title>
<g id="a_node4"><a xlink:title=" ">
<polygon fill="#ffffff" stroke="#bfbfbf" points="0,-60.5 0,-78.5 85.4873,-78.5 85.4873,-60.5 0,-60.5"/>
<text text-anchor="middle" x="42.7437" y="-66.5" font-family="Helvetica,sans-Serif" font-size="10.00" fill="#000000">qwt/qwt_knob.h</text>
</a>
</g>
</g>
<!-- Node2&#45;&gt;Node3 -->
<g id="edge3" class="edge">
<title>Node2&#45;&gt;Node3</title>
<path fill="none" stroke="#191970" d="M381.3495,-125.1765C316.6946,-118.6949 196.0266,-104.9392 94.7437,-84 90.6651,-83.1568 86.4357,-82.1694 82.2307,-81.1134"/>
<polygon fill="#191970" stroke="#191970" points="83.1075,-77.725 72.5456,-78.56 81.3229,-84.4937 83.1075,-77.725"/>
</g>
<!-- Node4 -->
<g id="node5" class="node">
<title>Node4</title>
<g id="a_node5"><a xlink:title=" ">
<polygon fill="#ffffff" stroke="#bfbfbf" points="103.7808,-60.5 103.7808,-78.5 183.7065,-78.5 183.7065,-60.5 103.7808,-60.5"/>
<text text-anchor="middle" x="143.7437" y="-66.5" font-family="Helvetica,sans-Serif" font-size="10.00" fill="#000000">qwt/qwt_plot.h</text>
</a>
</g>
</g>
<!-- Node2&#45;&gt;Node4 -->
<g id="edge4" class="edge">
<title>Node2&#45;&gt;Node4</title>
<path fill="none" stroke="#191970" d="M381.0841,-121.8333C333.4579,-113.6883 257.5381,-99.8205 192.7437,-84 189.3663,-83.1754 185.8748,-82.2634 182.3831,-81.3102"/>
<polygon fill="#191970" stroke="#191970" points="183.2125,-77.9076 172.6374,-78.5529 181.3068,-84.6432 183.2125,-77.9076"/>
</g>
<!-- Node5 -->
<g id="node6" class="node">
<title>Node5</title>
<g id="a_node6"><a xlink:title=" ">
<polygon fill="#ffffff" stroke="#bfbfbf" points="201.7734,-60.5 201.7734,-78.5 311.7139,-78.5 311.7139,-60.5 201.7734,-60.5"/>
<text text-anchor="middle" x="256.7437" y="-66.5" font-family="Helvetica,sans-Serif" font-size="10.00" fill="#000000">qwt/qwt_plot_curve.h</text>
</a>
</g>
</g>
<!-- Node2&#45;&gt;Node5 -->
<g id="edge5" class="edge">
<title>Node2&#45;&gt;Node5</title>
<path fill="none" stroke="#191970" d="M401.7724,-120.3873C372.4759,-110.1078 324.6679,-93.3331 292.0104,-81.8743"/>
<polygon fill="#191970" stroke="#191970" points="292.9938,-78.5102 282.399,-78.5019 290.6762,-85.1154 292.9938,-78.5102"/>
</g>
<!-- Node2&#45;&gt;Node6 -->
<g id="edge6" class="edge">
<title>Node2&#45;&gt;Node6</title>
<path fill="none" stroke="#191970" d="M433.515,-120.3873C439.0391,-111.665 447.525,-98.2663 454.4027,-87.4067"/>
<polygon fill="#191970" stroke="#191970" points="457.5243,-89.0194 459.918,-78.6985 451.6105,-85.274 457.5243,-89.0194"/>
</g>
<!-- Node7 -->
<g id="node8" class="node">
<title>Node7</title>
<g id="a_node8"><a xlink:title=" ">
<polygon fill="#ffffff" stroke="#bfbfbf" points="1149.9063,-.5 1149.9063,-18.5 1197.5811,-18.5 1197.5811,-.5 1149.9063,-.5"/>
<text text-anchor="middle" x="1173.7437" y="-6.5" font-family="Helvetica,sans-Serif" font-size="10.00" fill="#000000">QColor</text>
</a>
</g>
</g>
<!-- Node2&#45;&gt;Node7 -->
<g id="edge7" class="edge">
<title>Node2&#45;&gt;Node7</title>
<path fill="none" stroke="#191970" d="M402.9176,-120.3658C387.169,-113.1227 368.0632,-101.3089 358.7437,-84 352.6333,-72.6515 349.8875,-64.3644 358.7437,-55 385.9933,-26.1866 988.8813,-12.9713 1139.7538,-10.1084"/>
<polygon fill="#191970" stroke="#191970" points="1139.8886,-13.6066 1149.8213,-9.9201 1139.7576,-6.6078 1139.8886,-13.6066"/>
</g>
<!-- Node8 -->
<g id="node9" class="node">
<title>Node8</title>
<g id="a_node9"><a xlink:title=" ">
<polygon fill="#ffffff" stroke="#bfbfbf" points="612.0664,-60.5 612.0664,-78.5 681.4209,-78.5 681.4209,-60.5 612.0664,-60.5"/>
<text text-anchor="middle" x="646.7437" y="-66.5" font-family="Helvetica,sans-Serif" font-size="10.00" fill="#000000">QCheckBox</text>
</a>
</g>
</g>
<!-- Node2&#45;&gt;Node8 -->
<g id="edge8" class="edge">
<title>Node2&#45;&gt;Node8</title>
<path fill="none" stroke="#191970" d="M466.0719,-120.4377C501.8733,-111.7733 556.7044,-97.9915 603.7437,-84 606.1884,-83.2728 608.7025,-82.4977 611.2293,-81.6983"/>
<polygon fill="#191970" stroke="#191970" points="612.4922,-84.9681 620.9184,-78.5455 610.3261,-78.3116 612.4922,-84.9681"/>
</g>
<!-- Node2&#45;&gt;Node9 -->
<g id="edge9" class="edge">
<title>Node2&#45;&gt;Node9</title>
<path fill="none" stroke="#191970" d="M447.336,-120.3873C468.8653,-110.3737 503.6464,-94.1964 528.205,-82.7738"/>
<polygon fill="#191970" stroke="#191970" points="529.7985,-85.8928 537.3896,-78.5019 526.8463,-79.5457 529.7985,-85.8928"/>
</g>
<!-- Node10 -->
<g id="node11" class="node">
<title>Node10</title>
<g id="a_node11"><a xlink:title=" ">
<polygon fill="#ffffff" stroke="#bfbfbf" points="699.793,-60.5 699.793,-78.5 749.6943,-78.5 749.6943,-60.5 699.793,-60.5"/>
<text text-anchor="middle" x="724.7437" y="-66.5" font-family="Helvetica,sans-Serif" font-size="10.00" fill="#000000">QString</text>
</a>
</g>
</g>
<!-- Node2&#45;&gt;Node10 -->
<g id="edge10" class="edge">
<title>Node2&#45;&gt;Node10</title>
<path fill="none" stroke="#191970" d="M474.5722,-124.7187C527.7557,-118.5288 616.7513,-105.8558 690.7437,-84 692.4361,-83.5001 694.1572,-82.9403 695.8814,-82.3392"/>
<polygon fill="#191970" stroke="#191970" points="697.5474,-85.4475 705.6107,-78.5748 695.0214,-78.9191 697.5474,-85.4475"/>
</g>
<!-- Node11 -->
<g id="node12" class="node">
<title>Node11</title>
<g id="a_node12"><a xlink:title=" ">
<polygon fill="#ffffff" stroke="#bfbfbf" points="367.5664,-60.5 367.5664,-78.5 411.9209,-78.5 411.9209,-60.5 367.5664,-60.5"/>
<text text-anchor="middle" x="389.7437" y="-66.5" font-family="Helvetica,sans-Serif" font-size="10.00" fill="#000000">thread</text>
</a>
</g>
</g>
<!-- Node2&#45;&gt;Node11 -->
<g id="edge11" class="edge">
<title>Node2&#45;&gt;Node11</title>
<path fill="none" stroke="#191970" d="M421.9723,-120.3873C416.4482,-111.665 407.9623,-98.2663 401.0846,-87.4067"/>
<polygon fill="#191970" stroke="#191970" points="403.8768,-85.274 395.5693,-78.6985 397.963,-89.0194 403.8768,-85.274"/>
</g>
<!-- Node12&#45;&gt;Node6 -->
<g id="edge13" class="edge">
<title>Node12&#45;&gt;Node6</title>
<path fill="none" stroke="#191970" d="M928.1414,-128.2949C842.6588,-125.3951 660.1944,-115.7107 509.7437,-84 506.5169,-83.3199 503.1951,-82.4857 499.8915,-81.5643"/>
<polygon fill="#191970" stroke="#191970" points="500.7341,-78.1623 490.1485,-78.6048 498.6996,-84.8602 500.7341,-78.1623"/>
</g>
<!-- Node12&#45;&gt;Node7 -->
<g id="edge14" class="edge">
<title>Node12&#45;&gt;Node7</title>
<path fill="none" stroke="#191970" d="M928.4424,-125.8018C862.3405,-118.9803 756.2457,-100.6795 796.7437,-55 819.333,-29.5204 1051.005,-15.5322 1139.5721,-11.0825"/>
<polygon fill="#191970" stroke="#191970" points="1139.824,-14.5745 1149.6398,-10.587 1139.4798,-7.5829 1139.824,-14.5745"/>
</g>
<!-- Node12&#45;&gt;Node8 -->
<g id="edge15" class="edge">
<title>Node12&#45;&gt;Node8</title>
<path fill="none" stroke="#191970" d="M928.2948,-122.7537C858.9338,-112.931 734.8392,-94.7 690.7437,-84 687.7906,-83.2834 684.7508,-82.4625 681.7143,-81.5837"/>
<polygon fill="#191970" stroke="#191970" points="682.7234,-78.2324 672.1362,-78.6363 680.6645,-84.9228 682.7234,-78.2324"/>
</g>
<!-- Node12&#45;&gt;Node9 -->
<g id="edge16" class="edge">
<title>Node12&#45;&gt;Node9</title>
<path fill="none" stroke="#191970" d="M928.1522,-126.4591C856.3506,-121.3209 717.9742,-108.9476 602.7437,-84 599.3678,-83.2691 595.8855,-82.3973 592.4188,-81.449"/>
<polygon fill="#191970" stroke="#191970" points="593.3719,-78.0811 582.7911,-78.6271 591.403,-84.7985 593.3719,-78.0811"/>
</g>
<!-- Node12&#45;&gt;Node10 -->
<g id="edge17" class="edge">
<title>Node12&#45;&gt;Node10</title>
<path fill="none" stroke="#191970" d="M928.0254,-121.1814C884.5261,-113.2613 819.2936,-100.1666 763.7437,-84 761.6022,-83.3768 759.41,-82.693 757.2104,-81.9723"/>
<polygon fill="#191970" stroke="#191970" points="758.2494,-78.628 747.6546,-78.6496 755.9505,-85.2398 758.2494,-78.628"/>
</g>
<!-- Node12&#45;&gt;Node13 -->
<g id="edge18" class="edge">
<title>Node12&#45;&gt;Node13</title>
<path fill="none" stroke="#191970" d="M953.5051,-120.494C930.4009,-111.477 893.9927,-97.0969 862.7437,-84 861.5749,-83.5102 860.3846,-83.0071 859.1835,-82.496"/>
<polygon fill="#191970" stroke="#191970" points="860.509,-79.256 849.9408,-78.5051 857.7341,-85.6826 860.509,-79.256"/>
</g>
<!-- Node12&#45;&gt;Node14 -->
<g id="edge19" class="edge">
<title>Node12&#45;&gt;Node14</title>
<path fill="none" stroke="#191970" d="M964.1377,-120.3873C951.0211,-110.9054 930.2594,-95.897 914.6761,-84.6319"/>
<polygon fill="#191970" stroke="#191970" points="916.351,-81.5239 906.1962,-78.5019 912.25,-87.1969 916.351,-81.5239"/>
</g>
<!-- Node15 -->
<g id="node16" class="node">
<title>Node15</title>
<g id="a_node16"><a xlink:title=" ">
<polygon fill="#ffffff" stroke="#bfbfbf" points="1423.2617,-60.5 1423.2617,-78.5 1472.2256,-78.5 1472.2256,-60.5 1423.2617,-60.5"/>
<text text-anchor="middle" x="1447.7437" y="-66.5" font-family="Helvetica,sans-Serif" font-size="10.00" fill="#000000">QTimer</text>
</a>
</g>
</g>
<!-- Node12&#45;&gt;Node15 -->
<g id="edge20" class="edge">
<title>Node12&#45;&gt;Node15</title>
<path fill="none" stroke="#191970" d="M1025.2065,-126.2881C1123.1056,-119.4994 1341.2865,-102.7663 1413.7437,-84 1415.7005,-83.4932 1417.6905,-82.8915 1419.676,-82.2261"/>
<polygon fill="#191970" stroke="#191970" points="1421.3003,-85.3522 1429.3901,-78.5107 1418.7996,-78.8141 1421.3003,-85.3522"/>
</g>
<!-- Node16 -->
<g id="node17" class="node">
<title>Node16</title>
<g id="a_node17"><a xlink:title=" ">
<polygon fill="#ffffff" stroke="#bfbfbf" points="933.4458,-60.5 933.4458,-78.5 1020.0415,-78.5 1020.0415,-60.5 933.4458,-60.5"/>
<text text-anchor="middle" x="976.7437" y="-66.5" font-family="Helvetica,sans-Serif" font-size="10.00" fill="#000000">QTextToSpeech</text>
</a>
</g>
</g>
<!-- Node12&#45;&gt;Node16 -->
<g id="edge21" class="edge">
<title>Node12&#45;&gt;Node16</title>
<path fill="none" stroke="#191970" d="M976.7437,-120.3873C976.7437,-112.0174 976.7437,-99.3414 976.7437,-88.735"/>
<polygon fill="#191970" stroke="#191970" points="980.2438,-88.6984 976.7437,-78.6985 973.2438,-88.6985 980.2438,-88.6984"/>
</g>
<!-- Node17 -->
<g id="node18" class="node">
<title>Node17</title>
<g id="a_node18"><a xlink:title=" ">
<polygon fill="#ffffff" stroke="#bfbfbf" points="1037.8916,-60.5 1037.8916,-78.5 1115.5957,-78.5 1115.5957,-60.5 1037.8916,-60.5"/>
<text text-anchor="middle" x="1076.7437" y="-66.5" font-family="Helvetica,sans-Serif" font-size="10.00" fill="#000000">QVBoxLayout</text>
</a>
</g>
</g>
<!-- Node12&#45;&gt;Node17 -->
<g id="edge22" class="edge">
<title>Node12&#45;&gt;Node17</title>
<path fill="none" stroke="#191970" d="M991.9315,-120.3873C1008.1778,-110.6395 1034.1586,-95.051 1053.088,-83.6934"/>
<polygon fill="#191970" stroke="#191970" points="1054.9663,-86.6481 1061.7405,-78.5019 1051.3648,-80.6456 1054.9663,-86.6481"/>
</g>
<!-- Node18 -->
<g id="node19" class="node">
<title>Node18</title>
<g id="a_node19"><a xlink:title=" ">
<polygon fill="#ffffff" stroke="#bfbfbf" points="1134.0664,-60.5 1134.0664,-78.5 1213.4209,-78.5 1213.4209,-60.5 1134.0664,-60.5"/>
<text text-anchor="middle" x="1173.7437" y="-66.5" font-family="Helvetica,sans-Serif" font-size="10.00" fill="#000000">QProgressBar</text>
</a>
</g>
</g>
<!-- Node12&#45;&gt;Node18 -->
<g id="edge23" class="edge">
<title>Node12&#45;&gt;Node18</title>
<path fill="none" stroke="#191970" d="M1006.6637,-120.3873C1040.8511,-109.9749 1096.9197,-92.8982 1134.5654,-81.4325"/>
<polygon fill="#191970" stroke="#191970" points="1135.6411,-84.7636 1144.1875,-78.5019 1133.6016,-78.0673 1135.6411,-84.7636"/>
</g>
<!-- Node12&#45;&gt;Node19 -->
<g id="edge24" class="edge">
<title>Node12&#45;&gt;Node19</title>
<path fill="none" stroke="#191970" d="M1025.068,-128.9151C1243.03,-126.1228 2129.2171,-113.0632 2249.7437,-84 2251.4512,-83.5883 2253.1778,-83.0782 2254.8962,-82.4981"/>
<polygon fill="#191970" stroke="#191970" points="2256.5172,-85.6172 2264.4601,-78.6057 2253.8784,-79.1336 2256.5172,-85.6172"/>
</g>
<!-- Node12&#45;&gt;Node20 -->
<g id="edge25" class="edge">
<title>Node12&#45;&gt;Node20</title>
<path fill="none" stroke="#191970" d="M1025.3187,-127.4392C1095.9761,-123.5481 1230.7798,-112.7428 1341.7437,-84 1343.9165,-83.4372 1346.1335,-82.7753 1348.3462,-82.0497"/>
<polygon fill="#191970" stroke="#191970" points="1349.6793,-85.289 1357.871,-78.5698 1347.2771,-78.714 1349.6793,-85.289"/>
</g>
<!-- Node21 -->
<g id="node22" class="node">
<title>Node21</title>
<g id="a_node22"><a xlink:href="_neural_net_8h.html" target="_top" xlink:title=" ">
<polygon fill="#ffffff" stroke="#ff0000" points="1230.9385,-55.5 1230.9385,-83.5 1332.5488,-83.5 1332.5488,-55.5 1230.9385,-55.5"/>
<text text-anchor="start" x="1238.9385" y="-71.5" font-family="Helvetica,sans-Serif" font-size="10.00" fill="#000000">../neuralnet_predict</text>
<text text-anchor="middle" x="1281.7437" y="-61.5" font-family="Helvetica,sans-Serif" font-size="10.00" fill="#000000">/NeuralNet.h</text>
</a>
</g>
</g>
<!-- Node12&#45;&gt;Node21 -->
<g id="edge26" class="edge">
<title>Node12&#45;&gt;Node21</title>
<path fill="none" stroke="#191970" d="M1025.4527,-121.3504C1073.0646,-113.1916 1147.8259,-99.8704 1221.0827,-84.2959"/>
<polygon fill="#191970" stroke="#191970" points="1221.8932,-87.7017 1230.9382,-82.1847 1220.4269,-80.857 1221.8932,-87.7017"/>
</g>
<!-- Node23&#45;&gt;Node6 -->
<g id="edge29" class="edge">
<title>Node23&#45;&gt;Node6</title>
<path fill="none" stroke="#191970" d="M1565.7306,-129.314C1392.2698,-128.2942 718.2637,-121.9217 509.7437,-84 506.2346,-83.3618 502.6211,-82.5097 499.0445,-81.5369"/>
<polygon fill="#191970" stroke="#191970" points="499.7652,-78.0983 489.1801,-78.553 497.7384,-84.7985 499.7652,-78.0983"/>
</g>
<!-- Node23&#45;&gt;Node7 -->
<g id="edge30" class="edge">
<title>Node23&#45;&gt;Node7</title>
<path fill="none" stroke="#191970" d="M1602.8067,-120.2607C1595.3224,-103.9577 1577.3746,-70.36 1550.7437,-55 1492.7418,-21.5461 1289.4253,-12.5349 1207.9197,-10.2398"/>
<polygon fill="#191970" stroke="#191970" points="1207.7913,-6.7353 1197.7023,-9.9697 1207.6062,-13.7328 1207.7913,-6.7353"/>
</g>
<!-- Node23&#45;&gt;Node8 -->
<g id="edge31" class="edge">
<title>Node23&#45;&gt;Node8</title>
<path fill="none" stroke="#191970" d="M1565.6127,-128.9223C1410.6445,-126.5184 862.1512,-115.8971 690.7437,-84 687.2373,-83.3475 683.6255,-82.486 680.0499,-81.5074"/>
<polygon fill="#191970" stroke="#191970" points="680.7723,-78.0692 670.1869,-78.5162 678.7407,-84.7679 680.7723,-78.0692"/>
</g>
<!-- Node23&#45;&gt;Node9 -->
<g id="edge32" class="edge">
<title>Node23&#45;&gt;Node9</title>
<path fill="none" stroke="#191970" d="M1565.6649,-129.0603C1401.511,-127.0834 792.3786,-117.5923 602.7437,-84 598.8659,-83.3131 594.8603,-82.3892 590.9049,-81.3385"/>
<polygon fill="#191970" stroke="#191970" points="591.8571,-77.9705 581.277,-78.5286 589.8959,-84.6901 591.8571,-77.9705"/>
</g>
<!-- Node23&#45;&gt;Node10 -->
<g id="edge33" class="edge">
<title>Node23&#45;&gt;Node10</title>
<path fill="none" stroke="#191970" d="M1565.6436,-127.9684C1422.7356,-122.5213 947.9741,-103.3751 796.7437,-84 784.6138,-82.446 771.4672,-80.0212 759.7682,-77.5963"/>
<polygon fill="#191970" stroke="#191970" points="760.433,-74.1594 749.9217,-75.4871 758.9668,-81.0041 760.433,-74.1594"/>
</g>
<!-- Node23&#45;&gt;Node13 -->
<g id="edge34" class="edge">
<title>Node23&#45;&gt;Node13</title>
<path fill="none" stroke="#191970" d="M1565.5369,-128.8835C1429.8171,-126.5554 997.7937,-116.697 862.7437,-84 860.7822,-83.5251 858.7912,-82.9397 856.8092,-82.2793"/>
<polygon fill="#191970" stroke="#191970" points="857.7418,-78.8863 847.1535,-78.5149 855.1992,-85.4082 857.7418,-78.8863"/>
</g>
<!-- Node23&#45;&gt;Node14 -->
<g id="edge35" class="edge">
<title>Node23&#45;&gt;Node14</title>
<path fill="none" stroke="#191970" d="M1565.8416,-128.7479C1437.9898,-126.0871 1047.1293,-115.5193 924.7437,-84 923.0427,-83.5619 921.3212,-83.0317 919.6065,-82.4364"/>
<polygon fill="#191970" stroke="#191970" points="920.632,-79.0736 910.0525,-78.5044 917.9679,-85.5469 920.632,-79.0736"/>
</g>
<!-- Node23&#45;&gt;Node15 -->
<g id="edge38" class="edge">
<title>Node23&#45;&gt;Node15</title>
<path fill="none" stroke="#191970" d="M1579.9995,-120.4298C1554.3582,-111.5956 1514.6496,-97.5531 1480.7437,-84 1479.567,-83.5296 1478.37,-83.043 1477.1632,-82.5455"/>
<polygon fill="#191970" stroke="#191970" points="1478.4695,-79.2978 1467.8969,-78.6124 1475.7345,-85.7414 1478.4695,-79.2978"/>
</g>
<!-- Node23&#45;&gt;Node19 -->
<g id="edge45" class="edge">
<title>Node23&#45;&gt;Node19</title>
<path fill="none" stroke="#191970" d="M1647.8926,-128.5499C1771.0348,-125.398 2135.1971,-113.7465 2249.7437,-84 2251.4042,-83.5688 2253.0846,-83.0504 2254.7591,-82.4699"/>
<polygon fill="#191970" stroke="#191970" points="2256.18,-85.6702 2264.1082,-78.6422 2253.5277,-79.1921 2256.18,-85.6702"/>
</g>
<!-- Node23&#45;&gt;Node24 -->
<g id="edge28" class="edge">
<title>Node23&#45;&gt;Node24</title>
<path fill="none" stroke="#191970" d="M1592.9227,-120.3873C1578.4074,-110.8168 1555.3528,-95.6159 1538.2162,-84.3171"/>
<polygon fill="#191970" stroke="#191970" points="1539.6718,-81.0845 1529.3965,-78.5019 1535.8185,-86.9285 1539.6718,-81.0845"/>
</g>
<!-- Node25 -->
<g id="node25" class="node">
<title>Node25</title>
<g id="a_node25"><a xlink:title=" ">
<polygon fill="#ffffff" stroke="#bfbfbf" points="1597.7856,-60.5 1597.7856,-78.5 1657.7017,-78.5 1657.7017,-60.5 1597.7856,-60.5"/>
<text text-anchor="middle" x="1627.7437" y="-66.5" font-family="Helvetica,sans-Serif" font-size="10.00" fill="#000000">QLineEdit</text>
</a>
</g>
</g>
<!-- Node23&#45;&gt;Node25 -->
<g id="edge36" class="edge">
<title>Node23&#45;&gt;Node25</title>
<path fill="none" stroke="#191970" d="M1609.9331,-120.3873C1612.8934,-111.9293 1617.3927,-99.074 1621.1284,-88.4007"/>
<polygon fill="#191970" stroke="#191970" points="1624.5241,-89.2933 1624.5242,-78.6985 1617.9171,-86.9808 1624.5241,-89.2933"/>
</g>
<!-- Node26 -->
<g id="node26" class="node">
<title>Node26</title>
<g id="a_node26"><a xlink:title=" ">
<polygon fill="#ffffff" stroke="#bfbfbf" points="1675.3423,-60.5 1675.3423,-78.5 1744.145,-78.5 1744.145,-60.5 1675.3423,-60.5"/>
<text text-anchor="middle" x="1709.7437" y="-66.5" font-family="Helvetica,sans-Serif" font-size="10.00" fill="#000000">QGroupBox</text>
</a>
</g>
</g>
<!-- Node23&#45;&gt;Node26 -->
<g id="edge37" class="edge">
<title>Node23&#45;&gt;Node26</title>
<path fill="none" stroke="#191970" d="M1622.3871,-120.3873C1639.1969,-110.5952 1666.1246,-94.9092 1685.6437,-83.5388"/>
<polygon fill="#191970" stroke="#191970" points="1687.4113,-86.5597 1694.2904,-78.5019 1683.8879,-80.5111 1687.4113,-86.5597"/>
</g>
<!-- Node27 -->
<g id="node27" class="node">
<title>Node27</title>
<g id="a_node27"><a xlink:title=" ">
<polygon fill="#ffffff" stroke="#bfbfbf" points="1762.5122,-60.5 1762.5122,-78.5 1832.9751,-78.5 1832.9751,-60.5 1762.5122,-60.5"/>
<text text-anchor="middle" x="1797.7437" y="-66.5" font-family="Helvetica,sans-Serif" font-size="10.00" fill="#000000">QListWidget</text>
</a>
</g>
</g>
<!-- Node23&#45;&gt;Node27 -->
<g id="edge39" class="edge">
<title>Node23&#45;&gt;Node27</title>
<path fill="none" stroke="#191970" d="M1636.1324,-120.4321C1665.6348,-111.3077 1712.3759,-96.7936 1752.7437,-84 1755.1399,-83.2406 1757.6068,-82.4553 1760.0932,-81.6613"/>
<polygon fill="#191970" stroke="#191970" points="1761.2168,-84.9766 1769.6714,-78.5915 1759.0803,-78.3107 1761.2168,-84.9766"/>
</g>
<!-- Node28 -->
<g id="node28" class="node">
<title>Node28</title>
<g id="a_node28"><a xlink:title=" ">
<polygon fill="#ffffff" stroke="#bfbfbf" points="1851.4678,-60.5 1851.4678,-78.5 1888.0195,-78.5 1888.0195,-60.5 1851.4678,-60.5"/>
<text text-anchor="middle" x="1869.7437" y="-66.5" font-family="Helvetica,sans-Serif" font-size="10.00" fill="#000000">QDir</text>
</a>
</g>
</g>
<!-- Node23&#45;&gt;Node28 -->
<g id="edge40" class="edge">
<title>Node23&#45;&gt;Node28</title>
<path fill="none" stroke="#191970" d="M1648.0078,-125.1405C1695.6806,-119.2804 1775.9958,-106.8544 1841.7437,-84 1842.7778,-83.6405 1843.8213,-83.2487 1844.8663,-82.8318"/>
<polygon fill="#191970" stroke="#191970" points="1846.4711,-85.9464 1854.1034,-78.598 1843.5544,-79.583 1846.4711,-85.9464"/>
</g>
<!-- Node29 -->
<g id="node29" class="node">
<title>Node29</title>
<g id="a_node29"><a xlink:title=" ">
<polygon fill="#ffffff" stroke="#bfbfbf" points="1906.041,-60.5 1906.041,-78.5 2007.4463,-78.5 2007.4463,-60.5 1906.041,-60.5"/>
<text text-anchor="middle" x="1956.7437" y="-66.5" font-family="Helvetica,sans-Serif" font-size="10.00" fill="#000000">QAbstractItemView</text>
</a>
</g>
</g>
<!-- Node23&#45;&gt;Node29 -->
<g id="edge41" class="edge">
<title>Node23&#45;&gt;Node29</title>
<path fill="none" stroke="#191970" d="M1647.7515,-124.1391C1704.0998,-116.5287 1808.5225,-101.5505 1896.7437,-84 1901.4865,-83.0565 1906.4216,-81.995 1911.3338,-80.8866"/>
<polygon fill="#191970" stroke="#191970" points="1912.3668,-84.2399 1921.3156,-78.568 1910.783,-77.4214 1912.3668,-84.2399"/>
</g>
<!-- Node30 -->
<g id="node30" class="node">
<title>Node30</title>
<g id="a_node30"><a xlink:title=" ">
<polygon fill="#ffffff" stroke="#bfbfbf" points="2024.9507,-60.5 2024.9507,-78.5 2106.5366,-78.5 2106.5366,-60.5 2024.9507,-60.5"/>
<text text-anchor="middle" x="2065.7437" y="-66.5" font-family="Helvetica,sans-Serif" font-size="10.00" fill="#000000">QMessageBox</text>
</a>
</g>
</g>
<!-- Node23&#45;&gt;Node30 -->
<g id="edge42" class="edge">
<title>Node23&#45;&gt;Node30</title>
<path fill="none" stroke="#191970" d="M1647.8496,-127.3536C1722.1218,-122.9417 1883.3589,-110.9156 2016.7437,-84 2020.5958,-83.2227 2024.582,-82.2802 2028.5405,-81.253"/>
<polygon fill="#191970" stroke="#191970" points="2029.5269,-84.6117 2038.231,-78.571 2027.6597,-77.8653 2029.5269,-84.6117"/>
</g>
<!-- Node31 -->
<g id="node31" class="node">
<title>Node31</title>
<g id="a_node31"><a xlink:href="_q_led_8h.html" target="_top" xlink:title=" ">
<polygon fill="#ffffff" stroke="#ff0000" points="2124.3423,-60.5 2124.3423,-78.5 2173.145,-78.5 2173.145,-60.5 2124.3423,-60.5"/>
<text text-anchor="middle" x="2148.7437" y="-66.5" font-family="Helvetica,sans-Serif" font-size="10.00" fill="#000000">QLed.h</text>
</a>
</g>
</g>
<!-- Node23&#45;&gt;Node31 -->
<g id="edge43" class="edge">
<title>Node23&#45;&gt;Node31</title>
<path fill="none" stroke="#191970" d="M1647.6612,-127.5552C1752.2513,-122.3102 2027.3456,-106.7202 2115.7437,-84 2117.6528,-83.5093 2119.5918,-82.9198 2121.5243,-82.2633"/>
<polygon fill="#191970" stroke="#191970" points="2122.9285,-85.4723 2130.9656,-78.569 2120.3777,-78.9536 2122.9285,-85.4723"/>
</g>
<!-- Node33 -->
<g id="node32" class="node">
<title>Node33</title>
<g id="a_node32"><a xlink:title=" ">
<polygon fill="#ffffff" stroke="#bfbfbf" points="2191.0737,-60.5 2191.0737,-78.5 2240.4136,-78.5 2240.4136,-60.5 2191.0737,-60.5"/>
<text text-anchor="middle" x="2215.7437" y="-66.5" font-family="Helvetica,sans-Serif" font-size="10.00" fill="#000000">fstream</text>
</a>
</g>
</g>
<!-- Node23&#45;&gt;Node33 -->
<g id="edge46" class="edge">
<title>Node23&#45;&gt;Node33</title>
<path fill="none" stroke="#191970" d="M1647.9042,-127.972C1761.9445,-123.4642 2080.2458,-108.9502 2181.7437,-84 2183.7066,-83.5175 2185.7013,-82.9341 2187.6901,-82.2821"/>
<polygon fill="#191970" stroke="#191970" points="2189.3011,-85.4146 2197.4122,-78.5984 2186.8208,-78.8688 2189.3011,-85.4146"/>
</g>
<!-- Node31&#45;&gt;Node7 -->
<g id="edge44" class="edge">
<title>Node31&#45;&gt;Node7</title>
<path fill="none" stroke="#191970" d="M2131.3444,-60.4407C2126.4254,-58.2738 2120.9823,-56.2328 2115.7437,-55 2026.0621,-33.8946 1365.8992,-14.7293 1207.7287,-10.4074"/>
<polygon fill="#191970" stroke="#191970" points="1207.7253,-6.9061 1197.6339,-10.1331 1207.5351,-13.9035 1207.7253,-6.9061"/>
</g>
<!-- Node35 -->
<g id="node34" class="node">
<title>Node35</title>
<g id="a_node34"><a xlink:title=" ">
<polygon fill="#ffffff" stroke="#bfbfbf" points="2321.6821,-60.5 2321.6821,-78.5 2353.8052,-78.5 2353.8052,-60.5 2321.6821,-60.5"/>
<text text-anchor="middle" x="2337.7437" y="-66.5" font-family="Helvetica,sans-Serif" font-size="10.00" fill="#000000">Iir.h</text>
</a>
</g>
</g>
<!-- Node34&#45;&gt;Node35 -->
<g id="edge48" class="edge">
<title>Node34&#45;&gt;Node35</title>
<path fill="none" stroke="#191970" d="M1971.8607,-126.8298C2055.6894,-120.7814 2250.1169,-104.9192 2312.7437,-84 2313.6181,-83.7079 2314.4959,-83.383 2315.3719,-83.0316"/>
<polygon fill="#191970" stroke="#191970" points="2317.0547,-86.104 2324.4659,-78.5327 2313.9508,-79.8298 2317.0547,-86.104"/>
</g>
<!-- Node36&#45;&gt;Node19 -->
<g id="edge53" class="edge">
<title>Node36&#45;&gt;Node19</title>
<path fill="none" stroke="#191970" d="M2285.8324,-120.3873C2284.9954,-112.0174 2283.7278,-99.3414 2282.6672,-88.735"/>
<polygon fill="#191970" stroke="#191970" points="2286.1413,-88.3005 2281.6635,-78.6985 2279.176,-88.9971 2286.1413,-88.3005"/>
</g>
<!-- Node37 -->
<g id="node36" class="node">
<title>Node37</title>
<g id="a_node36"><a xlink:title=" ">
<polygon fill="#ffffff" stroke="#bfbfbf" points="2371.8711,-60.5 2371.8711,-78.5 2491.6162,-78.5 2491.6162,-60.5 2371.8711,-60.5"/>
<text text-anchor="middle" x="2431.7437" y="-66.5" font-family="Helvetica,sans-Serif" font-size="10.00" fill="#000000">../cppTimer/CppTimer.h</text>
</a>
</g>
</g>
<!-- Node36&#45;&gt;Node37 -->
<g id="edge50" class="edge">
<title>Node36&#45;&gt;Node37</title>
<path fill="none" stroke="#191970" d="M2308.766,-120.3873C2333.1798,-110.2851 2372.7538,-93.9096 2400.3954,-82.4717"/>
<polygon fill="#191970" stroke="#191970" points="2402.0872,-85.5595 2409.9891,-78.5019 2399.4107,-79.0914 2402.0872,-85.5595"/>
</g>
<!-- Node38 -->
<g id="node37" class="node">
<title>Node38</title>
<g id="a_node37"><a xlink:href="_ring_buff_8h.html" target="_top" xlink:title=" ">
<polygon fill="#ffffff" stroke="#000000" points="2509.3169,-60.5 2509.3169,-78.5 2580.1704,-78.5 2580.1704,-60.5 2509.3169,-60.5"/>
<text text-anchor="middle" x="2544.7437" y="-66.5" font-family="Helvetica,sans-Serif" font-size="10.00" fill="#000000">../RingBuff.h</text>
</a>
</g>
</g>
<!-- Node36&#45;&gt;Node38 -->
<g id="edge51" class="edge">
<title>Node36&#45;&gt;Node38</title>
<path fill="none" stroke="#191970" d="M2328.2743,-121.2302C2380.9415,-110.6454 2468.7507,-92.6451 2500.7437,-84 2503.5098,-83.2525 2506.3581,-82.4323 2509.2122,-81.574"/>
<polygon fill="#191970" stroke="#191970" points="2510.3319,-84.8911 2518.8271,-78.5599 2508.2379,-78.2116 2510.3319,-84.8911"/>
</g>
<!-- Node36&#45;&gt;Node39 -->
<g id="edge52" class="edge">
<title>Node36&#45;&gt;Node39</title>
<path fill="none" stroke="#191970" d="M2328.43,-121.226C2331.2382,-120.7779 2334.0287,-120.3633 2336.7437,-120 2539.5625,-92.8615 2597.0159,-132.7781 2795.7437,-84 2797.7068,-83.5181 2799.7016,-82.9353 2801.6905,-82.2837"/>
<polygon fill="#191970" stroke="#191970" points="2803.3011,-85.4164 2811.4128,-78.6009 2800.8214,-78.8703 2803.3011,-85.4164"/>
</g>
<!-- Node40 -->
<g id="node39" class="node">
<title>Node40</title>
<g id="a_node39"><a xlink:title=" ">
<polygon fill="#ffffff" stroke="#bfbfbf" points="2598.623,-60.5 2598.623,-78.5 2646.8643,-78.5 2646.8643,-60.5 2598.623,-60.5"/>
<text text-anchor="middle" x="2622.7437" y="-66.5" font-family="Helvetica,sans-Serif" font-size="10.00" fill="#000000">stdint.h</text>
</a>
</g>
</g>
<!-- Node36&#45;&gt;Node40 -->
<g id="edge54" class="edge">
<title>Node36&#45;&gt;Node40</title>
<path fill="none" stroke="#191970" d="M2328.1889,-121.4738C2331.0814,-120.9603 2333.9545,-120.4639 2336.7437,-120 2448.3473,-101.436 2479.7814,-114.4504 2588.7437,-84 2590.6441,-83.4689 2592.5786,-82.8562 2594.5114,-82.1891"/>
<polygon fill="#191970" stroke="#191970" points="2595.9292,-85.3936 2603.9978,-78.5271 2593.4083,-78.8633 2595.9292,-85.3936"/>
</g>
<!-- Node36&#45;&gt;Node41 -->
<g id="edge55" class="edge">
<title>Node36&#45;&gt;Node41</title>
<path fill="none" stroke="#191970" d="M2328.4258,-121.194C2331.235,-120.7535 2334.0269,-120.3494 2336.7437,-120 2570.0333,-89.9939 2636.6571,-141.4543 2864.7437,-84 2866.4515,-83.5698 2868.1811,-83.0522 2869.906,-82.4723"/>
<polygon fill="#191970" stroke="#191970" points="2871.5431,-85.5883 2879.5468,-78.6462 2868.9609,-79.0819 2871.5431,-85.5883"/>
</g>
<!-- Node42 -->
<g id="node41" class="node">
<title>Node42</title>
<g id="a_node41"><a xlink:title=" ">
<polygon fill="#ffffff" stroke="#bfbfbf" points="2664.4038,-60.5 2664.4038,-78.5 2717.0835,-78.5 2717.0835,-60.5 2664.4038,-60.5"/>
<text text-anchor="middle" x="2690.7437" y="-66.5" font-family="Helvetica,sans-Serif" font-size="10.00" fill="#000000">QObject</text>
</a>
</g>
</g>
<!-- Node36&#45;&gt;Node42 -->
<g id="edge56" class="edge">
<title>Node36&#45;&gt;Node42</title>
<path fill="none" stroke="#191970" d="M2328.4453,-121.3332C2331.2497,-120.8592 2334.0353,-120.4095 2336.7437,-120 2477.8178,-98.6687 2517.5926,-119.6541 2655.7437,-84 2657.702,-83.4946 2659.6948,-82.9014 2661.6857,-82.2488"/>
<polygon fill="#191970" stroke="#191970" points="2663.2973,-85.3839 2671.4538,-78.6221 2660.8608,-78.8216 2663.2973,-85.3839"/>
</g>
<!-- Node43 -->
<g id="node42" class="node">
<title>Node43</title>
<g id="a_node42"><a xlink:title=" ">
<polygon fill="#ffffff" stroke="#bfbfbf" points="2735.2388,-60.5 2735.2388,-78.5 2786.2485,-78.5 2786.2485,-60.5 2735.2388,-60.5"/>
<text text-anchor="middle" x="2760.7437" y="-66.5" font-family="Helvetica,sans-Serif" font-size="10.00" fill="#000000">QMutex</text>
</a>
</g>
</g>
<!-- Node36&#45;&gt;Node43 -->
<g id="edge57" class="edge">
<title>Node36&#45;&gt;Node43</title>
<path fill="none" stroke="#191970" d="M2328.4361,-121.2701C2331.2427,-120.8113 2334.0313,-120.3823 2336.7437,-120 2508.672,-95.7677 2557.1971,-125.6969 2725.7437,-84 2727.9224,-83.461 2730.1423,-82.808 2732.3535,-82.0811"/>
<polygon fill="#191970" stroke="#191970" points="2733.6917,-85.3175 2741.8387,-78.5442 2731.246,-78.7587 2733.6917,-85.3175"/>
</g>
</g>
</svg>
