<?xml version="1.0" encoding="UTF-8" standalone="no"?>
<!DOCTYPE svg PUBLIC "-//W3C//DTD SVG 1.1//EN"
 "http://www.w3.org/Graphics/SVG/1.1/DTD/svg11.dtd">
<!-- Generated by graphviz version 2.40.1 (20161225.0304)
 -->
<!-- Title: code/RingBuff.h Pages: 1 -->
<svg width="569pt" height="202pt"
 viewBox="0.00 0.00 569.38 202.00" xmlns="http://www.w3.org/2000/svg" xmlns:xlink="http://www.w3.org/1999/xlink">
<g id="graph0" class="graph" transform="scale(1 1) rotate(0) translate(4 198)">
<title>code/RingBuff.h</title>
<polygon fill="#ffffff" stroke="transparent" points="-4,4 -4,-198 565.3765,-198 565.3765,4 -4,4"/>
<!-- Node1 -->
<g id="node1" class="node">
<title>Node1</title>
<g id="a_node1"><a xlink:title=" ">
<polygon fill="#bfbfbf" stroke="#000000" points="346.6963,-175.5 346.6963,-193.5 433.6777,-193.5 433.6777,-175.5 346.6963,-175.5"/>
<text text-anchor="middle" x="390.187" y="-181.5" font-family="Helvetica,sans-Serif" font-size="10.00" fill="#000000">code/RingBuff.h</text>
</a>
</g>
</g>
<!-- Node2 -->
<g id="node2" class="node">
<title>Node2</title>
<g id="a_node2"><a xlink:href="_sample_timer_8h.html" target="_top" xlink:title=" ">
<polygon fill="#ffffff" stroke="#000000" points="192.8457,-115.5 192.8457,-133.5 313.5283,-133.5 313.5283,-115.5 192.8457,-115.5"/>
<text text-anchor="middle" x="253.187" y="-121.5" font-family="Helvetica,sans-Serif" font-size="10.00" fill="#000000">code/Qt/SampleTimer.h</text>
</a>
</g>
</g>
<!-- Node1&#45;&gt;Node2 -->
<g id="edge1" class="edge">
<title>Node1&#45;&gt;Node2</title>
<path fill="none" stroke="#191970" d="M359.9353,-171.2511C333.7542,-159.7849 296.602,-143.5139 273.7413,-133.5019"/>
<polygon fill="#191970" stroke="#191970" points="358.8155,-174.5816 369.3797,-175.3873 361.6237,-168.1695 358.8155,-174.5816"/>
</g>
<!-- Node7 -->
<g id="node7" class="node">
<title>Node7</title>
<g id="a_node7"><a xlink:href="_ring_buff_8cpp.html" target="_top" xlink:title=" ">
<polygon fill="#ffffff" stroke="#000000" points="341.4155,-115.5 341.4155,-133.5 438.9585,-133.5 438.9585,-115.5 341.4155,-115.5"/>
<text text-anchor="middle" x="390.187" y="-121.5" font-family="Helvetica,sans-Serif" font-size="10.00" fill="#000000">code/RingBuff.cpp</text>
</a>
</g>
</g>
<!-- Node1&#45;&gt;Node7 -->
<g id="edge6" class="edge">
<title>Node1&#45;&gt;Node7</title>
<path fill="none" stroke="#191970" d="M390.187,-165.3734C390.187,-154.7812 390.187,-142.0976 390.187,-133.6985"/>
<polygon fill="#191970" stroke="#191970" points="386.6871,-165.3873 390.187,-175.3873 393.6871,-165.3873 386.6871,-165.3873"/>
</g>
<!-- Node9 -->
<g id="node9" class="node">
<title>Node9</title>
<g id="a_node9"><a xlink:href="sampledata_8cpp.html" target="_top" xlink:title=" ">
<polygon fill="#ffffff" stroke="#000000" points="456.9976,-110.5 456.9976,-138.5 561.3765,-138.5 561.3765,-110.5 456.9976,-110.5"/>
<text text-anchor="start" x="464.9976" y="-126.5" font-family="Helvetica,sans-Serif" font-size="10.00" fill="#000000">testfiles/sampledata</text>
<text text-anchor="middle" x="509.187" y="-116.5" font-family="Helvetica,sans-Serif" font-size="10.00" fill="#000000">/sampledata.cpp</text>
</a>
</g>
</g>
<!-- Node1&#45;&gt;Node9 -->
<g id="edge8" class="edge">
<title>Node1&#45;&gt;Node9</title>
<path fill="none" stroke="#191970" d="M417.3302,-170.8144C436.4234,-161.1875 461.9049,-148.3397 481.1858,-138.6183"/>
<polygon fill="#191970" stroke="#191970" points="415.614,-167.7599 408.2606,-175.3873 418.7655,-174.0103 415.614,-167.7599"/>
</g>
<!-- Node3 -->
<g id="node3" class="node">
<title>Node3</title>
<g id="a_node3"><a xlink:href="mainwindow_8h.html" target="_top" xlink:title=" ">
<polygon fill="#ffffff" stroke="#000000" points="52.8794,-55.5 52.8794,-73.5 169.4946,-73.5 169.4946,-55.5 52.8794,-55.5"/>
<text text-anchor="middle" x="111.187" y="-61.5" font-family="Helvetica,sans-Serif" font-size="10.00" fill="#000000">code/Qt/mainwindow.h</text>
</a>
</g>
</g>
<!-- Node2&#45;&gt;Node3 -->
<g id="edge2" class="edge">
<title>Node2&#45;&gt;Node3</title>
<path fill="none" stroke="#191970" d="M222.1892,-111.4023C195.0342,-99.9284 156.2909,-83.558 132.4914,-73.5019"/>
<polygon fill="#191970" stroke="#191970" points="221.0465,-114.7191 231.6203,-115.3873 223.7711,-108.2711 221.0465,-114.7191"/>
</g>
<!-- Node6 -->
<g id="node6" class="node">
<title>Node6</title>
<g id="a_node6"><a xlink:href="_sample_timer_8cpp.html" target="_top" xlink:title=" ">
<polygon fill="#ffffff" stroke="#000000" points="187.5649,-55.5 187.5649,-73.5 318.8091,-73.5 318.8091,-55.5 187.5649,-55.5"/>
<text text-anchor="middle" x="253.187" y="-61.5" font-family="Helvetica,sans-Serif" font-size="10.00" fill="#000000">code/Qt/SampleTimer.cpp</text>
</a>
</g>
</g>
<!-- Node2&#45;&gt;Node6 -->
<g id="edge5" class="edge">
<title>Node2&#45;&gt;Node6</title>
<path fill="none" stroke="#191970" d="M253.187,-105.3734C253.187,-94.7812 253.187,-82.0976 253.187,-73.6985"/>
<polygon fill="#191970" stroke="#191970" points="249.6871,-105.3873 253.187,-115.3873 256.6871,-105.3873 249.6871,-105.3873"/>
</g>
<!-- Node4 -->
<g id="node4" class="node">
<title>Node4</title>
<g id="a_node4"><a xlink:href="_qt_2main_8cpp.html" target="_top" xlink:title=" ">
<polygon fill="#ffffff" stroke="#000000" points="0,-.5 0,-18.5 94.374,-18.5 94.374,-.5 0,-.5"/>
<text text-anchor="middle" x="47.187" y="-6.5" font-family="Helvetica,sans-Serif" font-size="10.00" fill="#000000">code/Qt/main.cpp</text>
</a>
</g>
</g>
<!-- Node3&#45;&gt;Node4 -->
<g id="edge3" class="edge">
<title>Node3&#45;&gt;Node4</title>
<path fill="none" stroke="#191970" d="M92.9968,-48.8678C81.6929,-39.1535 67.5442,-26.9944 57.9849,-18.7795"/>
<polygon fill="#191970" stroke="#191970" points="90.7533,-51.5546 100.6187,-55.4179 95.3157,-46.2457 90.7533,-51.5546"/>
</g>
<!-- Node5 -->
<g id="node5" class="node">
<title>Node5</title>
<g id="a_node5"><a xlink:href="mainwindow_8cpp.html" target="_top" xlink:title=" ">
<polygon fill="#ffffff" stroke="#000000" points="112.5986,-.5 112.5986,-18.5 239.7754,-18.5 239.7754,-.5 112.5986,-.5"/>
<text text-anchor="middle" x="176.187" y="-6.5" font-family="Helvetica,sans-Serif" font-size="10.00" fill="#000000">code/Qt/mainwindow.cpp</text>
</a>
</g>
</g>
<!-- Node3&#45;&gt;Node5 -->
<g id="edge4" class="edge">
<title>Node3&#45;&gt;Node5</title>
<path fill="none" stroke="#191970" d="M129.6615,-48.8678C141.142,-39.1535 155.5118,-26.9944 165.2204,-18.7795"/>
<polygon fill="#191970" stroke="#191970" points="127.2935,-46.2866 121.9204,-55.4179 131.8151,-51.6303 127.2935,-46.2866"/>
</g>
<!-- Node8 -->
<g id="node8" class="node">
<title>Node8</title>
<g id="a_node8"><a xlink:href="_ring_buff_test_8cpp.html" target="_top" xlink:title=" ">
<polygon fill="#ffffff" stroke="#000000" points="337.1372,-55.5 337.1372,-73.5 465.2368,-73.5 465.2368,-55.5 337.1372,-55.5"/>
<text text-anchor="middle" x="401.187" y="-61.5" font-family="Helvetica,sans-Serif" font-size="10.00" fill="#000000">testfiles/RingBuffTest.cpp</text>
</a>
</g>
</g>
<!-- Node7&#45;&gt;Node8 -->
<g id="edge7" class="edge">
<title>Node7&#45;&gt;Node8</title>
<path fill="none" stroke="#191970" d="M393.6935,-105.3734C395.6355,-94.7812 397.9608,-82.0976 399.5006,-73.6985"/>
<polygon fill="#191970" stroke="#191970" points="390.2184,-104.92 391.8577,-115.3873 397.1037,-106.1824 390.2184,-104.92"/>
</g>
</g>
</svg>
