<?xml version="1.0" encoding="UTF-8" standalone="no"?>
<!DOCTYPE svg PUBLIC "-//W3C//DTD SVG 1.1//EN"
 "http://www.w3.org/Graphics/SVG/1.1/DTD/svg11.dtd">
<!-- Generated by graphviz version 2.40.1 (20161225.0304)
 -->
<!-- Title: /Users/jamielee/Desktop/uni stuff/RTE5/ENG5220/code/RingBuff.cpp Pages: 1 -->
<svg width="139pt" height="122pt"
 viewBox="0.00 0.00 138.88 122.00" xmlns="http://www.w3.org/2000/svg" xmlns:xlink="http://www.w3.org/1999/xlink">
<g id="graph0" class="graph" transform="scale(1 1) rotate(0) translate(4 118)">
<title>/Users/jamielee/Desktop/uni stuff/RTE5/ENG5220/code/RingBuff.cpp</title>
<polygon fill="#ffffff" stroke="transparent" points="-4,4 -4,-118 134.8779,-118 134.8779,4 -4,4"/>
<!-- Node2 -->
<g id="node1" class="node">
<title>Node2</title>
<g id="a_node1"><a xlink:title=" ">
<polygon fill="#bfbfbf" stroke="#000000" points="1.1987,-75.5 1.1987,-113.5 129.6792,-113.5 129.6792,-75.5 1.1987,-75.5"/>
<text text-anchor="start" x="9.1987" y="-101.5" font-family="Helvetica,sans-Serif" font-size="10.00" fill="#000000">/Users/jamielee/Desktop</text>
<text text-anchor="start" x="9.1987" y="-91.5" font-family="Helvetica,sans-Serif" font-size="10.00" fill="#000000">/uni stuff/RTE5/ENG5220</text>
<text text-anchor="middle" x="65.439" y="-81.5" font-family="Helvetica,sans-Serif" font-size="10.00" fill="#000000">/code/RingBuff.cpp</text>
</a>
</g>
</g>
<!-- Node3 -->
<g id="node2" class="node">
<title>Node3</title>
<g id="a_node2"><a xlink:href="_ring_buff_test_8cpp.html" target="_top" xlink:title=" ">
<polygon fill="#ffffff" stroke="#000000" points="0,-.5 0,-38.5 130.8779,-38.5 130.8779,-.5 0,-.5"/>
<text text-anchor="start" x="8" y="-26.5" font-family="Helvetica,sans-Serif" font-size="10.00" fill="#000000">/Users/jamielee/Desktop</text>
<text text-anchor="start" x="8" y="-16.5" font-family="Helvetica,sans-Serif" font-size="10.00" fill="#000000">/uni stuff/RTE5/ENG5220</text>
<text text-anchor="middle" x="65.439" y="-6.5" font-family="Helvetica,sans-Serif" font-size="10.00" fill="#000000">/testfiles/RingBuffTest.cpp</text>
</a>
</g>
</g>
<!-- Node2&#45;&gt;Node3 -->
<g id="edge1" class="edge">
<title>Node2&#45;&gt;Node3</title>
<path fill="none" stroke="#191970" d="M65.439,-64.8977C65.439,-56.1033 65.439,-46.7019 65.439,-38.7489"/>
<polygon fill="#191970" stroke="#191970" points="61.9391,-65.1856 65.439,-75.1856 68.9391,-65.1857 61.9391,-65.1856"/>
</g>
</g>
</svg>
