<?xml version="1.0" encoding="UTF-8" standalone="no"?>
<!DOCTYPE svg PUBLIC "-//W3C//DTD SVG 1.1//EN"
 "http://www.w3.org/Graphics/SVG/1.1/DTD/svg11.dtd">
<!-- Generated by graphviz version 2.40.1 (20161225.0304)
 -->
<!-- Title: /Users/jamielee/Desktop/uni stuff/RTE5/ENG5220/code/Qt/SampleTimer.cpp Pages: 1 -->
<svg width="999pt" height="267pt"
 viewBox="0.00 0.00 999.07 267.00" xmlns="http://www.w3.org/2000/svg" xmlns:xlink="http://www.w3.org/1999/xlink">
<g id="graph0" class="graph" transform="scale(1 1) rotate(0) translate(4 263)">
<title>/Users/jamielee/Desktop/uni stuff/RTE5/ENG5220/code/Qt/SampleTimer.cpp</title>
<polygon fill="#ffffff" stroke="transparent" points="-4,4 -4,-263 995.0669,-263 995.0669,4 -4,4"/>
<!-- Node0 -->
<g id="node1" class="node">
<title>Node0</title>
<g id="a_node1"><a xlink:title=" ">
<polygon fill="#bfbfbf" stroke="#000000" points="408.8613,-220.5 408.8613,-258.5 542.8838,-258.5 542.8838,-220.5 408.8613,-220.5"/>
<text text-anchor="start" x="416.8613" y="-246.5" font-family="Helvetica,sans-Serif" font-size="10.00" fill="#000000">/Users/jamielee/Desktop</text>
<text text-anchor="start" x="416.8613" y="-236.5" font-family="Helvetica,sans-Serif" font-size="10.00" fill="#000000">/uni stuff/RTE5/ENG5220</text>
<text text-anchor="middle" x="475.8726" y="-226.5" font-family="Helvetica,sans-Serif" font-size="10.00" fill="#000000">/code/Qt/SampleTimer.cpp</text>
</a>
</g>
</g>
<!-- Node1 -->
<g id="node2" class="node">
<title>Node1</title>
<g id="a_node2"><a xlink:href="_sample_timer_8h.html" target="_top" xlink:title=" ">
<polygon fill="#ffffff" stroke="#000000" points="434.4302,-165.5 434.4302,-183.5 517.3149,-183.5 517.3149,-165.5 434.4302,-165.5"/>
<text text-anchor="middle" x="475.8726" y="-171.5" font-family="Helvetica,sans-Serif" font-size="10.00" fill="#000000">SampleTimer.h</text>
</a>
</g>
</g>
<!-- Node0&#45;&gt;Node1 -->
<g id="edge1" class="edge">
<title>Node0&#45;&gt;Node1</title>
<path fill="none" stroke="#191970" d="M475.8726,-220.3494C475.8726,-212.0079 475.8726,-202.2463 475.8726,-193.879"/>
<polygon fill="#191970" stroke="#191970" points="479.3727,-193.5978 475.8726,-183.5978 472.3727,-193.5979 479.3727,-193.5978"/>
</g>
<!-- Node2 -->
<g id="node3" class="node">
<title>Node2</title>
<g id="a_node3"><a xlink:title=" ">
<polygon fill="#ffffff" stroke="#bfbfbf" points="0,-110.5 0,-128.5 119.7451,-128.5 119.7451,-110.5 0,-110.5"/>
<text text-anchor="middle" x="59.8726" y="-116.5" font-family="Helvetica,sans-Serif" font-size="10.00" fill="#000000">../cppTimer/CppTimer.h</text>
</a>
</g>
</g>
<!-- Node1&#45;&gt;Node2 -->
<g id="edge2" class="edge">
<title>Node1&#45;&gt;Node2</title>
<path fill="none" stroke="#191970" d="M434.1984,-169.1236C370.8826,-160.9359 246.3797,-144.7604 130.2144,-129.1738"/>
<polygon fill="#191970" stroke="#191970" points="130.4571,-125.6751 120.0802,-127.8127 129.5253,-132.6128 130.4571,-125.6751"/>
</g>
<!-- Node3 -->
<g id="node4" class="node">
<title>Node3</title>
<g id="a_node4"><a xlink:href="_ring_buff_8h.html" target="_top" xlink:title=" ">
<polygon fill="#ffffff" stroke="#000000" points="138.1108,-110.5 138.1108,-128.5 235.6343,-128.5 235.6343,-110.5 138.1108,-110.5"/>
<text text-anchor="middle" x="186.8726" y="-116.5" font-family="Helvetica,sans-Serif" font-size="10.00" fill="#000000">../filters/RingBuff.h</text>
</a>
</g>
</g>
<!-- Node1&#45;&gt;Node3 -->
<g id="edge3" class="edge">
<title>Node1&#45;&gt;Node3</title>
<path fill="none" stroke="#191970" d="M434.1581,-166.5613C384.2725,-157.0675 300.5002,-141.1246 244.4669,-130.4609"/>
<polygon fill="#191970" stroke="#191970" points="244.8196,-126.9652 234.3415,-128.5339 243.5108,-133.8418 244.8196,-126.9652"/>
</g>
<!-- Node4 -->
<g id="node5" class="node">
<title>Node4</title>
<g id="a_node5"><a xlink:title=" ">
<polygon fill="#ffffff" stroke="#bfbfbf" points="253.3604,-110.5 253.3604,-128.5 304.3848,-128.5 304.3848,-110.5 253.3604,-110.5"/>
<text text-anchor="middle" x="278.8726" y="-116.5" font-family="Helvetica,sans-Serif" font-size="10.00" fill="#000000">unistd.h</text>
</a>
</g>
</g>
<!-- Node1&#45;&gt;Node4 -->
<g id="edge4" class="edge">
<title>Node1&#45;&gt;Node4</title>
<path fill="none" stroke="#191970" d="M443.342,-165.4179C407.7802,-155.4895 350.9867,-139.6334 314.3141,-129.3948"/>
<polygon fill="#191970" stroke="#191970" points="315.1113,-125.9836 304.5384,-126.6656 313.2289,-132.7258 315.1113,-125.9836"/>
</g>
<!-- Node5 -->
<g id="node6" class="node">
<title>Node5</title>
<g id="a_node6"><a xlink:title=" ">
<polygon fill="#ffffff" stroke="#bfbfbf" points="322.1411,-110.5 322.1411,-128.5 367.604,-128.5 367.604,-110.5 322.1411,-110.5"/>
<text text-anchor="middle" x="344.8726" y="-116.5" font-family="Helvetica,sans-Serif" font-size="10.00" fill="#000000">stdio.h</text>
</a>
</g>
</g>
<!-- Node1&#45;&gt;Node5 -->
<g id="edge5" class="edge">
<title>Node1&#45;&gt;Node5</title>
<path fill="none" stroke="#191970" d="M454.2406,-165.4179C432.9076,-156.4613 400.0846,-142.6806 375.96,-132.552"/>
<polygon fill="#191970" stroke="#191970" points="377.1119,-129.2397 366.5367,-128.5956 374.4021,-135.6939 377.1119,-129.2397"/>
</g>
<!-- Node6 -->
<g id="node7" class="node">
<title>Node6</title>
<g id="a_node7"><a xlink:title=" ">
<polygon fill="#ffffff" stroke="#bfbfbf" points="673.752,-55.5 673.752,-73.5 721.9932,-73.5 721.9932,-55.5 673.752,-55.5"/>
<text text-anchor="middle" x="697.8726" y="-61.5" font-family="Helvetica,sans-Serif" font-size="10.00" fill="#000000">stdint.h</text>
</a>
</g>
</g>
<!-- Node1&#45;&gt;Node6 -->
<g id="edge6" class="edge">
<title>Node1&#45;&gt;Node6</title>
<path fill="none" stroke="#191970" d="M517.7003,-170.0181C569.8371,-163.6156 654.9005,-150.2226 677.8726,-129 690.2394,-117.5749 695.0251,-98.6706 696.8436,-84.2737"/>
<polygon fill="#191970" stroke="#191970" points="700.3643,-84.1912 697.754,-73.923 693.3912,-83.5778 700.3643,-84.1912"/>
</g>
<!-- Node7 -->
<g id="node8" class="node">
<title>Node7</title>
<g id="a_node8"><a xlink:title=" ">
<polygon fill="#ffffff" stroke="#bfbfbf" points="567.0303,-.5 567.0303,-18.5 614.7148,-18.5 614.7148,-.5 567.0303,-.5"/>
<text text-anchor="middle" x="590.8726" y="-6.5" font-family="Helvetica,sans-Serif" font-size="10.00" fill="#000000">stdlib.h</text>
</a>
</g>
</g>
<!-- Node1&#45;&gt;Node7 -->
<g id="edge7" class="edge">
<title>Node1&#45;&gt;Node7</title>
<path fill="none" stroke="#191970" d="M455.361,-165.4437C441.133,-157.9344 423.2847,-145.7692 414.8726,-129 399.3035,-97.964 449.6331,-55.9476 450.8726,-55 482.1109,-31.1175 526.3703,-19.5071 556.7153,-14.0441"/>
<polygon fill="#191970" stroke="#191970" points="557.5363,-17.4556 566.8242,-12.3581 556.3846,-10.5509 557.5363,-17.4556"/>
</g>
<!-- Node8 -->
<g id="node9" class="node">
<title>Node8</title>
<g id="a_node9"><a xlink:title=" ">
<polygon fill="#ffffff" stroke="#bfbfbf" points="546.5327,-110.5 546.5327,-128.5 599.2124,-128.5 599.2124,-110.5 546.5327,-110.5"/>
<text text-anchor="middle" x="572.8726" y="-116.5" font-family="Helvetica,sans-Serif" font-size="10.00" fill="#000000">QObject</text>
</a>
</g>
</g>
<!-- Node1&#45;&gt;Node8 -->
<g id="edge8" class="edge">
<title>Node1&#45;&gt;Node8</title>
<path fill="none" stroke="#191970" d="M491.8901,-165.4179C507.0545,-156.8195 530.0596,-143.7754 547.68,-133.7844"/>
<polygon fill="#191970" stroke="#191970" points="549.8586,-136.5727 556.8312,-128.5956 546.4059,-130.4834 549.8586,-136.5727"/>
</g>
<!-- Node9 -->
<g id="node10" class="node">
<title>Node9</title>
<g id="a_node10"><a xlink:title=" ">
<polygon fill="#ffffff" stroke="#bfbfbf" points="617.3677,-110.5 617.3677,-128.5 668.3774,-128.5 668.3774,-110.5 617.3677,-110.5"/>
<text text-anchor="middle" x="642.8726" y="-116.5" font-family="Helvetica,sans-Serif" font-size="10.00" fill="#000000">QMutex</text>
</a>
</g>
</g>
<!-- Node1&#45;&gt;Node9 -->
<g id="edge9" class="edge">
<title>Node1&#45;&gt;Node9</title>
<path fill="none" stroke="#191970" d="M503.4492,-165.4179C531.9551,-156.0297 576.554,-141.3414 607.6074,-131.1143"/>
<polygon fill="#191970" stroke="#191970" points="608.7729,-134.4154 617.1762,-127.9629 606.5831,-127.7667 608.7729,-134.4154"/>
</g>
<!-- Node10 -->
<g id="node11" class="node">
<title>Node10</title>
<g id="a_node11"><a xlink:href="_filter_bank_8h.html" target="_top" xlink:title=" ">
<polygon fill="#ffffff" stroke="#000000" points="423.6929,-110.5 423.6929,-128.5 528.0522,-128.5 528.0522,-110.5 423.6929,-110.5"/>
<text text-anchor="middle" x="475.8726" y="-116.5" font-family="Helvetica,sans-Serif" font-size="10.00" fill="#000000">../filters/FilterBank.h</text>
</a>
</g>
</g>
<!-- Node1&#45;&gt;Node10 -->
<g id="edge10" class="edge">
<title>Node1&#45;&gt;Node10</title>
<path fill="none" stroke="#191970" d="M475.8726,-165.4179C475.8726,-158.2164 475.8726,-147.8962 475.8726,-138.8632"/>
<polygon fill="#191970" stroke="#191970" points="479.3727,-138.7794 475.8726,-128.7795 472.3727,-138.7795 479.3727,-138.7794"/>
</g>
<!-- Node12 -->
<g id="node13" class="node">
<title>Node12</title>
<g id="a_node13"><a xlink:href="_m_c_p3428_8h.html" target="_top" xlink:title=" ">
<polygon fill="#ffffff" stroke="#000000" points="724.6782,-110.5 724.6782,-128.5 849.0669,-128.5 849.0669,-110.5 724.6782,-110.5"/>
<text text-anchor="middle" x="786.8726" y="-116.5" font-family="Helvetica,sans-Serif" font-size="10.00" fill="#000000">../MCP3428/MCP3428.h</text>
</a>
</g>
</g>
<!-- Node1&#45;&gt;Node12 -->
<g id="edge12" class="edge">
<title>Node1&#45;&gt;Node12</title>
<path fill="none" stroke="#191970" d="M517.4927,-167.1395C571.036,-157.6705 664.455,-141.1494 725.9871,-130.2675"/>
<polygon fill="#191970" stroke="#191970" points="726.7171,-133.6928 735.9548,-128.5048 725.498,-126.7998 726.7171,-133.6928"/>
</g>
<!-- Node14 -->
<g id="node15" class="node">
<title>Node14</title>
<g id="a_node15"><a xlink:href="_m_p_u6050_8h.html" target="_top" xlink:title=" ">
<polygon fill="#ffffff" stroke="#000000" points="866.6782,-110.5 866.6782,-128.5 991.0669,-128.5 991.0669,-110.5 866.6782,-110.5"/>
<text text-anchor="middle" x="928.8726" y="-116.5" font-family="Helvetica,sans-Serif" font-size="10.00" fill="#000000">../MPU6050/MPU6050.h</text>
</a>
</g>
</g>
<!-- Node1&#45;&gt;Node14 -->
<g id="edge16" class="edge">
<title>Node1&#45;&gt;Node14</title>
<path fill="none" stroke="#191970" d="M517.4435,-169.7479C585.8593,-161.8834 726.7412,-145.5062 856.4294,-129.1686"/>
<polygon fill="#191970" stroke="#191970" points="857.0583,-132.6171 866.5411,-127.892 856.1814,-125.6722 857.0583,-132.6171"/>
</g>
<!-- Node11 -->
<g id="node12" class="node">
<title>Node11</title>
<g id="a_node12"><a xlink:title=" ">
<polygon fill="#ffffff" stroke="#bfbfbf" points="459.811,-55.5 459.811,-73.5 491.9341,-73.5 491.9341,-55.5 459.811,-55.5"/>
<text text-anchor="middle" x="475.8726" y="-61.5" font-family="Helvetica,sans-Serif" font-size="10.00" fill="#000000">Iir.h</text>
</a>
</g>
</g>
<!-- Node10&#45;&gt;Node11 -->
<g id="edge11" class="edge">
<title>Node10&#45;&gt;Node11</title>
<path fill="none" stroke="#191970" d="M475.8726,-110.4179C475.8726,-103.2164 475.8726,-92.8962 475.8726,-83.8632"/>
<polygon fill="#191970" stroke="#191970" points="479.3727,-83.7794 475.8726,-73.7795 472.3727,-83.7795 479.3727,-83.7794"/>
</g>
<!-- Node12&#45;&gt;Node6 -->
<g id="edge13" class="edge">
<title>Node12&#45;&gt;Node6</title>
<path fill="none" stroke="#191970" d="M772.176,-110.4179C758.3912,-101.8992 737.5448,-89.0166 721.4377,-79.0627"/>
<polygon fill="#191970" stroke="#191970" points="722.9376,-75.8753 712.5909,-73.5956 719.2577,-81.83 722.9376,-75.8753"/>
</g>
<!-- Node13 -->
<g id="node14" class="node">
<title>Node13</title>
<g id="a_node14"><a xlink:href="_m_c_p3428_2_i2_cdev_2_i2_cdev_8h.html" target="_top" xlink:title=" ">
<polygon fill="#ffffff" stroke="#000000" points="741.9976,-55.5 741.9976,-73.5 831.7476,-73.5 831.7476,-55.5 741.9976,-55.5"/>
<text text-anchor="middle" x="786.8726" y="-61.5" font-family="Helvetica,sans-Serif" font-size="10.00" fill="#000000">I2Cdev/I2Cdev.h</text>
</a>
</g>
</g>
<!-- Node12&#45;&gt;Node13 -->
<g id="edge14" class="edge">
<title>Node12&#45;&gt;Node13</title>
<path fill="none" stroke="#191970" d="M786.8726,-110.4179C786.8726,-103.2164 786.8726,-92.8962 786.8726,-83.8632"/>
<polygon fill="#191970" stroke="#191970" points="790.3727,-83.7794 786.8726,-73.7795 783.3727,-83.7795 790.3727,-83.7794"/>
</g>
<!-- Node13&#45;&gt;Node7 -->
<g id="edge15" class="edge">
<title>Node13&#45;&gt;Node7</title>
<path fill="none" stroke="#191970" d="M754.5071,-55.4179C718.629,-45.35 661.0292,-29.1868 624.6088,-18.9668"/>
<polygon fill="#191970" stroke="#191970" points="625.5074,-15.5838 614.9336,-16.2518 623.6161,-22.3235 625.5074,-15.5838"/>
</g>
<!-- Node14&#45;&gt;Node13 -->
<g id="edge17" class="edge">
<title>Node14&#45;&gt;Node13</title>
<path fill="none" stroke="#191970" d="M905.4241,-110.4179C882.0943,-101.3817 846.0873,-87.4353 819.8753,-77.2828"/>
<polygon fill="#191970" stroke="#191970" points="820.9449,-73.9437 810.3558,-73.5956 818.4166,-80.4712 820.9449,-73.9437"/>
</g>
</g>
</svg>
