<?xml version="1.0" encoding="UTF-8" standalone="no"?>
<!DOCTYPE svg PUBLIC "-//W3C//DTD SVG 1.1//EN"
 "http://www.w3.org/Graphics/SVG/1.1/DTD/svg11.dtd">
<!-- Generated by graphviz version 2.40.1 (20161225.0304)
 -->
<!-- Title: code/Qt/SampleTimer.h Pages: 1 -->
<svg width="849pt" height="192pt"
 viewBox="0.00 0.00 849.07 192.00" xmlns="http://www.w3.org/2000/svg" xmlns:xlink="http://www.w3.org/1999/xlink">
<g id="graph0" class="graph" transform="scale(1 1) rotate(0) translate(4 188)">
<title>code/Qt/SampleTimer.h</title>
<polygon fill="#ffffff" stroke="transparent" points="-4,4 -4,-188 845.0669,-188 845.0669,4 -4,4"/>
<!-- Node0 -->
<g id="node1" class="node">
<title>Node0</title>
<g id="a_node1"><a xlink:title=" ">
<polygon fill="#bfbfbf" stroke="#000000" points="327.5313,-165.5 327.5313,-183.5 448.2139,-183.5 448.2139,-165.5 327.5313,-165.5"/>
<text text-anchor="middle" x="387.8726" y="-171.5" font-family="Helvetica,sans-Serif" font-size="10.00" fill="#000000">code/Qt/SampleTimer.h</text>
</a>
</g>
</g>
<!-- Node1 -->
<g id="node2" class="node">
<title>Node1</title>
<g id="a_node2"><a xlink:title=" ">
<polygon fill="#ffffff" stroke="#bfbfbf" points="0,-110.5 0,-128.5 119.7451,-128.5 119.7451,-110.5 0,-110.5"/>
<text text-anchor="middle" x="59.8726" y="-116.5" font-family="Helvetica,sans-Serif" font-size="10.00" fill="#000000">../cppTimer/CppTimer.h</text>
</a>
</g>
</g>
<!-- Node0&#45;&gt;Node1 -->
<g id="edge1" class="edge">
<title>Node0&#45;&gt;Node1</title>
<path fill="none" stroke="#191970" d="M334.0773,-165.4795C276.4039,-155.8086 184.8877,-140.4629 123.6346,-130.1918"/>
<polygon fill="#191970" stroke="#191970" points="124.1383,-126.7275 113.6972,-128.5255 122.9807,-133.6311 124.1383,-126.7275"/>
</g>
<!-- Node2 -->
<g id="node3" class="node">
<title>Node2</title>
<g id="a_node3"><a xlink:href="_ring_buff_8h.html" target="_top" xlink:title=" ">
<polygon fill="#ffffff" stroke="#000000" points="137.4458,-110.5 137.4458,-128.5 208.2993,-128.5 208.2993,-110.5 137.4458,-110.5"/>
<text text-anchor="middle" x="172.8726" y="-116.5" font-family="Helvetica,sans-Serif" font-size="10.00" fill="#000000">../RingBuff.h</text>
</a>
</g>
</g>
<!-- Node0&#45;&gt;Node2 -->
<g id="edge2" class="edge">
<title>Node0&#45;&gt;Node2</title>
<path fill="none" stroke="#191970" d="M352.3697,-165.4179C315.5359,-155.9953 257.8312,-141.2336 217.8345,-131.0019"/>
<polygon fill="#191970" stroke="#191970" points="218.6263,-127.5918 208.0708,-128.5042 216.8914,-134.3734 218.6263,-127.5918"/>
</g>
<!-- Node3 -->
<g id="node4" class="node">
<title>Node3</title>
<g id="a_node4"><a xlink:title=" ">
<polygon fill="#ffffff" stroke="#bfbfbf" points="226.3604,-110.5 226.3604,-128.5 277.3848,-128.5 277.3848,-110.5 226.3604,-110.5"/>
<text text-anchor="middle" x="251.8726" y="-116.5" font-family="Helvetica,sans-Serif" font-size="10.00" fill="#000000">unistd.h</text>
</a>
</g>
</g>
<!-- Node0&#45;&gt;Node3 -->
<g id="edge3" class="edge">
<title>Node0&#45;&gt;Node3</title>
<path fill="none" stroke="#191970" d="M365.4149,-165.4179C343.1693,-156.4215 308.8889,-142.5581 283.8132,-132.4172"/>
<polygon fill="#191970" stroke="#191970" points="284.9464,-129.1001 274.3636,-128.5956 282.3219,-135.5895 284.9464,-129.1001"/>
</g>
<!-- Node4 -->
<g id="node5" class="node">
<title>Node4</title>
<g id="a_node5"><a xlink:title=" ">
<polygon fill="#ffffff" stroke="#bfbfbf" points="295.1411,-110.5 295.1411,-128.5 340.604,-128.5 340.604,-110.5 295.1411,-110.5"/>
<text text-anchor="middle" x="317.8726" y="-116.5" font-family="Helvetica,sans-Serif" font-size="10.00" fill="#000000">stdio.h</text>
</a>
</g>
</g>
<!-- Node0&#45;&gt;Node4 -->
<g id="edge4" class="edge">
<title>Node0&#45;&gt;Node4</title>
<path fill="none" stroke="#191970" d="M376.3135,-165.4179C365.8386,-157.1876 350.1793,-144.8839 337.7062,-135.0836"/>
<polygon fill="#191970" stroke="#191970" points="339.7084,-132.2056 329.6828,-128.7795 335.3836,-137.7098 339.7084,-132.2056"/>
</g>
<!-- Node5 -->
<g id="node6" class="node">
<title>Node5</title>
<g id="a_node6"><a xlink:title=" ">
<polygon fill="#ffffff" stroke="#bfbfbf" points="461.752,-55.5 461.752,-73.5 509.9932,-73.5 509.9932,-55.5 461.752,-55.5"/>
<text text-anchor="middle" x="485.8726" y="-61.5" font-family="Helvetica,sans-Serif" font-size="10.00" fill="#000000">stdint.h</text>
</a>
</g>
</g>
<!-- Node0&#45;&gt;Node5 -->
<g id="edge5" class="edge">
<title>Node0&#45;&gt;Node5</title>
<path fill="none" stroke="#191970" d="M391.8194,-165.4421C397.852,-152.2645 410.3207,-127.4765 425.8726,-110 436.3991,-98.1707 450.3965,-87.3495 462.2237,-79.2305"/>
<polygon fill="#191970" stroke="#191970" points="464.3509,-82.0196 470.7516,-73.5767 460.4829,-76.1853 464.3509,-82.0196"/>
</g>
<!-- Node6 -->
<g id="node7" class="node">
<title>Node6</title>
<g id="a_node7"><a xlink:title=" ">
<polygon fill="#ffffff" stroke="#bfbfbf" points="613.0303,-.5 613.0303,-18.5 660.7148,-18.5 660.7148,-.5 613.0303,-.5"/>
<text text-anchor="middle" x="636.8726" y="-6.5" font-family="Helvetica,sans-Serif" font-size="10.00" fill="#000000">stdlib.h</text>
</a>
</g>
</g>
<!-- Node0&#45;&gt;Node6 -->
<g id="edge6" class="edge">
<title>Node0&#45;&gt;Node6</title>
<path fill="none" stroke="#191970" d="M389.7284,-165.2685C394.9428,-142.0267 412.0921,-81.0951 452.8726,-55 499.2368,-25.3318 563.5694,-15.0086 602.5938,-11.4167"/>
<polygon fill="#191970" stroke="#191970" points="603.2134,-14.8777 612.8936,-10.5716 602.6409,-7.9011 603.2134,-14.8777"/>
</g>
<!-- Node7 -->
<g id="node8" class="node">
<title>Node7</title>
<g id="a_node8"><a xlink:title=" ">
<polygon fill="#ffffff" stroke="#bfbfbf" points="434.5327,-110.5 434.5327,-128.5 487.2124,-128.5 487.2124,-110.5 434.5327,-110.5"/>
<text text-anchor="middle" x="460.8726" y="-116.5" font-family="Helvetica,sans-Serif" font-size="10.00" fill="#000000">QObject</text>
</a>
</g>
</g>
<!-- Node0&#45;&gt;Node7 -->
<g id="edge7" class="edge">
<title>Node0&#45;&gt;Node7</title>
<path fill="none" stroke="#191970" d="M399.927,-165.4179C410.9559,-157.1084 427.4957,-144.6469 440.5632,-134.8015"/>
<polygon fill="#191970" stroke="#191970" points="442.6755,-137.5924 448.5562,-128.7795 438.4632,-132.0016 442.6755,-137.5924"/>
</g>
<!-- Node8 -->
<g id="node9" class="node">
<title>Node8</title>
<g id="a_node9"><a xlink:title=" ">
<polygon fill="#ffffff" stroke="#bfbfbf" points="505.3677,-110.5 505.3677,-128.5 556.3774,-128.5 556.3774,-110.5 505.3677,-110.5"/>
<text text-anchor="middle" x="530.8726" y="-116.5" font-family="Helvetica,sans-Serif" font-size="10.00" fill="#000000">QMutex</text>
</a>
</g>
</g>
<!-- Node0&#45;&gt;Node8 -->
<g id="edge8" class="edge">
<title>Node0&#45;&gt;Node8</title>
<path fill="none" stroke="#191970" d="M411.4861,-165.4179C434.9802,-156.3817 471.2408,-142.4353 497.6374,-132.2828"/>
<polygon fill="#191970" stroke="#191970" points="499.1469,-135.4522 507.2239,-128.5956 496.634,-128.9188 499.1469,-135.4522"/>
</g>
<!-- Node9 -->
<g id="node10" class="node">
<title>Node9</title>
<g id="a_node10"><a xlink:href="_m_c_p3428_8h.html" target="_top" xlink:title=" ">
<polygon fill="#ffffff" stroke="#000000" points="574.6782,-110.5 574.6782,-128.5 699.0669,-128.5 699.0669,-110.5 574.6782,-110.5"/>
<text text-anchor="middle" x="636.8726" y="-116.5" font-family="Helvetica,sans-Serif" font-size="10.00" fill="#000000">../MCP3428/MCP3428.h</text>
</a>
</g>
</g>
<!-- Node0&#45;&gt;Node9 -->
<g id="edge9" class="edge">
<title>Node0&#45;&gt;Node9</title>
<path fill="none" stroke="#191970" d="M428.711,-165.4795C471.7714,-155.9681 539.6828,-140.9676 586.1482,-130.7042"/>
<polygon fill="#191970" stroke="#191970" points="587.0021,-134.1 596.0118,-128.5255 585.4922,-127.2648 587.0021,-134.1"/>
</g>
<!-- Node11 -->
<g id="node12" class="node">
<title>Node11</title>
<g id="a_node12"><a xlink:href="_m_p_u6050_8h.html" target="_top" xlink:title=" ">
<polygon fill="#ffffff" stroke="#000000" points="716.6782,-110.5 716.6782,-128.5 841.0669,-128.5 841.0669,-110.5 716.6782,-110.5"/>
<text text-anchor="middle" x="778.8726" y="-116.5" font-family="Helvetica,sans-Serif" font-size="10.00" fill="#000000">../MPU6050/MPU6050.h</text>
</a>
</g>
</g>
<!-- Node0&#45;&gt;Node11 -->
<g id="edge13" class="edge">
<title>Node0&#45;&gt;Node11</title>
<path fill="none" stroke="#191970" d="M448.5373,-165.9666C518.0891,-156.1831 632.0335,-140.1551 706.2479,-129.7157"/>
<polygon fill="#191970" stroke="#191970" points="707.0325,-133.1399 716.4475,-128.281 706.0574,-126.2082 707.0325,-133.1399"/>
</g>
<!-- Node9&#45;&gt;Node5 -->
<g id="edge10" class="edge">
<title>Node9&#45;&gt;Node5</title>
<path fill="none" stroke="#191970" d="M611.938,-110.4179C586.871,-101.2875 548.0409,-87.1441 520.0992,-76.9667"/>
<polygon fill="#191970" stroke="#191970" points="520.9372,-73.547 510.3432,-73.4131 518.5414,-80.1243 520.9372,-73.547"/>
</g>
<!-- Node10 -->
<g id="node11" class="node">
<title>Node10</title>
<g id="a_node11"><a xlink:href="_m_c_p3428_2_i2_cdev_2_i2_cdev_8h.html" target="_top" xlink:title=" ">
<polygon fill="#ffffff" stroke="#000000" points="591.9976,-55.5 591.9976,-73.5 681.7476,-73.5 681.7476,-55.5 591.9976,-55.5"/>
<text text-anchor="middle" x="636.8726" y="-61.5" font-family="Helvetica,sans-Serif" font-size="10.00" fill="#000000">I2Cdev/I2Cdev.h</text>
</a>
</g>
</g>
<!-- Node9&#45;&gt;Node10 -->
<g id="edge11" class="edge">
<title>Node9&#45;&gt;Node10</title>
<path fill="none" stroke="#191970" d="M636.8726,-110.4179C636.8726,-103.2164 636.8726,-92.8962 636.8726,-83.8632"/>
<polygon fill="#191970" stroke="#191970" points="640.3727,-83.7794 636.8726,-73.7795 633.3727,-83.7795 640.3727,-83.7794"/>
</g>
<!-- Node10&#45;&gt;Node6 -->
<g id="edge12" class="edge">
<title>Node10&#45;&gt;Node6</title>
<path fill="none" stroke="#191970" d="M636.8726,-55.4179C636.8726,-48.2164 636.8726,-37.8962 636.8726,-28.8632"/>
<polygon fill="#191970" stroke="#191970" points="640.3727,-28.7794 636.8726,-18.7795 633.3727,-28.7795 640.3727,-28.7794"/>
</g>
<!-- Node12 -->
<g id="node13" class="node">
<title>Node12</title>
<g id="a_node13"><a xlink:href="_m_p_u6050_2_i2_cdev_2_i2_cdev_8h.html" target="_top" xlink:title=" ">
<polygon fill="#ffffff" stroke="#000000" points="716.9976,-55.5 716.9976,-73.5 806.7476,-73.5 806.7476,-55.5 716.9976,-55.5"/>
<text text-anchor="middle" x="761.8726" y="-61.5" font-family="Helvetica,sans-Serif" font-size="10.00" fill="#000000">I2Cdev/I2Cdev.h</text>
</a>
</g>
</g>
<!-- Node11&#45;&gt;Node12 -->
<g id="edge14" class="edge">
<title>Node11&#45;&gt;Node12</title>
<path fill="none" stroke="#191970" d="M776.0654,-110.4179C773.815,-103.1372 770.5793,-92.669 767.7656,-83.5659"/>
<polygon fill="#191970" stroke="#191970" points="771.0378,-82.2999 764.7408,-73.7795 764.35,-84.3671 771.0378,-82.2999"/>
</g>
<!-- Node12&#45;&gt;Node6 -->
<g id="edge15" class="edge">
<title>Node12&#45;&gt;Node6</title>
<path fill="none" stroke="#191970" d="M741.2314,-55.4179C720.9659,-46.5011 689.834,-32.803 666.8436,-22.6873"/>
<polygon fill="#191970" stroke="#191970" points="668.1072,-19.4195 657.5444,-18.5956 665.288,-25.8267 668.1072,-19.4195"/>
</g>
</g>
</svg>
