<?xml version="1.0" encoding="UTF-8" standalone="no"?>
<!DOCTYPE svg PUBLIC "-//W3C//DTD SVG 1.1//EN"
 "http://www.w3.org/Graphics/SVG/1.1/DTD/svg11.dtd">
<!-- Generated by graphviz version 2.40.1 (20161225.0304)
 -->
<!-- Title: /Users/jamielee/Desktop/uni stuff/RTE5/ENG5220/code/Qt/SampleTimer.h Pages: 1 -->
<svg width="999pt" height="212pt"
 viewBox="0.00 0.00 999.07 212.00" xmlns="http://www.w3.org/2000/svg" xmlns:xlink="http://www.w3.org/1999/xlink">
<g id="graph0" class="graph" transform="scale(1 1) rotate(0) translate(4 208)">
<title>/Users/jamielee/Desktop/uni stuff/RTE5/ENG5220/code/Qt/SampleTimer.h</title>
<polygon fill="#ffffff" stroke="transparent" points="-4,4 -4,-208 995.0669,-208 995.0669,4 -4,4"/>
<!-- Node0 -->
<g id="node1" class="node">
<title>Node0</title>
<g id="a_node1"><a xlink:title=" ">
<polygon fill="#bfbfbf" stroke="#000000" points="411.6323,-165.5 411.6323,-203.5 540.1128,-203.5 540.1128,-165.5 411.6323,-165.5"/>
<text text-anchor="start" x="419.6323" y="-191.5" font-family="Helvetica,sans-Serif" font-size="10.00" fill="#000000">/Users/jamielee/Desktop</text>
<text text-anchor="start" x="419.6323" y="-181.5" font-family="Helvetica,sans-Serif" font-size="10.00" fill="#000000">/uni stuff/RTE5/ENG5220</text>
<text text-anchor="middle" x="475.8726" y="-171.5" font-family="Helvetica,sans-Serif" font-size="10.00" fill="#000000">/code/Qt/SampleTimer.h</text>
</a>
</g>
</g>
<!-- Node1 -->
<g id="node2" class="node">
<title>Node1</title>
<g id="a_node2"><a xlink:title=" ">
<polygon fill="#ffffff" stroke="#bfbfbf" points="0,-110.5 0,-128.5 119.7451,-128.5 119.7451,-110.5 0,-110.5"/>
<text text-anchor="middle" x="59.8726" y="-116.5" font-family="Helvetica,sans-Serif" font-size="10.00" fill="#000000">../cppTimer/CppTimer.h</text>
</a>
</g>
</g>
<!-- Node0&#45;&gt;Node1 -->
<g id="edge1" class="edge">
<title>Node0&#45;&gt;Node1</title>
<path fill="none" stroke="#191970" d="M411.329,-174.4151C334.3395,-162.3855 206.2242,-142.3674 127.7803,-130.1106"/>
<polygon fill="#191970" stroke="#191970" points="127.9444,-126.5938 117.5239,-128.508 126.8637,-133.5099 127.9444,-126.5938"/>
</g>
<!-- Node2 -->
<g id="node3" class="node">
<title>Node2</title>
<g id="a_node3"><a xlink:href="_ring_buff_8h.html" target="_top" xlink:title=" ">
<polygon fill="#ffffff" stroke="#000000" points="138.1108,-110.5 138.1108,-128.5 235.6343,-128.5 235.6343,-110.5 138.1108,-110.5"/>
<text text-anchor="middle" x="186.8726" y="-116.5" font-family="Helvetica,sans-Serif" font-size="10.00" fill="#000000">../filters/RingBuff.h</text>
</a>
</g>
</g>
<!-- Node0&#45;&gt;Node2 -->
<g id="edge2" class="edge">
<title>Node0&#45;&gt;Node2</title>
<path fill="none" stroke="#191970" d="M411.375,-169.9936C358.7249,-158.1519 285.3832,-141.6564 237.048,-130.7851"/>
<polygon fill="#191970" stroke="#191970" points="237.6541,-127.3341 227.1298,-128.5544 236.118,-134.1635 237.6541,-127.3341"/>
</g>
<!-- Node3 -->
<g id="node4" class="node">
<title>Node3</title>
<g id="a_node4"><a xlink:title=" ">
<polygon fill="#ffffff" stroke="#bfbfbf" points="253.3604,-110.5 253.3604,-128.5 304.3848,-128.5 304.3848,-110.5 253.3604,-110.5"/>
<text text-anchor="middle" x="278.8726" y="-116.5" font-family="Helvetica,sans-Serif" font-size="10.00" fill="#000000">unistd.h</text>
</a>
</g>
</g>
<!-- Node0&#45;&gt;Node3 -->
<g id="edge3" class="edge">
<title>Node0&#45;&gt;Node3</title>
<path fill="none" stroke="#191970" d="M418.0972,-165.437C384.3795,-154.3119 342.9347,-140.6373 314.0715,-131.1139"/>
<polygon fill="#191970" stroke="#191970" points="315.0133,-127.7391 304.4202,-127.9294 312.8199,-134.3866 315.0133,-127.7391"/>
</g>
<!-- Node4 -->
<g id="node5" class="node">
<title>Node4</title>
<g id="a_node5"><a xlink:title=" ">
<polygon fill="#ffffff" stroke="#bfbfbf" points="322.1411,-110.5 322.1411,-128.5 367.604,-128.5 367.604,-110.5 322.1411,-110.5"/>
<text text-anchor="middle" x="344.8726" y="-116.5" font-family="Helvetica,sans-Serif" font-size="10.00" fill="#000000">stdio.h</text>
</a>
</g>
</g>
<!-- Node0&#45;&gt;Node4 -->
<g id="edge4" class="edge">
<title>Node0&#45;&gt;Node4</title>
<path fill="none" stroke="#191970" d="M437.2768,-165.3494C416.4535,-155.0173 391.2394,-142.5064 372.4135,-133.1654"/>
<polygon fill="#191970" stroke="#191970" points="373.7218,-129.9074 363.2082,-128.5978 370.6104,-136.1779 373.7218,-129.9074"/>
</g>
<!-- Node5 -->
<g id="node6" class="node">
<title>Node5</title>
<g id="a_node6"><a xlink:title=" ">
<polygon fill="#ffffff" stroke="#bfbfbf" points="673.752,-55.5 673.752,-73.5 721.9932,-73.5 721.9932,-55.5 673.752,-55.5"/>
<text text-anchor="middle" x="697.8726" y="-61.5" font-family="Helvetica,sans-Serif" font-size="10.00" fill="#000000">stdint.h</text>
</a>
</g>
</g>
<!-- Node0&#45;&gt;Node5 -->
<g id="edge5" class="edge">
<title>Node0&#45;&gt;Node5</title>
<path fill="none" stroke="#191970" d="M540.2413,-173.7385C591.6301,-163.9228 658.1757,-148.0661 677.8726,-129 689.97,-117.29 694.7885,-98.4204 696.6878,-84.1089"/>
<polygon fill="#191970" stroke="#191970" points="700.2026,-84.1197 697.6684,-73.8325 693.2342,-83.4548 700.2026,-84.1197"/>
</g>
<!-- Node6 -->
<g id="node7" class="node">
<title>Node6</title>
<g id="a_node7"><a xlink:title=" ">
<polygon fill="#ffffff" stroke="#bfbfbf" points="567.0303,-.5 567.0303,-18.5 614.7148,-18.5 614.7148,-.5 567.0303,-.5"/>
<text text-anchor="middle" x="590.8726" y="-6.5" font-family="Helvetica,sans-Serif" font-size="10.00" fill="#000000">stdlib.h</text>
</a>
</g>
</g>
<!-- Node0&#45;&gt;Node6 -->
<g id="edge6" class="edge">
<title>Node0&#45;&gt;Node6</title>
<path fill="none" stroke="#191970" d="M445.8386,-165.4955C433.8432,-156.1226 421.3569,-143.6663 414.8726,-129 411.4579,-121.2767 412.4596,-118.0924 414.8726,-110 423.2206,-82.0028 427.6632,-72.7441 450.8726,-55 482.1109,-31.1175 526.3703,-19.5071 556.7153,-14.0441"/>
<polygon fill="#191970" stroke="#191970" points="557.5363,-17.4556 566.8242,-12.3581 556.3846,-10.5509 557.5363,-17.4556"/>
</g>
<!-- Node7 -->
<g id="node8" class="node">
<title>Node7</title>
<g id="a_node8"><a xlink:title=" ">
<polygon fill="#ffffff" stroke="#bfbfbf" points="546.5327,-110.5 546.5327,-128.5 599.2124,-128.5 599.2124,-110.5 546.5327,-110.5"/>
<text text-anchor="middle" x="572.8726" y="-116.5" font-family="Helvetica,sans-Serif" font-size="10.00" fill="#000000">QObject</text>
</a>
</g>
</g>
<!-- Node0&#45;&gt;Node7 -->
<g id="edge7" class="edge">
<title>Node0&#45;&gt;Node7</title>
<path fill="none" stroke="#191970" d="M504.4511,-165.3494C519.304,-155.3964 537.174,-143.4217 550.9263,-134.2063"/>
<polygon fill="#191970" stroke="#191970" points="552.9368,-137.0722 559.2958,-128.5978 549.0401,-131.2571 552.9368,-137.0722"/>
</g>
<!-- Node8 -->
<g id="node9" class="node">
<title>Node8</title>
<g id="a_node9"><a xlink:title=" ">
<polygon fill="#ffffff" stroke="#bfbfbf" points="617.3677,-110.5 617.3677,-128.5 668.3774,-128.5 668.3774,-110.5 617.3677,-110.5"/>
<text text-anchor="middle" x="642.8726" y="-116.5" font-family="Helvetica,sans-Serif" font-size="10.00" fill="#000000">QMutex</text>
</a>
</g>
</g>
<!-- Node0&#45;&gt;Node8 -->
<g id="edge8" class="edge">
<title>Node0&#45;&gt;Node8</title>
<path fill="none" stroke="#191970" d="M525.0748,-165.3494C552.4729,-154.6855 585.8338,-141.7007 610.0493,-132.2755"/>
<polygon fill="#191970" stroke="#191970" points="611.4486,-135.4867 619.4981,-128.5978 608.9096,-128.9634 611.4486,-135.4867"/>
</g>
<!-- Node9 -->
<g id="node10" class="node">
<title>Node9</title>
<g id="a_node10"><a xlink:href="_filter_bank_8h.html" target="_top" xlink:title=" ">
<polygon fill="#ffffff" stroke="#000000" points="423.6929,-110.5 423.6929,-128.5 528.0522,-128.5 528.0522,-110.5 423.6929,-110.5"/>
<text text-anchor="middle" x="475.8726" y="-116.5" font-family="Helvetica,sans-Serif" font-size="10.00" fill="#000000">../filters/FilterBank.h</text>
</a>
</g>
</g>
<!-- Node0&#45;&gt;Node9 -->
<g id="edge9" class="edge">
<title>Node0&#45;&gt;Node9</title>
<path fill="none" stroke="#191970" d="M475.8726,-165.3494C475.8726,-157.0079 475.8726,-147.2463 475.8726,-138.879"/>
<polygon fill="#191970" stroke="#191970" points="479.3727,-138.5978 475.8726,-128.5978 472.3727,-138.5979 479.3727,-138.5978"/>
</g>
<!-- Node11 -->
<g id="node12" class="node">
<title>Node11</title>
<g id="a_node12"><a xlink:href="_m_c_p3428_8h.html" target="_top" xlink:title=" ">
<polygon fill="#ffffff" stroke="#000000" points="724.6782,-110.5 724.6782,-128.5 849.0669,-128.5 849.0669,-110.5 724.6782,-110.5"/>
<text text-anchor="middle" x="786.8726" y="-116.5" font-family="Helvetica,sans-Serif" font-size="10.00" fill="#000000">../MCP3428/MCP3428.h</text>
</a>
</g>
</g>
<!-- Node0&#45;&gt;Node11 -->
<g id="edge11" class="edge">
<title>Node0&#45;&gt;Node11</title>
<path fill="none" stroke="#191970" d="M540.312,-171.032C597.4756,-159.0846 679.9886,-141.8391 733.5259,-130.6496"/>
<polygon fill="#191970" stroke="#191970" points="734.4291,-134.0366 743.5015,-128.5647 732.997,-127.1846 734.4291,-134.0366"/>
</g>
<!-- Node13 -->
<g id="node14" class="node">
<title>Node13</title>
<g id="a_node14"><a xlink:href="_m_p_u6050_8h.html" target="_top" xlink:title=" ">
<polygon fill="#ffffff" stroke="#000000" points="866.6782,-110.5 866.6782,-128.5 991.0669,-128.5 991.0669,-110.5 866.6782,-110.5"/>
<text text-anchor="middle" x="928.8726" y="-116.5" font-family="Helvetica,sans-Serif" font-size="10.00" fill="#000000">../MPU6050/MPU6050.h</text>
</a>
</g>
</g>
<!-- Node0&#45;&gt;Node13 -->
<g id="edge15" class="edge">
<title>Node0&#45;&gt;Node13</title>
<path fill="none" stroke="#191970" d="M540.2953,-175.2561C623.8253,-163.2706 769.1136,-142.4235 856.4034,-129.8984"/>
<polygon fill="#191970" stroke="#191970" points="857.0902,-133.3358 866.4917,-128.4509 856.0959,-126.4068 857.0902,-133.3358"/>
</g>
<!-- Node10 -->
<g id="node11" class="node">
<title>Node10</title>
<g id="a_node11"><a xlink:title=" ">
<polygon fill="#ffffff" stroke="#bfbfbf" points="459.811,-55.5 459.811,-73.5 491.9341,-73.5 491.9341,-55.5 459.811,-55.5"/>
<text text-anchor="middle" x="475.8726" y="-61.5" font-family="Helvetica,sans-Serif" font-size="10.00" fill="#000000">Iir.h</text>
</a>
</g>
</g>
<!-- Node9&#45;&gt;Node10 -->
<g id="edge10" class="edge">
<title>Node9&#45;&gt;Node10</title>
<path fill="none" stroke="#191970" d="M475.8726,-110.4179C475.8726,-103.2164 475.8726,-92.8962 475.8726,-83.8632"/>
<polygon fill="#191970" stroke="#191970" points="479.3727,-83.7794 475.8726,-73.7795 472.3727,-83.7795 479.3727,-83.7794"/>
</g>
<!-- Node11&#45;&gt;Node5 -->
<g id="edge12" class="edge">
<title>Node11&#45;&gt;Node5</title>
<path fill="none" stroke="#191970" d="M772.176,-110.4179C758.3912,-101.8992 737.5448,-89.0166 721.4377,-79.0627"/>
<polygon fill="#191970" stroke="#191970" points="722.9376,-75.8753 712.5909,-73.5956 719.2577,-81.83 722.9376,-75.8753"/>
</g>
<!-- Node12 -->
<g id="node13" class="node">
<title>Node12</title>
<g id="a_node13"><a xlink:href="_m_c_p3428_2_i2_cdev_2_i2_cdev_8h.html" target="_top" xlink:title=" ">
<polygon fill="#ffffff" stroke="#000000" points="741.9976,-55.5 741.9976,-73.5 831.7476,-73.5 831.7476,-55.5 741.9976,-55.5"/>
<text text-anchor="middle" x="786.8726" y="-61.5" font-family="Helvetica,sans-Serif" font-size="10.00" fill="#000000">I2Cdev/I2Cdev.h</text>
</a>
</g>
</g>
<!-- Node11&#45;&gt;Node12 -->
<g id="edge13" class="edge">
<title>Node11&#45;&gt;Node12</title>
<path fill="none" stroke="#191970" d="M786.8726,-110.4179C786.8726,-103.2164 786.8726,-92.8962 786.8726,-83.8632"/>
<polygon fill="#191970" stroke="#191970" points="790.3727,-83.7794 786.8726,-73.7795 783.3727,-83.7795 790.3727,-83.7794"/>
</g>
<!-- Node12&#45;&gt;Node6 -->
<g id="edge14" class="edge">
<title>Node12&#45;&gt;Node6</title>
<path fill="none" stroke="#191970" d="M754.5071,-55.4179C718.629,-45.35 661.0292,-29.1868 624.6088,-18.9668"/>
<polygon fill="#191970" stroke="#191970" points="625.5074,-15.5838 614.9336,-16.2518 623.6161,-22.3235 625.5074,-15.5838"/>
</g>
<!-- Node13&#45;&gt;Node12 -->
<g id="edge16" class="edge">
<title>Node13&#45;&gt;Node12</title>
<path fill="none" stroke="#191970" d="M905.4241,-110.4179C882.0943,-101.3817 846.0873,-87.4353 819.8753,-77.2828"/>
<polygon fill="#191970" stroke="#191970" points="820.9449,-73.9437 810.3558,-73.5956 818.4166,-80.4712 820.9449,-73.9437"/>
</g>
</g>
</svg>
