<?xml version="1.0" encoding="UTF-8" standalone="no"?>
<!DOCTYPE svg PUBLIC "-//W3C//DTD SVG 1.1//EN"
 "http://www.w3.org/Graphics/SVG/1.1/DTD/svg11.dtd">
<!-- Generated by graphviz version 2.40.1 (20161225.0304)
 -->
<!-- Title: /Users/jamielee/Desktop/uni stuff/RTE5/ENG5220/code/Qt/TrainWindow.h Pages: 1 -->
<!--zoomable 157 -->
<svg id="main" version="1.1" xmlns="http://www.w3.org/2000/svg" xmlns:xlink="http://www.w3.org/1999/xlink" xml:space="preserve" onload="init(evt)">
<style type="text/css"><![CDATA[
.edge:hover path { stroke: red; }
.edge:hover polygon { stroke: red; fill: red; }
]]></style>
<script type="text/javascript"><![CDATA[
var edges = document.getElementsByTagName('g');
if (edges && edges.length) {
  for (var i=0;i<edges.length;i++) {
    if (edges[i].id.substr(0,4)=='edge') {
      edges[i].setAttribute('class','edge');
    }
  }
}
]]></script>
        <defs>
                <circle id="rim" cx="0" cy="0" r="7"/>
                <circle id="rim2" cx="0" cy="0" r="3.5"/>
                <g id="zoomPlus">
                        <use xlink:href="#rim" fill="#404040">
                                <set attributeName="fill" to="#808080" begin="zoomplus.mouseover" end="zoomplus.mouseout"/>
                        </use>
                        <path d="M-4,0h8M0,-4v8" fill="none" stroke="white" stroke-width="1.5" pointer-events="none"/>
                </g>
                <g id="zoomMin">
                        <use xlink:href="#rim" fill="#404040">
                                <set attributeName="fill" to="#808080" begin="zoomminus.mouseover" end="zoomminus.mouseout"/>
                        </use>
                        <path d="M-4,0h8" fill="none" stroke="white" stroke-width="1.5" pointer-events="none"/>
                </g>
                <g id="dirArrow">
                        <path fill="none" stroke="white" stroke-width="1.5" d="M0,-3.0v7 M-2.5,-0.5L0,-3.0L2.5,-0.5"/>
                </g>
               <g id="resetDef">
                       <use xlink:href="#rim2" fill="#404040">
                               <set attributeName="fill" to="#808080" begin="reset.mouseover" end="reset.mouseout"/>
                       </use>
               </g>
        </defs>

<script type="text/javascript">
var viewWidth = 1354;
var viewHeight = 157;
var sectionId = 'dynsection-0';
</script>
<script xlink:href="svgpan.js"/>
<svg id="graph" class="graph">
<g id="viewport">
<title>/Users/jamielee/Desktop/uni stuff/RTE5/ENG5220/code/Qt/TrainWindow.h</title>
<polygon fill="#ffffff" stroke="transparent" points="-4,4 -4,-153 1350.1821,-153 1350.1821,4 -4,4"/>
<!-- Node0 -->
<g id="node1" class="node">
<title>Node0</title>
<g id="a_node1"><a xlink:title=" ">
<polygon fill="#bfbfbf" stroke="#000000" points="580.272,-110.5 580.272,-148.5 708.7524,-148.5 708.7524,-110.5 580.272,-110.5"/>
<text text-anchor="start" x="588.272" y="-136.5" font-family="Helvetica,sans-Serif" font-size="10.00" fill="#000000">/Users/jamielee/Desktop</text>
<text text-anchor="start" x="588.272" y="-126.5" font-family="Helvetica,sans-Serif" font-size="10.00" fill="#000000">/uni stuff/RTE5/ENG5220</text>
<text text-anchor="middle" x="644.5122" y="-116.5" font-family="Helvetica,sans-Serif" font-size="10.00" fill="#000000">/code/Qt/TrainWindow.h</text>
</a>
</g>
</g>
<!-- Node1 -->
<g id="node2" class="node">
<title>Node1</title>
<g id="a_node2"><a xlink:href="config_8h.html" target="_top" xlink:title=" ">
<polygon fill="#ffffff" stroke="#000000" points="0,-55.5 0,-73.5 51.0244,-73.5 51.0244,-55.5 0,-55.5"/>
<text text-anchor="middle" x="25.5122" y="-61.5" font-family="Helvetica,sans-Serif" font-size="10.00" fill="#000000">config.h</text>
</a>
</g>
</g>
<!-- Node0&#45;&gt;Node1 -->
<g id="edge1" class="edge">
<title>Node0&#45;&gt;Node1</title>
<path fill="none" stroke="#191970" d="M579.9363,-127.127C473.417,-122.3915 254.2374,-109.1846 61.4221,-74.0924"/>
<polygon fill="#191970" stroke="#191970" points="61.8583,-70.6139 51.3893,-72.242 60.5887,-77.4978 61.8583,-70.6139"/>
</g>
<!-- Node2 -->
<g id="node3" class="node">
<title>Node2</title>
<g id="a_node3"><a xlink:title=" ">
<polygon fill="#ffffff" stroke="#bfbfbf" points="68.9951,-55.5 68.9951,-73.5 140.0293,-73.5 140.0293,-55.5 68.9951,-55.5"/>
<text text-anchor="middle" x="104.5122" y="-61.5" font-family="Helvetica,sans-Serif" font-size="10.00" fill="#000000">QBoxLayout</text>
</a>
</g>
</g>
<!-- Node0&#45;&gt;Node2 -->
<g id="edge2" class="edge">
<title>Node0&#45;&gt;Node2</title>
<path fill="none" stroke="#191970" d="M580.0999,-123.7572C486.2271,-115.0362 306.4563,-97.0066 154.5122,-74 153.0653,-73.7809 151.5963,-73.5504 150.1141,-73.3109"/>
<polygon fill="#191970" stroke="#191970" points="150.6822,-69.8573 140.2358,-71.6245 149.5042,-76.7575 150.6822,-69.8573"/>
</g>
<!-- Node3 -->
<g id="node4" class="node">
<title>Node3</title>
<g id="a_node4"><a xlink:title=" ">
<polygon fill="#ffffff" stroke="#bfbfbf" points="622.6748,-.5 622.6748,-18.5 670.3496,-18.5 670.3496,-.5 622.6748,-.5"/>
<text text-anchor="middle" x="646.5122" y="-6.5" font-family="Helvetica,sans-Serif" font-size="10.00" fill="#000000">QColor</text>
</a>
</g>
</g>
<!-- Node0&#45;&gt;Node3 -->
<g id="edge3" class="edge">
<title>Node0&#45;&gt;Node3</title>
<path fill="none" stroke="#191970" d="M580.2151,-126.3406C460.4851,-119.7955 213.117,-102.9025 187.5122,-74 181.9126,-67.6792 181.8432,-61.2587 187.5122,-55 215.9714,-23.5802 511.4035,-13.0078 612.6712,-10.2919"/>
<polygon fill="#191970" stroke="#191970" points="612.7667,-13.7907 622.6726,-10.0325 612.5851,-6.7931 612.7667,-13.7907"/>
</g>
<!-- Node4 -->
<g id="node5" class="node">
<title>Node4</title>
<g id="a_node5"><a xlink:title=" ">
<polygon fill="#ffffff" stroke="#bfbfbf" points="196.835,-55.5 196.835,-73.5 266.1895,-73.5 266.1895,-55.5 196.835,-55.5"/>
<text text-anchor="middle" x="231.5122" y="-61.5" font-family="Helvetica,sans-Serif" font-size="10.00" fill="#000000">QCheckBox</text>
</a>
</g>
</g>
<!-- Node0&#45;&gt;Node4 -->
<g id="edge4" class="edge">
<title>Node0&#45;&gt;Node4</title>
<path fill="none" stroke="#191970" d="M580.1209,-121.2042C508.2963,-111.6444 388.45,-94.7822 276.3332,-74.2477"/>
<polygon fill="#191970" stroke="#191970" points="276.6736,-70.7515 266.2044,-72.3786 275.4031,-77.6353 276.6736,-70.7515"/>
</g>
<!-- Node5 -->
<g id="node6" class="node">
<title>Node5</title>
<g id="a_node6"><a xlink:title=" ">
<polygon fill="#ffffff" stroke="#bfbfbf" points="283.771,-55.5 283.771,-73.5 359.2534,-73.5 359.2534,-55.5 283.771,-55.5"/>
<text text-anchor="middle" x="321.5122" y="-61.5" font-family="Helvetica,sans-Serif" font-size="10.00" fill="#000000">QPushButton</text>
</a>
</g>
</g>
<!-- Node0&#45;&gt;Node5 -->
<g id="edge5" class="edge">
<title>Node0&#45;&gt;Node5</title>
<path fill="none" stroke="#191970" d="M580.0972,-116.5659C526.4533,-105.7903 447.7564,-89.9721 369.5115,-74.2"/>
<polygon fill="#191970" stroke="#191970" points="369.9709,-70.7223 359.4764,-72.177 368.5875,-77.5843 369.9709,-70.7223"/>
</g>
<!-- Node6 -->
<g id="node7" class="node">
<title>Node6</title>
<g id="a_node7"><a xlink:title=" ">
<polygon fill="#ffffff" stroke="#bfbfbf" points="377.5615,-55.5 377.5615,-73.5 427.4629,-73.5 427.4629,-55.5 377.5615,-55.5"/>
<text text-anchor="middle" x="402.5122" y="-61.5" font-family="Helvetica,sans-Serif" font-size="10.00" fill="#000000">QString</text>
</a>
</g>
</g>
<!-- Node0&#45;&gt;Node6 -->
<g id="edge6" class="edge">
<title>Node0&#45;&gt;Node6</title>
<path fill="none" stroke="#191970" d="M579.812,-112.4449C541.1398,-102.2022 490.7785,-88.7793 437.6954,-74.3031"/>
<polygon fill="#191970" stroke="#191970" points="438.3229,-70.8464 427.7541,-71.5883 436.4788,-77.5991 438.3229,-70.8464"/>
</g>
<!-- Node7 -->
<g id="node8" class="node">
<title>Node7</title>
<g id="a_node8"><a xlink:title=" ">
<polygon fill="#ffffff" stroke="#bfbfbf" points="445.3892,-55.5 445.3892,-73.5 493.6353,-73.5 493.6353,-55.5 445.3892,-55.5"/>
<text text-anchor="middle" x="469.5122" y="-61.5" font-family="Helvetica,sans-Serif" font-size="10.00" fill="#000000">QLabel</text>
</a>
</g>
</g>
<!-- Node0&#45;&gt;Node7 -->
<g id="edge7" class="edge">
<title>Node0&#45;&gt;Node7</title>
<path fill="none" stroke="#191970" d="M592.9529,-110.3494C564.1148,-99.6381 528.9725,-86.5853 503.5701,-77.1501"/>
<polygon fill="#191970" stroke="#191970" points="504.5993,-73.7988 494.0064,-73.5978 502.162,-80.3608 504.5993,-73.7988"/>
</g>
<!-- Node8 -->
<g id="node9" class="node">
<title>Node8</title>
<g id="a_node9"><a xlink:title=" ">
<polygon fill="#ffffff" stroke="#bfbfbf" points="511.6182,-55.5 511.6182,-73.5 555.4063,-73.5 555.4063,-55.5 511.6182,-55.5"/>
<text text-anchor="middle" x="533.5122" y="-61.5" font-family="Helvetica,sans-Serif" font-size="10.00" fill="#000000">QFont</text>
</a>
</g>
</g>
<!-- Node0&#45;&gt;Node8 -->
<g id="edge8" class="edge">
<title>Node0&#45;&gt;Node8</title>
<path fill="none" stroke="#191970" d="M611.8089,-110.3494C594.4885,-100.2069 573.5829,-87.9648 557.7319,-78.6827"/>
<polygon fill="#191970" stroke="#191970" points="559.4465,-75.6308 549.0485,-73.5978 555.9092,-81.6714 559.4465,-75.6308"/>
</g>
<!-- Node9 -->
<g id="node10" class="node">
<title>Node9</title>
<g id="a_node10"><a xlink:title=" ">
<polygon fill="#ffffff" stroke="#bfbfbf" points="573.5542,-55.5 573.5542,-73.5 633.4702,-73.5 633.4702,-55.5 573.5542,-55.5"/>
<text text-anchor="middle" x="603.5122" y="-61.5" font-family="Helvetica,sans-Serif" font-size="10.00" fill="#000000">QLineEdit</text>
</a>
</g>
</g>
<!-- Node0&#45;&gt;Node9 -->
<g id="edge9" class="edge">
<title>Node0&#45;&gt;Node9</title>
<path fill="none" stroke="#191970" d="M632.4326,-110.3494C626.8123,-101.4391 620.1699,-90.9085 614.6692,-82.1879"/>
<polygon fill="#191970" stroke="#191970" points="617.5462,-80.1886 609.2508,-73.5978 611.6256,-83.9231 617.5462,-80.1886"/>
</g>
<!-- Node10 -->
<g id="node11" class="node">
<title>Node10</title>
<g id="a_node11"><a xlink:title=" ">
<polygon fill="#ffffff" stroke="#bfbfbf" points="651.1108,-55.5 651.1108,-73.5 719.9136,-73.5 719.9136,-55.5 651.1108,-55.5"/>
<text text-anchor="middle" x="685.5122" y="-61.5" font-family="Helvetica,sans-Serif" font-size="10.00" fill="#000000">QGroupBox</text>
</a>
</g>
</g>
<!-- Node0&#45;&gt;Node10 -->
<g id="edge10" class="edge">
<title>Node0&#45;&gt;Node10</title>
<path fill="none" stroke="#191970" d="M656.5918,-110.3494C662.2121,-101.4391 668.8545,-90.9085 674.3552,-82.1879"/>
<polygon fill="#191970" stroke="#191970" points="677.3988,-83.9231 679.7736,-73.5978 671.4782,-80.1886 677.3988,-83.9231"/>
</g>
<!-- Node11 -->
<g id="node12" class="node">
<title>Node11</title>
<g id="a_node12"><a xlink:title=" ">
<polygon fill="#ffffff" stroke="#bfbfbf" points="738.0303,-55.5 738.0303,-73.5 786.9941,-73.5 786.9941,-55.5 738.0303,-55.5"/>
<text text-anchor="middle" x="762.5122" y="-61.5" font-family="Helvetica,sans-Serif" font-size="10.00" fill="#000000">QTimer</text>
</a>
</g>
</g>
<!-- Node0&#45;&gt;Node11 -->
<g id="edge11" class="edge">
<title>Node0&#45;&gt;Node11</title>
<path fill="none" stroke="#191970" d="M679.2779,-110.3494C697.8626,-100.1121 720.3303,-87.7358 737.2362,-78.4233"/>
<polygon fill="#191970" stroke="#191970" points="738.9258,-81.4884 745.9961,-73.5978 735.5484,-75.3571 738.9258,-81.4884"/>
</g>
<!-- Node12 -->
<g id="node13" class="node">
<title>Node12</title>
<g id="a_node13"><a xlink:title=" ">
<polygon fill="#ffffff" stroke="#bfbfbf" points="805.2808,-55.5 805.2808,-73.5 875.7437,-73.5 875.7437,-55.5 805.2808,-55.5"/>
<text text-anchor="middle" x="840.5122" y="-61.5" font-family="Helvetica,sans-Serif" font-size="10.00" fill="#000000">QListWidget</text>
</a>
</g>
</g>
<!-- Node0&#45;&gt;Node12 -->
<g id="edge12" class="edge">
<title>Node0&#45;&gt;Node12</title>
<path fill="none" stroke="#191970" d="M701.9943,-110.437C734.8335,-99.5465 775.0398,-86.2128 803.659,-76.7217"/>
<polygon fill="#191970" stroke="#191970" points="804.8778,-80.0051 813.2677,-73.5352 802.6743,-73.3609 804.8778,-80.0051"/>
</g>
<!-- Node13 -->
<g id="node14" class="node">
<title>Node13</title>
<g id="a_node14"><a xlink:title=" ">
<polygon fill="#ffffff" stroke="#bfbfbf" points="894.2363,-55.5 894.2363,-73.5 930.7881,-73.5 930.7881,-55.5 894.2363,-55.5"/>
<text text-anchor="middle" x="912.5122" y="-61.5" font-family="Helvetica,sans-Serif" font-size="10.00" fill="#000000">QDir</text>
</a>
</g>
</g>
<!-- Node0&#45;&gt;Node13 -->
<g id="edge13" class="edge">
<title>Node0&#45;&gt;Node13</title>
<path fill="none" stroke="#191970" d="M708.8782,-116.4413C757.4596,-106.1448 825.5878,-90.764 884.5122,-74 884.611,-73.9719 884.7099,-73.9437 884.8089,-73.9153"/>
<polygon fill="#191970" stroke="#191970" points="885.704,-77.3022 894.2196,-70.9986 883.6316,-70.616 885.704,-77.3022"/>
</g>
<!-- Node14 -->
<g id="node15" class="node">
<title>Node14</title>
<g id="a_node15"><a xlink:title=" ">
<polygon fill="#ffffff" stroke="#bfbfbf" points="948.8096,-55.5 948.8096,-73.5 1050.2148,-73.5 1050.2148,-55.5 948.8096,-55.5"/>
<text text-anchor="middle" x="999.5122" y="-61.5" font-family="Helvetica,sans-Serif" font-size="10.00" fill="#000000">QAbstractItemView</text>
</a>
</g>
</g>
<!-- Node0&#45;&gt;Node14 -->
<g id="edge14" class="edge">
<title>Node0&#45;&gt;Node14</title>
<path fill="none" stroke="#191970" d="M708.8,-117.729C774.7071,-105.6615 876.3542,-87.0501 940.3357,-75.3351"/>
<polygon fill="#191970" stroke="#191970" points="941.0637,-78.7601 950.2698,-73.5162 939.8029,-71.8746 941.0637,-78.7601"/>
</g>
<!-- Node15 -->
<g id="node16" class="node">
<title>Node15</title>
<g id="a_node16"><a xlink:title=" ">
<polygon fill="#ffffff" stroke="#bfbfbf" points="1067.7192,-55.5 1067.7192,-73.5 1149.3052,-73.5 1149.3052,-55.5 1067.7192,-55.5"/>
<text text-anchor="middle" x="1108.5122" y="-61.5" font-family="Helvetica,sans-Serif" font-size="10.00" fill="#000000">QMessageBox</text>
</a>
</g>
</g>
<!-- Node0&#45;&gt;Node15 -->
<g id="edge15" class="edge">
<title>Node0&#45;&gt;Node15</title>
<path fill="none" stroke="#191970" d="M709.0246,-122.0598C788.7057,-112.6046 928.6167,-95.1384 1057.5814,-74.2498"/>
<polygon fill="#191970" stroke="#191970" points="1058.3308,-77.6739 1067.6372,-72.6104 1057.2043,-70.7652 1058.3308,-77.6739"/>
</g>
<!-- Node16 -->
<g id="node17" class="node">
<title>Node16</title>
<g id="a_node17"><a xlink:href="_q_led_8h.html" target="_top" xlink:title=" ">
<polygon fill="#ffffff" stroke="#000000" points="1167.1108,-55.5 1167.1108,-73.5 1215.9136,-73.5 1215.9136,-55.5 1167.1108,-55.5"/>
<text text-anchor="middle" x="1191.5122" y="-61.5" font-family="Helvetica,sans-Serif" font-size="10.00" fill="#000000">QLed.h</text>
</a>
</g>
</g>
<!-- Node0&#45;&gt;Node16 -->
<g id="edge16" class="edge">
<title>Node0&#45;&gt;Node16</title>
<path fill="none" stroke="#191970" d="M709.1547,-126.1112C805.194,-120.2862 991.2141,-105.9683 1156.8828,-74.0515"/>
<polygon fill="#191970" stroke="#191970" points="1157.6145,-77.4748 1166.7583,-72.1231 1156.2728,-70.6046 1157.6145,-77.4748"/>
</g>
<!-- Node18 -->
<g id="node19" class="node">
<title>Node18</title>
<g id="a_node19"><a xlink:title=" ">
<polygon fill="#ffffff" stroke="#bfbfbf" points="1233.7808,-55.5 1233.7808,-73.5 1279.2437,-73.5 1279.2437,-55.5 1233.7808,-55.5"/>
<text text-anchor="middle" x="1256.5122" y="-61.5" font-family="Helvetica,sans-Serif" font-size="10.00" fill="#000000">stdio.h</text>
</a>
</g>
</g>
<!-- Node0&#45;&gt;Node18 -->
<g id="edge19" class="edge">
<title>Node0&#45;&gt;Node18</title>
<path fill="none" stroke="#191970" d="M709.0321,-127.3912C814.893,-123.0423 1031.9909,-110.3921 1223.6014,-73.8174"/>
<polygon fill="#191970" stroke="#191970" points="1224.4193,-77.2242 1233.5721,-71.8879 1223.0892,-70.3517 1224.4193,-77.2242"/>
</g>
<!-- Node19 -->
<g id="node20" class="node">
<title>Node19</title>
<g id="a_node20"><a xlink:title=" ">
<polygon fill="#ffffff" stroke="#bfbfbf" points="1296.8423,-55.5 1296.8423,-73.5 1346.1821,-73.5 1346.1821,-55.5 1296.8423,-55.5"/>
<text text-anchor="middle" x="1321.5122" y="-61.5" font-family="Helvetica,sans-Serif" font-size="10.00" fill="#000000">fstream</text>
</a>
</g>
</g>
<!-- Node0&#45;&gt;Node19 -->
<g id="edge20" class="edge">
<title>Node0&#45;&gt;Node19</title>
<path fill="none" stroke="#191970" d="M709.0506,-128.078C823.9025,-124.646 1071.226,-113.1837 1286.8505,-74.0078"/>
<polygon fill="#191970" stroke="#191970" points="1287.5684,-77.4346 1296.7695,-72.1818 1286.301,-70.5503 1287.5684,-77.4346"/>
</g>
<!-- Node16&#45;&gt;Node3 -->
<g id="edge18" class="edge">
<title>Node16&#45;&gt;Node3</title>
<path fill="none" stroke="#191970" d="M1166.7681,-56.8254C1164.0007,-56.132 1161.2081,-55.503 1158.5122,-55 980.5545,-21.7952 763.1338,-12.6439 680.5356,-10.2754"/>
<polygon fill="#191970" stroke="#191970" points="680.5574,-6.7748 670.4659,-10.0016 680.367,-13.7723 680.5574,-6.7748"/>
</g>
<!-- Node17 -->
<g id="node18" class="node">
<title>Node17</title>
<g id="a_node18"><a xlink:title=" ">
<polygon fill="#ffffff" stroke="#bfbfbf" points="1165.1772,-.5 1165.1772,-18.5 1217.8472,-18.5 1217.8472,-.5 1165.1772,-.5"/>
<text text-anchor="middle" x="1191.5122" y="-6.5" font-family="Helvetica,sans-Serif" font-size="10.00" fill="#000000">QFrame</text>
</a>
</g>
</g>
<!-- Node16&#45;&gt;Node17 -->
<g id="edge17" class="edge">
<title>Node16&#45;&gt;Node17</title>
<path fill="none" stroke="#191970" d="M1191.5122,-55.4179C1191.5122,-48.2164 1191.5122,-37.8962 1191.5122,-28.8632"/>
<polygon fill="#191970" stroke="#191970" points="1195.0123,-28.7794 1191.5122,-18.7795 1188.0123,-28.7795 1195.0123,-28.7794"/>
</g>
</g>
</svg>
        <g id="navigator" transform="translate(0 0)" fill="#404254">
                <rect fill="#f2f5e9" fill-opacity="0.5" stroke="#606060" stroke-width=".5" x="0" y="0" width="60" height="60"/>
                <use id="zoomplus" xlink:href="#zoomPlus" x="17" y="9" onmousedown="handleZoom(evt,'in')"/>
                <use id="zoomminus" xlink:href="#zoomMin" x="42" y="9" onmousedown="handleZoom(evt,'out')"/>
                <use id="reset" xlink:href="#resetDef" x="30" y="36" onmousedown="handleReset()"/>
                <g id="arrowUp" xlink:href="#dirArrow" transform="translate(30 24)" onmousedown="handlePan(0,-1)">
                  <use xlink:href="#rim" fill="#404040">
                        <set attributeName="fill" to="#808080" begin="arrowUp.mouseover" end="arrowUp.mouseout"/>
                  </use>
                  <path fill="none" stroke="white" stroke-width="1.5" d="M0,-3.0v7 M-2.5,-0.5L0,-3.0L2.5,-0.5"/>
                </g>
                <g id="arrowRight" xlink:href="#dirArrow" transform="rotate(90) translate(36 -43)" onmousedown="handlePan(1,0)">
                  <use xlink:href="#rim" fill="#404040">
                        <set attributeName="fill" to="#808080" begin="arrowRight.mouseover" end="arrowRight.mouseout"/>
                  </use>
                  <path fill="none" stroke="white" stroke-width="1.5" d="M0,-3.0v7 M-2.5,-0.5L0,-3.0L2.5,-0.5"/>
                </g>
                <g id="arrowDown" xlink:href="#dirArrow" transform="rotate(180) translate(-30 -48)" onmousedown="handlePan(0,1)">
                  <use xlink:href="#rim" fill="#404040">
                        <set attributeName="fill" to="#808080" begin="arrowDown.mouseover" end="arrowDown.mouseout"/>
                  </use>
                  <path fill="none" stroke="white" stroke-width="1.5" d="M0,-3.0v7 M-2.5,-0.5L0,-3.0L2.5,-0.5"/>
                </g>
                <g id="arrowLeft" xlink:href="#dirArrow" transform="rotate(270) translate(-36 17)" onmousedown="handlePan(-1,0)">
                  <use xlink:href="#rim" fill="#404040">
                        <set attributeName="fill" to="#808080" begin="arrowLeft.mouseover" end="arrowLeft.mouseout"/>
                  </use>
                  <path fill="none" stroke="white" stroke-width="1.5" d="M0,-3.0v7 M-2.5,-0.5L0,-3.0L2.5,-0.5"/>
                </g>
        </g>
        <svg viewBox="0 0 15 15" width="100%" height="30px" preserveAspectRatio="xMaxYMin meet">
         <g id="arrow_out" transform="scale(0.3 0.3)">
          <a xlink:href="_train_window_8h__incl_org.svg" target="_base">
           <rect id="button" ry="5" rx="5" y="6" x="6" height="38" width="38"
                fill="#f2f5e9" fill-opacity="0.5" stroke="#606060" stroke-width="1.0"/>
           <path id="arrow"
             d="M 11.500037,31.436501 C 11.940474,20.09759 22.043105,11.32322 32.158766,21.979434 L 37.068811,17.246167 C 37.068811,17.246167 37.088388,32 37.088388,32 L 22.160133,31.978069 C 22.160133,31.978069 26.997745,27.140456 26.997745,27.140456 C 18.528582,18.264221 13.291696,25.230495 11.500037,31.436501 z"
             style="fill:#404040;"/>
          </a>
         </g>
        </svg>
</svg>
