<?xml version="1.0" encoding="UTF-8" standalone="no"?>
<!DOCTYPE svg PUBLIC "-//W3C//DTD SVG 1.1//EN"
 "http://www.w3.org/Graphics/SVG/1.1/DTD/svg11.dtd">
<!-- Generated by graphviz version 2.40.1 (20161225.0304)
 -->
<!-- Title: code/Qt/TrainWindow.h Pages: 1 -->
<svg width="1354pt" height="137pt"
 viewBox="0.00 0.00 1354.18 137.00" xmlns="http://www.w3.org/2000/svg" xmlns:xlink="http://www.w3.org/1999/xlink">
<g id="graph0" class="graph" transform="scale(1 1) rotate(0) translate(4 133)">
<title>code/Qt/TrainWindow.h</title>
<polygon fill="#ffffff" stroke="transparent" points="-4,4 -4,-133 1350.1821,-133 1350.1821,4 -4,4"/>
<!-- Node0 -->
<g id="node1" class="node">
<title>Node0</title>
<g id="a_node1"><a xlink:title=" ">
<polygon fill="#bfbfbf" stroke="#000000" points="584.7251,-110.5 584.7251,-128.5 704.2993,-128.5 704.2993,-110.5 584.7251,-110.5"/>
<text text-anchor="middle" x="644.5122" y="-116.5" font-family="Helvetica,sans-Serif" font-size="10.00" fill="#000000">code/Qt/TrainWindow.h</text>
</a>
</g>
</g>
<!-- Node1 -->
<g id="node2" class="node">
<title>Node1</title>
<g id="a_node2"><a xlink:href="config_8h.html" target="_top" xlink:title=" ">
<polygon fill="#ffffff" stroke="#000000" points="0,-55.5 0,-73.5 51.0244,-73.5 51.0244,-55.5 0,-55.5"/>
<text text-anchor="middle" x="25.5122" y="-61.5" font-family="Helvetica,sans-Serif" font-size="10.00" fill="#000000">config.h</text>
</a>
</g>
</g>
<!-- Node0&#45;&gt;Node1 -->
<g id="edge1" class="edge">
<title>Node0&#45;&gt;Node1</title>
<path fill="none" stroke="#191970" d="M584.6564,-118.6807C479.9824,-116.4124 256.919,-107.8643 61.2658,-74.0239"/>
<polygon fill="#191970" stroke="#191970" points="61.8356,-70.5705 51.3809,-72.2883 60.625,-77.465 61.8356,-70.5705"/>
</g>
<!-- Node2 -->
<g id="node3" class="node">
<title>Node2</title>
<g id="a_node3"><a xlink:title=" ">
<polygon fill="#ffffff" stroke="#bfbfbf" points="68.9951,-55.5 68.9951,-73.5 140.0293,-73.5 140.0293,-55.5 68.9951,-55.5"/>
<text text-anchor="middle" x="104.5122" y="-61.5" font-family="Helvetica,sans-Serif" font-size="10.00" fill="#000000">QBoxLayout</text>
</a>
</g>
</g>
<!-- Node0&#45;&gt;Node2 -->
<g id="edge2" class="edge">
<title>Node0&#45;&gt;Node2</title>
<path fill="none" stroke="#191970" d="M584.7111,-115.789C492.1904,-109.6329 308.9025,-95.7848 154.5122,-74 153.0631,-73.7955 151.5923,-73.5778 150.1085,-73.3492"/>
<polygon fill="#191970" stroke="#191970" points="150.6603,-69.893 140.2229,-71.7128 149.517,-76.7991 150.6603,-69.893"/>
</g>
<!-- Node3 -->
<g id="node4" class="node">
<title>Node3</title>
<g id="a_node4"><a xlink:title=" ">
<polygon fill="#ffffff" stroke="#bfbfbf" points="622.6748,-.5 622.6748,-18.5 670.3496,-18.5 670.3496,-.5 622.6748,-.5"/>
<text text-anchor="middle" x="646.5122" y="-6.5" font-family="Helvetica,sans-Serif" font-size="10.00" fill="#000000">QColor</text>
</a>
</g>
</g>
<!-- Node0&#45;&gt;Node3 -->
<g id="edge3" class="edge">
<title>Node0&#45;&gt;Node3</title>
<path fill="none" stroke="#191970" d="M584.3869,-117.9178C466.3945,-114.1896 213.6671,-102.8882 187.5122,-74 181.8446,-67.7401 181.8432,-61.2587 187.5122,-55 215.9714,-23.5802 511.4035,-13.0078 612.6712,-10.2919"/>
<polygon fill="#191970" stroke="#191970" points="612.7667,-13.7907 622.6726,-10.0325 612.5851,-6.7931 612.7667,-13.7907"/>
</g>
<!-- Node4 -->
<g id="node5" class="node">
<title>Node4</title>
<g id="a_node5"><a xlink:title=" ">
<polygon fill="#ffffff" stroke="#bfbfbf" points="196.835,-55.5 196.835,-73.5 266.1895,-73.5 266.1895,-55.5 196.835,-55.5"/>
<text text-anchor="middle" x="231.5122" y="-61.5" font-family="Helvetica,sans-Serif" font-size="10.00" fill="#000000">QCheckBox</text>
</a>
</g>
</g>
<!-- Node0&#45;&gt;Node4 -->
<g id="edge4" class="edge">
<title>Node0&#45;&gt;Node4</title>
<path fill="none" stroke="#191970" d="M584.6596,-113.9078C513.3612,-106.8512 390.4779,-93.4447 276.1623,-74.1594"/>
<polygon fill="#191970" stroke="#191970" points="276.6364,-70.6898 266.1902,-72.4582 275.4592,-77.5901 276.6364,-70.6898"/>
</g>
<!-- Node5 -->
<g id="node6" class="node">
<title>Node5</title>
<g id="a_node6"><a xlink:title=" ">
<polygon fill="#ffffff" stroke="#bfbfbf" points="283.771,-55.5 283.771,-73.5 359.2534,-73.5 359.2534,-55.5 283.771,-55.5"/>
<text text-anchor="middle" x="321.5122" y="-61.5" font-family="Helvetica,sans-Serif" font-size="10.00" fill="#000000">QPushButton</text>
</a>
</g>
</g>
<!-- Node0&#45;&gt;Node5 -->
<g id="edge5" class="edge">
<title>Node0&#45;&gt;Node5</title>
<path fill="none" stroke="#191970" d="M585.9869,-110.4789C532.2311,-102.0506 450.1096,-88.8179 369.3006,-74.094"/>
<polygon fill="#191970" stroke="#191970" points="369.9212,-70.6496 359.4544,-72.2913 368.6605,-77.5351 369.9212,-70.6496"/>
</g>
<!-- Node6 -->
<g id="node7" class="node">
<title>Node6</title>
<g id="a_node7"><a xlink:title=" ">
<polygon fill="#ffffff" stroke="#bfbfbf" points="377.5615,-55.5 377.5615,-73.5 427.4629,-73.5 427.4629,-55.5 377.5615,-55.5"/>
<text text-anchor="middle" x="402.5122" y="-61.5" font-family="Helvetica,sans-Serif" font-size="10.00" fill="#000000">QString</text>
</a>
</g>
</g>
<!-- Node0&#45;&gt;Node6 -->
<g id="edge6" class="edge">
<title>Node0&#45;&gt;Node6</title>
<path fill="none" stroke="#191970" d="M599.7087,-110.4707C559.6131,-102.2172 499.0134,-89.3194 437.5839,-74.1671"/>
<polygon fill="#191970" stroke="#191970" points="438.2696,-70.7311 427.7207,-71.7163 436.5815,-77.5246 438.2696,-70.7311"/>
</g>
<!-- Node7 -->
<g id="node8" class="node">
<title>Node7</title>
<g id="a_node8"><a xlink:title=" ">
<polygon fill="#ffffff" stroke="#bfbfbf" points="445.3892,-55.5 445.3892,-73.5 493.6353,-73.5 493.6353,-55.5 445.3892,-55.5"/>
<text text-anchor="middle" x="469.5122" y="-61.5" font-family="Helvetica,sans-Serif" font-size="10.00" fill="#000000">QLabel</text>
</a>
</g>
</g>
<!-- Node0&#45;&gt;Node7 -->
<g id="edge7" class="edge">
<title>Node0&#45;&gt;Node7</title>
<path fill="none" stroke="#191970" d="M615.6145,-110.4179C584.734,-100.7126 535.8309,-85.343 503.2187,-75.0935"/>
<polygon fill="#191970" stroke="#191970" points="504.248,-71.7482 493.6586,-72.0889 502.1491,-78.4262 504.248,-71.7482"/>
</g>
<!-- Node8 -->
<g id="node9" class="node">
<title>Node8</title>
<g id="a_node9"><a xlink:title=" ">
<polygon fill="#ffffff" stroke="#bfbfbf" points="511.6182,-55.5 511.6182,-73.5 555.4063,-73.5 555.4063,-55.5 511.6182,-55.5"/>
<text text-anchor="middle" x="533.5122" y="-61.5" font-family="Helvetica,sans-Serif" font-size="10.00" fill="#000000">QFont</text>
</a>
</g>
</g>
<!-- Node0&#45;&gt;Node8 -->
<g id="edge8" class="edge">
<title>Node0&#45;&gt;Node8</title>
<path fill="none" stroke="#191970" d="M626.1828,-110.4179C608.4281,-101.6205 581.2808,-88.1691 560.9506,-78.0956"/>
<polygon fill="#191970" stroke="#191970" points="562.3832,-74.8994 551.8688,-73.5956 559.2752,-81.1716 562.3832,-74.8994"/>
</g>
<!-- Node9 -->
<g id="node10" class="node">
<title>Node9</title>
<g id="a_node10"><a xlink:title=" ">
<polygon fill="#ffffff" stroke="#bfbfbf" points="573.5542,-55.5 573.5542,-73.5 633.4702,-73.5 633.4702,-55.5 573.5542,-55.5"/>
<text text-anchor="middle" x="603.5122" y="-61.5" font-family="Helvetica,sans-Serif" font-size="10.00" fill="#000000">QLineEdit</text>
</a>
</g>
</g>
<!-- Node0&#45;&gt;Node9 -->
<g id="edge9" class="edge">
<title>Node0&#45;&gt;Node9</title>
<path fill="none" stroke="#191970" d="M637.7419,-110.4179C631.9605,-102.6624 623.4829,-91.29 616.4112,-81.8035"/>
<polygon fill="#191970" stroke="#191970" points="619.2124,-79.7051 610.4296,-73.7795 613.6002,-83.8888 619.2124,-79.7051"/>
</g>
<!-- Node10 -->
<g id="node11" class="node">
<title>Node10</title>
<g id="a_node11"><a xlink:title=" ">
<polygon fill="#ffffff" stroke="#bfbfbf" points="651.1108,-55.5 651.1108,-73.5 719.9136,-73.5 719.9136,-55.5 651.1108,-55.5"/>
<text text-anchor="middle" x="685.5122" y="-61.5" font-family="Helvetica,sans-Serif" font-size="10.00" fill="#000000">QGroupBox</text>
</a>
</g>
</g>
<!-- Node0&#45;&gt;Node10 -->
<g id="edge10" class="edge">
<title>Node0&#45;&gt;Node10</title>
<path fill="none" stroke="#191970" d="M651.2825,-110.4179C657.0639,-102.6624 665.5415,-91.29 672.6132,-81.8035"/>
<polygon fill="#191970" stroke="#191970" points="675.4242,-83.8888 678.5948,-73.7795 669.812,-79.7051 675.4242,-83.8888"/>
</g>
<!-- Node11 -->
<g id="node12" class="node">
<title>Node11</title>
<g id="a_node12"><a xlink:title=" ">
<polygon fill="#ffffff" stroke="#bfbfbf" points="738.0303,-55.5 738.0303,-73.5 786.9941,-73.5 786.9941,-55.5 738.0303,-55.5"/>
<text text-anchor="middle" x="762.5122" y="-61.5" font-family="Helvetica,sans-Serif" font-size="10.00" fill="#000000">QTimer</text>
</a>
</g>
</g>
<!-- Node0&#45;&gt;Node11 -->
<g id="edge11" class="edge">
<title>Node0&#45;&gt;Node11</title>
<path fill="none" stroke="#191970" d="M663.9975,-110.4179C683.0427,-101.5409 712.2544,-87.9253 733.9284,-77.823"/>
<polygon fill="#191970" stroke="#191970" points="735.4128,-80.9927 742.998,-73.5956 732.4555,-74.648 735.4128,-80.9927"/>
</g>
<!-- Node12 -->
<g id="node13" class="node">
<title>Node12</title>
<g id="a_node13"><a xlink:title=" ">
<polygon fill="#ffffff" stroke="#bfbfbf" points="805.2808,-55.5 805.2808,-73.5 875.7437,-73.5 875.7437,-55.5 805.2808,-55.5"/>
<text text-anchor="middle" x="840.5122" y="-61.5" font-family="Helvetica,sans-Serif" font-size="10.00" fill="#000000">QListWidget</text>
</a>
</g>
</g>
<!-- Node0&#45;&gt;Node12 -->
<g id="edge12" class="edge">
<title>Node0&#45;&gt;Node12</title>
<path fill="none" stroke="#191970" d="M676.8776,-110.4179C710.1718,-101.0751 762.1713,-86.4834 798.5932,-76.263"/>
<polygon fill="#191970" stroke="#191970" points="799.742,-79.5759 808.4245,-73.5042 797.8507,-72.8362 799.742,-79.5759"/>
</g>
<!-- Node13 -->
<g id="node14" class="node">
<title>Node13</title>
<g id="a_node14"><a xlink:title=" ">
<polygon fill="#ffffff" stroke="#bfbfbf" points="894.2363,-55.5 894.2363,-73.5 930.7881,-73.5 930.7881,-55.5 894.2363,-55.5"/>
<text text-anchor="middle" x="912.5122" y="-61.5" font-family="Helvetica,sans-Serif" font-size="10.00" fill="#000000">QDir</text>
</a>
</g>
</g>
<!-- Node0&#45;&gt;Node13 -->
<g id="edge13" class="edge">
<title>Node0&#45;&gt;Node13</title>
<path fill="none" stroke="#191970" d="M704.7023,-110.4842C751.2693,-102.9639 817.4593,-91.0919 884.1115,-73.7948"/>
<polygon fill="#191970" stroke="#191970" points="885.1684,-77.1359 893.9465,-71.2033 883.3847,-70.3669 885.1684,-77.1359"/>
</g>
<!-- Node14 -->
<g id="node15" class="node">
<title>Node14</title>
<g id="a_node15"><a xlink:title=" ">
<polygon fill="#ffffff" stroke="#bfbfbf" points="948.8096,-55.5 948.8096,-73.5 1050.2148,-73.5 1050.2148,-55.5 948.8096,-55.5"/>
<text text-anchor="middle" x="999.5122" y="-61.5" font-family="Helvetica,sans-Serif" font-size="10.00" fill="#000000">QAbstractItemView</text>
</a>
</g>
</g>
<!-- Node0&#45;&gt;Node14 -->
<g id="edge14" class="edge">
<title>Node0&#45;&gt;Node14</title>
<path fill="none" stroke="#191970" d="M703.5718,-110.4618C760.9825,-101.6599 850.9316,-87.8269 938.8933,-74.0919"/>
<polygon fill="#191970" stroke="#191970" points="939.4356,-77.5497 948.7755,-72.5479 938.355,-70.6336 939.4356,-77.5497"/>
</g>
<!-- Node15 -->
<g id="node16" class="node">
<title>Node15</title>
<g id="a_node16"><a xlink:title=" ">
<polygon fill="#ffffff" stroke="#bfbfbf" points="1067.7192,-55.5 1067.7192,-73.5 1149.3052,-73.5 1149.3052,-55.5 1067.7192,-55.5"/>
<text text-anchor="middle" x="1108.5122" y="-61.5" font-family="Helvetica,sans-Serif" font-size="10.00" fill="#000000">QMessageBox</text>
</a>
</g>
</g>
<!-- Node0&#45;&gt;Node15 -->
<g id="edge15" class="edge">
<title>Node0&#45;&gt;Node15</title>
<path fill="none" stroke="#191970" d="M704.5032,-114.4843C783.3231,-107.5473 926.2535,-93.7755 1057.4223,-74.2233"/>
<polygon fill="#191970" stroke="#191970" points="1058.2814,-77.6334 1067.6487,-72.6834 1057.239,-70.7115 1058.2814,-77.6334"/>
</g>
<!-- Node16 -->
<g id="node17" class="node">
<title>Node16</title>
<g id="a_node17"><a xlink:href="_q_led_8h.html" target="_top" xlink:title=" ">
<polygon fill="#ffffff" stroke="#000000" points="1167.1108,-55.5 1167.1108,-73.5 1215.9136,-73.5 1215.9136,-55.5 1167.1108,-55.5"/>
<text text-anchor="middle" x="1191.5122" y="-61.5" font-family="Helvetica,sans-Serif" font-size="10.00" fill="#000000">QLed.h</text>
</a>
</g>
</g>
<!-- Node0&#45;&gt;Node16 -->
<g id="edge16" class="edge">
<title>Node0&#45;&gt;Node16</title>
<path fill="none" stroke="#191970" d="M704.3766,-117.9229C798.8879,-114.6184 988.4373,-104.6873 1156.7368,-74.0322"/>
<polygon fill="#191970" stroke="#191970" points="1157.5723,-77.4371 1166.7683,-72.1755 1156.2983,-70.554 1157.5723,-77.4371"/>
</g>
<!-- Node18 -->
<g id="node19" class="node">
<title>Node18</title>
<g id="a_node19"><a xlink:title=" ">
<polygon fill="#ffffff" stroke="#bfbfbf" points="1233.7808,-55.5 1233.7808,-73.5 1279.2437,-73.5 1279.2437,-55.5 1233.7808,-55.5"/>
<text text-anchor="middle" x="1256.5122" y="-61.5" font-family="Helvetica,sans-Serif" font-size="10.00" fill="#000000">stdio.h</text>
</a>
</g>
</g>
<!-- Node0&#45;&gt;Node18 -->
<g id="edge19" class="edge">
<title>Node0&#45;&gt;Node18</title>
<path fill="none" stroke="#191970" d="M704.7139,-116.3865C828.526,-109.7278 1108.9993,-93.2656 1223.6614,-73.7146"/>
<polygon fill="#191970" stroke="#191970" points="1224.3559,-77.146 1233.5813,-71.9361 1223.1205,-70.2558 1224.3559,-77.146"/>
</g>
<!-- Node19 -->
<g id="node20" class="node">
<title>Node19</title>
<g id="a_node20"><a xlink:title=" ">
<polygon fill="#ffffff" stroke="#bfbfbf" points="1296.8423,-55.5 1296.8423,-73.5 1346.1821,-73.5 1346.1821,-55.5 1296.8423,-55.5"/>
<text text-anchor="middle" x="1321.5122" y="-61.5" font-family="Helvetica,sans-Serif" font-size="10.00" fill="#000000">fstream</text>
</a>
</g>
</g>
<!-- Node0&#45;&gt;Node19 -->
<g id="edge20" class="edge">
<title>Node0&#45;&gt;Node19</title>
<path fill="none" stroke="#191970" d="M704.5291,-116.8711C838.5547,-110.7461 1159.7844,-94.59 1286.8856,-73.9135"/>
<polygon fill="#191970" stroke="#191970" points="1287.5092,-77.3578 1296.7771,-72.2238 1286.3305,-70.4577 1287.5092,-77.3578"/>
</g>
<!-- Node16&#45;&gt;Node3 -->
<g id="edge18" class="edge">
<title>Node16&#45;&gt;Node3</title>
<path fill="none" stroke="#191970" d="M1166.7681,-56.8254C1164.0007,-56.132 1161.2081,-55.503 1158.5122,-55 980.5545,-21.7952 763.1338,-12.6439 680.5356,-10.2754"/>
<polygon fill="#191970" stroke="#191970" points="680.5574,-6.7748 670.4659,-10.0016 680.367,-13.7723 680.5574,-6.7748"/>
</g>
<!-- Node17 -->
<g id="node18" class="node">
<title>Node17</title>
<g id="a_node18"><a xlink:title=" ">
<polygon fill="#ffffff" stroke="#bfbfbf" points="1165.1772,-.5 1165.1772,-18.5 1217.8472,-18.5 1217.8472,-.5 1165.1772,-.5"/>
<text text-anchor="middle" x="1191.5122" y="-6.5" font-family="Helvetica,sans-Serif" font-size="10.00" fill="#000000">QFrame</text>
</a>
</g>
</g>
<!-- Node16&#45;&gt;Node17 -->
<g id="edge17" class="edge">
<title>Node16&#45;&gt;Node17</title>
<path fill="none" stroke="#191970" d="M1191.5122,-55.4179C1191.5122,-48.2164 1191.5122,-37.8962 1191.5122,-28.8632"/>
<polygon fill="#191970" stroke="#191970" points="1195.0123,-28.7794 1191.5122,-18.7795 1188.0123,-28.7795 1195.0123,-28.7794"/>
</g>
</g>
</svg>
