<?xml version="1.0" encoding="UTF-8" standalone="no"?>
<!DOCTYPE svg PUBLIC "-//W3C//DTD SVG 1.1//EN"
 "http://www.w3.org/Graphics/SVG/1.1/DTD/svg11.dtd">
<!-- Generated by graphviz version 2.40.1 (20161225.0304)
 -->
<!-- Title: CppTimerCallback::Runnable Pages: 1 -->
<svg width="154pt" height="82pt"
 viewBox="0.00 0.00 154.25 82.00" xmlns="http://www.w3.org/2000/svg" xmlns:xlink="http://www.w3.org/1999/xlink">
<g id="graph0" class="graph" transform="scale(1 1) rotate(0) translate(4 78)">
<title>CppTimerCallback::Runnable</title>
<polygon fill="#ffffff" stroke="transparent" points="-4,4 -4,-78 150.249,-78 150.249,4 -4,4"/>
<!-- Node0 -->
<g id="node1" class="node">
<title>Node0</title>
<g id="a_node1"><a xlink:title=" ">
<polygon fill="#bfbfbf" stroke="#000000" points="0,-55.5 0,-73.5 146.249,-73.5 146.249,-55.5 0,-55.5"/>
<text text-anchor="middle" x="73.1245" y="-61.5" font-family="Helvetica,sans-Serif" font-size="10.00" fill="#000000">CppTimerCallback::Runnable</text>
</a>
</g>
</g>
<!-- Node1 -->
<g id="node2" class="node">
<title>Node1</title>
<g id="a_node2"><a xlink:href="class_callback1.html" target="_top" xlink:title=" ">
<polygon fill="#ffffff" stroke="#000000" points="4.1689,-.5 4.1689,-18.5 64.0801,-18.5 64.0801,-.5 4.1689,-.5"/>
<text text-anchor="middle" x="34.1245" y="-6.5" font-family="Helvetica,sans-Serif" font-size="10.00" fill="#000000">Callback1</text>
</a>
</g>
</g>
<!-- Node0&#45;&gt;Node1 -->
<g id="edge1" class="edge">
<title>Node0&#45;&gt;Node1</title>
<path fill="none" stroke="#191970" d="M60.8193,-47.1465C54.1565,-37.7503 46.1903,-26.5159 40.7045,-18.7795"/>
<polygon fill="#191970" stroke="#191970" points="58.0451,-49.285 66.6845,-55.4179 63.7552,-45.236 58.0451,-49.285"/>
</g>
<!-- Node2 -->
<g id="node3" class="node">
<title>Node2</title>
<g id="a_node3"><a xlink:href="class_callback2.html" target="_top" xlink:title=" ">
<polygon fill="#ffffff" stroke="#000000" points="82.1689,-.5 82.1689,-18.5 142.0801,-18.5 142.0801,-.5 82.1689,-.5"/>
<text text-anchor="middle" x="112.1245" y="-6.5" font-family="Helvetica,sans-Serif" font-size="10.00" fill="#000000">Callback2</text>
</a>
</g>
</g>
<!-- Node0&#45;&gt;Node2 -->
<g id="edge2" class="edge">
<title>Node0&#45;&gt;Node2</title>
<path fill="none" stroke="#191970" d="M85.4297,-47.1465C92.0925,-37.7503 100.0587,-26.5159 105.5445,-18.7795"/>
<polygon fill="#191970" stroke="#191970" points="82.4938,-45.236 79.5646,-55.4179 88.204,-49.285 82.4938,-45.236"/>
</g>
</g>
</svg>
