<?xml version="1.0" encoding="UTF-8" standalone="no"?>
<!DOCTYPE svg PUBLIC "-//W3C//DTD SVG 1.1//EN"
 "http://www.w3.org/Graphics/SVG/1.1/DTD/svg11.dtd">
<!-- Generated by graphviz version 2.40.1 (20161225.0304)
 -->
<!-- Title: Ticker Pages: 1 -->
<svg width="85pt" height="154pt"
 viewBox="0.00 0.00 84.56 154.00" xmlns="http://www.w3.org/2000/svg" xmlns:xlink="http://www.w3.org/1999/xlink">
<g id="graph0" class="graph" transform="scale(1 1) rotate(0) translate(4 150)">
<title>Ticker</title>
<polygon fill="#ffffff" stroke="transparent" points="-4,4 -4,-150 80.5615,-150 80.5615,4 -4,4"/>
<!-- Node0 -->
<g id="node1" class="node">
<title>Node0</title>
<g id="a_node1"><a xlink:title=" ">
<polygon fill="#bfbfbf" stroke="#000000" points="0,-.5 0,-54.5 76.5615,-54.5 76.5615,-.5 0,-.5"/>
<text text-anchor="middle" x="38.2808" y="-42.5" font-family="Helvetica,sans-Serif" font-size="10.00" fill="#000000">Ticker</text>
<polyline fill="none" stroke="#000000" points="0,-36.5 76.5615,-36.5 "/>
<text text-anchor="middle" x="38.2808" y="-24.5" font-family="Helvetica,sans-Serif" font-size="10.00" fill="#000000"> </text>
<polyline fill="none" stroke="#000000" points="0,-18.5 76.5615,-18.5 "/>
<text text-anchor="start" x="8" y="-6.5" font-family="Helvetica,sans-Serif" font-size="10.00" fill="#000000">&#45; timerEvent()</text>
</a>
</g>
</g>
<!-- Node1 -->
<g id="node2" class="node">
<title>Node1</title>
<g id="a_node2"><a xlink:title=" ">
<polygon fill="#ffffff" stroke="#bfbfbf" points="8.5156,-91.5 8.5156,-145.5 68.0459,-145.5 68.0459,-91.5 8.5156,-91.5"/>
<text text-anchor="middle" x="38.2808" y="-133.5" font-family="Helvetica,sans-Serif" font-size="10.00" fill="#000000">CppTimer</text>
<polyline fill="none" stroke="#bfbfbf" points="8.5156,-127.5 68.0459,-127.5 "/>
<text text-anchor="middle" x="38.2808" y="-115.5" font-family="Helvetica,sans-Serif" font-size="10.00" fill="#000000"> </text>
<polyline fill="none" stroke="#bfbfbf" points="8.5156,-109.5 68.0459,-109.5 "/>
<text text-anchor="middle" x="38.2808" y="-97.5" font-family="Helvetica,sans-Serif" font-size="10.00" fill="#000000"> </text>
</a>
</g>
</g>
<!-- Node1&#45;&gt;Node0 -->
<g id="edge1" class="edge">
<title>Node1&#45;&gt;Node0</title>
<path fill="none" stroke="#191970" d="M38.2808,-81.12C38.2808,-72.3006 38.2808,-63.0605 38.2808,-54.7837"/>
<polygon fill="none" stroke="#191970" points="34.7809,-81.197 38.2808,-91.197 41.7809,-81.197 34.7809,-81.197"/>
</g>
</g>
</svg>
