<?xml version="1.0" encoding="UTF-8" standalone="no"?>
<!DOCTYPE svg PUBLIC "-//W3C//DTD SVG 1.1//EN"
 "http://www.w3.org/Graphics/SVG/1.1/DTD/svg11.dtd">
<!-- Generated by graphviz version 2.40.1 (20161225.0304)
 -->
<!-- Title: SampleTimer Pages: 1 -->
<!--zoomable 565 -->
<svg id="main" version="1.1" xmlns="http://www.w3.org/2000/svg" xmlns:xlink="http://www.w3.org/1999/xlink" xml:space="preserve" onload="init(evt)">
<style type="text/css"><![CDATA[
.edge:hover path { stroke: red; }
.edge:hover polygon { stroke: red; fill: red; }
]]></style>
<script type="text/javascript"><![CDATA[
var edges = document.getElementsByTagName('g');
if (edges && edges.length) {
  for (var i=0;i<edges.length;i++) {
    if (edges[i].id.substr(0,4)=='edge') {
      edges[i].setAttribute('class','edge');
    }
  }
}
]]></script>
        <defs>
                <circle id="rim" cx="0" cy="0" r="7"/>
                <circle id="rim2" cx="0" cy="0" r="3.5"/>
                <g id="zoomPlus">
                        <use xlink:href="#rim" fill="#404040">
                                <set attributeName="fill" to="#808080" begin="zoomplus.mouseover" end="zoomplus.mouseout"/>
                        </use>
                        <path d="M-4,0h8M0,-4v8" fill="none" stroke="white" stroke-width="1.5" pointer-events="none"/>
                </g>
                <g id="zoomMin">
                        <use xlink:href="#rim" fill="#404040">
                                <set attributeName="fill" to="#808080" begin="zoomminus.mouseover" end="zoomminus.mouseout"/>
                        </use>
                        <path d="M-4,0h8" fill="none" stroke="white" stroke-width="1.5" pointer-events="none"/>
                </g>
                <g id="dirArrow">
                        <path fill="none" stroke="white" stroke-width="1.5" d="M0,-3.0v7 M-2.5,-0.5L0,-3.0L2.5,-0.5"/>
                </g>
               <g id="resetDef">
                       <use xlink:href="#rim2" fill="#404040">
                               <set attributeName="fill" to="#808080" begin="reset.mouseover" end="reset.mouseout"/>
                       </use>
               </g>
        </defs>

<script type="text/javascript">
var viewWidth = 539;
var viewHeight = 565;
var sectionId = 'dynsection-1';
</script>
<script xlink:href="svgpan.js"/>
<svg id="graph" class="graph">
<g id="viewport">
<title>SampleTimer</title>
<polygon fill="#ffffff" stroke="transparent" points="-4,4 -4,-561 535.2739,-561 535.2739,4 -4,4"/>
<!-- Node3 -->
<g id="node1" class="node">
<title>Node3</title>
<g id="a_node1"><a xlink:title="Sample Timer Class.">
<polygon fill="#bfbfbf" stroke="#000000" points="159.9409,-.5 159.9409,-114.5 268.7388,-114.5 268.7388,-.5 159.9409,-.5"/>
<text text-anchor="middle" x="214.3398" y="-102.5" font-family="Helvetica,sans-Serif" font-size="10.00" fill="#000000">SampleTimer</text>
<polyline fill="none" stroke="#000000" points="159.9409,-96.5 268.7388,-96.5 "/>
<text text-anchor="start" x="167.9409" y="-84.5" font-family="Helvetica,sans-Serif" font-size="10.00" fill="#000000">&#45; mtx</text>
<text text-anchor="start" x="167.9409" y="-74.5" font-family="Helvetica,sans-Serif" font-size="10.00" fill="#000000">&#45; sensorValues</text>
<polyline fill="none" stroke="#000000" points="159.9409,-68.5 268.7388,-68.5 "/>
<text text-anchor="start" x="167.9409" y="-56.5" font-family="Helvetica,sans-Serif" font-size="10.00" fill="#000000">+ SampleTimer()</text>
<text text-anchor="start" x="167.9409" y="-46.5" font-family="Helvetica,sans-Serif" font-size="10.00" fill="#000000">+ ~SampleTimer()</text>
<text text-anchor="start" x="167.9409" y="-36.5" font-family="Helvetica,sans-Serif" font-size="10.00" fill="#000000">+ timerEvent()</text>
<text text-anchor="start" x="167.9409" y="-26.5" font-family="Helvetica,sans-Serif" font-size="10.00" fill="#000000">+ testConnection()</text>
<text text-anchor="start" x="167.9409" y="-16.5" font-family="Helvetica,sans-Serif" font-size="10.00" fill="#000000">+ getSensorValues()</text>
<text text-anchor="start" x="167.9409" y="-6.5" font-family="Helvetica,sans-Serif" font-size="10.00" fill="#000000">&#45; readFromSensors()</text>
</a>
</g>
</g>
<!-- Node4 -->
<g id="node2" class="node">
<title>Node4</title>
<g id="a_node2"><a xlink:title=" ">
<polygon fill="#ffffff" stroke="#bfbfbf" points="0,-226.5 0,-280.5 52.6797,-280.5 52.6797,-226.5 0,-226.5"/>
<text text-anchor="middle" x="26.3398" y="-268.5" font-family="Helvetica,sans-Serif" font-size="10.00" fill="#000000">QObject</text>
<polyline fill="none" stroke="#bfbfbf" points="0,-262.5 52.6797,-262.5 "/>
<text text-anchor="middle" x="26.3398" y="-250.5" font-family="Helvetica,sans-Serif" font-size="10.00" fill="#000000"> </text>
<polyline fill="none" stroke="#bfbfbf" points="0,-244.5 52.6797,-244.5 "/>
<text text-anchor="middle" x="26.3398" y="-232.5" font-family="Helvetica,sans-Serif" font-size="10.00" fill="#000000"> </text>
</a>
</g>
</g>
<!-- Node4&#45;&gt;Node3 -->
<g id="edge1" class="edge">
<title>Node4&#45;&gt;Node3</title>
<path fill="none" stroke="#191970" d="M37.1894,-216.6957C42.8144,-201.5465 50.7614,-184.4381 61.3398,-171 88.1389,-136.9565 127.5748,-108.0337 159.697,-87.9054"/>
<polygon fill="none" stroke="#191970" points="33.8246,-215.7149 33.824,-226.3097 40.4315,-218.0277 33.8246,-215.7149"/>
</g>
<!-- Node5 -->
<g id="node3" class="node">
<title>Node5</title>
<g id="a_node3"><a xlink:title=" ">
<polygon fill="#ffffff" stroke="#bfbfbf" points="70.5747,-226.5 70.5747,-280.5 130.105,-280.5 130.105,-226.5 70.5747,-226.5"/>
<text text-anchor="middle" x="100.3398" y="-268.5" font-family="Helvetica,sans-Serif" font-size="10.00" fill="#000000">CppTimer</text>
<polyline fill="none" stroke="#bfbfbf" points="70.5747,-262.5 130.105,-262.5 "/>
<text text-anchor="middle" x="100.3398" y="-250.5" font-family="Helvetica,sans-Serif" font-size="10.00" fill="#000000"> </text>
<polyline fill="none" stroke="#bfbfbf" points="70.5747,-244.5 130.105,-244.5 "/>
<text text-anchor="middle" x="100.3398" y="-232.5" font-family="Helvetica,sans-Serif" font-size="10.00" fill="#000000"> </text>
</a>
</g>
</g>
<!-- Node5&#45;&gt;Node3 -->
<g id="edge2" class="edge">
<title>Node5&#45;&gt;Node3</title>
<path fill="none" stroke="#191970" d="M116.2116,-217.0547C122.901,-202.4945 131.0516,-185.722 139.3398,-171 149.9417,-152.1685 162.5462,-132.2989 174.3673,-114.5391"/>
<polygon fill="none" stroke="#191970" points="112.98,-215.7064 112.04,-226.2595 119.3558,-218.596 112.98,-215.7064"/>
</g>
<!-- Node6 -->
<g id="node4" class="node">
<title>Node6</title>
<g id="a_node4"><a xlink:href="class_m_p_u6050.html" target="_top" xlink:title=" ">
<polygon fill="#ffffff" stroke="#000000" points="147.8462,-171.5 147.8462,-335.5 280.8335,-335.5 280.8335,-171.5 147.8462,-171.5"/>
<text text-anchor="middle" x="214.3398" y="-323.5" font-family="Helvetica,sans-Serif" font-size="10.00" fill="#000000">MPU6050</text>
<polyline fill="none" stroke="#000000" points="147.8462,-317.5 280.8335,-317.5 "/>
<text text-anchor="start" x="155.8462" y="-305.5" font-family="Helvetica,sans-Serif" font-size="10.00" fill="#000000">&#45; devAddr</text>
<text text-anchor="start" x="155.8462" y="-295.5" font-family="Helvetica,sans-Serif" font-size="10.00" fill="#000000">&#45; buffer</text>
<polyline fill="none" stroke="#000000" points="147.8462,-289.5 280.8335,-289.5 "/>
<text text-anchor="start" x="155.8462" y="-277.5" font-family="Helvetica,sans-Serif" font-size="10.00" fill="#000000">+ MPU6050()</text>
<text text-anchor="start" x="155.8462" y="-267.5" font-family="Helvetica,sans-Serif" font-size="10.00" fill="#000000">+ MPU6050()</text>
<text text-anchor="start" x="155.8462" y="-257.5" font-family="Helvetica,sans-Serif" font-size="10.00" fill="#000000">+ initialize()</text>
<text text-anchor="start" x="155.8462" y="-247.5" font-family="Helvetica,sans-Serif" font-size="10.00" fill="#000000">+ testConnection()</text>
<text text-anchor="start" x="155.8462" y="-237.5" font-family="Helvetica,sans-Serif" font-size="10.00" fill="#000000">+ getAuxVDDIOLevel()</text>
<text text-anchor="start" x="155.8462" y="-227.5" font-family="Helvetica,sans-Serif" font-size="10.00" fill="#000000">+ setAuxVDDIOLevel()</text>
<text text-anchor="start" x="155.8462" y="-217.5" font-family="Helvetica,sans-Serif" font-size="10.00" fill="#000000">+ getRate()</text>
<text text-anchor="start" x="155.8462" y="-207.5" font-family="Helvetica,sans-Serif" font-size="10.00" fill="#000000">+ setRate()</text>
<text text-anchor="start" x="155.8462" y="-197.5" font-family="Helvetica,sans-Serif" font-size="10.00" fill="#000000">+ getExternalFrameSync()</text>
<text text-anchor="start" x="155.8462" y="-187.5" font-family="Helvetica,sans-Serif" font-size="10.00" fill="#000000">+ setExternalFrameSync()</text>
<text text-anchor="start" x="155.8462" y="-177.5" font-family="Helvetica,sans-Serif" font-size="10.00" fill="#000000">and 250 more...</text>
</a>
</g>
</g>
<!-- Node6&#45;&gt;Node3 -->
<g id="edge3" class="edge">
<title>Node6&#45;&gt;Node3</title>
<path fill="none" stroke="#404040" d="M214.3398,-171.2303C214.3398,-156.4836 214.3398,-141.2489 214.3398,-126.9093"/>
<polygon fill="none" stroke="#404040" points="214.3399,-126.573 210.3399,-120.573 214.3398,-114.573 218.3399,-120.5729 214.3399,-126.573"/>
<text text-anchor="middle" x="248.2437" y="-140" font-family="Helvetica,sans-Serif" font-size="10.00" fill="#000000"> &#45;motionSensor</text>
</g>
<!-- Node7 -->
<g id="node5" class="node">
<title>Node7</title>
<g id="a_node5"><a xlink:href="class_i2_cdev.html" target="_top" xlink:title=" ">
<polygon fill="#ffffff" stroke="#000000" points="187.0986,-382.5 187.0986,-556.5 267.5811,-556.5 267.5811,-382.5 187.0986,-382.5"/>
<text text-anchor="middle" x="227.3398" y="-544.5" font-family="Helvetica,sans-Serif" font-size="10.00" fill="#000000">I2Cdev</text>
<polyline fill="none" stroke="#000000" points="187.0986,-538.5 267.5811,-538.5 "/>
<text text-anchor="start" x="195.0986" y="-526.5" font-family="Helvetica,sans-Serif" font-size="10.00" fill="#000000">+ readTimeout</text>
<polyline fill="none" stroke="#000000" points="187.0986,-520.5 267.5811,-520.5 "/>
<text text-anchor="start" x="195.0986" y="-508.5" font-family="Helvetica,sans-Serif" font-size="10.00" fill="#000000">+ I2Cdev()</text>
<text text-anchor="start" x="195.0986" y="-498.5" font-family="Helvetica,sans-Serif" font-size="10.00" fill="#000000">+ I2Cdev()</text>
<text text-anchor="start" x="195.0986" y="-488.5" font-family="Helvetica,sans-Serif" font-size="10.00" fill="#000000">+ readBit()</text>
<text text-anchor="start" x="195.0986" y="-478.5" font-family="Helvetica,sans-Serif" font-size="10.00" fill="#000000">+ readBitW()</text>
<text text-anchor="start" x="195.0986" y="-468.5" font-family="Helvetica,sans-Serif" font-size="10.00" fill="#000000">+ readBits()</text>
<text text-anchor="start" x="195.0986" y="-458.5" font-family="Helvetica,sans-Serif" font-size="10.00" fill="#000000">+ readBitsW()</text>
<text text-anchor="start" x="195.0986" y="-448.5" font-family="Helvetica,sans-Serif" font-size="10.00" fill="#000000">+ readByte()</text>
<text text-anchor="start" x="195.0986" y="-438.5" font-family="Helvetica,sans-Serif" font-size="10.00" fill="#000000">+ readWord()</text>
<text text-anchor="start" x="195.0986" y="-428.5" font-family="Helvetica,sans-Serif" font-size="10.00" fill="#000000">+ readBytes()</text>
<text text-anchor="start" x="195.0986" y="-418.5" font-family="Helvetica,sans-Serif" font-size="10.00" fill="#000000">+ readWords()</text>
<text text-anchor="start" x="195.0986" y="-408.5" font-family="Helvetica,sans-Serif" font-size="10.00" fill="#000000">+ writeBit()</text>
<text text-anchor="start" x="195.0986" y="-398.5" font-family="Helvetica,sans-Serif" font-size="10.00" fill="#000000">+ writeBitW()</text>
<text text-anchor="start" x="195.0986" y="-388.5" font-family="Helvetica,sans-Serif" font-size="10.00" fill="#000000">and 26 more...</text>
</a>
</g>
</g>
<!-- Node7&#45;&gt;Node6 -->
<g id="edge4" class="edge">
<title>Node7&#45;&gt;Node6</title>
<path fill="none" stroke="#404040" d="M222.0897,-382.2671C221.4118,-371.0031 220.715,-359.4259 220.0304,-348.0508"/>
<polygon fill="none" stroke="#404040" points="220.0148,-347.7898 215.6615,-342.0409 219.2938,-335.8114 223.6471,-341.5603 220.0148,-347.7898"/>
<text text-anchor="middle" x="232.0405" y="-356" font-family="Helvetica,sans-Serif" font-size="10.00" fill="#000000"> +i2c</text>
</g>
<!-- Node9 -->
<g id="node7" class="node">
<title>Node9</title>
<g id="a_node7"><a xlink:href="class_m_c_p3428.html" target="_top" xlink:title=" ">
<polygon fill="#ffffff" stroke="#000000" points="298.7798,-176.5 298.7798,-330.5 417.8999,-330.5 417.8999,-176.5 298.7798,-176.5"/>
<text text-anchor="middle" x="358.3398" y="-318.5" font-family="Helvetica,sans-Serif" font-size="10.00" fill="#000000">MCP3428</text>
<polyline fill="none" stroke="#000000" points="298.7798,-312.5 417.8999,-312.5 "/>
<text text-anchor="start" x="306.7798" y="-300.5" font-family="Helvetica,sans-Serif" font-size="10.00" fill="#000000">&#45; _slaveAddress</text>
<text text-anchor="start" x="306.7798" y="-290.5" font-family="Helvetica,sans-Serif" font-size="10.00" fill="#000000">&#45; _PGAgain</text>
<text text-anchor="start" x="306.7798" y="-280.5" font-family="Helvetica,sans-Serif" font-size="10.00" fill="#000000">&#45; _data</text>
<polyline fill="none" stroke="#000000" points="298.7798,-274.5 417.8999,-274.5 "/>
<text text-anchor="start" x="306.7798" y="-262.5" font-family="Helvetica,sans-Serif" font-size="10.00" fill="#000000">+ MCP3428()</text>
<text text-anchor="start" x="306.7798" y="-252.5" font-family="Helvetica,sans-Serif" font-size="10.00" fill="#000000">+ ~MCP3428()</text>
<text text-anchor="start" x="306.7798" y="-242.5" font-family="Helvetica,sans-Serif" font-size="10.00" fill="#000000">+ setConfig()</text>
<text text-anchor="start" x="306.7798" y="-232.5" font-family="Helvetica,sans-Serif" font-size="10.00" fill="#000000">+ readConfig()</text>
<text text-anchor="start" x="306.7798" y="-222.5" font-family="Helvetica,sans-Serif" font-size="10.00" fill="#000000">+ readChannel()</text>
<text text-anchor="start" x="306.7798" y="-212.5" font-family="Helvetica,sans-Serif" font-size="10.00" fill="#000000">+ readChannelScaled()</text>
<text text-anchor="start" x="306.7798" y="-202.5" font-family="Helvetica,sans-Serif" font-size="10.00" fill="#000000">&#45; __attribute__()</text>
<text text-anchor="start" x="306.7798" y="-192.5" font-family="Helvetica,sans-Serif" font-size="10.00" fill="#000000">&#45; _writeConfig()</text>
<text text-anchor="start" x="306.7798" y="-182.5" font-family="Helvetica,sans-Serif" font-size="10.00" fill="#000000">&#45; _setChannel()</text>
</a>
</g>
</g>
<!-- Node7&#45;&gt;Node9 -->
<g id="edge8" class="edge">
<title>Node7&#45;&gt;Node9</title>
<path fill="none" stroke="#404040" d="M267.845,-402.6136C272.0634,-395.6521 276.2881,-388.6821 280.3398,-382 288.3729,-368.752 296.8749,-354.7378 305.1964,-341.0254"/>
<polygon fill="none" stroke="#404040" points="305.288,-340.8745 304.9815,-333.6699 311.514,-330.6159 311.8205,-337.8206 305.288,-340.8745"/>
<text text-anchor="middle" x="303.7856" y="-356" font-family="Helvetica,sans-Serif" font-size="10.00" fill="#000000"> &#45;i2c</text>
</g>
<!-- Node8 -->
<g id="node6" class="node">
<title>Node8</title>
<g id="a_node6"><a xlink:href="class_filter.html" target="_top" xlink:title="A Filter wrapper class.">
<polygon fill="#ffffff" stroke="#000000" points="435.4058,-201.5 435.4058,-305.5 531.2739,-305.5 531.2739,-201.5 435.4058,-201.5"/>
<text text-anchor="middle" x="483.3398" y="-293.5" font-family="Helvetica,sans-Serif" font-size="10.00" fill="#000000">Filter</text>
<polyline fill="none" stroke="#000000" points="435.4058,-287.5 531.2739,-287.5 "/>
<text text-anchor="start" x="443.4058" y="-275.5" font-family="Helvetica,sans-Serif" font-size="10.00" fill="#000000"># sampleRate</text>
<text text-anchor="start" x="443.4058" y="-265.5" font-family="Helvetica,sans-Serif" font-size="10.00" fill="#000000"># cutoffFrequency</text>
<text text-anchor="start" x="443.4058" y="-255.5" font-family="Helvetica,sans-Serif" font-size="10.00" fill="#000000"># filterOrder</text>
<text text-anchor="start" x="443.4058" y="-245.5" font-family="Helvetica,sans-Serif" font-size="10.00" fill="#000000"># filt</text>
<polyline fill="none" stroke="#000000" points="435.4058,-239.5 531.2739,-239.5 "/>
<text text-anchor="start" x="443.4058" y="-227.5" font-family="Helvetica,sans-Serif" font-size="10.00" fill="#000000">+ Filter()</text>
<text text-anchor="start" x="443.4058" y="-217.5" font-family="Helvetica,sans-Serif" font-size="10.00" fill="#000000">+ setup()</text>
<text text-anchor="start" x="443.4058" y="-207.5" font-family="Helvetica,sans-Serif" font-size="10.00" fill="#000000">+ filter()</text>
</a>
</g>
</g>
<!-- Node8&#45;&gt;Node3 -->
<g id="edge5" class="edge">
<title>Node8&#45;&gt;Node3</title>
<path fill="none" stroke="#404040" d="M453.4139,-201.1209C445.7911,-190.3642 436.9891,-179.6864 427.3398,-171 384.1329,-132.1045 325.1961,-102.0313 280.2703,-82.6421"/>
<polygon fill="none" stroke="#404040" points="280.2196,-82.6207 273.1351,-83.9661 269.1684,-77.944 276.2529,-76.5986 280.2196,-82.6207"/>
<text text-anchor="middle" x="416.3398" y="-140" font-family="Helvetica,sans-Serif" font-size="10.00" fill="#000000"> &#45;filters</text>
</g>
<!-- Node9&#45;&gt;Node3 -->
<g id="edge6" class="edge">
<title>Node9&#45;&gt;Node3</title>
<path fill="none" stroke="#404040" d="M315.7017,-176.2879C306.5839,-161.5252 296.5918,-146.4821 286.3398,-133 283.3181,-129.0262 280.1124,-125.0328 276.7974,-121.0702"/>
<polygon fill="none" stroke="#404040" points="276.7322,-120.9946 269.7854,-119.0602 268.8991,-111.9037 275.846,-113.8381 276.7322,-120.9946"/>
<text text-anchor="middle" x="325.7363" y="-145" font-family="Helvetica,sans-Serif" font-size="10.00" fill="#000000"> &#45;flexThumb</text>
<text text-anchor="middle" x="325.7363" y="-135" font-family="Helvetica,sans-Serif" font-size="10.00" fill="#000000">&#45;flexFingers</text>
</g>
<!-- Node10 -->
<g id="node8" class="node">
<title>Node10</title>
<g id="a_node8"><a xlink:href="struct_m_c_p3428_1_1config_reg_struct.html" target="_top" xlink:title=" ">
<polygon fill="#ffffff" stroke="#000000" points="289.7539,-422.5 289.7539,-516.5 426.9258,-516.5 426.9258,-422.5 289.7539,-422.5"/>
<text text-anchor="middle" x="358.3398" y="-504.5" font-family="Helvetica,sans-Serif" font-size="10.00" fill="#000000">MCP3428::configRegStruct</text>
<polyline fill="none" stroke="#000000" points="289.7539,-498.5 426.9258,-498.5 "/>
<text text-anchor="start" x="297.7539" y="-486.5" font-family="Helvetica,sans-Serif" font-size="10.00" fill="#000000">+ gain</text>
<text text-anchor="start" x="297.7539" y="-476.5" font-family="Helvetica,sans-Serif" font-size="10.00" fill="#000000">+ resolution</text>
<text text-anchor="start" x="297.7539" y="-466.5" font-family="Helvetica,sans-Serif" font-size="10.00" fill="#000000">+ conversion_mode</text>
<text text-anchor="start" x="297.7539" y="-456.5" font-family="Helvetica,sans-Serif" font-size="10.00" fill="#000000">+ channel_select</text>
<text text-anchor="start" x="297.7539" y="-446.5" font-family="Helvetica,sans-Serif" font-size="10.00" fill="#000000">+ RDY_bar</text>
<polyline fill="none" stroke="#000000" points="289.7539,-440.5 426.9258,-440.5 "/>
<text text-anchor="middle" x="358.3398" y="-428.5" font-family="Helvetica,sans-Serif" font-size="10.00" fill="#000000"> </text>
</a>
</g>
</g>
<!-- Node10&#45;&gt;Node9 -->
<g id="edge7" class="edge">
<title>Node10&#45;&gt;Node9</title>
<path fill="none" stroke="#404040" d="M358.3398,-422.3648C358.3398,-399.0085 358.3398,-370.0135 358.3398,-342.6783"/>
<polygon fill="none" stroke="#404040" points="358.3399,-342.6756 354.3399,-336.6757 358.3398,-330.6756 362.3399,-336.6756 358.3399,-342.6756"/>
<text text-anchor="middle" x="386.6895" y="-356" font-family="Helvetica,sans-Serif" font-size="10.00" fill="#000000"> &#45;_configReg</text>
</g>
</g>
</svg>
        <g id="navigator" transform="translate(0 0)" fill="#404254">
                <rect fill="#f2f5e9" fill-opacity="0.5" stroke="#606060" stroke-width=".5" x="0" y="0" width="60" height="60"/>
                <use id="zoomplus" xlink:href="#zoomPlus" x="17" y="9" onmousedown="handleZoom(evt,'in')"/>
                <use id="zoomminus" xlink:href="#zoomMin" x="42" y="9" onmousedown="handleZoom(evt,'out')"/>
                <use id="reset" xlink:href="#resetDef" x="30" y="36" onmousedown="handleReset()"/>
                <g id="arrowUp" xlink:href="#dirArrow" transform="translate(30 24)" onmousedown="handlePan(0,-1)">
                  <use xlink:href="#rim" fill="#404040">
                        <set attributeName="fill" to="#808080" begin="arrowUp.mouseover" end="arrowUp.mouseout"/>
                  </use>
                  <path fill="none" stroke="white" stroke-width="1.5" d="M0,-3.0v7 M-2.5,-0.5L0,-3.0L2.5,-0.5"/>
                </g>
                <g id="arrowRight" xlink:href="#dirArrow" transform="rotate(90) translate(36 -43)" onmousedown="handlePan(1,0)">
                  <use xlink:href="#rim" fill="#404040">
                        <set attributeName="fill" to="#808080" begin="arrowRight.mouseover" end="arrowRight.mouseout"/>
                  </use>
                  <path fill="none" stroke="white" stroke-width="1.5" d="M0,-3.0v7 M-2.5,-0.5L0,-3.0L2.5,-0.5"/>
                </g>
                <g id="arrowDown" xlink:href="#dirArrow" transform="rotate(180) translate(-30 -48)" onmousedown="handlePan(0,1)">
                  <use xlink:href="#rim" fill="#404040">
                        <set attributeName="fill" to="#808080" begin="arrowDown.mouseover" end="arrowDown.mouseout"/>
                  </use>
                  <path fill="none" stroke="white" stroke-width="1.5" d="M0,-3.0v7 M-2.5,-0.5L0,-3.0L2.5,-0.5"/>
                </g>
                <g id="arrowLeft" xlink:href="#dirArrow" transform="rotate(270) translate(-36 17)" onmousedown="handlePan(-1,0)">
                  <use xlink:href="#rim" fill="#404040">
                        <set attributeName="fill" to="#808080" begin="arrowLeft.mouseover" end="arrowLeft.mouseout"/>
                  </use>
                  <path fill="none" stroke="white" stroke-width="1.5" d="M0,-3.0v7 M-2.5,-0.5L0,-3.0L2.5,-0.5"/>
                </g>
        </g>
        <svg viewBox="0 0 15 15" width="100%" height="30px" preserveAspectRatio="xMaxYMin meet">
         <g id="arrow_out" transform="scale(0.3 0.3)">
          <a xlink:href="class_sample_timer__coll__graph_org.svg" target="_base">
           <rect id="button" ry="5" rx="5" y="6" x="6" height="38" width="38"
                fill="#f2f5e9" fill-opacity="0.5" stroke="#606060" stroke-width="1.0"/>
           <path id="arrow"
             d="M 11.500037,31.436501 C 11.940474,20.09759 22.043105,11.32322 32.158766,21.979434 L 37.068811,17.246167 C 37.068811,17.246167 37.088388,32 37.088388,32 L 22.160133,31.978069 C 22.160133,31.978069 26.997745,27.140456 26.997745,27.140456 C 18.528582,18.264221 13.291696,25.230495 11.500037,31.436501 z"
             style="fill:#404040;"/>
          </a>
         </g>
        </svg>
</svg>
