<?xml version="1.0" encoding="UTF-8" standalone="no"?>
<!DOCTYPE svg PUBLIC "-//W3C//DTD SVG 1.1//EN"
 "http://www.w3.org/Graphics/SVG/1.1/DTD/svg11.dtd">
<!-- Generated by graphviz version 2.40.1 (20161225.0304)
 -->
<!-- Title: MCP3428 Pages: 1 -->
<svg width="210pt" height="92pt"
 viewBox="0.00 0.00 210.43 92.00" xmlns="http://www.w3.org/2000/svg" xmlns:xlink="http://www.w3.org/1999/xlink">
<g id="graph0" class="graph" transform="scale(1 1) rotate(0) translate(4 88)">
<title>MCP3428</title>
<polygon fill="#ffffff" stroke="transparent" points="-4,4 -4,-88 206.4282,-88 206.4282,4 -4,4"/>
<!-- Node1 -->
<g id="node1" class="node">
<title>Node1</title>
<g id="a_node1"><a xlink:title=" ">
<polygon fill="#bfbfbf" stroke="#000000" points="93.3521,-.5 93.3521,-18.5 153.8198,-18.5 153.8198,-.5 93.3521,-.5"/>
<text text-anchor="middle" x="123.5859" y="-6.5" font-family="Helvetica,sans-Serif" font-size="10.00" fill="#000000">MCP3428</text>
</a>
</g>
</g>
<!-- Node2 -->
<g id="node2" class="node">
<title>Node2</title>
<g id="a_node2"><a xlink:href="struct_m_c_p3428_1_1config_reg_struct.html" target="_top" xlink:title=" ">
<polygon fill="#ffffff" stroke="#000000" points="0,-65.5 0,-83.5 137.1719,-83.5 137.1719,-65.5 0,-65.5"/>
<text text-anchor="middle" x="68.5859" y="-71.5" font-family="Helvetica,sans-Serif" font-size="10.00" fill="#000000">MCP3428::configRegStruct</text>
</a>
</g>
</g>
<!-- Node2&#45;&gt;Node1 -->
<g id="edge1" class="edge">
<title>Node2&#45;&gt;Node1</title>
<path fill="none" stroke="#9a32cd" stroke-dasharray="5,2" d="M82.8258,-57.6711C93.2759,-45.321 107.0845,-29.0016 115.6472,-18.8821"/>
<polygon fill="#9a32cd" stroke="#9a32cd" points="80.021,-55.5673 76.2335,-65.462 85.3648,-60.089 80.021,-55.5673"/>
<text text-anchor="middle" x="126.2705" y="-39" font-family="Helvetica,sans-Serif" font-size="10.00" fill="#000000"> _configReg</text>
</g>
<!-- Node3 -->
<g id="node3" class="node">
<title>Node3</title>
<g id="a_node3"><a xlink:href="class_i2_cdev.html" target="_top" xlink:title=" ">
<polygon fill="#ffffff" stroke="#000000" points="154.7437,-65.5 154.7437,-83.5 202.4282,-83.5 202.4282,-65.5 154.7437,-65.5"/>
<text text-anchor="middle" x="178.5859" y="-71.5" font-family="Helvetica,sans-Serif" font-size="10.00" fill="#000000">I2Cdev</text>
</a>
</g>
</g>
<!-- Node3&#45;&gt;Node1 -->
<g id="edge2" class="edge">
<title>Node3&#45;&gt;Node1</title>
<path fill="none" stroke="#9a32cd" stroke-dasharray="5,2" d="M169.4455,-56.0614C165.8703,-49.7035 161.4554,-42.7426 156.5859,-37 150.7016,-30.0606 142.9311,-23.4897 136.4086,-18.5122"/>
<polygon fill="#9a32cd" stroke="#9a32cd" points="166.555,-58.0833 174.3173,-65.2942 172.746,-54.8165 166.555,-58.0833"/>
<text text-anchor="middle" x="171.3667" y="-39" font-family="Helvetica,sans-Serif" font-size="10.00" fill="#000000"> i2c</text>
</g>
</g>
</svg>
