<?xml version="1.0" encoding="UTF-8" standalone="no"?>
<!DOCTYPE svg PUBLIC "-//W3C//DTD SVG 1.1//EN"
 "http://www.w3.org/Graphics/SVG/1.1/DTD/svg11.dtd">
<!-- Generated by graphviz version 2.40.1 (20161225.0304)
 -->
<!-- Title: MainWindow Pages: 1 -->
<svg width="681pt" height="242pt"
 viewBox="0.00 0.00 681.27 242.00" xmlns="http://www.w3.org/2000/svg" xmlns:xlink="http://www.w3.org/1999/xlink">
<g id="graph0" class="graph" transform="scale(1 1) rotate(0) translate(4 238)">
<title>MainWindow</title>
<polygon fill="#ffffff" stroke="transparent" points="-4,4 -4,-238 677.2749,-238 677.2749,4 -4,4"/>
<!-- Node2 -->
<g id="node1" class="node">
<title>Node2</title>
<g id="a_node1"><a xlink:title=" ">
<polygon fill="#bfbfbf" stroke="#000000" points="201.8892,-.5 201.8892,-18.5 275.1304,-18.5 275.1304,-.5 201.8892,-.5"/>
<text text-anchor="middle" x="238.5098" y="-6.5" font-family="Helvetica,sans-Serif" font-size="10.00" fill="#000000">MainWindow</text>
</a>
</g>
</g>
<!-- Node3 -->
<g id="node2" class="node">
<title>Node3</title>
<g id="a_node2"><a xlink:title=" ">
<polygon fill="#ffffff" stroke="#bfbfbf" points="0,-65.5 0,-83.5 81.0195,-83.5 81.0195,-65.5 0,-65.5"/>
<text text-anchor="middle" x="40.5098" y="-71.5" font-family="Helvetica,sans-Serif" font-size="10.00" fill="#000000">QMainWindow</text>
</a>
</g>
</g>
<!-- Node3&#45;&gt;Node2 -->
<g id="edge1" class="edge">
<title>Node3&#45;&gt;Node2</title>
<path fill="none" stroke="#191970" d="M76.3531,-62.0211C97.8188,-54.6127 125.6742,-45.1124 150.5098,-37 169.8331,-30.6881 191.6417,-23.8708 208.714,-18.603"/>
<polygon fill="#191970" stroke="#191970" points="74.979,-58.7929 66.6727,-65.3698 77.2674,-65.4083 74.979,-58.7929"/>
</g>
<!-- Node4 -->
<g id="node3" class="node">
<title>Node4</title>
<g id="a_node3"><a xlink:href="class_monitor_window.html" target="_top" xlink:title="Monitor Window Class.">
<polygon fill="#ffffff" stroke="#000000" points="99.0542,-65.5 99.0542,-83.5 183.9653,-83.5 183.9653,-65.5 99.0542,-65.5"/>
<text text-anchor="middle" x="141.5098" y="-71.5" font-family="Helvetica,sans-Serif" font-size="10.00" fill="#000000">MonitorWindow</text>
</a>
</g>
</g>
<!-- Node4&#45;&gt;Node2 -->
<g id="edge2" class="edge">
<title>Node4&#45;&gt;Node2</title>
<path fill="none" stroke="#9a32cd" stroke-dasharray="5,2" d="M148.7543,-56.0093C152.1652,-49.2671 156.8238,-42.0638 162.8203,-37 173.8226,-27.7091 188.2242,-21.4428 201.5086,-17.2712"/>
<polygon fill="#9a32cd" stroke="#9a32cd" points="145.5082,-54.6952 144.639,-65.2543 151.9032,-57.5419 145.5082,-54.6952"/>
<text text-anchor="middle" x="199.3545" y="-39" font-family="Helvetica,sans-Serif" font-size="10.00" fill="#000000"> monitorWindow</text>
</g>
<!-- Node5 -->
<g id="node4" class="node">
<title>Node5</title>
<g id="a_node4"><a xlink:title=" ">
<polygon fill="#ffffff" stroke="#bfbfbf" points="234.0591,-150.5 234.0591,-168.5 288.9604,-168.5 288.9604,-150.5 234.0591,-150.5"/>
<text text-anchor="middle" x="261.5098" y="-156.5" font-family="Helvetica,sans-Serif" font-size="10.00" fill="#000000">QWidget</text>
</a>
</g>
</g>
<!-- Node5&#45;&gt;Node4 -->
<g id="edge3" class="edge">
<title>Node5&#45;&gt;Node4</title>
<path fill="none" stroke="#191970" d="M251.9704,-141.6598C244.3979,-129.0172 232.7354,-112.5003 218.5098,-102 207.3174,-93.7386 193.4102,-87.7724 180.5069,-83.5547"/>
<polygon fill="#191970" stroke="#191970" points="248.9569,-143.4412 256.9385,-150.4087 255.044,-139.9846 248.9569,-143.4412"/>
</g>
<!-- Node7 -->
<g id="node6" class="node">
<title>Node7</title>
<g id="a_node6"><a xlink:href="class_train_window.html" target="_top" xlink:title="Training Window Class.">
<polygon fill="#ffffff" stroke="#000000" points="201.5181,-65.5 201.5181,-83.5 275.5015,-83.5 275.5015,-65.5 201.5181,-65.5"/>
<text text-anchor="middle" x="238.5098" y="-71.5" font-family="Helvetica,sans-Serif" font-size="10.00" fill="#000000">TrainWindow</text>
</a>
</g>
</g>
<!-- Node5&#45;&gt;Node7 -->
<g id="edge6" class="edge">
<title>Node5&#45;&gt;Node7</title>
<path fill="none" stroke="#191970" d="M256.387,-140.5682C251.5834,-122.8156 244.6088,-97.0398 240.9535,-83.5311"/>
<polygon fill="#191970" stroke="#191970" points="253.0578,-141.6649 259.0484,-150.4035 259.8148,-139.8364 253.0578,-141.6649"/>
</g>
<!-- Node17 -->
<g id="node16" class="node">
<title>Node17</title>
<g id="a_node16"><a xlink:href="class_interpret_window.html" target="_top" xlink:title=" ">
<polygon fill="#ffffff" stroke="#000000" points="293.106,-65.5 293.106,-83.5 381.9136,-83.5 381.9136,-65.5 293.106,-65.5"/>
<text text-anchor="middle" x="337.5098" y="-71.5" font-family="Helvetica,sans-Serif" font-size="10.00" fill="#000000">InterpretWindow</text>
</a>
</g>
</g>
<!-- Node5&#45;&gt;Node17 -->
<g id="edge17" class="edge">
<title>Node5&#45;&gt;Node17</title>
<path fill="none" stroke="#191970" d="M276.6717,-142.5426C292.5549,-124.7784 316.9007,-97.5496 329.4349,-83.5311"/>
<polygon fill="#191970" stroke="#191970" points="273.6994,-140.6159 269.6431,-150.4035 278.9177,-145.2817 273.6994,-140.6159"/>
</g>
<!-- Node6 -->
<g id="node5" class="node">
<title>Node6</title>
<g id="a_node5"><a xlink:href="struct_monitor_window_1_1_curve.html" target="_top" xlink:title="CurveStruct data structure.">
<polygon fill="#ffffff" stroke="#000000" points="39.9385,-150.5 39.9385,-168.5 157.0811,-168.5 157.0811,-150.5 39.9385,-150.5"/>
<text text-anchor="middle" x="98.5098" y="-156.5" font-family="Helvetica,sans-Serif" font-size="10.00" fill="#000000">MonitorWindow::Curve</text>
</a>
</g>
</g>
<!-- Node6&#45;&gt;Node4 -->
<g id="edge4" class="edge">
<title>Node6&#45;&gt;Node4</title>
<path fill="none" stroke="#9a32cd" stroke-dasharray="5,2" d="M107.7082,-141.317C116.6975,-123.5476 130.0106,-97.231 136.9411,-83.5311"/>
<polygon fill="#9a32cd" stroke="#9a32cd" points="104.5025,-139.9004 103.1115,-150.4035 110.7488,-143.0603 104.5025,-139.9004"/>
<text text-anchor="middle" x="140.4063" y="-124" font-family="Helvetica,sans-Serif" font-size="10.00" fill="#000000"> finger</text>
<text text-anchor="middle" x="140.4063" y="-114" font-family="Helvetica,sans-Serif" font-size="10.00" fill="#000000">acc</text>
<text text-anchor="middle" x="140.4063" y="-104" font-family="Helvetica,sans-Serif" font-size="10.00" fill="#000000">gyro</text>
</g>
<!-- Node7&#45;&gt;Node2 -->
<g id="edge5" class="edge">
<title>Node7&#45;&gt;Node2</title>
<path fill="none" stroke="#9a32cd" stroke-dasharray="5,2" d="M238.5098,-55.1265C238.5098,-43.1522 238.5098,-28.3205 238.5098,-18.8821"/>
<polygon fill="#9a32cd" stroke="#9a32cd" points="235.0099,-55.462 238.5098,-65.462 242.0099,-55.4621 235.0099,-55.462"/>
<text text-anchor="middle" x="267.4087" y="-39" font-family="Helvetica,sans-Serif" font-size="10.00" fill="#000000"> trainWindow</text>
</g>
<!-- Node8 -->
<g id="node7" class="node">
<title>Node8</title>
<g id="a_node7"><a xlink:href="class_q_led.html" target="_top" xlink:title="QLed Class.">
<polygon fill="#ffffff" stroke="#000000" points="175.2783,-150.5 175.2783,-168.5 215.7412,-168.5 215.7412,-150.5 175.2783,-150.5"/>
<text text-anchor="middle" x="195.5098" y="-156.5" font-family="Helvetica,sans-Serif" font-size="10.00" fill="#000000">QLed</text>
</a>
</g>
</g>
<!-- Node8&#45;&gt;Node7 -->
<g id="edge7" class="edge">
<title>Node8&#45;&gt;Node7</title>
<path fill="none" stroke="#9a32cd" stroke-dasharray="5,2" d="M204.7082,-141.317C213.6975,-123.5476 227.0106,-97.231 233.9411,-83.5311"/>
<polygon fill="#9a32cd" stroke="#9a32cd" points="201.5025,-139.9004 200.1115,-150.4035 207.7488,-143.0603 201.5025,-139.9004"/>
<text text-anchor="middle" x="231.5713" y="-114" font-family="Helvetica,sans-Serif" font-size="10.00" fill="#000000"> led</text>
</g>
<!-- Node9 -->
<g id="node8" class="node">
<title>Node9</title>
<g id="a_node8"><a xlink:title=" ">
<polygon fill="#ffffff" stroke="#bfbfbf" points="169.1748,-215.5 169.1748,-233.5 221.8447,-233.5 221.8447,-215.5 169.1748,-215.5"/>
<text text-anchor="middle" x="195.5098" y="-221.5" font-family="Helvetica,sans-Serif" font-size="10.00" fill="#000000">QFrame</text>
</a>
</g>
</g>
<!-- Node9&#45;&gt;Node8 -->
<g id="edge8" class="edge">
<title>Node9&#45;&gt;Node8</title>
<path fill="none" stroke="#191970" d="M195.5098,-205.1265C195.5098,-193.1522 195.5098,-178.3205 195.5098,-168.8821"/>
<polygon fill="#191970" stroke="#191970" points="192.0099,-205.462 195.5098,-215.462 199.0099,-205.4621 192.0099,-205.462"/>
</g>
<!-- Node10 -->
<g id="node9" class="node">
<title>Node10</title>
<g id="a_node9"><a xlink:href="class_sample_timer.html" target="_top" xlink:title="Sample Timer Class.">
<polygon fill="#ffffff" stroke="#000000" points="465.9639,-65.5 465.9639,-83.5 541.0557,-83.5 541.0557,-65.5 465.9639,-65.5"/>
<text text-anchor="middle" x="503.5098" y="-71.5" font-family="Helvetica,sans-Serif" font-size="10.00" fill="#000000">SampleTimer</text>
</a>
</g>
</g>
<!-- Node10&#45;&gt;Node2 -->
<g id="edge9" class="edge">
<title>Node10&#45;&gt;Node2</title>
<path fill="none" stroke="#9a32cd" stroke-dasharray="5,2" d="M470.5208,-61.912C448.6439,-53.9241 419.1631,-43.8413 392.5098,-37 352.9188,-26.8379 306.6534,-19.1198 275.2445,-14.4842"/>
<polygon fill="#9a32cd" stroke="#9a32cd" points="469.4065,-65.2315 479.9998,-65.4156 471.8334,-58.6657 469.4065,-65.2315"/>
<text text-anchor="middle" x="466.5063" y="-39" font-family="Helvetica,sans-Serif" font-size="10.00" fill="#000000"> cppSampleTimer</text>
</g>
<!-- Node11 -->
<g id="node10" class="node">
<title>Node11</title>
<g id="a_node10"><a xlink:title=" ">
<polygon fill="#ffffff" stroke="#bfbfbf" points="543.1699,-150.5 543.1699,-168.5 595.8496,-168.5 595.8496,-150.5 543.1699,-150.5"/>
<text text-anchor="middle" x="569.5098" y="-156.5" font-family="Helvetica,sans-Serif" font-size="10.00" fill="#000000">QObject</text>
</a>
</g>
</g>
<!-- Node11&#45;&gt;Node10 -->
<g id="edge10" class="edge">
<title>Node11&#45;&gt;Node10</title>
<path fill="none" stroke="#191970" d="M567.5689,-140.4013C565.5067,-128.3178 561.258,-112.965 552.5098,-102 546.1217,-93.9932 536.7306,-87.9282 527.8747,-83.5591"/>
<polygon fill="#191970" stroke="#191970" points="564.1069,-140.9183 568.9144,-150.3596 571.0439,-139.981 564.1069,-140.9183"/>
</g>
<!-- Node12 -->
<g id="node11" class="node">
<title>Node12</title>
<g id="a_node11"><a xlink:title=" ">
<polygon fill="#ffffff" stroke="#bfbfbf" points="613.7446,-150.5 613.7446,-168.5 673.2749,-168.5 673.2749,-150.5 613.7446,-150.5"/>
<text text-anchor="middle" x="643.5098" y="-156.5" font-family="Helvetica,sans-Serif" font-size="10.00" fill="#000000">CppTimer</text>
</a>
</g>
</g>
<!-- Node12&#45;&gt;Node10 -->
<g id="edge11" class="edge">
<title>Node12&#45;&gt;Node10</title>
<path fill="none" stroke="#191970" d="M626.4454,-143.1947C612.7047,-130.7045 592.4566,-113.6869 572.5098,-102 559.7144,-94.5031 544.4908,-88.1923 531.6027,-83.5148"/>
<polygon fill="#191970" stroke="#191970" points="624.3886,-146.0609 634.0991,-150.2983 629.1506,-140.9302 624.3886,-146.0609"/>
</g>
<!-- Node13 -->
<g id="node12" class="node">
<title>Node13</title>
<g id="a_node12"><a xlink:href="class_m_p_u6050.html" target="_top" xlink:title=" ">
<polygon fill="#ffffff" stroke="#000000" points="386.2759,-150.5 386.2759,-168.5 446.7437,-168.5 446.7437,-150.5 386.2759,-150.5"/>
<text text-anchor="middle" x="416.5098" y="-156.5" font-family="Helvetica,sans-Serif" font-size="10.00" fill="#000000">MPU6050</text>
</a>
</g>
</g>
<!-- Node13&#45;&gt;Node10 -->
<g id="edge12" class="edge">
<title>Node13&#45;&gt;Node10</title>
<path fill="none" stroke="#9a32cd" stroke-dasharray="5,2" d="M416.1966,-140.0133C417.0054,-127.7717 419.9985,-112.3884 429.0322,-102 438.4386,-91.1831 452.4939,-84.6163 465.8686,-80.6317"/>
<polygon fill="#9a32cd" stroke="#9a32cd" points="412.6947,-140.0591 415.9574,-150.139 419.6927,-140.2245 412.6947,-140.0591"/>
<text text-anchor="middle" x="461.7485" y="-114" font-family="Helvetica,sans-Serif" font-size="10.00" fill="#000000"> motionSensor</text>
</g>
<!-- Node14 -->
<g id="node13" class="node">
<title>Node14</title>
<g id="a_node13"><a xlink:href="class_m_c_p3428.html" target="_top" xlink:title=" ">
<polygon fill="#ffffff" stroke="#000000" points="464.2759,-150.5 464.2759,-168.5 524.7437,-168.5 524.7437,-150.5 464.2759,-150.5"/>
<text text-anchor="middle" x="494.5098" y="-156.5" font-family="Helvetica,sans-Serif" font-size="10.00" fill="#000000">MCP3428</text>
</a>
</g>
</g>
<!-- Node14&#45;&gt;Node10 -->
<g id="edge13" class="edge">
<title>Node14&#45;&gt;Node10</title>
<path fill="none" stroke="#9a32cd" stroke-dasharray="5,2" d="M496.541,-140.3165C498.4197,-122.5727 501.1299,-96.9761 502.5535,-83.5311"/>
<polygon fill="#9a32cd" stroke="#9a32cd" points="493.0454,-140.0905 495.4729,-150.4035 500.0065,-140.8277 493.0454,-140.0905"/>
<text text-anchor="middle" x="524.2412" y="-119" font-family="Helvetica,sans-Serif" font-size="10.00" fill="#000000"> flexThumb</text>
<text text-anchor="middle" x="524.2412" y="-109" font-family="Helvetica,sans-Serif" font-size="10.00" fill="#000000">flexFingers</text>
</g>
<!-- Node15 -->
<g id="node14" class="node">
<title>Node15</title>
<g id="a_node14"><a xlink:href="struct_m_c_p3428_1_1config_reg_struct.html" target="_top" xlink:title=" ">
<polygon fill="#ffffff" stroke="#000000" points="480.9238,-215.5 480.9238,-233.5 618.0957,-233.5 618.0957,-215.5 480.9238,-215.5"/>
<text text-anchor="middle" x="549.5098" y="-221.5" font-family="Helvetica,sans-Serif" font-size="10.00" fill="#000000">MCP3428::configRegStruct</text>
</a>
</g>
</g>
<!-- Node15&#45;&gt;Node14 -->
<g id="edge14" class="edge">
<title>Node15&#45;&gt;Node14</title>
<path fill="none" stroke="#9a32cd" stroke-dasharray="5,2" d="M535.2699,-207.6711C524.8198,-195.321 511.0112,-179.0016 502.4485,-168.8821"/>
<polygon fill="#9a32cd" stroke="#9a32cd" points="532.7309,-210.089 541.8623,-215.462 538.0747,-205.5673 532.7309,-210.089"/>
<text text-anchor="middle" x="551.1943" y="-189" font-family="Helvetica,sans-Serif" font-size="10.00" fill="#000000"> _configReg</text>
</g>
<!-- Node16 -->
<g id="node15" class="node">
<title>Node16</title>
<g id="a_node15"><a xlink:href="class_i2_cdev.html" target="_top" xlink:title=" ">
<polygon fill="#ffffff" stroke="#000000" points="415.6675,-215.5 415.6675,-233.5 463.3521,-233.5 463.3521,-215.5 415.6675,-215.5"/>
<text text-anchor="middle" x="439.5098" y="-221.5" font-family="Helvetica,sans-Serif" font-size="10.00" fill="#000000">I2Cdev</text>
</a>
</g>
</g>
<!-- Node16&#45;&gt;Node14 -->
<g id="edge15" class="edge">
<title>Node16&#45;&gt;Node14</title>
<path fill="none" stroke="#9a32cd" stroke-dasharray="5,2" d="M453.7496,-207.6711C464.1997,-195.321 478.0084,-179.0016 486.571,-168.8821"/>
<polygon fill="#9a32cd" stroke="#9a32cd" points="450.9449,-205.5673 447.1573,-215.462 456.2886,-210.089 450.9449,-205.5673"/>
<text text-anchor="middle" x="477.2905" y="-189" font-family="Helvetica,sans-Serif" font-size="10.00" fill="#000000"> i2c</text>
</g>
<!-- Node17&#45;&gt;Node2 -->
<g id="edge16" class="edge">
<title>Node17&#45;&gt;Node2</title>
<path fill="none" stroke="#9a32cd" stroke-dasharray="5,2" d="M323.3289,-57.533C316.8809,-50.5451 308.8375,-42.7561 300.5098,-37 289.564,-29.4343 276.2013,-23.1896 264.6879,-18.5739"/>
<polygon fill="#9a32cd" stroke="#9a32cd" points="320.8485,-60.012 330.0871,-65.1984 326.0992,-55.3827 320.8485,-60.012"/>
<text text-anchor="middle" x="351.0244" y="-39" font-family="Helvetica,sans-Serif" font-size="10.00" fill="#000000"> interpretWindow</text>
</g>
<!-- Node18 -->
<g id="node17" class="node">
<title>Node18</title>
<g id="a_node17"><a xlink:href="class_neural_net.html" target="_top" xlink:title=" ">
<polygon fill="#ffffff" stroke="#000000" points="307,-150.5 307,-168.5 368.0195,-168.5 368.0195,-150.5 307,-150.5"/>
<text text-anchor="middle" x="337.5098" y="-156.5" font-family="Helvetica,sans-Serif" font-size="10.00" fill="#000000">NeuralNet</text>
</a>
</g>
</g>
<!-- Node18&#45;&gt;Node17 -->
<g id="edge18" class="edge">
<title>Node18&#45;&gt;Node17</title>
<path fill="none" stroke="#9a32cd" stroke-dasharray="5,2" d="M337.5098,-140.3165C337.5098,-122.5727 337.5098,-96.9761 337.5098,-83.5311"/>
<polygon fill="#9a32cd" stroke="#9a32cd" points="334.0099,-140.4035 337.5098,-150.4035 341.0099,-140.4035 334.0099,-140.4035"/>
<text text-anchor="middle" x="358.3521" y="-114" font-family="Helvetica,sans-Serif" font-size="10.00" fill="#000000"> predictor</text>
</g>
</g>
</svg>
