<?xml version="1.0" encoding="UTF-8" standalone="no"?>
<!DOCTYPE svg PUBLIC "-//W3C//DTD SVG 1.1//EN"
 "http://www.w3.org/Graphics/SVG/1.1/DTD/svg11.dtd">
<!-- Generated by graphviz version 2.40.1 (20161225.0304)
 -->
<!-- Title: DemoTimer1 Pages: 1 -->
<svg width="81pt" height="82pt"
 viewBox="0.00 0.00 81.42 82.00" xmlns="http://www.w3.org/2000/svg" xmlns:xlink="http://www.w3.org/1999/xlink">
<g id="graph0" class="graph" transform="scale(1 1) rotate(0) translate(4 78)">
<title>DemoTimer1</title>
<polygon fill="#ffffff" stroke="transparent" points="-4,4 -4,-78 77.4219,-78 77.4219,4 -4,4"/>
<!-- Node2 -->
<g id="node1" class="node">
<title>Node2</title>
<g id="a_node1"><a xlink:title=" ">
<polygon fill="#bfbfbf" stroke="#000000" points="0,-.5 0,-18.5 73.4219,-18.5 73.4219,-.5 0,-.5"/>
<text text-anchor="middle" x="36.7109" y="-6.5" font-family="Helvetica,sans-Serif" font-size="10.00" fill="#000000">DemoTimer1</text>
</a>
</g>
</g>
<!-- Node3 -->
<g id="node2" class="node">
<title>Node3</title>
<g id="a_node2"><a xlink:href="class_cpp_timer.html" target="_top" xlink:title=" ">
<polygon fill="#ffffff" stroke="#000000" points="6.9458,-55.5 6.9458,-73.5 66.4761,-73.5 66.4761,-55.5 6.9458,-55.5"/>
<text text-anchor="middle" x="36.7109" y="-61.5" font-family="Helvetica,sans-Serif" font-size="10.00" fill="#000000">CppTimer</text>
</a>
</g>
</g>
<!-- Node3&#45;&gt;Node2 -->
<g id="edge1" class="edge">
<title>Node3&#45;&gt;Node2</title>
<path fill="none" stroke="#191970" d="M23.8272,-45.6796C22.4969,-36.6014 23.3203,-26.1171 26.2974,-18.7795"/>
<polygon fill="#191970" stroke="#191970" points="20.4584,-46.6312 26.3783,-55.4179 27.2299,-44.8573 20.4584,-46.6312"/>
</g>
<!-- Node3&#45;&gt;Node2 -->
<g id="edge2" class="edge">
<title>Node3&#45;&gt;Node2</title>
<path fill="none" stroke="#191970" d="M36.7109,-45.383C36.7109,-36.3738 36.7109,-26.0373 36.7109,-18.7795"/>
<polygon fill="#191970" stroke="#191970" points="33.211,-45.4178 36.7109,-55.4179 40.211,-45.4179 33.211,-45.4178"/>
</g>
<!-- Node3&#45;&gt;Node2 -->
<g id="edge3" class="edge">
<title>Node3&#45;&gt;Node2</title>
<path fill="none" stroke="#191970" d="M49.5946,-45.6796C50.925,-36.6014 50.1016,-26.1171 47.1245,-18.7795"/>
<polygon fill="#191970" stroke="#191970" points="46.192,-44.8573 47.0436,-55.4179 52.9635,-46.6312 46.192,-44.8573"/>
</g>
</g>
</svg>
