<?xml version="1.0" encoding="UTF-8" standalone="no"?>
<!DOCTYPE svg PUBLIC "-//W3C//DTD SVG 1.1//EN"
 "http://www.w3.org/Graphics/SVG/1.1/DTD/svg11.dtd">
<!-- Generated by graphviz version 2.40.1 (20161225.0304)
 -->
<!-- Title: SampleTimer Pages: 1 -->
<svg width="138pt" height="82pt"
 viewBox="0.00 0.00 138.10 82.00" xmlns="http://www.w3.org/2000/svg" xmlns:xlink="http://www.w3.org/1999/xlink">
<g id="graph0" class="graph" transform="scale(1 1) rotate(0) translate(4 78)">
<title>SampleTimer</title>
<polygon fill="#ffffff" stroke="transparent" points="-4,4 -4,-78 134.105,-78 134.105,4 -4,4"/>
<!-- Node0 -->
<g id="node1" class="node">
<title>Node0</title>
<g id="a_node1"><a xlink:title="Sample Timer Class.">
<polygon fill="#bfbfbf" stroke="#000000" points="25.7939,-.5 25.7939,-18.5 100.8857,-18.5 100.8857,-.5 25.7939,-.5"/>
<text text-anchor="middle" x="63.3398" y="-6.5" font-family="Helvetica,sans-Serif" font-size="10.00" fill="#000000">SampleTimer</text>
</a>
</g>
</g>
<!-- Node1 -->
<g id="node2" class="node">
<title>Node1</title>
<g id="a_node2"><a xlink:title=" ">
<polygon fill="#ffffff" stroke="#bfbfbf" points="0,-55.5 0,-73.5 52.6797,-73.5 52.6797,-55.5 0,-55.5"/>
<text text-anchor="middle" x="26.3398" y="-61.5" font-family="Helvetica,sans-Serif" font-size="10.00" fill="#000000">QObject</text>
</a>
</g>
</g>
<!-- Node1&#45;&gt;Node0 -->
<g id="edge1" class="edge">
<title>Node1&#45;&gt;Node0</title>
<path fill="none" stroke="#191970" d="M38.2099,-46.8553C44.4907,-37.519 51.9464,-26.4361 57.0973,-18.7795"/>
<polygon fill="#191970" stroke="#191970" points="35.1274,-45.167 32.4496,-55.4179 40.9355,-49.0743 35.1274,-45.167"/>
</g>
<!-- Node2 -->
<g id="node3" class="node">
<title>Node2</title>
<g id="a_node3"><a xlink:title=" ">
<polygon fill="#ffffff" stroke="#bfbfbf" points="70.5747,-55.5 70.5747,-73.5 130.105,-73.5 130.105,-55.5 70.5747,-55.5"/>
<text text-anchor="middle" x="100.3398" y="-61.5" font-family="Helvetica,sans-Serif" font-size="10.00" fill="#000000">CppTimer</text>
</a>
</g>
</g>
<!-- Node2&#45;&gt;Node0 -->
<g id="edge2" class="edge">
<title>Node2&#45;&gt;Node0</title>
<path fill="none" stroke="#191970" d="M88.4698,-46.8553C82.189,-37.519 74.7332,-26.4361 69.5824,-18.7795"/>
<polygon fill="#191970" stroke="#191970" points="85.7442,-49.0743 94.23,-55.4179 91.5523,-45.167 85.7442,-49.0743"/>
</g>
</g>
</svg>
