<?xml version="1.0" encoding="UTF-8" standalone="no"?>
<!DOCTYPE svg PUBLIC "-//W3C//DTD SVG 1.1//EN"
 "http://www.w3.org/Graphics/SVG/1.1/DTD/svg11.dtd">
<!-- Generated by graphviz version 2.40.1 (20161225.0304)
 -->
<!-- Title: InterpretWindow Pages: 1 -->
<svg width="142pt" height="92pt"
 viewBox="0.00 0.00 141.96 92.00" xmlns="http://www.w3.org/2000/svg" xmlns:xlink="http://www.w3.org/1999/xlink">
<g id="graph0" class="graph" transform="scale(1 1) rotate(0) translate(4 88)">
<title>InterpretWindow</title>
<polygon fill="#ffffff" stroke="transparent" points="-4,4 -4,-88 137.9604,-88 137.9604,4 -4,4"/>
<!-- Node2 -->
<g id="node1" class="node">
<title>Node2</title>
<g id="a_node1"><a xlink:title=" ">
<polygon fill="#bfbfbf" stroke="#000000" points="21.0469,-.5 21.0469,-18.5 109.8545,-18.5 109.8545,-.5 21.0469,-.5"/>
<text text-anchor="middle" x="65.4507" y="-6.5" font-family="Helvetica,sans-Serif" font-size="10.00" fill="#000000">InterpretWindow</text>
</a>
</g>
</g>
<!-- Node3 -->
<g id="node2" class="node">
<title>Node3</title>
<g id="a_node2"><a xlink:title=" ">
<polygon fill="#ffffff" stroke="#bfbfbf" points="0,-65.5 0,-83.5 54.9014,-83.5 54.9014,-65.5 0,-65.5"/>
<text text-anchor="middle" x="27.4507" y="-71.5" font-family="Helvetica,sans-Serif" font-size="10.00" fill="#000000">QWidget</text>
</a>
</g>
</g>
<!-- Node3&#45;&gt;Node2 -->
<g id="edge1" class="edge">
<title>Node3&#45;&gt;Node2</title>
<path fill="none" stroke="#191970" d="M37.9196,-56.5926C45.0566,-44.3846 54.2204,-28.7097 59.9657,-18.8821"/>
<polygon fill="#191970" stroke="#191970" points="34.7599,-55.0626 32.7344,-65.462 40.803,-58.5955 34.7599,-55.0626"/>
</g>
<!-- Node4 -->
<g id="node3" class="node">
<title>Node4</title>
<g id="a_node3"><a xlink:href="class_neural_net.html" target="_top" xlink:title=" ">
<polygon fill="#ffffff" stroke="#000000" points="72.9409,-65.5 72.9409,-83.5 133.9604,-83.5 133.9604,-65.5 72.9409,-65.5"/>
<text text-anchor="middle" x="103.4507" y="-71.5" font-family="Helvetica,sans-Serif" font-size="10.00" fill="#000000">NeuralNet</text>
</a>
</g>
</g>
<!-- Node4&#45;&gt;Node2 -->
<g id="edge2" class="edge">
<title>Node4&#45;&gt;Node2</title>
<path fill="none" stroke="#9a32cd" stroke-dasharray="5,2" d="M92.9818,-56.5926C85.8448,-44.3846 76.681,-28.7097 70.9356,-18.8821"/>
<polygon fill="#9a32cd" stroke="#9a32cd" points="90.0984,-58.5955 98.1669,-65.462 96.1415,-55.0626 90.0984,-58.5955"/>
<text text-anchor="middle" x="107.293" y="-39" font-family="Helvetica,sans-Serif" font-size="10.00" fill="#000000"> predictor</text>
</g>
</g>
</svg>
