<?xml version="1.0" encoding="UTF-8" standalone="no"?>
<!DOCTYPE svg PUBLIC "-//W3C//DTD SVG 1.1//EN"
 "http://www.w3.org/Graphics/SVG/1.1/DTD/svg11.dtd">
<!-- Generated by graphviz version 2.40.1 (20161225.0304)
 -->
<!-- Title: TrainWindow Pages: 1 -->
<svg width="162pt" height="446pt"
 viewBox="0.00 0.00 162.00 446.00" xmlns="http://www.w3.org/2000/svg" xmlns:xlink="http://www.w3.org/1999/xlink">
<g id="graph0" class="graph" transform="scale(1 1) rotate(0) translate(4 442)">
<title>TrainWindow</title>
<polygon fill="#ffffff" stroke="transparent" points="-4,4 -4,-442 157.9971,-442 157.9971,4 -4,4"/>
<!-- Node2 -->
<g id="node1" class="node">
<title>Node2</title>
<g id="a_node1"><a xlink:title="Training Window Class.">
<polygon fill="#bfbfbf" stroke="#000000" points="0,-.5 0,-224.5 138.0264,-224.5 138.0264,-.5 0,-.5"/>
<text text-anchor="middle" x="69.0132" y="-212.5" font-family="Helvetica,sans-Serif" font-size="10.00" fill="#000000">TrainWindow</text>
<polyline fill="none" stroke="#000000" points="0,-206.5 138.0264,-206.5 "/>
<text text-anchor="start" x="8" y="-194.5" font-family="Helvetica,sans-Serif" font-size="10.00" fill="#000000">&#45; sensorDataptr</text>
<text text-anchor="start" x="8" y="-184.5" font-family="Helvetica,sans-Serif" font-size="10.00" fill="#000000">&#45; gesture_count</text>
<text text-anchor="start" x="8" y="-174.5" font-family="Helvetica,sans-Serif" font-size="10.00" fill="#000000">&#45; inputGroup</text>
<text text-anchor="start" x="8" y="-164.5" font-family="Helvetica,sans-Serif" font-size="10.00" fill="#000000">&#45; trainGroup</text>
<text text-anchor="start" x="8" y="-154.5" font-family="Helvetica,sans-Serif" font-size="10.00" fill="#000000">&#45; netGroup</text>
<text text-anchor="start" x="8" y="-144.5" font-family="Helvetica,sans-Serif" font-size="10.00" fill="#000000">&#45; movementList</text>
<text text-anchor="start" x="8" y="-134.5" font-family="Helvetica,sans-Serif" font-size="10.00" fill="#000000">&#45; mainLayout</text>
<text text-anchor="start" x="8" y="-124.5" font-family="Helvetica,sans-Serif" font-size="10.00" fill="#000000">&#45; homeLayout</text>
<text text-anchor="start" x="8" y="-114.5" font-family="Helvetica,sans-Serif" font-size="10.00" fill="#000000">&#45; lightBox</text>
<text text-anchor="start" x="8" y="-104.5" font-family="Helvetica,sans-Serif" font-size="10.00" fill="#000000">&#45; inputLayout</text>
<text text-anchor="start" x="8" y="-94.5" font-family="Helvetica,sans-Serif" font-size="10.00" fill="#000000">and 16 more...</text>
<polyline fill="none" stroke="#000000" points="0,-88.5 138.0264,-88.5 "/>
<text text-anchor="start" x="8" y="-76.5" font-family="Helvetica,sans-Serif" font-size="10.00" fill="#000000">+ TrainWindow()</text>
<text text-anchor="start" x="8" y="-66.5" font-family="Helvetica,sans-Serif" font-size="10.00" fill="#000000">+ ~TrainWindow()</text>
<text text-anchor="start" x="8" y="-56.5" font-family="Helvetica,sans-Serif" font-size="10.00" fill="#000000">+ handleSamples()</text>
<text text-anchor="start" x="8" y="-46.5" font-family="Helvetica,sans-Serif" font-size="10.00" fill="#000000">+ startNeuralNet()</text>
<text text-anchor="start" x="8" y="-36.5" font-family="Helvetica,sans-Serif" font-size="10.00" fill="#000000">+ data_aq_state_machine()</text>
<text text-anchor="start" x="8" y="-26.5" font-family="Helvetica,sans-Serif" font-size="10.00" fill="#000000">+ closeWindow()</text>
<text text-anchor="start" x="8" y="-16.5" font-family="Helvetica,sans-Serif" font-size="10.00" fill="#000000">&#45; trainingDataLoop()</text>
<text text-anchor="start" x="8" y="-6.5" font-family="Helvetica,sans-Serif" font-size="10.00" fill="#000000">&#45; saveMovement()</text>
</a>
</g>
</g>
<!-- Node3 -->
<g id="node2" class="node">
<title>Node3</title>
<g id="a_node2"><a xlink:title=" ">
<polygon fill="#ffffff" stroke="#bfbfbf" points="13.5625,-281.5 13.5625,-335.5 68.4639,-335.5 68.4639,-281.5 13.5625,-281.5"/>
<text text-anchor="middle" x="41.0132" y="-323.5" font-family="Helvetica,sans-Serif" font-size="10.00" fill="#000000">QWidget</text>
<polyline fill="none" stroke="#bfbfbf" points="13.5625,-317.5 68.4639,-317.5 "/>
<text text-anchor="middle" x="41.0132" y="-305.5" font-family="Helvetica,sans-Serif" font-size="10.00" fill="#000000"> </text>
<polyline fill="none" stroke="#bfbfbf" points="13.5625,-299.5 68.4639,-299.5 "/>
<text text-anchor="middle" x="41.0132" y="-287.5" font-family="Helvetica,sans-Serif" font-size="10.00" fill="#000000"> </text>
</a>
</g>
</g>
<!-- Node3&#45;&gt;Node2 -->
<g id="edge1" class="edge">
<title>Node3&#45;&gt;Node2</title>
<path fill="none" stroke="#191970" d="M46.3733,-270.9794C48.3053,-257.4553 50.5977,-241.4081 52.9702,-224.8009"/>
<polygon fill="none" stroke="#191970" points="42.8559,-270.8525 44.9065,-281.247 49.7856,-271.8425 42.8559,-270.8525"/>
</g>
<!-- Node4 -->
<g id="node3" class="node">
<title>Node4</title>
<g id="a_node3"><a xlink:href="class_q_led.html" target="_top" xlink:title="QLed Class.">
<polygon fill="#ffffff" stroke="#000000" points="86.0293,-271.5 86.0293,-345.5 153.9971,-345.5 153.9971,-271.5 86.0293,-271.5"/>
<text text-anchor="middle" x="120.0132" y="-333.5" font-family="Helvetica,sans-Serif" font-size="10.00" fill="#000000">QLed</text>
<polyline fill="none" stroke="#000000" points="86.0293,-327.5 153.9971,-327.5 "/>
<text text-anchor="middle" x="120.0132" y="-315.5" font-family="Helvetica,sans-Serif" font-size="10.00" fill="#000000"> </text>
<polyline fill="none" stroke="#000000" points="86.0293,-309.5 153.9971,-309.5 "/>
<text text-anchor="start" x="94.0293" y="-297.5" font-family="Helvetica,sans-Serif" font-size="10.00" fill="#000000">+ QLed()</text>
<text text-anchor="start" x="94.0293" y="-287.5" font-family="Helvetica,sans-Serif" font-size="10.00" fill="#000000">+ setState()</text>
<text text-anchor="start" x="94.0293" y="-277.5" font-family="Helvetica,sans-Serif" font-size="10.00" fill="#000000">+ ~QLed()</text>
</a>
</g>
</g>
<!-- Node4&#45;&gt;Node2 -->
<g id="edge2" class="edge">
<title>Node4&#45;&gt;Node2</title>
<path fill="none" stroke="#404040" d="M110.3004,-271.1726C107.6285,-260.9038 104.5752,-249.1699 101.3656,-236.8346"/>
<polygon fill="none" stroke="#404040" points="101.2695,-236.4653 95.8875,-231.666 98.2476,-224.852 103.6297,-229.6514 101.2695,-236.4653"/>
<text text-anchor="middle" x="113.7397" y="-245" font-family="Helvetica,sans-Serif" font-size="10.00" fill="#000000"> &#45;led</text>
</g>
<!-- Node5 -->
<g id="node4" class="node">
<title>Node5</title>
<g id="a_node4"><a xlink:title=" ">
<polygon fill="#ffffff" stroke="#bfbfbf" points="93.6782,-383.5 93.6782,-437.5 146.3481,-437.5 146.3481,-383.5 93.6782,-383.5"/>
<text text-anchor="middle" x="120.0132" y="-425.5" font-family="Helvetica,sans-Serif" font-size="10.00" fill="#000000">QFrame</text>
<polyline fill="none" stroke="#bfbfbf" points="93.6782,-419.5 146.3481,-419.5 "/>
<text text-anchor="middle" x="120.0132" y="-407.5" font-family="Helvetica,sans-Serif" font-size="10.00" fill="#000000"> </text>
<polyline fill="none" stroke="#bfbfbf" points="93.6782,-401.5 146.3481,-401.5 "/>
<text text-anchor="middle" x="120.0132" y="-389.5" font-family="Helvetica,sans-Serif" font-size="10.00" fill="#000000"> </text>
</a>
</g>
</g>
<!-- Node5&#45;&gt;Node4 -->
<g id="edge3" class="edge">
<title>Node5&#45;&gt;Node4</title>
<path fill="none" stroke="#191970" d="M120.0132,-373.243C120.0132,-364.2586 120.0132,-354.6592 120.0132,-345.6783"/>
<polygon fill="none" stroke="#191970" points="116.5133,-373.4336 120.0132,-383.4337 123.5133,-373.4337 116.5133,-373.4336"/>
</g>
</g>
</svg>
