<?xml version="1.0" encoding="UTF-8" standalone="no"?>
<!DOCTYPE svg PUBLIC "-//W3C//DTD SVG 1.1//EN"
 "http://www.w3.org/Graphics/SVG/1.1/DTD/svg11.dtd">
<!-- Generated by graphviz version 2.40.1 (20161225.0304)
 -->
<!-- Title: SampleTimer Pages: 1 -->
<svg width="138pt" height="254pt"
 viewBox="0.00 0.00 138.10 254.00" xmlns="http://www.w3.org/2000/svg" xmlns:xlink="http://www.w3.org/1999/xlink">
<g id="graph0" class="graph" transform="scale(1 1) rotate(0) translate(4 250)">
<title>SampleTimer</title>
<polygon fill="#ffffff" stroke="transparent" points="-4,4 -4,-250 134.105,-250 134.105,4 -4,4"/>
<!-- Node0 -->
<g id="node1" class="node">
<title>Node0</title>
<g id="a_node1"><a xlink:title="Sample Timer Class.">
<polygon fill="#bfbfbf" stroke="#000000" points="8.9409,-.5 8.9409,-154.5 117.7388,-154.5 117.7388,-.5 8.9409,-.5"/>
<text text-anchor="middle" x="63.3398" y="-142.5" font-family="Helvetica,sans-Serif" font-size="10.00" fill="#000000">SampleTimer</text>
<polyline fill="none" stroke="#000000" points="8.9409,-136.5 117.7388,-136.5 "/>
<text text-anchor="start" x="16.9409" y="-124.5" font-family="Helvetica,sans-Serif" font-size="10.00" fill="#000000">&#45; mtx</text>
<text text-anchor="start" x="16.9409" y="-114.5" font-family="Helvetica,sans-Serif" font-size="10.00" fill="#000000">&#45; motionSensor</text>
<text text-anchor="start" x="16.9409" y="-104.5" font-family="Helvetica,sans-Serif" font-size="10.00" fill="#000000">&#45; flexFingers</text>
<text text-anchor="start" x="16.9409" y="-94.5" font-family="Helvetica,sans-Serif" font-size="10.00" fill="#000000">&#45; flexThumb</text>
<text text-anchor="start" x="16.9409" y="-84.5" font-family="Helvetica,sans-Serif" font-size="10.00" fill="#000000">&#45; filters</text>
<text text-anchor="start" x="16.9409" y="-74.5" font-family="Helvetica,sans-Serif" font-size="10.00" fill="#000000">&#45; sensorValues</text>
<polyline fill="none" stroke="#000000" points="8.9409,-68.5 117.7388,-68.5 "/>
<text text-anchor="start" x="16.9409" y="-56.5" font-family="Helvetica,sans-Serif" font-size="10.00" fill="#000000">+ SampleTimer()</text>
<text text-anchor="start" x="16.9409" y="-46.5" font-family="Helvetica,sans-Serif" font-size="10.00" fill="#000000">+ ~SampleTimer()</text>
<text text-anchor="start" x="16.9409" y="-36.5" font-family="Helvetica,sans-Serif" font-size="10.00" fill="#000000">+ timerEvent()</text>
<text text-anchor="start" x="16.9409" y="-26.5" font-family="Helvetica,sans-Serif" font-size="10.00" fill="#000000">+ testConnection()</text>
<text text-anchor="start" x="16.9409" y="-16.5" font-family="Helvetica,sans-Serif" font-size="10.00" fill="#000000">+ getSensorValues()</text>
<text text-anchor="start" x="16.9409" y="-6.5" font-family="Helvetica,sans-Serif" font-size="10.00" fill="#000000">&#45; readFromSensors()</text>
</a>
</g>
</g>
<!-- Node1 -->
<g id="node2" class="node">
<title>Node1</title>
<g id="a_node2"><a xlink:title=" ">
<polygon fill="#ffffff" stroke="#bfbfbf" points="0,-191.5 0,-245.5 52.6797,-245.5 52.6797,-191.5 0,-191.5"/>
<text text-anchor="middle" x="26.3398" y="-233.5" font-family="Helvetica,sans-Serif" font-size="10.00" fill="#000000">QObject</text>
<polyline fill="none" stroke="#bfbfbf" points="0,-227.5 52.6797,-227.5 "/>
<text text-anchor="middle" x="26.3398" y="-215.5" font-family="Helvetica,sans-Serif" font-size="10.00" fill="#000000"> </text>
<polyline fill="none" stroke="#bfbfbf" points="0,-209.5 52.6797,-209.5 "/>
<text text-anchor="middle" x="26.3398" y="-197.5" font-family="Helvetica,sans-Serif" font-size="10.00" fill="#000000"> </text>
</a>
</g>
</g>
<!-- Node1&#45;&gt;Node0 -->
<g id="edge1" class="edge">
<title>Node1&#45;&gt;Node0</title>
<path fill="none" stroke="#191970" d="M36.0256,-181.5893C38.2146,-173.2477 40.6183,-164.0874 43.0639,-154.7679"/>
<polygon fill="none" stroke="#191970" points="32.6267,-180.7529 33.4738,-191.3138 39.3975,-182.5296 32.6267,-180.7529"/>
</g>
<!-- Node2 -->
<g id="node3" class="node">
<title>Node2</title>
<g id="a_node3"><a xlink:title=" ">
<polygon fill="#ffffff" stroke="#bfbfbf" points="70.5747,-191.5 70.5747,-245.5 130.105,-245.5 130.105,-191.5 70.5747,-191.5"/>
<text text-anchor="middle" x="100.3398" y="-233.5" font-family="Helvetica,sans-Serif" font-size="10.00" fill="#000000">CppTimer</text>
<polyline fill="none" stroke="#bfbfbf" points="70.5747,-227.5 130.105,-227.5 "/>
<text text-anchor="middle" x="100.3398" y="-215.5" font-family="Helvetica,sans-Serif" font-size="10.00" fill="#000000"> </text>
<polyline fill="none" stroke="#bfbfbf" points="70.5747,-209.5 130.105,-209.5 "/>
<text text-anchor="middle" x="100.3398" y="-197.5" font-family="Helvetica,sans-Serif" font-size="10.00" fill="#000000"> </text>
</a>
</g>
</g>
<!-- Node2&#45;&gt;Node0 -->
<g id="edge2" class="edge">
<title>Node2&#45;&gt;Node0</title>
<path fill="none" stroke="#191970" d="M90.6541,-181.5893C88.4651,-173.2477 86.0614,-164.0874 83.6158,-154.7679"/>
<polygon fill="none" stroke="#191970" points="87.2822,-182.5296 93.2059,-191.3138 94.053,-180.7529 87.2822,-182.5296"/>
</g>
</g>
</svg>
