<?xml version="1.0" encoding="UTF-8" standalone="no"?>
<!DOCTYPE svg PUBLIC "-//W3C//DTD SVG 1.1//EN"
 "http://www.w3.org/Graphics/SVG/1.1/DTD/svg11.dtd">
<!-- Generated by graphviz version 2.40.1 (20161225.0304)
 -->
<!-- Title: TrainWindow Pages: 1 -->
<svg width="128pt" height="148pt"
 viewBox="0.00 0.00 127.79 148.00" xmlns="http://www.w3.org/2000/svg" xmlns:xlink="http://www.w3.org/1999/xlink">
<g id="graph0" class="graph" transform="scale(1 1) rotate(0) translate(4 144)">
<title>TrainWindow</title>
<polygon fill="#ffffff" stroke="transparent" points="-4,4 -4,-144 123.7856,-144 123.7856,4 -4,4"/>
<!-- Node2 -->
<g id="node1" class="node">
<title>Node2</title>
<g id="a_node1"><a xlink:title="Training Window Class.">
<polygon fill="#bfbfbf" stroke="#000000" points="6.459,-.5 6.459,-18.5 80.4424,-18.5 80.4424,-.5 6.459,-.5"/>
<text text-anchor="middle" x="43.4507" y="-6.5" font-family="Helvetica,sans-Serif" font-size="10.00" fill="#000000">TrainWindow</text>
</a>
</g>
</g>
<!-- Node3 -->
<g id="node2" class="node">
<title>Node3</title>
<g id="a_node2"><a xlink:title=" ">
<polygon fill="#ffffff" stroke="#bfbfbf" points="0,-65.5 0,-83.5 54.9014,-83.5 54.9014,-65.5 0,-65.5"/>
<text text-anchor="middle" x="27.4507" y="-71.5" font-family="Helvetica,sans-Serif" font-size="10.00" fill="#000000">QWidget</text>
</a>
</g>
</g>
<!-- Node3&#45;&gt;Node2 -->
<g id="edge1" class="edge">
<title>Node3&#45;&gt;Node2</title>
<path fill="none" stroke="#191970" d="M32.1286,-55.4959C35.0916,-43.4586 38.794,-28.4178 41.1412,-18.8821"/>
<polygon fill="#191970" stroke="#191970" points="28.6671,-54.9153 29.6754,-65.462 35.4642,-56.5885 28.6671,-54.9153"/>
</g>
<!-- Node4 -->
<g id="node3" class="node">
<title>Node4</title>
<g id="a_node3"><a xlink:href="class_q_led.html" target="_top" xlink:title="QLed Class.">
<polygon fill="#ffffff" stroke="#000000" points="73.2192,-65.5 73.2192,-83.5 113.6821,-83.5 113.6821,-65.5 73.2192,-65.5"/>
<text text-anchor="middle" x="93.4507" y="-71.5" font-family="Helvetica,sans-Serif" font-size="10.00" fill="#000000">QLed</text>
</a>
</g>
</g>
<!-- Node4&#45;&gt;Node2 -->
<g id="edge2" class="edge">
<title>Node4&#45;&gt;Node2</title>
<path fill="none" stroke="#9a32cd" stroke-dasharray="5,2" d="M80.2305,-57.3137C70.7643,-45.0077 58.3771,-28.9043 50.6677,-18.8821"/>
<polygon fill="#9a32cd" stroke="#9a32cd" points="77.6271,-59.6698 86.4984,-65.462 83.1754,-55.4018 77.6271,-59.6698"/>
<text text-anchor="middle" x="78.5122" y="-39" font-family="Helvetica,sans-Serif" font-size="10.00" fill="#000000"> led</text>
</g>
<!-- Node5 -->
<g id="node4" class="node">
<title>Node5</title>
<g id="a_node4"><a xlink:title=" ">
<polygon fill="#ffffff" stroke="#bfbfbf" points="67.1157,-121.5 67.1157,-139.5 119.7856,-139.5 119.7856,-121.5 67.1157,-121.5"/>
<text text-anchor="middle" x="93.4507" y="-127.5" font-family="Helvetica,sans-Serif" font-size="10.00" fill="#000000">QFrame</text>
</a>
</g>
</g>
<!-- Node5&#45;&gt;Node4 -->
<g id="edge3" class="edge">
<title>Node5&#45;&gt;Node4</title>
<path fill="none" stroke="#191970" d="M93.4507,-111.2065C93.4507,-101.8384 93.4507,-91.0262 93.4507,-83.5752"/>
<polygon fill="#191970" stroke="#191970" points="89.9508,-111.2527 93.4507,-121.2527 96.9508,-111.2528 89.9508,-111.2527"/>
</g>
</g>
</svg>
