<?xml version="1.0" encoding="UTF-8" standalone="no"?>
<!DOCTYPE svg PUBLIC "-//W3C//DTD SVG 1.1//EN"
 "http://www.w3.org/Graphics/SVG/1.1/DTD/svg11.dtd">
<!-- Generated by graphviz version 2.40.1 (20161225.0304)
 -->
<!-- Title: DemoTimer2 Pages: 1 -->
<svg width="155pt" height="148pt"
 viewBox="0.00 0.00 155.42 148.00" xmlns="http://www.w3.org/2000/svg" xmlns:xlink="http://www.w3.org/1999/xlink">
<g id="graph0" class="graph" transform="scale(1 1) rotate(0) translate(4 144)">
<title>DemoTimer2</title>
<polygon fill="#ffffff" stroke="transparent" points="-4,4 -4,-144 151.4219,-144 151.4219,4 -4,4"/>
<!-- Node2 -->
<g id="node1" class="node">
<title>Node2</title>
<g id="a_node1"><a xlink:title=" ">
<polygon fill="#bfbfbf" stroke="#000000" points="0,-.5 0,-18.5 73.4219,-18.5 73.4219,-.5 0,-.5"/>
<text text-anchor="middle" x="36.7109" y="-6.5" font-family="Helvetica,sans-Serif" font-size="10.00" fill="#000000">DemoTimer2</text>
</a>
</g>
</g>
<!-- Node3 -->
<g id="node2" class="node">
<title>Node3</title>
<g id="a_node2"><a xlink:href="class_cpp_timer.html" target="_top" xlink:title=" ">
<polygon fill="#ffffff" stroke="#000000" points="80.9458,-121.5 80.9458,-139.5 140.4761,-139.5 140.4761,-121.5 80.9458,-121.5"/>
<text text-anchor="middle" x="110.7109" y="-127.5" font-family="Helvetica,sans-Serif" font-size="10.00" fill="#000000">CppTimer</text>
</a>
</g>
</g>
<!-- Node3&#45;&gt;Node2 -->
<g id="edge1" class="edge">
<title>Node3&#45;&gt;Node2</title>
<path fill="none" stroke="#191970" d="M84.0897,-115.1044C73.8958,-106.6847 63.1543,-95.6191 55.7109,-84 41.9967,-62.5921 33.5319,-33.4713 33.1969,-18.7842"/>
<polygon fill="#191970" stroke="#191970" points="82.0148,-117.9241 92.0742,-121.2496 86.2842,-112.3768 82.0148,-117.9241"/>
</g>
<!-- Node3&#45;&gt;Node2 -->
<g id="edge2" class="edge">
<title>Node3&#45;&gt;Node2</title>
<path fill="none" stroke="#191970" d="M99.1709,-114.0917C91.0501,-105.8074 80.8595,-95.159 73.7109,-84 59.9967,-62.5921 51.5319,-33.4713 44.5134,-18.7842"/>
<polygon fill="#191970" stroke="#191970" points="96.6667,-116.5369 106.1558,-121.2496 101.6766,-111.6481 96.6667,-116.5369"/>
</g>
<!-- Node4 -->
<g id="node3" class="node">
<title>Node4</title>
<g id="a_node3"><a xlink:href="class_demo_timer1.html" target="_top" xlink:title=" ">
<polygon fill="#ffffff" stroke="#000000" points="74,-65.5 74,-83.5 147.4219,-83.5 147.4219,-65.5 74,-65.5"/>
<text text-anchor="middle" x="110.7109" y="-71.5" font-family="Helvetica,sans-Serif" font-size="10.00" fill="#000000">DemoTimer1</text>
</a>
</g>
</g>
<!-- Node3&#45;&gt;Node4 -->
<g id="edge4" class="edge">
<title>Node3&#45;&gt;Node4</title>
<path fill="none" stroke="#191970" d="M97.8526,-111.5115C96.4639,-102.0738 97.3293,-91.1072 100.4489,-83.5752"/>
<polygon fill="#191970" stroke="#191970" points="94.4804,-112.4513 100.3783,-121.2527 101.2564,-110.6944 94.4804,-112.4513"/>
</g>
<!-- Node3&#45;&gt;Node4 -->
<g id="edge5" class="edge">
<title>Node3&#45;&gt;Node4</title>
<path fill="none" stroke="#191970" d="M110.7109,-111.2065C110.7109,-101.8384 110.7109,-91.0262 110.7109,-83.5752"/>
<polygon fill="#191970" stroke="#191970" points="107.211,-111.2527 110.7109,-121.2527 114.211,-111.2528 107.211,-111.2527"/>
</g>
<!-- Node3&#45;&gt;Node4 -->
<g id="edge6" class="edge">
<title>Node3&#45;&gt;Node4</title>
<path fill="none" stroke="#191970" d="M123.5693,-111.5115C124.958,-102.0738 124.0925,-91.1072 120.9729,-83.5752"/>
<polygon fill="#191970" stroke="#191970" points="120.1655,-110.6944 121.0436,-121.2527 126.9414,-112.4513 120.1655,-110.6944"/>
</g>
<!-- Node4&#45;&gt;Node2 -->
<g id="edge3" class="edge">
<title>Node4&#45;&gt;Node2</title>
<path fill="none" stroke="#9a32cd" stroke-dasharray="5,2" d="M92.757,-58.7297C78.5695,-46.2676 59.2451,-29.2936 47.3921,-18.8821"/>
<polygon fill="#9a32cd" stroke="#9a32cd" points="90.5986,-61.4922 100.4216,-65.462 95.2182,-56.233 90.5986,-61.4922"/>
<text text-anchor="middle" x="106.981" y="-39" font-family="Helvetica,sans-Serif" font-size="10.00" fill="#000000"> demoTimer1</text>
</g>
</g>
</svg>
