<?xml version="1.0" encoding="UTF-8" standalone="no"?>
<!DOCTYPE svg PUBLIC "-//W3C//DTD SVG 1.1//EN"
 "http://www.w3.org/Graphics/SVG/1.1/DTD/svg11.dtd">
<!-- Generated by graphviz version 2.40.1 (20161225.0304)
 -->
<!-- Title: CppTimer Pages: 1 -->
<svg width="381pt" height="82pt"
 viewBox="0.00 0.00 381.49 82.00" xmlns="http://www.w3.org/2000/svg" xmlns:xlink="http://www.w3.org/1999/xlink">
<g id="graph0" class="graph" transform="scale(1 1) rotate(0) translate(4 78)">
<title>CppTimer</title>
<polygon fill="#ffffff" stroke="transparent" points="-4,4 -4,-78 377.4858,-78 377.4858,4 -4,4"/>
<!-- Node0 -->
<g id="node1" class="node">
<title>Node0</title>
<g id="a_node1"><a xlink:title=" ">
<polygon fill="#bfbfbf" stroke="#000000" points="123.1748,-55.5 123.1748,-73.5 182.7051,-73.5 182.7051,-55.5 123.1748,-55.5"/>
<text text-anchor="middle" x="152.9399" y="-61.5" font-family="Helvetica,sans-Serif" font-size="10.00" fill="#000000">CppTimer</text>
</a>
</g>
</g>
<!-- Node1 -->
<g id="node2" class="node">
<title>Node1</title>
<g id="a_node2"><a xlink:href="class_cpp_timer_callback.html" target="_top" xlink:title=" ">
<polygon fill="#ffffff" stroke="#000000" points="0,-.5 0,-18.5 97.8799,-18.5 97.8799,-.5 0,-.5"/>
<text text-anchor="middle" x="48.9399" y="-6.5" font-family="Helvetica,sans-Serif" font-size="10.00" fill="#000000">CppTimerCallback</text>
</a>
</g>
</g>
<!-- Node0&#45;&gt;Node1 -->
<g id="edge1" class="edge">
<title>Node0&#45;&gt;Node1</title>
<path fill="none" stroke="#191970" d="M126.7426,-50.6456C107.7599,-40.6067 82.6323,-27.3181 66.1389,-18.5956"/>
<polygon fill="#191970" stroke="#191970" points="125.2902,-53.8368 135.7665,-55.4179 128.5628,-47.6489 125.2902,-53.8368"/>
</g>
<!-- Node2 -->
<g id="node3" class="node">
<title>Node2</title>
<g id="a_node3"><a xlink:href="class_demo_timer1.html" target="_top" xlink:title=" ">
<polygon fill="#ffffff" stroke="#000000" points="116.229,-.5 116.229,-18.5 189.6509,-18.5 189.6509,-.5 116.229,-.5"/>
<text text-anchor="middle" x="152.9399" y="-6.5" font-family="Helvetica,sans-Serif" font-size="10.00" fill="#000000">DemoTimer1</text>
</a>
</g>
</g>
<!-- Node0&#45;&gt;Node2 -->
<g id="edge2" class="edge">
<title>Node0&#45;&gt;Node2</title>
<path fill="none" stroke="#191970" d="M140.0563,-45.6796C138.7259,-36.6014 139.5493,-26.1171 142.5264,-18.7795"/>
<polygon fill="#191970" stroke="#191970" points="136.6874,-46.6312 142.6073,-55.4179 143.4589,-44.8573 136.6874,-46.6312"/>
</g>
<!-- Node0&#45;&gt;Node2 -->
<g id="edge3" class="edge">
<title>Node0&#45;&gt;Node2</title>
<path fill="none" stroke="#191970" d="M152.9399,-45.383C152.9399,-36.3738 152.9399,-26.0373 152.9399,-18.7795"/>
<polygon fill="#191970" stroke="#191970" points="149.44,-45.4178 152.9399,-55.4179 156.44,-45.4179 149.44,-45.4178"/>
</g>
<!-- Node0&#45;&gt;Node2 -->
<g id="edge4" class="edge">
<title>Node0&#45;&gt;Node2</title>
<path fill="none" stroke="#191970" d="M165.8236,-45.6796C167.154,-36.6014 166.3306,-26.1171 163.3535,-18.7795"/>
<polygon fill="#191970" stroke="#191970" points="162.421,-44.8573 163.2726,-55.4179 169.1925,-46.6312 162.421,-44.8573"/>
</g>
<!-- Node3 -->
<g id="node4" class="node">
<title>Node3</title>
<g id="a_node4"><a xlink:href="class_demo_timer2.html" target="_top" xlink:title=" ">
<polygon fill="#ffffff" stroke="#000000" points="207.229,-.5 207.229,-18.5 280.6509,-18.5 280.6509,-.5 207.229,-.5"/>
<text text-anchor="middle" x="243.9399" y="-6.5" font-family="Helvetica,sans-Serif" font-size="10.00" fill="#000000">DemoTimer2</text>
</a>
</g>
</g>
<!-- Node0&#45;&gt;Node3 -->
<g id="edge5" class="edge">
<title>Node0&#45;&gt;Node3</title>
<path fill="none" stroke="#191970" d="M171.4038,-49.6733C186.6554,-39.7619 208.0049,-27.0393 223.7217,-18.5956"/>
<polygon fill="#191970" stroke="#191970" points="169.1733,-46.954 162.8004,-55.4179 173.0605,-52.7756 169.1733,-46.954"/>
</g>
<!-- Node0&#45;&gt;Node3 -->
<g id="edge6" class="edge">
<title>Node0&#45;&gt;Node3</title>
<path fill="none" stroke="#191970" d="M182.0573,-50.5079C199.9039,-40.4854 221.4899,-27.2783 234.0599,-18.5956"/>
<polygon fill="#191970" stroke="#191970" points="180.2074,-47.5309 173.1331,-55.4179 183.5817,-53.6639 180.2074,-47.5309"/>
</g>
<!-- Node4 -->
<g id="node5" class="node">
<title>Node4</title>
<g id="a_node5"><a xlink:href="class_sample_timer.html" target="_top" xlink:title="Sample Timer Class.">
<polygon fill="#ffffff" stroke="#000000" points="298.394,-.5 298.394,-18.5 373.4858,-18.5 373.4858,-.5 298.394,-.5"/>
<text text-anchor="middle" x="335.9399" y="-6.5" font-family="Helvetica,sans-Serif" font-size="10.00" fill="#000000">SampleTimer</text>
</a>
</g>
</g>
<!-- Node0&#45;&gt;Node4 -->
<g id="edge7" class="edge">
<title>Node0&#45;&gt;Node4</title>
<path fill="none" stroke="#191970" d="M192.3765,-52.6475C226.4109,-42.4186 274.8486,-27.8608 305.8389,-18.5467"/>
<polygon fill="#191970" stroke="#191970" points="191.3187,-49.3107 182.7493,-55.5409 193.3336,-56.0144 191.3187,-49.3107"/>
</g>
</g>
</svg>
