<?xml version="1.0" encoding="UTF-8" standalone="no"?>
<!DOCTYPE svg PUBLIC "-//W3C//DTD SVG 1.1//EN"
 "http://www.w3.org/Graphics/SVG/1.1/DTD/svg11.dtd">
<!-- Generated by graphviz version 2.40.1 (20161225.0304)
 -->
<!-- Title: DemoTimer2 Pages: 1 -->
<svg width="81pt" height="82pt"
 viewBox="0.00 0.00 81.42 82.00" xmlns="http://www.w3.org/2000/svg" xmlns:xlink="http://www.w3.org/1999/xlink">
<g id="graph0" class="graph" transform="scale(1 1) rotate(0) translate(4 78)">
<title>DemoTimer2</title>
<polygon fill="#ffffff" stroke="transparent" points="-4,4 -4,-78 77.4219,-78 77.4219,4 -4,4"/>
<!-- Node0 -->
<g id="node1" class="node">
<title>Node0</title>
<g id="a_node1"><a xlink:title=" ">
<polygon fill="#bfbfbf" stroke="#000000" points="0,-.5 0,-18.5 73.4219,-18.5 73.4219,-.5 0,-.5"/>
<text text-anchor="middle" x="36.7109" y="-6.5" font-family="Helvetica,sans-Serif" font-size="10.00" fill="#000000">DemoTimer2</text>
</a>
</g>
</g>
<!-- Node1 -->
<g id="node2" class="node">
<title>Node1</title>
<g id="a_node2"><a xlink:href="class_cpp_timer.html" target="_top" xlink:title=" ">
<polygon fill="#ffffff" stroke="#000000" points="6.9458,-55.5 6.9458,-73.5 66.4761,-73.5 66.4761,-55.5 6.9458,-55.5"/>
<text text-anchor="middle" x="36.7109" y="-61.5" font-family="Helvetica,sans-Serif" font-size="10.00" fill="#000000">CppTimer</text>
</a>
</g>
</g>
<!-- Node1&#45;&gt;Node0 -->
<g id="edge1" class="edge">
<title>Node1&#45;&gt;Node0</title>
<path fill="none" stroke="#191970" d="M30.2478,-45.383C29.613,-36.3738 30.0318,-26.0373 31.5042,-18.7795"/>
<polygon fill="#191970" stroke="#191970" points="26.7917,-45.949 31.5446,-55.4179 33.734,-45.0517 26.7917,-45.949"/>
</g>
<!-- Node1&#45;&gt;Node0 -->
<g id="edge2" class="edge">
<title>Node1&#45;&gt;Node0</title>
<path fill="none" stroke="#191970" d="M43.1741,-45.383C43.8089,-36.3738 43.3901,-26.0373 41.9177,-18.7795"/>
<polygon fill="#191970" stroke="#191970" points="39.6879,-45.0517 41.8773,-55.4179 46.6302,-45.949 39.6879,-45.0517"/>
</g>
</g>
</svg>
