<?xml version="1.0" encoding="UTF-8" standalone="no"?>
<!DOCTYPE svg PUBLIC "-//W3C//DTD SVG 1.1//EN"
 "http://www.w3.org/Graphics/SVG/1.1/DTD/svg11.dtd">
<!-- Generated by graphviz version 2.40.1 (20161225.0304)
 -->
<!-- Title: MainWindow Pages: 1 -->
<svg width="1016pt" height="996pt"
 viewBox="0.00 0.00 1016.00 996.00" xmlns="http://www.w3.org/2000/svg" xmlns:xlink="http://www.w3.org/1999/xlink">
<g id="graph0" class="graph" transform="scale(1 1) rotate(0) translate(4 992)">
<title>MainWindow</title>
<polygon fill="#ffffff" stroke="transparent" points="-4,4 -4,-992 1012.0034,-992 1012.0034,4 -4,4"/>
<!-- Node2 -->
<g id="node1" class="node">
<title>Node2</title>
<g id="a_node1"><a xlink:title=" ">
<polygon fill="#bfbfbf" stroke="#000000" points="216.9336,-.5 216.9336,-254.5 344.0859,-254.5 344.0859,-.5 216.9336,-.5"/>
<text text-anchor="middle" x="280.5098" y="-242.5" font-family="Helvetica,sans-Serif" font-size="10.00" fill="#000000">MainWindow</text>
<polyline fill="none" stroke="#000000" points="216.9336,-236.5 344.0859,-236.5 "/>
<text text-anchor="start" x="224.9336" y="-224.5" font-family="Helvetica,sans-Serif" font-size="10.00" fill="#000000">&#45; logo_image</text>
<text text-anchor="start" x="224.9336" y="-214.5" font-family="Helvetica,sans-Serif" font-size="10.00" fill="#000000">&#45; title_font</text>
<text text-anchor="start" x="224.9336" y="-204.5" font-family="Helvetica,sans-Serif" font-size="10.00" fill="#000000">&#45; title_text</text>
<text text-anchor="start" x="224.9336" y="-194.5" font-family="Helvetica,sans-Serif" font-size="10.00" fill="#000000">&#45; logo</text>
<text text-anchor="start" x="224.9336" y="-184.5" font-family="Helvetica,sans-Serif" font-size="10.00" fill="#000000">&#45; lab_train</text>
<text text-anchor="start" x="224.9336" y="-174.5" font-family="Helvetica,sans-Serif" font-size="10.00" fill="#000000">&#45; lab_interpret</text>
<text text-anchor="start" x="224.9336" y="-164.5" font-family="Helvetica,sans-Serif" font-size="10.00" fill="#000000">&#45; lab_mon</text>
<text text-anchor="start" x="224.9336" y="-154.5" font-family="Helvetica,sans-Serif" font-size="10.00" fill="#000000">&#45; lab_icon</text>
<text text-anchor="start" x="224.9336" y="-144.5" font-family="Helvetica,sans-Serif" font-size="10.00" fill="#000000">&#45; but_train</text>
<text text-anchor="start" x="224.9336" y="-134.5" font-family="Helvetica,sans-Serif" font-size="10.00" fill="#000000">&#45; but_interpret</text>
<text text-anchor="start" x="224.9336" y="-124.5" font-family="Helvetica,sans-Serif" font-size="10.00" fill="#000000">and 8 more...</text>
<polyline fill="none" stroke="#000000" points="216.9336,-118.5 344.0859,-118.5 "/>
<text text-anchor="start" x="224.9336" y="-106.5" font-family="Helvetica,sans-Serif" font-size="10.00" fill="#000000">+ MainWindow()</text>
<text text-anchor="start" x="224.9336" y="-96.5" font-family="Helvetica,sans-Serif" font-size="10.00" fill="#000000">+ ~MainWindow()</text>
<text text-anchor="start" x="224.9336" y="-86.5" font-family="Helvetica,sans-Serif" font-size="10.00" fill="#000000">&#45; createUI()</text>
<text text-anchor="start" x="224.9336" y="-76.5" font-family="Helvetica,sans-Serif" font-size="10.00" fill="#000000">&#45; newDataEvent()</text>
<text text-anchor="start" x="224.9336" y="-66.5" font-family="Helvetica,sans-Serif" font-size="10.00" fill="#000000">&#45; monitorButtonClicked()</text>
<text text-anchor="start" x="224.9336" y="-56.5" font-family="Helvetica,sans-Serif" font-size="10.00" fill="#000000">&#45; monitorQuit()</text>
<text text-anchor="start" x="224.9336" y="-46.5" font-family="Helvetica,sans-Serif" font-size="10.00" fill="#000000">&#45; interpretButtonClicked()</text>
<text text-anchor="start" x="224.9336" y="-36.5" font-family="Helvetica,sans-Serif" font-size="10.00" fill="#000000">&#45; interpretQuit()</text>
<text text-anchor="start" x="224.9336" y="-26.5" font-family="Helvetica,sans-Serif" font-size="10.00" fill="#000000">&#45; trainButtonClicked()</text>
<text text-anchor="start" x="224.9336" y="-16.5" font-family="Helvetica,sans-Serif" font-size="10.00" fill="#000000">&#45; trainQuit()</text>
<text text-anchor="start" x="224.9336" y="-6.5" font-family="Helvetica,sans-Serif" font-size="10.00" fill="#000000">&#45; but_quit_clicked()</text>
</a>
</g>
</g>
<!-- Node3 -->
<g id="node2" class="node">
<title>Node3</title>
<g id="a_node2"><a xlink:title=" ">
<polygon fill="#ffffff" stroke="#bfbfbf" points="0,-386.5 0,-440.5 81.0195,-440.5 81.0195,-386.5 0,-386.5"/>
<text text-anchor="middle" x="40.5098" y="-428.5" font-family="Helvetica,sans-Serif" font-size="10.00" fill="#000000">QMainWindow</text>
<polyline fill="none" stroke="#bfbfbf" points="0,-422.5 81.0195,-422.5 "/>
<text text-anchor="middle" x="40.5098" y="-410.5" font-family="Helvetica,sans-Serif" font-size="10.00" fill="#000000"> </text>
<polyline fill="none" stroke="#bfbfbf" points="0,-404.5 81.0195,-404.5 "/>
<text text-anchor="middle" x="40.5098" y="-392.5" font-family="Helvetica,sans-Serif" font-size="10.00" fill="#000000"> </text>
</a>
</g>
</g>
<!-- Node3&#45;&gt;Node2 -->
<g id="edge1" class="edge">
<title>Node3&#45;&gt;Node2</title>
<path fill="none" stroke="#191970" d="M52.3677,-376.9683C60.8739,-353.9137 73.7798,-324.2131 90.5098,-301 125.7687,-252.0776 176.6779,-206.5042 216.9259,-174.3525"/>
<polygon fill="none" stroke="#191970" points="49.0652,-375.8091 48.9932,-386.4037 55.6564,-378.1664 49.0652,-375.8091"/>
</g>
<!-- Node4 -->
<g id="node3" class="node">
<title>Node4</title>
<g id="a_node3"><a xlink:href="class_monitor_window.html" target="_top" xlink:title="Monitor Window Class.">
<polygon fill="#ffffff" stroke="#000000" points="99.4951,-301.5 99.4951,-525.5 205.5244,-525.5 205.5244,-301.5 99.4951,-301.5"/>
<text text-anchor="middle" x="152.5098" y="-513.5" font-family="Helvetica,sans-Serif" font-size="10.00" fill="#000000">MonitorWindow</text>
<polyline fill="none" stroke="#000000" points="99.4951,-507.5 205.5244,-507.5 "/>
<text text-anchor="start" x="107.4951" y="-495.5" font-family="Helvetica,sans-Serif" font-size="10.00" fill="#000000">&#45; bufferSize</text>
<text text-anchor="start" x="107.4951" y="-485.5" font-family="Helvetica,sans-Serif" font-size="10.00" fill="#000000">&#45; sensorDataPtr</text>
<text text-anchor="start" x="107.4951" y="-475.5" font-family="Helvetica,sans-Serif" font-size="10.00" fill="#000000">&#45; xAxisData</text>
<text text-anchor="start" x="107.4951" y="-465.5" font-family="Helvetica,sans-Serif" font-size="10.00" fill="#000000">&#45; resetButton</text>
<text text-anchor="start" x="107.4951" y="-455.5" font-family="Helvetica,sans-Serif" font-size="10.00" fill="#000000">&#45; closeButton</text>
<text text-anchor="start" x="107.4951" y="-445.5" font-family="Helvetica,sans-Serif" font-size="10.00" fill="#000000">&#45; accelerometerPlot</text>
<text text-anchor="start" x="107.4951" y="-435.5" font-family="Helvetica,sans-Serif" font-size="10.00" fill="#000000">&#45; gyroPlot</text>
<text text-anchor="start" x="107.4951" y="-425.5" font-family="Helvetica,sans-Serif" font-size="10.00" fill="#000000">&#45; fingerPlot</text>
<text text-anchor="start" x="107.4951" y="-415.5" font-family="Helvetica,sans-Serif" font-size="10.00" fill="#000000">&#45; mainLayout</text>
<text text-anchor="start" x="107.4951" y="-405.5" font-family="Helvetica,sans-Serif" font-size="10.00" fill="#000000">&#45; vPlotLayout</text>
<text text-anchor="start" x="107.4951" y="-395.5" font-family="Helvetica,sans-Serif" font-size="10.00" fill="#000000">and 8 more...</text>
<polyline fill="none" stroke="#000000" points="99.4951,-389.5 205.5244,-389.5 "/>
<text text-anchor="start" x="107.4951" y="-377.5" font-family="Helvetica,sans-Serif" font-size="10.00" fill="#000000">+ MonitorWindow()</text>
<text text-anchor="start" x="107.4951" y="-367.5" font-family="Helvetica,sans-Serif" font-size="10.00" fill="#000000">+ ~MonitorWindow()</text>
<text text-anchor="start" x="107.4951" y="-357.5" font-family="Helvetica,sans-Serif" font-size="10.00" fill="#000000">+ plotAcc()</text>
<text text-anchor="start" x="107.4951" y="-347.5" font-family="Helvetica,sans-Serif" font-size="10.00" fill="#000000">+ plotGyro()</text>
<text text-anchor="start" x="107.4951" y="-337.5" font-family="Helvetica,sans-Serif" font-size="10.00" fill="#000000">+ plotFinger()</text>
<text text-anchor="start" x="107.4951" y="-327.5" font-family="Helvetica,sans-Serif" font-size="10.00" fill="#000000">+ drawPlots()</text>
<text text-anchor="start" x="107.4951" y="-317.5" font-family="Helvetica,sans-Serif" font-size="10.00" fill="#000000">+ resetbutton()</text>
<text text-anchor="start" x="107.4951" y="-307.5" font-family="Helvetica,sans-Serif" font-size="10.00" fill="#000000">+ handleSamples()</text>
</a>
</g>
</g>
<!-- Node4&#45;&gt;Node2 -->
<g id="edge2" class="edge">
<title>Node4&#45;&gt;Node2</title>
<path fill="none" stroke="#404040" d="M189.7874,-301.2732C193.5459,-291.6325 197.4669,-282.0952 201.4902,-273 204.6177,-265.9299 207.9602,-258.7395 211.4381,-251.5321"/>
<polygon fill="none" stroke="#404040" points="211.5199,-251.3652 210.5744,-244.2164 216.8097,-240.594 217.7552,-247.7429 211.5199,-251.3652"/>
<text text-anchor="middle" x="239.0195" y="-275" font-family="Helvetica,sans-Serif" font-size="10.00" fill="#000000"> &#45;monitorWindow</text>
</g>
<!-- Node5 -->
<g id="node4" class="node">
<title>Node5</title>
<g id="a_node4"><a xlink:title=" ">
<polygon fill="#ffffff" stroke="#bfbfbf" points="163.0591,-652.5 163.0591,-706.5 217.9604,-706.5 217.9604,-652.5 163.0591,-652.5"/>
<text text-anchor="middle" x="190.5098" y="-694.5" font-family="Helvetica,sans-Serif" font-size="10.00" fill="#000000">QWidget</text>
<polyline fill="none" stroke="#bfbfbf" points="163.0591,-688.5 217.9604,-688.5 "/>
<text text-anchor="middle" x="190.5098" y="-676.5" font-family="Helvetica,sans-Serif" font-size="10.00" fill="#000000"> </text>
<polyline fill="none" stroke="#bfbfbf" points="163.0591,-670.5 217.9604,-670.5 "/>
<text text-anchor="middle" x="190.5098" y="-658.5" font-family="Helvetica,sans-Serif" font-size="10.00" fill="#000000"> </text>
</a>
</g>
</g>
<!-- Node5&#45;&gt;Node4 -->
<g id="edge3" class="edge">
<title>Node5&#45;&gt;Node4</title>
<path fill="none" stroke="#191970" d="M185.1389,-641.9037C180.7998,-611.53 174.4585,-567.1413 168.5176,-525.5551"/>
<polygon fill="none" stroke="#191970" points="181.7071,-642.6307 186.5862,-652.0352 188.6367,-641.6407 181.7071,-642.6307"/>
</g>
<!-- Node7 -->
<g id="node6" class="node">
<title>Node7</title>
<g id="a_node6"><a xlink:href="class_train_window.html" target="_top" xlink:title="Training Window Class.">
<polygon fill="#ffffff" stroke="#000000" points="355.4966,-301.5 355.4966,-525.5 493.5229,-525.5 493.5229,-301.5 355.4966,-301.5"/>
<text text-anchor="middle" x="424.5098" y="-513.5" font-family="Helvetica,sans-Serif" font-size="10.00" fill="#000000">TrainWindow</text>
<polyline fill="none" stroke="#000000" points="355.4966,-507.5 493.5229,-507.5 "/>
<text text-anchor="start" x="363.4966" y="-495.5" font-family="Helvetica,sans-Serif" font-size="10.00" fill="#000000">&#45; sensorDataptr</text>
<text text-anchor="start" x="363.4966" y="-485.5" font-family="Helvetica,sans-Serif" font-size="10.00" fill="#000000">&#45; gesture_count</text>
<text text-anchor="start" x="363.4966" y="-475.5" font-family="Helvetica,sans-Serif" font-size="10.00" fill="#000000">&#45; inputGroup</text>
<text text-anchor="start" x="363.4966" y="-465.5" font-family="Helvetica,sans-Serif" font-size="10.00" fill="#000000">&#45; trainGroup</text>
<text text-anchor="start" x="363.4966" y="-455.5" font-family="Helvetica,sans-Serif" font-size="10.00" fill="#000000">&#45; netGroup</text>
<text text-anchor="start" x="363.4966" y="-445.5" font-family="Helvetica,sans-Serif" font-size="10.00" fill="#000000">&#45; movementList</text>
<text text-anchor="start" x="363.4966" y="-435.5" font-family="Helvetica,sans-Serif" font-size="10.00" fill="#000000">&#45; mainLayout</text>
<text text-anchor="start" x="363.4966" y="-425.5" font-family="Helvetica,sans-Serif" font-size="10.00" fill="#000000">&#45; homeLayout</text>
<text text-anchor="start" x="363.4966" y="-415.5" font-family="Helvetica,sans-Serif" font-size="10.00" fill="#000000">&#45; lightBox</text>
<text text-anchor="start" x="363.4966" y="-405.5" font-family="Helvetica,sans-Serif" font-size="10.00" fill="#000000">&#45; inputLayout</text>
<text text-anchor="start" x="363.4966" y="-395.5" font-family="Helvetica,sans-Serif" font-size="10.00" fill="#000000">and 16 more...</text>
<polyline fill="none" stroke="#000000" points="355.4966,-389.5 493.5229,-389.5 "/>
<text text-anchor="start" x="363.4966" y="-377.5" font-family="Helvetica,sans-Serif" font-size="10.00" fill="#000000">+ TrainWindow()</text>
<text text-anchor="start" x="363.4966" y="-367.5" font-family="Helvetica,sans-Serif" font-size="10.00" fill="#000000">+ ~TrainWindow()</text>
<text text-anchor="start" x="363.4966" y="-357.5" font-family="Helvetica,sans-Serif" font-size="10.00" fill="#000000">+ handleSamples()</text>
<text text-anchor="start" x="363.4966" y="-347.5" font-family="Helvetica,sans-Serif" font-size="10.00" fill="#000000">+ startNeuralNet()</text>
<text text-anchor="start" x="363.4966" y="-337.5" font-family="Helvetica,sans-Serif" font-size="10.00" fill="#000000">+ data_aq_state_machine()</text>
<text text-anchor="start" x="363.4966" y="-327.5" font-family="Helvetica,sans-Serif" font-size="10.00" fill="#000000">+ closeWindow()</text>
<text text-anchor="start" x="363.4966" y="-317.5" font-family="Helvetica,sans-Serif" font-size="10.00" fill="#000000">&#45; trainingDataLoop()</text>
<text text-anchor="start" x="363.4966" y="-307.5" font-family="Helvetica,sans-Serif" font-size="10.00" fill="#000000">&#45; saveMovement()</text>
</a>
</g>
</g>
<!-- Node5&#45;&gt;Node7 -->
<g id="edge6" class="edge">
<title>Node5&#45;&gt;Node7</title>
<path fill="none" stroke="#191970" d="M201.4565,-642.517C207.4722,-626.0244 216.0716,-606.9814 227.5098,-592 248.4446,-564.58 257.9709,-560.0469 288.5098,-544 312.4027,-531.4453 324.7442,-541.9611 346.5098,-526 349.5763,-523.7513 352.5641,-521.3442 355.4712,-518.8073"/>
<polygon fill="none" stroke="#191970" points="198.0004,-641.8027 198.0425,-652.3974 204.6165,-644.0888 198.0004,-641.8027"/>
</g>
<!-- Node18 -->
<g id="node17" class="node">
<title>Node18</title>
<g id="a_node17"><a xlink:href="class_interpret_window.html" target="_top" xlink:title=" ">
<polygon fill="#ffffff" stroke="#000000" points="223.5962,-301.5 223.5962,-525.5 337.4233,-525.5 337.4233,-301.5 223.5962,-301.5"/>
<text text-anchor="middle" x="280.5098" y="-513.5" font-family="Helvetica,sans-Serif" font-size="10.00" fill="#000000">InterpretWindow</text>
<polyline fill="none" stroke="#000000" points="223.5962,-507.5 337.4233,-507.5 "/>
<text text-anchor="start" x="231.5962" y="-495.5" font-family="Helvetica,sans-Serif" font-size="10.00" fill="#000000">&#45; sensorValuesPtr</text>
<text text-anchor="start" x="231.5962" y="-485.5" font-family="Helvetica,sans-Serif" font-size="10.00" fill="#000000">&#45; loudspeakerIcon</text>
<text text-anchor="start" x="231.5962" y="-475.5" font-family="Helvetica,sans-Serif" font-size="10.00" fill="#000000">&#45; homeButton</text>
<text text-anchor="start" x="231.5962" y="-465.5" font-family="Helvetica,sans-Serif" font-size="10.00" fill="#000000">&#45; predictedWordBox</text>
<text text-anchor="start" x="231.5962" y="-455.5" font-family="Helvetica,sans-Serif" font-size="10.00" fill="#000000">&#45; soundCheckBox</text>
<text text-anchor="start" x="231.5962" y="-445.5" font-family="Helvetica,sans-Serif" font-size="10.00" fill="#000000">&#45; outputWeightBars</text>
<text text-anchor="start" x="231.5962" y="-435.5" font-family="Helvetica,sans-Serif" font-size="10.00" fill="#000000">&#45; updateWeightsTimer</text>
<text text-anchor="start" x="231.5962" y="-425.5" font-family="Helvetica,sans-Serif" font-size="10.00" fill="#000000">&#45; speakerTimer</text>
<text text-anchor="start" x="231.5962" y="-415.5" font-family="Helvetica,sans-Serif" font-size="10.00" fill="#000000">&#45; soundLayout</text>
<text text-anchor="start" x="231.5962" y="-405.5" font-family="Helvetica,sans-Serif" font-size="10.00" fill="#000000">&#45; homeLayout</text>
<text text-anchor="start" x="231.5962" y="-395.5" font-family="Helvetica,sans-Serif" font-size="10.00" fill="#000000">and 20 more...</text>
<polyline fill="none" stroke="#000000" points="223.5962,-389.5 337.4233,-389.5 "/>
<text text-anchor="start" x="231.5962" y="-377.5" font-family="Helvetica,sans-Serif" font-size="10.00" fill="#000000">+ InterpretWindow()</text>
<text text-anchor="start" x="231.5962" y="-367.5" font-family="Helvetica,sans-Serif" font-size="10.00" fill="#000000">+ ~InterpretWindow()</text>
<text text-anchor="start" x="231.5962" y="-357.5" font-family="Helvetica,sans-Serif" font-size="10.00" fill="#000000">+ sayWords()</text>
<text text-anchor="start" x="231.5962" y="-347.5" font-family="Helvetica,sans-Serif" font-size="10.00" fill="#000000">+ closeWindow()</text>
<text text-anchor="start" x="231.5962" y="-337.5" font-family="Helvetica,sans-Serif" font-size="10.00" fill="#000000">+ handleSamples()</text>
<text text-anchor="start" x="231.5962" y="-327.5" font-family="Helvetica,sans-Serif" font-size="10.00" fill="#000000">+ speaker()</text>
<text text-anchor="start" x="231.5962" y="-317.5" font-family="Helvetica,sans-Serif" font-size="10.00" fill="#000000">+ updateWeights()</text>
<text text-anchor="start" x="231.5962" y="-307.5" font-family="Helvetica,sans-Serif" font-size="10.00" fill="#000000">&#45; predict()</text>
</a>
</g>
</g>
<!-- Node5&#45;&gt;Node18 -->
<g id="edge19" class="edge">
<title>Node5&#45;&gt;Node18</title>
<path fill="none" stroke="#191970" d="M200.2123,-642.3362C207.6028,-614.9475 218.3741,-576.8964 229.5098,-544 231.5376,-538.0094 233.6796,-531.8896 235.8917,-525.7286"/>
<polygon fill="none" stroke="#191970" points="196.7559,-641.7132 197.5516,-652.2781 203.5179,-643.5229 196.7559,-641.7132"/>
</g>
<!-- Node6 -->
<g id="node5" class="node">
<title>Node6</title>
<g id="a_node5"><a xlink:href="struct_monitor_window_1_1_curve.html" target="_top" xlink:title="CurveStruct data structure.">
<polygon fill="#ffffff" stroke="#000000" points="27.9385,-592.5 27.9385,-766.5 145.0811,-766.5 145.0811,-592.5 27.9385,-592.5"/>
<text text-anchor="middle" x="86.5098" y="-754.5" font-family="Helvetica,sans-Serif" font-size="10.00" fill="#000000">MonitorWindow::Curve</text>
<polyline fill="none" stroke="#000000" points="27.9385,-748.5 145.0811,-748.5 "/>
<text text-anchor="start" x="35.9385" y="-736.5" font-family="Helvetica,sans-Serif" font-size="10.00" fill="#000000">+ buffsize</text>
<text text-anchor="start" x="35.9385" y="-726.5" font-family="Helvetica,sans-Serif" font-size="10.00" fill="#000000">+ plot</text>
<text text-anchor="start" x="35.9385" y="-716.5" font-family="Helvetica,sans-Serif" font-size="10.00" fill="#000000">+ xAxisData</text>
<text text-anchor="start" x="35.9385" y="-706.5" font-family="Helvetica,sans-Serif" font-size="10.00" fill="#000000">+ data</text>
<text text-anchor="start" x="35.9385" y="-696.5" font-family="Helvetica,sans-Serif" font-size="10.00" fill="#000000">+ curve</text>
<text text-anchor="start" x="35.9385" y="-686.5" font-family="Helvetica,sans-Serif" font-size="10.00" fill="#000000">+ checkbox</text>
<polyline fill="none" stroke="#000000" points="27.9385,-680.5 145.0811,-680.5 "/>
<text text-anchor="start" x="35.9385" y="-668.5" font-family="Helvetica,sans-Serif" font-size="10.00" fill="#000000">+ Curve()</text>
<text text-anchor="start" x="35.9385" y="-658.5" font-family="Helvetica,sans-Serif" font-size="10.00" fill="#000000">+ ~Curve()</text>
<text text-anchor="start" x="35.9385" y="-648.5" font-family="Helvetica,sans-Serif" font-size="10.00" fill="#000000">+ updateCurve()</text>
<text text-anchor="start" x="35.9385" y="-638.5" font-family="Helvetica,sans-Serif" font-size="10.00" fill="#000000">+ resetCurve()</text>
<text text-anchor="start" x="35.9385" y="-628.5" font-family="Helvetica,sans-Serif" font-size="10.00" fill="#000000">+ attach()</text>
<text text-anchor="start" x="35.9385" y="-618.5" font-family="Helvetica,sans-Serif" font-size="10.00" fill="#000000">+ setupCurve()</text>
<text text-anchor="start" x="35.9385" y="-608.5" font-family="Helvetica,sans-Serif" font-size="10.00" fill="#000000">+ plotSample()</text>
<text text-anchor="start" x="35.9385" y="-598.5" font-family="Helvetica,sans-Serif" font-size="10.00" fill="#000000">+ plotSample()</text>
</a>
</g>
</g>
<!-- Node6&#45;&gt;Node4 -->
<g id="edge4" class="edge">
<title>Node6&#45;&gt;Node4</title>
<path fill="none" stroke="#404040" d="M108.1206,-592.4017C112.4897,-574.7931 117.1623,-555.961 121.7756,-537.3681"/>
<polygon fill="none" stroke="#404040" points="121.8257,-537.1658 119.3884,-530.3791 124.7156,-525.5189 127.1529,-532.3057 121.8257,-537.1658"/>
<text text-anchor="middle" x="133.6821" y="-566" font-family="Helvetica,sans-Serif" font-size="10.00" fill="#000000"> &#45;acc</text>
<text text-anchor="middle" x="133.6821" y="-556" font-family="Helvetica,sans-Serif" font-size="10.00" fill="#000000">&#45;finger</text>
<text text-anchor="middle" x="133.6821" y="-546" font-family="Helvetica,sans-Serif" font-size="10.00" fill="#000000">&#45;gyro</text>
</g>
<!-- Node7&#45;&gt;Node2 -->
<g id="edge5" class="edge">
<title>Node7&#45;&gt;Node2</title>
<path fill="none" stroke="#404040" d="M376.2505,-301.4517C371.724,-291.7726 367.1071,-282.1777 362.5098,-273 358.4915,-264.9785 354.2467,-256.7704 349.8888,-248.5382"/>
<polygon fill="none" stroke="#404040" points="349.761,-248.299 343.405,-244.8929 344.1043,-237.7158 350.4604,-241.1218 349.761,-248.299"/>
<text text-anchor="middle" x="397.0737" y="-275" font-family="Helvetica,sans-Serif" font-size="10.00" fill="#000000"> &#45;trainWindow</text>
</g>
<!-- Node8 -->
<g id="node7" class="node">
<title>Node8</title>
<g id="a_node7"><a xlink:href="class_q_led.html" target="_top" xlink:title="QLed Class.">
<polygon fill="#ffffff" stroke="#000000" points="390.5259,-642.5 390.5259,-716.5 458.4937,-716.5 458.4937,-642.5 390.5259,-642.5"/>
<text text-anchor="middle" x="424.5098" y="-704.5" font-family="Helvetica,sans-Serif" font-size="10.00" fill="#000000">QLed</text>
<polyline fill="none" stroke="#000000" points="390.5259,-698.5 458.4937,-698.5 "/>
<text text-anchor="middle" x="424.5098" y="-686.5" font-family="Helvetica,sans-Serif" font-size="10.00" fill="#000000"> </text>
<polyline fill="none" stroke="#000000" points="390.5259,-680.5 458.4937,-680.5 "/>
<text text-anchor="start" x="398.5259" y="-668.5" font-family="Helvetica,sans-Serif" font-size="10.00" fill="#000000">+ QLed()</text>
<text text-anchor="start" x="398.5259" y="-658.5" font-family="Helvetica,sans-Serif" font-size="10.00" fill="#000000">+ setState()</text>
<text text-anchor="start" x="398.5259" y="-648.5" font-family="Helvetica,sans-Serif" font-size="10.00" fill="#000000">+ ~QLed()</text>
</a>
</g>
</g>
<!-- Node8&#45;&gt;Node7 -->
<g id="edge7" class="edge">
<title>Node8&#45;&gt;Node7</title>
<path fill="none" stroke="#404040" d="M424.5098,-642.2338C424.5098,-614.8172 424.5098,-575.8547 424.5098,-537.8398"/>
<polygon fill="none" stroke="#404040" points="424.5099,-537.5464 420.5098,-531.5464 424.5098,-525.5464 428.5098,-531.5464 424.5099,-537.5464"/>
<text text-anchor="middle" x="434.2363" y="-556" font-family="Helvetica,sans-Serif" font-size="10.00" fill="#000000"> &#45;led</text>
</g>
<!-- Node9 -->
<g id="node8" class="node">
<title>Node9</title>
<g id="a_node8"><a xlink:title=" ">
<polygon fill="#ffffff" stroke="#bfbfbf" points="398.1748,-873.5 398.1748,-927.5 450.8447,-927.5 450.8447,-873.5 398.1748,-873.5"/>
<text text-anchor="middle" x="424.5098" y="-915.5" font-family="Helvetica,sans-Serif" font-size="10.00" fill="#000000">QFrame</text>
<polyline fill="none" stroke="#bfbfbf" points="398.1748,-909.5 450.8447,-909.5 "/>
<text text-anchor="middle" x="424.5098" y="-897.5" font-family="Helvetica,sans-Serif" font-size="10.00" fill="#000000"> </text>
<polyline fill="none" stroke="#bfbfbf" points="398.1748,-891.5 450.8447,-891.5 "/>
<text text-anchor="middle" x="424.5098" y="-879.5" font-family="Helvetica,sans-Serif" font-size="10.00" fill="#000000"> </text>
</a>
</g>
</g>
<!-- Node9&#45;&gt;Node8 -->
<g id="edge8" class="edge">
<title>Node9&#45;&gt;Node8</title>
<path fill="none" stroke="#191970" d="M424.5098,-863.3434C424.5098,-822.5957 424.5098,-757.5858 424.5098,-716.7865"/>
<polygon fill="none" stroke="#191970" points="421.0099,-863.401 424.5098,-873.4011 428.0099,-863.4011 421.0099,-863.401"/>
</g>
<!-- Node10 -->
<g id="node9" class="node">
<title>Node10</title>
<g id="a_node9"><a xlink:href="class_sample_timer.html" target="_top" xlink:title="Sample Timer Class.">
<polygon fill="#ffffff" stroke="#000000" points="647.1108,-356.5 647.1108,-470.5 755.9087,-470.5 755.9087,-356.5 647.1108,-356.5"/>
<text text-anchor="middle" x="701.5098" y="-458.5" font-family="Helvetica,sans-Serif" font-size="10.00" fill="#000000">SampleTimer</text>
<polyline fill="none" stroke="#000000" points="647.1108,-452.5 755.9087,-452.5 "/>
<text text-anchor="start" x="655.1108" y="-440.5" font-family="Helvetica,sans-Serif" font-size="10.00" fill="#000000">&#45; mtx</text>
<text text-anchor="start" x="655.1108" y="-430.5" font-family="Helvetica,sans-Serif" font-size="10.00" fill="#000000">&#45; sensorValues</text>
<polyline fill="none" stroke="#000000" points="647.1108,-424.5 755.9087,-424.5 "/>
<text text-anchor="start" x="655.1108" y="-412.5" font-family="Helvetica,sans-Serif" font-size="10.00" fill="#000000">+ SampleTimer()</text>
<text text-anchor="start" x="655.1108" y="-402.5" font-family="Helvetica,sans-Serif" font-size="10.00" fill="#000000">+ ~SampleTimer()</text>
<text text-anchor="start" x="655.1108" y="-392.5" font-family="Helvetica,sans-Serif" font-size="10.00" fill="#000000">+ timerEvent()</text>
<text text-anchor="start" x="655.1108" y="-382.5" font-family="Helvetica,sans-Serif" font-size="10.00" fill="#000000">+ testConnection()</text>
<text text-anchor="start" x="655.1108" y="-372.5" font-family="Helvetica,sans-Serif" font-size="10.00" fill="#000000">+ getSensorValues()</text>
<text text-anchor="start" x="655.1108" y="-362.5" font-family="Helvetica,sans-Serif" font-size="10.00" fill="#000000">&#45; readFromSensors()</text>
</a>
</g>
</g>
<!-- Node10&#45;&gt;Node2 -->
<g id="edge9" class="edge">
<title>Node10&#45;&gt;Node2</title>
<path fill="none" stroke="#404040" d="M646.903,-376.4037C572.1819,-325.6431 437.8385,-234.3789 354.242,-177.5889"/>
<polygon fill="none" stroke="#404040" points="354.2325,-177.5825 347.0217,-177.5196 344.3063,-170.8392 351.5172,-170.9021 354.2325,-177.5825"/>
<text text-anchor="middle" x="545.1714" y="-275" font-family="Helvetica,sans-Serif" font-size="10.00" fill="#000000"> &#45;cppSampleTimer</text>
</g>
<!-- Node11 -->
<g id="node10" class="node">
<title>Node11</title>
<g id="a_node10"><a xlink:title=" ">
<polygon fill="#ffffff" stroke="#bfbfbf" points="727.1699,-652.5 727.1699,-706.5 779.8496,-706.5 779.8496,-652.5 727.1699,-652.5"/>
<text text-anchor="middle" x="753.5098" y="-694.5" font-family="Helvetica,sans-Serif" font-size="10.00" fill="#000000">QObject</text>
<polyline fill="none" stroke="#bfbfbf" points="727.1699,-688.5 779.8496,-688.5 "/>
<text text-anchor="middle" x="753.5098" y="-676.5" font-family="Helvetica,sans-Serif" font-size="10.00" fill="#000000"> </text>
<polyline fill="none" stroke="#bfbfbf" points="727.1699,-670.5 779.8496,-670.5 "/>
<text text-anchor="middle" x="753.5098" y="-658.5" font-family="Helvetica,sans-Serif" font-size="10.00" fill="#000000"> </text>
</a>
</g>
</g>
<!-- Node11&#45;&gt;Node10 -->
<g id="edge10" class="edge">
<title>Node11&#45;&gt;Node10</title>
<path fill="none" stroke="#191970" d="M746.2163,-642.1911C737.4951,-597.5791 722.8063,-522.4401 712.6586,-470.5305"/>
<polygon fill="none" stroke="#191970" points="742.7871,-642.8925 748.1407,-652.0352 749.657,-641.5494 742.7871,-642.8925"/>
</g>
<!-- Node12 -->
<g id="node11" class="node">
<title>Node12</title>
<g id="a_node11"><a xlink:title=" ">
<polygon fill="#ffffff" stroke="#bfbfbf" points="797.7446,-652.5 797.7446,-706.5 857.2749,-706.5 857.2749,-652.5 797.7446,-652.5"/>
<text text-anchor="middle" x="827.5098" y="-694.5" font-family="Helvetica,sans-Serif" font-size="10.00" fill="#000000">CppTimer</text>
<polyline fill="none" stroke="#bfbfbf" points="797.7446,-688.5 857.2749,-688.5 "/>
<text text-anchor="middle" x="827.5098" y="-676.5" font-family="Helvetica,sans-Serif" font-size="10.00" fill="#000000"> </text>
<polyline fill="none" stroke="#bfbfbf" points="797.7446,-670.5 857.2749,-670.5 "/>
<text text-anchor="middle" x="827.5098" y="-658.5" font-family="Helvetica,sans-Serif" font-size="10.00" fill="#000000"> </text>
</a>
</g>
</g>
<!-- Node12&#45;&gt;Node10 -->
<g id="edge11" class="edge">
<title>Node12&#45;&gt;Node10</title>
<path fill="none" stroke="#191970" d="M811.4956,-642.8209C804.5518,-627.1143 796.2524,-608.6014 788.5098,-592 769.4938,-551.2272 747.2573,-505.6384 730.0252,-470.7388"/>
<polygon fill="none" stroke="#191970" points="808.3914,-644.4562 815.6269,-652.1957 814.797,-641.6334 808.3914,-644.4562"/>
</g>
<!-- Node13 -->
<g id="node12" class="node">
<title>Node13</title>
<g id="a_node12"><a xlink:href="class_m_p_u6050.html" target="_top" xlink:title=" ">
<polygon fill="#ffffff" stroke="#000000" points="875.0161,-597.5 875.0161,-761.5 1008.0034,-761.5 1008.0034,-597.5 875.0161,-597.5"/>
<text text-anchor="middle" x="941.5098" y="-749.5" font-family="Helvetica,sans-Serif" font-size="10.00" fill="#000000">MPU6050</text>
<polyline fill="none" stroke="#000000" points="875.0161,-743.5 1008.0034,-743.5 "/>
<text text-anchor="start" x="883.0161" y="-731.5" font-family="Helvetica,sans-Serif" font-size="10.00" fill="#000000">&#45; devAddr</text>
<text text-anchor="start" x="883.0161" y="-721.5" font-family="Helvetica,sans-Serif" font-size="10.00" fill="#000000">&#45; buffer</text>
<polyline fill="none" stroke="#000000" points="875.0161,-715.5 1008.0034,-715.5 "/>
<text text-anchor="start" x="883.0161" y="-703.5" font-family="Helvetica,sans-Serif" font-size="10.00" fill="#000000">+ MPU6050()</text>
<text text-anchor="start" x="883.0161" y="-693.5" font-family="Helvetica,sans-Serif" font-size="10.00" fill="#000000">+ MPU6050()</text>
<text text-anchor="start" x="883.0161" y="-683.5" font-family="Helvetica,sans-Serif" font-size="10.00" fill="#000000">+ initialize()</text>
<text text-anchor="start" x="883.0161" y="-673.5" font-family="Helvetica,sans-Serif" font-size="10.00" fill="#000000">+ testConnection()</text>
<text text-anchor="start" x="883.0161" y="-663.5" font-family="Helvetica,sans-Serif" font-size="10.00" fill="#000000">+ getAuxVDDIOLevel()</text>
<text text-anchor="start" x="883.0161" y="-653.5" font-family="Helvetica,sans-Serif" font-size="10.00" fill="#000000">+ setAuxVDDIOLevel()</text>
<text text-anchor="start" x="883.0161" y="-643.5" font-family="Helvetica,sans-Serif" font-size="10.00" fill="#000000">+ getRate()</text>
<text text-anchor="start" x="883.0161" y="-633.5" font-family="Helvetica,sans-Serif" font-size="10.00" fill="#000000">+ setRate()</text>
<text text-anchor="start" x="883.0161" y="-623.5" font-family="Helvetica,sans-Serif" font-size="10.00" fill="#000000">+ getExternalFrameSync()</text>
<text text-anchor="start" x="883.0161" y="-613.5" font-family="Helvetica,sans-Serif" font-size="10.00" fill="#000000">+ setExternalFrameSync()</text>
<text text-anchor="start" x="883.0161" y="-603.5" font-family="Helvetica,sans-Serif" font-size="10.00" fill="#000000">and 250 more...</text>
</a>
</g>
</g>
<!-- Node13&#45;&gt;Node10 -->
<g id="edge12" class="edge">
<title>Node13&#45;&gt;Node10</title>
<path fill="none" stroke="#404040" d="M875.0035,-601.6034C872.1435,-598.3505 869.3035,-595.1383 866.5098,-592 833.1667,-554.5441 795.2272,-513.4013 764.1424,-480.0644"/>
<polygon fill="none" stroke="#404040" points="763.7553,-479.6497 756.7369,-477.9937 755.5662,-470.8782 762.5846,-472.5343 763.7553,-479.6497"/>
<text text-anchor="middle" x="882.4136" y="-556" font-family="Helvetica,sans-Serif" font-size="10.00" fill="#000000"> &#45;motionSensor</text>
</g>
<!-- Node14 -->
<g id="node13" class="node">
<title>Node14</title>
<g id="a_node13"><a xlink:href="class_i2_cdev.html" target="_top" xlink:title=" ">
<polygon fill="#ffffff" stroke="#000000" points="818.2686,-813.5 818.2686,-987.5 898.751,-987.5 898.751,-813.5 818.2686,-813.5"/>
<text text-anchor="middle" x="858.5098" y="-975.5" font-family="Helvetica,sans-Serif" font-size="10.00" fill="#000000">I2Cdev</text>
<polyline fill="none" stroke="#000000" points="818.2686,-969.5 898.751,-969.5 "/>
<text text-anchor="start" x="826.2686" y="-957.5" font-family="Helvetica,sans-Serif" font-size="10.00" fill="#000000">+ readTimeout</text>
<polyline fill="none" stroke="#000000" points="818.2686,-951.5 898.751,-951.5 "/>
<text text-anchor="start" x="826.2686" y="-939.5" font-family="Helvetica,sans-Serif" font-size="10.00" fill="#000000">+ I2Cdev()</text>
<text text-anchor="start" x="826.2686" y="-929.5" font-family="Helvetica,sans-Serif" font-size="10.00" fill="#000000">+ I2Cdev()</text>
<text text-anchor="start" x="826.2686" y="-919.5" font-family="Helvetica,sans-Serif" font-size="10.00" fill="#000000">+ readBit()</text>
<text text-anchor="start" x="826.2686" y="-909.5" font-family="Helvetica,sans-Serif" font-size="10.00" fill="#000000">+ readBitW()</text>
<text text-anchor="start" x="826.2686" y="-899.5" font-family="Helvetica,sans-Serif" font-size="10.00" fill="#000000">+ readBits()</text>
<text text-anchor="start" x="826.2686" y="-889.5" font-family="Helvetica,sans-Serif" font-size="10.00" fill="#000000">+ readBitsW()</text>
<text text-anchor="start" x="826.2686" y="-879.5" font-family="Helvetica,sans-Serif" font-size="10.00" fill="#000000">+ readByte()</text>
<text text-anchor="start" x="826.2686" y="-869.5" font-family="Helvetica,sans-Serif" font-size="10.00" fill="#000000">+ readWord()</text>
<text text-anchor="start" x="826.2686" y="-859.5" font-family="Helvetica,sans-Serif" font-size="10.00" fill="#000000">+ readBytes()</text>
<text text-anchor="start" x="826.2686" y="-849.5" font-family="Helvetica,sans-Serif" font-size="10.00" fill="#000000">+ readWords()</text>
<text text-anchor="start" x="826.2686" y="-839.5" font-family="Helvetica,sans-Serif" font-size="10.00" fill="#000000">+ writeBit()</text>
<text text-anchor="start" x="826.2686" y="-829.5" font-family="Helvetica,sans-Serif" font-size="10.00" fill="#000000">+ writeBitW()</text>
<text text-anchor="start" x="826.2686" y="-819.5" font-family="Helvetica,sans-Serif" font-size="10.00" fill="#000000">and 26 more...</text>
</a>
</g>
</g>
<!-- Node14&#45;&gt;Node13 -->
<g id="edge13" class="edge">
<title>Node14&#45;&gt;Node13</title>
<path fill="none" stroke="#404040" d="M891.1944,-813.4722C896.1416,-800.2995 901.264,-786.6603 906.2626,-773.3509"/>
<polygon fill="none" stroke="#404040" points="906.3967,-772.9936 904.7617,-765.9703 910.6158,-761.7597 912.2509,-768.783 906.3967,-772.9936"/>
<text text-anchor="middle" x="910.2104" y="-787" font-family="Helvetica,sans-Serif" font-size="10.00" fill="#000000"> +i2c</text>
</g>
<!-- Node16 -->
<g id="node15" class="node">
<title>Node16</title>
<g id="a_node15"><a xlink:href="class_m_c_p3428.html" target="_top" xlink:title=" ">
<polygon fill="#ffffff" stroke="#000000" points="589.9497,-602.5 589.9497,-756.5 709.0698,-756.5 709.0698,-602.5 589.9497,-602.5"/>
<text text-anchor="middle" x="649.5098" y="-744.5" font-family="Helvetica,sans-Serif" font-size="10.00" fill="#000000">MCP3428</text>
<polyline fill="none" stroke="#000000" points="589.9497,-738.5 709.0698,-738.5 "/>
<text text-anchor="start" x="597.9497" y="-726.5" font-family="Helvetica,sans-Serif" font-size="10.00" fill="#000000">&#45; _slaveAddress</text>
<text text-anchor="start" x="597.9497" y="-716.5" font-family="Helvetica,sans-Serif" font-size="10.00" fill="#000000">&#45; _PGAgain</text>
<text text-anchor="start" x="597.9497" y="-706.5" font-family="Helvetica,sans-Serif" font-size="10.00" fill="#000000">&#45; _data</text>
<polyline fill="none" stroke="#000000" points="589.9497,-700.5 709.0698,-700.5 "/>
<text text-anchor="start" x="597.9497" y="-688.5" font-family="Helvetica,sans-Serif" font-size="10.00" fill="#000000">+ MCP3428()</text>
<text text-anchor="start" x="597.9497" y="-678.5" font-family="Helvetica,sans-Serif" font-size="10.00" fill="#000000">+ ~MCP3428()</text>
<text text-anchor="start" x="597.9497" y="-668.5" font-family="Helvetica,sans-Serif" font-size="10.00" fill="#000000">+ setConfig()</text>
<text text-anchor="start" x="597.9497" y="-658.5" font-family="Helvetica,sans-Serif" font-size="10.00" fill="#000000">+ readConfig()</text>
<text text-anchor="start" x="597.9497" y="-648.5" font-family="Helvetica,sans-Serif" font-size="10.00" fill="#000000">+ readChannel()</text>
<text text-anchor="start" x="597.9497" y="-638.5" font-family="Helvetica,sans-Serif" font-size="10.00" fill="#000000">+ readChannelScaled()</text>
<text text-anchor="start" x="597.9497" y="-628.5" font-family="Helvetica,sans-Serif" font-size="10.00" fill="#000000">&#45; __attribute__()</text>
<text text-anchor="start" x="597.9497" y="-618.5" font-family="Helvetica,sans-Serif" font-size="10.00" fill="#000000">&#45; _writeConfig()</text>
<text text-anchor="start" x="597.9497" y="-608.5" font-family="Helvetica,sans-Serif" font-size="10.00" fill="#000000">&#45; _setChannel()</text>
</a>
</g>
</g>
<!-- Node14&#45;&gt;Node16 -->
<g id="edge17" class="edge">
<title>Node14&#45;&gt;Node16</title>
<path fill="none" stroke="#404040" d="M818.1278,-864.8061C789.3408,-838.6993 750.273,-801.8952 718.5098,-767 718.0214,-766.4635 717.5326,-765.9239 717.0434,-765.3815"/>
<polygon fill="none" stroke="#404040" points="717.0401,-765.3778 710.0716,-763.523 709.1035,-756.3772 716.072,-758.232 717.0401,-765.3778"/>
<text text-anchor="middle" x="752.9556" y="-787" font-family="Helvetica,sans-Serif" font-size="10.00" fill="#000000"> &#45;i2c</text>
</g>
<!-- Node15 -->
<g id="node14" class="node">
<title>Node15</title>
<g id="a_node14"><a xlink:href="class_filter.html" target="_top" xlink:title="A Filter wrapper class.">
<polygon fill="#ffffff" stroke="#000000" points="476.5757,-627.5 476.5757,-731.5 572.4438,-731.5 572.4438,-627.5 476.5757,-627.5"/>
<text text-anchor="middle" x="524.5098" y="-719.5" font-family="Helvetica,sans-Serif" font-size="10.00" fill="#000000">Filter</text>
<polyline fill="none" stroke="#000000" points="476.5757,-713.5 572.4438,-713.5 "/>
<text text-anchor="start" x="484.5757" y="-701.5" font-family="Helvetica,sans-Serif" font-size="10.00" fill="#000000"># sampleRate</text>
<text text-anchor="start" x="484.5757" y="-691.5" font-family="Helvetica,sans-Serif" font-size="10.00" fill="#000000"># cutoffFrequency</text>
<text text-anchor="start" x="484.5757" y="-681.5" font-family="Helvetica,sans-Serif" font-size="10.00" fill="#000000"># filterOrder</text>
<text text-anchor="start" x="484.5757" y="-671.5" font-family="Helvetica,sans-Serif" font-size="10.00" fill="#000000"># filt</text>
<polyline fill="none" stroke="#000000" points="476.5757,-665.5 572.4438,-665.5 "/>
<text text-anchor="start" x="484.5757" y="-653.5" font-family="Helvetica,sans-Serif" font-size="10.00" fill="#000000">+ Filter()</text>
<text text-anchor="start" x="484.5757" y="-643.5" font-family="Helvetica,sans-Serif" font-size="10.00" fill="#000000">+ setup()</text>
<text text-anchor="start" x="484.5757" y="-633.5" font-family="Helvetica,sans-Serif" font-size="10.00" fill="#000000">+ filter()</text>
</a>
</g>
</g>
<!-- Node15&#45;&gt;Node10 -->
<g id="edge14" class="edge">
<title>Node15&#45;&gt;Node10</title>
<path fill="none" stroke="#404040" d="M557.7467,-627.0704C565.1806,-615.4834 573.0683,-603.296 580.5098,-592 604.8677,-555.0252 632.5441,-514.1176 655.2743,-480.8021"/>
<polygon fill="none" stroke="#404040" points="655.3927,-480.6288 655.4735,-473.4181 662.1606,-470.7194 662.0797,-477.93 655.3927,-480.6288"/>
<text text-anchor="middle" x="624.5098" y="-556" font-family="Helvetica,sans-Serif" font-size="10.00" fill="#000000"> &#45;filters</text>
</g>
<!-- Node16&#45;&gt;Node10 -->
<g id="edge15" class="edge">
<title>Node16&#45;&gt;Node10</title>
<path fill="none" stroke="#404040" d="M660.5483,-602.2893C663.5666,-583.1885 667.0312,-562.8099 670.7168,-544 674.6458,-523.9477 679.5008,-502.3036 684.1848,-482.5169"/>
<polygon fill="none" stroke="#404040" points="684.1985,-482.4593 681.7049,-475.6931 686.9917,-470.7889 689.4852,-477.5552 684.1985,-482.4593"/>
<text text-anchor="middle" x="696.9063" y="-561" font-family="Helvetica,sans-Serif" font-size="10.00" fill="#000000"> &#45;flexThumb</text>
<text text-anchor="middle" x="696.9063" y="-551" font-family="Helvetica,sans-Serif" font-size="10.00" fill="#000000">&#45;flexFingers</text>
</g>
<!-- Node17 -->
<g id="node16" class="node">
<title>Node17</title>
<g id="a_node16"><a xlink:href="struct_m_c_p3428_1_1config_reg_struct.html" target="_top" xlink:title=" ">
<polygon fill="#ffffff" stroke="#000000" points="580.9238,-853.5 580.9238,-947.5 718.0957,-947.5 718.0957,-853.5 580.9238,-853.5"/>
<text text-anchor="middle" x="649.5098" y="-935.5" font-family="Helvetica,sans-Serif" font-size="10.00" fill="#000000">MCP3428::configRegStruct</text>
<polyline fill="none" stroke="#000000" points="580.9238,-929.5 718.0957,-929.5 "/>
<text text-anchor="start" x="588.9238" y="-917.5" font-family="Helvetica,sans-Serif" font-size="10.00" fill="#000000">+ gain</text>
<text text-anchor="start" x="588.9238" y="-907.5" font-family="Helvetica,sans-Serif" font-size="10.00" fill="#000000">+ resolution</text>
<text text-anchor="start" x="588.9238" y="-897.5" font-family="Helvetica,sans-Serif" font-size="10.00" fill="#000000">+ conversion_mode</text>
<text text-anchor="start" x="588.9238" y="-887.5" font-family="Helvetica,sans-Serif" font-size="10.00" fill="#000000">+ channel_select</text>
<text text-anchor="start" x="588.9238" y="-877.5" font-family="Helvetica,sans-Serif" font-size="10.00" fill="#000000">+ RDY_bar</text>
<polyline fill="none" stroke="#000000" points="580.9238,-871.5 718.0957,-871.5 "/>
<text text-anchor="middle" x="649.5098" y="-859.5" font-family="Helvetica,sans-Serif" font-size="10.00" fill="#000000"> </text>
</a>
</g>
</g>
<!-- Node17&#45;&gt;Node16 -->
<g id="edge16" class="edge">
<title>Node17&#45;&gt;Node16</title>
<path fill="none" stroke="#404040" d="M649.5098,-853.361C649.5098,-828.7363 649.5098,-797.771 649.5098,-768.8207"/>
<polygon fill="none" stroke="#404040" points="649.5099,-768.5612 645.5098,-762.5612 649.5098,-756.5612 653.5098,-762.5611 649.5099,-768.5612"/>
<text text-anchor="middle" x="677.8594" y="-787" font-family="Helvetica,sans-Serif" font-size="10.00" fill="#000000"> &#45;_configReg</text>
</g>
<!-- Node18&#45;&gt;Node2 -->
<g id="edge18" class="edge">
<title>Node18&#45;&gt;Node2</title>
<path fill="none" stroke="#404040" d="M280.5098,-301.2861C280.5098,-289.9036 280.5098,-278.248 280.5098,-266.6265"/>
<polygon fill="none" stroke="#404040" points="280.5099,-266.541 276.5098,-260.541 280.5098,-254.541 284.5098,-260.5409 280.5099,-266.541"/>
<text text-anchor="middle" x="319.6895" y="-275" font-family="Helvetica,sans-Serif" font-size="10.00" fill="#000000"> &#45;interpretWindow</text>
</g>
<!-- Node19 -->
<g id="node18" class="node">
<title>Node19</title>
<g id="a_node18"><a xlink:href="class_neural_net.html" target="_top" xlink:title=" ">
<polygon fill="#ffffff" stroke="#000000" points="236.0532,-627.5 236.0532,-731.5 372.9663,-731.5 372.9663,-627.5 236.0532,-627.5"/>
<text text-anchor="middle" x="304.5098" y="-719.5" font-family="Helvetica,sans-Serif" font-size="10.00" fill="#000000">NeuralNet</text>
<polyline fill="none" stroke="#000000" points="236.0532,-713.5 372.9663,-713.5 "/>
<text text-anchor="start" x="244.0532" y="-701.5" font-family="Helvetica,sans-Serif" font-size="10.00" fill="#000000">&#45; _model</text>
<text text-anchor="start" x="244.0532" y="-691.5" font-family="Helvetica,sans-Serif" font-size="10.00" fill="#000000">&#45; netInputs</text>
<polyline fill="none" stroke="#000000" points="236.0532,-685.5 372.9663,-685.5 "/>
<text text-anchor="start" x="244.0532" y="-673.5" font-family="Helvetica,sans-Serif" font-size="10.00" fill="#000000">+ NeuralNet()</text>
<text text-anchor="start" x="244.0532" y="-663.5" font-family="Helvetica,sans-Serif" font-size="10.00" fill="#000000">+ ~NeuralNet()</text>
<text text-anchor="start" x="244.0532" y="-653.5" font-family="Helvetica,sans-Serif" font-size="10.00" fill="#000000">+ predict()</text>
<text text-anchor="start" x="244.0532" y="-643.5" font-family="Helvetica,sans-Serif" font-size="10.00" fill="#000000">+ insertSamples()</text>
<text text-anchor="start" x="244.0532" y="-633.5" font-family="Helvetica,sans-Serif" font-size="10.00" fill="#000000">+ get_number_of_outputs()</text>
</a>
</g>
</g>
<!-- Node19&#45;&gt;Node18 -->
<g id="edge20" class="edge">
<title>Node19&#45;&gt;Node18</title>
<path fill="none" stroke="#404040" d="M299.7968,-627.2643C297.4726,-601.5053 294.5616,-569.2413 291.7109,-537.6465"/>
<polygon fill="none" stroke="#404040" points="291.7011,-537.5366 287.1781,-531.9204 290.6227,-525.5852 295.1457,-531.2014 291.7011,-537.5366"/>
<text text-anchor="middle" x="318.0171" y="-556" font-family="Helvetica,sans-Serif" font-size="10.00" fill="#000000"> &#45;predictor</text>
</g>
</g>
</svg>
