<?xml version="1.0" encoding="UTF-8" standalone="no"?>
<!DOCTYPE svg PUBLIC "-//W3C//DTD SVG 1.1//EN"
 "http://www.w3.org/Graphics/SVG/1.1/DTD/svg11.dtd">
<!-- Generated by graphviz version 2.40.1 (20161225.0304)
 -->
<!-- Title: QLed Pages: 1 -->
<svg width="76pt" height="174pt"
 viewBox="0.00 0.00 75.97 174.00" xmlns="http://www.w3.org/2000/svg" xmlns:xlink="http://www.w3.org/1999/xlink">
<g id="graph0" class="graph" transform="scale(1 1) rotate(0) translate(4 170)">
<title>QLed</title>
<polygon fill="#ffffff" stroke="transparent" points="-4,4 -4,-170 71.9678,-170 71.9678,4 -4,4"/>
<!-- Node0 -->
<g id="node1" class="node">
<title>Node0</title>
<g id="a_node1"><a xlink:title="QLed Class.">
<polygon fill="#bfbfbf" stroke="#000000" points="0,-.5 0,-74.5 67.9678,-74.5 67.9678,-.5 0,-.5"/>
<text text-anchor="middle" x="33.9839" y="-62.5" font-family="Helvetica,sans-Serif" font-size="10.00" fill="#000000">QLed</text>
<polyline fill="none" stroke="#000000" points="0,-56.5 67.9678,-56.5 "/>
<text text-anchor="middle" x="33.9839" y="-44.5" font-family="Helvetica,sans-Serif" font-size="10.00" fill="#000000"> </text>
<polyline fill="none" stroke="#000000" points="0,-38.5 67.9678,-38.5 "/>
<text text-anchor="start" x="8" y="-26.5" font-family="Helvetica,sans-Serif" font-size="10.00" fill="#000000">+ QLed()</text>
<text text-anchor="start" x="8" y="-16.5" font-family="Helvetica,sans-Serif" font-size="10.00" fill="#000000">+ setState()</text>
<text text-anchor="start" x="8" y="-6.5" font-family="Helvetica,sans-Serif" font-size="10.00" fill="#000000">+ ~QLed()</text>
</a>
</g>
</g>
<!-- Node1 -->
<g id="node2" class="node">
<title>Node1</title>
<g id="a_node2"><a xlink:title=" ">
<polygon fill="#ffffff" stroke="#bfbfbf" points="7.6489,-111.5 7.6489,-165.5 60.3188,-165.5 60.3188,-111.5 7.6489,-111.5"/>
<text text-anchor="middle" x="33.9839" y="-153.5" font-family="Helvetica,sans-Serif" font-size="10.00" fill="#000000">QFrame</text>
<polyline fill="none" stroke="#bfbfbf" points="7.6489,-147.5 60.3188,-147.5 "/>
<text text-anchor="middle" x="33.9839" y="-135.5" font-family="Helvetica,sans-Serif" font-size="10.00" fill="#000000"> </text>
<polyline fill="none" stroke="#bfbfbf" points="7.6489,-129.5 60.3188,-129.5 "/>
<text text-anchor="middle" x="33.9839" y="-117.5" font-family="Helvetica,sans-Serif" font-size="10.00" fill="#000000"> </text>
</a>
</g>
</g>
<!-- Node1&#45;&gt;Node0 -->
<g id="edge1" class="edge">
<title>Node1&#45;&gt;Node0</title>
<path fill="none" stroke="#191970" d="M33.9839,-101.1725C33.9839,-92.4692 33.9839,-83.2047 33.9839,-74.515"/>
<polygon fill="none" stroke="#191970" points="30.484,-101.4338 33.9839,-111.4339 37.484,-101.4339 30.484,-101.4338"/>
</g>
</g>
</svg>
