<?xml version="1.0" encoding="UTF-8" standalone="no"?>
<!DOCTYPE svg PUBLIC "-//W3C//DTD SVG 1.1//EN"
 "http://www.w3.org/Graphics/SVG/1.1/DTD/svg11.dtd">
<!-- Generated by graphviz version 2.40.1 (20161225.0304)
 -->
<!-- Title: MonitorWindow Pages: 1 -->
<svg width="198pt" height="112pt"
 viewBox="0.00 0.00 198.02 112.00" xmlns="http://www.w3.org/2000/svg" xmlns:xlink="http://www.w3.org/1999/xlink">
<g id="graph0" class="graph" transform="scale(1 1) rotate(0) translate(4 108)">
<title>MonitorWindow</title>
<polygon fill="#ffffff" stroke="transparent" points="-4,4 -4,-108 194.022,-108 194.022,4 -4,4"/>
<!-- Node2 -->
<g id="node1" class="node">
<title>Node2</title>
<g id="a_node1"><a xlink:title="Monitor Window Class.">
<polygon fill="#bfbfbf" stroke="#000000" points="36.9951,-.5 36.9951,-18.5 121.9063,-18.5 121.9063,-.5 36.9951,-.5"/>
<text text-anchor="middle" x="79.4507" y="-6.5" font-family="Helvetica,sans-Serif" font-size="10.00" fill="#000000">MonitorWindow</text>
</a>
</g>
</g>
<!-- Node3 -->
<g id="node2" class="node">
<title>Node3</title>
<g id="a_node2"><a xlink:title=" ">
<polygon fill="#ffffff" stroke="#bfbfbf" points="0,-85.5 0,-103.5 54.9014,-103.5 54.9014,-85.5 0,-85.5"/>
<text text-anchor="middle" x="27.4507" y="-91.5" font-family="Helvetica,sans-Serif" font-size="10.00" fill="#000000">QWidget</text>
</a>
</g>
</g>
<!-- Node3&#45;&gt;Node2 -->
<g id="edge1" class="edge">
<title>Node3&#45;&gt;Node2</title>
<path fill="none" stroke="#191970" d="M38.4231,-76.5644C49.2952,-58.7926 65.5057,-32.2947 73.9258,-18.5311"/>
<polygon fill="#191970" stroke="#191970" points="35.2486,-75.0466 33.0156,-85.4035 41.2198,-78.6997 35.2486,-75.0466"/>
</g>
<!-- Node4 -->
<g id="node3" class="node">
<title>Node4</title>
<g id="a_node3"><a xlink:href="struct_monitor_window_1_1_curve.html" target="_top" xlink:title="CurveStruct data structure.">
<polygon fill="#ffffff" stroke="#000000" points="72.8794,-85.5 72.8794,-103.5 190.022,-103.5 190.022,-85.5 72.8794,-85.5"/>
<text text-anchor="middle" x="131.4507" y="-91.5" font-family="Helvetica,sans-Serif" font-size="10.00" fill="#000000">MonitorWindow::Curve</text>
</a>
</g>
</g>
<!-- Node4&#45;&gt;Node2 -->
<g id="edge2" class="edge">
<title>Node4&#45;&gt;Node2</title>
<path fill="none" stroke="#9a32cd" stroke-dasharray="5,2" d="M120.4783,-76.5644C109.6062,-58.7926 93.3957,-32.2947 84.9756,-18.5311"/>
<polygon fill="#9a32cd" stroke="#9a32cd" points="117.6815,-78.6997 125.8858,-85.4035 123.6528,-75.0466 117.6815,-78.6997"/>
<text text-anchor="middle" x="126.3472" y="-59" font-family="Helvetica,sans-Serif" font-size="10.00" fill="#000000"> finger</text>
<text text-anchor="middle" x="126.3472" y="-49" font-family="Helvetica,sans-Serif" font-size="10.00" fill="#000000">acc</text>
<text text-anchor="middle" x="126.3472" y="-39" font-family="Helvetica,sans-Serif" font-size="10.00" fill="#000000">gyro</text>
</g>
</g>
</svg>
