<?xml version="1.0" encoding="UTF-8" standalone="no"?>
<!DOCTYPE svg PUBLIC "-//W3C//DTD SVG 1.1//EN"
 "http://www.w3.org/Graphics/SVG/1.1/DTD/svg11.dtd">
<!-- Generated by graphviz version 2.40.1 (20161225.0304)
 -->
<!-- Title: FilterBank Pages: 1 -->
<svg width="123pt" height="284pt"
 viewBox="0.00 0.00 122.70 284.00" xmlns="http://www.w3.org/2000/svg" xmlns:xlink="http://www.w3.org/1999/xlink">
<g id="graph0" class="graph" transform="scale(1 1) rotate(0) translate(4 280)">
<title>FilterBank</title>
<polygon fill="#ffffff" stroke="transparent" points="-4,4 -4,-280 118.6968,-280 118.6968,4 -4,4"/>
<!-- Node1 -->
<g id="node1" class="node">
<title>Node1</title>
<g id="a_node1"><a xlink:title="A Filterbank class.">
<polygon fill="#bfbfbf" stroke="#000000" points="0,-.5 0,-124.5 96.0244,-124.5 96.0244,-.5 0,-.5"/>
<text text-anchor="middle" x="48.0122" y="-112.5" font-family="Helvetica,sans-Serif" font-size="10.00" fill="#000000">FilterBank</text>
<polyline fill="none" stroke="#000000" points="0,-106.5 96.0244,-106.5 "/>
<text text-anchor="start" x="8" y="-94.5" font-family="Helvetica,sans-Serif" font-size="10.00" fill="#000000"># numberOfFilters</text>
<text text-anchor="start" x="8" y="-84.5" font-family="Helvetica,sans-Serif" font-size="10.00" fill="#000000"># sampleRate</text>
<text text-anchor="start" x="8" y="-74.5" font-family="Helvetica,sans-Serif" font-size="10.00" fill="#000000"># filterOrder</text>
<text text-anchor="start" x="8" y="-64.5" font-family="Helvetica,sans-Serif" font-size="10.00" fill="#000000"># outputArray</text>
<polyline fill="none" stroke="#000000" points="0,-58.5 96.0244,-58.5 "/>
<text text-anchor="start" x="8" y="-46.5" font-family="Helvetica,sans-Serif" font-size="10.00" fill="#000000">+ FilterBank()</text>
<text text-anchor="start" x="8" y="-36.5" font-family="Helvetica,sans-Serif" font-size="10.00" fill="#000000">+ ~FilterBank()</text>
<text text-anchor="start" x="8" y="-26.5" font-family="Helvetica,sans-Serif" font-size="10.00" fill="#000000">+ filter()</text>
<text text-anchor="start" x="8" y="-16.5" font-family="Helvetica,sans-Serif" font-size="10.00" fill="#000000">+ getArray()</text>
<text text-anchor="start" x="8" y="-6.5" font-family="Helvetica,sans-Serif" font-size="10.00" fill="#000000">+ setup()</text>
</a>
</g>
</g>
<!-- Node2 -->
<g id="node2" class="node">
<title>Node2</title>
<g id="a_node2"><a xlink:href="class_filter.html" target="_top" xlink:title="A Filter wrapper class.">
<polygon fill="#ffffff" stroke="#000000" points=".0781,-171.5 .0781,-275.5 95.9463,-275.5 95.9463,-171.5 .0781,-171.5"/>
<text text-anchor="middle" x="48.0122" y="-263.5" font-family="Helvetica,sans-Serif" font-size="10.00" fill="#000000">Filter</text>
<polyline fill="none" stroke="#000000" points=".0781,-257.5 95.9463,-257.5 "/>
<text text-anchor="start" x="8.0781" y="-245.5" font-family="Helvetica,sans-Serif" font-size="10.00" fill="#000000"># sampleRate</text>
<text text-anchor="start" x="8.0781" y="-235.5" font-family="Helvetica,sans-Serif" font-size="10.00" fill="#000000"># cutoffFrequency</text>
<text text-anchor="start" x="8.0781" y="-225.5" font-family="Helvetica,sans-Serif" font-size="10.00" fill="#000000"># filterOrder</text>
<text text-anchor="start" x="8.0781" y="-215.5" font-family="Helvetica,sans-Serif" font-size="10.00" fill="#000000"># filt</text>
<polyline fill="none" stroke="#000000" points=".0781,-209.5 95.9463,-209.5 "/>
<text text-anchor="start" x="8.0781" y="-197.5" font-family="Helvetica,sans-Serif" font-size="10.00" fill="#000000">+ Filter()</text>
<text text-anchor="start" x="8.0781" y="-187.5" font-family="Helvetica,sans-Serif" font-size="10.00" fill="#000000">+ setup()</text>
<text text-anchor="start" x="8.0781" y="-177.5" font-family="Helvetica,sans-Serif" font-size="10.00" fill="#000000">+ filter()</text>
</a>
</g>
</g>
<!-- Node2&#45;&gt;Node1 -->
<g id="edge1" class="edge">
<title>Node2&#45;&gt;Node1</title>
<path fill="none" stroke="#404040" d="M48.0122,-171.2279C48.0122,-160.1882 48.0122,-148.3375 48.0122,-136.6655"/>
<polygon fill="none" stroke="#404040" points="48.0123,-136.6082 44.0123,-130.6083 48.0122,-124.6082 52.0123,-130.6082 48.0123,-136.6082"/>
<text text-anchor="middle" x="81.3545" y="-145" font-family="Helvetica,sans-Serif" font-size="10.00" fill="#000000"> #filterObjArray</text>
</g>
</g>
</svg>
