<?xml version="1.0" encoding="UTF-8" standalone="no"?>
<!DOCTYPE svg PUBLIC "-//W3C//DTD SVG 1.1//EN"
 "http://www.w3.org/Graphics/SVG/1.1/DTD/svg11.dtd">
<!-- Generated by graphviz version 2.40.1 (20161225.0304)
 -->
<!-- Title: SampleTimer Pages: 1 -->
<svg width="347pt" height="167pt"
 viewBox="0.00 0.00 347.18 167.00" xmlns="http://www.w3.org/2000/svg" xmlns:xlink="http://www.w3.org/1999/xlink">
<g id="graph0" class="graph" transform="scale(1 1) rotate(0) translate(4 163)">
<title>SampleTimer</title>
<polygon fill="#ffffff" stroke="transparent" points="-4,4 -4,-163 343.1821,-163 343.1821,4 -4,4"/>
<!-- Node3 -->
<g id="node1" class="node">
<title>Node3</title>
<g id="a_node1"><a xlink:title="Sample Timer Class.">
<polygon fill="#bfbfbf" stroke="#000000" points="98.7939,-.5 98.7939,-18.5 173.8857,-18.5 173.8857,-.5 98.7939,-.5"/>
<text text-anchor="middle" x="136.3398" y="-6.5" font-family="Helvetica,sans-Serif" font-size="10.00" fill="#000000">SampleTimer</text>
</a>
</g>
</g>
<!-- Node4 -->
<g id="node2" class="node">
<title>Node4</title>
<g id="a_node2"><a xlink:title=" ">
<polygon fill="#ffffff" stroke="#bfbfbf" points="0,-75.5 0,-93.5 52.6797,-93.5 52.6797,-75.5 0,-75.5"/>
<text text-anchor="middle" x="26.3398" y="-81.5" font-family="Helvetica,sans-Serif" font-size="10.00" fill="#000000">QObject</text>
</a>
</g>
</g>
<!-- Node4&#45;&gt;Node3 -->
<g id="edge1" class="edge">
<title>Node4&#45;&gt;Node3</title>
<path fill="none" stroke="#191970" d="M48.3366,-69.5022C70.6807,-54.2676 104.5566,-31.1704 123.085,-18.5374"/>
<polygon fill="#191970" stroke="#191970" points="46.1186,-66.7783 39.828,-75.3035 50.062,-72.5619 46.1186,-66.7783"/>
</g>
<!-- Node5 -->
<g id="node3" class="node">
<title>Node5</title>
<g id="a_node3"><a xlink:title=" ">
<polygon fill="#ffffff" stroke="#bfbfbf" points="70.5747,-75.5 70.5747,-93.5 130.105,-93.5 130.105,-75.5 70.5747,-75.5"/>
<text text-anchor="middle" x="100.3398" y="-81.5" font-family="Helvetica,sans-Serif" font-size="10.00" fill="#000000">CppTimer</text>
</a>
</g>
</g>
<!-- Node5&#45;&gt;Node3 -->
<g id="edge2" class="edge">
<title>Node5&#45;&gt;Node3</title>
<path fill="none" stroke="#191970" d="M109.2301,-65.9787C116.4252,-50.9888 126.2576,-30.5048 131.8894,-18.7717"/>
<polygon fill="#191970" stroke="#191970" points="105.9262,-64.7737 104.7542,-75.3035 112.2368,-67.8029 105.9262,-64.7737"/>
</g>
<!-- Node6 -->
<g id="node4" class="node">
<title>Node6</title>
<g id="a_node4"><a xlink:href="class_m_p_u6050.html" target="_top" xlink:title=" ">
<polygon fill="#ffffff" stroke="#000000" points="148.106,-75.5 148.106,-93.5 208.5737,-93.5 208.5737,-75.5 148.106,-75.5"/>
<text text-anchor="middle" x="178.3398" y="-81.5" font-family="Helvetica,sans-Serif" font-size="10.00" fill="#000000">MPU6050</text>
</a>
</g>
</g>
<!-- Node6&#45;&gt;Node3 -->
<g id="edge3" class="edge">
<title>Node6&#45;&gt;Node3</title>
<path fill="none" stroke="#9a32cd" stroke-dasharray="5,2" d="M168.2092,-66.4096C159.7946,-51.3835 148.1657,-30.6176 141.532,-18.7717"/>
<polygon fill="#9a32cd" stroke="#9a32cd" points="165.25,-68.2886 173.1898,-75.3035 171.3575,-64.8683 165.25,-68.2886"/>
<text text-anchor="middle" x="194.5786" y="-44" font-family="Helvetica,sans-Serif" font-size="10.00" fill="#000000"> motionSensor</text>
</g>
<!-- Node7 -->
<g id="node5" class="node">
<title>Node7</title>
<g id="a_node5"><a xlink:href="class_m_c_p3428.html" target="_top" xlink:title=" ">
<polygon fill="#ffffff" stroke="#000000" points="230.106,-75.5 230.106,-93.5 290.5737,-93.5 290.5737,-75.5 230.106,-75.5"/>
<text text-anchor="middle" x="260.3398" y="-81.5" font-family="Helvetica,sans-Serif" font-size="10.00" fill="#000000">MCP3428</text>
</a>
</g>
</g>
<!-- Node7&#45;&gt;Node3 -->
<g id="edge4" class="edge">
<title>Node7&#45;&gt;Node3</title>
<path fill="none" stroke="#9a32cd" stroke-dasharray="5,2" d="M252.7575,-66.2699C247.7498,-56.2984 240.2695,-44.4868 230.3398,-37 214.0477,-24.716 192.3752,-17.9058 173.9461,-14.1368"/>
<polygon fill="#9a32cd" stroke="#9a32cd" points="249.593,-67.766 256.9401,-75.3996 255.957,-64.8504 249.593,-67.766"/>
<text text-anchor="middle" x="271.0713" y="-49" font-family="Helvetica,sans-Serif" font-size="10.00" fill="#000000"> flexThumb</text>
<text text-anchor="middle" x="271.0713" y="-39" font-family="Helvetica,sans-Serif" font-size="10.00" fill="#000000">flexFingers</text>
</g>
<!-- Node8 -->
<g id="node6" class="node">
<title>Node8</title>
<g id="a_node6"><a xlink:href="struct_m_c_p3428_1_1config_reg_struct.html" target="_top" xlink:title=" ">
<polygon fill="#ffffff" stroke="#000000" points="136.7539,-140.5 136.7539,-158.5 273.9258,-158.5 273.9258,-140.5 136.7539,-140.5"/>
<text text-anchor="middle" x="205.3398" y="-146.5" font-family="Helvetica,sans-Serif" font-size="10.00" fill="#000000">MCP3428::configRegStruct</text>
</a>
</g>
</g>
<!-- Node8&#45;&gt;Node7 -->
<g id="edge5" class="edge">
<title>Node8&#45;&gt;Node7</title>
<path fill="none" stroke="#9a32cd" stroke-dasharray="5,2" d="M219.5797,-132.6711C230.0298,-120.321 243.8385,-104.0016 252.4011,-93.8821"/>
<polygon fill="#9a32cd" stroke="#9a32cd" points="216.775,-130.5673 212.9874,-140.462 222.1187,-135.089 216.775,-130.5673"/>
<text text-anchor="middle" x="263.0244" y="-114" font-family="Helvetica,sans-Serif" font-size="10.00" fill="#000000"> _configReg</text>
</g>
<!-- Node9 -->
<g id="node7" class="node">
<title>Node9</title>
<g id="a_node7"><a xlink:href="class_i2_cdev.html" target="_top" xlink:title=" ">
<polygon fill="#ffffff" stroke="#000000" points="291.4976,-140.5 291.4976,-158.5 339.1821,-158.5 339.1821,-140.5 291.4976,-140.5"/>
<text text-anchor="middle" x="315.3398" y="-146.5" font-family="Helvetica,sans-Serif" font-size="10.00" fill="#000000">I2Cdev</text>
</a>
</g>
</g>
<!-- Node9&#45;&gt;Node7 -->
<g id="edge6" class="edge">
<title>Node9&#45;&gt;Node7</title>
<path fill="none" stroke="#9a32cd" stroke-dasharray="5,2" d="M306.1994,-131.0614C302.6242,-124.7035 298.2093,-117.7426 293.3398,-112 287.4555,-105.0606 279.685,-98.4897 273.1625,-93.5122"/>
<polygon fill="#9a32cd" stroke="#9a32cd" points="303.3089,-133.0833 311.0712,-140.2942 309.4999,-129.8165 303.3089,-133.0833"/>
<text text-anchor="middle" x="308.1206" y="-114" font-family="Helvetica,sans-Serif" font-size="10.00" fill="#000000"> i2c</text>
</g>
</g>
</svg>
