<?xml version="1.0" encoding="UTF-8" standalone="no"?>
<!DOCTYPE svg PUBLIC "-//W3C//DTD SVG 1.1//EN"
 "http://www.w3.org/Graphics/SVG/1.1/DTD/svg11.dtd">
<!-- Generated by graphviz version 2.40.1 (20161225.0304)
 -->
<!-- Title: code/Qt/config.h Pages: 1 -->
<svg width="325pt" height="192pt"
 viewBox="0.00 0.00 325.25 192.00" xmlns="http://www.w3.org/2000/svg" xmlns:xlink="http://www.w3.org/1999/xlink">
<g id="graph0" class="graph" transform="scale(1 1) rotate(0) translate(4 188)">
<title>code/Qt/config.h</title>
<polygon fill="#ffffff" stroke="transparent" points="-4,4 -4,-188 321.2549,-188 321.2549,4 -4,4"/>
<!-- Node1 -->
<g id="node1" class="node">
<title>Node1</title>
<g id="a_node1"><a xlink:title=" ">
<polygon fill="#bfbfbf" stroke="#000000" points="110.7759,-165.5 110.7759,-183.5 199.5981,-183.5 199.5981,-165.5 110.7759,-165.5"/>
<text text-anchor="middle" x="155.187" y="-171.5" font-family="Helvetica,sans-Serif" font-size="10.00" fill="#000000">code/Qt/config.h</text>
</a>
</g>
</g>
<!-- Node2 -->
<g id="node2" class="node">
<title>Node2</title>
<g id="a_node2"><a xlink:href="_train_window_8h.html" target="_top" xlink:title=" ">
<polygon fill="#ffffff" stroke="#000000" points="139.3999,-110.5 139.3999,-128.5 258.9741,-128.5 258.9741,-110.5 139.3999,-110.5"/>
<text text-anchor="middle" x="199.187" y="-116.5" font-family="Helvetica,sans-Serif" font-size="10.00" fill="#000000">code/Qt/TrainWindow.h</text>
</a>
</g>
</g>
<!-- Node1&#45;&gt;Node2 -->
<g id="edge1" class="edge">
<title>Node1&#45;&gt;Node2</title>
<path fill="none" stroke="#191970" d="M168.8378,-157.4365C176.4012,-147.9823 185.5105,-136.5956 191.7634,-128.7795"/>
<polygon fill="#191970" stroke="#191970" points="165.9667,-155.4227 162.4527,-165.4179 171.4328,-159.7956 165.9667,-155.4227"/>
</g>
<!-- Node3 -->
<g id="node3" class="node">
<title>Node3</title>
<g id="a_node3"><a xlink:href="mainwindow_8h.html" target="_top" xlink:title=" ">
<polygon fill="#ffffff" stroke="#000000" points="52.8794,-55.5 52.8794,-73.5 169.4946,-73.5 169.4946,-55.5 52.8794,-55.5"/>
<text text-anchor="middle" x="111.187" y="-61.5" font-family="Helvetica,sans-Serif" font-size="10.00" fill="#000000">code/Qt/mainwindow.h</text>
</a>
</g>
</g>
<!-- Node1&#45;&gt;Node3 -->
<g id="edge6" class="edge">
<title>Node1&#45;&gt;Node3</title>
<path fill="none" stroke="#191970" d="M144.2343,-156.6934C139.4838,-148.4691 134.1205,-138.4496 130.187,-129 122.2914,-110.0321 116.2718,-86.6587 113.2806,-73.9027"/>
<polygon fill="#191970" stroke="#191970" points="141.2839,-158.5797 149.4071,-165.3816 147.2986,-154.9987 141.2839,-158.5797"/>
</g>
<!-- Node2&#45;&gt;Node3 -->
<g id="edge2" class="edge">
<title>Node2&#45;&gt;Node3</title>
<path fill="none" stroke="#191970" d="M175.9119,-104.953C159.9907,-95.0023 139.3773,-82.1189 125.74,-73.5956"/>
<polygon fill="#191970" stroke="#191970" points="174.3206,-108.0858 184.6556,-110.4179 178.0306,-102.1498 174.3206,-108.0858"/>
</g>
<!-- Node6 -->
<g id="node6" class="node">
<title>Node6</title>
<g id="a_node6"><a xlink:href="_train_window_8cpp.html" target="_top" xlink:title=" ">
<polygon fill="#ffffff" stroke="#000000" points="187.1191,-55.5 187.1191,-73.5 317.2549,-73.5 317.2549,-55.5 187.1191,-55.5"/>
<text text-anchor="middle" x="252.187" y="-61.5" font-family="Helvetica,sans-Serif" font-size="10.00" fill="#000000">code/Qt/TrainWindow.cpp</text>
</a>
</g>
</g>
<!-- Node2&#45;&gt;Node6 -->
<g id="edge5" class="edge">
<title>Node2&#45;&gt;Node6</title>
<path fill="none" stroke="#191970" d="M215.0746,-103.0129C224.2912,-93.4485 235.5593,-81.7552 243.245,-73.7795"/>
<polygon fill="#191970" stroke="#191970" points="212.3576,-100.7884 207.9389,-110.4179 217.3981,-105.6457 212.3576,-100.7884"/>
</g>
<!-- Node4 -->
<g id="node4" class="node">
<title>Node4</title>
<g id="a_node4"><a xlink:href="_qt_2main_8cpp.html" target="_top" xlink:title=" ">
<polygon fill="#ffffff" stroke="#000000" points="0,-.5 0,-18.5 94.374,-18.5 94.374,-.5 0,-.5"/>
<text text-anchor="middle" x="47.187" y="-6.5" font-family="Helvetica,sans-Serif" font-size="10.00" fill="#000000">code/Qt/main.cpp</text>
</a>
</g>
</g>
<!-- Node3&#45;&gt;Node4 -->
<g id="edge3" class="edge">
<title>Node3&#45;&gt;Node4</title>
<path fill="none" stroke="#191970" d="M92.9968,-48.8678C81.6929,-39.1535 67.5442,-26.9944 57.9849,-18.7795"/>
<polygon fill="#191970" stroke="#191970" points="90.7533,-51.5546 100.6187,-55.4179 95.3157,-46.2457 90.7533,-51.5546"/>
</g>
<!-- Node5 -->
<g id="node5" class="node">
<title>Node5</title>
<g id="a_node5"><a xlink:href="mainwindow_8cpp.html" target="_top" xlink:title=" ">
<polygon fill="#ffffff" stroke="#000000" points="112.5986,-.5 112.5986,-18.5 239.7754,-18.5 239.7754,-.5 112.5986,-.5"/>
<text text-anchor="middle" x="176.187" y="-6.5" font-family="Helvetica,sans-Serif" font-size="10.00" fill="#000000">code/Qt/mainwindow.cpp</text>
</a>
</g>
</g>
<!-- Node3&#45;&gt;Node5 -->
<g id="edge4" class="edge">
<title>Node3&#45;&gt;Node5</title>
<path fill="none" stroke="#191970" d="M129.6615,-48.8678C141.142,-39.1535 155.5118,-26.9944 165.2204,-18.7795"/>
<polygon fill="#191970" stroke="#191970" points="127.2935,-46.2866 121.9204,-55.4179 131.8151,-51.6303 127.2935,-46.2866"/>
</g>
</g>
</svg>
