<?xml version="1.0" encoding="UTF-8" standalone="no"?>
<!DOCTYPE svg PUBLIC "-//W3C//DTD SVG 1.1//EN"
 "http://www.w3.org/Graphics/SVG/1.1/DTD/svg11.dtd">
<!-- Generated by graphviz version 2.40.1 (20161225.0304)
 -->
<!-- Title: /Users/jamielee/Desktop/uni stuff/RTE5/ENG5220/testfiles/sampledata Pages: 1 -->
<svg width="108pt" height="150pt"
 viewBox="0.00 0.00 108.00 150.00" xmlns="http://www.w3.org/2000/svg" xmlns:xlink="http://www.w3.org/1999/xlink">
<g id="graph0" class="graph" transform="scale(1 1) rotate(0) translate(4 146)">
<title>/Users/jamielee/Desktop/uni stuff/RTE5/ENG5220/testfiles/sampledata</title>
<polygon fill="#ffffff" stroke="transparent" points="-4,4 -4,-146 104,-146 104,4 -4,4"/>
<g id="clust1" class="cluster">
<title>clusterdir_34983518e61d081572c1f534f507a37e</title>
<g id="a_clust1"><a xlink:href="dir_34983518e61d081572c1f534f507a37e.html" target="_top" xlink:title="testfiles">
<polygon fill="#ddddee" stroke="#000000" points="8,-64 8,-134 92,-134 92,-64 8,-64"/>
<text text-anchor="middle" x="50" y="-122" font-family="Helvetica,sans-Serif" font-size="10.00" fill="#000000">testfiles</text>
</a>
</g>
</g>
<!-- dir_04edde271670e29beda5624280765d0f -->
<g id="node1" class="node">
<title>dir_04edde271670e29beda5624280765d0f</title>
<g id="a_node1"><a xlink:href="dir_04edde271670e29beda5624280765d0f.html" target="_top" xlink:title="sampledata">
<polygon fill="#eeeeff" stroke="#000000" points="83.6999,-108 16.3001,-108 16.3001,-72 83.6999,-72 83.6999,-108"/>
<text text-anchor="middle" x="50" y="-87" font-family="Helvetica,sans-Serif" font-size="10.00" fill="#000000">sampledata</text>
</a>
</g>
</g>
<!-- dir_de9c9023283eefbc18d361bca0cd82d5 -->
<g id="node2" class="node">
<title>dir_de9c9023283eefbc18d361bca0cd82d5</title>
<g id="a_node2"><a xlink:href="dir_de9c9023283eefbc18d361bca0cd82d5.html" target="_top" xlink:title="code">
<polygon fill="#ffffff" stroke="#ff0000" points="77,-36 23,-36 23,0 77,0 77,-36"/>
<text text-anchor="middle" x="50" y="-15" font-family="Helvetica,sans-Serif" font-size="10.00" fill="#000000">code</text>
</a>
</g>
</g>
<!-- dir_04edde271670e29beda5624280765d0f&#45;&gt;dir_de9c9023283eefbc18d361bca0cd82d5 -->
<g id="edge1" class="edge">
<title>dir_04edde271670e29beda5624280765d0f&#45;&gt;dir_de9c9023283eefbc18d361bca0cd82d5</title>
<path fill="none" stroke="#000000" d="M50,-71.8314C50,-64.131 50,-54.9743 50,-46.4166"/>
<polygon fill="#000000" stroke="#000000" points="53.5001,-46.4132 50,-36.4133 46.5001,-46.4133 53.5001,-46.4132"/>
<g id="a_edge1&#45;headlabel"><a xlink:href="dir_000019_000001.html" target="_top" xlink:title="2">
<text text-anchor="middle" x="56.3393" y="-47.0079" font-family="Helvetica,sans-Serif" font-size="10.00" fill="#000000">2</text>
</a>
</g>
</g>
</g>
</svg>
