<?xml version="1.0" encoding="UTF-8" standalone="no"?>
<!DOCTYPE svg PUBLIC "-//W3C//DTD SVG 1.1//EN"
 "http://www.w3.org/Graphics/SVG/1.1/DTD/svg11.dtd">
<!-- Generated by graphviz version 2.40.1 (20161225.0304)
 -->
<!-- Title: /Users/jamielee/Desktop/uni stuff/RTE5/ENG5220/code Pages: 1 -->
<svg width="340pt" height="254pt"
 viewBox="0.00 0.00 340.00 254.00" xmlns="http://www.w3.org/2000/svg" xmlns:xlink="http://www.w3.org/1999/xlink">
<g id="graph0" class="graph" transform="scale(1 1) rotate(0) translate(4 250)">
<title>/Users/jamielee/Desktop/uni stuff/RTE5/ENG5220/code</title>
<polygon fill="#ffffff" stroke="transparent" points="-4,4 -4,-250 336,-250 336,4 -4,4"/>
<g id="clust1" class="cluster">
<title>clusterdir_e5fe3d926a672fe49c354a13ba7dc953</title>
<g id="a_clust1"><a xlink:href="dir_e5fe3d926a672fe49c354a13ba7dc953.html" target="_top" xlink:title="ENG5220">
<polygon fill="#ddddee" stroke="#000000" points="8,-8 8,-238 324,-238 324,-8 8,-8"/>
<text text-anchor="middle" x="166" y="-226" font-family="Helvetica,sans-Serif" font-size="10.00" fill="#000000">ENG5220</text>
</a>
</g>
</g>
<g id="clust2" class="cluster">
<title>clusterdir_de9c9023283eefbc18d361bca0cd82d5</title>
<g id="a_clust2"><a xlink:href="dir_de9c9023283eefbc18d361bca0cd82d5.html" target="_top">
<polygon fill="#eeeeff" stroke="#000000" points="16,-16 16,-212 316,-212 316,-16 16,-16"/>
</a>
</g>
</g>
<!-- dir_de9c9023283eefbc18d361bca0cd82d5 -->
<g id="node1" class="node">
<title>dir_de9c9023283eefbc18d361bca0cd82d5</title>
<text text-anchor="middle" x="281" y="-183" font-family="Helvetica,sans-Serif" font-size="10.00" fill="#000000">code</text>
</g>
<!-- dir_e9ad2ec066f6b099ca07d62c43724ce0 -->
<g id="node2" class="node">
<title>dir_e9ad2ec066f6b099ca07d62c43724ce0</title>
<g id="a_node2"><a xlink:href="dir_e9ad2ec066f6b099ca07d62c43724ce0.html" target="_top" xlink:title="filters">
<polygon fill="#ffffff" stroke="#000000" points="78,-132 24,-132 24,-96 78,-96 78,-132"/>
<text text-anchor="middle" x="51" y="-111" font-family="Helvetica,sans-Serif" font-size="10.00" fill="#000000">filters</text>
</a>
</g>
</g>
<!-- dir_f79c6981e8ab5b577ecc229b25e96f7e -->
<g id="node3" class="node">
<title>dir_f79c6981e8ab5b577ecc229b25e96f7e</title>
<g id="a_node3"><a xlink:href="dir_f79c6981e8ab5b577ecc229b25e96f7e.html" target="_top" xlink:title="MCP3428">
<polygon fill="#ffffff" stroke="#ff0000" points="288.4696,-60 227.5304,-60 227.5304,-24 288.4696,-24 288.4696,-60"/>
<text text-anchor="middle" x="258" y="-39" font-family="Helvetica,sans-Serif" font-size="10.00" fill="#000000">MCP3428</text>
</a>
</g>
</g>
<!-- dir_2dbdf092e23b4c9fab16efb104851835 -->
<g id="node4" class="node">
<title>dir_2dbdf092e23b4c9fab16efb104851835</title>
<g id="a_node4"><a xlink:href="dir_2dbdf092e23b4c9fab16efb104851835.html" target="_top" xlink:title="MPU6050">
<polygon fill="#ffffff" stroke="#ff0000" points="288.4696,-132 227.5304,-132 227.5304,-96 288.4696,-96 288.4696,-132"/>
<text text-anchor="middle" x="258" y="-111" font-family="Helvetica,sans-Serif" font-size="10.00" fill="#000000">MPU6050</text>
</a>
</g>
</g>
<!-- dir_2dbdf092e23b4c9fab16efb104851835&#45;&gt;dir_f79c6981e8ab5b577ecc229b25e96f7e -->
<g id="edge5" class="edge">
<title>dir_2dbdf092e23b4c9fab16efb104851835&#45;&gt;dir_f79c6981e8ab5b577ecc229b25e96f7e</title>
<path fill="none" stroke="#000000" d="M258,-95.8314C258,-88.131 258,-78.9743 258,-70.4166"/>
<polygon fill="#000000" stroke="#000000" points="261.5001,-70.4132 258,-60.4133 254.5001,-70.4133 261.5001,-70.4132"/>
<g id="a_edge5&#45;headlabel"><a xlink:href="dir_000005_000003.html" target="_top" xlink:title="1">
<text text-anchor="middle" x="264.3393" y="-71.0079" font-family="Helvetica,sans-Serif" font-size="10.00" fill="#000000">1</text>
</a>
</g>
</g>
<!-- dir_d8d20f90cdf26a55f7ce98903511719a -->
<g id="node5" class="node">
<title>dir_d8d20f90cdf26a55f7ce98903511719a</title>
<g id="a_node5"><a xlink:href="dir_d8d20f90cdf26a55f7ce98903511719a.html" target="_top" xlink:title="neuralnet_predict">
<polygon fill="#ffffff" stroke="#ff0000" points="209.7758,-132 116.2242,-132 116.2242,-96 209.7758,-96 209.7758,-132"/>
<text text-anchor="middle" x="163" y="-111" font-family="Helvetica,sans-Serif" font-size="10.00" fill="#000000">neuralnet_predict</text>
</a>
</g>
</g>
<!-- dir_46f92f026340e7f75d5702da11e7f841 -->
<g id="node6" class="node">
<title>dir_46f92f026340e7f75d5702da11e7f841</title>
<g id="a_node6"><a xlink:href="dir_46f92f026340e7f75d5702da11e7f841.html" target="_top" xlink:title="Qt">
<polygon fill="#ffffff" stroke="#000000" points="143,-204 89,-204 89,-168 143,-168 143,-204"/>
<text text-anchor="middle" x="116" y="-183" font-family="Helvetica,sans-Serif" font-size="10.00" fill="#000000">Qt</text>
</a>
</g>
</g>
<!-- dir_46f92f026340e7f75d5702da11e7f841&#45;&gt;dir_e9ad2ec066f6b099ca07d62c43724ce0 -->
<g id="edge3" class="edge">
<title>dir_46f92f026340e7f75d5702da11e7f841&#45;&gt;dir_e9ad2ec066f6b099ca07d62c43724ce0</title>
<path fill="none" stroke="#000000" d="M99.5978,-167.8314C91.9585,-159.3694 82.7317,-149.1489 74.3793,-139.8971"/>
<polygon fill="#000000" stroke="#000000" points="76.9221,-137.4906 67.6231,-132.4133 71.7262,-142.1813 76.9221,-137.4906"/>
<g id="a_edge3&#45;headlabel"><a xlink:href="dir_000012_000002.html" target="_top" xlink:title="2">
<text text-anchor="middle" x="81.4383" y="-135.2561" font-family="Helvetica,sans-Serif" font-size="10.00" fill="#000000">2</text>
</a>
</g>
</g>
<!-- dir_46f92f026340e7f75d5702da11e7f841&#45;&gt;dir_f79c6981e8ab5b577ecc229b25e96f7e -->
<g id="edge4" class="edge">
<title>dir_46f92f026340e7f75d5702da11e7f841&#45;&gt;dir_f79c6981e8ab5b577ecc229b25e96f7e</title>
<path fill="none" stroke="#000000" d="M107.7407,-167.9979C100.131,-148.4471 92.0791,-117.1822 107,-96 120.0438,-77.4825 177.5067,-60.6895 217.6547,-50.9094"/>
<polygon fill="#000000" stroke="#000000" points="218.5336,-54.298 227.4512,-48.5772 216.9124,-47.4883 218.5336,-54.298"/>
<g id="a_edge4&#45;headlabel"><a xlink:href="dir_000012_000003.html" target="_top" xlink:title="1">
<text text-anchor="middle" x="215.6942" y="-54.8925" font-family="Helvetica,sans-Serif" font-size="10.00" fill="#000000">1</text>
</a>
</g>
</g>
<!-- dir_46f92f026340e7f75d5702da11e7f841&#45;&gt;dir_2dbdf092e23b4c9fab16efb104851835 -->
<g id="edge2" class="edge">
<title>dir_46f92f026340e7f75d5702da11e7f841&#45;&gt;dir_2dbdf092e23b4c9fab16efb104851835</title>
<path fill="none" stroke="#000000" d="M143.0434,-172.2879C164.355,-161.482 194.3779,-146.2591 218.3974,-134.0802"/>
<polygon fill="#000000" stroke="#000000" points="220.2748,-137.0526 227.611,-129.4085 217.1091,-130.8092 220.2748,-137.0526"/>
<g id="a_edge2&#45;headlabel"><a xlink:href="dir_000012_000005.html" target="_top" xlink:title="1">
<text text-anchor="middle" x="218.3527" y="-138.2104" font-family="Helvetica,sans-Serif" font-size="10.00" fill="#000000">1</text>
</a>
</g>
</g>
<!-- dir_46f92f026340e7f75d5702da11e7f841&#45;&gt;dir_d8d20f90cdf26a55f7ce98903511719a -->
<g id="edge1" class="edge">
<title>dir_46f92f026340e7f75d5702da11e7f841&#45;&gt;dir_d8d20f90cdf26a55f7ce98903511719a</title>
<path fill="none" stroke="#000000" d="M127.8601,-167.8314C133.1629,-159.7079 139.5237,-149.9637 145.3673,-141.0118"/>
<polygon fill="#000000" stroke="#000000" points="148.4448,-142.7003 150.9802,-132.4133 142.5831,-138.8739 148.4448,-142.7003"/>
<g id="a_edge1&#45;headlabel"><a xlink:href="dir_000012_000007.html" target="_top" xlink:title="1">
<text text-anchor="middle" x="148.8575" y="-144.2623" font-family="Helvetica,sans-Serif" font-size="10.00" fill="#000000">1</text>
</a>
</g>
</g>
<!-- dir_e8826154be581436082c8b736816ef0d -->
<g id="node7" class="node">
<title>dir_e8826154be581436082c8b736816ef0d</title>
<g id="a_node7"><a xlink:href="dir_e8826154be581436082c8b736816ef0d.html" target="_top" xlink:title="unitTests">
<polygon fill="#ffffff" stroke="#ff0000" points="235.9648,-204 180.0352,-204 180.0352,-168 235.9648,-168 235.9648,-204"/>
<text text-anchor="middle" x="208" y="-183" font-family="Helvetica,sans-Serif" font-size="10.00" fill="#000000">unitTests</text>
</a>
</g>
</g>
<!-- dir_e8826154be581436082c8b736816ef0d&#45;&gt;dir_f79c6981e8ab5b577ecc229b25e96f7e -->
<g id="edge8" class="edge">
<title>dir_e8826154be581436082c8b736816ef0d&#45;&gt;dir_f79c6981e8ab5b577ecc229b25e96f7e</title>
<path fill="none" stroke="#000000" d="M236.0745,-170.7922C260.8345,-157.0912 293.5202,-138.1815 297,-132 308.6629,-111.2818 296.0043,-86.3927 282.084,-68.0445"/>
<polygon fill="#000000" stroke="#000000" points="284.6866,-65.6963 275.6823,-60.113 279.2395,-70.0928 284.6866,-65.6963"/>
<g id="a_edge8&#45;headlabel"><a xlink:href="dir_000013_000003.html" target="_top" xlink:title="1">
<text text-anchor="middle" x="289.1536" y="-63.7102" font-family="Helvetica,sans-Serif" font-size="10.00" fill="#000000">1</text>
</a>
</g>
</g>
<!-- dir_e8826154be581436082c8b736816ef0d&#45;&gt;dir_2dbdf092e23b4c9fab16efb104851835 -->
<g id="edge7" class="edge">
<title>dir_e8826154be581436082c8b736816ef0d&#45;&gt;dir_2dbdf092e23b4c9fab16efb104851835</title>
<path fill="none" stroke="#000000" d="M220.6171,-167.8314C226.3172,-159.6232 233.1663,-149.7606 239.4359,-140.7323"/>
<polygon fill="#000000" stroke="#000000" points="242.3838,-142.6234 245.213,-132.4133 236.6342,-138.6306 242.3838,-142.6234"/>
<g id="a_edge7&#45;headlabel"><a xlink:href="dir_000013_000005.html" target="_top" xlink:title="1">
<text text-anchor="middle" x="242.6656" y="-144.1954" font-family="Helvetica,sans-Serif" font-size="10.00" fill="#000000">1</text>
</a>
</g>
</g>
<!-- dir_e8826154be581436082c8b736816ef0d&#45;&gt;dir_d8d20f90cdf26a55f7ce98903511719a -->
<g id="edge6" class="edge">
<title>dir_e8826154be581436082c8b736816ef0d&#45;&gt;dir_d8d20f90cdf26a55f7ce98903511719a</title>
<path fill="none" stroke="#000000" d="M196.6446,-167.8314C191.5674,-159.7079 185.4773,-149.9637 179.8824,-141.0118"/>
<polygon fill="#000000" stroke="#000000" points="182.7763,-139.0383 174.5083,-132.4133 176.8403,-142.7483 182.7763,-139.0383"/>
<g id="a_edge6&#45;headlabel"><a xlink:href="dir_000013_000007.html" target="_top" xlink:title="2">
<text text-anchor="middle" x="187.0891" y="-137.5817" font-family="Helvetica,sans-Serif" font-size="10.00" fill="#000000">2</text>
</a>
</g>
</g>
</g>
</svg>
