<?xml version="1.0" encoding="UTF-8" standalone="no"?>
<!DOCTYPE svg PUBLIC "-//W3C//DTD SVG 1.1//EN"
 "http://www.w3.org/Graphics/SVG/1.1/DTD/svg11.dtd">
<!-- Generated by graphviz version 2.40.1 (20161225.0304)
 -->
<!-- Title: /Users/jamielee/Desktop/uni stuff/RTE5/ENG5220/code/MCP3428 Pages: 1 -->
<svg width="116pt" height="182pt"
 viewBox="0.00 0.00 116.00 182.00" xmlns="http://www.w3.org/2000/svg" xmlns:xlink="http://www.w3.org/1999/xlink">
<g id="graph0" class="graph" transform="scale(1 1) rotate(0) translate(4 178)">
<title>/Users/jamielee/Desktop/uni stuff/RTE5/ENG5220/code/MCP3428</title>
<polygon fill="#ffffff" stroke="transparent" points="-4,4 -4,-178 112,-178 112,4 -4,4"/>
<g id="clust1" class="cluster">
<title>clusterdir_de9c9023283eefbc18d361bca0cd82d5</title>
<g id="a_clust1"><a xlink:href="dir_de9c9023283eefbc18d361bca0cd82d5.html" target="_top" xlink:title="code">
<polygon fill="#ddddee" stroke="#000000" points="8,-8 8,-166 100,-166 100,-8 8,-8"/>
<text text-anchor="middle" x="54" y="-154" font-family="Helvetica,sans-Serif" font-size="10.00" fill="#000000">code</text>
</a>
</g>
</g>
<g id="clust2" class="cluster">
<title>clusterdir_f79c6981e8ab5b577ecc229b25e96f7e</title>
<g id="a_clust2"><a xlink:href="dir_f79c6981e8ab5b577ecc229b25e96f7e.html" target="_top">
<polygon fill="#eeeeff" stroke="#000000" points="16,-16 16,-140 92,-140 92,-16 16,-16"/>
</a>
</g>
</g>
<!-- dir_f79c6981e8ab5b577ecc229b25e96f7e -->
<g id="node1" class="node">
<title>dir_f79c6981e8ab5b577ecc229b25e96f7e</title>
<text text-anchor="middle" x="54" y="-111" font-family="Helvetica,sans-Serif" font-size="10.00" fill="#000000">MCP3428</text>
</g>
<!-- dir_2c8fd9d1c8a46cf2ce49a10292813003 -->
<g id="node2" class="node">
<title>dir_2c8fd9d1c8a46cf2ce49a10292813003</title>
<g id="a_node2"><a xlink:href="dir_2c8fd9d1c8a46cf2ce49a10292813003.html" target="_top" xlink:title="I2Cdev">
<polygon fill="#ffffff" stroke="#000000" points="81,-60 27,-60 27,-24 81,-24 81,-60"/>
<text text-anchor="middle" x="54" y="-39" font-family="Helvetica,sans-Serif" font-size="10.00" fill="#000000">I2Cdev</text>
</a>
</g>
</g>
<!-- dir_f79c6981e8ab5b577ecc229b25e96f7e&#45;&gt;dir_2c8fd9d1c8a46cf2ce49a10292813003 -->
<g id="edge1" class="edge">
<title>dir_f79c6981e8ab5b577ecc229b25e96f7e&#45;&gt;dir_2c8fd9d1c8a46cf2ce49a10292813003</title>
<path fill="none" stroke="#000000" d="M54,-95.8314C54,-88.131 54,-78.9743 54,-70.4166"/>
<polygon fill="#000000" stroke="#000000" points="57.5001,-70.4132 54,-60.4133 50.5001,-70.4133 57.5001,-70.4132"/>
<g id="a_edge1&#45;headlabel"><a xlink:href="dir_000003_000004.html" target="_top" xlink:title="1">
<text text-anchor="middle" x="60.3393" y="-71.0079" font-family="Helvetica,sans-Serif" font-size="10.00" fill="#000000">1</text>
</a>
</g>
</g>
</g>
</svg>
