<?xml version="1.0" encoding="UTF-8" standalone="no"?>
<!DOCTYPE svg PUBLIC "-//W3C//DTD SVG 1.1//EN"
 "http://www.w3.org/Graphics/SVG/1.1/DTD/svg11.dtd">
<!-- Generated by graphviz version 2.40.1 (20161225.0304)
 -->
<!-- Title: code Pages: 1 -->
<svg width="290pt" height="148pt"
 viewBox="0.00 0.00 290.00 148.00" xmlns="http://www.w3.org/2000/svg" xmlns:xlink="http://www.w3.org/1999/xlink">
<g id="graph0" class="graph" transform="scale(1 1) rotate(0) translate(4 144)">
<title>code</title>
<polygon fill="#ffffff" stroke="transparent" points="-4,4 -4,-144 286,-144 286,4 -4,4"/>
<g id="clust1" class="cluster">
<title>clusterdir_050edd66366d13764f98250ef6db77f6</title>
<g id="a_clust1"><a xlink:href="dir_050edd66366d13764f98250ef6db77f6.html" target="_top">
<polygon fill="#eeeeff" stroke="#000000" points="8,-8 8,-132 274,-132 274,-8 8,-8"/>
</a>
</g>
</g>
<!-- dir_050edd66366d13764f98250ef6db77f6 -->
<g id="node1" class="node">
<title>dir_050edd66366d13764f98250ef6db77f6</title>
<text text-anchor="middle" x="239" y="-103" font-family="Helvetica,sans-Serif" font-size="10.00" fill="#000000">code</text>
</g>
<!-- dir_9acb4aeeeaff1b59c49f3fd1380443ef -->
<g id="node2" class="node">
<title>dir_9acb4aeeeaff1b59c49f3fd1380443ef</title>
<g id="a_node2"><a xlink:href="dir_9acb4aeeeaff1b59c49f3fd1380443ef.html" target="_top" xlink:title="CSVtoVectorCpp">
<polygon fill="#ffffff" stroke="#000000" points="193.6015,-124 102.3985,-124 102.3985,-88 193.6015,-88 193.6015,-124"/>
<text text-anchor="middle" x="148" y="-103" font-family="Helvetica,sans-Serif" font-size="10.00" fill="#000000">CSVtoVectorCpp</text>
</a>
</g>
</g>
<!-- dir_ae6c7a13eb26f08804b44978a438729a -->
<g id="node3" class="node">
<title>dir_ae6c7a13eb26f08804b44978a438729a</title>
<g id="a_node3"><a xlink:href="dir_ae6c7a13eb26f08804b44978a438729a.html" target="_top" xlink:title="MCP3428">
<polygon fill="#ffffff" stroke="#ff0000" points="76.4696,-52 15.5304,-52 15.5304,-16 76.4696,-16 76.4696,-52"/>
<text text-anchor="middle" x="46" y="-31" font-family="Helvetica,sans-Serif" font-size="10.00" fill="#000000">MCP3428</text>
</a>
</g>
</g>
<!-- dir_eb5e6f7c9d1bbebcfac54ebfe3836f77 -->
<g id="node4" class="node">
<title>dir_eb5e6f7c9d1bbebcfac54ebfe3836f77</title>
<g id="a_node4"><a xlink:href="dir_eb5e6f7c9d1bbebcfac54ebfe3836f77.html" target="_top" xlink:title="MPU6050">
<polygon fill="#ffffff" stroke="#ff0000" points="154.4696,-52 93.5304,-52 93.5304,-16 154.4696,-16 154.4696,-52"/>
<text text-anchor="middle" x="124" y="-31" font-family="Helvetica,sans-Serif" font-size="10.00" fill="#000000">MPU6050</text>
</a>
</g>
</g>
<!-- dir_af44102312650f84b9954b0d1e54ecca -->
<g id="node5" class="node">
<title>dir_af44102312650f84b9954b0d1e54ecca</title>
<g id="a_node5"><a xlink:href="dir_af44102312650f84b9954b0d1e54ecca.html" target="_top" xlink:title="neuralnet_predict">
<polygon fill="#ffffff" stroke="#ff0000" points="265.7758,-52 172.2242,-52 172.2242,-16 265.7758,-16 265.7758,-52"/>
<text text-anchor="middle" x="219" y="-31" font-family="Helvetica,sans-Serif" font-size="10.00" fill="#000000">neuralnet_predict</text>
</a>
</g>
</g>
<!-- dir_a938007a2d12d32793990e9e791b7794 -->
<g id="node6" class="node">
<title>dir_a938007a2d12d32793990e9e791b7794</title>
<g id="a_node6"><a xlink:href="dir_a938007a2d12d32793990e9e791b7794.html" target="_top" xlink:title="Qt">
<polygon fill="#ffffff" stroke="#000000" points="84,-124 30,-124 30,-88 84,-88 84,-124"/>
<text text-anchor="middle" x="57" y="-103" font-family="Helvetica,sans-Serif" font-size="10.00" fill="#000000">Qt</text>
</a>
</g>
</g>
<!-- dir_a938007a2d12d32793990e9e791b7794&#45;&gt;dir_ae6c7a13eb26f08804b44978a438729a -->
<g id="edge2" class="edge">
<title>dir_a938007a2d12d32793990e9e791b7794&#45;&gt;dir_ae6c7a13eb26f08804b44978a438729a</title>
<path fill="none" stroke="#000000" d="M54.2242,-87.8314C53.0478,-80.131 51.6489,-70.9743 50.3414,-62.4166"/>
<polygon fill="#000000" stroke="#000000" points="53.7833,-61.7699 48.8131,-52.4133 46.8636,-62.8272 53.7833,-61.7699"/>
<g id="a_edge2&#45;headlabel"><a xlink:href="dir_000003_000004.html" target="_top" xlink:title="1">
<text text-anchor="middle" x="57.1328" y="-61.8946" font-family="Helvetica,sans-Serif" font-size="10.00" fill="#000000">1</text>
</a>
</g>
</g>
<!-- dir_a938007a2d12d32793990e9e791b7794&#45;&gt;dir_eb5e6f7c9d1bbebcfac54ebfe3836f77 -->
<g id="edge1" class="edge">
<title>dir_a938007a2d12d32793990e9e791b7794&#45;&gt;dir_eb5e6f7c9d1bbebcfac54ebfe3836f77</title>
<path fill="none" stroke="#000000" d="M73.9069,-87.8314C81.7813,-79.3694 91.292,-69.1489 99.9013,-59.8971"/>
<polygon fill="#000000" stroke="#000000" points="102.6153,-62.1183 106.8654,-52.4133 97.4908,-57.3497 102.6153,-62.1183"/>
<g id="a_edge1&#45;headlabel"><a xlink:href="dir_000003_000006.html" target="_top" xlink:title="1">
<text text-anchor="middle" x="102.2451" y="-63.684" font-family="Helvetica,sans-Serif" font-size="10.00" fill="#000000">1</text>
</a>
</g>
</g>
<!-- dir_a938007a2d12d32793990e9e791b7794&#45;&gt;dir_af44102312650f84b9954b0d1e54ecca -->
<g id="edge3" class="edge">
<title>dir_a938007a2d12d32793990e9e791b7794&#45;&gt;dir_af44102312650f84b9954b0d1e54ecca</title>
<path fill="none" stroke="#000000" d="M84.0441,-92.2649C87.0536,-90.8 90.084,-89.3524 93,-88 116.6143,-77.0477 143.0503,-65.597 165.5863,-56.0729"/>
<polygon fill="#000000" stroke="#000000" points="167.1274,-59.2217 174.9863,-52.1162 164.4116,-52.77 167.1274,-59.2217"/>
<g id="a_edge3&#45;headlabel"><a xlink:href="dir_000003_000002.html" target="_top" xlink:title="1">
<text text-anchor="middle" x="164.9158" y="-60.2331" font-family="Helvetica,sans-Serif" font-size="10.00" fill="#000000">1</text>
</a>
</g>
</g>
</g>
</svg>
