<?xml version="1.0" encoding="UTF-8" standalone="no"?>
<!DOCTYPE svg PUBLIC "-//W3C//DTD SVG 1.1//EN"
 "http://www.w3.org/Graphics/SVG/1.1/DTD/svg11.dtd">
<!-- Generated by graphviz version 2.40.1 (20161225.0304)
 -->
<!-- Title: /Users/jamielee/Desktop/uni stuff/RTE5/ENG5220/code/unitTests Pages: 1 -->
<svg width="357pt" height="230pt"
 viewBox="0.00 0.00 357.00 230.00" xmlns="http://www.w3.org/2000/svg" xmlns:xlink="http://www.w3.org/1999/xlink">
<g id="graph0" class="graph" transform="scale(1 1) rotate(0) translate(4 226)">
<title>/Users/jamielee/Desktop/uni stuff/RTE5/ENG5220/code/unitTests</title>
<polygon fill="#ffffff" stroke="transparent" points="-4,4 -4,-226 353,-226 353,4 -4,4"/>
<g id="clust1" class="cluster">
<title>clusterdir_de9c9023283eefbc18d361bca0cd82d5</title>
<g id="a_clust1"><a xlink:href="dir_de9c9023283eefbc18d361bca0cd82d5.html" target="_top" xlink:title="code">
<polygon fill="#ddddee" stroke="#000000" points="8,-128 8,-214 341,-214 341,-128 8,-128"/>
<text text-anchor="middle" x="174.5" y="-202" font-family="Helvetica,sans-Serif" font-size="10.00" fill="#000000">code</text>
</a>
</g>
</g>
<g id="clust2" class="cluster">
<title>clusterdir_e8826154be581436082c8b736816ef0d</title>
<g id="a_clust2"><a xlink:href="dir_e8826154be581436082c8b736816ef0d.html" target="_top">
<polygon fill="#eeeeff" stroke="#000000" points="16,-136 16,-188 333,-188 333,-136 16,-136"/>
</a>
</g>
</g>
<!-- dir_e8826154be581436082c8b736816ef0d -->
<g id="node1" class="node">
<title>dir_e8826154be581436082c8b736816ef0d</title>
<text text-anchor="middle" x="297" y="-159" font-family="Helvetica,sans-Serif" font-size="10.00" fill="#000000">unitTests</text>
</g>
<!-- dir_7d674cf2ed74e1b0c4d9f14200e5c2d5 -->
<g id="node2" class="node">
<title>dir_7d674cf2ed74e1b0c4d9f14200e5c2d5</title>
<g id="a_node2"><a xlink:href="dir_7d674cf2ed74e1b0c4d9f14200e5c2d5.html" target="_top" xlink:title="cppTimer">
<polygon fill="#ffffff" stroke="#000000" points="251.8094,-180 194.1906,-180 194.1906,-144 251.8094,-144 251.8094,-180"/>
<text text-anchor="middle" x="223" y="-159" font-family="Helvetica,sans-Serif" font-size="10.00" fill="#000000">cppTimer</text>
</a>
</g>
</g>
<!-- dir_9501d53ce8b3afdbb2ebc71c6831b12a -->
<g id="node3" class="node">
<title>dir_9501d53ce8b3afdbb2ebc71c6831b12a</title>
<g id="a_node3"><a xlink:href="dir_9501d53ce8b3afdbb2ebc71c6831b12a.html" target="_top" xlink:title="neuralNetwork">
<polygon fill="#ffffff" stroke="#000000" points="104.4741,-180 23.5259,-180 23.5259,-144 104.4741,-144 104.4741,-180"/>
<text text-anchor="middle" x="64" y="-159" font-family="Helvetica,sans-Serif" font-size="10.00" fill="#000000">neuralNetwork</text>
</a>
</g>
</g>
<!-- dir_d8d20f90cdf26a55f7ce98903511719a -->
<g id="node5" class="node">
<title>dir_d8d20f90cdf26a55f7ce98903511719a</title>
<g id="a_node5"><a xlink:href="dir_d8d20f90cdf26a55f7ce98903511719a.html" target="_top" xlink:title="neuralnet_predict">
<polygon fill="#ffffff" stroke="#ff0000" points="100.7758,-108 7.2242,-108 7.2242,-72 100.7758,-72 100.7758,-108"/>
<text text-anchor="middle" x="54" y="-87" font-family="Helvetica,sans-Serif" font-size="10.00" fill="#000000">neuralnet_predict</text>
</a>
</g>
</g>
<!-- dir_9501d53ce8b3afdbb2ebc71c6831b12a&#45;&gt;dir_d8d20f90cdf26a55f7ce98903511719a -->
<g id="edge2" class="edge">
<title>dir_9501d53ce8b3afdbb2ebc71c6831b12a&#45;&gt;dir_d8d20f90cdf26a55f7ce98903511719a</title>
<path fill="none" stroke="#000000" d="M61.4766,-143.8314C60.4071,-136.131 59.1353,-126.9743 57.9468,-118.4166"/>
<polygon fill="#000000" stroke="#000000" points="61.3999,-117.8367 56.5574,-108.4133 54.4664,-118.7997 61.3999,-117.8367"/>
<g id="a_edge2&#45;headlabel"><a xlink:href="dir_000015_000007.html" target="_top" xlink:title="2">
<text text-anchor="middle" x="64.7066" y="-118.0065" font-family="Helvetica,sans-Serif" font-size="10.00" fill="#000000">2</text>
</a>
</g>
</g>
<!-- dir_678f29c00dd38da3dc16796e1876399c -->
<g id="node4" class="node">
<title>dir_678f29c00dd38da3dc16796e1876399c</title>
<g id="a_node4"><a xlink:href="dir_678f29c00dd38da3dc16796e1876399c.html" target="_top" xlink:title="sensors">
<polygon fill="#ffffff" stroke="#000000" points="176,-180 122,-180 122,-144 176,-144 176,-180"/>
<text text-anchor="middle" x="149" y="-159" font-family="Helvetica,sans-Serif" font-size="10.00" fill="#000000">sensors</text>
</a>
</g>
</g>
<!-- dir_2dbdf092e23b4c9fab16efb104851835 -->
<g id="node6" class="node">
<title>dir_2dbdf092e23b4c9fab16efb104851835</title>
<g id="a_node6"><a xlink:href="dir_2dbdf092e23b4c9fab16efb104851835.html" target="_top" xlink:title="MPU6050">
<polygon fill="#ffffff" stroke="#ff0000" points="179.4696,-108 118.5304,-108 118.5304,-72 179.4696,-72 179.4696,-108"/>
<text text-anchor="middle" x="149" y="-87" font-family="Helvetica,sans-Serif" font-size="10.00" fill="#000000">MPU6050</text>
</a>
</g>
</g>
<!-- dir_678f29c00dd38da3dc16796e1876399c&#45;&gt;dir_2dbdf092e23b4c9fab16efb104851835 -->
<g id="edge3" class="edge">
<title>dir_678f29c00dd38da3dc16796e1876399c&#45;&gt;dir_2dbdf092e23b4c9fab16efb104851835</title>
<path fill="none" stroke="#000000" d="M149,-143.8314C149,-136.131 149,-126.9743 149,-118.4166"/>
<polygon fill="#000000" stroke="#000000" points="152.5001,-118.4132 149,-108.4133 145.5001,-118.4133 152.5001,-118.4132"/>
<g id="a_edge3&#45;headlabel"><a xlink:href="dir_000016_000005.html" target="_top" xlink:title="1">
<text text-anchor="middle" x="155.3393" y="-119.0079" font-family="Helvetica,sans-Serif" font-size="10.00" fill="#000000">1</text>
</a>
</g>
</g>
<!-- dir_f79c6981e8ab5b577ecc229b25e96f7e -->
<g id="node7" class="node">
<title>dir_f79c6981e8ab5b577ecc229b25e96f7e</title>
<g id="a_node7"><a xlink:href="dir_f79c6981e8ab5b577ecc229b25e96f7e.html" target="_top" xlink:title="MCP3428">
<polygon fill="#ffffff" stroke="#ff0000" points="208.4696,-36 147.5304,-36 147.5304,0 208.4696,0 208.4696,-36"/>
<text text-anchor="middle" x="178" y="-15" font-family="Helvetica,sans-Serif" font-size="10.00" fill="#000000">MCP3428</text>
</a>
</g>
</g>
<!-- dir_678f29c00dd38da3dc16796e1876399c&#45;&gt;dir_f79c6981e8ab5b577ecc229b25e96f7e -->
<g id="edge4" class="edge">
<title>dir_678f29c00dd38da3dc16796e1876399c&#45;&gt;dir_f79c6981e8ab5b577ecc229b25e96f7e</title>
<path fill="none" stroke="#000000" d="M166.7108,-143.6517C174.8942,-133.8946 183.7304,-121.2041 188,-108 194.5402,-87.7738 191.3818,-63.8059 186.9455,-45.6916"/>
<polygon fill="#000000" stroke="#000000" points="190.3218,-44.769 184.3265,-36.0336 183.5658,-46.6011 190.3218,-44.769"/>
<g id="a_edge4&#45;headlabel"><a xlink:href="dir_000016_000003.html" target="_top" xlink:title="1">
<text text-anchor="middle" x="194.0028" y="-44.4952" font-family="Helvetica,sans-Serif" font-size="10.00" fill="#000000">1</text>
</a>
</g>
</g>
<!-- dir_2dbdf092e23b4c9fab16efb104851835&#45;&gt;dir_f79c6981e8ab5b577ecc229b25e96f7e -->
<g id="edge1" class="edge">
<title>dir_2dbdf092e23b4c9fab16efb104851835&#45;&gt;dir_f79c6981e8ab5b577ecc229b25e96f7e</title>
<path fill="none" stroke="#000000" d="M156.3179,-71.8314C159.4876,-63.9617 163.27,-54.5712 166.7813,-45.8533"/>
<polygon fill="#000000" stroke="#000000" points="170.0939,-46.9968 170.5835,-36.4133 163.6008,-44.3815 170.0939,-46.9968"/>
<g id="a_edge1&#45;headlabel"><a xlink:href="dir_000005_000003.html" target="_top" xlink:title="1">
<text text-anchor="middle" x="171.3847" y="-48.3919" font-family="Helvetica,sans-Serif" font-size="10.00" fill="#000000">1</text>
</a>
</g>
</g>
</g>
</svg>
