<?xml version="1.0" encoding="UTF-8" standalone="no"?>
<!DOCTYPE svg PUBLIC "-//W3C//DTD SVG 1.1//EN"
 "http://www.w3.org/Graphics/SVG/1.1/DTD/svg11.dtd">
<!-- Generated by graphviz version 2.40.1 (20161225.0304)
 -->
<!-- Title: /Users/jamielee/Desktop/uni stuff/RTE5/ENG5220/code/Qt Pages: 1 -->
<svg width="266pt" height="222pt"
 viewBox="0.00 0.00 265.64 222.00" xmlns="http://www.w3.org/2000/svg" xmlns:xlink="http://www.w3.org/1999/xlink">
<g id="graph0" class="graph" transform="scale(1 1) rotate(0) translate(4 218)">
<title>/Users/jamielee/Desktop/uni stuff/RTE5/ENG5220/code/Qt</title>
<polygon fill="#ffffff" stroke="transparent" points="-4,4 -4,-218 261.6442,-218 261.6442,4 -4,4"/>
<g id="clust1" class="cluster">
<title>clusterdir_de9c9023283eefbc18d361bca0cd82d5</title>
<g id="a_clust1"><a xlink:href="dir_de9c9023283eefbc18d361bca0cd82d5.html" target="_top" xlink:title="code">
<polygon fill="#ddddee" stroke="#000000" points="143.6377,-136 143.6377,-206 213.6377,-206 213.6377,-136 143.6377,-136"/>
<text text-anchor="middle" x="178.6377" y="-194" font-family="Helvetica,sans-Serif" font-size="10.00" fill="#000000">code</text>
</a>
</g>
</g>
<!-- dir_46f92f026340e7f75d5702da11e7f841 -->
<g id="node1" class="node">
<title>dir_46f92f026340e7f75d5702da11e7f841</title>
<g id="a_node1"><a xlink:href="dir_46f92f026340e7f75d5702da11e7f841.html" target="_top" xlink:title="Qt">
<polygon fill="#eeeeff" stroke="#000000" points="205.6377,-180 151.6377,-180 151.6377,-144 205.6377,-144 205.6377,-180"/>
<text text-anchor="middle" x="178.6377" y="-159" font-family="Helvetica,sans-Serif" font-size="10.00" fill="#000000">Qt</text>
</a>
</g>
</g>
<!-- dir_d8d20f90cdf26a55f7ce98903511719a -->
<g id="node2" class="node">
<title>dir_d8d20f90cdf26a55f7ce98903511719a</title>
<g id="a_node2"><a xlink:href="dir_d8d20f90cdf26a55f7ce98903511719a.html" target="_top" xlink:title="neuralnet_predict">
<polygon fill="#ffffff" stroke="#ff0000" points="93.4135,-108 -.1381,-108 -.1381,-72 93.4135,-72 93.4135,-108"/>
<text text-anchor="middle" x="46.6377" y="-87" font-family="Helvetica,sans-Serif" font-size="10.00" fill="#000000">neuralnet_predict</text>
</a>
</g>
</g>
<!-- dir_46f92f026340e7f75d5702da11e7f841&#45;&gt;dir_d8d20f90cdf26a55f7ce98903511719a -->
<g id="edge1" class="edge">
<title>dir_46f92f026340e7f75d5702da11e7f841&#45;&gt;dir_d8d20f90cdf26a55f7ce98903511719a</title>
<path fill="none" stroke="#000000" d="M151.607,-147.256C133.4728,-137.3646 109.2236,-124.1378 88.6009,-112.889"/>
<polygon fill="#000000" stroke="#000000" points="90.1703,-109.7583 79.7153,-108.0423 86.8183,-115.9036 90.1703,-109.7583"/>
<g id="a_edge1&#45;headlabel"><a xlink:href="dir_000012_000007.html" target="_top" xlink:title="1">
<text text-anchor="middle" x="94.6855" y="-105.9869" font-family="Helvetica,sans-Serif" font-size="10.00" fill="#000000">1</text>
</a>
</g>
</g>
<!-- dir_2dbdf092e23b4c9fab16efb104851835 -->
<g id="node3" class="node">
<title>dir_2dbdf092e23b4c9fab16efb104851835</title>
<g id="a_node3"><a xlink:href="dir_2dbdf092e23b4c9fab16efb104851835.html" target="_top" xlink:title="MPU6050">
<polygon fill="#ffffff" stroke="#ff0000" points="172.1073,-108 111.1681,-108 111.1681,-72 172.1073,-72 172.1073,-108"/>
<text text-anchor="middle" x="141.6377" y="-87" font-family="Helvetica,sans-Serif" font-size="10.00" fill="#000000">MPU6050</text>
</a>
</g>
</g>
<!-- dir_46f92f026340e7f75d5702da11e7f841&#45;&gt;dir_2dbdf092e23b4c9fab16efb104851835 -->
<g id="edge2" class="edge">
<title>dir_46f92f026340e7f75d5702da11e7f841&#45;&gt;dir_2dbdf092e23b4c9fab16efb104851835</title>
<path fill="none" stroke="#000000" d="M169.301,-143.8314C165.2134,-135.8771 160.3273,-126.369 155.8068,-117.5723"/>
<polygon fill="#000000" stroke="#000000" points="158.7838,-115.7078 151.1001,-108.4133 152.5578,-118.9074 158.7838,-115.7078"/>
<g id="a_edge2&#45;headlabel"><a xlink:href="dir_000012_000005.html" target="_top" xlink:title="1">
<text text-anchor="middle" x="162.9521" y="-114.6073" font-family="Helvetica,sans-Serif" font-size="10.00" fill="#000000">1</text>
</a>
</g>
</g>
<!-- dir_e9ad2ec066f6b099ca07d62c43724ce0 -->
<g id="node4" class="node">
<title>dir_e9ad2ec066f6b099ca07d62c43724ce0</title>
<g id="a_node4"><a xlink:href="dir_e9ad2ec066f6b099ca07d62c43724ce0.html" target="_top" xlink:title="filters">
<polygon fill="none" stroke="#000000" points="243.6377,-108 189.6377,-108 189.6377,-72 243.6377,-72 243.6377,-108"/>
<text text-anchor="middle" x="216.6377" y="-87" font-family="Helvetica,sans-Serif" font-size="10.00" fill="#000000">filters</text>
</a>
</g>
</g>
<!-- dir_46f92f026340e7f75d5702da11e7f841&#45;&gt;dir_e9ad2ec066f6b099ca07d62c43724ce0 -->
<g id="edge3" class="edge">
<title>dir_46f92f026340e7f75d5702da11e7f841&#45;&gt;dir_e9ad2ec066f6b099ca07d62c43724ce0</title>
<path fill="none" stroke="#000000" d="M188.2267,-143.8314C192.4694,-135.7925 197.5498,-126.1666 202.2337,-117.2918"/>
<polygon fill="#000000" stroke="#000000" points="205.3473,-118.8908 206.9196,-108.4133 199.1566,-115.6235 205.3473,-118.8908"/>
<g id="a_edge3&#45;headlabel"><a xlink:href="dir_000012_000002.html" target="_top" xlink:title="2">
<text text-anchor="middle" x="206.1805" y="-120.395" font-family="Helvetica,sans-Serif" font-size="10.00" fill="#000000">2</text>
</a>
</g>
</g>
<!-- dir_f79c6981e8ab5b577ecc229b25e96f7e -->
<g id="node5" class="node">
<title>dir_f79c6981e8ab5b577ecc229b25e96f7e</title>
<g id="a_node5"><a xlink:href="dir_f79c6981e8ab5b577ecc229b25e96f7e.html" target="_top" xlink:title="MCP3428">
<polygon fill="#ffffff" stroke="#ff0000" points="237.1073,-36 176.1681,-36 176.1681,0 237.1073,0 237.1073,-36"/>
<text text-anchor="middle" x="206.6377" y="-15" font-family="Helvetica,sans-Serif" font-size="10.00" fill="#000000">MCP3428</text>
</a>
</g>
</g>
<!-- dir_46f92f026340e7f75d5702da11e7f841&#45;&gt;dir_f79c6981e8ab5b577ecc229b25e96f7e -->
<g id="edge4" class="edge">
<title>dir_46f92f026340e7f75d5702da11e7f841&#45;&gt;dir_f79c6981e8ab5b577ecc229b25e96f7e</title>
<path fill="none" stroke="#000000" d="M205.7138,-150.2385C222.5658,-141.3174 242.8381,-127.2824 252.6377,-108 259.8867,-93.7363 258.1659,-87.0146 252.6377,-72 248.8327,-61.6656 242.0733,-51.9621 234.8877,-43.7098"/>
<polygon fill="#000000" stroke="#000000" points="237.3297,-41.1965 227.9504,-36.2692 232.2098,-45.9701 237.3297,-41.1965"/>
<g id="a_edge4&#45;headlabel"><a xlink:href="dir_000012_000003.html" target="_top" xlink:title="1">
<text text-anchor="middle" x="241.8577" y="-38.8895" font-family="Helvetica,sans-Serif" font-size="10.00" fill="#000000">1</text>
</a>
</g>
</g>
<!-- dir_2dbdf092e23b4c9fab16efb104851835&#45;&gt;dir_f79c6981e8ab5b577ecc229b25e96f7e -->
<g id="edge5" class="edge">
<title>dir_2dbdf092e23b4c9fab16efb104851835&#45;&gt;dir_f79c6981e8ab5b577ecc229b25e96f7e</title>
<path fill="none" stroke="#000000" d="M158.0399,-71.8314C165.6792,-63.3694 174.906,-53.1489 183.2584,-43.8971"/>
<polygon fill="#000000" stroke="#000000" points="185.9115,-46.1813 190.0146,-36.4133 180.7156,-41.4906 185.9115,-46.1813"/>
<g id="a_edge5&#45;headlabel"><a xlink:href="dir_000005_000003.html" target="_top" xlink:title="1">
<text text-anchor="middle" x="185.6103" y="-47.7521" font-family="Helvetica,sans-Serif" font-size="10.00" fill="#000000">1</text>
</a>
</g>
</g>
</g>
</svg>
