<?xml version="1.0" encoding="UTF-8" standalone="no"?>
<!DOCTYPE svg PUBLIC "-//W3C//DTD SVG 1.1//EN"
 "http://www.w3.org/Graphics/SVG/1.1/DTD/svg11.dtd">
<!-- Generated by graphviz version 2.40.1 (20161225.0304)
 -->
<!-- Title: /Users/jamielee/Desktop/uni stuff/RTE5/ENG5220/code/unitTests/sensors Pages: 1 -->
<svg width="110pt" height="222pt"
 viewBox="0.00 0.00 110.23 222.00" xmlns="http://www.w3.org/2000/svg" xmlns:xlink="http://www.w3.org/1999/xlink">
<g id="graph0" class="graph" transform="scale(1 1) rotate(0) translate(4 218)">
<title>/Users/jamielee/Desktop/uni stuff/RTE5/ENG5220/code/unitTests/sensors</title>
<polygon fill="#ffffff" stroke="transparent" points="-4,4 -4,-218 106.2339,-218 106.2339,4 -4,4"/>
<g id="clust1" class="cluster">
<title>clusterdir_e8826154be581436082c8b736816ef0d</title>
<g id="a_clust1"><a xlink:href="dir_e8826154be581436082c8b736816ef0d.html" target="_top" xlink:title="unitTests">
<polygon fill="#ddddee" stroke="#000000" points="24.2339,-136 24.2339,-206 94.2339,-206 94.2339,-136 24.2339,-136"/>
<text text-anchor="middle" x="59.2339" y="-194" font-family="Helvetica,sans-Serif" font-size="10.00" fill="#000000">unitTests</text>
</a>
</g>
</g>
<!-- dir_678f29c00dd38da3dc16796e1876399c -->
<g id="node1" class="node">
<title>dir_678f29c00dd38da3dc16796e1876399c</title>
<g id="a_node1"><a xlink:href="dir_678f29c00dd38da3dc16796e1876399c.html" target="_top" xlink:title="sensors">
<polygon fill="#eeeeff" stroke="#000000" points="86.2339,-180 32.2339,-180 32.2339,-144 86.2339,-144 86.2339,-180"/>
<text text-anchor="middle" x="59.2339" y="-159" font-family="Helvetica,sans-Serif" font-size="10.00" fill="#000000">sensors</text>
</a>
</g>
</g>
<!-- dir_2dbdf092e23b4c9fab16efb104851835 -->
<g id="node2" class="node">
<title>dir_2dbdf092e23b4c9fab16efb104851835</title>
<g id="a_node2"><a xlink:href="dir_2dbdf092e23b4c9fab16efb104851835.html" target="_top" xlink:title="MPU6050">
<polygon fill="#ffffff" stroke="#ff0000" points="60.7035,-108 -.2357,-108 -.2357,-72 60.7035,-72 60.7035,-108"/>
<text text-anchor="middle" x="30.2339" y="-87" font-family="Helvetica,sans-Serif" font-size="10.00" fill="#000000">MPU6050</text>
</a>
</g>
</g>
<!-- dir_678f29c00dd38da3dc16796e1876399c&#45;&gt;dir_2dbdf092e23b4c9fab16efb104851835 -->
<g id="edge2" class="edge">
<title>dir_678f29c00dd38da3dc16796e1876399c&#45;&gt;dir_2dbdf092e23b4c9fab16efb104851835</title>
<path fill="none" stroke="#000000" d="M51.916,-143.8314C48.7462,-135.9617 44.9639,-126.5712 41.4526,-117.8533"/>
<polygon fill="#000000" stroke="#000000" points="44.6331,-116.3815 37.6503,-108.4133 38.14,-118.9968 44.6331,-116.3815"/>
<g id="a_edge2&#45;headlabel"><a xlink:href="dir_000016_000005.html" target="_top" xlink:title="1">
<text text-anchor="middle" x="48.6097" y="-115.655" font-family="Helvetica,sans-Serif" font-size="10.00" fill="#000000">1</text>
</a>
</g>
</g>
<!-- dir_f79c6981e8ab5b577ecc229b25e96f7e -->
<g id="node3" class="node">
<title>dir_f79c6981e8ab5b577ecc229b25e96f7e</title>
<g id="a_node3"><a xlink:href="dir_f79c6981e8ab5b577ecc229b25e96f7e.html" target="_top" xlink:title="MCP3428">
<polygon fill="#ffffff" stroke="#ff0000" points="89.7035,-36 28.7643,-36 28.7643,0 89.7035,0 89.7035,-36"/>
<text text-anchor="middle" x="59.2339" y="-15" font-family="Helvetica,sans-Serif" font-size="10.00" fill="#000000">MCP3428</text>
</a>
</g>
</g>
<!-- dir_678f29c00dd38da3dc16796e1876399c&#45;&gt;dir_f79c6981e8ab5b577ecc229b25e96f7e -->
<g id="edge3" class="edge">
<title>dir_678f29c00dd38da3dc16796e1876399c&#45;&gt;dir_f79c6981e8ab5b577ecc229b25e96f7e</title>
<path fill="none" stroke="#000000" d="M63.5014,-143.6221C65.6959,-133.2314 68.1355,-119.963 69.2339,-108 70.6967,-92.067 70.6967,-87.933 69.2339,-72 68.4616,-63.5885 67.0262,-54.5317 65.4792,-46.2836"/>
<polygon fill="#000000" stroke="#000000" points="68.8917,-45.499 63.5014,-36.3779 62.0272,-46.8697 68.8917,-45.499"/>
<g id="a_edge3&#45;headlabel"><a xlink:href="dir_000016_000003.html" target="_top" xlink:title="1">
<text text-anchor="middle" x="72.3798" y="-45.4682" font-family="Helvetica,sans-Serif" font-size="10.00" fill="#000000">1</text>
</a>
</g>
</g>
<!-- dir_2dbdf092e23b4c9fab16efb104851835&#45;&gt;dir_f79c6981e8ab5b577ecc229b25e96f7e -->
<g id="edge1" class="edge">
<title>dir_2dbdf092e23b4c9fab16efb104851835&#45;&gt;dir_f79c6981e8ab5b577ecc229b25e96f7e</title>
<path fill="none" stroke="#000000" d="M37.5518,-71.8314C40.7215,-63.9617 44.5038,-54.5712 48.0152,-45.8533"/>
<polygon fill="#000000" stroke="#000000" points="51.3278,-46.9968 51.8174,-36.4133 44.8347,-44.3815 51.3278,-46.9968"/>
<g id="a_edge1&#45;headlabel"><a xlink:href="dir_000005_000003.html" target="_top" xlink:title="1">
<text text-anchor="middle" x="52.6186" y="-48.3919" font-family="Helvetica,sans-Serif" font-size="10.00" fill="#000000">1</text>
</a>
</g>
</g>
</g>
</svg>
