<?xml version="1.0" encoding="UTF-8" standalone="no"?>
<!DOCTYPE svg PUBLIC "-//W3C//DTD SVG 1.1//EN"
 "http://www.w3.org/Graphics/SVG/1.1/DTD/svg11.dtd">
<!-- Generated by graphviz version 2.40.1 (20161225.0304)
 -->
<!-- Title: testfiles/sampledata Pages: 1 -->
<svg width="108pt" height="150pt"
 viewBox="0.00 0.00 108.00 150.00" xmlns="http://www.w3.org/2000/svg" xmlns:xlink="http://www.w3.org/1999/xlink">
<g id="graph0" class="graph" transform="scale(1 1) rotate(0) translate(4 146)">
<title>testfiles/sampledata</title>
<polygon fill="#ffffff" stroke="transparent" points="-4,4 -4,-146 104,-146 104,4 -4,4"/>
<g id="clust1" class="cluster">
<title>clusterdir_40fae8e1a8c215df42338d81a5ade107</title>
<g id="a_clust1"><a xlink:href="dir_40fae8e1a8c215df42338d81a5ade107.html" target="_top" xlink:title="testfiles">
<polygon fill="#ddddee" stroke="#000000" points="8,-64 8,-134 92,-134 92,-64 8,-64"/>
<text text-anchor="middle" x="50" y="-122" font-family="Helvetica,sans-Serif" font-size="10.00" fill="#000000">testfiles</text>
</a>
</g>
</g>
<!-- dir_246a05e7b129716ee59056c2209c9f2b -->
<g id="node1" class="node">
<title>dir_246a05e7b129716ee59056c2209c9f2b</title>
<g id="a_node1"><a xlink:href="dir_246a05e7b129716ee59056c2209c9f2b.html" target="_top" xlink:title="sampledata">
<polygon fill="#eeeeff" stroke="#000000" points="83.6999,-108 16.3001,-108 16.3001,-72 83.6999,-72 83.6999,-108"/>
<text text-anchor="middle" x="50" y="-87" font-family="Helvetica,sans-Serif" font-size="10.00" fill="#000000">sampledata</text>
</a>
</g>
</g>
<!-- dir_050edd66366d13764f98250ef6db77f6 -->
<g id="node2" class="node">
<title>dir_050edd66366d13764f98250ef6db77f6</title>
<g id="a_node2"><a xlink:href="dir_050edd66366d13764f98250ef6db77f6.html" target="_top" xlink:title="code">
<polygon fill="#ffffff" stroke="#ff0000" points="77,-36 23,-36 23,0 77,0 77,-36"/>
<text text-anchor="middle" x="50" y="-15" font-family="Helvetica,sans-Serif" font-size="10.00" fill="#000000">code</text>
</a>
</g>
</g>
<!-- dir_246a05e7b129716ee59056c2209c9f2b&#45;&gt;dir_050edd66366d13764f98250ef6db77f6 -->
<g id="edge1" class="edge">
<title>dir_246a05e7b129716ee59056c2209c9f2b&#45;&gt;dir_050edd66366d13764f98250ef6db77f6</title>
<path fill="none" stroke="#000000" d="M50,-71.8314C50,-64.131 50,-54.9743 50,-46.4166"/>
<polygon fill="#000000" stroke="#000000" points="53.5001,-46.4132 50,-36.4133 46.5001,-46.4133 53.5001,-46.4132"/>
<g id="a_edge1&#45;headlabel"><a xlink:href="dir_000014_000000.html" target="_top" xlink:title="3">
<text text-anchor="middle" x="56.3393" y="-47.0079" font-family="Helvetica,sans-Serif" font-size="10.00" fill="#000000">3</text>
</a>
</g>
</g>
</g>
</svg>
