<?xml version="1.0" encoding="UTF-8" standalone="no"?>
<!DOCTYPE svg PUBLIC "-//W3C//DTD SVG 1.1//EN"
 "http://www.w3.org/Graphics/SVG/1.1/DTD/svg11.dtd">
<!-- Generated by graphviz version 2.40.1 (20161225.0304)
 -->
<!-- Title: code/Qt Pages: 1 -->
<svg width="258pt" height="150pt"
 viewBox="0.00 0.00 257.87 150.00" xmlns="http://www.w3.org/2000/svg" xmlns:xlink="http://www.w3.org/1999/xlink">
<g id="graph0" class="graph" transform="scale(1 1) rotate(0) translate(4 146)">
<title>code/Qt</title>
<polygon fill="#ffffff" stroke="transparent" points="-4,4 -4,-146 253.8716,-146 253.8716,4 -4,4"/>
<g id="clust1" class="cluster">
<title>clusterdir_050edd66366d13764f98250ef6db77f6</title>
<g id="a_clust1"><a xlink:href="dir_050edd66366d13764f98250ef6db77f6.html" target="_top" xlink:title="code">
<polygon fill="#ddddee" stroke="#000000" points="73.2339,-64 73.2339,-134 143.2339,-134 143.2339,-64 73.2339,-64"/>
<text text-anchor="middle" x="108.2339" y="-122" font-family="Helvetica,sans-Serif" font-size="10.00" fill="#000000">code</text>
</a>
</g>
</g>
<!-- dir_a938007a2d12d32793990e9e791b7794 -->
<g id="node1" class="node">
<title>dir_a938007a2d12d32793990e9e791b7794</title>
<g id="a_node1"><a xlink:href="dir_a938007a2d12d32793990e9e791b7794.html" target="_top" xlink:title="Qt">
<polygon fill="#eeeeff" stroke="#000000" points="135.2339,-108 81.2339,-108 81.2339,-72 135.2339,-72 135.2339,-108"/>
<text text-anchor="middle" x="108.2339" y="-87" font-family="Helvetica,sans-Serif" font-size="10.00" fill="#000000">Qt</text>
</a>
</g>
</g>
<!-- dir_eb5e6f7c9d1bbebcfac54ebfe3836f77 -->
<g id="node2" class="node">
<title>dir_eb5e6f7c9d1bbebcfac54ebfe3836f77</title>
<g id="a_node2"><a xlink:href="dir_eb5e6f7c9d1bbebcfac54ebfe3836f77.html" target="_top" xlink:title="MPU6050">
<polygon fill="#ffffff" stroke="#ff0000" points="60.7035,-36 -.2357,-36 -.2357,0 60.7035,0 60.7035,-36"/>
<text text-anchor="middle" x="30.2339" y="-15" font-family="Helvetica,sans-Serif" font-size="10.00" fill="#000000">MPU6050</text>
</a>
</g>
</g>
<!-- dir_a938007a2d12d32793990e9e791b7794&#45;&gt;dir_eb5e6f7c9d1bbebcfac54ebfe3836f77 -->
<g id="edge1" class="edge">
<title>dir_a938007a2d12d32793990e9e791b7794&#45;&gt;dir_eb5e6f7c9d1bbebcfac54ebfe3836f77</title>
<path fill="none" stroke="#000000" d="M88.5512,-71.8314C79.1288,-63.1337 67.6938,-52.5783 57.4543,-43.1265"/>
<polygon fill="#000000" stroke="#000000" points="59.6323,-40.3738 49.9103,-36.1628 54.8844,-45.5175 59.6323,-40.3738"/>
<g id="a_edge1&#45;headlabel"><a xlink:href="dir_000003_000006.html" target="_top" xlink:title="1">
<text text-anchor="middle" x="64.1995" y="-37.7257" font-family="Helvetica,sans-Serif" font-size="10.00" fill="#000000">1</text>
</a>
</g>
</g>
<!-- dir_ae6c7a13eb26f08804b44978a438729a -->
<g id="node3" class="node">
<title>dir_ae6c7a13eb26f08804b44978a438729a</title>
<g id="a_node3"><a xlink:href="dir_ae6c7a13eb26f08804b44978a438729a.html" target="_top" xlink:title="MCP3428">
<polygon fill="#ffffff" stroke="#ff0000" points="138.7035,-36 77.7643,-36 77.7643,0 138.7035,0 138.7035,-36"/>
<text text-anchor="middle" x="108.2339" y="-15" font-family="Helvetica,sans-Serif" font-size="10.00" fill="#000000">MCP3428</text>
</a>
</g>
</g>
<!-- dir_a938007a2d12d32793990e9e791b7794&#45;&gt;dir_ae6c7a13eb26f08804b44978a438729a -->
<g id="edge2" class="edge">
<title>dir_a938007a2d12d32793990e9e791b7794&#45;&gt;dir_ae6c7a13eb26f08804b44978a438729a</title>
<path fill="none" stroke="#000000" d="M108.2339,-71.8314C108.2339,-64.131 108.2339,-54.9743 108.2339,-46.4166"/>
<polygon fill="#000000" stroke="#000000" points="111.734,-46.4132 108.2339,-36.4133 104.734,-46.4133 111.734,-46.4132"/>
<g id="a_edge2&#45;headlabel"><a xlink:href="dir_000003_000004.html" target="_top" xlink:title="1">
<text text-anchor="middle" x="114.5732" y="-47.0079" font-family="Helvetica,sans-Serif" font-size="10.00" fill="#000000">1</text>
</a>
</g>
</g>
<!-- dir_af44102312650f84b9954b0d1e54ecca -->
<g id="node4" class="node">
<title>dir_af44102312650f84b9954b0d1e54ecca</title>
<g id="a_node4"><a xlink:href="dir_af44102312650f84b9954b0d1e54ecca.html" target="_top" xlink:title="neuralnet_predict">
<polygon fill="#ffffff" stroke="#ff0000" points="250.0097,-36 156.4581,-36 156.4581,0 250.0097,0 250.0097,-36"/>
<text text-anchor="middle" x="203.2339" y="-15" font-family="Helvetica,sans-Serif" font-size="10.00" fill="#000000">neuralnet_predict</text>
</a>
</g>
</g>
<!-- dir_a938007a2d12d32793990e9e791b7794&#45;&gt;dir_af44102312650f84b9954b0d1e54ecca -->
<g id="edge3" class="edge">
<title>dir_a938007a2d12d32793990e9e791b7794&#45;&gt;dir_af44102312650f84b9954b0d1e54ecca</title>
<path fill="none" stroke="#000000" d="M132.2064,-71.8314C144.02,-62.8779 158.4311,-51.9558 171.1774,-42.2955"/>
<polygon fill="#000000" stroke="#000000" points="173.4134,-44.9925 179.269,-36.1628 169.1852,-39.4137 173.4134,-44.9925"/>
<g id="a_edge3&#45;headlabel"><a xlink:href="dir_000003_000002.html" target="_top" xlink:title="1">
<text text-anchor="middle" x="172.2636" y="-46.4264" font-family="Helvetica,sans-Serif" font-size="10.00" fill="#000000">1</text>
</a>
</g>
</g>
</g>
</svg>
