<?xml version="1.0" encoding="UTF-8" standalone="no"?>
<!DOCTYPE svg PUBLIC "-//W3C//DTD SVG 1.1//EN"
 "http://www.w3.org/Graphics/SVG/1.1/DTD/svg11.dtd">
<!-- Generated by graphviz version 2.40.1 (20161225.0304)
 -->
<!-- Title: code/MCP3428 Pages: 1 -->
<svg width="116pt" height="182pt"
 viewBox="0.00 0.00 116.00 182.00" xmlns="http://www.w3.org/2000/svg" xmlns:xlink="http://www.w3.org/1999/xlink">
<g id="graph0" class="graph" transform="scale(1 1) rotate(0) translate(4 178)">
<title>code/MCP3428</title>
<polygon fill="#ffffff" stroke="transparent" points="-4,4 -4,-178 112,-178 112,4 -4,4"/>
<g id="clust1" class="cluster">
<title>clusterdir_050edd66366d13764f98250ef6db77f6</title>
<g id="a_clust1"><a xlink:href="dir_050edd66366d13764f98250ef6db77f6.html" target="_top" xlink:title="code">
<polygon fill="#ddddee" stroke="#000000" points="8,-8 8,-166 100,-166 100,-8 8,-8"/>
<text text-anchor="middle" x="54" y="-154" font-family="Helvetica,sans-Serif" font-size="10.00" fill="#000000">code</text>
</a>
</g>
</g>
<g id="clust2" class="cluster">
<title>clusterdir_ae6c7a13eb26f08804b44978a438729a</title>
<g id="a_clust2"><a xlink:href="dir_ae6c7a13eb26f08804b44978a438729a.html" target="_top">
<polygon fill="#eeeeff" stroke="#000000" points="16,-16 16,-140 92,-140 92,-16 16,-16"/>
</a>
</g>
</g>
<!-- dir_ae6c7a13eb26f08804b44978a438729a -->
<g id="node1" class="node">
<title>dir_ae6c7a13eb26f08804b44978a438729a</title>
<text text-anchor="middle" x="54" y="-111" font-family="Helvetica,sans-Serif" font-size="10.00" fill="#000000">MCP3428</text>
</g>
<!-- dir_1df141921b961d29b0d038bfbe1482fe -->
<g id="node2" class="node">
<title>dir_1df141921b961d29b0d038bfbe1482fe</title>
<g id="a_node2"><a xlink:href="dir_1df141921b961d29b0d038bfbe1482fe.html" target="_top" xlink:title="I2Cdev">
<polygon fill="#ffffff" stroke="#000000" points="81,-60 27,-60 27,-24 81,-24 81,-60"/>
<text text-anchor="middle" x="54" y="-39" font-family="Helvetica,sans-Serif" font-size="10.00" fill="#000000">I2Cdev</text>
</a>
</g>
</g>
<!-- dir_ae6c7a13eb26f08804b44978a438729a&#45;&gt;dir_1df141921b961d29b0d038bfbe1482fe -->
<g id="edge1" class="edge">
<title>dir_ae6c7a13eb26f08804b44978a438729a&#45;&gt;dir_1df141921b961d29b0d038bfbe1482fe</title>
<path fill="none" stroke="#000000" d="M54,-95.8314C54,-88.131 54,-78.9743 54,-70.4166"/>
<polygon fill="#000000" stroke="#000000" points="57.5001,-70.4132 54,-60.4133 50.5001,-70.4133 57.5001,-70.4132"/>
<g id="a_edge1&#45;headlabel"><a xlink:href="dir_000004_000005.html" target="_top" xlink:title="1">
<text text-anchor="middle" x="60.3393" y="-71.0079" font-family="Helvetica,sans-Serif" font-size="10.00" fill="#000000">1</text>
</a>
</g>
</g>
</g>
</svg>
