<?xml version="1.0" encoding="UTF-8" standalone="no"?>
<!DOCTYPE svg PUBLIC "-//W3C//DTD SVG 1.1//EN"
 "http://www.w3.org/Graphics/SVG/1.1/DTD/svg11.dtd">
<!-- Generated by graphviz version 2.40.1 (20161225.0304)
 -->
<!-- Title: /Users/jamielee/Desktop/uni stuff/RTE5/ENG5220/testfiles Pages: 1 -->
<svg width="196pt" height="158pt"
 viewBox="0.00 0.00 196.00 158.00" xmlns="http://www.w3.org/2000/svg" xmlns:xlink="http://www.w3.org/1999/xlink">
<g id="graph0" class="graph" transform="scale(1 1) rotate(0) translate(4 154)">
<title>/Users/jamielee/Desktop/uni stuff/RTE5/ENG5220/testfiles</title>
<polygon fill="#ffffff" stroke="transparent" points="-4,4 -4,-154 192,-154 192,4 -4,4"/>
<g id="clust1" class="cluster">
<title>clusterdir_e5fe3d926a672fe49c354a13ba7dc953</title>
<g id="a_clust1"><a xlink:href="dir_e5fe3d926a672fe49c354a13ba7dc953.html" target="_top" xlink:title="ENG5220">
<polygon fill="#ddddee" stroke="#000000" points="8,-56 8,-142 180,-142 180,-56 8,-56"/>
<text text-anchor="middle" x="94" y="-130" font-family="Helvetica,sans-Serif" font-size="10.00" fill="#000000">ENG5220</text>
</a>
</g>
</g>
<g id="clust2" class="cluster">
<title>clusterdir_34983518e61d081572c1f534f507a37e</title>
<g id="a_clust2"><a xlink:href="dir_34983518e61d081572c1f534f507a37e.html" target="_top">
<polygon fill="#eeeeff" stroke="#000000" points="16,-64 16,-116 172,-116 172,-64 16,-64"/>
</a>
</g>
</g>
<!-- dir_34983518e61d081572c1f534f507a37e -->
<g id="node1" class="node">
<title>dir_34983518e61d081572c1f534f507a37e</title>
<text text-anchor="middle" x="137" y="-87" font-family="Helvetica,sans-Serif" font-size="10.00" fill="#000000">testfiles</text>
</g>
<!-- dir_04edde271670e29beda5624280765d0f -->
<g id="node2" class="node">
<title>dir_04edde271670e29beda5624280765d0f</title>
<g id="a_node2"><a xlink:href="dir_04edde271670e29beda5624280765d0f.html" target="_top" xlink:title="sampledata">
<polygon fill="#ffffff" stroke="#000000" points="91.6999,-108 24.3001,-108 24.3001,-72 91.6999,-72 91.6999,-108"/>
<text text-anchor="middle" x="58" y="-87" font-family="Helvetica,sans-Serif" font-size="10.00" fill="#000000">sampledata</text>
</a>
</g>
</g>
<!-- dir_de9c9023283eefbc18d361bca0cd82d5 -->
<g id="node3" class="node">
<title>dir_de9c9023283eefbc18d361bca0cd82d5</title>
<g id="a_node3"><a xlink:href="dir_de9c9023283eefbc18d361bca0cd82d5.html" target="_top" xlink:title="code">
<polygon fill="#ffffff" stroke="#ff0000" points="85,-36 31,-36 31,0 85,0 85,-36"/>
<text text-anchor="middle" x="58" y="-15" font-family="Helvetica,sans-Serif" font-size="10.00" fill="#000000">code</text>
</a>
</g>
</g>
<!-- dir_04edde271670e29beda5624280765d0f&#45;&gt;dir_de9c9023283eefbc18d361bca0cd82d5 -->
<g id="edge1" class="edge">
<title>dir_04edde271670e29beda5624280765d0f&#45;&gt;dir_de9c9023283eefbc18d361bca0cd82d5</title>
<path fill="none" stroke="#000000" d="M58,-71.8314C58,-64.131 58,-54.9743 58,-46.4166"/>
<polygon fill="#000000" stroke="#000000" points="61.5001,-46.4132 58,-36.4133 54.5001,-46.4133 61.5001,-46.4132"/>
<g id="a_edge1&#45;headlabel"><a xlink:href="dir_000019_000001.html" target="_top" xlink:title="2">
<text text-anchor="middle" x="64.3393" y="-47.0079" font-family="Helvetica,sans-Serif" font-size="10.00" fill="#000000">2</text>
</a>
</g>
</g>
</g>
</svg>
