<?xml version="1.0" encoding="UTF-8" standalone="no"?>
<!DOCTYPE svg PUBLIC "-//W3C//DTD SVG 1.1//EN"
 "http://www.w3.org/Graphics/SVG/1.1/DTD/svg11.dtd">
<!-- Generated by graphviz version 2.40.1 (20161225.0304)
 -->
<!-- Title: /Users/jamielee/Desktop/uni stuff/RTE5/ENG5220/code/MPU6050 Pages: 1 -->
<svg width="188pt" height="158pt"
 viewBox="0.00 0.00 188.00 158.00" xmlns="http://www.w3.org/2000/svg" xmlns:xlink="http://www.w3.org/1999/xlink">
<g id="graph0" class="graph" transform="scale(1 1) rotate(0) translate(4 154)">
<title>/Users/jamielee/Desktop/uni stuff/RTE5/ENG5220/code/MPU6050</title>
<polygon fill="#ffffff" stroke="transparent" points="-4,4 -4,-154 184,-154 184,4 -4,4"/>
<g id="clust1" class="cluster">
<title>clusterdir_de9c9023283eefbc18d361bca0cd82d5</title>
<g id="a_clust1"><a xlink:href="dir_de9c9023283eefbc18d361bca0cd82d5.html" target="_top" xlink:title="code">
<polygon fill="#ddddee" stroke="#000000" points="8,-56 8,-142 172,-142 172,-56 8,-56"/>
<text text-anchor="middle" x="90" y="-130" font-family="Helvetica,sans-Serif" font-size="10.00" fill="#000000">code</text>
</a>
</g>
</g>
<g id="clust2" class="cluster">
<title>clusterdir_2dbdf092e23b4c9fab16efb104851835</title>
<g id="a_clust2"><a xlink:href="dir_2dbdf092e23b4c9fab16efb104851835.html" target="_top">
<polygon fill="#eeeeff" stroke="#000000" points="16,-64 16,-116 164,-116 164,-64 16,-64"/>
</a>
</g>
</g>
<!-- dir_2dbdf092e23b4c9fab16efb104851835 -->
<g id="node1" class="node">
<title>dir_2dbdf092e23b4c9fab16efb104851835</title>
<text text-anchor="middle" x="126" y="-87" font-family="Helvetica,sans-Serif" font-size="10.00" fill="#000000">MPU6050</text>
</g>
<!-- dir_f79c6981e8ab5b577ecc229b25e96f7e -->
<g id="node3" class="node">
<title>dir_f79c6981e8ab5b577ecc229b25e96f7e</title>
<g id="a_node3"><a xlink:href="dir_f79c6981e8ab5b577ecc229b25e96f7e.html" target="_top" xlink:title="MCP3428">
<polygon fill="#ffffff" stroke="#ff0000" points="156.4696,-36 95.5304,-36 95.5304,0 156.4696,0 156.4696,-36"/>
<text text-anchor="middle" x="126" y="-15" font-family="Helvetica,sans-Serif" font-size="10.00" fill="#000000">MCP3428</text>
</a>
</g>
</g>
<!-- dir_2dbdf092e23b4c9fab16efb104851835&#45;&gt;dir_f79c6981e8ab5b577ecc229b25e96f7e -->
<g id="edge1" class="edge">
<title>dir_2dbdf092e23b4c9fab16efb104851835&#45;&gt;dir_f79c6981e8ab5b577ecc229b25e96f7e</title>
<path fill="none" stroke="#000000" d="M126,-71.8314C126,-64.131 126,-54.9743 126,-46.4166"/>
<polygon fill="#000000" stroke="#000000" points="129.5001,-46.4132 126,-36.4133 122.5001,-46.4133 129.5001,-46.4132"/>
<g id="a_edge1&#45;headlabel"><a xlink:href="dir_000005_000003.html" target="_top" xlink:title="1">
<text text-anchor="middle" x="132.3393" y="-47.0079" font-family="Helvetica,sans-Serif" font-size="10.00" fill="#000000">1</text>
</a>
</g>
</g>
<!-- dir_1866dc642d926b458d96c76145bae491 -->
<g id="node2" class="node">
<title>dir_1866dc642d926b458d96c76145bae491</title>
<g id="a_node2"><a xlink:href="dir_1866dc642d926b458d96c76145bae491.html" target="_top" xlink:title="I2Cdev">
<polygon fill="#ffffff" stroke="#000000" points="78,-108 24,-108 24,-72 78,-72 78,-108"/>
<text text-anchor="middle" x="51" y="-87" font-family="Helvetica,sans-Serif" font-size="10.00" fill="#000000">I2Cdev</text>
</a>
</g>
</g>
</g>
</svg>
