<?xml version="1.0" encoding="UTF-8" standalone="no"?>
<!DOCTYPE svg PUBLIC "-//W3C//DTD SVG 1.1//EN"
 "http://www.w3.org/Graphics/SVG/1.1/DTD/svg11.dtd">
<!-- Generated by graphviz version 2.40.1 (20161225.0304)
 -->
<!-- Title: Graphical Class Hierarchy Pages: 1 -->
<svg width="188pt" height="101pt"
 viewBox="0.00 0.00 187.71 101.00" xmlns="http://www.w3.org/2000/svg" xmlns:xlink="http://www.w3.org/1999/xlink">
<g id="graph0" class="graph" transform="scale(1 1) rotate(0) translate(4 97)">
<title>Graphical Class Hierarchy</title>
<polygon fill="#ffffff" stroke="transparent" points="-4,4 -4,-97 183.709,-97 183.709,4 -4,4"/>
<!-- Node2 -->
<g id="node1" class="node">
<title>Node2</title>
<g id="a_node1"><a xlink:title=" ">
<polygon fill="#ffffff" stroke="#bfbfbf" points="0,-37.5 0,-55.5 54.9014,-55.5 54.9014,-37.5 0,-37.5"/>
<text text-anchor="middle" x="27.4507" y="-43.5" font-family="Helvetica,sans-Serif" font-size="10.00" fill="#000000">QWidget</text>
</a>
</g>
</g>
<!-- Node0 -->
<g id="node2" class="node">
<title>Node0</title>
<g id="a_node2"><a xlink:href="class_interpret_window.html" target="_top" xlink:title=" ">
<polygon fill="#ffffff" stroke="#000000" points="90.9014,-74.5 90.9014,-92.5 179.709,-92.5 179.709,-74.5 90.9014,-74.5"/>
<text text-anchor="middle" x="135.3052" y="-80.5" font-family="Helvetica,sans-Serif" font-size="10.00" fill="#000000">InterpretWindow</text>
</a>
</g>
</g>
<!-- Node2&#45;&gt;Node0 -->
<g id="edge1" class="edge">
<title>Node2&#45;&gt;Node0</title>
<path fill="none" stroke="#191970" d="M63.6816,-58.9292C78.4562,-63.9977 95.2241,-69.75 108.8196,-74.414"/>
<polygon fill="#191970" stroke="#191970" points="64.4295,-55.4856 53.8349,-55.5512 62.158,-62.1068 64.4295,-55.4856"/>
</g>
<!-- Node4 -->
<g id="node3" class="node">
<title>Node4</title>
<g id="a_node3"><a xlink:href="class_monitor_window.html" target="_top" xlink:title="Monitor Window Class.">
<polygon fill="#ffffff" stroke="#000000" points="92.8496,-37.5 92.8496,-55.5 177.7607,-55.5 177.7607,-37.5 92.8496,-37.5"/>
<text text-anchor="middle" x="135.3052" y="-43.5" font-family="Helvetica,sans-Serif" font-size="10.00" fill="#000000">MonitorWindow</text>
</a>
</g>
</g>
<!-- Node2&#45;&gt;Node4 -->
<g id="edge2" class="edge">
<title>Node2&#45;&gt;Node4</title>
<path fill="none" stroke="#191970" d="M65.0725,-46.5C74.0142,-46.5 83.6161,-46.5 92.7605,-46.5"/>
<polygon fill="#191970" stroke="#191970" points="64.946,-43.0001 54.946,-46.5 64.946,-50.0001 64.946,-43.0001"/>
</g>
<!-- Node5 -->
<g id="node4" class="node">
<title>Node5</title>
<g id="a_node4"><a xlink:href="class_train_window.html" target="_top" xlink:title="Training Window Class.">
<polygon fill="#ffffff" stroke="#000000" points="98.3135,-.5 98.3135,-18.5 172.2969,-18.5 172.2969,-.5 98.3135,-.5"/>
<text text-anchor="middle" x="135.3052" y="-6.5" font-family="Helvetica,sans-Serif" font-size="10.00" fill="#000000">TrainWindow</text>
</a>
</g>
</g>
<!-- Node2&#45;&gt;Node5 -->
<g id="edge3" class="edge">
<title>Node2&#45;&gt;Node5</title>
<path fill="none" stroke="#191970" d="M63.6816,-34.0708C78.4562,-29.0023 95.2241,-23.25 108.8196,-18.586"/>
<polygon fill="#191970" stroke="#191970" points="62.158,-30.8932 53.8349,-37.4488 64.4295,-37.5144 62.158,-30.8932"/>
</g>
</g>
</svg>
