<?xml version="1.0" encoding="UTF-8" standalone="no"?>
<!DOCTYPE svg PUBLIC "-//W3C//DTD SVG 1.1//EN"
 "http://www.w3.org/Graphics/SVG/1.1/DTD/svg11.dtd">
<!-- Generated by graphviz version 2.40.1 (20161225.0304)
 -->
<!-- Title: Graphical Class Hierarchy Pages: 1 -->
<svg width="179pt" height="101pt"
 viewBox="0.00 0.00 178.62 101.00" xmlns="http://www.w3.org/2000/svg" xmlns:xlink="http://www.w3.org/1999/xlink">
<g id="graph0" class="graph" transform="scale(1 1) rotate(0) translate(4 97)">
<title>Graphical Class Hierarchy</title>
<polygon fill="#ffffff" stroke="transparent" points="-4,4 -4,-97 174.6221,-97 174.6221,4 -4,4"/>
<!-- Node20 -->
<g id="node1" class="node">
<title>Node20</title>
<g id="a_node1"><a xlink:title=" ">
<polygon fill="#ffffff" stroke="#bfbfbf" points="0,-37.5 0,-55.5 59.5303,-55.5 59.5303,-37.5 0,-37.5"/>
<text text-anchor="middle" x="29.7651" y="-43.5" font-family="Helvetica,sans-Serif" font-size="10.00" fill="#000000">CppTimer</text>
</a>
</g>
</g>
<!-- Node0 -->
<g id="node2" class="node">
<title>Node0</title>
<g id="a_node2"><a xlink:href="class_sample_timer.html" target="_top" xlink:title="Sample Timer Class.">
<polygon fill="#ffffff" stroke="#000000" points="95.5303,-74.5 95.5303,-92.5 170.6221,-92.5 170.6221,-74.5 95.5303,-74.5"/>
<text text-anchor="middle" x="133.0762" y="-80.5" font-family="Helvetica,sans-Serif" font-size="10.00" fill="#000000">SampleTimer</text>
</a>
</g>
</g>
<!-- Node20&#45;&gt;Node0 -->
<g id="edge1" class="edge">
<title>Node20&#45;&gt;Node0</title>
<path fill="none" stroke="#191970" d="M64.4698,-58.9292C78.6221,-63.9977 94.6835,-69.75 107.7063,-74.414"/>
<polygon fill="#191970" stroke="#191970" points="65.6324,-55.6279 55.0379,-55.5512 63.2722,-62.218 65.6324,-55.6279"/>
</g>
<!-- Node21 -->
<g id="node3" class="node">
<title>Node21</title>
<g id="a_node3"><a xlink:href="class_ticker.html" target="_top" xlink:title=" ">
<polygon fill="#ffffff" stroke="#000000" points="111.6484,-37.5 111.6484,-55.5 154.5039,-55.5 154.5039,-37.5 111.6484,-37.5"/>
<text text-anchor="middle" x="133.0762" y="-43.5" font-family="Helvetica,sans-Serif" font-size="10.00" fill="#000000">Ticker</text>
</a>
</g>
</g>
<!-- Node20&#45;&gt;Node21 -->
<g id="edge2" class="edge">
<title>Node20&#45;&gt;Node21</title>
<path fill="none" stroke="#191970" d="M69.7067,-46.5C83.9157,-46.5 99.3729,-46.5 111.464,-46.5"/>
<polygon fill="#191970" stroke="#191970" points="69.647,-43.0001 59.647,-46.5 69.6469,-50.0001 69.647,-43.0001"/>
</g>
<!-- Node22 -->
<g id="node4" class="node">
<title>Node22</title>
<g id="a_node4"><a xlink:href="class_timer.html" target="_top" xlink:title=" ">
<polygon fill="#ffffff" stroke="#000000" points="112.4834,-.5 112.4834,-18.5 153.6689,-18.5 153.6689,-.5 112.4834,-.5"/>
<text text-anchor="middle" x="133.0762" y="-6.5" font-family="Helvetica,sans-Serif" font-size="10.00" fill="#000000">Timer</text>
</a>
</g>
</g>
<!-- Node20&#45;&gt;Node22 -->
<g id="edge3" class="edge">
<title>Node20&#45;&gt;Node22</title>
<path fill="none" stroke="#191970" d="M64.5246,-34.0512C80.354,-28.382 98.5621,-21.8609 112.2328,-16.9649"/>
<polygon fill="#191970" stroke="#191970" points="63.2722,-30.782 55.0379,-37.4488 65.6324,-37.3721 63.2722,-30.782"/>
</g>
<!-- Node6 -->
<g id="node5" class="node">
<title>Node6</title>
<g id="a_node5"><a xlink:title=" ">
<polygon fill="#ffffff" stroke="#bfbfbf" points="3.4253,-74.5 3.4253,-92.5 56.105,-92.5 56.105,-74.5 3.4253,-74.5"/>
<text text-anchor="middle" x="29.7651" y="-80.5" font-family="Helvetica,sans-Serif" font-size="10.00" fill="#000000">QObject</text>
</a>
</g>
</g>
<!-- Node6&#45;&gt;Node0 -->
<g id="edge4" class="edge">
<title>Node6&#45;&gt;Node0</title>
<path fill="none" stroke="#191970" d="M66.5275,-83.5C75.8549,-83.5 85.8908,-83.5 95.2691,-83.5"/>
<polygon fill="#191970" stroke="#191970" points="66.3703,-80.0001 56.3703,-83.5 66.3703,-87.0001 66.3703,-80.0001"/>
</g>
</g>
</svg>
