<?xml version="1.0" encoding="UTF-8" standalone="no"?>
<!DOCTYPE svg PUBLIC "-//W3C//DTD SVG 1.1//EN"
 "http://www.w3.org/Graphics/SVG/1.1/DTD/svg11.dtd">
<!-- Generated by graphviz version 2.40.1 (20161225.0304)
 -->
<!-- Title: Graphical Class Hierarchy Pages: 1 -->
<svg width="179pt" height="138pt"
 viewBox="0.00 0.00 178.62 138.00" xmlns="http://www.w3.org/2000/svg" xmlns:xlink="http://www.w3.org/1999/xlink">
<g id="graph0" class="graph" transform="scale(1 1) rotate(0) translate(4 134)">
<title>Graphical Class Hierarchy</title>
<polygon fill="#ffffff" stroke="transparent" points="-4,4 -4,-134 174.6221,-134 174.6221,4 -4,4"/>
<!-- Node20 -->
<g id="node1" class="node">
<title>Node20</title>
<g id="a_node1"><a xlink:title=" ">
<polygon fill="#ffffff" stroke="#bfbfbf" points="0,-55.5 0,-73.5 59.5303,-73.5 59.5303,-55.5 0,-55.5"/>
<text text-anchor="middle" x="29.7651" y="-61.5" font-family="Helvetica,sans-Serif" font-size="10.00" fill="#000000">CppTimer</text>
</a>
</g>
</g>
<!-- Node0 -->
<g id="node2" class="node">
<title>Node0</title>
<g id="a_node2"><a xlink:href="class_sample_timer.html" target="_top" xlink:title="Sample Timer Class.">
<polygon fill="#ffffff" stroke="#000000" points="95.5303,-111.5 95.5303,-129.5 170.6221,-129.5 170.6221,-111.5 95.5303,-111.5"/>
<text text-anchor="middle" x="133.0762" y="-117.5" font-family="Helvetica,sans-Serif" font-size="10.00" fill="#000000">SampleTimer</text>
</a>
</g>
</g>
<!-- Node20&#45;&gt;Node0 -->
<g id="edge1" class="edge">
<title>Node20&#45;&gt;Node0</title>
<path fill="none" stroke="#191970" d="M53.5308,-78.8227C65.9225,-86.1394 81.4038,-95.0467 95.5303,-102.5 101.2844,-105.5359 107.6331,-108.662 113.4473,-111.4395"/>
<polygon fill="#191970" stroke="#191970" points="55.1145,-75.6923 44.7307,-73.5879 51.5358,-81.7084 55.1145,-75.6923"/>
</g>
<!-- Node21 -->
<g id="node3" class="node">
<title>Node21</title>
<g id="a_node3"><a xlink:href="class_ticker.html" target="_top" xlink:title=" ">
<polygon fill="#ffffff" stroke="#000000" points="111.6484,-74.5 111.6484,-92.5 154.5039,-92.5 154.5039,-74.5 111.6484,-74.5"/>
<text text-anchor="middle" x="133.0762" y="-80.5" font-family="Helvetica,sans-Serif" font-size="10.00" fill="#000000">Ticker</text>
</a>
</g>
</g>
<!-- Node20&#45;&gt;Node21 -->
<g id="edge2" class="edge">
<title>Node20&#45;&gt;Node21</title>
<path fill="none" stroke="#191970" d="M69.7067,-71.8457C83.9157,-74.4589 99.3729,-77.3016 111.464,-79.5253"/>
<polygon fill="#191970" stroke="#191970" points="70.1151,-68.3622 59.647,-69.9956 68.8489,-75.2467 70.1151,-68.3622"/>
</g>
<!-- Node22 -->
<g id="node4" class="node">
<title>Node22</title>
<g id="a_node4"><a xlink:href="class_timer.html" target="_top" xlink:title=" ">
<polygon fill="#ffffff" stroke="#000000" points="112.4834,-37.5 112.4834,-55.5 153.6689,-55.5 153.6689,-37.5 112.4834,-37.5"/>
<text text-anchor="middle" x="133.0762" y="-43.5" font-family="Helvetica,sans-Serif" font-size="10.00" fill="#000000">Timer</text>
</a>
</g>
</g>
<!-- Node20&#45;&gt;Node22 -->
<g id="edge3" class="edge">
<title>Node20&#45;&gt;Node22</title>
<path fill="none" stroke="#191970" d="M69.5073,-57.5757C84.1517,-55.0242 100.1472,-52.2372 112.4296,-50.0973"/>
<polygon fill="#191970" stroke="#191970" points="68.8978,-54.1291 59.647,-59.2937 70.0993,-61.0252 68.8978,-54.1291"/>
</g>
<!-- Node23 -->
<g id="node5" class="node">
<title>Node23</title>
<g id="a_node5"><a xlink:href="class_timer1.html" target="_top" xlink:title=" ">
<polygon fill="#ffffff" stroke="#000000" points="109.7026,-.5 109.7026,-18.5 156.4497,-18.5 156.4497,-.5 109.7026,-.5"/>
<text text-anchor="middle" x="133.0762" y="-6.5" font-family="Helvetica,sans-Serif" font-size="10.00" fill="#000000">Timer1</text>
</a>
</g>
</g>
<!-- Node20&#45;&gt;Node23 -->
<g id="edge4" class="edge">
<title>Node20&#45;&gt;Node23</title>
<path fill="none" stroke="#191970" d="M54.0635,-50.3285C66.3821,-43.2724 81.6389,-34.7277 95.5303,-27.5 101.3017,-24.4971 107.6556,-21.3809 113.4691,-18.6022"/>
<polygon fill="#191970" stroke="#191970" points="52.203,-47.3611 45.2874,-55.3877 55.699,-53.4256 52.203,-47.3611"/>
</g>
<!-- Node6 -->
<g id="node6" class="node">
<title>Node6</title>
<g id="a_node6"><a xlink:title=" ">
<polygon fill="#ffffff" stroke="#bfbfbf" points="3.4253,-111.5 3.4253,-129.5 56.105,-129.5 56.105,-111.5 3.4253,-111.5"/>
<text text-anchor="middle" x="29.7651" y="-117.5" font-family="Helvetica,sans-Serif" font-size="10.00" fill="#000000">QObject</text>
</a>
</g>
</g>
<!-- Node6&#45;&gt;Node0 -->
<g id="edge5" class="edge">
<title>Node6&#45;&gt;Node0</title>
<path fill="none" stroke="#191970" d="M66.5275,-120.5C75.8549,-120.5 85.8908,-120.5 95.2691,-120.5"/>
<polygon fill="#191970" stroke="#191970" points="66.3703,-117.0001 56.3703,-120.5 66.3703,-124.0001 66.3703,-117.0001"/>
</g>
</g>
</svg>
