<?xml version="1.0" encoding="UTF-8" standalone="no"?>
<!DOCTYPE svg PUBLIC "-//W3C//DTD SVG 1.1//EN"
 "http://www.w3.org/Graphics/SVG/1.1/DTD/svg11.dtd">
<!-- Generated by graphviz version 2.40.1 (20161225.0304)
 -->
<!-- Title: code/Qt/mainwindow.h Pages: 1 -->
<svg width="3189pt" height="202pt"
 viewBox="0.00 0.00 3189.37 202.00" xmlns="http://www.w3.org/2000/svg" xmlns:xlink="http://www.w3.org/1999/xlink">
<g id="graph0" class="graph" transform="scale(1 1) rotate(0) translate(4 198)">
<title>code/Qt/mainwindow.h</title>
<polygon fill="#ffffff" stroke="transparent" points="-4,4 -4,-198 3185.3716,-198 3185.3716,4 -4,4"/>
<!-- Node0 -->
<g id="node1" class="node">
<title>Node0</title>
<g id="a_node1"><a xlink:title=" ">
<polygon fill="#bfbfbf" stroke="#000000" points="1909.8696,-175.5 1909.8696,-193.5 2026.4849,-193.5 2026.4849,-175.5 1909.8696,-175.5"/>
<text text-anchor="middle" x="1968.1772" y="-181.5" font-family="Helvetica,sans-Serif" font-size="10.00" fill="#000000">code/Qt/mainwindow.h</text>
</a>
</g>
</g>
<!-- Node1 -->
<g id="node2" class="node">
<title>Node1</title>
<g id="a_node2"><a xlink:href="_monitor_window_8h.html" target="_top" xlink:title=" ">
<polygon fill="#ffffff" stroke="#000000" points="387.8252,-120.5 387.8252,-138.5 480.5293,-138.5 480.5293,-120.5 387.8252,-120.5"/>
<text text-anchor="middle" x="434.1772" y="-126.5" font-family="Helvetica,sans-Serif" font-size="10.00" fill="#000000">MonitorWindow.h</text>
</a>
</g>
</g>
<!-- Node0&#45;&gt;Node1 -->
<g id="edge1" class="edge">
<title>Node0&#45;&gt;Node1</title>
<path fill="none" stroke="#191970" d="M1909.5465,-182.7457C1723.5756,-177.1269 1130.2314,-158.7833 639.1772,-139 588.9651,-136.9771 531.853,-134.2994 490.6867,-132.3026"/>
<polygon fill="#191970" stroke="#191970" points="490.7366,-128.801 480.5782,-131.8104 490.3961,-135.7927 490.7366,-128.801"/>
</g>
<!-- Node5 -->
<g id="node6" class="node">
<title>Node5</title>
<g id="a_node6"><a xlink:title=" ">
<polygon fill="#ffffff" stroke="#bfbfbf" points="430.6602,-60.5 430.6602,-78.5 501.6943,-78.5 501.6943,-60.5 430.6602,-60.5"/>
<text text-anchor="middle" x="466.1772" y="-66.5" font-family="Helvetica,sans-Serif" font-size="10.00" fill="#000000">QBoxLayout</text>
</a>
</g>
</g>
<!-- Node0&#45;&gt;Node5 -->
<g id="edge66" class="edge">
<title>Node0&#45;&gt;Node5</title>
<path fill="none" stroke="#191970" d="M1909.6508,-183.2274C1706.9413,-178.6555 1035.5416,-162.0994 821.1772,-139 681.6181,-123.9614 646.2949,-118.2768 510.1772,-84 507.2305,-83.258 504.1952,-82.4191 501.1616,-81.5282"/>
<polygon fill="#191970" stroke="#191970" points="502.1766,-78.1786 491.5887,-78.5601 500.1036,-84.8646 502.1766,-78.1786"/>
</g>
<!-- Node8 -->
<g id="node9" class="node">
<title>Node8</title>
<g id="a_node9"><a xlink:title=" ">
<polygon fill="#ffffff" stroke="#bfbfbf" points="519.436,-60.5 519.436,-78.5 594.9185,-78.5 594.9185,-60.5 519.436,-60.5"/>
<text text-anchor="middle" x="557.1772" y="-66.5" font-family="Helvetica,sans-Serif" font-size="10.00" fill="#000000">QPushButton</text>
</a>
</g>
</g>
<!-- Node0&#45;&gt;Node8 -->
<g id="edge64" class="edge">
<title>Node0&#45;&gt;Node8</title>
<path fill="none" stroke="#191970" d="M1909.6196,-183.1138C1763.7212,-179.3325 1372.3438,-167.1783 1047.1772,-139 849.5175,-121.8712 798.1617,-125.627 604.1772,-84 600.7332,-83.2609 597.1788,-82.3836 593.639,-81.4317"/>
<polygon fill="#191970" stroke="#191970" points="594.3831,-78.0039 583.8053,-78.6046 592.4489,-84.7314 594.3831,-78.0039"/>
</g>
<!-- Node11 -->
<g id="node12" class="node">
<title>Node11</title>
<g id="a_node12"><a xlink:href="_interpret_window_8h.html" target="_top" xlink:title=" ">
<polygon fill="#ffffff" stroke="#000000" points="1055.877,-120.5 1055.877,-138.5 1152.4775,-138.5 1152.4775,-120.5 1055.877,-120.5"/>
<text text-anchor="middle" x="1104.1772" y="-126.5" font-family="Helvetica,sans-Serif" font-size="10.00" fill="#000000">InterpretWindow.h</text>
</a>
</g>
</g>
<!-- Node0&#45;&gt;Node11 -->
<g id="edge11" class="edge">
<title>Node0&#45;&gt;Node11</title>
<path fill="none" stroke="#191970" d="M1909.8086,-180.7844C1752.5011,-170.7706 1320.9822,-143.3012 1163.0688,-133.2489"/>
<polygon fill="#191970" stroke="#191970" points="1162.8258,-129.7264 1152.6236,-132.584 1162.381,-136.7123 1162.8258,-129.7264"/>
</g>
<!-- Node12 -->
<g id="node13" class="node">
<title>Node12</title>
<g id="a_node13"><a xlink:title=" ">
<polygon fill="#ffffff" stroke="#bfbfbf" points="1297.0542,-60.5 1297.0542,-78.5 1345.3003,-78.5 1345.3003,-60.5 1297.0542,-60.5"/>
<text text-anchor="middle" x="1321.1772" y="-66.5" font-family="Helvetica,sans-Serif" font-size="10.00" fill="#000000">QLabel</text>
</a>
</g>
</g>
<!-- Node0&#45;&gt;Node12 -->
<g id="edge67" class="edge">
<title>Node0&#45;&gt;Node12</title>
<path fill="none" stroke="#191970" d="M1909.5581,-180.8907C1829.4357,-175.3041 1681.4767,-162.6533 1557.1772,-139 1465.7714,-121.6061 1443.067,-114.5445 1355.1772,-84 1353.7376,-83.4997 1352.2725,-82.9674 1350.799,-82.4134"/>
<polygon fill="#191970" stroke="#191970" points="1351.719,-79.0119 1341.1342,-78.5504 1349.1209,-85.512 1351.719,-79.0119"/>
</g>
<!-- Node13 -->
<g id="node14" class="node">
<title>Node13</title>
<g id="a_node14"><a xlink:title=" ">
<polygon fill="#ffffff" stroke="#bfbfbf" points="1430.2832,-60.5 1430.2832,-78.5 1474.0713,-78.5 1474.0713,-60.5 1430.2832,-60.5"/>
<text text-anchor="middle" x="1452.1772" y="-66.5" font-family="Helvetica,sans-Serif" font-size="10.00" fill="#000000">QFont</text>
</a>
</g>
</g>
<!-- Node0&#45;&gt;Node13 -->
<g id="edge70" class="edge">
<title>Node0&#45;&gt;Node13</title>
<path fill="none" stroke="#191970" d="M1909.6522,-181.6545C1839.0526,-177.1478 1717.2518,-165.9241 1616.1772,-139 1565.5376,-125.5107 1510.0743,-99.4241 1478.3654,-83.3301"/>
<polygon fill="#191970" stroke="#191970" points="1479.8131,-80.1389 1469.319,-78.6812 1476.6135,-86.365 1479.8131,-80.1389"/>
</g>
<!-- Node19 -->
<g id="node20" class="node">
<title>Node19</title>
<g id="a_node20"><a xlink:title=" ">
<polygon fill="#ffffff" stroke="#bfbfbf" points="1225.0049,-60.5 1225.0049,-78.5 1279.3496,-78.5 1279.3496,-60.5 1225.0049,-60.5"/>
<text text-anchor="middle" x="1252.1772" y="-66.5" font-family="Helvetica,sans-Serif" font-size="10.00" fill="#000000">iostream</text>
</a>
</g>
</g>
<!-- Node0&#45;&gt;Node19 -->
<g id="edge71" class="edge">
<title>Node0&#45;&gt;Node19</title>
<path fill="none" stroke="#191970" d="M1909.5185,-183.1981C1815.0828,-180.2092 1623.8629,-170.4646 1465.1772,-139 1398.9096,-125.8603 1324.52,-98.5603 1283.5302,-82.3617"/>
<polygon fill="#191970" stroke="#191970" points="1284.6806,-79.0523 1274.0956,-78.5954 1282.0853,-85.5535 1284.6806,-79.0523"/>
</g>
<!-- Node22 -->
<g id="node23" class="node">
<title>Node22</title>
<g id="a_node23"><a xlink:href="_train_window_8h.html" target="_top" xlink:title=" ">
<polygon fill="#ffffff" stroke="#000000" points="1625.2891,-120.5 1625.2891,-138.5 1707.0654,-138.5 1707.0654,-120.5 1625.2891,-120.5"/>
<text text-anchor="middle" x="1666.1772" y="-126.5" font-family="Helvetica,sans-Serif" font-size="10.00" fill="#000000">TrainWindow.h</text>
</a>
</g>
</g>
<!-- Node0&#45;&gt;Node22 -->
<g id="edge27" class="edge">
<title>Node0&#45;&gt;Node22</title>
<path fill="none" stroke="#191970" d="M1918.6463,-175.4795C1863.1949,-165.3807 1773.765,-149.0938 1717.5675,-138.8592"/>
<polygon fill="#191970" stroke="#191970" points="1717.942,-135.3699 1707.4767,-137.0214 1716.6877,-142.2566 1717.942,-135.3699"/>
</g>
<!-- Node23 -->
<g id="node24" class="node">
<title>Node23</title>
<g id="a_node24"><a xlink:href="config_8h.html" target="_top" xlink:title=" ">
<polygon fill="#ffffff" stroke="#000000" points="2255.665,-60.5 2255.665,-78.5 2306.6895,-78.5 2306.6895,-60.5 2255.665,-60.5"/>
<text text-anchor="middle" x="2281.1772" y="-66.5" font-family="Helvetica,sans-Serif" font-size="10.00" fill="#000000">config.h</text>
</a>
</g>
</g>
<!-- Node0&#45;&gt;Node23 -->
<g id="edge62" class="edge">
<title>Node0&#45;&gt;Node23</title>
<path fill="none" stroke="#191970" d="M1994.9105,-175.4427C2044.8169,-158.4078 2155.4159,-120.0594 2247.1772,-84 2248.3867,-83.5247 2249.6175,-83.0339 2250.8588,-82.533"/>
<polygon fill="#191970" stroke="#191970" points="2252.4959,-85.6435 2260.3973,-78.5853 2249.8189,-79.1755 2252.4959,-85.6435"/>
</g>
<!-- Node33 -->
<g id="node34" class="node">
<title>Node33</title>
<g id="a_node34"><a xlink:href="_filter_bank_8h.html" target="_top" xlink:title=" ">
<polygon fill="#ffffff" stroke="#000000" points="2262.3325,-120.5 2262.3325,-138.5 2340.022,-138.5 2340.022,-120.5 2262.3325,-120.5"/>
<text text-anchor="middle" x="2301.1772" y="-126.5" font-family="Helvetica,sans-Serif" font-size="10.00" fill="#000000">../FilterBank.h</text>
</a>
</g>
</g>
<!-- Node0&#45;&gt;Node33 -->
<g id="edge48" class="edge">
<title>Node0&#45;&gt;Node33</title>
<path fill="none" stroke="#191970" d="M2022.7925,-175.4795C2086.4571,-164.9643 2190.7416,-147.7401 2251.9851,-137.6248"/>
<polygon fill="#191970" stroke="#191970" points="2252.8698,-141.0262 2262.1658,-135.9433 2251.7291,-134.1198 2252.8698,-141.0262"/>
</g>
<!-- Node35 -->
<g id="node36" class="node">
<title>Node35</title>
<g id="a_node36"><a xlink:href="_sample_timer_8h.html" target="_top" xlink:title=" ">
<polygon fill="#ffffff" stroke="#000000" points="2432.7349,-120.5 2432.7349,-138.5 2515.6196,-138.5 2515.6196,-120.5 2432.7349,-120.5"/>
<text text-anchor="middle" x="2474.1772" y="-126.5" font-family="Helvetica,sans-Serif" font-size="10.00" fill="#000000">SampleTimer.h</text>
</a>
</g>
</g>
<!-- Node0&#45;&gt;Node35 -->
<g id="edge50" class="edge">
<title>Node0&#45;&gt;Node35</title>
<path fill="none" stroke="#191970" d="M2026.7162,-178.1371C2126.3879,-167.3032 2327.455,-145.4481 2422.3525,-135.1331"/>
<polygon fill="#191970" stroke="#191970" points="2423.0031,-138.5831 2432.5663,-134.0229 2422.2466,-131.6241 2423.0031,-138.5831"/>
</g>
<!-- Node47 -->
<g id="node46" class="node">
<title>Node47</title>
<g id="a_node46"><a xlink:title=" ">
<polygon fill="#ffffff" stroke="#bfbfbf" points="2533.6675,-120.5 2533.6675,-138.5 2614.687,-138.5 2614.687,-120.5 2533.6675,-120.5"/>
<text text-anchor="middle" x="2574.1772" y="-126.5" font-family="Helvetica,sans-Serif" font-size="10.00" fill="#000000">QMainWindow</text>
</a>
</g>
</g>
<!-- Node0&#45;&gt;Node47 -->
<g id="edge63" class="edge">
<title>Node0&#45;&gt;Node47</title>
<path fill="none" stroke="#191970" d="M2026.8336,-181.7505C2126.6831,-176.621 2336.2146,-163.9105 2523.5437,-138.9395"/>
<polygon fill="#191970" stroke="#191970" points="2524.1342,-142.3916 2533.5771,-137.5873 2523.1992,-135.4543 2524.1342,-142.3916"/>
</g>
<!-- Node48 -->
<g id="node47" class="node">
<title>Node48</title>
<g id="a_node47"><a xlink:title=" ">
<polygon fill="#ffffff" stroke="#bfbfbf" points="2632.2759,-120.5 2632.2759,-138.5 2686.0786,-138.5 2686.0786,-120.5 2632.2759,-120.5"/>
<text text-anchor="middle" x="2659.1772" y="-126.5" font-family="Helvetica,sans-Serif" font-size="10.00" fill="#000000">QLayout</text>
</a>
</g>
</g>
<!-- Node0&#45;&gt;Node48 -->
<g id="edge65" class="edge">
<title>Node0&#45;&gt;Node48</title>
<path fill="none" stroke="#191970" d="M2026.7064,-181.9122C2161.5724,-175.7178 2492.0168,-159.1587 2622.0456,-139.037"/>
<polygon fill="#191970" stroke="#191970" points="2622.8511,-142.4521 2632.1608,-137.3945 2621.7291,-135.5426 2622.8511,-142.4521"/>
</g>
<!-- Node49 -->
<g id="node48" class="node">
<title>Node49</title>
<g id="a_node48"><a xlink:title=" ">
<polygon fill="#ffffff" stroke="#bfbfbf" points="2703.6157,-120.5 2703.6157,-138.5 2760.7388,-138.5 2760.7388,-120.5 2703.6157,-120.5"/>
<text text-anchor="middle" x="2732.1772" y="-126.5" font-family="Helvetica,sans-Serif" font-size="10.00" fill="#000000">QPixmap</text>
</a>
</g>
</g>
<!-- Node0&#45;&gt;Node49 -->
<g id="edge68" class="edge">
<title>Node0&#45;&gt;Node49</title>
<path fill="none" stroke="#191970" d="M2026.6318,-182.2682C2172.1088,-176.4902 2548.5533,-160.1108 2693.5708,-138.937"/>
<polygon fill="#191970" stroke="#191970" points="2694.2489,-142.3741 2703.6057,-137.4043 2693.1919,-135.4543 2694.2489,-142.3741"/>
</g>
<!-- Node50 -->
<g id="node49" class="node">
<title>Node50</title>
<g id="a_node49"><a xlink:title=" ">
<polygon fill="#ffffff" stroke="#bfbfbf" points="2778.6602,-120.5 2778.6602,-138.5 2849.6943,-138.5 2849.6943,-120.5 2778.6602,-120.5"/>
<text text-anchor="middle" x="2814.1772" y="-126.5" font-family="Helvetica,sans-Serif" font-size="10.00" fill="#000000">QToolButton</text>
</a>
</g>
</g>
<!-- Node0&#45;&gt;Node50 -->
<g id="edge69" class="edge">
<title>Node0&#45;&gt;Node50</title>
<path fill="none" stroke="#191970" d="M2026.7436,-182.3655C2182.8783,-176.4895 2607.5862,-159.2461 2768.0575,-139.0701"/>
<polygon fill="#191970" stroke="#191970" points="2768.7787,-142.5057 2778.2397,-137.737 2767.8699,-135.5649 2768.7787,-142.5057"/>
</g>
<!-- Node51 -->
<g id="node50" class="node">
<title>Node51</title>
<g id="a_node50"><a xlink:title=" ">
<polygon fill="#ffffff" stroke="#bfbfbf" points="2867.5615,-120.5 2867.5615,-138.5 2910.793,-138.5 2910.793,-120.5 2867.5615,-120.5"/>
<text text-anchor="middle" x="2889.1772" y="-126.5" font-family="Helvetica,sans-Serif" font-size="10.00" fill="#000000">cmath</text>
</a>
</g>
</g>
<!-- Node0&#45;&gt;Node51 -->
<g id="edge72" class="edge">
<title>Node0&#45;&gt;Node51</title>
<path fill="none" stroke="#191970" d="M2026.4902,-183.4653C2194.685,-180.1792 2679.5276,-168.5089 2857.3791,-138.8576"/>
<polygon fill="#191970" stroke="#191970" points="2858.1363,-142.2784 2867.3851,-137.1104 2856.9321,-135.3828 2858.1363,-142.2784"/>
</g>
<!-- Node2 -->
<g id="node3" class="node">
<title>Node2</title>
<g id="a_node3"><a xlink:title=" ">
<polygon fill="#ffffff" stroke="#bfbfbf" points="62.4336,-60.5 62.4336,-78.5 147.9209,-78.5 147.9209,-60.5 62.4336,-60.5"/>
<text text-anchor="middle" x="105.1772" y="-66.5" font-family="Helvetica,sans-Serif" font-size="10.00" fill="#000000">qwt/qwt_knob.h</text>
</a>
</g>
</g>
<!-- Node1&#45;&gt;Node2 -->
<g id="edge2" class="edge">
<title>Node1&#45;&gt;Node2</title>
<path fill="none" stroke="#191970" d="M387.8116,-123.4612C332.5584,-115.9021 237.6008,-101.7625 157.1772,-84 153.3235,-83.1489 149.3307,-82.1854 145.3487,-81.1696"/>
<polygon fill="#191970" stroke="#191970" points="146.1217,-77.7537 135.5584,-78.571 144.3258,-84.5194 146.1217,-77.7537"/>
</g>
<!-- Node3 -->
<g id="node4" class="node">
<title>Node3</title>
<g id="a_node4"><a xlink:title=" ">
<polygon fill="#ffffff" stroke="#bfbfbf" points="166.2144,-60.5 166.2144,-78.5 246.1401,-78.5 246.1401,-60.5 166.2144,-60.5"/>
<text text-anchor="middle" x="206.1772" y="-66.5" font-family="Helvetica,sans-Serif" font-size="10.00" fill="#000000">qwt/qwt_plot.h</text>
</a>
</g>
</g>
<!-- Node1&#45;&gt;Node3 -->
<g id="edge3" class="edge">
<title>Node1&#45;&gt;Node3</title>
<path fill="none" stroke="#191970" d="M396.6969,-120.4217C360.4033,-111.5251 303.8721,-97.3883 255.1772,-84 252.055,-83.1416 248.8269,-82.2331 245.5868,-81.3064"/>
<polygon fill="#191970" stroke="#191970" points="246.5027,-77.9279 235.9235,-78.5033 244.5525,-84.6508 246.5027,-77.9279"/>
</g>
<!-- Node4 -->
<g id="node5" class="node">
<title>Node4</title>
<g id="a_node5"><a xlink:title=" ">
<polygon fill="#ffffff" stroke="#bfbfbf" points="264.207,-60.5 264.207,-78.5 374.1475,-78.5 374.1475,-60.5 264.207,-60.5"/>
<text text-anchor="middle" x="319.1772" y="-66.5" font-family="Helvetica,sans-Serif" font-size="10.00" fill="#000000">qwt/qwt_plot_curve.h</text>
</a>
</g>
</g>
<!-- Node1&#45;&gt;Node4 -->
<g id="edge4" class="edge">
<title>Node1&#45;&gt;Node4</title>
<path fill="none" stroke="#191970" d="M416.7112,-120.3873C397.7732,-110.5066 367.3331,-94.6248 345.4953,-83.2312"/>
<polygon fill="#191970" stroke="#191970" points="346.9157,-80.0245 336.4308,-78.5019 343.6777,-86.2306 346.9157,-80.0245"/>
</g>
<!-- Node1&#45;&gt;Node5 -->
<g id="edge5" class="edge">
<title>Node1&#45;&gt;Node5</title>
<path fill="none" stroke="#191970" d="M439.0374,-120.3873C443.6423,-111.7531 450.6911,-98.5365 456.4511,-87.7366"/>
<polygon fill="#191970" stroke="#191970" points="459.6537,-89.1691 461.2714,-78.6985 453.4772,-85.8749 459.6537,-89.1691"/>
</g>
<!-- Node6 -->
<g id="node7" class="node">
<title>Node6</title>
<g id="a_node7"><a xlink:title=" ">
<polygon fill="#ffffff" stroke="#bfbfbf" points="1329.3398,-.5 1329.3398,-18.5 1377.0146,-18.5 1377.0146,-.5 1329.3398,-.5"/>
<text text-anchor="middle" x="1353.1772" y="-6.5" font-family="Helvetica,sans-Serif" font-size="10.00" fill="#000000">QColor</text>
</a>
</g>
</g>
<!-- Node1&#45;&gt;Node6 -->
<g id="edge6" class="edge">
<title>Node1&#45;&gt;Node6</title>
<path fill="none" stroke="#191970" d="M428.3096,-120.3065C419.1448,-104.6741 404.1543,-72.8743 421.1772,-55 452.744,-21.8546 1155.1667,-11.7687 1319.1609,-9.8618"/>
<polygon fill="#191970" stroke="#191970" points="1319.212,-13.3616 1329.1715,-9.7479 1319.1322,-6.362 1319.212,-13.3616"/>
</g>
<!-- Node7 -->
<g id="node8" class="node">
<title>Node7</title>
<g id="a_node8"><a xlink:title=" ">
<polygon fill="#ffffff" stroke="#bfbfbf" points="1069.5,-60.5 1069.5,-78.5 1138.8545,-78.5 1138.8545,-60.5 1069.5,-60.5"/>
<text text-anchor="middle" x="1104.1772" y="-66.5" font-family="Helvetica,sans-Serif" font-size="10.00" fill="#000000">QCheckBox</text>
</a>
</g>
</g>
<!-- Node1&#45;&gt;Node7 -->
<g id="edge7" class="edge">
<title>Node1&#45;&gt;Node7</title>
<path fill="none" stroke="#191970" d="M480.8317,-127.4428C580.5211,-122.7065 821.5662,-109.4368 1022.1772,-84 1034.1574,-82.481 1047.0498,-80.4094 1058.9837,-78.3077"/>
<polygon fill="#191970" stroke="#191970" points="1059.9588,-81.6883 1069.1772,-76.4661 1058.7142,-74.7998 1059.9588,-81.6883"/>
</g>
<!-- Node1&#45;&gt;Node8 -->
<g id="edge8" class="edge">
<title>Node1&#45;&gt;Node8</title>
<path fill="none" stroke="#191970" d="M452.8583,-120.3873C473.2954,-110.418 506.2564,-94.3394 529.6545,-82.9257"/>
<polygon fill="#191970" stroke="#191970" points="531.2702,-86.0319 538.7234,-78.5019 528.2012,-79.7405 531.2702,-86.0319"/>
</g>
<!-- Node9 -->
<g id="node10" class="node">
<title>Node9</title>
<g id="a_node10"><a xlink:title=" ">
<polygon fill="#ffffff" stroke="#bfbfbf" points="1157.2266,-60.5 1157.2266,-78.5 1207.1279,-78.5 1207.1279,-60.5 1157.2266,-60.5"/>
<text text-anchor="middle" x="1182.1772" y="-66.5" font-family="Helvetica,sans-Serif" font-size="10.00" fill="#000000">QString</text>
</a>
</g>
</g>
<!-- Node1&#45;&gt;Node9 -->
<g id="edge9" class="edge">
<title>Node1&#45;&gt;Node9</title>
<path fill="none" stroke="#191970" d="M480.789,-128.5858C618.3106,-125.564 1020.6884,-114.3052 1148.1772,-84 1150.3585,-83.4815 1152.5776,-82.8345 1154.7836,-82.1036"/>
<polygon fill="#191970" stroke="#191970" points="1156.1205,-85.3397 1164.2134,-78.5018 1153.6228,-78.8005 1156.1205,-85.3397"/>
</g>
<!-- Node10 -->
<g id="node11" class="node">
<title>Node10</title>
<g id="a_node11"><a xlink:title=" ">
<polygon fill="#ffffff" stroke="#bfbfbf" points="0,-60.5 0,-78.5 44.3545,-78.5 44.3545,-60.5 0,-60.5"/>
<text text-anchor="middle" x="22.1772" y="-66.5" font-family="Helvetica,sans-Serif" font-size="10.00" fill="#000000">thread</text>
</a>
</g>
</g>
<!-- Node1&#45;&gt;Node10 -->
<g id="edge10" class="edge">
<title>Node1&#45;&gt;Node10</title>
<path fill="none" stroke="#191970" d="M387.5421,-125.7969C300.1515,-118.5497 114.9902,-101.6531 53.1772,-84 51.7132,-83.5819 50.2317,-83.1022 48.7509,-82.5775"/>
<polygon fill="#191970" stroke="#191970" points="49.7596,-79.2077 39.1802,-78.6357 47.0938,-85.6803 49.7596,-79.2077"/>
</g>
<!-- Node11&#45;&gt;Node5 -->
<g id="edge12" class="edge">
<title>Node11&#45;&gt;Node5</title>
<path fill="none" stroke="#191970" d="M1055.6714,-127.2987C933.2762,-121.5013 614.2581,-104.816 510.1772,-84 506.7613,-83.3168 503.2417,-82.4497 499.7513,-81.4806"/>
<polygon fill="#191970" stroke="#191970" points="500.6881,-78.1072 490.1024,-78.5467 498.6517,-84.8045 500.6881,-78.1072"/>
</g>
<!-- Node11&#45;&gt;Node6 -->
<g id="edge13" class="edge">
<title>Node11&#45;&gt;Node6</title>
<path fill="none" stroke="#191970" d="M1091.7291,-120.3571C1073.1268,-105.6124 1042.0975,-76.1041 1060.1772,-55 1076.8561,-35.5312 1244.9889,-18.811 1318.7727,-12.3502"/>
<polygon fill="#191970" stroke="#191970" points="1319.283,-15.8193 1328.945,-11.4723 1318.681,-8.8452 1319.283,-15.8193"/>
</g>
<!-- Node11&#45;&gt;Node7 -->
<g id="edge14" class="edge">
<title>Node11&#45;&gt;Node7</title>
<path fill="none" stroke="#191970" d="M1104.1772,-120.3873C1104.1772,-112.0174 1104.1772,-99.3414 1104.1772,-88.735"/>
<polygon fill="#191970" stroke="#191970" points="1107.6773,-88.6984 1104.1772,-78.6985 1100.6773,-88.6985 1107.6773,-88.6984"/>
</g>
<!-- Node11&#45;&gt;Node8 -->
<g id="edge15" class="edge">
<title>Node11&#45;&gt;Node8</title>
<path fill="none" stroke="#191970" d="M1055.5488,-126.3722C947.4076,-119.2058 689.7964,-100.9105 604.1772,-84 600.5279,-83.2792 596.7595,-82.3839 593.0184,-81.3942"/>
<polygon fill="#191970" stroke="#191970" points="593.8562,-77.9936 583.2793,-78.6096 591.9318,-84.7239 593.8562,-77.9936"/>
</g>
<!-- Node11&#45;&gt;Node9 -->
<g id="edge16" class="edge">
<title>Node11&#45;&gt;Node9</title>
<path fill="none" stroke="#191970" d="M1116.0238,-120.3873C1128.3503,-110.9054 1147.8612,-95.897 1162.5058,-84.6319"/>
<polygon fill="#191970" stroke="#191970" points="1164.6826,-87.3732 1170.4748,-78.5019 1160.4145,-81.8248 1164.6826,-87.3732"/>
</g>
<!-- Node11&#45;&gt;Node12 -->
<g id="edge17" class="edge">
<title>Node11&#45;&gt;Node12</title>
<path fill="none" stroke="#191970" d="M1150.1746,-120.4209C1187.7805,-112.4534 1242.0751,-99.699 1288.1772,-84 1289.5841,-83.5209 1291.014,-83.0059 1292.4505,-82.4658"/>
<polygon fill="#191970" stroke="#191970" points="1293.9024,-85.6539 1301.853,-78.6511 1291.2707,-79.1674 1293.9024,-85.6539"/>
</g>
<!-- Node11&#45;&gt;Node13 -->
<g id="edge18" class="edge">
<title>Node11&#45;&gt;Node13</title>
<path fill="none" stroke="#191970" d="M1152.6523,-126.9832C1215.6694,-122.712 1328.6092,-111.627 1421.1772,-84 1422.6362,-83.5646 1424.1137,-83.071 1425.5913,-82.5354"/>
<polygon fill="#191970" stroke="#191970" points="1427.2628,-85.6309 1435.1518,-78.5589 1424.5745,-79.1677 1427.2628,-85.6309"/>
</g>
<!-- Node14 -->
<g id="node15" class="node">
<title>Node14</title>
<g id="a_node15"><a xlink:title=" ">
<polygon fill="#ffffff" stroke="#bfbfbf" points="1363.6953,-60.5 1363.6953,-78.5 1412.6592,-78.5 1412.6592,-60.5 1363.6953,-60.5"/>
<text text-anchor="middle" x="1388.1772" y="-66.5" font-family="Helvetica,sans-Serif" font-size="10.00" fill="#000000">QTimer</text>
</a>
</g>
</g>
<!-- Node11&#45;&gt;Node14 -->
<g id="edge19" class="edge">
<title>Node11&#45;&gt;Node14</title>
<path fill="none" stroke="#191970" d="M1152.8568,-123.9109C1203.7956,-117.3075 1285.7261,-104.544 1354.1772,-84 1355.8675,-83.4927 1357.5869,-82.9271 1359.3098,-82.3215"/>
<polygon fill="#191970" stroke="#191970" points="1360.9807,-85.4274 1369.0352,-78.5444 1358.4464,-78.9022 1360.9807,-85.4274"/>
</g>
<!-- Node15 -->
<g id="node16" class="node">
<title>Node15</title>
<g id="a_node16"><a xlink:title=" ">
<polygon fill="#ffffff" stroke="#bfbfbf" points="732.8794,-60.5 732.8794,-78.5 819.4751,-78.5 819.4751,-60.5 732.8794,-60.5"/>
<text text-anchor="middle" x="776.1772" y="-66.5" font-family="Helvetica,sans-Serif" font-size="10.00" fill="#000000">QTextToSpeech</text>
</a>
</g>
</g>
<!-- Node11&#45;&gt;Node15 -->
<g id="edge20" class="edge">
<title>Node11&#45;&gt;Node15</title>
<path fill="none" stroke="#191970" d="M1055.5109,-123.1073C1000.1309,-115.456 907.1275,-101.4611 828.1772,-84 824.3238,-83.1477 820.3311,-82.1835 816.3492,-81.1673"/>
<polygon fill="#191970" stroke="#191970" points="817.1224,-77.7514 806.5591,-78.568 815.326,-84.517 817.1224,-77.7514"/>
</g>
<!-- Node16 -->
<g id="node17" class="node">
<title>Node16</title>
<g id="a_node17"><a xlink:title=" ">
<polygon fill="#ffffff" stroke="#bfbfbf" points="837.3252,-60.5 837.3252,-78.5 915.0293,-78.5 915.0293,-60.5 837.3252,-60.5"/>
<text text-anchor="middle" x="876.1772" y="-66.5" font-family="Helvetica,sans-Serif" font-size="10.00" fill="#000000">QVBoxLayout</text>
</a>
</g>
</g>
<!-- Node11&#45;&gt;Node16 -->
<g id="edge21" class="edge">
<title>Node11&#45;&gt;Node16</title>
<path fill="none" stroke="#191970" d="M1066.4672,-120.5C1029.956,-111.6607 973.0984,-97.5646 924.1772,-84 921.211,-83.1775 918.1485,-82.3057 915.0728,-81.4137"/>
<polygon fill="#191970" stroke="#191970" points="915.8879,-78.0051 905.3062,-78.5323 913.9071,-84.719 915.8879,-78.0051"/>
</g>
<!-- Node17 -->
<g id="node18" class="node">
<title>Node17</title>
<g id="a_node18"><a xlink:title=" ">
<polygon fill="#ffffff" stroke="#bfbfbf" points="933.5,-60.5 933.5,-78.5 1012.8545,-78.5 1012.8545,-60.5 933.5,-60.5"/>
<text text-anchor="middle" x="973.1772" y="-66.5" font-family="Helvetica,sans-Serif" font-size="10.00" fill="#000000">QProgressBar</text>
</a>
</g>
</g>
<!-- Node11&#45;&gt;Node17 -->
<g id="edge22" class="edge">
<title>Node11&#45;&gt;Node17</title>
<path fill="none" stroke="#191970" d="M1084.2812,-120.3873C1062.4181,-110.3737 1027.0977,-94.1964 1002.1584,-82.7738"/>
<polygon fill="#191970" stroke="#191970" points="1003.3806,-79.484 992.8313,-78.5019 1000.4656,-85.8482 1003.3806,-79.484"/>
</g>
<!-- Node18 -->
<g id="node19" class="node">
<title>Node18</title>
<g id="a_node19"><a xlink:title=" ">
<polygon fill="#ffffff" stroke="#bfbfbf" points="1592.4458,-60.5 1592.4458,-78.5 1637.9087,-78.5 1637.9087,-60.5 1592.4458,-60.5"/>
<text text-anchor="middle" x="1615.1772" y="-66.5" font-family="Helvetica,sans-Serif" font-size="10.00" fill="#000000">stdio.h</text>
</a>
</g>
</g>
<!-- Node11&#45;&gt;Node18 -->
<g id="edge23" class="edge">
<title>Node11&#45;&gt;Node18</title>
<path fill="none" stroke="#191970" d="M1152.5016,-126.9385C1257.3515,-121.0513 1502.7552,-105.4007 1583.1772,-84 1584.8792,-83.5471 1586.6043,-83.0119 1588.3257,-82.4187"/>
<polygon fill="#191970" stroke="#191970" points="1589.9781,-85.5271 1597.9572,-78.5568 1587.3729,-79.0299 1589.9781,-85.5271"/>
</g>
<!-- Node11&#45;&gt;Node19 -->
<g id="edge24" class="edge">
<title>Node11&#45;&gt;Node19</title>
<path fill="none" stroke="#191970" d="M1126.6553,-120.3873C1151.6834,-110.2407 1192.3216,-93.7658 1220.551,-82.3215"/>
<polygon fill="#191970" stroke="#191970" points="1222.0202,-85.5026 1229.9726,-78.5019 1219.3902,-79.0154 1222.0202,-85.5026"/>
</g>
<!-- Node20 -->
<g id="node21" class="node">
<title>Node20</title>
<g id="a_node21"><a xlink:href="_neural_net_8h.html" target="_top" xlink:title=" ">
<polygon fill="#ffffff" stroke="#000000" points="613.3721,-55.5 613.3721,-83.5 714.9824,-83.5 714.9824,-55.5 613.3721,-55.5"/>
<text text-anchor="start" x="621.3721" y="-71.5" font-family="Helvetica,sans-Serif" font-size="10.00" fill="#000000">../neuralnet_predict</text>
<text text-anchor="middle" x="664.1772" y="-61.5" font-family="Helvetica,sans-Serif" font-size="10.00" fill="#000000">/NeuralNet.h</text>
</a>
</g>
</g>
<!-- Node11&#45;&gt;Node20 -->
<g id="edge25" class="edge">
<title>Node11&#45;&gt;Node20</title>
<path fill="none" stroke="#191970" d="M1055.6171,-125.5335C985.0107,-119.3608 849.7468,-106.01 725.2435,-84.0549"/>
<polygon fill="#191970" stroke="#191970" points="725.6132,-80.5656 715.1535,-82.2522 724.3821,-87.4565 725.6132,-80.5656"/>
</g>
<!-- Node21 -->
<g id="node22" class="node">
<title>Node21</title>
<g id="a_node22"><a xlink:title=" ">
<polygon fill="#ffffff" stroke="#bfbfbf" points="620.0322,-.5 620.0322,-18.5 708.3223,-18.5 708.3223,-.5 620.0322,-.5"/>
<text text-anchor="middle" x="664.1772" y="-6.5" font-family="Helvetica,sans-Serif" font-size="10.00" fill="#000000">fdeep/fdeep.hpp</text>
</a>
</g>
</g>
<!-- Node20&#45;&gt;Node21 -->
<g id="edge26" class="edge">
<title>Node20&#45;&gt;Node21</title>
<path fill="none" stroke="#191970" d="M664.1772,-55.2808C664.1772,-47.3776 664.1772,-37.4316 664.1772,-28.8308"/>
<polygon fill="#191970" stroke="#191970" points="667.6773,-28.5842 664.1772,-18.5842 660.6773,-28.5842 667.6773,-28.5842"/>
</g>
<!-- Node22&#45;&gt;Node5 -->
<g id="edge29" class="edge">
<title>Node22&#45;&gt;Node5</title>
<path fill="none" stroke="#191970" d="M1625.2857,-128.5666C1432.7829,-124.0814 621.5387,-104.1308 510.1772,-84 506.6676,-83.3656 503.0536,-82.5158 499.4767,-81.5445"/>
<polygon fill="#191970" stroke="#191970" points="500.197,-78.1058 489.612,-78.5625 498.1714,-84.8064 500.197,-78.1058"/>
</g>
<!-- Node22&#45;&gt;Node6 -->
<g id="edge30" class="edge">
<title>Node22&#45;&gt;Node6</title>
<path fill="none" stroke="#191970" d="M1666.7918,-120.3473C1667.3088,-104.4848 1665.8528,-71.9607 1647.1772,-55 1609.6138,-20.8857 1456.5156,-12.3348 1387.3647,-10.2027"/>
<polygon fill="#191970" stroke="#191970" points="1387.1119,-6.6943 1377.0178,-9.9127 1386.9158,-13.6916 1387.1119,-6.6943"/>
</g>
<!-- Node22&#45;&gt;Node7 -->
<g id="edge31" class="edge">
<title>Node22&#45;&gt;Node7</title>
<path fill="none" stroke="#191970" d="M1625.0385,-127.1161C1519.1703,-120.7843 1239.2535,-102.7444 1148.1772,-84 1144.9473,-83.3352 1141.6234,-82.5115 1138.3184,-81.5967"/>
<polygon fill="#191970" stroke="#191970" points="1139.1583,-78.1942 1128.5732,-78.6474 1137.1306,-84.8941 1139.1583,-78.1942"/>
</g>
<!-- Node22&#45;&gt;Node8 -->
<g id="edge32" class="edge">
<title>Node22&#45;&gt;Node8</title>
<path fill="none" stroke="#191970" d="M1625.0118,-128.3608C1441.9082,-123.2091 705.9573,-101.5794 604.1772,-84 600.2197,-83.3165 596.13,-82.3947 592.0903,-81.3453"/>
<polygon fill="#191970" stroke="#191970" points="592.8317,-77.9172 582.255,-78.5368 590.9096,-84.6481 592.8317,-77.9172"/>
</g>
<!-- Node22&#45;&gt;Node9 -->
<g id="edge33" class="edge">
<title>Node22&#45;&gt;Node9</title>
<path fill="none" stroke="#191970" d="M1625.1647,-126.9428C1529.342,-120.7117 1293.0771,-103.7949 1216.1772,-84 1214.2197,-83.4961 1212.229,-82.8967 1210.2432,-82.2328"/>
<polygon fill="#191970" stroke="#191970" points="1211.1187,-78.8207 1200.5281,-78.5213 1208.6205,-85.3597 1211.1187,-78.8207"/>
</g>
<!-- Node22&#45;&gt;Node12 -->
<g id="edge34" class="edge">
<title>Node22&#45;&gt;Node12</title>
<path fill="none" stroke="#191970" d="M1625.2223,-126.8826C1565.0717,-122.2857 1449.7302,-110.5957 1355.1772,-84 1353.2777,-83.4657 1351.3439,-82.8505 1349.4115,-82.1817"/>
<polygon fill="#191970" stroke="#191970" points="1350.5157,-78.8562 1339.9264,-78.5153 1347.9919,-85.3854 1350.5157,-78.8562"/>
</g>
<!-- Node22&#45;&gt;Node13 -->
<g id="edge35" class="edge">
<title>Node22&#45;&gt;Node13</title>
<path fill="none" stroke="#191970" d="M1625.1697,-121.6824C1587.6361,-113.971 1530.852,-100.8966 1483.1772,-84 1481.9487,-83.5646 1480.703,-83.0973 1479.4523,-82.6068"/>
<polygon fill="#191970" stroke="#191970" points="1480.5318,-79.2616 1469.9618,-78.5366 1477.7726,-85.6949 1480.5318,-79.2616"/>
</g>
<!-- Node22&#45;&gt;Node14 -->
<g id="edge38" class="edge">
<title>Node22&#45;&gt;Node14</title>
<path fill="none" stroke="#191970" d="M1625.168,-124.82C1575.9411,-118.5347 1491.2569,-105.5869 1421.1772,-84 1419.5326,-83.4934 1417.8605,-82.9283 1416.1858,-82.3231"/>
<polygon fill="#191970" stroke="#191970" points="1417.324,-79.0089 1406.7393,-78.5472 1414.7259,-85.5089 1417.324,-79.0089"/>
</g>
<!-- Node22&#45;&gt;Node18 -->
<g id="edge46" class="edge">
<title>Node22&#45;&gt;Node18</title>
<path fill="none" stroke="#191970" d="M1658.4314,-120.3873C1650.7928,-111.4007 1638.9347,-97.4499 1629.5649,-86.4267"/>
<polygon fill="#191970" stroke="#191970" points="1632.1393,-84.0511 1622.9959,-78.6985 1626.8057,-88.5847 1632.1393,-84.0511"/>
</g>
<!-- Node22&#45;&gt;Node23 -->
<g id="edge28" class="edge">
<title>Node22&#45;&gt;Node23</title>
<path fill="none" stroke="#191970" d="M1707.3538,-128.0101C1822.2255,-123.5788 2144.4938,-109.1974 2247.1772,-84 2249.1404,-83.5183 2251.1352,-82.9355 2253.1242,-82.284"/>
<polygon fill="#191970" stroke="#191970" points="2254.7347,-85.4167 2262.8465,-78.6013 2252.2551,-78.8706 2254.7347,-85.4167"/>
</g>
<!-- Node24 -->
<g id="node25" class="node">
<title>Node24</title>
<g id="a_node25"><a xlink:title=" ">
<polygon fill="#ffffff" stroke="#bfbfbf" points="1828.2192,-60.5 1828.2192,-78.5 1888.1353,-78.5 1888.1353,-60.5 1828.2192,-60.5"/>
<text text-anchor="middle" x="1858.1772" y="-66.5" font-family="Helvetica,sans-Serif" font-size="10.00" fill="#000000">QLineEdit</text>
</a>
</g>
</g>
<!-- Node22&#45;&gt;Node24 -->
<g id="edge36" class="edge">
<title>Node22&#45;&gt;Node24</title>
<path fill="none" stroke="#191970" d="M1698.908,-120.4521C1730.0228,-111.6896 1778.0436,-97.7458 1819.1772,-84 1821.0271,-83.3818 1822.9205,-82.7328 1824.8278,-82.0662"/>
<polygon fill="#191970" stroke="#191970" points="1826.1133,-85.3235 1834.3419,-78.6495 1823.7474,-78.7354 1826.1133,-85.3235"/>
</g>
<!-- Node25 -->
<g id="node26" class="node">
<title>Node25</title>
<g id="a_node26"><a xlink:title=" ">
<polygon fill="#ffffff" stroke="#bfbfbf" points="1905.7759,-60.5 1905.7759,-78.5 1974.5786,-78.5 1974.5786,-60.5 1905.7759,-60.5"/>
<text text-anchor="middle" x="1940.1772" y="-66.5" font-family="Helvetica,sans-Serif" font-size="10.00" fill="#000000">QGroupBox</text>
</a>
</g>
</g>
<!-- Node22&#45;&gt;Node25 -->
<g id="edge37" class="edge">
<title>Node22&#45;&gt;Node25</title>
<path fill="none" stroke="#191970" d="M1707.4406,-123.0476C1753.9417,-115.3898 1831.6032,-101.4341 1897.1772,-84 1899.7992,-83.3029 1902.4939,-82.5309 1905.1943,-81.7169"/>
<polygon fill="#191970" stroke="#191970" points="1906.4061,-85.0044 1914.8787,-78.6432 1904.2884,-78.3324 1906.4061,-85.0044"/>
</g>
<!-- Node26 -->
<g id="node27" class="node">
<title>Node26</title>
<g id="a_node27"><a xlink:title=" ">
<polygon fill="#ffffff" stroke="#bfbfbf" points="1992.9458,-60.5 1992.9458,-78.5 2063.4087,-78.5 2063.4087,-60.5 1992.9458,-60.5"/>
<text text-anchor="middle" x="2028.1772" y="-66.5" font-family="Helvetica,sans-Serif" font-size="10.00" fill="#000000">QListWidget</text>
</a>
</g>
</g>
<!-- Node22&#45;&gt;Node26 -->
<g id="edge39" class="edge">
<title>Node22&#45;&gt;Node26</title>
<path fill="none" stroke="#191970" d="M1707.1169,-125.8587C1767.9116,-119.9496 1885.3992,-106.5991 1983.1772,-84 1986.3761,-83.2606 1989.674,-82.3983 1992.9618,-81.4696"/>
<polygon fill="#191970" stroke="#191970" points="1994.1207,-84.7759 2002.6861,-78.5402 1992.1016,-78.0734 1994.1207,-84.7759"/>
</g>
<!-- Node27 -->
<g id="node28" class="node">
<title>Node27</title>
<g id="a_node28"><a xlink:title=" ">
<polygon fill="#ffffff" stroke="#bfbfbf" points="2081.9014,-60.5 2081.9014,-78.5 2118.4531,-78.5 2118.4531,-60.5 2081.9014,-60.5"/>
<text text-anchor="middle" x="2100.1772" y="-66.5" font-family="Helvetica,sans-Serif" font-size="10.00" fill="#000000">QDir</text>
</a>
</g>
</g>
<!-- Node22&#45;&gt;Node27 -->
<g id="edge40" class="edge">
<title>Node22&#45;&gt;Node27</title>
<path fill="none" stroke="#191970" d="M1707.2182,-126.8094C1796.2519,-120.663 2004.5625,-104.525 2072.1772,-84 2073.4148,-83.6243 2074.6624,-83.1945 2075.9076,-82.7237"/>
<polygon fill="#191970" stroke="#191970" points="2077.5248,-85.834 2085.2017,-78.5322 2074.6469,-79.4529 2077.5248,-85.834"/>
</g>
<!-- Node28 -->
<g id="node29" class="node">
<title>Node28</title>
<g id="a_node29"><a xlink:title=" ">
<polygon fill="#ffffff" stroke="#bfbfbf" points="2136.4746,-60.5 2136.4746,-78.5 2237.8799,-78.5 2237.8799,-60.5 2136.4746,-60.5"/>
<text text-anchor="middle" x="2187.1772" y="-66.5" font-family="Helvetica,sans-Serif" font-size="10.00" fill="#000000">QAbstractItemView</text>
</a>
</g>
</g>
<!-- Node22&#45;&gt;Node28 -->
<g id="edge41" class="edge">
<title>Node22&#45;&gt;Node28</title>
<path fill="none" stroke="#191970" d="M1707.1305,-127.3702C1787.922,-122.7477 1973.3455,-110.0501 2127.1772,-84 2132.5263,-83.0942 2138.1062,-81.9796 2143.6164,-80.7742"/>
<polygon fill="#191970" stroke="#191970" points="2144.4299,-84.1786 2153.3946,-78.5319 2142.8653,-77.3556 2144.4299,-84.1786"/>
</g>
<!-- Node29 -->
<g id="node30" class="node">
<title>Node29</title>
<g id="a_node30"><a xlink:title=" ">
<polygon fill="#ffffff" stroke="#bfbfbf" points="1492.3843,-60.5 1492.3843,-78.5 1573.9702,-78.5 1573.9702,-60.5 1492.3843,-60.5"/>
<text text-anchor="middle" x="1533.1772" y="-66.5" font-family="Helvetica,sans-Serif" font-size="10.00" fill="#000000">QMessageBox</text>
</a>
</g>
</g>
<!-- Node22&#45;&gt;Node29 -->
<g id="edge42" class="edge">
<title>Node22&#45;&gt;Node29</title>
<path fill="none" stroke="#191970" d="M1645.9774,-120.3873C1623.6823,-110.3294 1587.6033,-94.0531 1562.2654,-82.6225"/>
<polygon fill="#191970" stroke="#191970" points="1563.6861,-79.4237 1553.1314,-78.5019 1560.8075,-85.8045 1563.6861,-79.4237"/>
</g>
<!-- Node30 -->
<g id="node31" class="node">
<title>Node30</title>
<g id="a_node31"><a xlink:href="_q_led_8h.html" target="_top" xlink:title=" ">
<polygon fill="#ffffff" stroke="#000000" points="1761.7759,-60.5 1761.7759,-78.5 1810.5786,-78.5 1810.5786,-60.5 1761.7759,-60.5"/>
<text text-anchor="middle" x="1786.1772" y="-66.5" font-family="Helvetica,sans-Serif" font-size="10.00" fill="#000000">QLed.h</text>
</a>
</g>
</g>
<!-- Node22&#45;&gt;Node30 -->
<g id="edge43" class="edge">
<title>Node22&#45;&gt;Node30</title>
<path fill="none" stroke="#191970" d="M1684.4027,-120.3873C1704.2527,-110.4623 1736.2128,-94.4822 1759.0209,-83.0782"/>
<polygon fill="#191970" stroke="#191970" points="1760.7945,-86.1046 1768.1735,-78.5019 1757.6639,-79.8436 1760.7945,-86.1046"/>
</g>
<!-- Node32 -->
<g id="node33" class="node">
<title>Node32</title>
<g id="a_node33"><a xlink:title=" ">
<polygon fill="#ffffff" stroke="#bfbfbf" points="1694.5073,-60.5 1694.5073,-78.5 1743.8472,-78.5 1743.8472,-60.5 1694.5073,-60.5"/>
<text text-anchor="middle" x="1719.1772" y="-66.5" font-family="Helvetica,sans-Serif" font-size="10.00" fill="#000000">fstream</text>
</a>
</g>
</g>
<!-- Node22&#45;&gt;Node32 -->
<g id="edge47" class="edge">
<title>Node22&#45;&gt;Node32</title>
<path fill="none" stroke="#191970" d="M1674.2268,-120.3873C1682.165,-111.4007 1694.4881,-97.4499 1704.2254,-86.4267"/>
<polygon fill="#191970" stroke="#191970" points="1707.0547,-88.5104 1711.0519,-78.6985 1701.8084,-83.8761 1707.0547,-88.5104"/>
</g>
<!-- Node30&#45;&gt;Node6 -->
<g id="edge45" class="edge">
<title>Node30&#45;&gt;Node6</title>
<path fill="none" stroke="#191970" d="M1768.0317,-60.3633C1763.2976,-58.3054 1758.1314,-56.3372 1753.1772,-55 1684.2612,-36.3986 1470.6611,-18.5138 1387.1408,-12.0447"/>
<polygon fill="#191970" stroke="#191970" points="1387.3984,-8.5543 1377.1597,-11.2781 1386.8623,-15.5337 1387.3984,-8.5543"/>
</g>
<!-- Node31 -->
<g id="node32" class="node">
<title>Node31</title>
<g id="a_node32"><a xlink:title=" ">
<polygon fill="#ffffff" stroke="#bfbfbf" points="1759.8423,-.5 1759.8423,-18.5 1812.5122,-18.5 1812.5122,-.5 1759.8423,-.5"/>
<text text-anchor="middle" x="1786.1772" y="-6.5" font-family="Helvetica,sans-Serif" font-size="10.00" fill="#000000">QFrame</text>
</a>
</g>
</g>
<!-- Node30&#45;&gt;Node31 -->
<g id="edge44" class="edge">
<title>Node30&#45;&gt;Node31</title>
<path fill="none" stroke="#191970" d="M1786.1772,-60.3873C1786.1772,-52.0174 1786.1772,-39.3414 1786.1772,-28.735"/>
<polygon fill="#191970" stroke="#191970" points="1789.6773,-28.6984 1786.1772,-18.6985 1782.6773,-28.6985 1789.6773,-28.6984"/>
</g>
<!-- Node34 -->
<g id="node35" class="node">
<title>Node34</title>
<g id="a_node35"><a xlink:title=" ">
<polygon fill="#ffffff" stroke="#bfbfbf" points="2325.1157,-60.5 2325.1157,-78.5 2357.2388,-78.5 2357.2388,-60.5 2325.1157,-60.5"/>
<text text-anchor="middle" x="2341.1772" y="-66.5" font-family="Helvetica,sans-Serif" font-size="10.00" fill="#000000">Iir.h</text>
</a>
</g>
</g>
<!-- Node33&#45;&gt;Node34 -->
<g id="edge49" class="edge">
<title>Node33&#45;&gt;Node34</title>
<path fill="none" stroke="#191970" d="M2307.2524,-120.3873C2313.126,-111.5769 2322.1805,-97.9951 2329.4583,-87.0784"/>
<polygon fill="#191970" stroke="#191970" points="2332.4101,-88.9605 2335.0449,-78.6985 2326.5857,-85.0775 2332.4101,-88.9605"/>
</g>
<!-- Node35&#45;&gt;Node18 -->
<g id="edge54" class="edge">
<title>Node35&#45;&gt;Node18</title>
<path fill="none" stroke="#191970" d="M2432.5265,-126.1073C2408.2263,-124.1847 2376.9763,-121.8097 2349.1772,-120 2054.257,-100.8005 1978.2582,-122.0808 1685.1772,-84 1672.8978,-82.4045 1659.5572,-79.8501 1647.8477,-77.3267"/>
<polygon fill="#191970" stroke="#191970" points="1648.567,-73.9012 1638.0451,-75.142 1647.0442,-80.7336 1648.567,-73.9012"/>
</g>
<!-- Node36 -->
<g id="node37" class="node">
<title>Node36</title>
<g id="a_node37"><a xlink:title=" ">
<polygon fill="#ffffff" stroke="#bfbfbf" points="2375.3047,-60.5 2375.3047,-78.5 2495.0498,-78.5 2495.0498,-60.5 2375.3047,-60.5"/>
<text text-anchor="middle" x="2435.1772" y="-66.5" font-family="Helvetica,sans-Serif" font-size="10.00" fill="#000000">../cppTimer/CppTimer.h</text>
</a>
</g>
</g>
<!-- Node35&#45;&gt;Node36 -->
<g id="edge51" class="edge">
<title>Node35&#45;&gt;Node36</title>
<path fill="none" stroke="#191970" d="M2468.254,-120.3873C2462.5845,-111.665 2453.8753,-98.2663 2446.8166,-87.4067"/>
<polygon fill="#191970" stroke="#191970" points="2449.5407,-85.1754 2441.1563,-78.6985 2443.6716,-88.9904 2449.5407,-85.1754"/>
</g>
<!-- Node37 -->
<g id="node38" class="node">
<title>Node37</title>
<g id="a_node38"><a xlink:href="_ring_buff_8h.html" target="_top" xlink:title=" ">
<polygon fill="#ffffff" stroke="#000000" points="2512.7505,-60.5 2512.7505,-78.5 2583.604,-78.5 2583.604,-60.5 2512.7505,-60.5"/>
<text text-anchor="middle" x="2548.1772" y="-66.5" font-family="Helvetica,sans-Serif" font-size="10.00" fill="#000000">../RingBuff.h</text>
</a>
</g>
</g>
<!-- Node35&#45;&gt;Node37 -->
<g id="edge52" class="edge">
<title>Node35&#45;&gt;Node37</title>
<path fill="none" stroke="#191970" d="M2485.4163,-120.3873C2496.9344,-111.0483 2515.0646,-96.3481 2528.8832,-85.1438"/>
<polygon fill="#191970" stroke="#191970" points="2531.2692,-87.7152 2536.8325,-78.6985 2526.8606,-82.2779 2531.2692,-87.7152"/>
</g>
<!-- Node38 -->
<g id="node39" class="node">
<title>Node38</title>
<g id="a_node39"><a xlink:title=" ">
<polygon fill="#ffffff" stroke="#bfbfbf" points="2601.665,-60.5 2601.665,-78.5 2652.6895,-78.5 2652.6895,-60.5 2601.665,-60.5"/>
<text text-anchor="middle" x="2627.1772" y="-66.5" font-family="Helvetica,sans-Serif" font-size="10.00" fill="#000000">unistd.h</text>
</a>
</g>
</g>
<!-- Node35&#45;&gt;Node38 -->
<g id="edge53" class="edge">
<title>Node35&#45;&gt;Node38</title>
<path fill="none" stroke="#191970" d="M2498.2012,-120.4358C2522.0933,-111.3746 2559.7622,-96.9618 2592.1772,-84 2593.3796,-83.5192 2594.604,-83.0266 2595.8399,-82.5269"/>
<polygon fill="#191970" stroke="#191970" points="2597.4343,-85.6564 2605.3669,-78.6333 2594.786,-79.1767 2597.4343,-85.6564"/>
</g>
<!-- Node39 -->
<g id="node40" class="node">
<title>Node39</title>
<g id="a_node40"><a xlink:title=" ">
<polygon fill="#ffffff" stroke="#bfbfbf" points="2857.0566,-.5 2857.0566,-18.5 2905.2979,-18.5 2905.2979,-.5 2857.0566,-.5"/>
<text text-anchor="middle" x="2881.1772" y="-6.5" font-family="Helvetica,sans-Serif" font-size="10.00" fill="#000000">stdint.h</text>
</a>
</g>
</g>
<!-- Node35&#45;&gt;Node39 -->
<g id="edge55" class="edge">
<title>Node35&#45;&gt;Node39</title>
<path fill="none" stroke="#191970" d="M2515.8618,-121.2124C2518.6704,-120.7675 2521.4615,-120.3574 2524.1772,-120 2577.8623,-112.9349 2973.3302,-123.6774 3010.1772,-84 3042.1494,-49.5719 2963.7791,-26.4893 2915.5738,-15.9875"/>
<polygon fill="#191970" stroke="#191970" points="2916.0104,-12.5031 2905.5053,-13.8795 2914.5759,-19.3545 2916.0104,-12.5031"/>
</g>
<!-- Node40 -->
<g id="node41" class="node">
<title>Node40</title>
<g id="a_node41"><a xlink:title=" ">
<polygon fill="#ffffff" stroke="#bfbfbf" points="2813.335,-60.5 2813.335,-78.5 2861.0195,-78.5 2861.0195,-60.5 2813.335,-60.5"/>
<text text-anchor="middle" x="2837.1772" y="-66.5" font-family="Helvetica,sans-Serif" font-size="10.00" fill="#000000">stdlib.h</text>
</a>
</g>
</g>
<!-- Node35&#45;&gt;Node40 -->
<g id="edge56" class="edge">
<title>Node35&#45;&gt;Node40</title>
<path fill="none" stroke="#191970" d="M2515.8864,-121.3818C2518.689,-120.896 2521.4722,-120.4305 2524.1772,-120 2648.0868,-100.2811 2683.2854,-117.5795 2804.1772,-84 2805.8768,-83.5279 2807.6022,-82.984 2809.3271,-82.3898"/>
<polygon fill="#191970" stroke="#191970" points="2810.9878,-85.498 2819.018,-78.5866 2808.4305,-78.9818 2810.9878,-85.498"/>
</g>
<!-- Node41 -->
<g id="node42" class="node">
<title>Node41</title>
<g id="a_node42"><a xlink:title=" ">
<polygon fill="#ffffff" stroke="#bfbfbf" points="2878.8374,-60.5 2878.8374,-78.5 2931.5171,-78.5 2931.5171,-60.5 2878.8374,-60.5"/>
<text text-anchor="middle" x="2905.1772" y="-66.5" font-family="Helvetica,sans-Serif" font-size="10.00" fill="#000000">QObject</text>
</a>
</g>
</g>
<!-- Node35&#45;&gt;Node41 -->
<g id="edge57" class="edge">
<title>Node35&#45;&gt;Node41</title>
<path fill="none" stroke="#191970" d="M2515.8748,-121.3059C2518.6802,-120.8384 2521.4672,-120.3977 2524.1772,-120 2677.1466,-97.5506 2720.3078,-121.9834 2870.1772,-84 2872.3529,-83.4486 2874.5705,-82.7865 2876.7801,-82.0531"/>
<polygon fill="#191970" stroke="#191970" points="2878.1242,-85.2872 2886.2619,-78.5029 2875.6696,-78.7317 2878.1242,-85.2872"/>
</g>
<!-- Node42 -->
<g id="node43" class="node">
<title>Node42</title>
<g id="a_node43"><a xlink:title=" ">
<polygon fill="#ffffff" stroke="#bfbfbf" points="2949.6724,-60.5 2949.6724,-78.5 3000.6821,-78.5 3000.6821,-60.5 2949.6724,-60.5"/>
<text text-anchor="middle" x="2975.1772" y="-66.5" font-family="Helvetica,sans-Serif" font-size="10.00" fill="#000000">QMutex</text>
</a>
</g>
</g>
<!-- Node35&#45;&gt;Node42 -->
<g id="edge58" class="edge">
<title>Node35&#45;&gt;Node42</title>
<path fill="none" stroke="#191970" d="M2515.8671,-121.2514C2518.6744,-120.7971 2521.4638,-120.3742 2524.1772,-120 2708.0172,-94.6472 2759.8963,-128.0303 2940.1772,-84 2942.3576,-83.4675 2944.5786,-82.8193 2946.7907,-82.0957"/>
<polygon fill="#191970" stroke="#191970" points="2948.1259,-85.3334 2956.2776,-78.5659 2945.6848,-78.7728 2948.1259,-85.3334"/>
</g>
<!-- Node43 -->
<g id="node44" class="node">
<title>Node43</title>
<g id="a_node44"><a xlink:href="_m_c_p3428_8h.html" target="_top" xlink:title=" ">
<polygon fill="#ffffff" stroke="#ff0000" points="2670.9829,-60.5 2670.9829,-78.5 2795.3716,-78.5 2795.3716,-60.5 2670.9829,-60.5"/>
<text text-anchor="middle" x="2733.1772" y="-66.5" font-family="Helvetica,sans-Serif" font-size="10.00" fill="#000000">../MCP3428/MCP3428.h</text>
</a>
</g>
</g>
<!-- Node35&#45;&gt;Node43 -->
<g id="edge59" class="edge">
<title>Node35&#45;&gt;Node43</title>
<path fill="none" stroke="#191970" d="M2513.2326,-120.4524C2558.9766,-109.8554 2634.7933,-92.2916 2684.3731,-80.806"/>
<polygon fill="#191970" stroke="#191970" points="2685.2762,-84.1895 2694.2282,-78.5229 2683.6963,-77.3701 2685.2762,-84.1895"/>
</g>
<!-- Node45 -->
<g id="node45" class="node">
<title>Node45</title>
<g id="a_node45"><a xlink:href="_m_p_u6050_8h.html" target="_top" xlink:title=" ">
<polygon fill="#ffffff" stroke="#ff0000" points="3056.9829,-60.5 3056.9829,-78.5 3181.3716,-78.5 3181.3716,-60.5 3056.9829,-60.5"/>
<text text-anchor="middle" x="3119.1772" y="-66.5" font-family="Helvetica,sans-Serif" font-size="10.00" fill="#000000">../MPU6050/MPU6050.h</text>
</a>
</g>
</g>
<!-- Node35&#45;&gt;Node45 -->
<g id="edge61" class="edge">
<title>Node35&#45;&gt;Node45</title>
<path fill="none" stroke="#191970" d="M2515.8599,-121.1977C2518.6689,-120.7563 2521.4607,-120.351 2524.1772,-120 2753.4916,-90.3681 2813.8742,-113.7193 3043.1772,-84 3050.8576,-83.0046 3058.9335,-81.722 3066.8371,-80.3322"/>
<polygon fill="#191970" stroke="#191970" points="3067.5054,-83.7681 3076.7135,-78.5279 3066.2473,-76.8821 3067.5054,-83.7681"/>
</g>
<!-- Node43&#45;&gt;Node39 -->
<g id="edge60" class="edge">
<title>Node43&#45;&gt;Node39</title>
<path fill="none" stroke="#191970" d="M2755.6553,-60.3873C2780.6834,-50.2407 2821.3216,-33.7658 2849.551,-22.3215"/>
<polygon fill="#191970" stroke="#191970" points="2851.0202,-25.5026 2858.9726,-18.5019 2848.3902,-19.0154 2851.0202,-25.5026"/>
</g>
</g>
</svg>
