<?xml version="1.0" encoding="UTF-8" standalone="no"?>
<!DOCTYPE svg PUBLIC "-//W3C//DTD SVG 1.1//EN"
 "http://www.w3.org/Graphics/SVG/1.1/DTD/svg11.dtd">
<!-- Generated by graphviz version 2.40.1 (20161225.0304)
 -->
<!-- Title: /Users/jamielee/Desktop/uni stuff/RTE5/ENG5220/code/Qt/mainwindow.h Pages: 1 -->
<svg width="3287pt" height="222pt"
 viewBox="0.00 0.00 3286.68 222.00" xmlns="http://www.w3.org/2000/svg" xmlns:xlink="http://www.w3.org/1999/xlink">
<g id="graph0" class="graph" transform="scale(1 1) rotate(0) translate(4 218)">
<title>/Users/jamielee/Desktop/uni stuff/RTE5/ENG5220/code/Qt/mainwindow.h</title>
<polygon fill="#ffffff" stroke="transparent" points="-4,4 -4,-218 3282.6821,-218 3282.6821,4 -4,4"/>
<!-- Node0 -->
<g id="node1" class="node">
<title>Node0</title>
<g id="a_node1"><a xlink:title=" ">
<polygon fill="#bfbfbf" stroke="#000000" points="1839.937,-175.5 1839.937,-213.5 1968.4175,-213.5 1968.4175,-175.5 1839.937,-175.5"/>
<text text-anchor="start" x="1847.937" y="-201.5" font-family="Helvetica,sans-Serif" font-size="10.00" fill="#000000">/Users/jamielee/Desktop</text>
<text text-anchor="start" x="1847.937" y="-191.5" font-family="Helvetica,sans-Serif" font-size="10.00" fill="#000000">/uni stuff/RTE5/ENG5220</text>
<text text-anchor="middle" x="1904.1772" y="-181.5" font-family="Helvetica,sans-Serif" font-size="10.00" fill="#000000">/code/Qt/mainwindow.h</text>
</a>
</g>
</g>
<!-- Node1 -->
<g id="node2" class="node">
<title>Node1</title>
<g id="a_node2"><a xlink:href="_monitor_window_8h.html" target="_top" xlink:title=" ">
<polygon fill="#ffffff" stroke="#000000" points="387.8252,-120.5 387.8252,-138.5 480.5293,-138.5 480.5293,-120.5 387.8252,-120.5"/>
<text text-anchor="middle" x="434.1772" y="-126.5" font-family="Helvetica,sans-Serif" font-size="10.00" fill="#000000">MonitorWindow.h</text>
</a>
</g>
</g>
<!-- Node0&#45;&gt;Node1 -->
<g id="edge1" class="edge">
<title>Node0&#45;&gt;Node1</title>
<path fill="none" stroke="#191970" d="M1839.6679,-191.7259C1653.4995,-183.7081 1099.2519,-159.7528 639.1772,-139 588.9754,-136.7355 531.8623,-134.0825 490.693,-132.1565"/>
<polygon fill="#191970" stroke="#191970" points="490.7364,-128.6548 480.5836,-131.6832 490.4089,-135.6471 490.7364,-128.6548"/>
</g>
<!-- Node5 -->
<g id="node6" class="node">
<title>Node5</title>
<g id="a_node6"><a xlink:title=" ">
<polygon fill="#ffffff" stroke="#bfbfbf" points="430.6602,-60.5 430.6602,-78.5 501.6943,-78.5 501.6943,-60.5 430.6602,-60.5"/>
<text text-anchor="middle" x="466.1772" y="-66.5" font-family="Helvetica,sans-Serif" font-size="10.00" fill="#000000">QBoxLayout</text>
</a>
</g>
</g>
<!-- Node0&#45;&gt;Node5 -->
<g id="edge66" class="edge">
<title>Node0&#45;&gt;Node5</title>
<path fill="none" stroke="#191970" d="M1839.8646,-193.9784C1671.8398,-192.0158 1206.062,-182.725 821.1772,-139 681.7073,-123.1555 646.2949,-118.2768 510.1772,-84 507.2305,-83.258 504.1952,-82.4191 501.1616,-81.5282"/>
<polygon fill="#191970" stroke="#191970" points="502.1766,-78.1786 491.5887,-78.5601 500.1036,-84.8646 502.1766,-78.1786"/>
</g>
<!-- Node8 -->
<g id="node9" class="node">
<title>Node8</title>
<g id="a_node9"><a xlink:title=" ">
<polygon fill="#ffffff" stroke="#bfbfbf" points="519.436,-60.5 519.436,-78.5 594.9185,-78.5 594.9185,-60.5 519.436,-60.5"/>
<text text-anchor="middle" x="557.1772" y="-66.5" font-family="Helvetica,sans-Serif" font-size="10.00" fill="#000000">QPushButton</text>
</a>
</g>
</g>
<!-- Node0&#45;&gt;Node8 -->
<g id="edge64" class="edge">
<title>Node0&#45;&gt;Node8</title>
<path fill="none" stroke="#191970" d="M1839.8393,-191.6295C1697.0162,-184.9734 1342.7521,-166.8948 1047.1772,-139 849.6544,-120.3588 798.1617,-125.627 604.1772,-84 600.7332,-83.2609 597.1788,-82.3836 593.639,-81.4317"/>
<polygon fill="#191970" stroke="#191970" points="594.3831,-78.0039 583.8053,-78.6046 592.4489,-84.7314 594.3831,-78.0039"/>
</g>
<!-- Node11 -->
<g id="node12" class="node">
<title>Node11</title>
<g id="a_node12"><a xlink:href="_interpret_window_8h.html" target="_top" xlink:title=" ">
<polygon fill="#ffffff" stroke="#000000" points="1055.877,-120.5 1055.877,-138.5 1152.4775,-138.5 1152.4775,-120.5 1055.877,-120.5"/>
<text text-anchor="middle" x="1104.1772" y="-126.5" font-family="Helvetica,sans-Serif" font-size="10.00" fill="#000000">InterpretWindow.h</text>
</a>
</g>
</g>
<!-- Node0&#45;&gt;Node11 -->
<g id="edge11" class="edge">
<title>Node0&#45;&gt;Node11</title>
<path fill="none" stroke="#191970" d="M1839.7252,-189.2633C1687.7651,-176.9165 1308.9066,-146.1343 1162.8696,-134.2688"/>
<polygon fill="#191970" stroke="#191970" points="1163.0142,-130.7691 1152.7636,-133.4476 1162.4473,-137.7461 1163.0142,-130.7691"/>
</g>
<!-- Node12 -->
<g id="node13" class="node">
<title>Node12</title>
<g id="a_node13"><a xlink:title=" ">
<polygon fill="#ffffff" stroke="#bfbfbf" points="1297.0542,-60.5 1297.0542,-78.5 1345.3003,-78.5 1345.3003,-60.5 1297.0542,-60.5"/>
<text text-anchor="middle" x="1321.1772" y="-66.5" font-family="Helvetica,sans-Serif" font-size="10.00" fill="#000000">QLabel</text>
</a>
</g>
</g>
<!-- Node0&#45;&gt;Node12 -->
<g id="edge67" class="edge">
<title>Node0&#45;&gt;Node12</title>
<path fill="none" stroke="#191970" d="M1839.7445,-188.0544C1764.7557,-179.8364 1637.493,-163.6654 1530.1772,-139 1450.7203,-120.7377 1431.6558,-112.2478 1355.1772,-84 1353.7852,-83.4858 1352.3672,-82.9463 1350.9393,-82.39"/>
<polygon fill="#191970" stroke="#191970" points="1352.1244,-79.0937 1341.5424,-78.5709 1349.4887,-85.5786 1352.1244,-79.0937"/>
</g>
<!-- Node13 -->
<g id="node14" class="node">
<title>Node13</title>
<g id="a_node14"><a xlink:title=" ">
<polygon fill="#ffffff" stroke="#bfbfbf" points="1430.2832,-60.5 1430.2832,-78.5 1474.0713,-78.5 1474.0713,-60.5 1430.2832,-60.5"/>
<text text-anchor="middle" x="1452.1772" y="-66.5" font-family="Helvetica,sans-Serif" font-size="10.00" fill="#000000">QFont</text>
</a>
</g>
</g>
<!-- Node0&#45;&gt;Node13 -->
<g id="edge71" class="edge">
<title>Node0&#45;&gt;Node13</title>
<path fill="none" stroke="#191970" d="M1839.7965,-189.9337C1772.8683,-183.7239 1665.8371,-169.6485 1578.1772,-139 1539.074,-125.3283 1497.7645,-100.2094 1473.5122,-84.2082"/>
<polygon fill="#191970" stroke="#191970" points="1475.348,-81.2252 1465.0926,-78.5649 1471.4506,-87.04 1475.348,-81.2252"/>
</g>
<!-- Node19 -->
<g id="node20" class="node">
<title>Node19</title>
<g id="a_node20"><a xlink:title=" ">
<polygon fill="#ffffff" stroke="#bfbfbf" points="1225.0049,-60.5 1225.0049,-78.5 1279.3496,-78.5 1279.3496,-60.5 1225.0049,-60.5"/>
<text text-anchor="middle" x="1252.1772" y="-66.5" font-family="Helvetica,sans-Serif" font-size="10.00" fill="#000000">iostream</text>
</a>
</g>
</g>
<!-- Node0&#45;&gt;Node19 -->
<g id="edge72" class="edge">
<title>Node0&#45;&gt;Node19</title>
<path fill="none" stroke="#191970" d="M1839.9314,-190.5154C1752.1651,-184.1775 1590.2583,-169.2874 1455.1772,-139 1392.5153,-124.9501 1322.1924,-98.3066 1282.9416,-82.4017"/>
<polygon fill="#191970" stroke="#191970" points="1284.2364,-79.1499 1273.6556,-78.6037 1281.5863,-85.6289 1284.2364,-79.1499"/>
</g>
<!-- Node22 -->
<g id="node23" class="node">
<title>Node22</title>
<g id="a_node23"><a xlink:href="_train_window_8h.html" target="_top" xlink:title=" ">
<polygon fill="#ffffff" stroke="#000000" points="1587.2891,-120.5 1587.2891,-138.5 1669.0654,-138.5 1669.0654,-120.5 1587.2891,-120.5"/>
<text text-anchor="middle" x="1628.1772" y="-126.5" font-family="Helvetica,sans-Serif" font-size="10.00" fill="#000000">TrainWindow.h</text>
</a>
</g>
</g>
<!-- Node0&#45;&gt;Node22 -->
<g id="edge27" class="edge">
<title>Node0&#45;&gt;Node22</title>
<path fill="none" stroke="#191970" d="M1839.8158,-179.3424C1789.9099,-167.5892 1721.8331,-151.5566 1676.5111,-140.883"/>
<polygon fill="#191970" stroke="#191970" points="1677.1721,-137.443 1666.6361,-138.5573 1675.5674,-144.2566 1677.1721,-137.443"/>
</g>
<!-- Node23 -->
<g id="node24" class="node">
<title>Node23</title>
<g id="a_node24"><a xlink:href="config_8h.html" target="_top" xlink:title=" ">
<polygon fill="#ffffff" stroke="#000000" points="2155.665,-60.5 2155.665,-78.5 2206.6895,-78.5 2206.6895,-60.5 2155.665,-60.5"/>
<text text-anchor="middle" x="2181.1772" y="-66.5" font-family="Helvetica,sans-Serif" font-size="10.00" fill="#000000">config.h</text>
</a>
</g>
</g>
<!-- Node0&#45;&gt;Node23 -->
<g id="edge62" class="edge">
<title>Node0&#45;&gt;Node23</title>
<path fill="none" stroke="#191970" d="M1946.5491,-175.3791C2003.3821,-149.7325 2102.828,-104.8562 2151.9779,-82.6766"/>
<polygon fill="#191970" stroke="#191970" points="2153.4345,-85.8592 2161.1098,-78.5557 2150.5552,-79.4788 2153.4345,-85.8592"/>
</g>
<!-- Node29 -->
<g id="node30" class="node">
<title>Node29</title>
<g id="a_node30"><a xlink:title=" ">
<polygon fill="#ffffff" stroke="#bfbfbf" points="2224.3843,-60.5 2224.3843,-78.5 2305.9702,-78.5 2305.9702,-60.5 2224.3843,-60.5"/>
<text text-anchor="middle" x="2265.1772" y="-66.5" font-family="Helvetica,sans-Serif" font-size="10.00" fill="#000000">QMessageBox</text>
</a>
</g>
</g>
<!-- Node0&#45;&gt;Node29 -->
<g id="edge70" class="edge">
<title>Node0&#45;&gt;Node29</title>
<path fill="none" stroke="#191970" d="M1959.3983,-175.3791C2034.3917,-149.4119 2166.3174,-103.7313 2229.4944,-81.8556"/>
<polygon fill="#191970" stroke="#191970" points="2230.72,-85.1351 2239.0243,-78.5557 2228.4296,-78.5204 2230.72,-85.1351"/>
</g>
<!-- Node33 -->
<g id="node34" class="node">
<title>Node33</title>
<g id="a_node34"><a xlink:href="_sample_timer_8h.html" target="_top" xlink:title=" ">
<polygon fill="#ffffff" stroke="#000000" points="2414.7349,-120.5 2414.7349,-138.5 2497.6196,-138.5 2497.6196,-120.5 2414.7349,-120.5"/>
<text text-anchor="middle" x="2456.1772" y="-126.5" font-family="Helvetica,sans-Serif" font-size="10.00" fill="#000000">SampleTimer.h</text>
</a>
</g>
</g>
<!-- Node0&#45;&gt;Node33 -->
<g id="edge48" class="edge">
<title>Node0&#45;&gt;Node33</title>
<path fill="none" stroke="#191970" d="M1968.579,-186.9165C2079.2482,-173.8848 2303.353,-147.4956 2404.5365,-135.5809"/>
<polygon fill="#191970" stroke="#191970" points="2404.9949,-139.0512 2414.517,-134.4056 2404.1763,-132.0992 2404.9949,-139.0512"/>
</g>
<!-- Node46 -->
<g id="node46" class="node">
<title>Node46</title>
<g id="a_node46"><a xlink:title=" ">
<polygon fill="#ffffff" stroke="#bfbfbf" points="2515.6675,-120.5 2515.6675,-138.5 2596.687,-138.5 2596.687,-120.5 2515.6675,-120.5"/>
<text text-anchor="middle" x="2556.1772" y="-126.5" font-family="Helvetica,sans-Serif" font-size="10.00" fill="#000000">QMainWindow</text>
</a>
</g>
</g>
<!-- Node0&#45;&gt;Node46 -->
<g id="edge63" class="edge">
<title>Node0&#45;&gt;Node46</title>
<path fill="none" stroke="#191970" d="M1968.5594,-190.5976C2077.1189,-183.5713 2303.6227,-166.994 2505.3761,-138.9806"/>
<polygon fill="#191970" stroke="#191970" points="2506.1546,-142.4058 2515.5722,-137.552 2505.1833,-135.4735 2506.1546,-142.4058"/>
</g>
<!-- Node47 -->
<g id="node47" class="node">
<title>Node47</title>
<g id="a_node47"><a xlink:title=" ">
<polygon fill="#ffffff" stroke="#bfbfbf" points="2614.2759,-120.5 2614.2759,-138.5 2668.0786,-138.5 2668.0786,-120.5 2614.2759,-120.5"/>
<text text-anchor="middle" x="2641.1772" y="-126.5" font-family="Helvetica,sans-Serif" font-size="10.00" fill="#000000">QLayout</text>
</a>
</g>
</g>
<!-- Node0&#45;&gt;Node47 -->
<g id="edge65" class="edge">
<title>Node0&#45;&gt;Node47</title>
<path fill="none" stroke="#191970" d="M1968.5589,-193.4067C2091.0602,-190.4587 2366.0521,-179.6773 2604.2718,-139.0738"/>
<polygon fill="#191970" stroke="#191970" points="2604.8971,-142.5177 2614.1563,-137.3681 2603.7067,-135.6197 2604.8971,-142.5177"/>
</g>
<!-- Node48 -->
<g id="node48" class="node">
<title>Node48</title>
<g id="a_node48"><a xlink:title=" ">
<polygon fill="#ffffff" stroke="#bfbfbf" points="2685.6157,-120.5 2685.6157,-138.5 2742.7388,-138.5 2742.7388,-120.5 2685.6157,-120.5"/>
<text text-anchor="middle" x="2714.1772" y="-126.5" font-family="Helvetica,sans-Serif" font-size="10.00" fill="#000000">QPixmap</text>
</a>
</g>
</g>
<!-- Node0&#45;&gt;Node48 -->
<g id="edge68" class="edge">
<title>Node0&#45;&gt;Node48</title>
<path fill="none" stroke="#191970" d="M1968.512,-193.7756C2099.9607,-191.453 2408.7604,-181.6844 2675.3394,-139.0393"/>
<polygon fill="#191970" stroke="#191970" points="2676.2894,-142.4311 2685.6015,-137.3778 2675.1706,-135.5211 2676.2894,-142.4311"/>
</g>
<!-- Node49 -->
<g id="node49" class="node">
<title>Node49</title>
<g id="a_node49"><a xlink:title=" ">
<polygon fill="#ffffff" stroke="#bfbfbf" points="2760.6602,-120.5 2760.6602,-138.5 2831.6943,-138.5 2831.6943,-120.5 2760.6602,-120.5"/>
<text text-anchor="middle" x="2796.1772" y="-126.5" font-family="Helvetica,sans-Serif" font-size="10.00" fill="#000000">QToolButton</text>
</a>
</g>
</g>
<!-- Node0&#45;&gt;Node49 -->
<g id="edge69" class="edge">
<title>Node0&#45;&gt;Node49</title>
<path fill="none" stroke="#191970" d="M1968.5997,-193.5155C2109.1247,-190.67 2453.738,-179.8991 2750.155,-139.1127"/>
<polygon fill="#191970" stroke="#191970" points="2750.8133,-142.5549 2760.2361,-137.7112 2749.8494,-135.6216 2750.8133,-142.5549"/>
</g>
<!-- Node50 -->
<g id="node50" class="node">
<title>Node50</title>
<g id="a_node50"><a xlink:title=" ">
<polygon fill="#ffffff" stroke="#bfbfbf" points="2849.5615,-120.5 2849.5615,-138.5 2892.793,-138.5 2892.793,-120.5 2849.5615,-120.5"/>
<text text-anchor="middle" x="2871.1772" y="-126.5" font-family="Helvetica,sans-Serif" font-size="10.00" fill="#000000">cmath</text>
</a>
</g>
</g>
<!-- Node0&#45;&gt;Node50 -->
<g id="edge73" class="edge">
<title>Node0&#45;&gt;Node50</title>
<path fill="none" stroke="#191970" d="M1968.4209,-192.7641C2148.1302,-187.5858 2654.3859,-170.7123 2839.4941,-138.8624"/>
<polygon fill="#191970" stroke="#191970" points="2840.1562,-142.2996 2849.3813,-137.0891 2838.9204,-135.4095 2840.1562,-142.2996"/>
</g>
<!-- Node2 -->
<g id="node3" class="node">
<title>Node2</title>
<g id="a_node3"><a xlink:title=" ">
<polygon fill="#ffffff" stroke="#bfbfbf" points="62.4336,-60.5 62.4336,-78.5 147.9209,-78.5 147.9209,-60.5 62.4336,-60.5"/>
<text text-anchor="middle" x="105.1772" y="-66.5" font-family="Helvetica,sans-Serif" font-size="10.00" fill="#000000">qwt/qwt_knob.h</text>
</a>
</g>
</g>
<!-- Node1&#45;&gt;Node2 -->
<g id="edge2" class="edge">
<title>Node1&#45;&gt;Node2</title>
<path fill="none" stroke="#191970" d="M387.8116,-123.4612C332.5584,-115.9021 237.6008,-101.7625 157.1772,-84 153.3235,-83.1489 149.3307,-82.1854 145.3487,-81.1696"/>
<polygon fill="#191970" stroke="#191970" points="146.1217,-77.7537 135.5584,-78.571 144.3258,-84.5194 146.1217,-77.7537"/>
</g>
<!-- Node3 -->
<g id="node4" class="node">
<title>Node3</title>
<g id="a_node4"><a xlink:title=" ">
<polygon fill="#ffffff" stroke="#bfbfbf" points="166.2144,-60.5 166.2144,-78.5 246.1401,-78.5 246.1401,-60.5 166.2144,-60.5"/>
<text text-anchor="middle" x="206.1772" y="-66.5" font-family="Helvetica,sans-Serif" font-size="10.00" fill="#000000">qwt/qwt_plot.h</text>
</a>
</g>
</g>
<!-- Node1&#45;&gt;Node3 -->
<g id="edge3" class="edge">
<title>Node1&#45;&gt;Node3</title>
<path fill="none" stroke="#191970" d="M396.6969,-120.4217C360.4033,-111.5251 303.8721,-97.3883 255.1772,-84 252.055,-83.1416 248.8269,-82.2331 245.5868,-81.3064"/>
<polygon fill="#191970" stroke="#191970" points="246.5027,-77.9279 235.9235,-78.5033 244.5525,-84.6508 246.5027,-77.9279"/>
</g>
<!-- Node4 -->
<g id="node5" class="node">
<title>Node4</title>
<g id="a_node5"><a xlink:title=" ">
<polygon fill="#ffffff" stroke="#bfbfbf" points="264.207,-60.5 264.207,-78.5 374.1475,-78.5 374.1475,-60.5 264.207,-60.5"/>
<text text-anchor="middle" x="319.1772" y="-66.5" font-family="Helvetica,sans-Serif" font-size="10.00" fill="#000000">qwt/qwt_plot_curve.h</text>
</a>
</g>
</g>
<!-- Node1&#45;&gt;Node4 -->
<g id="edge4" class="edge">
<title>Node1&#45;&gt;Node4</title>
<path fill="none" stroke="#191970" d="M416.7112,-120.3873C397.7732,-110.5066 367.3331,-94.6248 345.4953,-83.2312"/>
<polygon fill="#191970" stroke="#191970" points="346.9157,-80.0245 336.4308,-78.5019 343.6777,-86.2306 346.9157,-80.0245"/>
</g>
<!-- Node1&#45;&gt;Node5 -->
<g id="edge5" class="edge">
<title>Node1&#45;&gt;Node5</title>
<path fill="none" stroke="#191970" d="M439.0374,-120.3873C443.6423,-111.7531 450.6911,-98.5365 456.4511,-87.7366"/>
<polygon fill="#191970" stroke="#191970" points="459.6537,-89.1691 461.2714,-78.6985 453.4772,-85.8749 459.6537,-89.1691"/>
</g>
<!-- Node6 -->
<g id="node7" class="node">
<title>Node6</title>
<g id="a_node7"><a xlink:title=" ">
<polygon fill="#ffffff" stroke="#bfbfbf" points="1247.3398,-.5 1247.3398,-18.5 1295.0146,-18.5 1295.0146,-.5 1247.3398,-.5"/>
<text text-anchor="middle" x="1271.1772" y="-6.5" font-family="Helvetica,sans-Serif" font-size="10.00" fill="#000000">QColor</text>
</a>
</g>
</g>
<!-- Node1&#45;&gt;Node6 -->
<g id="edge6" class="edge">
<title>Node1&#45;&gt;Node6</title>
<path fill="none" stroke="#191970" d="M428.3185,-120.315C419.1671,-104.6953 404.1963,-72.9142 421.1772,-55 449.69,-24.9201 1081.1293,-12.6162 1236.7519,-10.0347"/>
<polygon fill="#191970" stroke="#191970" points="1237.1781,-13.5283 1247.1196,-9.8655 1237.0638,-6.5292 1237.1781,-13.5283"/>
</g>
<!-- Node7 -->
<g id="node8" class="node">
<title>Node7</title>
<g id="a_node8"><a xlink:title=" ">
<polygon fill="#ffffff" stroke="#bfbfbf" points="1069.5,-60.5 1069.5,-78.5 1138.8545,-78.5 1138.8545,-60.5 1069.5,-60.5"/>
<text text-anchor="middle" x="1104.1772" y="-66.5" font-family="Helvetica,sans-Serif" font-size="10.00" fill="#000000">QCheckBox</text>
</a>
</g>
</g>
<!-- Node1&#45;&gt;Node7 -->
<g id="edge7" class="edge">
<title>Node1&#45;&gt;Node7</title>
<path fill="none" stroke="#191970" d="M480.8317,-127.4428C580.5211,-122.7065 821.5662,-109.4368 1022.1772,-84 1034.1574,-82.481 1047.0498,-80.4094 1058.9837,-78.3077"/>
<polygon fill="#191970" stroke="#191970" points="1059.9588,-81.6883 1069.1772,-76.4661 1058.7142,-74.7998 1059.9588,-81.6883"/>
</g>
<!-- Node1&#45;&gt;Node8 -->
<g id="edge8" class="edge">
<title>Node1&#45;&gt;Node8</title>
<path fill="none" stroke="#191970" d="M452.8583,-120.3873C473.2954,-110.418 506.2564,-94.3394 529.6545,-82.9257"/>
<polygon fill="#191970" stroke="#191970" points="531.2702,-86.0319 538.7234,-78.5019 528.2012,-79.7405 531.2702,-86.0319"/>
</g>
<!-- Node9 -->
<g id="node10" class="node">
<title>Node9</title>
<g id="a_node10"><a xlink:title=" ">
<polygon fill="#ffffff" stroke="#bfbfbf" points="1157.2266,-60.5 1157.2266,-78.5 1207.1279,-78.5 1207.1279,-60.5 1157.2266,-60.5"/>
<text text-anchor="middle" x="1182.1772" y="-66.5" font-family="Helvetica,sans-Serif" font-size="10.00" fill="#000000">QString</text>
</a>
</g>
</g>
<!-- Node1&#45;&gt;Node9 -->
<g id="edge9" class="edge">
<title>Node1&#45;&gt;Node9</title>
<path fill="none" stroke="#191970" d="M480.789,-128.5858C618.3106,-125.564 1020.6884,-114.3052 1148.1772,-84 1150.3585,-83.4815 1152.5776,-82.8345 1154.7836,-82.1036"/>
<polygon fill="#191970" stroke="#191970" points="1156.1205,-85.3397 1164.2134,-78.5018 1153.6228,-78.8005 1156.1205,-85.3397"/>
</g>
<!-- Node10 -->
<g id="node11" class="node">
<title>Node10</title>
<g id="a_node11"><a xlink:title=" ">
<polygon fill="#ffffff" stroke="#bfbfbf" points="0,-60.5 0,-78.5 44.3545,-78.5 44.3545,-60.5 0,-60.5"/>
<text text-anchor="middle" x="22.1772" y="-66.5" font-family="Helvetica,sans-Serif" font-size="10.00" fill="#000000">thread</text>
</a>
</g>
</g>
<!-- Node1&#45;&gt;Node10 -->
<g id="edge10" class="edge">
<title>Node1&#45;&gt;Node10</title>
<path fill="none" stroke="#191970" d="M387.5421,-125.7969C300.1515,-118.5497 114.9902,-101.6531 53.1772,-84 51.7132,-83.5819 50.2317,-83.1022 48.7509,-82.5775"/>
<polygon fill="#191970" stroke="#191970" points="49.7596,-79.2077 39.1802,-78.6357 47.0938,-85.6803 49.7596,-79.2077"/>
</g>
<!-- Node11&#45;&gt;Node5 -->
<g id="edge12" class="edge">
<title>Node11&#45;&gt;Node5</title>
<path fill="none" stroke="#191970" d="M1055.6714,-127.2987C933.2762,-121.5013 614.2581,-104.816 510.1772,-84 506.7613,-83.3168 503.2417,-82.4497 499.7513,-81.4806"/>
<polygon fill="#191970" stroke="#191970" points="500.6881,-78.1072 490.1024,-78.5467 498.6517,-84.8045 500.6881,-78.1072"/>
</g>
<!-- Node11&#45;&gt;Node6 -->
<g id="edge13" class="edge">
<title>Node11&#45;&gt;Node6</title>
<path fill="none" stroke="#191970" d="M1091.8729,-120.4766C1073.4725,-105.8999 1042.7206,-76.6223 1060.1772,-55 1082.0255,-27.9382 1183.1263,-16.1989 1237.0608,-11.7897"/>
<polygon fill="#191970" stroke="#191970" points="1237.4827,-15.2676 1247.1814,-11.0032 1236.9403,-8.2886 1237.4827,-15.2676"/>
</g>
<!-- Node11&#45;&gt;Node7 -->
<g id="edge14" class="edge">
<title>Node11&#45;&gt;Node7</title>
<path fill="none" stroke="#191970" d="M1104.1772,-120.3873C1104.1772,-112.0174 1104.1772,-99.3414 1104.1772,-88.735"/>
<polygon fill="#191970" stroke="#191970" points="1107.6773,-88.6984 1104.1772,-78.6985 1100.6773,-88.6985 1107.6773,-88.6984"/>
</g>
<!-- Node11&#45;&gt;Node8 -->
<g id="edge15" class="edge">
<title>Node11&#45;&gt;Node8</title>
<path fill="none" stroke="#191970" d="M1055.5488,-126.3722C947.4076,-119.2058 689.7964,-100.9105 604.1772,-84 600.5279,-83.2792 596.7595,-82.3839 593.0184,-81.3942"/>
<polygon fill="#191970" stroke="#191970" points="593.8562,-77.9936 583.2793,-78.6096 591.9318,-84.7239 593.8562,-77.9936"/>
</g>
<!-- Node11&#45;&gt;Node9 -->
<g id="edge16" class="edge">
<title>Node11&#45;&gt;Node9</title>
<path fill="none" stroke="#191970" d="M1116.0238,-120.3873C1128.3503,-110.9054 1147.8612,-95.897 1162.5058,-84.6319"/>
<polygon fill="#191970" stroke="#191970" points="1164.6826,-87.3732 1170.4748,-78.5019 1160.4145,-81.8248 1164.6826,-87.3732"/>
</g>
<!-- Node11&#45;&gt;Node12 -->
<g id="edge17" class="edge">
<title>Node11&#45;&gt;Node12</title>
<path fill="none" stroke="#191970" d="M1150.1746,-120.4209C1187.7805,-112.4534 1242.0751,-99.699 1288.1772,-84 1289.5841,-83.5209 1291.014,-83.0059 1292.4505,-82.4658"/>
<polygon fill="#191970" stroke="#191970" points="1293.9024,-85.6539 1301.853,-78.6511 1291.2707,-79.1674 1293.9024,-85.6539"/>
</g>
<!-- Node11&#45;&gt;Node13 -->
<g id="edge18" class="edge">
<title>Node11&#45;&gt;Node13</title>
<path fill="none" stroke="#191970" d="M1152.6523,-126.9832C1215.6694,-122.712 1328.6092,-111.627 1421.1772,-84 1422.6362,-83.5646 1424.1137,-83.071 1425.5913,-82.5354"/>
<polygon fill="#191970" stroke="#191970" points="1427.2628,-85.6309 1435.1518,-78.5589 1424.5745,-79.1677 1427.2628,-85.6309"/>
</g>
<!-- Node14 -->
<g id="node15" class="node">
<title>Node14</title>
<g id="a_node15"><a xlink:title=" ">
<polygon fill="#ffffff" stroke="#bfbfbf" points="1363.6953,-60.5 1363.6953,-78.5 1412.6592,-78.5 1412.6592,-60.5 1363.6953,-60.5"/>
<text text-anchor="middle" x="1388.1772" y="-66.5" font-family="Helvetica,sans-Serif" font-size="10.00" fill="#000000">QTimer</text>
</a>
</g>
</g>
<!-- Node11&#45;&gt;Node14 -->
<g id="edge19" class="edge">
<title>Node11&#45;&gt;Node14</title>
<path fill="none" stroke="#191970" d="M1152.8568,-123.9109C1203.7956,-117.3075 1285.7261,-104.544 1354.1772,-84 1355.8675,-83.4927 1357.5869,-82.9271 1359.3098,-82.3215"/>
<polygon fill="#191970" stroke="#191970" points="1360.9807,-85.4274 1369.0352,-78.5444 1358.4464,-78.9022 1360.9807,-85.4274"/>
</g>
<!-- Node15 -->
<g id="node16" class="node">
<title>Node15</title>
<g id="a_node16"><a xlink:title=" ">
<polygon fill="#ffffff" stroke="#bfbfbf" points="732.8794,-60.5 732.8794,-78.5 819.4751,-78.5 819.4751,-60.5 732.8794,-60.5"/>
<text text-anchor="middle" x="776.1772" y="-66.5" font-family="Helvetica,sans-Serif" font-size="10.00" fill="#000000">QTextToSpeech</text>
</a>
</g>
</g>
<!-- Node11&#45;&gt;Node15 -->
<g id="edge20" class="edge">
<title>Node11&#45;&gt;Node15</title>
<path fill="none" stroke="#191970" d="M1055.5109,-123.1073C1000.1309,-115.456 907.1275,-101.4611 828.1772,-84 824.3238,-83.1477 820.3311,-82.1835 816.3492,-81.1673"/>
<polygon fill="#191970" stroke="#191970" points="817.1224,-77.7514 806.5591,-78.568 815.326,-84.517 817.1224,-77.7514"/>
</g>
<!-- Node16 -->
<g id="node17" class="node">
<title>Node16</title>
<g id="a_node17"><a xlink:title=" ">
<polygon fill="#ffffff" stroke="#bfbfbf" points="837.3252,-60.5 837.3252,-78.5 915.0293,-78.5 915.0293,-60.5 837.3252,-60.5"/>
<text text-anchor="middle" x="876.1772" y="-66.5" font-family="Helvetica,sans-Serif" font-size="10.00" fill="#000000">QVBoxLayout</text>
</a>
</g>
</g>
<!-- Node11&#45;&gt;Node16 -->
<g id="edge21" class="edge">
<title>Node11&#45;&gt;Node16</title>
<path fill="none" stroke="#191970" d="M1066.4672,-120.5C1029.956,-111.6607 973.0984,-97.5646 924.1772,-84 921.211,-83.1775 918.1485,-82.3057 915.0728,-81.4137"/>
<polygon fill="#191970" stroke="#191970" points="915.8879,-78.0051 905.3062,-78.5323 913.9071,-84.719 915.8879,-78.0051"/>
</g>
<!-- Node17 -->
<g id="node18" class="node">
<title>Node17</title>
<g id="a_node18"><a xlink:title=" ">
<polygon fill="#ffffff" stroke="#bfbfbf" points="933.5,-60.5 933.5,-78.5 1012.8545,-78.5 1012.8545,-60.5 933.5,-60.5"/>
<text text-anchor="middle" x="973.1772" y="-66.5" font-family="Helvetica,sans-Serif" font-size="10.00" fill="#000000">QProgressBar</text>
</a>
</g>
</g>
<!-- Node11&#45;&gt;Node17 -->
<g id="edge22" class="edge">
<title>Node11&#45;&gt;Node17</title>
<path fill="none" stroke="#191970" d="M1084.2812,-120.3873C1062.4181,-110.3737 1027.0977,-94.1964 1002.1584,-82.7738"/>
<polygon fill="#191970" stroke="#191970" points="1003.3806,-79.484 992.8313,-78.5019 1000.4656,-85.8482 1003.3806,-79.484"/>
</g>
<!-- Node18 -->
<g id="node19" class="node">
<title>Node18</title>
<g id="a_node19"><a xlink:title=" ">
<polygon fill="#ffffff" stroke="#bfbfbf" points="1918.4458,-60.5 1918.4458,-78.5 1963.9087,-78.5 1963.9087,-60.5 1918.4458,-60.5"/>
<text text-anchor="middle" x="1941.1772" y="-66.5" font-family="Helvetica,sans-Serif" font-size="10.00" fill="#000000">stdio.h</text>
</a>
</g>
</g>
<!-- Node11&#45;&gt;Node18 -->
<g id="edge23" class="edge">
<title>Node11&#45;&gt;Node18</title>
<path fill="none" stroke="#191970" d="M1152.6954,-129.0883C1303.8019,-127.4402 1764.4903,-119.5539 1909.1772,-84 1911.0874,-83.5306 1913.0242,-82.9494 1914.9505,-82.2919"/>
<polygon fill="#191970" stroke="#191970" points="1916.3441,-85.5041 1924.3237,-78.5344 1913.7394,-79.0067 1916.3441,-85.5041"/>
</g>
<!-- Node11&#45;&gt;Node19 -->
<g id="edge24" class="edge">
<title>Node11&#45;&gt;Node19</title>
<path fill="none" stroke="#191970" d="M1126.6553,-120.3873C1151.6834,-110.2407 1192.3216,-93.7658 1220.551,-82.3215"/>
<polygon fill="#191970" stroke="#191970" points="1222.0202,-85.5026 1229.9726,-78.5019 1219.3902,-79.0154 1222.0202,-85.5026"/>
</g>
<!-- Node20 -->
<g id="node21" class="node">
<title>Node20</title>
<g id="a_node21"><a xlink:href="_neural_net_8h.html" target="_top" xlink:title=" ">
<polygon fill="#ffffff" stroke="#000000" points="613.3721,-55.5 613.3721,-83.5 714.9824,-83.5 714.9824,-55.5 613.3721,-55.5"/>
<text text-anchor="start" x="621.3721" y="-71.5" font-family="Helvetica,sans-Serif" font-size="10.00" fill="#000000">../neuralnet_predict</text>
<text text-anchor="middle" x="664.1772" y="-61.5" font-family="Helvetica,sans-Serif" font-size="10.00" fill="#000000">/NeuralNet.h</text>
</a>
</g>
</g>
<!-- Node11&#45;&gt;Node20 -->
<g id="edge25" class="edge">
<title>Node11&#45;&gt;Node20</title>
<path fill="none" stroke="#191970" d="M1055.6171,-125.5335C985.0107,-119.3608 849.7468,-106.01 725.2435,-84.0549"/>
<polygon fill="#191970" stroke="#191970" points="725.6132,-80.5656 715.1535,-82.2522 724.3821,-87.4565 725.6132,-80.5656"/>
</g>
<!-- Node21 -->
<g id="node22" class="node">
<title>Node21</title>
<g id="a_node22"><a xlink:title=" ">
<polygon fill="#ffffff" stroke="#bfbfbf" points="620.0322,-.5 620.0322,-18.5 708.3223,-18.5 708.3223,-.5 620.0322,-.5"/>
<text text-anchor="middle" x="664.1772" y="-6.5" font-family="Helvetica,sans-Serif" font-size="10.00" fill="#000000">fdeep/fdeep.hpp</text>
</a>
</g>
</g>
<!-- Node20&#45;&gt;Node21 -->
<g id="edge26" class="edge">
<title>Node20&#45;&gt;Node21</title>
<path fill="none" stroke="#191970" d="M664.1772,-55.2808C664.1772,-47.3776 664.1772,-37.4316 664.1772,-28.8308"/>
<polygon fill="#191970" stroke="#191970" points="667.6773,-28.5842 664.1772,-18.5842 660.6773,-28.5842 667.6773,-28.5842"/>
</g>
<!-- Node22&#45;&gt;Node5 -->
<g id="edge29" class="edge">
<title>Node22&#45;&gt;Node5</title>
<path fill="none" stroke="#191970" d="M1587.0669,-128.5027C1398.107,-123.8274 617.5721,-103.4878 510.1772,-84 506.668,-83.3632 503.0543,-82.512 499.4776,-81.5397"/>
<polygon fill="#191970" stroke="#191970" points="500.1981,-78.1011 489.6131,-78.5565 498.1718,-84.8014 500.1981,-78.1011"/>
</g>
<!-- Node22&#45;&gt;Node6 -->
<g id="edge30" class="edge">
<title>Node22&#45;&gt;Node6</title>
<path fill="none" stroke="#191970" d="M1601.7955,-120.3899C1579.586,-112.2318 1547.3487,-99.2279 1521.1772,-84 1502.8143,-73.3155 1502.4738,-63.8882 1483.1772,-55 1424.1103,-27.7931 1348.2202,-16.5858 1305.111,-12.174"/>
<polygon fill="#191970" stroke="#191970" points="1305.433,-8.6889 1295.144,-11.2161 1304.7633,-15.6568 1305.433,-8.6889"/>
</g>
<!-- Node22&#45;&gt;Node7 -->
<g id="edge31" class="edge">
<title>Node22&#45;&gt;Node7</title>
<path fill="none" stroke="#191970" d="M1587.2604,-128.6974C1503.8174,-126.3888 1308.35,-117.5412 1148.1772,-84 1144.9496,-83.3241 1141.6273,-82.4928 1138.3233,-81.5732"/>
<polygon fill="#191970" stroke="#191970" points="1139.1651,-78.1711 1128.5796,-78.6165 1137.1324,-84.8695 1139.1651,-78.1711"/>
</g>
<!-- Node22&#45;&gt;Node8 -->
<g id="edge32" class="edge">
<title>Node22&#45;&gt;Node8</title>
<path fill="none" stroke="#191970" d="M1586.9934,-128.2903C1407.9738,-122.948 702.0348,-100.9819 604.1772,-84 600.2203,-83.3133 596.1309,-82.3896 592.0913,-81.339"/>
<polygon fill="#191970" stroke="#191970" points="592.8331,-77.9109 582.2563,-78.5292 590.9101,-84.6416 592.8331,-77.9109"/>
</g>
<!-- Node22&#45;&gt;Node9 -->
<g id="edge33" class="edge">
<title>Node22&#45;&gt;Node9</title>
<path fill="none" stroke="#191970" d="M1586.9765,-126.4911C1497.0346,-119.6724 1285.6106,-102.2147 1216.1772,-84 1214.2686,-83.4993 1212.3278,-82.9097 1210.3903,-82.2597"/>
<polygon fill="#191970" stroke="#191970" points="1211.4835,-78.9308 1200.8927,-78.6394 1208.9902,-85.4717 1211.4835,-78.9308"/>
</g>
<!-- Node22&#45;&gt;Node12 -->
<g id="edge34" class="edge">
<title>Node22&#45;&gt;Node12</title>
<path fill="none" stroke="#191970" d="M1587.259,-125.7483C1533.2685,-120.1064 1435.662,-107.5042 1355.1772,-84 1353.4833,-83.5053 1351.7609,-82.9496 1350.0358,-82.3516"/>
<polygon fill="#191970" stroke="#191970" points="1350.8935,-78.9311 1340.3039,-78.5964 1348.3734,-85.4618 1350.8935,-78.9311"/>
</g>
<!-- Node22&#45;&gt;Node13 -->
<g id="edge35" class="edge">
<title>Node22&#45;&gt;Node13</title>
<path fill="none" stroke="#191970" d="M1598.4787,-120.4977C1570.0007,-111.7128 1525.8888,-97.7045 1488.1772,-84 1486.7524,-83.4822 1485.2999,-82.9434 1483.8356,-82.3913"/>
<polygon fill="#191970" stroke="#191970" points="1484.7584,-78.995 1474.1696,-78.6363 1482.2236,-85.52 1484.7584,-78.995"/>
</g>
<!-- Node22&#45;&gt;Node14 -->
<g id="edge38" class="edge">
<title>Node22&#45;&gt;Node14</title>
<path fill="none" stroke="#191970" d="M1587.0844,-122.9397C1544.8523,-115.6258 1477.4997,-102.364 1421.1772,-84 1419.727,-83.5272 1418.2538,-83.0129 1416.7751,-82.4694"/>
<polygon fill="#191970" stroke="#191970" points="1417.7065,-79.0716 1407.1228,-78.5874 1415.0945,-85.566 1417.7065,-79.0716"/>
</g>
<!-- Node22&#45;&gt;Node18 -->
<g id="edge46" class="edge">
<title>Node22&#45;&gt;Node18</title>
<path fill="none" stroke="#191970" d="M1669.4272,-126.263C1724.8924,-121.1377 1826.141,-109.0496 1909.1772,-84 1910.6371,-83.5596 1912.117,-83.0669 1913.5991,-82.5364"/>
<polygon fill="#191970" stroke="#191970" points="1915.2683,-85.6366 1923.2232,-78.6387 1912.6406,-79.1485 1915.2683,-85.6366"/>
</g>
<!-- Node22&#45;&gt;Node23 -->
<g id="edge28" class="edge">
<title>Node22&#45;&gt;Node23</title>
<path fill="none" stroke="#191970" d="M1669.1095,-127.579C1775.1284,-122.3373 2056.6928,-106.6501 2147.1772,-84 2149.1381,-83.5091 2151.1313,-82.9196 2153.119,-82.2629"/>
<polygon fill="#191970" stroke="#191970" points="2154.7345,-85.3932 2162.8383,-78.5684 2152.2472,-78.85 2154.7345,-85.3932"/>
</g>
<!-- Node24 -->
<g id="node25" class="node">
<title>Node24</title>
<g id="a_node25"><a xlink:title=" ">
<polygon fill="#ffffff" stroke="#bfbfbf" points="1598.2192,-60.5 1598.2192,-78.5 1658.1353,-78.5 1658.1353,-60.5 1598.2192,-60.5"/>
<text text-anchor="middle" x="1628.1772" y="-66.5" font-family="Helvetica,sans-Serif" font-size="10.00" fill="#000000">QLineEdit</text>
</a>
</g>
</g>
<!-- Node22&#45;&gt;Node24 -->
<g id="edge36" class="edge">
<title>Node22&#45;&gt;Node24</title>
<path fill="none" stroke="#191970" d="M1628.1772,-120.3873C1628.1772,-112.0174 1628.1772,-99.3414 1628.1772,-88.735"/>
<polygon fill="#191970" stroke="#191970" points="1631.6773,-88.6984 1628.1772,-78.6985 1624.6773,-88.6985 1631.6773,-88.6984"/>
</g>
<!-- Node25 -->
<g id="node26" class="node">
<title>Node25</title>
<g id="a_node26"><a xlink:title=" ">
<polygon fill="#ffffff" stroke="#bfbfbf" points="1675.7759,-60.5 1675.7759,-78.5 1744.5786,-78.5 1744.5786,-60.5 1675.7759,-60.5"/>
<text text-anchor="middle" x="1710.1772" y="-66.5" font-family="Helvetica,sans-Serif" font-size="10.00" fill="#000000">QGroupBox</text>
</a>
</g>
</g>
<!-- Node22&#45;&gt;Node25 -->
<g id="edge37" class="edge">
<title>Node22&#45;&gt;Node25</title>
<path fill="none" stroke="#191970" d="M1640.6313,-120.3873C1653.5899,-110.9054 1674.1014,-95.897 1689.497,-84.6319"/>
<polygon fill="#191970" stroke="#191970" points="1691.8712,-87.2316 1697.8747,-78.5019 1687.7376,-81.5824 1691.8712,-87.2316"/>
</g>
<!-- Node26 -->
<g id="node27" class="node">
<title>Node26</title>
<g id="a_node27"><a xlink:title=" ">
<polygon fill="#ffffff" stroke="#bfbfbf" points="1762.9458,-60.5 1762.9458,-78.5 1833.4087,-78.5 1833.4087,-60.5 1762.9458,-60.5"/>
<text text-anchor="middle" x="1798.1772" y="-66.5" font-family="Helvetica,sans-Serif" font-size="10.00" fill="#000000">QListWidget</text>
</a>
</g>
</g>
<!-- Node22&#45;&gt;Node26 -->
<g id="edge39" class="edge">
<title>Node22&#45;&gt;Node26</title>
<path fill="none" stroke="#191970" d="M1653.9966,-120.3873C1683.1217,-110.1078 1730.6502,-93.3331 1763.1167,-81.8743"/>
<polygon fill="#191970" stroke="#191970" points="1764.4069,-85.1306 1772.6719,-78.5019 1762.0771,-78.5297 1764.4069,-85.1306"/>
</g>
<!-- Node27 -->
<g id="node28" class="node">
<title>Node27</title>
<g id="a_node28"><a xlink:title=" ">
<polygon fill="#ffffff" stroke="#bfbfbf" points="1981.9014,-60.5 1981.9014,-78.5 2018.4531,-78.5 2018.4531,-60.5 1981.9014,-60.5"/>
<text text-anchor="middle" x="2000.1772" y="-66.5" font-family="Helvetica,sans-Serif" font-size="10.00" fill="#000000">QDir</text>
</a>
</g>
</g>
<!-- Node22&#45;&gt;Node27 -->
<g id="edge40" class="edge">
<title>Node22&#45;&gt;Node27</title>
<path fill="none" stroke="#191970" d="M1669.2691,-125.9515C1748.0356,-118.8425 1917.4041,-101.9876 1973.1772,-84 1974.2153,-83.6652 1975.2603,-83.291 1976.3044,-82.886"/>
<polygon fill="#191970" stroke="#191970" points="1977.8702,-86.0179 1985.468,-78.6339 1974.9238,-79.6682 1977.8702,-86.0179"/>
</g>
<!-- Node28 -->
<g id="node29" class="node">
<title>Node28</title>
<g id="a_node29"><a xlink:title=" ">
<polygon fill="#ffffff" stroke="#bfbfbf" points="2036.4746,-60.5 2036.4746,-78.5 2137.8799,-78.5 2137.8799,-60.5 2036.4746,-60.5"/>
<text text-anchor="middle" x="2087.1772" y="-66.5" font-family="Helvetica,sans-Serif" font-size="10.00" fill="#000000">QAbstractItemView</text>
</a>
</g>
</g>
<!-- Node22&#45;&gt;Node28 -->
<g id="edge41" class="edge">
<title>Node22&#45;&gt;Node28</title>
<path fill="none" stroke="#191970" d="M1669.1998,-126.5048C1741.7825,-120.8316 1897.4271,-106.9854 2027.1772,-84 2032.3215,-83.0887 2037.6823,-81.9986 2042.9906,-80.831"/>
<polygon fill="#191970" stroke="#191970" points="2044.1013,-84.1671 2053.0635,-78.5164 2042.5336,-77.3449 2044.1013,-84.1671"/>
</g>
<!-- Node22&#45;&gt;Node29 -->
<g id="edge42" class="edge">
<title>Node22&#45;&gt;Node29</title>
<path fill="none" stroke="#191970" d="M1669.3035,-127.4468C1784.85,-121.4988 2110.8316,-103.4384 2216.1772,-84 2220.2995,-83.2394 2224.5693,-82.2656 2228.7917,-81.1832"/>
<polygon fill="#191970" stroke="#191970" points="2229.76,-84.5469 2238.4665,-78.5098 2227.8955,-77.7997 2229.76,-84.5469"/>
</g>
<!-- Node30 -->
<g id="node31" class="node">
<title>Node30</title>
<g id="a_node31"><a xlink:href="_q_led_8h.html" target="_top" xlink:title=" ">
<polygon fill="#ffffff" stroke="#000000" points="1851.7759,-60.5 1851.7759,-78.5 1900.5786,-78.5 1900.5786,-60.5 1851.7759,-60.5"/>
<text text-anchor="middle" x="1876.1772" y="-66.5" font-family="Helvetica,sans-Serif" font-size="10.00" fill="#000000">QLed.h</text>
</a>
</g>
</g>
<!-- Node22&#45;&gt;Node30 -->
<g id="edge43" class="edge">
<title>Node22&#45;&gt;Node30</title>
<path fill="none" stroke="#191970" d="M1669.414,-123.1733C1712.9628,-115.9286 1783.3274,-102.6118 1842.1772,-84 1843.8178,-83.4812 1845.4876,-82.912 1847.1626,-82.3086"/>
<polygon fill="#191970" stroke="#191970" points="1848.6111,-85.5002 1856.6447,-78.5929 1846.0571,-78.9828 1848.6111,-85.5002"/>
</g>
<!-- Node32 -->
<g id="node33" class="node">
<title>Node32</title>
<g id="a_node33"><a xlink:title=" ">
<polygon fill="#ffffff" stroke="#bfbfbf" points="1530.5073,-60.5 1530.5073,-78.5 1579.8472,-78.5 1579.8472,-60.5 1530.5073,-60.5"/>
<text text-anchor="middle" x="1555.1772" y="-66.5" font-family="Helvetica,sans-Serif" font-size="10.00" fill="#000000">fstream</text>
</a>
</g>
</g>
<!-- Node22&#45;&gt;Node32 -->
<g id="edge47" class="edge">
<title>Node22&#45;&gt;Node32</title>
<path fill="none" stroke="#191970" d="M1617.0901,-120.3873C1605.7277,-111.0483 1587.8425,-96.3481 1574.2105,-85.1438"/>
<polygon fill="#191970" stroke="#191970" points="1576.3165,-82.3443 1566.3687,-78.6985 1571.8718,-87.7521 1576.3165,-82.3443"/>
</g>
<!-- Node30&#45;&gt;Node6 -->
<g id="edge45" class="edge">
<title>Node30&#45;&gt;Node6</title>
<path fill="none" stroke="#191970" d="M1857.8453,-60.4035C1852.8714,-58.2922 1847.4115,-56.2882 1842.1772,-55 1739.3663,-29.697 1412.5328,-15.0074 1305.4854,-10.7813"/>
<polygon fill="#191970" stroke="#191970" points="1305.3806,-7.2747 1295.252,-10.383 1305.1082,-14.2694 1305.3806,-7.2747"/>
</g>
<!-- Node31 -->
<g id="node32" class="node">
<title>Node31</title>
<g id="a_node32"><a xlink:title=" ">
<polygon fill="#ffffff" stroke="#bfbfbf" points="1849.8423,-.5 1849.8423,-18.5 1902.5122,-18.5 1902.5122,-.5 1849.8423,-.5"/>
<text text-anchor="middle" x="1876.1772" y="-6.5" font-family="Helvetica,sans-Serif" font-size="10.00" fill="#000000">QFrame</text>
</a>
</g>
</g>
<!-- Node30&#45;&gt;Node31 -->
<g id="edge44" class="edge">
<title>Node30&#45;&gt;Node31</title>
<path fill="none" stroke="#191970" d="M1876.1772,-60.3873C1876.1772,-52.0174 1876.1772,-39.3414 1876.1772,-28.735"/>
<polygon fill="#191970" stroke="#191970" points="1879.6773,-28.6984 1876.1772,-18.6985 1872.6773,-28.6985 1879.6773,-28.6984"/>
</g>
<!-- Node33&#45;&gt;Node18 -->
<g id="edge52" class="edge">
<title>Node33&#45;&gt;Node18</title>
<path fill="none" stroke="#191970" d="M2414.3925,-127.341C2312.987,-121.816 2056.1049,-106.0328 1973.1772,-84 1971.4751,-83.5478 1969.7499,-83.0131 1968.0284,-82.4203"/>
<polygon fill="#191970" stroke="#191970" points="1968.9809,-79.0314 1958.3966,-78.5594 1966.3764,-85.5289 1968.9809,-79.0314"/>
</g>
<!-- Node34 -->
<g id="node35" class="node">
<title>Node34</title>
<g id="a_node35"><a xlink:title=" ">
<polygon fill="#ffffff" stroke="#bfbfbf" points="2626.3047,-60.5 2626.3047,-78.5 2746.0498,-78.5 2746.0498,-60.5 2626.3047,-60.5"/>
<text text-anchor="middle" x="2686.1772" y="-66.5" font-family="Helvetica,sans-Serif" font-size="10.00" fill="#000000">../cppTimer/CppTimer.h</text>
</a>
</g>
</g>
<!-- Node33&#45;&gt;Node34 -->
<g id="edge49" class="edge">
<title>Node33&#45;&gt;Node34</title>
<path fill="none" stroke="#191970" d="M2491.1093,-120.3873C2531.4481,-109.8641 2597.88,-92.5341 2641.8315,-81.0685"/>
<polygon fill="#191970" stroke="#191970" points="2642.8774,-84.4128 2651.6701,-78.5019 2641.1104,-77.6395 2642.8774,-84.4128"/>
</g>
<!-- Node35 -->
<g id="node36" class="node">
<title>Node35</title>
<g id="a_node36"><a xlink:href="_ring_buff_8h.html" target="_top" xlink:title=" ">
<polygon fill="#ffffff" stroke="#000000" points="2764.4155,-60.5 2764.4155,-78.5 2861.939,-78.5 2861.939,-60.5 2764.4155,-60.5"/>
<text text-anchor="middle" x="2813.1772" y="-66.5" font-family="Helvetica,sans-Serif" font-size="10.00" fill="#000000">../filters/RingBuff.h</text>
</a>
</g>
</g>
<!-- Node33&#45;&gt;Node35 -->
<g id="edge50" class="edge">
<title>Node33&#45;&gt;Node35</title>
<path fill="none" stroke="#191970" d="M2497.6234,-121.4792C2500.5157,-120.9645 2503.3885,-120.4663 2506.1772,-120 2616.4635,-101.5596 2645.4636,-105.5876 2755.1772,-84 2759.8937,-83.072 2764.802,-82.0052 2769.6781,-80.8802"/>
<polygon fill="#191970" stroke="#191970" points="2770.6585,-84.2445 2779.5705,-78.515 2769.0307,-77.4364 2770.6585,-84.2445"/>
</g>
<!-- Node36 -->
<g id="node37" class="node">
<title>Node36</title>
<g id="a_node37"><a xlink:title=" ">
<polygon fill="#ffffff" stroke="#bfbfbf" points="2879.665,-60.5 2879.665,-78.5 2930.6895,-78.5 2930.6895,-60.5 2879.665,-60.5"/>
<text text-anchor="middle" x="2905.1772" y="-66.5" font-family="Helvetica,sans-Serif" font-size="10.00" fill="#000000">unistd.h</text>
</a>
</g>
</g>
<!-- Node33&#45;&gt;Node36 -->
<g id="edge51" class="edge">
<title>Node33&#45;&gt;Node36</title>
<path fill="none" stroke="#191970" d="M2497.8724,-121.289C2500.6784,-120.8257 2503.4661,-120.3905 2506.1772,-120 2667.5219,-96.763 2713.2643,-124.4419 2871.1772,-84 2873.1355,-83.4985 2875.1265,-82.9009 2877.1128,-82.2384"/>
<polygon fill="#191970" stroke="#191970" points="2878.7341,-85.3659 2886.8286,-78.53 2876.2379,-78.8261 2878.7341,-85.3659"/>
</g>
<!-- Node37 -->
<g id="node38" class="node">
<title>Node37</title>
<g id="a_node38"><a xlink:title=" ">
<polygon fill="#ffffff" stroke="#bfbfbf" points="2709.0566,-.5 2709.0566,-18.5 2757.2979,-18.5 2757.2979,-.5 2709.0566,-.5"/>
<text text-anchor="middle" x="2733.1772" y="-6.5" font-family="Helvetica,sans-Serif" font-size="10.00" fill="#000000">stdint.h</text>
</a>
</g>
</g>
<!-- Node33&#45;&gt;Node37 -->
<g id="edge53" class="edge">
<title>Node33&#45;&gt;Node37</title>
<path fill="none" stroke="#191970" d="M2455.5995,-120.3875C2455.1395,-104.587 2456.681,-72.156 2475.1772,-55 2507.1732,-25.3225 2636.1721,-14.571 2698.7678,-11.0475"/>
<polygon fill="#191970" stroke="#191970" points="2699.1335,-14.5331 2708.9332,-10.5063 2698.7612,-7.543 2699.1335,-14.5331"/>
</g>
<!-- Node38 -->
<g id="node39" class="node">
<title>Node38</title>
<g id="a_node39"><a xlink:title=" ">
<polygon fill="#ffffff" stroke="#bfbfbf" points="3091.335,-60.5 3091.335,-78.5 3139.0195,-78.5 3139.0195,-60.5 3091.335,-60.5"/>
<text text-anchor="middle" x="3115.1772" y="-66.5" font-family="Helvetica,sans-Serif" font-size="10.00" fill="#000000">stdlib.h</text>
</a>
</g>
</g>
<!-- Node33&#45;&gt;Node38 -->
<g id="edge54" class="edge">
<title>Node33&#45;&gt;Node38</title>
<path fill="none" stroke="#191970" d="M2497.8572,-121.1761C2500.6668,-120.74 2503.4595,-120.3417 2506.1772,-120 2760.6726,-87.998 2832.9207,-144.5243 3082.1772,-84 3084.1384,-83.5238 3086.1292,-82.9374 3088.1109,-82.2763"/>
<polygon fill="#191970" stroke="#191970" points="3089.7217,-85.4049 3097.7663,-78.5103 3087.178,-78.8834 3089.7217,-85.4049"/>
</g>
<!-- Node39 -->
<g id="node40" class="node">
<title>Node39</title>
<g id="a_node40"><a xlink:title=" ">
<polygon fill="#ffffff" stroke="#bfbfbf" points="3156.8374,-60.5 3156.8374,-78.5 3209.5171,-78.5 3209.5171,-60.5 3156.8374,-60.5"/>
<text text-anchor="middle" x="3183.1772" y="-66.5" font-family="Helvetica,sans-Serif" font-size="10.00" fill="#000000">QObject</text>
</a>
</g>
</g>
<!-- Node33&#45;&gt;Node39 -->
<g id="edge55" class="edge">
<title>Node33&#45;&gt;Node39</title>
<path fill="none" stroke="#191970" d="M2497.8547,-121.156C2500.6649,-120.7247 2503.4585,-120.333 2506.1772,-120 2789.8385,-85.2526 2869.5601,-147.5893 3148.1772,-84 3150.5037,-83.469 3152.8737,-82.7973 3155.2283,-82.0354"/>
<polygon fill="#191970" stroke="#191970" points="3156.5153,-85.291 3164.6685,-78.5252 3154.0757,-78.7299 3156.5153,-85.291"/>
</g>
<!-- Node40 -->
<g id="node41" class="node">
<title>Node40</title>
<g id="a_node41"><a xlink:title=" ">
<polygon fill="#ffffff" stroke="#bfbfbf" points="3227.6724,-60.5 3227.6724,-78.5 3278.6821,-78.5 3278.6821,-60.5 3227.6724,-60.5"/>
<text text-anchor="middle" x="3253.1772" y="-66.5" font-family="Helvetica,sans-Serif" font-size="10.00" fill="#000000">QMutex</text>
</a>
</g>
</g>
<!-- Node33&#45;&gt;Node40 -->
<g id="edge56" class="edge">
<title>Node33&#45;&gt;Node40</title>
<path fill="none" stroke="#191970" d="M2497.8526,-121.1387C2500.6633,-120.7116 2503.4575,-120.3256 2506.1772,-120 2820.7798,-82.3398 2909.0792,-153.6527 3218.1772,-84 3220.5052,-83.4754 3222.8762,-82.8083 3225.2315,-82.0496"/>
<polygon fill="#191970" stroke="#191970" points="3226.5159,-85.3062 3234.6731,-78.5453 3224.0801,-78.7436 3226.5159,-85.3062"/>
</g>
<!-- Node41 -->
<g id="node42" class="node">
<title>Node41</title>
<g id="a_node42"><a xlink:href="_filter_bank_8h.html" target="_top" xlink:title=" ">
<polygon fill="#ffffff" stroke="#000000" points="2323.9976,-60.5 2323.9976,-78.5 2428.3569,-78.5 2428.3569,-60.5 2323.9976,-60.5"/>
<text text-anchor="middle" x="2376.1772" y="-66.5" font-family="Helvetica,sans-Serif" font-size="10.00" fill="#000000">../filters/FilterBank.h</text>
</a>
</g>
</g>
<!-- Node33&#45;&gt;Node41 -->
<g id="edge57" class="edge">
<title>Node33&#45;&gt;Node41</title>
<path fill="none" stroke="#191970" d="M2444.027,-120.3873C2431.3844,-110.9054 2411.3732,-95.897 2396.3531,-84.6319"/>
<polygon fill="#191970" stroke="#191970" points="2398.2798,-81.7019 2388.1797,-78.5019 2394.0798,-87.3019 2398.2798,-81.7019"/>
</g>
<!-- Node43 -->
<g id="node44" class="node">
<title>Node43</title>
<g id="a_node44"><a xlink:href="_m_c_p3428_8h.html" target="_top" xlink:title=" ">
<polygon fill="#ffffff" stroke="#ff0000" points="2948.9829,-60.5 2948.9829,-78.5 3073.3716,-78.5 3073.3716,-60.5 2948.9829,-60.5"/>
<text text-anchor="middle" x="3011.1772" y="-66.5" font-family="Helvetica,sans-Serif" font-size="10.00" fill="#000000">../MCP3428/MCP3428.h</text>
</a>
</g>
</g>
<!-- Node33&#45;&gt;Node43 -->
<g id="edge59" class="edge">
<title>Node33&#45;&gt;Node43</title>
<path fill="none" stroke="#191970" d="M2497.8655,-121.2402C2500.6732,-120.7886 2503.4632,-120.3694 2506.1772,-120 2697.9607,-93.8998 2748.577,-111.4126 2940.1772,-84 2946.9549,-83.0303 2954.0596,-81.8176 2961.046,-80.509"/>
<polygon fill="#191970" stroke="#191970" points="2961.9997,-83.8891 2971.1453,-78.5404 2960.6603,-77.0184 2961.9997,-83.8891"/>
</g>
<!-- Node45 -->
<g id="node45" class="node">
<title>Node45</title>
<g id="a_node45"><a xlink:href="_m_p_u6050_8h.html" target="_top" xlink:title=" ">
<polygon fill="#ffffff" stroke="#ff0000" points="2483.9829,-60.5 2483.9829,-78.5 2608.3716,-78.5 2608.3716,-60.5 2483.9829,-60.5"/>
<text text-anchor="middle" x="2546.1772" y="-66.5" font-family="Helvetica,sans-Serif" font-size="10.00" fill="#000000">../MPU6050/MPU6050.h</text>
</a>
</g>
</g>
<!-- Node33&#45;&gt;Node45 -->
<g id="edge61" class="edge">
<title>Node33&#45;&gt;Node45</title>
<path fill="none" stroke="#191970" d="M2469.8463,-120.3873C2484.2021,-110.8168 2507.0033,-95.6159 2523.9517,-84.3171"/>
<polygon fill="#191970" stroke="#191970" points="2526.2954,-86.9611 2532.6744,-78.5019 2522.4125,-81.1367 2526.2954,-86.9611"/>
</g>
<!-- Node42 -->
<g id="node43" class="node">
<title>Node42</title>
<g id="a_node43"><a xlink:title=" ">
<polygon fill="#ffffff" stroke="#bfbfbf" points="2360.1157,-.5 2360.1157,-18.5 2392.2388,-18.5 2392.2388,-.5 2360.1157,-.5"/>
<text text-anchor="middle" x="2376.1772" y="-6.5" font-family="Helvetica,sans-Serif" font-size="10.00" fill="#000000">Iir.h</text>
</a>
</g>
</g>
<!-- Node41&#45;&gt;Node42 -->
<g id="edge58" class="edge">
<title>Node41&#45;&gt;Node42</title>
<path fill="none" stroke="#191970" d="M2376.1772,-60.3873C2376.1772,-52.0174 2376.1772,-39.3414 2376.1772,-28.735"/>
<polygon fill="#191970" stroke="#191970" points="2379.6773,-28.6984 2376.1772,-18.6985 2372.6773,-28.6985 2379.6773,-28.6984"/>
</g>
<!-- Node43&#45;&gt;Node37 -->
<g id="edge60" class="edge">
<title>Node43&#45;&gt;Node37</title>
<path fill="none" stroke="#191970" d="M2969.2568,-60.4524C2914.197,-48.569 2818.5462,-27.925 2767.5351,-16.9154"/>
<polygon fill="#191970" stroke="#191970" points="2768.1689,-13.4716 2757.6556,-14.7831 2766.6921,-20.3141 2768.1689,-13.4716"/>
</g>
</g>
</svg>
