<?xml version="1.0" encoding="UTF-8" standalone="no"?>
<!DOCTYPE svg PUBLIC "-//W3C//DTD SVG 1.1//EN"
 "http://www.w3.org/Graphics/SVG/1.1/DTD/svg11.dtd">
<!-- Generated by graphviz version 2.40.1 (20161225.0304)
 -->
<!-- Title: code/Qt/mainwindow.cpp Pages: 1 -->
<svg width="3186pt" height="257pt"
 viewBox="0.00 0.00 3185.94 257.00" xmlns="http://www.w3.org/2000/svg" xmlns:xlink="http://www.w3.org/1999/xlink">
<g id="graph0" class="graph" transform="scale(1 1) rotate(0) translate(4 253)">
<title>code/Qt/mainwindow.cpp</title>
<polygon fill="#ffffff" stroke="transparent" points="-4,4 -4,-253 3181.938,-253 3181.938,4 -4,4"/>
<!-- Node0 -->
<g id="node1" class="node">
<title>Node0</title>
<g id="a_node1"><a xlink:title=" ">
<polygon fill="#bfbfbf" stroke="#000000" points="2238.1553,-230.5 2238.1553,-248.5 2365.332,-248.5 2365.332,-230.5 2238.1553,-230.5"/>
<text text-anchor="middle" x="2301.7437" y="-236.5" font-family="Helvetica,sans-Serif" font-size="10.00" fill="#000000">code/Qt/mainwindow.cpp</text>
</a>
</g>
</g>
<!-- Node1 -->
<g id="node2" class="node">
<title>Node1</title>
<g id="a_node2"><a xlink:href="mainwindow_8h.html" target="_top" xlink:title=" ">
<polygon fill="#ffffff" stroke="#000000" points="2229.335,-175.5 2229.335,-193.5 2308.1523,-193.5 2308.1523,-175.5 2229.335,-175.5"/>
<text text-anchor="middle" x="2268.7437" y="-181.5" font-family="Helvetica,sans-Serif" font-size="10.00" fill="#000000">mainwindow.h</text>
</a>
</g>
</g>
<!-- Node0&#45;&gt;Node1 -->
<g id="edge1" class="edge">
<title>Node0&#45;&gt;Node1</title>
<path fill="none" stroke="#191970" d="M2296.2944,-230.4179C2291.7361,-222.8207 2285.0953,-211.7527 2279.4756,-202.3866"/>
<polygon fill="#191970" stroke="#191970" points="2282.4576,-200.5536 2274.3113,-193.7795 2276.4551,-204.1552 2282.4576,-200.5536"/>
</g>
<!-- Node50 -->
<g id="node48" class="node">
<title>Node50</title>
<g id="a_node48"><a xlink:title=" ">
<polygon fill="#ffffff" stroke="#bfbfbf" points="2813.1821,-120.5 2813.1821,-138.5 2870.3052,-138.5 2870.3052,-120.5 2813.1821,-120.5"/>
<text text-anchor="middle" x="2841.7437" y="-126.5" font-family="Helvetica,sans-Serif" font-size="10.00" fill="#000000">QPixmap</text>
</a>
</g>
</g>
<!-- Node0&#45;&gt;Node50 -->
<g id="edge73" class="edge">
<title>Node0&#45;&gt;Node50</title>
<path fill="none" stroke="#191970" d="M2351.5526,-230.4732C2440.3682,-214.1759 2632.0821,-178.0866 2803.1588,-139.2811"/>
<polygon fill="#191970" stroke="#191970" points="2804.1242,-142.6509 2813.0977,-137.0182 2802.5702,-135.8256 2804.1242,-142.6509"/>
</g>
<!-- Node2 -->
<g id="node3" class="node">
<title>Node2</title>
<g id="a_node3"><a xlink:href="_monitor_window_8h.html" target="_top" xlink:title=" ">
<polygon fill="#ffffff" stroke="#000000" points="381.3916,-120.5 381.3916,-138.5 474.0957,-138.5 474.0957,-120.5 381.3916,-120.5"/>
<text text-anchor="middle" x="427.7437" y="-126.5" font-family="Helvetica,sans-Serif" font-size="10.00" fill="#000000">MonitorWindow.h</text>
</a>
</g>
</g>
<!-- Node1&#45;&gt;Node2 -->
<g id="edge2" class="edge">
<title>Node1&#45;&gt;Node2</title>
<path fill="none" stroke="#191970" d="M2229.1871,-184.0335C2042.6606,-181.7091 1232.3099,-170.2214 568.7437,-139 541.065,-137.6977 510.3653,-135.6955 484.6974,-133.8644"/>
<polygon fill="#191970" stroke="#191970" points="484.622,-130.3499 474.3956,-133.1195 484.1171,-137.3316 484.622,-130.3499"/>
</g>
<!-- Node6 -->
<g id="node7" class="node">
<title>Node6</title>
<g id="a_node7"><a xlink:title=" ">
<polygon fill="#ffffff" stroke="#bfbfbf" points="430.2266,-60.5 430.2266,-78.5 501.2607,-78.5 501.2607,-60.5 430.2266,-60.5"/>
<text text-anchor="middle" x="465.7437" y="-66.5" font-family="Helvetica,sans-Serif" font-size="10.00" fill="#000000">QBoxLayout</text>
</a>
</g>
</g>
<!-- Node1&#45;&gt;Node6 -->
<g id="edge66" class="edge">
<title>Node1&#45;&gt;Node6</title>
<path fill="none" stroke="#191970" d="M2229.1469,-184.3841C2020.2905,-183.6107 1044.9474,-177.9391 745.7437,-139 638.9447,-125.1009 613.4359,-113.1056 509.7437,-84 507.1471,-83.2712 504.4759,-82.4845 501.7941,-81.6676"/>
<polygon fill="#191970" stroke="#191970" points="502.7404,-78.2962 492.1507,-78.6268 500.6352,-84.9722 502.7404,-78.2962"/>
</g>
<!-- Node9 -->
<g id="node10" class="node">
<title>Node9</title>
<g id="a_node10"><a xlink:title=" ">
<polygon fill="#ffffff" stroke="#bfbfbf" points="519.0024,-60.5 519.0024,-78.5 594.4849,-78.5 594.4849,-60.5 519.0024,-60.5"/>
<text text-anchor="middle" x="556.7437" y="-66.5" font-family="Helvetica,sans-Serif" font-size="10.00" fill="#000000">QPushButton</text>
</a>
</g>
</g>
<!-- Node1&#45;&gt;Node9 -->
<g id="edge64" class="edge">
<title>Node1&#45;&gt;Node9</title>
<path fill="none" stroke="#191970" d="M2229.1988,-184.1209C2030.9868,-182.0822 1144.3131,-171.286 870.7437,-139 749.9882,-124.7487 720.4393,-114.5403 602.7437,-84 599.76,-83.2258 596.6832,-82.3744 593.6018,-81.484"/>
<polygon fill="#191970" stroke="#191970" points="594.4365,-78.0803 583.8522,-78.5543 592.4219,-84.7842 594.4365,-78.0803"/>
</g>
<!-- Node12 -->
<g id="node13" class="node">
<title>Node12</title>
<g id="a_node13"><a xlink:href="_interpret_window_8h.html" target="_top" xlink:title=" ">
<polygon fill="#ffffff" stroke="#000000" points="928.4434,-120.5 928.4434,-138.5 1025.0439,-138.5 1025.0439,-120.5 928.4434,-120.5"/>
<text text-anchor="middle" x="976.7437" y="-126.5" font-family="Helvetica,sans-Serif" font-size="10.00" fill="#000000">InterpretWindow.h</text>
</a>
</g>
</g>
<!-- Node1&#45;&gt;Node12 -->
<g id="edge12" class="edge">
<title>Node1&#45;&gt;Node12</title>
<path fill="none" stroke="#191970" d="M2229.0163,-182.8088C2042.8914,-174.8855 1256.9026,-141.4263 1035.1894,-131.988"/>
<polygon fill="#191970" stroke="#191970" points="1035.2026,-128.4855 1025.0628,-131.5569 1034.9049,-135.4792 1035.2026,-128.4855"/>
</g>
<!-- Node13 -->
<g id="node14" class="node">
<title>Node13</title>
<g id="a_node14"><a xlink:title=" ">
<polygon fill="#ffffff" stroke="#bfbfbf" points="805.6206,-60.5 805.6206,-78.5 853.8667,-78.5 853.8667,-60.5 805.6206,-60.5"/>
<text text-anchor="middle" x="829.7437" y="-66.5" font-family="Helvetica,sans-Serif" font-size="10.00" fill="#000000">QLabel</text>
</a>
</g>
</g>
<!-- Node1&#45;&gt;Node13 -->
<g id="edge67" class="edge">
<title>Node1&#45;&gt;Node13</title>
<path fill="none" stroke="#191970" d="M2229.1382,-183.9824C2011.0831,-181.0324 964.4053,-165.53 901.7437,-139 876.2308,-128.1982 854.5646,-103.8854 841.8526,-87.0857"/>
<polygon fill="#191970" stroke="#191970" points="844.447,-84.7013 835.744,-78.659 838.7795,-88.8097 844.447,-84.7013"/>
</g>
<!-- Node14 -->
<g id="node15" class="node">
<title>Node14</title>
<g id="a_node15"><a xlink:title=" ">
<polygon fill="#ffffff" stroke="#bfbfbf" points="871.8496,-60.5 871.8496,-78.5 915.6377,-78.5 915.6377,-60.5 871.8496,-60.5"/>
<text text-anchor="middle" x="893.7437" y="-66.5" font-family="Helvetica,sans-Serif" font-size="10.00" fill="#000000">QFont</text>
</a>
</g>
</g>
<!-- Node1&#45;&gt;Node14 -->
<g id="edge70" class="edge">
<title>Node1&#45;&gt;Node14</title>
<path fill="none" stroke="#191970" d="M2229.0654,-184.3961C2011.8155,-183.6733 974.2394,-178.1743 919.7437,-139 903.7654,-127.514 897.5982,-104.9911 895.2227,-88.6916"/>
<polygon fill="#191970" stroke="#191970" points="898.6864,-88.1691 894.1099,-78.6137 891.7287,-88.9374 898.6864,-88.1691"/>
</g>
<!-- Node20 -->
<g id="node21" class="node">
<title>Node20</title>
<g id="a_node21"><a xlink:title=" ">
<polygon fill="#ffffff" stroke="#bfbfbf" points="1350.5713,-60.5 1350.5713,-78.5 1404.916,-78.5 1404.916,-60.5 1350.5713,-60.5"/>
<text text-anchor="middle" x="1377.7437" y="-66.5" font-family="Helvetica,sans-Serif" font-size="10.00" fill="#000000">iostream</text>
</a>
</g>
</g>
<!-- Node1&#45;&gt;Node20 -->
<g id="edge71" class="edge">
<title>Node1&#45;&gt;Node20</title>
<path fill="none" stroke="#191970" d="M2229.3323,-183.3344C2101.4575,-179.3318 1699.031,-164.9446 1571.7437,-139 1510.9231,-126.6031 1443.4363,-99.0879 1406.2539,-82.6402"/>
<polygon fill="#191970" stroke="#191970" points="1407.5955,-79.4061 1397.0383,-78.5146 1404.7353,-85.7952 1407.5955,-79.4061"/>
</g>
<!-- Node23 -->
<g id="node24" class="node">
<title>Node23</title>
<g id="a_node24"><a xlink:href="_train_window_8h.html" target="_top" xlink:title=" ">
<polygon fill="#ffffff" stroke="#000000" points="1580.8555,-120.5 1580.8555,-138.5 1662.6318,-138.5 1662.6318,-120.5 1580.8555,-120.5"/>
<text text-anchor="middle" x="1621.7437" y="-126.5" font-family="Helvetica,sans-Serif" font-size="10.00" fill="#000000">TrainWindow.h</text>
</a>
</g>
</g>
<!-- Node1&#45;&gt;Node23 -->
<g id="edge28" class="edge">
<title>Node1&#45;&gt;Node23</title>
<path fill="none" stroke="#191970" d="M2229.2449,-181.1423C2117.2972,-171.6259 1797.9543,-144.4793 1672.8742,-133.8465"/>
<polygon fill="#191970" stroke="#191970" points="1673.0553,-130.3494 1662.7947,-132.9897 1672.4623,-137.3242 1673.0553,-130.3494"/>
</g>
<!-- Node24 -->
<g id="node25" class="node">
<title>Node24</title>
<g id="a_node25"><a xlink:href="config_8h.html" target="_top" xlink:title=" ">
<polygon fill="#ffffff" stroke="#000000" points="2252.2314,-60.5 2252.2314,-78.5 2303.2559,-78.5 2303.2559,-60.5 2252.2314,-60.5"/>
<text text-anchor="middle" x="2277.7437" y="-66.5" font-family="Helvetica,sans-Serif" font-size="10.00" fill="#000000">config.h</text>
</a>
</g>
</g>
<!-- Node1&#45;&gt;Node24 -->
<g id="edge62" class="edge">
<title>Node1&#45;&gt;Node24</title>
<path fill="none" stroke="#191970" d="M2269.4499,-175.4761C2270.9016,-156.9256 2274.2499,-114.142 2276.2195,-88.9748"/>
<polygon fill="#191970" stroke="#191970" points="2279.7247,-89.044 2277.0157,-78.8014 2272.7461,-88.4978 2279.7247,-89.044"/>
</g>
<!-- Node34 -->
<g id="node34" class="node">
<title>Node34</title>
<g id="a_node34"><a xlink:href="_filter_bank_8h.html" target="_top" xlink:title=" ">
<polygon fill="#ffffff" stroke="#000000" points="2296.8989,-120.5 2296.8989,-138.5 2374.5884,-138.5 2374.5884,-120.5 2296.8989,-120.5"/>
<text text-anchor="middle" x="2335.7437" y="-126.5" font-family="Helvetica,sans-Serif" font-size="10.00" fill="#000000">../FilterBank.h</text>
</a>
</g>
</g>
<!-- Node1&#45;&gt;Node34 -->
<g id="edge48" class="edge">
<title>Node1&#45;&gt;Node34</title>
<path fill="none" stroke="#191970" d="M2279.8073,-175.4179C2289.7369,-167.2667 2304.5337,-155.1201 2316.4148,-145.3669"/>
<polygon fill="#191970" stroke="#191970" points="2318.931,-147.8297 2324.4396,-138.7795 2314.4895,-142.4192 2318.931,-147.8297"/>
</g>
<!-- Node36 -->
<g id="node36" class="node">
<title>Node36</title>
<g id="a_node36"><a xlink:href="_sample_timer_8h.html" target="_top" xlink:title=" ">
<polygon fill="#ffffff" stroke="#000000" points="2392.3013,-120.5 2392.3013,-138.5 2475.186,-138.5 2475.186,-120.5 2392.3013,-120.5"/>
<text text-anchor="middle" x="2433.7437" y="-126.5" font-family="Helvetica,sans-Serif" font-size="10.00" fill="#000000">SampleTimer.h</text>
</a>
</g>
</g>
<!-- Node1&#45;&gt;Node36 -->
<g id="edge50" class="edge">
<title>Node1&#45;&gt;Node36</title>
<path fill="none" stroke="#191970" d="M2295.99,-175.4179C2323.5392,-166.2348 2366.3014,-151.9807 2396.871,-141.7909"/>
<polygon fill="#191970" stroke="#191970" points="2398.351,-144.9869 2406.731,-138.5042 2396.1374,-138.3462 2398.351,-144.9869"/>
</g>
<!-- Node48 -->
<g id="node46" class="node">
<title>Node48</title>
<g id="a_node46"><a xlink:title=" ">
<polygon fill="#ffffff" stroke="#bfbfbf" points="2493.2339,-120.5 2493.2339,-138.5 2574.2534,-138.5 2574.2534,-120.5 2493.2339,-120.5"/>
<text text-anchor="middle" x="2533.7437" y="-126.5" font-family="Helvetica,sans-Serif" font-size="10.00" fill="#000000">QMainWindow</text>
</a>
</g>
</g>
<!-- Node1&#45;&gt;Node48 -->
<g id="edge63" class="edge">
<title>Node1&#45;&gt;Node48</title>
<path fill="none" stroke="#191970" d="M2308.4168,-176.2659C2354.9816,-166.6016 2432.2846,-150.5575 2483.1282,-140.0051"/>
<polygon fill="#191970" stroke="#191970" points="2483.8472,-143.4306 2492.9272,-137.9713 2482.4246,-136.5766 2483.8472,-143.4306"/>
</g>
<!-- Node49 -->
<g id="node47" class="node">
<title>Node49</title>
<g id="a_node47"><a xlink:title=" ">
<polygon fill="#ffffff" stroke="#bfbfbf" points="2591.8423,-120.5 2591.8423,-138.5 2645.645,-138.5 2645.645,-120.5 2591.8423,-120.5"/>
<text text-anchor="middle" x="2618.7437" y="-126.5" font-family="Helvetica,sans-Serif" font-size="10.00" fill="#000000">QLayout</text>
</a>
</g>
</g>
<!-- Node1&#45;&gt;Node49 -->
<g id="edge65" class="edge">
<title>Node1&#45;&gt;Node49</title>
<path fill="none" stroke="#191970" d="M2308.2982,-180.3508C2366.3753,-173.9178 2478.2656,-160.232 2581.7072,-139.246"/>
<polygon fill="#191970" stroke="#191970" points="2582.5997,-142.6358 2591.6892,-137.1924 2581.189,-135.7794 2582.5997,-142.6358"/>
</g>
<!-- Node1&#45;&gt;Node50 -->
<g id="edge68" class="edge">
<title>Node1&#45;&gt;Node50</title>
<path fill="none" stroke="#191970" d="M2308.3665,-183.3933C2396.0634,-180.4608 2613.2323,-170.5409 2803.2743,-139.005"/>
<polygon fill="#191970" stroke="#191970" points="2803.8816,-142.4521 2813.1617,-137.3404 2802.7194,-135.5492 2803.8816,-142.4521"/>
</g>
<!-- Node51 -->
<g id="node49" class="node">
<title>Node51</title>
<g id="a_node49"><a xlink:title=" ">
<polygon fill="#ffffff" stroke="#bfbfbf" points="2663.2266,-120.5 2663.2266,-138.5 2734.2607,-138.5 2734.2607,-120.5 2663.2266,-120.5"/>
<text text-anchor="middle" x="2698.7437" y="-126.5" font-family="Helvetica,sans-Serif" font-size="10.00" fill="#000000">QToolButton</text>
</a>
</g>
</g>
<!-- Node1&#45;&gt;Node51 -->
<g id="edge69" class="edge">
<title>Node1&#45;&gt;Node51</title>
<path fill="none" stroke="#191970" d="M2308.3724,-181.0858C2376.7211,-174.9248 2521.3546,-160.6933 2652.5538,-139.248"/>
<polygon fill="#191970" stroke="#191970" points="2653.4839,-142.6418 2662.7789,-137.5573 2652.3419,-135.7356 2653.4839,-142.6418"/>
</g>
<!-- Node52 -->
<g id="node50" class="node">
<title>Node52</title>
<g id="a_node50"><a xlink:title=" ">
<polygon fill="#ffffff" stroke="#bfbfbf" points="2752.1279,-120.5 2752.1279,-138.5 2795.3594,-138.5 2795.3594,-120.5 2752.1279,-120.5"/>
<text text-anchor="middle" x="2773.7437" y="-126.5" font-family="Helvetica,sans-Serif" font-size="10.00" fill="#000000">cmath</text>
</a>
</g>
</g>
<!-- Node1&#45;&gt;Node52 -->
<g id="edge72" class="edge">
<title>Node1&#45;&gt;Node52</title>
<path fill="none" stroke="#191970" d="M2308.2577,-183.528C2388.6334,-180.9489 2576.8974,-171.8382 2742.0859,-138.9862"/>
<polygon fill="#191970" stroke="#191970" points="2742.822,-142.4083 2751.9293,-136.9945 2741.4337,-135.5473 2742.822,-142.4083"/>
</g>
<!-- Node3 -->
<g id="node4" class="node">
<title>Node3</title>
<g id="a_node4"><a xlink:title=" ">
<polygon fill="#ffffff" stroke="#bfbfbf" points="0,-60.5 0,-78.5 85.4873,-78.5 85.4873,-60.5 0,-60.5"/>
<text text-anchor="middle" x="42.7437" y="-66.5" font-family="Helvetica,sans-Serif" font-size="10.00" fill="#000000">qwt/qwt_knob.h</text>
</a>
</g>
</g>
<!-- Node2&#45;&gt;Node3 -->
<g id="edge3" class="edge">
<title>Node2&#45;&gt;Node3</title>
<path fill="none" stroke="#191970" d="M381.3495,-125.1765C316.6946,-118.6949 196.0266,-104.9392 94.7437,-84 90.6651,-83.1568 86.4357,-82.1694 82.2307,-81.1134"/>
<polygon fill="#191970" stroke="#191970" points="83.1075,-77.725 72.5456,-78.56 81.3229,-84.4937 83.1075,-77.725"/>
</g>
<!-- Node4 -->
<g id="node5" class="node">
<title>Node4</title>
<g id="a_node5"><a xlink:title=" ">
<polygon fill="#ffffff" stroke="#bfbfbf" points="103.7808,-60.5 103.7808,-78.5 183.7065,-78.5 183.7065,-60.5 103.7808,-60.5"/>
<text text-anchor="middle" x="143.7437" y="-66.5" font-family="Helvetica,sans-Serif" font-size="10.00" fill="#000000">qwt/qwt_plot.h</text>
</a>
</g>
</g>
<!-- Node2&#45;&gt;Node4 -->
<g id="edge4" class="edge">
<title>Node2&#45;&gt;Node4</title>
<path fill="none" stroke="#191970" d="M381.0841,-121.8333C333.4579,-113.6883 257.5381,-99.8205 192.7437,-84 189.3663,-83.1754 185.8748,-82.2634 182.3831,-81.3102"/>
<polygon fill="#191970" stroke="#191970" points="183.2125,-77.9076 172.6374,-78.5529 181.3068,-84.6432 183.2125,-77.9076"/>
</g>
<!-- Node5 -->
<g id="node6" class="node">
<title>Node5</title>
<g id="a_node6"><a xlink:title=" ">
<polygon fill="#ffffff" stroke="#bfbfbf" points="201.7734,-60.5 201.7734,-78.5 311.7139,-78.5 311.7139,-60.5 201.7734,-60.5"/>
<text text-anchor="middle" x="256.7437" y="-66.5" font-family="Helvetica,sans-Serif" font-size="10.00" fill="#000000">qwt/qwt_plot_curve.h</text>
</a>
</g>
</g>
<!-- Node2&#45;&gt;Node5 -->
<g id="edge5" class="edge">
<title>Node2&#45;&gt;Node5</title>
<path fill="none" stroke="#191970" d="M401.7724,-120.3873C372.4759,-110.1078 324.6679,-93.3331 292.0104,-81.8743"/>
<polygon fill="#191970" stroke="#191970" points="292.9938,-78.5102 282.399,-78.5019 290.6762,-85.1154 292.9938,-78.5102"/>
</g>
<!-- Node2&#45;&gt;Node6 -->
<g id="edge6" class="edge">
<title>Node2&#45;&gt;Node6</title>
<path fill="none" stroke="#191970" d="M433.515,-120.3873C439.0391,-111.665 447.525,-98.2663 454.4027,-87.4067"/>
<polygon fill="#191970" stroke="#191970" points="457.5243,-89.0194 459.918,-78.6985 451.6105,-85.274 457.5243,-89.0194"/>
</g>
<!-- Node7 -->
<g id="node8" class="node">
<title>Node7</title>
<g id="a_node8"><a xlink:title=" ">
<polygon fill="#ffffff" stroke="#bfbfbf" points="962.9063,-.5 962.9063,-18.5 1010.5811,-18.5 1010.5811,-.5 962.9063,-.5"/>
<text text-anchor="middle" x="986.7437" y="-6.5" font-family="Helvetica,sans-Serif" font-size="10.00" fill="#000000">QColor</text>
</a>
</g>
</g>
<!-- Node2&#45;&gt;Node7 -->
<g id="edge7" class="edge">
<title>Node2&#45;&gt;Node7</title>
<path fill="none" stroke="#191970" d="M402.9176,-120.3658C387.169,-113.1227 368.0632,-101.3089 358.7437,-84 352.6333,-72.6515 349.9653,-64.4374 358.7437,-55 379.1331,-33.0798 824.5915,-15.3535 952.6169,-10.6977"/>
<polygon fill="#191970" stroke="#191970" points="952.7777,-14.1943 962.6451,-10.3363 952.5255,-7.1988 952.7777,-14.1943"/>
</g>
<!-- Node8 -->
<g id="node9" class="node">
<title>Node8</title>
<g id="a_node9"><a xlink:title=" ">
<polygon fill="#ffffff" stroke="#bfbfbf" points="612.0664,-60.5 612.0664,-78.5 681.4209,-78.5 681.4209,-60.5 612.0664,-60.5"/>
<text text-anchor="middle" x="646.7437" y="-66.5" font-family="Helvetica,sans-Serif" font-size="10.00" fill="#000000">QCheckBox</text>
</a>
</g>
</g>
<!-- Node2&#45;&gt;Node8 -->
<g id="edge8" class="edge">
<title>Node2&#45;&gt;Node8</title>
<path fill="none" stroke="#191970" d="M466.0719,-120.4377C501.8733,-111.7733 556.7044,-97.9915 603.7437,-84 606.1884,-83.2728 608.7025,-82.4977 611.2293,-81.6983"/>
<polygon fill="#191970" stroke="#191970" points="612.4922,-84.9681 620.9184,-78.5455 610.3261,-78.3116 612.4922,-84.9681"/>
</g>
<!-- Node2&#45;&gt;Node9 -->
<g id="edge9" class="edge">
<title>Node2&#45;&gt;Node9</title>
<path fill="none" stroke="#191970" d="M447.336,-120.3873C468.8653,-110.3737 503.6464,-94.1964 528.205,-82.7738"/>
<polygon fill="#191970" stroke="#191970" points="529.7985,-85.8928 537.3896,-78.5019 526.8463,-79.5457 529.7985,-85.8928"/>
</g>
<!-- Node10 -->
<g id="node11" class="node">
<title>Node10</title>
<g id="a_node11"><a xlink:title=" ">
<polygon fill="#ffffff" stroke="#bfbfbf" points="699.793,-60.5 699.793,-78.5 749.6943,-78.5 749.6943,-60.5 699.793,-60.5"/>
<text text-anchor="middle" x="724.7437" y="-66.5" font-family="Helvetica,sans-Serif" font-size="10.00" fill="#000000">QString</text>
</a>
</g>
</g>
<!-- Node2&#45;&gt;Node10 -->
<g id="edge10" class="edge">
<title>Node2&#45;&gt;Node10</title>
<path fill="none" stroke="#191970" d="M474.5722,-124.7187C527.7557,-118.5288 616.7513,-105.8558 690.7437,-84 692.4361,-83.5001 694.1572,-82.9403 695.8814,-82.3392"/>
<polygon fill="#191970" stroke="#191970" points="697.5474,-85.4475 705.6107,-78.5748 695.0214,-78.9191 697.5474,-85.4475"/>
</g>
<!-- Node11 -->
<g id="node12" class="node">
<title>Node11</title>
<g id="a_node12"><a xlink:title=" ">
<polygon fill="#ffffff" stroke="#bfbfbf" points="367.5664,-60.5 367.5664,-78.5 411.9209,-78.5 411.9209,-60.5 367.5664,-60.5"/>
<text text-anchor="middle" x="389.7437" y="-66.5" font-family="Helvetica,sans-Serif" font-size="10.00" fill="#000000">thread</text>
</a>
</g>
</g>
<!-- Node2&#45;&gt;Node11 -->
<g id="edge11" class="edge">
<title>Node2&#45;&gt;Node11</title>
<path fill="none" stroke="#191970" d="M421.9723,-120.3873C416.4482,-111.665 407.9623,-98.2663 401.0846,-87.4067"/>
<polygon fill="#191970" stroke="#191970" points="403.8768,-85.274 395.5693,-78.6985 397.963,-89.0194 403.8768,-85.274"/>
</g>
<!-- Node12&#45;&gt;Node6 -->
<g id="edge13" class="edge">
<title>Node12&#45;&gt;Node6</title>
<path fill="none" stroke="#191970" d="M928.1414,-128.2949C842.6588,-125.3951 660.1944,-115.7107 509.7437,-84 506.5169,-83.3199 503.1951,-82.4857 499.8915,-81.5643"/>
<polygon fill="#191970" stroke="#191970" points="500.7341,-78.1623 490.1485,-78.6048 498.6996,-84.8602 500.7341,-78.1623"/>
</g>
<!-- Node12&#45;&gt;Node7 -->
<g id="edge14" class="edge">
<title>Node12&#45;&gt;Node7</title>
<path fill="none" stroke="#191970" d="M928.3294,-126.3127C863.0575,-120.1629 759.0934,-102.731 796.7437,-55 815.776,-30.8718 903.0591,-18.1044 952.4377,-12.7035"/>
<polygon fill="#191970" stroke="#191970" points="953.0727,-16.1562 962.653,-11.6321 952.3424,-9.1944 953.0727,-16.1562"/>
</g>
<!-- Node12&#45;&gt;Node8 -->
<g id="edge15" class="edge">
<title>Node12&#45;&gt;Node8</title>
<path fill="none" stroke="#191970" d="M928.2948,-122.7537C858.9338,-112.931 734.8392,-94.7 690.7437,-84 687.7906,-83.2834 684.7508,-82.4625 681.7143,-81.5837"/>
<polygon fill="#191970" stroke="#191970" points="682.7234,-78.2324 672.1362,-78.6363 680.6645,-84.9228 682.7234,-78.2324"/>
</g>
<!-- Node12&#45;&gt;Node9 -->
<g id="edge16" class="edge">
<title>Node12&#45;&gt;Node9</title>
<path fill="none" stroke="#191970" d="M928.1522,-126.4591C856.3506,-121.3209 717.9742,-108.9476 602.7437,-84 599.3678,-83.2691 595.8855,-82.3973 592.4188,-81.449"/>
<polygon fill="#191970" stroke="#191970" points="593.3719,-78.0811 582.7911,-78.6271 591.403,-84.7985 593.3719,-78.0811"/>
</g>
<!-- Node12&#45;&gt;Node10 -->
<g id="edge17" class="edge">
<title>Node12&#45;&gt;Node10</title>
<path fill="none" stroke="#191970" d="M928.0254,-121.1814C884.5261,-113.2613 819.2936,-100.1666 763.7437,-84 761.6022,-83.3768 759.41,-82.693 757.2104,-81.9723"/>
<polygon fill="#191970" stroke="#191970" points="758.2494,-78.628 747.6546,-78.6496 755.9505,-85.2398 758.2494,-78.628"/>
</g>
<!-- Node12&#45;&gt;Node13 -->
<g id="edge18" class="edge">
<title>Node12&#45;&gt;Node13</title>
<path fill="none" stroke="#191970" d="M953.5051,-120.494C930.4009,-111.477 893.9927,-97.0969 862.7437,-84 861.5749,-83.5102 860.3846,-83.0071 859.1835,-82.496"/>
<polygon fill="#191970" stroke="#191970" points="860.509,-79.256 849.9408,-78.5051 857.7341,-85.6826 860.509,-79.256"/>
</g>
<!-- Node12&#45;&gt;Node14 -->
<g id="edge19" class="edge">
<title>Node12&#45;&gt;Node14</title>
<path fill="none" stroke="#191970" d="M964.1377,-120.3873C951.0211,-110.9054 930.2594,-95.897 914.6761,-84.6319"/>
<polygon fill="#191970" stroke="#191970" points="916.351,-81.5239 906.1962,-78.5019 912.25,-87.1969 916.351,-81.5239"/>
</g>
<!-- Node15 -->
<g id="node16" class="node">
<title>Node15</title>
<g id="a_node16"><a xlink:title=" ">
<polygon fill="#ffffff" stroke="#bfbfbf" points="1423.2617,-60.5 1423.2617,-78.5 1472.2256,-78.5 1472.2256,-60.5 1423.2617,-60.5"/>
<text text-anchor="middle" x="1447.7437" y="-66.5" font-family="Helvetica,sans-Serif" font-size="10.00" fill="#000000">QTimer</text>
</a>
</g>
</g>
<!-- Node12&#45;&gt;Node15 -->
<g id="edge20" class="edge">
<title>Node12&#45;&gt;Node15</title>
<path fill="none" stroke="#191970" d="M1025.2065,-126.2881C1123.1056,-119.4994 1341.2865,-102.7663 1413.7437,-84 1415.7005,-83.4932 1417.6905,-82.8915 1419.676,-82.2261"/>
<polygon fill="#191970" stroke="#191970" points="1421.3003,-85.3522 1429.3901,-78.5107 1418.7996,-78.8141 1421.3003,-85.3522"/>
</g>
<!-- Node16 -->
<g id="node17" class="node">
<title>Node16</title>
<g id="a_node17"><a xlink:title=" ">
<polygon fill="#ffffff" stroke="#bfbfbf" points="933.4458,-60.5 933.4458,-78.5 1020.0415,-78.5 1020.0415,-60.5 933.4458,-60.5"/>
<text text-anchor="middle" x="976.7437" y="-66.5" font-family="Helvetica,sans-Serif" font-size="10.00" fill="#000000">QTextToSpeech</text>
</a>
</g>
</g>
<!-- Node12&#45;&gt;Node16 -->
<g id="edge21" class="edge">
<title>Node12&#45;&gt;Node16</title>
<path fill="none" stroke="#191970" d="M976.7437,-120.3873C976.7437,-112.0174 976.7437,-99.3414 976.7437,-88.735"/>
<polygon fill="#191970" stroke="#191970" points="980.2438,-88.6984 976.7437,-78.6985 973.2438,-88.6985 980.2438,-88.6984"/>
</g>
<!-- Node17 -->
<g id="node18" class="node">
<title>Node17</title>
<g id="a_node18"><a xlink:title=" ">
<polygon fill="#ffffff" stroke="#bfbfbf" points="1037.8916,-60.5 1037.8916,-78.5 1115.5957,-78.5 1115.5957,-60.5 1037.8916,-60.5"/>
<text text-anchor="middle" x="1076.7437" y="-66.5" font-family="Helvetica,sans-Serif" font-size="10.00" fill="#000000">QVBoxLayout</text>
</a>
</g>
</g>
<!-- Node12&#45;&gt;Node17 -->
<g id="edge22" class="edge">
<title>Node12&#45;&gt;Node17</title>
<path fill="none" stroke="#191970" d="M991.9315,-120.3873C1008.1778,-110.6395 1034.1586,-95.051 1053.088,-83.6934"/>
<polygon fill="#191970" stroke="#191970" points="1054.9663,-86.6481 1061.7405,-78.5019 1051.3648,-80.6456 1054.9663,-86.6481"/>
</g>
<!-- Node18 -->
<g id="node19" class="node">
<title>Node18</title>
<g id="a_node19"><a xlink:title=" ">
<polygon fill="#ffffff" stroke="#bfbfbf" points="1134.0664,-60.5 1134.0664,-78.5 1213.4209,-78.5 1213.4209,-60.5 1134.0664,-60.5"/>
<text text-anchor="middle" x="1173.7437" y="-66.5" font-family="Helvetica,sans-Serif" font-size="10.00" fill="#000000">QProgressBar</text>
</a>
</g>
</g>
<!-- Node12&#45;&gt;Node18 -->
<g id="edge23" class="edge">
<title>Node12&#45;&gt;Node18</title>
<path fill="none" stroke="#191970" d="M1006.6637,-120.3873C1040.8511,-109.9749 1096.9197,-92.8982 1134.5654,-81.4325"/>
<polygon fill="#191970" stroke="#191970" points="1135.6411,-84.7636 1144.1875,-78.5019 1133.6016,-78.0673 1135.6411,-84.7636"/>
</g>
<!-- Node19 -->
<g id="node20" class="node">
<title>Node19</title>
<g id="a_node20"><a xlink:title=" ">
<polygon fill="#ffffff" stroke="#bfbfbf" points="1490.0122,-60.5 1490.0122,-78.5 1535.4751,-78.5 1535.4751,-60.5 1490.0122,-60.5"/>
<text text-anchor="middle" x="1512.7437" y="-66.5" font-family="Helvetica,sans-Serif" font-size="10.00" fill="#000000">stdio.h</text>
</a>
</g>
</g>
<!-- Node12&#45;&gt;Node19 -->
<g id="edge24" class="edge">
<title>Node12&#45;&gt;Node19</title>
<path fill="none" stroke="#191970" d="M1025.1217,-127.1978C1134.008,-121.6822 1395.4713,-106.4782 1480.7437,-84 1482.4466,-83.5511 1484.1726,-83.019 1485.8946,-82.4281"/>
<polygon fill="#191970" stroke="#191970" points="1487.5444,-85.5378 1495.5278,-78.5725 1484.9432,-79.039 1487.5444,-85.5378"/>
</g>
<!-- Node12&#45;&gt;Node20 -->
<g id="edge25" class="edge">
<title>Node12&#45;&gt;Node20</title>
<path fill="none" stroke="#191970" d="M1025.3187,-127.4392C1095.9761,-123.5481 1230.7798,-112.7428 1341.7437,-84 1343.9165,-83.4372 1346.1335,-82.7753 1348.3462,-82.0497"/>
<polygon fill="#191970" stroke="#191970" points="1349.6793,-85.289 1357.871,-78.5698 1347.2771,-78.714 1349.6793,-85.289"/>
</g>
<!-- Node21 -->
<g id="node22" class="node">
<title>Node21</title>
<g id="a_node22"><a xlink:href="_neural_net_8h.html" target="_top" xlink:title=" ">
<polygon fill="#ffffff" stroke="#000000" points="1230.9385,-55.5 1230.9385,-83.5 1332.5488,-83.5 1332.5488,-55.5 1230.9385,-55.5"/>
<text text-anchor="start" x="1238.9385" y="-71.5" font-family="Helvetica,sans-Serif" font-size="10.00" fill="#000000">../neuralnet_predict</text>
<text text-anchor="middle" x="1281.7437" y="-61.5" font-family="Helvetica,sans-Serif" font-size="10.00" fill="#000000">/NeuralNet.h</text>
</a>
</g>
</g>
<!-- Node12&#45;&gt;Node21 -->
<g id="edge26" class="edge">
<title>Node12&#45;&gt;Node21</title>
<path fill="none" stroke="#191970" d="M1025.4527,-121.3504C1073.0646,-113.1916 1147.8259,-99.8704 1221.0827,-84.2959"/>
<polygon fill="#191970" stroke="#191970" points="1221.8932,-87.7017 1230.9382,-82.1847 1220.4269,-80.857 1221.8932,-87.7017"/>
</g>
<!-- Node22 -->
<g id="node23" class="node">
<title>Node22</title>
<g id="a_node23"><a xlink:title=" ">
<polygon fill="#ffffff" stroke="#bfbfbf" points="1237.5986,-.5 1237.5986,-18.5 1325.8887,-18.5 1325.8887,-.5 1237.5986,-.5"/>
<text text-anchor="middle" x="1281.7437" y="-6.5" font-family="Helvetica,sans-Serif" font-size="10.00" fill="#000000">fdeep/fdeep.hpp</text>
</a>
</g>
</g>
<!-- Node21&#45;&gt;Node22 -->
<g id="edge27" class="edge">
<title>Node21&#45;&gt;Node22</title>
<path fill="none" stroke="#191970" d="M1281.7437,-55.2808C1281.7437,-47.3776 1281.7437,-37.4316 1281.7437,-28.8308"/>
<polygon fill="#191970" stroke="#191970" points="1285.2437,-28.5842 1281.7437,-18.5842 1278.2437,-28.5842 1285.2437,-28.5842"/>
</g>
<!-- Node23&#45;&gt;Node6 -->
<g id="edge30" class="edge">
<title>Node23&#45;&gt;Node6</title>
<path fill="none" stroke="#191970" d="M1580.7612,-129.3408C1405.8755,-128.4282 721.3584,-122.4235 509.7437,-84 506.2345,-83.3628 502.6208,-82.5113 499.0441,-81.5389"/>
<polygon fill="#191970" stroke="#191970" points="499.7647,-78.1003 489.1797,-78.5555 497.7383,-84.8006 499.7647,-78.1003"/>
</g>
<!-- Node23&#45;&gt;Node7 -->
<g id="edge31" class="edge">
<title>Node23&#45;&gt;Node7</title>
<path fill="none" stroke="#191970" d="M1613.7738,-120.3801C1597.6638,-102.1947 1561.3499,-62.5183 1544.7437,-55 1497.0835,-33.4224 1134.8963,-15.9559 1020.9497,-10.948"/>
<polygon fill="#191970" stroke="#191970" points="1020.8593,-7.4409 1010.7165,-10.5026 1020.5548,-14.4342 1020.8593,-7.4409"/>
</g>
<!-- Node23&#45;&gt;Node8 -->
<g id="edge32" class="edge">
<title>Node23&#45;&gt;Node8</title>
<path fill="none" stroke="#191970" d="M1580.7452,-128.9623C1424.3453,-126.6841 865.2625,-116.404 690.7437,-84 687.237,-83.3489 683.625,-82.4883 680.0494,-81.5103"/>
<polygon fill="#191970" stroke="#191970" points="680.7716,-78.072 670.1862,-78.5198 678.7404,-84.7709 680.7716,-78.072"/>
</g>
<!-- Node23&#45;&gt;Node9 -->
<g id="edge33" class="edge">
<title>Node23&#45;&gt;Node9</title>
<path fill="none" stroke="#191970" d="M1580.6158,-129.0915C1414.8471,-127.2244 795.4353,-118.0676 602.7437,-84 598.8656,-83.3144 594.86,-82.3913 590.9044,-81.3411"/>
<polygon fill="#191970" stroke="#191970" points="591.8566,-77.973 581.2765,-78.5317 589.8957,-84.6928 591.8566,-77.973"/>
</g>
<!-- Node23&#45;&gt;Node10 -->
<g id="edge34" class="edge">
<title>Node23&#45;&gt;Node10</title>
<path fill="none" stroke="#191970" d="M1580.6359,-128.0162C1436.0045,-122.6731 951.0428,-103.6884 796.7437,-84 784.613,-82.4521 771.4663,-80.029 759.7672,-77.6036"/>
<polygon fill="#191970" stroke="#191970" points="760.4323,-74.1667 749.9209,-75.4935 758.9655,-81.0113 760.4323,-74.1667"/>
</g>
<!-- Node23&#45;&gt;Node13 -->
<g id="edge35" class="edge">
<title>Node23&#45;&gt;Node13</title>
<path fill="none" stroke="#191970" d="M1580.6691,-128.9433C1443.3071,-126.7843 1000.8473,-117.3483 862.7437,-84 860.7819,-83.5263 858.7907,-82.9418 856.8086,-82.282"/>
<polygon fill="#191970" stroke="#191970" points="857.7409,-78.889 847.1525,-78.5191 855.1992,-85.4113 857.7409,-78.889"/>
</g>
<!-- Node23&#45;&gt;Node14 -->
<g id="edge36" class="edge">
<title>Node23&#45;&gt;Node14</title>
<path fill="none" stroke="#191970" d="M1580.4019,-128.8076C1450.22,-126.3128 1049.9791,-116.1578 924.7437,-84 923.0424,-83.5631 921.3206,-83.0338 919.6058,-82.4392"/>
<polygon fill="#191970" stroke="#191970" points="920.6309,-79.0764 910.0513,-78.509 917.968,-85.5501 920.6309,-79.0764"/>
</g>
<!-- Node23&#45;&gt;Node15 -->
<g id="edge39" class="edge">
<title>Node23&#45;&gt;Node15</title>
<path fill="none" stroke="#191970" d="M1590.6233,-120.4535C1561.8417,-111.8527 1518.0139,-98.1595 1480.7437,-84 1479.5261,-83.5375 1478.2885,-83.0543 1477.042,-82.5569"/>
<polygon fill="#191970" stroke="#191970" points="1478.0781,-79.1966 1467.5017,-78.572 1475.3801,-85.6558 1478.0781,-79.1966"/>
</g>
<!-- Node23&#45;&gt;Node19 -->
<g id="edge46" class="edge">
<title>Node23&#45;&gt;Node19</title>
<path fill="none" stroke="#191970" d="M1605.1889,-120.3873C1587.3195,-110.5509 1558.6456,-94.7671 1537.9676,-83.3847"/>
<polygon fill="#191970" stroke="#191970" points="1539.5453,-80.258 1529.0971,-78.5019 1536.1697,-86.3904 1539.5453,-80.258"/>
</g>
<!-- Node23&#45;&gt;Node24 -->
<g id="edge29" class="edge">
<title>Node23&#45;&gt;Node24</title>
<path fill="none" stroke="#191970" d="M1662.7813,-128.2598C1783.0005,-124.3484 2132.8672,-110.9064 2243.7437,-84 2245.708,-83.5233 2247.7038,-82.9444 2249.6934,-82.2956"/>
<polygon fill="#191970" stroke="#191970" points="2251.3011,-85.4296 2259.4173,-78.6195 2248.8258,-78.8819 2251.3011,-85.4296"/>
</g>
<!-- Node25 -->
<g id="node26" class="node">
<title>Node25</title>
<g id="a_node26"><a xlink:title=" ">
<polygon fill="#ffffff" stroke="#bfbfbf" points="1591.7856,-60.5 1591.7856,-78.5 1651.7017,-78.5 1651.7017,-60.5 1591.7856,-60.5"/>
<text text-anchor="middle" x="1621.7437" y="-66.5" font-family="Helvetica,sans-Serif" font-size="10.00" fill="#000000">QLineEdit</text>
</a>
</g>
</g>
<!-- Node23&#45;&gt;Node25 -->
<g id="edge37" class="edge">
<title>Node23&#45;&gt;Node25</title>
<path fill="none" stroke="#191970" d="M1621.7437,-120.3873C1621.7437,-112.0174 1621.7437,-99.3414 1621.7437,-88.735"/>
<polygon fill="#191970" stroke="#191970" points="1625.2438,-88.6984 1621.7437,-78.6985 1618.2438,-88.6985 1625.2438,-88.6984"/>
</g>
<!-- Node26 -->
<g id="node27" class="node">
<title>Node26</title>
<g id="a_node27"><a xlink:title=" ">
<polygon fill="#ffffff" stroke="#bfbfbf" points="1669.3423,-60.5 1669.3423,-78.5 1738.145,-78.5 1738.145,-60.5 1669.3423,-60.5"/>
<text text-anchor="middle" x="1703.7437" y="-66.5" font-family="Helvetica,sans-Serif" font-size="10.00" fill="#000000">QGroupBox</text>
</a>
</g>
</g>
<!-- Node23&#45;&gt;Node26 -->
<g id="edge38" class="edge">
<title>Node23&#45;&gt;Node26</title>
<path fill="none" stroke="#191970" d="M1634.1977,-120.3873C1647.1563,-110.9054 1667.6678,-95.897 1683.0634,-84.6319"/>
<polygon fill="#191970" stroke="#191970" points="1685.4376,-87.2316 1691.4411,-78.5019 1681.304,-81.5824 1685.4376,-87.2316"/>
</g>
<!-- Node27 -->
<g id="node28" class="node">
<title>Node27</title>
<g id="a_node28"><a xlink:title=" ">
<polygon fill="#ffffff" stroke="#bfbfbf" points="1756.5122,-60.5 1756.5122,-78.5 1826.9751,-78.5 1826.9751,-60.5 1756.5122,-60.5"/>
<text text-anchor="middle" x="1791.7437" y="-66.5" font-family="Helvetica,sans-Serif" font-size="10.00" fill="#000000">QListWidget</text>
</a>
</g>
</g>
<!-- Node23&#45;&gt;Node27 -->
<g id="edge40" class="edge">
<title>Node23&#45;&gt;Node27</title>
<path fill="none" stroke="#191970" d="M1647.563,-120.3873C1676.6882,-110.1078 1724.2166,-93.3331 1756.6831,-81.8743"/>
<polygon fill="#191970" stroke="#191970" points="1757.9733,-85.1306 1766.2383,-78.5019 1755.6435,-78.5297 1757.9733,-85.1306"/>
</g>
<!-- Node28 -->
<g id="node29" class="node">
<title>Node28</title>
<g id="a_node29"><a xlink:title=" ">
<polygon fill="#ffffff" stroke="#bfbfbf" points="1845.4678,-60.5 1845.4678,-78.5 1882.0195,-78.5 1882.0195,-60.5 1845.4678,-60.5"/>
<text text-anchor="middle" x="1863.7437" y="-66.5" font-family="Helvetica,sans-Serif" font-size="10.00" fill="#000000">QDir</text>
</a>
</g>
</g>
<!-- Node23&#45;&gt;Node28 -->
<g id="edge41" class="edge">
<title>Node23&#45;&gt;Node28</title>
<path fill="none" stroke="#191970" d="M1662.8716,-124.1077C1706.6326,-117.6029 1777.4512,-104.8608 1835.7437,-84 1836.7745,-83.6311 1837.8151,-83.2313 1838.8578,-82.8078"/>
<polygon fill="#191970" stroke="#191970" points="1840.4748,-85.9163 1848.0845,-78.5446 1837.5386,-79.5618 1840.4748,-85.9163"/>
</g>
<!-- Node29 -->
<g id="node30" class="node">
<title>Node29</title>
<g id="a_node30"><a xlink:title=" ">
<polygon fill="#ffffff" stroke="#bfbfbf" points="1900.041,-60.5 1900.041,-78.5 2001.4463,-78.5 2001.4463,-60.5 1900.041,-60.5"/>
<text text-anchor="middle" x="1950.7437" y="-66.5" font-family="Helvetica,sans-Serif" font-size="10.00" fill="#000000">QAbstractItemView</text>
</a>
</g>
</g>
<!-- Node23&#45;&gt;Node29 -->
<g id="edge42" class="edge">
<title>Node23&#45;&gt;Node29</title>
<path fill="none" stroke="#191970" d="M1662.9248,-123.4457C1715.847,-115.4568 1810.4743,-100.467 1890.7437,-84 1895.4185,-83.041 1900.2825,-81.9768 1905.1284,-80.8732"/>
<polygon fill="#191970" stroke="#191970" points="1906.0404,-84.2545 1914.9833,-78.5733 1904.4495,-77.4376 1906.0404,-84.2545"/>
</g>
<!-- Node30 -->
<g id="node31" class="node">
<title>Node30</title>
<g id="a_node31"><a xlink:title=" ">
<polygon fill="#ffffff" stroke="#bfbfbf" points="2018.9507,-60.5 2018.9507,-78.5 2100.5366,-78.5 2100.5366,-60.5 2018.9507,-60.5"/>
<text text-anchor="middle" x="2059.7437" y="-66.5" font-family="Helvetica,sans-Serif" font-size="10.00" fill="#000000">QMessageBox</text>
</a>
</g>
</g>
<!-- Node23&#45;&gt;Node30 -->
<g id="edge43" class="edge">
<title>Node23&#45;&gt;Node30</title>
<path fill="none" stroke="#191970" d="M1662.7104,-127.0243C1734.0231,-122.2013 1885.3473,-109.6898 2010.7437,-84 2014.5935,-83.2113 2018.5782,-82.2614 2022.5357,-81.2297"/>
<polygon fill="#191970" stroke="#191970" points="2023.5245,-84.5876 2032.225,-78.5418 2021.6533,-77.8423 2023.5245,-84.5876"/>
</g>
<!-- Node31 -->
<g id="node32" class="node">
<title>Node31</title>
<g id="a_node32"><a xlink:href="_q_led_8h.html" target="_top" xlink:title=" ">
<polygon fill="#ffffff" stroke="#ff0000" points="2118.3423,-60.5 2118.3423,-78.5 2167.145,-78.5 2167.145,-60.5 2118.3423,-60.5"/>
<text text-anchor="middle" x="2142.7437" y="-66.5" font-family="Helvetica,sans-Serif" font-size="10.00" fill="#000000">QLed.h</text>
</a>
</g>
</g>
<!-- Node23&#45;&gt;Node31 -->
<g id="edge44" class="edge">
<title>Node23&#45;&gt;Node31</title>
<path fill="none" stroke="#191970" d="M1662.8202,-127.3657C1764.451,-121.8134 2025.5197,-105.8187 2109.7437,-84 2111.6519,-83.5057 2113.5901,-82.9134 2115.5222,-82.2549"/>
<polygon fill="#191970" stroke="#191970" points="2116.9284,-85.463 2124.9622,-78.5558 2114.3745,-78.9455 2116.9284,-85.463"/>
</g>
<!-- Node33 -->
<g id="node33" class="node">
<title>Node33</title>
<g id="a_node33"><a xlink:title=" ">
<polygon fill="#ffffff" stroke="#bfbfbf" points="2185.0737,-60.5 2185.0737,-78.5 2234.4136,-78.5 2234.4136,-60.5 2185.0737,-60.5"/>
<text text-anchor="middle" x="2209.7437" y="-66.5" font-family="Helvetica,sans-Serif" font-size="10.00" fill="#000000">fstream</text>
</a>
</g>
</g>
<!-- Node23&#45;&gt;Node33 -->
<g id="edge47" class="edge">
<title>Node23&#45;&gt;Node33</title>
<path fill="none" stroke="#191970" d="M1662.9948,-127.826C1774.2144,-123.0399 2078.4335,-108.0746 2175.7437,-84 2177.7059,-83.5145 2179.7,-82.929 2181.6885,-82.2754"/>
<polygon fill="#191970" stroke="#191970" points="2183.301,-85.4071 2191.4096,-78.5879 2180.8183,-78.8622 2183.301,-85.4071"/>
</g>
<!-- Node31&#45;&gt;Node7 -->
<g id="edge45" class="edge">
<title>Node31&#45;&gt;Node7</title>
<path fill="none" stroke="#191970" d="M2125.3507,-60.4137C2120.4317,-58.2467 2114.987,-56.2125 2109.7437,-55 2102.9361,-53.4258 1208.3255,-18.2056 1020.924,-10.8421"/>
<polygon fill="#191970" stroke="#191970" points="1020.9511,-7.3406 1010.8214,-10.4452 1020.6762,-14.3352 1020.9511,-7.3406"/>
</g>
<!-- Node35 -->
<g id="node35" class="node">
<title>Node35</title>
<g id="a_node35"><a xlink:title=" ">
<polygon fill="#ffffff" stroke="#bfbfbf" points="2321.6821,-60.5 2321.6821,-78.5 2353.8052,-78.5 2353.8052,-60.5 2321.6821,-60.5"/>
<text text-anchor="middle" x="2337.7437" y="-66.5" font-family="Helvetica,sans-Serif" font-size="10.00" fill="#000000">Iir.h</text>
</a>
</g>
</g>
<!-- Node34&#45;&gt;Node35 -->
<g id="edge49" class="edge">
<title>Node34&#45;&gt;Node35</title>
<path fill="none" stroke="#191970" d="M2336.0474,-120.3873C2336.3264,-112.0174 2336.7489,-99.3414 2337.1025,-88.735"/>
<polygon fill="#191970" stroke="#191970" points="2340.6018,-88.8096 2337.437,-78.6985 2333.6057,-88.5763 2340.6018,-88.8096"/>
</g>
<!-- Node36&#45;&gt;Node19 -->
<g id="edge54" class="edge">
<title>Node36&#45;&gt;Node19</title>
<path fill="none" stroke="#191970" d="M2392.0704,-121.121C2389.2591,-120.6982 2386.4643,-120.3179 2383.7437,-120 2029.7931,-78.6354 1936.341,-128.2819 1582.7437,-84 1570.457,-82.4613 1557.1147,-79.9195 1545.406,-77.3902"/>
<polygon fill="#191970" stroke="#191970" points="1546.1277,-73.9652 1535.6046,-75.1962 1544.5985,-80.7961 1546.1277,-73.9652"/>
</g>
<!-- Node37 -->
<g id="node37" class="node">
<title>Node37</title>
<g id="a_node37"><a xlink:title=" ">
<polygon fill="#ffffff" stroke="#bfbfbf" points="2371.8711,-60.5 2371.8711,-78.5 2491.6162,-78.5 2491.6162,-60.5 2371.8711,-60.5"/>
<text text-anchor="middle" x="2431.7437" y="-66.5" font-family="Helvetica,sans-Serif" font-size="10.00" fill="#000000">../cppTimer/CppTimer.h</text>
</a>
</g>
</g>
<!-- Node36&#45;&gt;Node37 -->
<g id="edge51" class="edge">
<title>Node36&#45;&gt;Node37</title>
<path fill="none" stroke="#191970" d="M2433.4399,-120.3873C2433.1609,-112.0174 2432.7384,-99.3414 2432.3848,-88.735"/>
<polygon fill="#191970" stroke="#191970" points="2435.8816,-88.5763 2432.0503,-78.6985 2428.8855,-88.8096 2435.8816,-88.5763"/>
</g>
<!-- Node38 -->
<g id="node38" class="node">
<title>Node38</title>
<g id="a_node38"><a xlink:href="_ring_buff_8h.html" target="_top" xlink:title=" ">
<polygon fill="#ffffff" stroke="#000000" points="2509.3169,-60.5 2509.3169,-78.5 2580.1704,-78.5 2580.1704,-60.5 2509.3169,-60.5"/>
<text text-anchor="middle" x="2544.7437" y="-66.5" font-family="Helvetica,sans-Serif" font-size="10.00" fill="#000000">../RingBuff.h</text>
</a>
</g>
</g>
<!-- Node36&#45;&gt;Node38 -->
<g id="edge52" class="edge">
<title>Node36&#45;&gt;Node38</title>
<path fill="none" stroke="#191970" d="M2450.6022,-120.3873C2468.7995,-110.5509 2497.9995,-94.7671 2519.0569,-83.3847"/>
<polygon fill="#191970" stroke="#191970" points="2520.9574,-86.3361 2528.0902,-78.5019 2517.6288,-80.1781 2520.9574,-86.3361"/>
</g>
<!-- Node39 -->
<g id="node39" class="node">
<title>Node39</title>
<g id="a_node39"><a xlink:title=" ">
<polygon fill="#ffffff" stroke="#bfbfbf" points="2598.2314,-60.5 2598.2314,-78.5 2649.2559,-78.5 2649.2559,-60.5 2598.2314,-60.5"/>
<text text-anchor="middle" x="2623.7437" y="-66.5" font-family="Helvetica,sans-Serif" font-size="10.00" fill="#000000">unistd.h</text>
</a>
</g>
</g>
<!-- Node36&#45;&gt;Node39 -->
<g id="edge53" class="edge">
<title>Node36&#45;&gt;Node39</title>
<path fill="none" stroke="#191970" d="M2468.5574,-120.4293C2500.1963,-111.9152 2548.0142,-98.3683 2588.7437,-84 2590.178,-83.494 2591.6388,-82.9611 2593.1096,-82.4103"/>
<polygon fill="#191970" stroke="#191970" points="2594.7573,-85.5235 2602.7861,-78.6105 2592.1987,-79.0078 2594.7573,-85.5235"/>
</g>
<!-- Node40 -->
<g id="node40" class="node">
<title>Node40</title>
<g id="a_node40"><a xlink:title=" ">
<polygon fill="#ffffff" stroke="#bfbfbf" points="2801.623,-.5 2801.623,-18.5 2849.8643,-18.5 2849.8643,-.5 2801.623,-.5"/>
<text text-anchor="middle" x="2825.7437" y="-6.5" font-family="Helvetica,sans-Serif" font-size="10.00" fill="#000000">stdint.h</text>
</a>
</g>
</g>
<!-- Node36&#45;&gt;Node40 -->
<g id="edge55" class="edge">
<title>Node36&#45;&gt;Node40</title>
<path fill="none" stroke="#191970" d="M2475.4006,-121.5765C2538.1182,-109.5752 2650.4068,-87.7801 2658.7437,-84 2678.0927,-75.2266 2678.0534,-65.1011 2696.7437,-55 2727.3107,-38.4801 2765.0741,-25.9813 2791.824,-18.3032"/>
<polygon fill="#191970" stroke="#191970" points="2792.8107,-21.6616 2801.499,-15.5982 2790.9259,-14.9202 2792.8107,-21.6616"/>
</g>
<!-- Node41 -->
<g id="node41" class="node">
<title>Node41</title>
<g id="a_node41"><a xlink:title=" ">
<polygon fill="#ffffff" stroke="#bfbfbf" points="2705.9014,-60.5 2705.9014,-78.5 2753.5859,-78.5 2753.5859,-60.5 2705.9014,-60.5"/>
<text text-anchor="middle" x="2729.7437" y="-66.5" font-family="Helvetica,sans-Serif" font-size="10.00" fill="#000000">stdlib.h</text>
</a>
</g>
</g>
<!-- Node36&#45;&gt;Node41 -->
<g id="edge56" class="edge">
<title>Node36&#45;&gt;Node41</title>
<path fill="none" stroke="#191970" d="M2475.2053,-121.5681C2478.0939,-121.0322 2480.9616,-120.505 2483.7437,-120 2576.0539,-103.2433 2601.2727,-108.8393 2691.7437,-84 2694.0418,-83.369 2696.3944,-82.6524 2698.7472,-81.8837"/>
<polygon fill="#191970" stroke="#191970" points="2700.0179,-85.1469 2708.2813,-78.5162 2697.6865,-78.5465 2700.0179,-85.1469"/>
</g>
<!-- Node42 -->
<g id="node42" class="node">
<title>Node42</title>
<g id="a_node42"><a xlink:title=" ">
<polygon fill="#ffffff" stroke="#bfbfbf" points="2771.4038,-60.5 2771.4038,-78.5 2824.0835,-78.5 2824.0835,-60.5 2771.4038,-60.5"/>
<text text-anchor="middle" x="2797.7437" y="-66.5" font-family="Helvetica,sans-Serif" font-size="10.00" fill="#000000">QObject</text>
</a>
</g>
</g>
<!-- Node36&#45;&gt;Node42 -->
<g id="edge57" class="edge">
<title>Node36&#45;&gt;Node42</title>
<path fill="none" stroke="#191970" d="M2475.4531,-121.3832C2478.2556,-120.8971 2481.0387,-120.4311 2483.7437,-120 2607.2135,-100.3224 2641.9353,-116.2077 2762.7437,-84 2764.6979,-83.479 2766.6876,-82.874 2768.6762,-82.2126"/>
<polygon fill="#191970" stroke="#191970" points="2770.2965,-85.3435 2778.4386,-78.5644 2767.8461,-78.7864 2770.2965,-85.3435"/>
</g>
<!-- Node43 -->
<g id="node43" class="node">
<title>Node43</title>
<g id="a_node43"><a xlink:title=" ">
<polygon fill="#ffffff" stroke="#bfbfbf" points="2842.2388,-60.5 2842.2388,-78.5 2893.2485,-78.5 2893.2485,-60.5 2842.2388,-60.5"/>
<text text-anchor="middle" x="2867.7437" y="-66.5" font-family="Helvetica,sans-Serif" font-size="10.00" fill="#000000">QMutex</text>
</a>
</g>
</g>
<!-- Node36&#45;&gt;Node43 -->
<g id="edge58" class="edge">
<title>Node36&#45;&gt;Node43</title>
<path fill="none" stroke="#191970" d="M2475.4408,-121.3031C2478.2463,-120.8363 2481.0334,-120.3965 2483.7437,-120 2638.0352,-97.4262 2681.5716,-122.2424 2832.7437,-84 2834.9196,-83.4496 2837.1373,-82.7882 2839.3471,-82.0553"/>
<polygon fill="#191970" stroke="#191970" points="2840.6907,-85.2896 2848.8292,-78.5061 2838.2368,-78.7338 2840.6907,-85.2896"/>
</g>
<!-- Node44 -->
<g id="node44" class="node">
<title>Node44</title>
<g id="a_node44"><a xlink:href="_m_c_p3428_8h.html" target="_top" xlink:title=" ">
<polygon fill="#ffffff" stroke="#ff0000" points="2911.5493,-60.5 2911.5493,-78.5 3035.938,-78.5 3035.938,-60.5 2911.5493,-60.5"/>
<text text-anchor="middle" x="2973.7437" y="-66.5" font-family="Helvetica,sans-Serif" font-size="10.00" fill="#000000">../MCP3428/MCP3428.h</text>
</a>
</g>
</g>
<!-- Node36&#45;&gt;Node44 -->
<g id="edge59" class="edge">
<title>Node36&#45;&gt;Node44</title>
<path fill="none" stroke="#191970" d="M2475.4332,-121.2494C2478.2406,-120.7956 2481.0301,-120.3734 2483.7437,-120 2668.9074,-94.5226 2717.7587,-110.7445 2902.7437,-84 2909.5199,-83.0203 2916.6238,-81.8019 2923.6097,-80.4904"/>
<polygon fill="#191970" stroke="#191970" points="2924.5643,-83.8703 2933.7087,-78.5195 2923.2234,-76.9999 2924.5643,-83.8703"/>
</g>
<!-- Node46 -->
<g id="node45" class="node">
<title>Node46</title>
<g id="a_node45"><a xlink:href="_m_p_u6050_8h.html" target="_top" xlink:title=" ">
<polygon fill="#ffffff" stroke="#ff0000" points="3053.5493,-60.5 3053.5493,-78.5 3177.938,-78.5 3177.938,-60.5 3053.5493,-60.5"/>
<text text-anchor="middle" x="3115.7437" y="-66.5" font-family="Helvetica,sans-Serif" font-size="10.00" fill="#000000">../MPU6050/MPU6050.h</text>
</a>
</g>
</g>
<!-- Node36&#45;&gt;Node46 -->
<g id="edge61" class="edge">
<title>Node36&#45;&gt;Node46</title>
<path fill="none" stroke="#191970" d="M2475.4242,-121.1814C2478.2337,-120.744 2481.0262,-120.344 2483.7437,-120 2731.6116,-88.6218 2797.0963,-117.0745 3044.7437,-84 3051.8594,-83.0497 3059.3305,-81.8026 3066.6451,-80.4382"/>
<polygon fill="#191970" stroke="#191970" points="3067.329,-83.8709 3076.4744,-78.5219 3065.9894,-77.0002 3067.329,-83.8709"/>
</g>
<!-- Node44&#45;&gt;Node40 -->
<g id="edge60" class="edge">
<title>Node44&#45;&gt;Node40</title>
<path fill="none" stroke="#191970" d="M2951.2656,-60.3873C2926.2375,-50.2407 2885.5993,-33.7658 2857.3699,-22.3215"/>
<polygon fill="#191970" stroke="#191970" points="2858.5307,-19.0154 2847.9483,-18.5019 2855.9007,-25.5026 2858.5307,-19.0154"/>
</g>
</g>
</svg>
