<?xml version="1.0" encoding="UTF-8" standalone="no"?>
<!DOCTYPE svg PUBLIC "-//W3C//DTD SVG 1.1//EN"
 "http://www.w3.org/Graphics/SVG/1.1/DTD/svg11.dtd">
<!-- Generated by graphviz version 2.40.1 (20161225.0304)
 -->
<!-- Title: code/Qt/mainwindow.h Pages: 1 -->
<svg width="248pt" height="82pt"
 viewBox="0.00 0.00 247.78 82.00" xmlns="http://www.w3.org/2000/svg" xmlns:xlink="http://www.w3.org/1999/xlink">
<g id="graph0" class="graph" transform="scale(1 1) rotate(0) translate(4 78)">
<title>code/Qt/mainwindow.h</title>
<polygon fill="#ffffff" stroke="transparent" points="-4,4 -4,-78 243.7754,-78 243.7754,4 -4,4"/>
<!-- Node52 -->
<g id="node1" class="node">
<title>Node52</title>
<g id="a_node1"><a xlink:title=" ">
<polygon fill="#bfbfbf" stroke="#000000" points="52.8794,-55.5 52.8794,-73.5 169.4946,-73.5 169.4946,-55.5 52.8794,-55.5"/>
<text text-anchor="middle" x="111.187" y="-61.5" font-family="Helvetica,sans-Serif" font-size="10.00" fill="#000000">code/Qt/mainwindow.h</text>
</a>
</g>
</g>
<!-- Node53 -->
<g id="node2" class="node">
<title>Node53</title>
<g id="a_node2"><a xlink:href="_qt_2main_8cpp.html" target="_top" xlink:title=" ">
<polygon fill="#ffffff" stroke="#000000" points="0,-.5 0,-18.5 94.374,-18.5 94.374,-.5 0,-.5"/>
<text text-anchor="middle" x="47.187" y="-6.5" font-family="Helvetica,sans-Serif" font-size="10.00" fill="#000000">code/Qt/main.cpp</text>
</a>
</g>
</g>
<!-- Node52&#45;&gt;Node53 -->
<g id="edge1" class="edge">
<title>Node52&#45;&gt;Node53</title>
<path fill="none" stroke="#191970" d="M92.9968,-48.8678C81.6929,-39.1535 67.5442,-26.9944 57.9849,-18.7795"/>
<polygon fill="#191970" stroke="#191970" points="90.7533,-51.5546 100.6187,-55.4179 95.3157,-46.2457 90.7533,-51.5546"/>
</g>
<!-- Node54 -->
<g id="node3" class="node">
<title>Node54</title>
<g id="a_node3"><a xlink:href="mainwindow_8cpp.html" target="_top" xlink:title=" ">
<polygon fill="#ffffff" stroke="#000000" points="112.5986,-.5 112.5986,-18.5 239.7754,-18.5 239.7754,-.5 112.5986,-.5"/>
<text text-anchor="middle" x="176.187" y="-6.5" font-family="Helvetica,sans-Serif" font-size="10.00" fill="#000000">code/Qt/mainwindow.cpp</text>
</a>
</g>
</g>
<!-- Node52&#45;&gt;Node54 -->
<g id="edge2" class="edge">
<title>Node52&#45;&gt;Node54</title>
<path fill="none" stroke="#191970" d="M129.6615,-48.8678C141.142,-39.1535 155.5118,-26.9944 165.2204,-18.7795"/>
<polygon fill="#191970" stroke="#191970" points="127.2935,-46.2866 121.9204,-55.4179 131.8151,-51.6303 127.2935,-46.2866"/>
</g>
</g>
</svg>
