<?xml version="1.0" encoding="UTF-8" standalone="no"?>
<!DOCTYPE svg PUBLIC "-//W3C//DTD SVG 1.1//EN"
 "http://www.w3.org/Graphics/SVG/1.1/DTD/svg11.dtd">
<!-- Generated by graphviz version 2.40.1 (20161225.0304)
 -->
<!-- Title: /Users/jamielee/Desktop/uni stuff/RTE5/ENG5220/code/Qt/mainwindow.h Pages: 1 -->
<svg width="284pt" height="122pt"
 viewBox="0.00 0.00 284.22 122.00" xmlns="http://www.w3.org/2000/svg" xmlns:xlink="http://www.w3.org/1999/xlink">
<g id="graph0" class="graph" transform="scale(1 1) rotate(0) translate(4 118)">
<title>/Users/jamielee/Desktop/uni stuff/RTE5/ENG5220/code/Qt/mainwindow.h</title>
<polygon fill="#ffffff" stroke="transparent" points="-4,4 -4,-118 280.2178,-118 280.2178,4 -4,4"/>
<!-- Node51 -->
<g id="node1" class="node">
<title>Node51</title>
<g id="a_node1"><a xlink:title=" ">
<polygon fill="#bfbfbf" stroke="#000000" points="73,-75.5 73,-113.5 201.4805,-113.5 201.4805,-75.5 73,-75.5"/>
<text text-anchor="start" x="81" y="-101.5" font-family="Helvetica,sans-Serif" font-size="10.00" fill="#000000">/Users/jamielee/Desktop</text>
<text text-anchor="start" x="81" y="-91.5" font-family="Helvetica,sans-Serif" font-size="10.00" fill="#000000">/uni stuff/RTE5/ENG5220</text>
<text text-anchor="middle" x="137.2402" y="-81.5" font-family="Helvetica,sans-Serif" font-size="10.00" fill="#000000">/code/Qt/mainwindow.h</text>
</a>
</g>
</g>
<!-- Node52 -->
<g id="node2" class="node">
<title>Node52</title>
<g id="a_node2"><a xlink:href="_qt_2main_8cpp.html" target="_top" xlink:title=" ">
<polygon fill="#ffffff" stroke="#000000" points="0,-.5 0,-38.5 128.4805,-38.5 128.4805,-.5 0,-.5"/>
<text text-anchor="start" x="8" y="-26.5" font-family="Helvetica,sans-Serif" font-size="10.00" fill="#000000">/Users/jamielee/Desktop</text>
<text text-anchor="start" x="8" y="-16.5" font-family="Helvetica,sans-Serif" font-size="10.00" fill="#000000">/uni stuff/RTE5/ENG5220</text>
<text text-anchor="middle" x="64.2402" y="-6.5" font-family="Helvetica,sans-Serif" font-size="10.00" fill="#000000">/code/Qt/main.cpp</text>
</a>
</g>
</g>
<!-- Node51&#45;&gt;Node52 -->
<g id="edge1" class="edge">
<title>Node51&#45;&gt;Node52</title>
<path fill="none" stroke="#191970" d="M111.2252,-67.7722C101.8956,-58.187 91.5674,-47.5759 82.9758,-38.7489"/>
<polygon fill="#191970" stroke="#191970" points="108.9579,-70.4609 118.4409,-75.1856 113.9741,-65.5784 108.9579,-70.4609"/>
</g>
<!-- Node53 -->
<g id="node3" class="node">
<title>Node53</title>
<g id="a_node3"><a xlink:href="mainwindow_8cpp.html" target="_top" xlink:title=" ">
<polygon fill="#ffffff" stroke="#000000" points="146.2627,-.5 146.2627,-38.5 276.2178,-38.5 276.2178,-.5 146.2627,-.5"/>
<text text-anchor="start" x="154.2627" y="-26.5" font-family="Helvetica,sans-Serif" font-size="10.00" fill="#000000">/Users/jamielee/Desktop</text>
<text text-anchor="start" x="154.2627" y="-16.5" font-family="Helvetica,sans-Serif" font-size="10.00" fill="#000000">/uni stuff/RTE5/ENG5220</text>
<text text-anchor="middle" x="211.2402" y="-6.5" font-family="Helvetica,sans-Serif" font-size="10.00" fill="#000000">/code/Qt/mainwindow.cpp</text>
</a>
</g>
</g>
<!-- Node51&#45;&gt;Node53 -->
<g id="edge2" class="edge">
<title>Node51&#45;&gt;Node53</title>
<path fill="none" stroke="#191970" d="M163.3311,-68.0566C172.8615,-58.3973 183.4525,-47.6633 192.248,-38.7489"/>
<polygon fill="#191970" stroke="#191970" points="160.8291,-65.609 156.2971,-75.1856 165.812,-70.5255 160.8291,-65.609"/>
</g>
</g>
</svg>
