<?xml version="1.0" encoding="UTF-8" standalone="no"?>
<!DOCTYPE svg PUBLIC "-//W3C//DTD SVG 1.1//EN"
 "http://www.w3.org/Graphics/SVG/1.1/DTD/svg11.dtd">
<!-- Generated by graphviz version 2.40.1 (20161225.0304)
 -->
<!-- Title: /Users/jamielee/Desktop/uni stuff/RTE5/ENG5220/code/neuralnet_predict/CSVreader.h Pages: 1 -->
<svg width="282pt" height="142pt"
 viewBox="0.00 0.00 282.48 142.00" xmlns="http://www.w3.org/2000/svg" xmlns:xlink="http://www.w3.org/1999/xlink">
<g id="graph0" class="graph" transform="scale(1 1) rotate(0) translate(4 138)">
<title>/Users/jamielee/Desktop/uni stuff/RTE5/ENG5220/code/neuralnet_predict/CSVreader.h</title>
<polygon fill="#ffffff" stroke="transparent" points="-4,4 -4,-138 278.4805,-138 278.4805,4 -4,4"/>
<!-- Node3 -->
<g id="node1" class="node">
<title>Node3</title>
<g id="a_node1"><a xlink:title=" ">
<polygon fill="#bfbfbf" stroke="#000000" points="73,-85.5 73,-133.5 201.4805,-133.5 201.4805,-85.5 73,-85.5"/>
<text text-anchor="start" x="81" y="-121.5" font-family="Helvetica,sans-Serif" font-size="10.00" fill="#000000">/Users/jamielee/Desktop</text>
<text text-anchor="start" x="81" y="-111.5" font-family="Helvetica,sans-Serif" font-size="10.00" fill="#000000">/uni stuff/RTE5/ENG5220</text>
<text text-anchor="start" x="81" y="-101.5" font-family="Helvetica,sans-Serif" font-size="10.00" fill="#000000">/code/neuralnet_predict</text>
<text text-anchor="middle" x="137.2402" y="-91.5" font-family="Helvetica,sans-Serif" font-size="10.00" fill="#000000">/CSVreader.h</text>
</a>
</g>
</g>
<!-- Node4 -->
<g id="node2" class="node">
<title>Node4</title>
<g id="a_node2"><a xlink:href="neuralnet__predict_2_c_s_vreader_8cpp.html" target="_top" xlink:title=" ">
<polygon fill="#ffffff" stroke="#000000" points="0,-.5 0,-48.5 128.4805,-48.5 128.4805,-.5 0,-.5"/>
<text text-anchor="start" x="8" y="-36.5" font-family="Helvetica,sans-Serif" font-size="10.00" fill="#000000">/Users/jamielee/Desktop</text>
<text text-anchor="start" x="8" y="-26.5" font-family="Helvetica,sans-Serif" font-size="10.00" fill="#000000">/uni stuff/RTE5/ENG5220</text>
<text text-anchor="start" x="8" y="-16.5" font-family="Helvetica,sans-Serif" font-size="10.00" fill="#000000">/code/neuralnet_predict</text>
<text text-anchor="middle" x="64.2402" y="-6.5" font-family="Helvetica,sans-Serif" font-size="10.00" fill="#000000">/CSVreader.cpp</text>
</a>
</g>
</g>
<!-- Node3&#45;&gt;Node4 -->
<g id="edge1" class="edge">
<title>Node3&#45;&gt;Node4</title>
<path fill="none" stroke="#191970" d="M109.8101,-77.5609C101.5957,-67.9961 92.7268,-57.6693 85.0157,-48.6906"/>
<polygon fill="#191970" stroke="#191970" points="107.3461,-80.0638 116.5166,-85.3698 112.6565,-75.5031 107.3461,-80.0638"/>
</g>
<!-- Node5 -->
<g id="node3" class="node">
<title>Node5</title>
<g id="a_node3"><a xlink:href="neuralnet__predict_2main_8cpp.html" target="_top" xlink:title=" ">
<polygon fill="#ffffff" stroke="#000000" points="146,-.5 146,-48.5 274.4805,-48.5 274.4805,-.5 146,-.5"/>
<text text-anchor="start" x="154" y="-36.5" font-family="Helvetica,sans-Serif" font-size="10.00" fill="#000000">/Users/jamielee/Desktop</text>
<text text-anchor="start" x="154" y="-26.5" font-family="Helvetica,sans-Serif" font-size="10.00" fill="#000000">/uni stuff/RTE5/ENG5220</text>
<text text-anchor="start" x="154" y="-16.5" font-family="Helvetica,sans-Serif" font-size="10.00" fill="#000000">/code/neuralnet_predict</text>
<text text-anchor="middle" x="210.2402" y="-6.5" font-family="Helvetica,sans-Serif" font-size="10.00" fill="#000000">/main.cpp</text>
</a>
</g>
</g>
<!-- Node3&#45;&gt;Node5 -->
<g id="edge2" class="edge">
<title>Node3&#45;&gt;Node5</title>
<path fill="none" stroke="#191970" d="M164.6703,-77.5609C172.8848,-67.9961 181.7536,-57.6693 189.4648,-48.6906"/>
<polygon fill="#191970" stroke="#191970" points="161.8239,-75.5031 157.9638,-85.3698 167.1343,-80.0638 161.8239,-75.5031"/>
</g>
</g>
</svg>
