<?xml version="1.0" encoding="UTF-8" standalone="no"?>
<!DOCTYPE svg PUBLIC "-//W3C//DTD SVG 1.1//EN"
 "http://www.w3.org/Graphics/SVG/1.1/DTD/svg11.dtd">
<!-- Generated by graphviz version 2.40.1 (20161225.0304)
 -->
<!-- Title: code/neuralnet_predict/CSVreader.h Pages: 1 -->
<svg width="128pt" height="92pt"
 viewBox="0.00 0.00 128.04 92.00" xmlns="http://www.w3.org/2000/svg" xmlns:xlink="http://www.w3.org/1999/xlink">
<g id="graph0" class="graph" transform="scale(1 1) rotate(0) translate(4 88)">
<title>code/neuralnet_predict/CSVreader.h</title>
<polygon fill="#ffffff" stroke="transparent" points="-4,4 -4,-88 124.0415,-88 124.0415,4 -4,4"/>
<!-- Node0 -->
<g id="node1" class="node">
<title>Node0</title>
<g id="a_node1"><a xlink:title=" ">
<polygon fill="#bfbfbf" stroke="#000000" points="0,-55.5 0,-83.5 117.7383,-83.5 117.7383,-55.5 0,-55.5"/>
<text text-anchor="start" x="8" y="-71.5" font-family="Helvetica,sans-Serif" font-size="10.00" fill="#000000">code/neuralnet_predict</text>
<text text-anchor="middle" x="58.8691" y="-61.5" font-family="Helvetica,sans-Serif" font-size="10.00" fill="#000000">/CSVreader.h</text>
</a>
</g>
</g>
<!-- Node1 -->
<g id="node2" class="node">
<title>Node1</title>
<g id="a_node2"><a xlink:title=" ">
<polygon fill="#ffffff" stroke="#bfbfbf" points="4.2534,-.5 4.2534,-18.5 47.4849,-18.5 47.4849,-.5 4.2534,-.5"/>
<text text-anchor="middle" x="25.8691" y="-6.5" font-family="Helvetica,sans-Serif" font-size="10.00" fill="#000000">vector</text>
</a>
</g>
</g>
<!-- Node0&#45;&gt;Node1 -->
<g id="edge1" class="edge">
<title>Node0&#45;&gt;Node1</title>
<path fill="none" stroke="#191970" d="M51.0486,-55.2808C46.4576,-46.9336 40.6133,-36.3076 35.7112,-27.3946"/>
<polygon fill="#191970" stroke="#191970" points="38.7514,-25.6596 30.8654,-18.5842 32.6179,-29.0331 38.7514,-25.6596"/>
</g>
<!-- Node2 -->
<g id="node3" class="node">
<title>Node2</title>
<g id="a_node3"><a xlink:title=" ">
<polygon fill="#ffffff" stroke="#bfbfbf" points="65.6968,-.5 65.6968,-18.5 120.0415,-18.5 120.0415,-.5 65.6968,-.5"/>
<text text-anchor="middle" x="92.8691" y="-6.5" font-family="Helvetica,sans-Serif" font-size="10.00" fill="#000000">iostream</text>
</a>
</g>
</g>
<!-- Node0&#45;&gt;Node2 -->
<g id="edge2" class="edge">
<title>Node0&#45;&gt;Node2</title>
<path fill="none" stroke="#191970" d="M66.9267,-55.2808C71.6568,-46.9336 77.6781,-36.3076 82.7289,-27.3946"/>
<polygon fill="#191970" stroke="#191970" points="85.8363,-29.01 87.7214,-18.5842 79.7462,-25.5589 85.8363,-29.01"/>
</g>
</g>
</svg>
