<?xml version="1.0" encoding="UTF-8" standalone="no"?>
<!DOCTYPE svg PUBLIC "-//W3C//DTD SVG 1.1//EN"
 "http://www.w3.org/Graphics/SVG/1.1/DTD/svg11.dtd">
<!-- Generated by graphviz version 2.40.1 (20161225.0304)
 -->
<!-- Title: code/neuralnet_predict/main.cpp Pages: 1 -->
<svg width="232pt" height="147pt"
 viewBox="0.00 0.00 232.32 147.00" xmlns="http://www.w3.org/2000/svg" xmlns:xlink="http://www.w3.org/1999/xlink">
<g id="graph0" class="graph" transform="scale(1 1) rotate(0) translate(4 143)">
<title>code/neuralnet_predict/main.cpp</title>
<polygon fill="#ffffff" stroke="transparent" points="-4,4 -4,-143 228.3174,-143 228.3174,4 -4,4"/>
<!-- Node0 -->
<g id="node1" class="node">
<title>Node0</title>
<g id="a_node1"><a xlink:title=" ">
<polygon fill="#bfbfbf" stroke="#000000" points="74.2759,-110.5 74.2759,-138.5 192.0142,-138.5 192.0142,-110.5 74.2759,-110.5"/>
<text text-anchor="start" x="82.2759" y="-126.5" font-family="Helvetica,sans-Serif" font-size="10.00" fill="#000000">code/neuralnet_predict</text>
<text text-anchor="middle" x="133.145" y="-116.5" font-family="Helvetica,sans-Serif" font-size="10.00" fill="#000000">/main.cpp</text>
</a>
</g>
</g>
<!-- Node1 -->
<g id="node2" class="node">
<title>Node1</title>
<g id="a_node2"><a xlink:href="_neural_net_8h.html" target="_top" xlink:title=" ">
<polygon fill="#ffffff" stroke="#000000" points="9.4653,-55.5 9.4653,-73.5 78.8247,-73.5 78.8247,-55.5 9.4653,-55.5"/>
<text text-anchor="middle" x="44.145" y="-61.5" font-family="Helvetica,sans-Serif" font-size="10.00" fill="#000000">NeuralNet.h</text>
</a>
</g>
</g>
<!-- Node0&#45;&gt;Node1 -->
<g id="edge1" class="edge">
<title>Node0&#45;&gt;Node1</title>
<path fill="none" stroke="#191970" d="M112.0533,-110.2808C98.2226,-100.9568 80.1745,-88.7895 66.1611,-79.3423"/>
<polygon fill="#191970" stroke="#191970" points="67.8681,-76.272 57.6199,-73.5842 63.9552,-82.0763 67.8681,-76.272"/>
</g>
<!-- Node3 -->
<g id="node4" class="node">
<title>Node3</title>
<g id="a_node4"><a xlink:href="neuralnet__predict_2_c_s_vreader_8h.html" target="_top" xlink:title=" ">
<polygon fill="#ffffff" stroke="#000000" points="96.6978,-55.5 96.6978,-73.5 169.5923,-73.5 169.5923,-55.5 96.6978,-55.5"/>
<text text-anchor="middle" x="133.145" y="-61.5" font-family="Helvetica,sans-Serif" font-size="10.00" fill="#000000">CSVreader.h</text>
</a>
</g>
</g>
<!-- Node0&#45;&gt;Node3 -->
<g id="edge3" class="edge">
<title>Node0&#45;&gt;Node3</title>
<path fill="none" stroke="#191970" d="M133.145,-110.2808C133.145,-102.3776 133.145,-92.4316 133.145,-83.8308"/>
<polygon fill="#191970" stroke="#191970" points="136.6451,-83.5842 133.145,-73.5842 129.6451,-83.5842 136.6451,-83.5842"/>
</g>
<!-- Node5 -->
<g id="node6" class="node">
<title>Node5</title>
<g id="a_node6"><a xlink:title=" ">
<polygon fill="#ffffff" stroke="#bfbfbf" points="169.9727,-.5 169.9727,-18.5 224.3174,-18.5 224.3174,-.5 169.9727,-.5"/>
<text text-anchor="middle" x="197.145" y="-6.5" font-family="Helvetica,sans-Serif" font-size="10.00" fill="#000000">iostream</text>
</a>
</g>
</g>
<!-- Node0&#45;&gt;Node5 -->
<g id="edge6" class="edge">
<title>Node0&#45;&gt;Node5</title>
<path fill="none" stroke="#191970" d="M148.8567,-110.3959C158.5309,-100.9466 170.502,-87.755 178.145,-74 186.0298,-59.8098 190.9549,-42.0035 193.8091,-28.697"/>
<polygon fill="#191970" stroke="#191970" points="197.269,-29.2398 195.7391,-18.7561 190.3973,-27.9057 197.269,-29.2398"/>
</g>
<!-- Node2 -->
<g id="node3" class="node">
<title>Node2</title>
<g id="a_node3"><a xlink:title=" ">
<polygon fill="#ffffff" stroke="#bfbfbf" points="0,-.5 0,-18.5 88.29,-18.5 88.29,-.5 0,-.5"/>
<text text-anchor="middle" x="44.145" y="-6.5" font-family="Helvetica,sans-Serif" font-size="10.00" fill="#000000">fdeep/fdeep.hpp</text>
</a>
</g>
</g>
<!-- Node1&#45;&gt;Node2 -->
<g id="edge2" class="edge">
<title>Node1&#45;&gt;Node2</title>
<path fill="none" stroke="#191970" d="M44.145,-55.4179C44.145,-48.2164 44.145,-37.8962 44.145,-28.8632"/>
<polygon fill="#191970" stroke="#191970" points="47.6451,-28.7794 44.145,-18.7795 40.6451,-28.7795 47.6451,-28.7794"/>
</g>
<!-- Node4 -->
<g id="node5" class="node">
<title>Node4</title>
<g id="a_node5"><a xlink:title=" ">
<polygon fill="#ffffff" stroke="#bfbfbf" points="108.5293,-.5 108.5293,-18.5 151.7607,-18.5 151.7607,-.5 108.5293,-.5"/>
<text text-anchor="middle" x="130.145" y="-6.5" font-family="Helvetica,sans-Serif" font-size="10.00" fill="#000000">vector</text>
</a>
</g>
</g>
<!-- Node3&#45;&gt;Node4 -->
<g id="edge4" class="edge">
<title>Node3&#45;&gt;Node4</title>
<path fill="none" stroke="#191970" d="M132.6496,-55.4179C132.2568,-48.2164 131.6939,-37.8962 131.2012,-28.8632"/>
<polygon fill="#191970" stroke="#191970" points="134.6907,-28.574 130.6512,-18.7795 127.7011,-28.9553 134.6907,-28.574"/>
</g>
<!-- Node3&#45;&gt;Node5 -->
<g id="edge5" class="edge">
<title>Node3&#45;&gt;Node5</title>
<path fill="none" stroke="#191970" d="M143.7133,-55.4179C153.1983,-47.2667 167.3325,-35.1201 178.6817,-25.3669"/>
<polygon fill="#191970" stroke="#191970" points="181.0441,-27.9516 186.3471,-18.7795 176.4817,-22.6427 181.0441,-27.9516"/>
</g>
</g>
</svg>
