<?xml version="1.0" encoding="UTF-8" standalone="no"?>
<!DOCTYPE svg PUBLIC "-//W3C//DTD SVG 1.1//EN"
 "http://www.w3.org/Graphics/SVG/1.1/DTD/svg11.dtd">
<!-- Generated by graphviz version 2.40.1 (20161225.0304)
 -->
<!-- Title: code/neuralnet_predict/CSVreader.h Pages: 1 -->
<svg width="262pt" height="102pt"
 viewBox="0.00 0.00 261.74 102.00" xmlns="http://www.w3.org/2000/svg" xmlns:xlink="http://www.w3.org/1999/xlink">
<g id="graph0" class="graph" transform="scale(1 1) rotate(0) translate(4 98)">
<title>code/neuralnet_predict/CSVreader.h</title>
<polygon fill="#ffffff" stroke="transparent" points="-4,4 -4,-98 257.7383,-98 257.7383,4 -4,4"/>
<!-- Node3 -->
<g id="node1" class="node">
<title>Node3</title>
<g id="a_node1"><a xlink:title=" ">
<polygon fill="#bfbfbf" stroke="#000000" points="68,-65.5 68,-93.5 185.7383,-93.5 185.7383,-65.5 68,-65.5"/>
<text text-anchor="start" x="76" y="-81.5" font-family="Helvetica,sans-Serif" font-size="10.00" fill="#000000">code/neuralnet_predict</text>
<text text-anchor="middle" x="126.8691" y="-71.5" font-family="Helvetica,sans-Serif" font-size="10.00" fill="#000000">/CSVreader.h</text>
</a>
</g>
</g>
<!-- Node4 -->
<g id="node2" class="node">
<title>Node4</title>
<g id="a_node2"><a xlink:href="neuralnet__predict_2_c_s_vreader_8cpp.html" target="_top" xlink:title=" ">
<polygon fill="#ffffff" stroke="#000000" points="0,-.5 0,-28.5 117.7383,-28.5 117.7383,-.5 0,-.5"/>
<text text-anchor="start" x="8" y="-16.5" font-family="Helvetica,sans-Serif" font-size="10.00" fill="#000000">code/neuralnet_predict</text>
<text text-anchor="middle" x="58.8691" y="-6.5" font-family="Helvetica,sans-Serif" font-size="10.00" fill="#000000">/CSVreader.cpp</text>
</a>
</g>
</g>
<!-- Node3&#45;&gt;Node4 -->
<g id="edge1" class="edge">
<title>Node3&#45;&gt;Node4</title>
<path fill="none" stroke="#191970" d="M104.7027,-58.3115C94.5024,-48.5612 82.6786,-37.259 73.5953,-28.5765"/>
<polygon fill="#191970" stroke="#191970" points="102.467,-61.0162 112.1142,-65.396 107.3038,-55.9561 102.467,-61.0162"/>
</g>
<!-- Node5 -->
<g id="node3" class="node">
<title>Node5</title>
<g id="a_node3"><a xlink:href="neuralnet__predict_2main_8cpp.html" target="_top" xlink:title=" ">
<polygon fill="#ffffff" stroke="#000000" points="136,-.5 136,-28.5 253.7383,-28.5 253.7383,-.5 136,-.5"/>
<text text-anchor="start" x="144" y="-16.5" font-family="Helvetica,sans-Serif" font-size="10.00" fill="#000000">code/neuralnet_predict</text>
<text text-anchor="middle" x="194.8691" y="-6.5" font-family="Helvetica,sans-Serif" font-size="10.00" fill="#000000">/main.cpp</text>
</a>
</g>
</g>
<!-- Node3&#45;&gt;Node5 -->
<g id="edge2" class="edge">
<title>Node3&#45;&gt;Node5</title>
<path fill="none" stroke="#191970" d="M149.0356,-58.3115C159.2359,-48.5612 171.0597,-37.259 180.1429,-28.5765"/>
<polygon fill="#191970" stroke="#191970" points="146.4344,-55.9561 141.6241,-65.396 151.2713,-61.0162 146.4344,-55.9561"/>
</g>
</g>
</svg>
