<?xml version="1.0" encoding="UTF-8" standalone="no"?>
<!DOCTYPE svg PUBLIC "-//W3C//DTD SVG 1.1//EN"
 "http://www.w3.org/Graphics/SVG/1.1/DTD/svg11.dtd">
<!-- Generated by graphviz version 2.40.1 (20161225.0304)
 -->
<!-- Title: code/neuralnet_predict/CSVreader.cpp Pages: 1 -->
<svg width="367pt" height="147pt"
 viewBox="0.00 0.00 367.46 147.00" xmlns="http://www.w3.org/2000/svg" xmlns:xlink="http://www.w3.org/1999/xlink">
<g id="graph0" class="graph" transform="scale(1 1) rotate(0) translate(4 143)">
<title>code/neuralnet_predict/CSVreader.cpp</title>
<polygon fill="#ffffff" stroke="transparent" points="-4,4 -4,-143 363.458,-143 363.458,4 -4,4"/>
<!-- Node0 -->
<g id="node1" class="node">
<title>Node0</title>
<g id="a_node1"><a xlink:title=" ">
<polygon fill="#bfbfbf" stroke="#000000" points="141.7466,-110.5 141.7466,-138.5 259.4849,-138.5 259.4849,-110.5 141.7466,-110.5"/>
<text text-anchor="start" x="149.7466" y="-126.5" font-family="Helvetica,sans-Serif" font-size="10.00" fill="#000000">code/neuralnet_predict</text>
<text text-anchor="middle" x="200.6157" y="-116.5" font-family="Helvetica,sans-Serif" font-size="10.00" fill="#000000">/CSVreader.cpp</text>
</a>
</g>
</g>
<!-- Node1 -->
<g id="node2" class="node">
<title>Node1</title>
<g id="a_node2"><a xlink:href="neuralnet__predict_2_c_s_vreader_8h.html" target="_top" xlink:title=" ">
<polygon fill="#ffffff" stroke="#000000" points="18.1685,-55.5 18.1685,-73.5 91.063,-73.5 91.063,-55.5 18.1685,-55.5"/>
<text text-anchor="middle" x="54.6157" y="-61.5" font-family="Helvetica,sans-Serif" font-size="10.00" fill="#000000">CSVreader.h</text>
</a>
</g>
</g>
<!-- Node0&#45;&gt;Node1 -->
<g id="edge1" class="edge">
<title>Node0&#45;&gt;Node1</title>
<path fill="none" stroke="#191970" d="M166.3852,-110.4327C142.1958,-100.4918 110.0056,-87.263 86.3848,-77.5558"/>
<polygon fill="#191970" stroke="#191970" points="87.4145,-74.195 76.8346,-73.6311 84.7536,-80.6695 87.4145,-74.195"/>
</g>
<!-- Node4 -->
<g id="node5" class="node">
<title>Node4</title>
<g id="a_node5"><a xlink:title=" ">
<polygon fill="#ffffff" stroke="#bfbfbf" points="108.9458,-55.5 108.9458,-73.5 158.2856,-73.5 158.2856,-55.5 108.9458,-55.5"/>
<text text-anchor="middle" x="133.6157" y="-61.5" font-family="Helvetica,sans-Serif" font-size="10.00" fill="#000000">fstream</text>
</a>
</g>
</g>
<!-- Node0&#45;&gt;Node4 -->
<g id="edge4" class="edge">
<title>Node0&#45;&gt;Node4</title>
<path fill="none" stroke="#191970" d="M184.7377,-110.2808C174.7224,-101.312 161.7696,-89.7124 151.4082,-80.4335"/>
<polygon fill="#191970" stroke="#191970" points="153.5442,-77.6481 143.7597,-73.5842 148.8743,-82.8628 153.5442,-77.6481"/>
</g>
<!-- Node5 -->
<g id="node6" class="node">
<title>Node5</title>
<g id="a_node6"><a xlink:title=" ">
<polygon fill="#ffffff" stroke="#bfbfbf" points="176.4951,-55.5 176.4951,-73.5 224.7363,-73.5 224.7363,-55.5 176.4951,-55.5"/>
<text text-anchor="middle" x="200.6157" y="-61.5" font-family="Helvetica,sans-Serif" font-size="10.00" fill="#000000">stdint.h</text>
</a>
</g>
</g>
<!-- Node0&#45;&gt;Node5 -->
<g id="edge5" class="edge">
<title>Node0&#45;&gt;Node5</title>
<path fill="none" stroke="#191970" d="M200.6157,-110.2808C200.6157,-102.3776 200.6157,-92.4316 200.6157,-83.8308"/>
<polygon fill="#191970" stroke="#191970" points="204.1158,-83.5842 200.6157,-73.5842 197.1158,-83.5842 204.1158,-83.5842"/>
</g>
<!-- Node6 -->
<g id="node7" class="node">
<title>Node6</title>
<g id="a_node7"><a xlink:title=" ">
<polygon fill="#ffffff" stroke="#bfbfbf" points="243.1035,-55.5 243.1035,-73.5 294.1279,-73.5 294.1279,-55.5 243.1035,-55.5"/>
<text text-anchor="middle" x="268.6157" y="-61.5" font-family="Helvetica,sans-Serif" font-size="10.00" fill="#000000">unistd.h</text>
</a>
</g>
</g>
<!-- Node0&#45;&gt;Node6 -->
<g id="edge6" class="edge">
<title>Node0&#45;&gt;Node6</title>
<path fill="none" stroke="#191970" d="M216.7308,-110.2808C226.8955,-101.312 240.0416,-89.7124 250.5577,-80.4335"/>
<polygon fill="#191970" stroke="#191970" points="253.1376,-82.8249 258.3203,-73.5842 248.5062,-77.576 253.1376,-82.8249"/>
</g>
<!-- Node7 -->
<g id="node8" class="node">
<title>Node7</title>
<g id="a_node8"><a xlink:title=" ">
<polygon fill="#ffffff" stroke="#bfbfbf" points="311.7734,-55.5 311.7734,-73.5 359.458,-73.5 359.458,-55.5 311.7734,-55.5"/>
<text text-anchor="middle" x="335.6157" y="-61.5" font-family="Helvetica,sans-Serif" font-size="10.00" fill="#000000">stdlib.h</text>
</a>
</g>
</g>
<!-- Node0&#45;&gt;Node7 -->
<g id="edge7" class="edge">
<title>Node0&#45;&gt;Node7</title>
<path fill="none" stroke="#191970" d="M232.2672,-110.4327C254.4344,-100.5806 283.8681,-87.4989 305.6533,-77.8167"/>
<polygon fill="#191970" stroke="#191970" points="307.3542,-80.8908 315.0708,-73.6311 304.5112,-74.4942 307.3542,-80.8908"/>
</g>
<!-- Node2 -->
<g id="node3" class="node">
<title>Node2</title>
<g id="a_node3"><a xlink:title=" ">
<polygon fill="#ffffff" stroke="#bfbfbf" points="0,-.5 0,-18.5 43.2314,-18.5 43.2314,-.5 0,-.5"/>
<text text-anchor="middle" x="21.6157" y="-6.5" font-family="Helvetica,sans-Serif" font-size="10.00" fill="#000000">vector</text>
</a>
</g>
</g>
<!-- Node1&#45;&gt;Node2 -->
<g id="edge2" class="edge">
<title>Node1&#45;&gt;Node2</title>
<path fill="none" stroke="#191970" d="M49.1664,-55.4179C44.6081,-47.8207 37.9673,-36.7527 32.3477,-27.3866"/>
<polygon fill="#191970" stroke="#191970" points="35.3296,-25.5536 27.1834,-18.7795 29.3272,-29.1552 35.3296,-25.5536"/>
</g>
<!-- Node3 -->
<g id="node4" class="node">
<title>Node3</title>
<g id="a_node4"><a xlink:title=" ">
<polygon fill="#ffffff" stroke="#bfbfbf" points="61.4434,-.5 61.4434,-18.5 115.7881,-18.5 115.7881,-.5 61.4434,-.5"/>
<text text-anchor="middle" x="88.6157" y="-6.5" font-family="Helvetica,sans-Serif" font-size="10.00" fill="#000000">iostream</text>
</a>
</g>
</g>
<!-- Node1&#45;&gt;Node3 -->
<g id="edge3" class="edge">
<title>Node1&#45;&gt;Node3</title>
<path fill="none" stroke="#191970" d="M60.2301,-55.4179C64.9266,-47.8207 71.7686,-36.7527 77.5585,-27.3866"/>
<polygon fill="#191970" stroke="#191970" points="80.5981,-29.1258 82.8793,-18.7795 74.644,-25.445 80.5981,-29.1258"/>
</g>
</g>
</svg>
