<?xml version="1.0" encoding="UTF-8" standalone="no"?>
<!DOCTYPE svg PUBLIC "-//W3C//DTD SVG 1.1//EN"
 "http://www.w3.org/Graphics/SVG/1.1/DTD/svg11.dtd">
<!-- Generated by graphviz version 2.40.1 (20161225.0304)
 -->
<!-- Title: code/pythonTraining/main.cpp Pages: 1 -->
<svg width="254pt" height="147pt"
 viewBox="0.00 0.00 253.98 147.00" xmlns="http://www.w3.org/2000/svg" xmlns:xlink="http://www.w3.org/1999/xlink">
<g id="graph0" class="graph" transform="scale(1 1) rotate(0) translate(4 143)">
<title>code/pythonTraining/main.cpp</title>
<polygon fill="#ffffff" stroke="transparent" points="-4,4 -4,-143 249.9849,-143 249.9849,4 -4,4"/>
<!-- Node0 -->
<g id="node1" class="node">
<title>Node0</title>
<g id="a_node1"><a xlink:title=" ">
<polygon fill="#bfbfbf" stroke="#000000" points="37.6069,-110.5 37.6069,-138.5 143.856,-138.5 143.856,-110.5 37.6069,-110.5"/>
<text text-anchor="start" x="45.6069" y="-126.5" font-family="Helvetica,sans-Serif" font-size="10.00" fill="#000000">code/pythonTraining</text>
<text text-anchor="middle" x="90.7314" y="-116.5" font-family="Helvetica,sans-Serif" font-size="10.00" fill="#000000">/main.cpp</text>
</a>
</g>
</g>
<!-- Node1 -->
<g id="node2" class="node">
<title>Node1</title>
<g id="a_node2"><a xlink:href="train_net_8hpp.html" target="_top" xlink:title=" ">
<polygon fill="#ffffff" stroke="#000000" points="55.4927,-55.5 55.4927,-73.5 125.9702,-73.5 125.9702,-55.5 55.4927,-55.5"/>
<text text-anchor="middle" x="90.7314" y="-61.5" font-family="Helvetica,sans-Serif" font-size="10.00" fill="#000000">trainNet.hpp</text>
</a>
</g>
</g>
<!-- Node0&#45;&gt;Node1 -->
<g id="edge1" class="edge">
<title>Node0&#45;&gt;Node1</title>
<path fill="none" stroke="#191970" d="M90.7314,-110.2808C90.7314,-102.3776 90.7314,-92.4316 90.7314,-83.8308"/>
<polygon fill="#191970" stroke="#191970" points="94.2315,-83.5842 90.7314,-73.5842 87.2315,-83.5842 94.2315,-83.5842"/>
</g>
<!-- Node2 -->
<g id="node3" class="node">
<title>Node2</title>
<g id="a_node3"><a xlink:title=" ">
<polygon fill="#ffffff" stroke="#bfbfbf" points="0,-.5 0,-18.5 45.4629,-18.5 45.4629,-.5 0,-.5"/>
<text text-anchor="middle" x="22.7314" y="-6.5" font-family="Helvetica,sans-Serif" font-size="10.00" fill="#000000">stdio.h</text>
</a>
</g>
</g>
<!-- Node1&#45;&gt;Node2 -->
<g id="edge2" class="edge">
<title>Node1&#45;&gt;Node2</title>
<path fill="none" stroke="#191970" d="M79.5026,-55.4179C69.327,-47.1876 54.1152,-34.8839 41.9984,-25.0836"/>
<polygon fill="#191970" stroke="#191970" points="44.1804,-22.3469 34.2042,-18.7795 39.7783,-27.7895 44.1804,-22.3469"/>
</g>
<!-- Node3 -->
<g id="node4" class="node">
<title>Node3</title>
<g id="a_node4"><a xlink:title=" ">
<polygon fill="#ffffff" stroke="#bfbfbf" points="63.835,-.5 63.835,-18.5 117.6279,-18.5 117.6279,-.5 63.835,-.5"/>
<text text-anchor="middle" x="90.7314" y="-6.5" font-family="Helvetica,sans-Serif" font-size="10.00" fill="#000000">curses.h</text>
</a>
</g>
</g>
<!-- Node1&#45;&gt;Node3 -->
<g id="edge3" class="edge">
<title>Node1&#45;&gt;Node3</title>
<path fill="none" stroke="#191970" d="M90.7314,-55.4179C90.7314,-48.2164 90.7314,-37.8962 90.7314,-28.8632"/>
<polygon fill="#191970" stroke="#191970" points="94.2315,-28.7794 90.7314,-18.7795 87.2315,-28.7795 94.2315,-28.7794"/>
</g>
<!-- Node4 -->
<g id="node5" class="node">
<title>Node4</title>
<g id="a_node5"><a xlink:title=" ">
<polygon fill="#ffffff" stroke="#bfbfbf" points="135.478,-.5 135.478,-18.5 245.9849,-18.5 245.9849,-.5 135.478,-.5"/>
<text text-anchor="middle" x="190.7314" y="-6.5" font-family="Helvetica,sans-Serif" font-size="10.00" fill="#000000">python3.6m/Python.h</text>
</a>
</g>
</g>
<!-- Node1&#45;&gt;Node4 -->
<g id="edge4" class="edge">
<title>Node1&#45;&gt;Node4</title>
<path fill="none" stroke="#191970" d="M107.2444,-55.4179C123.0225,-46.7399 147.0343,-33.5334 165.2629,-23.5077"/>
<polygon fill="#191970" stroke="#191970" points="167.1185,-26.4816 174.1939,-18.5956 163.745,-20.3481 167.1185,-26.4816"/>
</g>
</g>
</svg>
