<?xml version="1.0" encoding="UTF-8" standalone="no"?>
<!DOCTYPE svg PUBLIC "-//W3C//DTD SVG 1.1//EN"
 "http://www.w3.org/Graphics/SVG/1.1/DTD/svg11.dtd">
<!-- Generated by graphviz version 2.40.1 (20161225.0304)
 -->
<!-- Title: /Users/jamielee/Desktop/uni stuff/RTE5/ENG5220/testfiles/sampledata/sampledata.cpp Pages: 1 -->
<!--zoomable 222 -->
<svg id="main" version="1.1" xmlns="http://www.w3.org/2000/svg" xmlns:xlink="http://www.w3.org/1999/xlink" xml:space="preserve" onload="init(evt)">
<style type="text/css"><![CDATA[
.edge:hover path { stroke: red; }
.edge:hover polygon { stroke: red; fill: red; }
]]></style>
<script type="text/javascript"><![CDATA[
var edges = document.getElementsByTagName('g');
if (edges && edges.length) {
  for (var i=0;i<edges.length;i++) {
    if (edges[i].id.substr(0,4)=='edge') {
      edges[i].setAttribute('class','edge');
    }
  }
}
]]></script>
        <defs>
                <circle id="rim" cx="0" cy="0" r="7"/>
                <circle id="rim2" cx="0" cy="0" r="3.5"/>
                <g id="zoomPlus">
                        <use xlink:href="#rim" fill="#404040">
                                <set attributeName="fill" to="#808080" begin="zoomplus.mouseover" end="zoomplus.mouseout"/>
                        </use>
                        <path d="M-4,0h8M0,-4v8" fill="none" stroke="white" stroke-width="1.5" pointer-events="none"/>
                </g>
                <g id="zoomMin">
                        <use xlink:href="#rim" fill="#404040">
                                <set attributeName="fill" to="#808080" begin="zoomminus.mouseover" end="zoomminus.mouseout"/>
                        </use>
                        <path d="M-4,0h8" fill="none" stroke="white" stroke-width="1.5" pointer-events="none"/>
                </g>
                <g id="dirArrow">
                        <path fill="none" stroke="white" stroke-width="1.5" d="M0,-3.0v7 M-2.5,-0.5L0,-3.0L2.5,-0.5"/>
                </g>
               <g id="resetDef">
                       <use xlink:href="#rim2" fill="#404040">
                               <set attributeName="fill" to="#808080" begin="reset.mouseover" end="reset.mouseout"/>
                       </use>
               </g>
        </defs>

<script type="text/javascript">
var viewWidth = 816;
var viewHeight = 222;
var sectionId = 'dynsection-0';
</script>
<script xlink:href="svgpan.js"/>
<svg id="graph" class="graph">
<g id="viewport">
<title>/Users/jamielee/Desktop/uni stuff/RTE5/ENG5220/testfiles/sampledata/sampledata.cpp</title>
<polygon fill="#ffffff" stroke="transparent" points="-4,4 -4,-218 812.3379,-218 812.3379,4 -4,4"/>
<!-- Node0 -->
<g id="node1" class="node">
<title>Node0</title>
<g id="a_node1"><a xlink:title=" ">
<polygon fill="#bfbfbf" stroke="#000000" points="180.2441,-175.5 180.2441,-213.5 360.7803,-213.5 360.7803,-175.5 180.2441,-175.5"/>
<text text-anchor="start" x="188.2441" y="-201.5" font-family="Helvetica,sans-Serif" font-size="10.00" fill="#000000">/Users/jamielee/Desktop</text>
<text text-anchor="start" x="188.2441" y="-191.5" font-family="Helvetica,sans-Serif" font-size="10.00" fill="#000000">/uni stuff/RTE5/ENG5220</text>
<text text-anchor="middle" x="270.5122" y="-181.5" font-family="Helvetica,sans-Serif" font-size="10.00" fill="#000000">/testfiles/sampledata/sampledata.cpp</text>
</a>
</g>
</g>
<!-- Node1 -->
<g id="node2" class="node">
<title>Node1</title>
<g id="a_node2"><a xlink:title=" ">
<polygon fill="#ffffff" stroke="#bfbfbf" points="0,-115.5 0,-133.5 51.0244,-133.5 51.0244,-115.5 0,-115.5"/>
<text text-anchor="middle" x="25.5122" y="-121.5" font-family="Helvetica,sans-Serif" font-size="10.00" fill="#000000">unistd.h</text>
</a>
</g>
</g>
<!-- Node0&#45;&gt;Node1 -->
<g id="edge1" class="edge">
<title>Node0&#45;&gt;Node1</title>
<path fill="none" stroke="#191970" d="M186.7512,-175.4518C147.6869,-165.8108 100.8088,-153.1526 59.5122,-139 58.0704,-138.5059 56.6036,-137.9787 55.1286,-137.4287"/>
<polygon fill="#191970" stroke="#191970" points="56.0444,-134.0262 45.459,-133.5799 53.4556,-140.53 56.0444,-134.0262"/>
</g>
<!-- Node2 -->
<g id="node3" class="node">
<title>Node2</title>
<g id="a_node3"><a xlink:title=" ">
<polygon fill="#ffffff" stroke="#bfbfbf" points="68.7808,-115.5 68.7808,-133.5 114.2437,-133.5 114.2437,-115.5 68.7808,-115.5"/>
<text text-anchor="middle" x="91.5122" y="-121.5" font-family="Helvetica,sans-Serif" font-size="10.00" fill="#000000">stdio.h</text>
</a>
</g>
</g>
<!-- Node0&#45;&gt;Node2 -->
<g id="edge2" class="edge">
<title>Node0&#45;&gt;Node2</title>
<path fill="none" stroke="#191970" d="M221.5478,-175.3751C194.1769,-164.6812 159.446,-151.1065 128.5122,-139 127.1068,-138.45 125.6714,-137.8881 124.2214,-137.3203"/>
<polygon fill="#191970" stroke="#191970" points="125.1912,-133.9413 114.6035,-133.553 122.6382,-140.4592 125.1912,-133.9413"/>
</g>
<!-- Node3 -->
<g id="node4" class="node">
<title>Node3</title>
<g id="a_node4"><a xlink:title=" ">
<polygon fill="#ffffff" stroke="#bfbfbf" points="273.3916,-55.5 273.3916,-73.5 321.6328,-73.5 321.6328,-55.5 273.3916,-55.5"/>
<text text-anchor="middle" x="297.5122" y="-61.5" font-family="Helvetica,sans-Serif" font-size="10.00" fill="#000000">stdint.h</text>
</a>
</g>
</g>
<!-- Node0&#45;&gt;Node3 -->
<g id="edge3" class="edge">
<title>Node0&#45;&gt;Node3</title>
<path fill="none" stroke="#191970" d="M236.1211,-175.4967C211.0827,-159.0744 184.0491,-134.2278 199.5122,-110 213.5148,-88.0606 241.1268,-76.5373 263.4825,-70.584"/>
<polygon fill="#191970" stroke="#191970" points="264.4097,-73.961 273.3165,-68.2233 262.7757,-67.1544 264.4097,-73.961"/>
</g>
<!-- Node4 -->
<g id="node5" class="node">
<title>Node4</title>
<g id="a_node5"><a xlink:title=" ">
<polygon fill="#ffffff" stroke="#bfbfbf" points="304.6699,-.5 304.6699,-18.5 352.3545,-18.5 352.3545,-.5 304.6699,-.5"/>
<text text-anchor="middle" x="328.5122" y="-6.5" font-family="Helvetica,sans-Serif" font-size="10.00" fill="#000000">stdlib.h</text>
</a>
</g>
</g>
<!-- Node0&#45;&gt;Node4 -->
<g id="edge4" class="edge">
<title>Node0&#45;&gt;Node4</title>
<path fill="none" stroke="#191970" d="M228.5333,-175.3967C214.0944,-166.5287 199.5494,-154.4687 191.5122,-139 185.5697,-127.5628 185.7607,-121.5345 191.5122,-110 212.8974,-67.1124 262.3155,-38.1838 295.5732,-22.7696"/>
<polygon fill="#191970" stroke="#191970" points="297.2046,-25.8742 304.9071,-18.5995 294.3492,-19.483 297.2046,-25.8742"/>
</g>
<!-- Node5 -->
<g id="node6" class="node">
<title>Node5</title>
<g id="a_node6"><a xlink:title=" ">
<polygon fill="#ffffff" stroke="#bfbfbf" points="208.3398,-115.5 208.3398,-133.5 262.6846,-133.5 262.6846,-115.5 208.3398,-115.5"/>
<text text-anchor="middle" x="235.5122" y="-121.5" font-family="Helvetica,sans-Serif" font-size="10.00" fill="#000000">iostream</text>
</a>
</g>
</g>
<!-- Node0&#45;&gt;Node5 -->
<g id="edge5" class="edge">
<title>Node0&#45;&gt;Node5</title>
<path fill="none" stroke="#191970" d="M260.9483,-175.3722C255.8478,-165.1713 249.6063,-152.6882 244.5825,-142.6406"/>
<polygon fill="#191970" stroke="#191970" points="247.6547,-140.9585 240.052,-133.5795 241.3937,-144.0891 247.6547,-140.9585"/>
</g>
<!-- Node6 -->
<g id="node7" class="node">
<title>Node6</title>
<g id="a_node7"><a xlink:title=" ">
<polygon fill="#ffffff" stroke="#bfbfbf" points="280.8423,-115.5 280.8423,-133.5 330.1821,-133.5 330.1821,-115.5 280.8423,-115.5"/>
<text text-anchor="middle" x="305.5122" y="-121.5" font-family="Helvetica,sans-Serif" font-size="10.00" fill="#000000">fstream</text>
</a>
</g>
</g>
<!-- Node0&#45;&gt;Node6 -->
<g id="edge6" class="edge">
<title>Node0&#45;&gt;Node6</title>
<path fill="none" stroke="#191970" d="M280.0761,-175.3722C285.1766,-165.1713 291.4181,-152.6882 296.4419,-142.6406"/>
<polygon fill="#191970" stroke="#191970" points="299.6308,-144.0891 300.9724,-133.5795 293.3698,-140.9585 299.6308,-144.0891"/>
</g>
<!-- Node7 -->
<g id="node8" class="node">
<title>Node7</title>
<g id="a_node8"><a xlink:title=" ">
<polygon fill="#ffffff" stroke="#bfbfbf" points="348.2915,-110.5 348.2915,-138.5 446.7329,-138.5 446.7329,-110.5 348.2915,-110.5"/>
<text text-anchor="start" x="356.2915" y="-126.5" font-family="Helvetica,sans-Serif" font-size="10.00" fill="#000000">../../code/cppTimer</text>
<text text-anchor="middle" x="397.5122" y="-116.5" font-family="Helvetica,sans-Serif" font-size="10.00" fill="#000000">/CppTimer.h</text>
</a>
</g>
</g>
<!-- Node0&#45;&gt;Node7 -->
<g id="edge7" class="edge">
<title>Node0&#45;&gt;Node7</title>
<path fill="none" stroke="#191970" d="M305.2155,-175.3722C323.1021,-165.5134 344.8561,-153.5231 362.751,-143.6597"/>
<polygon fill="#191970" stroke="#191970" points="364.6479,-146.6107 371.7162,-138.7183 361.2689,-140.4802 364.6479,-146.6107"/>
</g>
<!-- Node8 -->
<g id="node9" class="node">
<title>Node8</title>
<g id="a_node9"><a xlink:href="_m_p_u6050_8h.html" target="_top" xlink:title=" ">
<polygon fill="#ffffff" stroke="#000000" points="584.7119,-110.5 584.7119,-138.5 686.3125,-138.5 686.3125,-110.5 584.7119,-110.5"/>
<text text-anchor="start" x="592.7119" y="-126.5" font-family="Helvetica,sans-Serif" font-size="10.00" fill="#000000">../../code/MPU6050</text>
<text text-anchor="middle" x="635.5122" y="-116.5" font-family="Helvetica,sans-Serif" font-size="10.00" fill="#000000">/MPU6050.h</text>
</a>
</g>
</g>
<!-- Node0&#45;&gt;Node8 -->
<g id="edge8" class="edge">
<title>Node0&#45;&gt;Node8</title>
<path fill="none" stroke="#191970" d="M360.8605,-179.4535C419.203,-169.4095 496.9525,-155.4153 574.5412,-139.1398"/>
<polygon fill="#191970" stroke="#191970" points="575.4326,-142.5289 584.4942,-137.0391 573.9869,-135.6798 575.4326,-142.5289"/>
</g>
<!-- Node10 -->
<g id="node11" class="node">
<title>Node10</title>
<g id="a_node11"><a xlink:href="_m_c_p3428_8h.html" target="_top" xlink:title=" ">
<polygon fill="#ffffff" stroke="#000000" points="464.7119,-110.5 464.7119,-138.5 566.3125,-138.5 566.3125,-110.5 464.7119,-110.5"/>
<text text-anchor="start" x="472.7119" y="-126.5" font-family="Helvetica,sans-Serif" font-size="10.00" fill="#000000">../../code/MCP3428</text>
<text text-anchor="middle" x="515.5122" y="-116.5" font-family="Helvetica,sans-Serif" font-size="10.00" fill="#000000">/MCP3428.h</text>
</a>
</g>
</g>
<!-- Node0&#45;&gt;Node10 -->
<g id="edge11" class="edge">
<title>Node0&#45;&gt;Node10</title>
<path fill="none" stroke="#191970" d="M337.1359,-175.4647C374.4379,-164.8069 420.5372,-151.6357 456.5261,-141.3532"/>
<polygon fill="#191970" stroke="#191970" points="457.7393,-144.6467 466.393,-138.534 455.8162,-137.916 457.7393,-144.6467"/>
</g>
<!-- Node11 -->
<g id="node12" class="node">
<title>Node11</title>
<g id="a_node12"><a xlink:title=" ">
<polygon fill="#ffffff" stroke="#bfbfbf" points="704.6865,-115.5 704.6865,-133.5 808.3379,-133.5 808.3379,-115.5 704.6865,-115.5"/>
<text text-anchor="middle" x="756.5122" y="-121.5" font-family="Helvetica,sans-Serif" font-size="10.00" fill="#000000">../../code/RingBuff.h</text>
</a>
</g>
</g>
<!-- Node0&#45;&gt;Node11 -->
<g id="edge14" class="edge">
<title>Node0&#45;&gt;Node11</title>
<path fill="none" stroke="#191970" d="M360.8915,-185.4418C447.2187,-176.1431 580.791,-160.0671 695.5122,-139 700.6011,-138.0655 705.9031,-136.9782 711.1637,-135.8269"/>
<polygon fill="#191970" stroke="#191970" points="712.1848,-139.1843 721.1621,-133.5578 710.6354,-132.3579 712.1848,-139.1843"/>
</g>
<!-- Node9 -->
<g id="node10" class="node">
<title>Node9</title>
<g id="a_node10"><a xlink:href="_m_c_p3428_2_i2_cdev_2_i2_cdev_8h.html" target="_top" xlink:title=" ">
<polygon fill="#ffffff" stroke="#000000" points="442.8467,-55.5 442.8467,-73.5 588.1777,-73.5 588.1777,-55.5 442.8467,-55.5"/>
<text text-anchor="middle" x="515.5122" y="-61.5" font-family="Helvetica,sans-Serif" font-size="10.00" fill="#000000">../MCP3428/I2Cdev/I2Cdev.h</text>
</a>
</g>
</g>
<!-- Node8&#45;&gt;Node9 -->
<g id="edge9" class="edge">
<title>Node8&#45;&gt;Node9</title>
<path fill="none" stroke="#191970" d="M607.3775,-110.4327C587.9396,-100.7137 562.216,-87.8519 542.9343,-78.211"/>
<polygon fill="#191970" stroke="#191970" points="544.2839,-74.9728 533.7743,-73.6311 541.1533,-81.2337 544.2839,-74.9728"/>
</g>
<!-- Node9&#45;&gt;Node4 -->
<g id="edge10" class="edge">
<title>Node9&#45;&gt;Node4</title>
<path fill="none" stroke="#191970" d="M484.633,-55.4179C450.9262,-45.5041 397.1248,-29.6802 362.309,-19.4402"/>
<polygon fill="#191970" stroke="#191970" points="363.1725,-16.046 352.5913,-16.5821 361.1973,-22.7616 363.1725,-16.046"/>
</g>
<!-- Node10&#45;&gt;Node3 -->
<g id="edge12" class="edge">
<title>Node10&#45;&gt;Node3</title>
<path fill="none" stroke="#191970" d="M464.676,-110.5084C423.7955,-99.2569 367.4781,-83.7567 331.7813,-73.9319"/>
<polygon fill="#191970" stroke="#191970" points="332.4179,-70.477 321.8476,-71.1978 330.5603,-77.226 332.4179,-70.477"/>
</g>
<!-- Node10&#45;&gt;Node9 -->
<g id="edge13" class="edge">
<title>Node10&#45;&gt;Node9</title>
<path fill="none" stroke="#191970" d="M515.5122,-110.2808C515.5122,-102.3776 515.5122,-92.4316 515.5122,-83.8308"/>
<polygon fill="#191970" stroke="#191970" points="519.0123,-83.5842 515.5122,-73.5842 512.0123,-83.5842 519.0123,-83.5842"/>
</g>
</g>
</svg>
        <g id="navigator" transform="translate(0 0)" fill="#404254">
                <rect fill="#f2f5e9" fill-opacity="0.5" stroke="#606060" stroke-width=".5" x="0" y="0" width="60" height="60"/>
                <use id="zoomplus" xlink:href="#zoomPlus" x="17" y="9" onmousedown="handleZoom(evt,'in')"/>
                <use id="zoomminus" xlink:href="#zoomMin" x="42" y="9" onmousedown="handleZoom(evt,'out')"/>
                <use id="reset" xlink:href="#resetDef" x="30" y="36" onmousedown="handleReset()"/>
                <g id="arrowUp" xlink:href="#dirArrow" transform="translate(30 24)" onmousedown="handlePan(0,-1)">
                  <use xlink:href="#rim" fill="#404040">
                        <set attributeName="fill" to="#808080" begin="arrowUp.mouseover" end="arrowUp.mouseout"/>
                  </use>
                  <path fill="none" stroke="white" stroke-width="1.5" d="M0,-3.0v7 M-2.5,-0.5L0,-3.0L2.5,-0.5"/>
                </g>
                <g id="arrowRight" xlink:href="#dirArrow" transform="rotate(90) translate(36 -43)" onmousedown="handlePan(1,0)">
                  <use xlink:href="#rim" fill="#404040">
                        <set attributeName="fill" to="#808080" begin="arrowRight.mouseover" end="arrowRight.mouseout"/>
                  </use>
                  <path fill="none" stroke="white" stroke-width="1.5" d="M0,-3.0v7 M-2.5,-0.5L0,-3.0L2.5,-0.5"/>
                </g>
                <g id="arrowDown" xlink:href="#dirArrow" transform="rotate(180) translate(-30 -48)" onmousedown="handlePan(0,1)">
                  <use xlink:href="#rim" fill="#404040">
                        <set attributeName="fill" to="#808080" begin="arrowDown.mouseover" end="arrowDown.mouseout"/>
                  </use>
                  <path fill="none" stroke="white" stroke-width="1.5" d="M0,-3.0v7 M-2.5,-0.5L0,-3.0L2.5,-0.5"/>
                </g>
                <g id="arrowLeft" xlink:href="#dirArrow" transform="rotate(270) translate(-36 17)" onmousedown="handlePan(-1,0)">
                  <use xlink:href="#rim" fill="#404040">
                        <set attributeName="fill" to="#808080" begin="arrowLeft.mouseover" end="arrowLeft.mouseout"/>
                  </use>
                  <path fill="none" stroke="white" stroke-width="1.5" d="M0,-3.0v7 M-2.5,-0.5L0,-3.0L2.5,-0.5"/>
                </g>
        </g>
        <svg viewBox="0 0 15 15" width="100%" height="30px" preserveAspectRatio="xMaxYMin meet">
         <g id="arrow_out" transform="scale(0.3 0.3)">
          <a xlink:href="sampledata_8cpp__incl_org.svg" target="_base">
           <rect id="button" ry="5" rx="5" y="6" x="6" height="38" width="38"
                fill="#f2f5e9" fill-opacity="0.5" stroke="#606060" stroke-width="1.0"/>
           <path id="arrow"
             d="M 11.500037,31.436501 C 11.940474,20.09759 22.043105,11.32322 32.158766,21.979434 L 37.068811,17.246167 C 37.068811,17.246167 37.088388,32 37.088388,32 L 22.160133,31.978069 C 22.160133,31.978069 26.997745,27.140456 26.997745,27.140456 C 18.528582,18.264221 13.291696,25.230495 11.500037,31.436501 z"
             style="fill:#404040;"/>
          </a>
         </g>
        </svg>
</svg>
