<?xml version="1.0" encoding="UTF-8" standalone="no"?>
<!DOCTYPE svg PUBLIC "-//W3C//DTD SVG 1.1//EN"
 "http://www.w3.org/Graphics/SVG/1.1/DTD/svg11.dtd">
<!-- Generated by graphviz version 2.40.1 (20161225.0304)
 -->
<!-- Title: testfiles/sampledata/sampledata.cpp Pages: 1 -->
<svg width="816pt" height="212pt"
 viewBox="0.00 0.00 816.34 212.00" xmlns="http://www.w3.org/2000/svg" xmlns:xlink="http://www.w3.org/1999/xlink">
<g id="graph0" class="graph" transform="scale(1 1) rotate(0) translate(4 208)">
<title>testfiles/sampledata/sampledata.cpp</title>
<polygon fill="#ffffff" stroke="transparent" points="-4,4 -4,-208 812.3379,-208 812.3379,4 -4,4"/>
<!-- Node0 -->
<g id="node1" class="node">
<title>Node0</title>
<g id="a_node1"><a xlink:title=" ">
<polygon fill="#bfbfbf" stroke="#000000" points="300.3228,-175.5 300.3228,-203.5 404.7017,-203.5 404.7017,-175.5 300.3228,-175.5"/>
<text text-anchor="start" x="308.3228" y="-191.5" font-family="Helvetica,sans-Serif" font-size="10.00" fill="#000000">testfiles/sampledata</text>
<text text-anchor="middle" x="352.5122" y="-181.5" font-family="Helvetica,sans-Serif" font-size="10.00" fill="#000000">/sampledata.cpp</text>
</a>
</g>
</g>
<!-- Node1 -->
<g id="node2" class="node">
<title>Node1</title>
<g id="a_node2"><a xlink:title=" ">
<polygon fill="#ffffff" stroke="#bfbfbf" points="0,-115.5 0,-133.5 51.0244,-133.5 51.0244,-115.5 0,-115.5"/>
<text text-anchor="middle" x="25.5122" y="-121.5" font-family="Helvetica,sans-Serif" font-size="10.00" fill="#000000">unistd.h</text>
</a>
</g>
</g>
<!-- Node0&#45;&gt;Node1 -->
<g id="edge1" class="edge">
<title>Node0&#45;&gt;Node1</title>
<path fill="none" stroke="#191970" d="M300.0744,-184.1854C240.7933,-177.3249 141.8197,-163.2837 59.5122,-139 57.8196,-138.5006 56.0983,-137.9412 54.374,-137.3404"/>
<polygon fill="#191970" stroke="#191970" points="55.2338,-133.9203 44.6445,-133.577 52.7085,-140.449 55.2338,-133.9203"/>
</g>
<!-- Node2 -->
<g id="node3" class="node">
<title>Node2</title>
<g id="a_node3"><a xlink:title=" ">
<polygon fill="#ffffff" stroke="#bfbfbf" points="68.7808,-115.5 68.7808,-133.5 114.2437,-133.5 114.2437,-115.5 68.7808,-115.5"/>
<text text-anchor="middle" x="91.5122" y="-121.5" font-family="Helvetica,sans-Serif" font-size="10.00" fill="#000000">stdio.h</text>
</a>
</g>
</g>
<!-- Node0&#45;&gt;Node2 -->
<g id="edge2" class="edge">
<title>Node0&#45;&gt;Node2</title>
<path fill="none" stroke="#191970" d="M300.2931,-181.1856C253.3281,-172.9577 182.8083,-158.7324 123.5122,-139 122.1016,-138.5306 120.6694,-138.0191 119.2327,-137.4778"/>
<polygon fill="#191970" stroke="#191970" points="120.4418,-134.1904 109.8633,-133.6033 117.7668,-140.6591 120.4418,-134.1904"/>
</g>
<!-- Node3 -->
<g id="node4" class="node">
<title>Node3</title>
<g id="a_node4"><a xlink:title=" ">
<polygon fill="#ffffff" stroke="#bfbfbf" points="426.3916,-55.5 426.3916,-73.5 474.6328,-73.5 474.6328,-55.5 426.3916,-55.5"/>
<text text-anchor="middle" x="450.5122" y="-61.5" font-family="Helvetica,sans-Serif" font-size="10.00" fill="#000000">stdint.h</text>
</a>
</g>
</g>
<!-- Node0&#45;&gt;Node3 -->
<g id="edge3" class="edge">
<title>Node0&#45;&gt;Node3</title>
<path fill="none" stroke="#191970" d="M324.4413,-175.4103C297.3822,-159.9401 263.0517,-134.088 281.5122,-110 297.7677,-88.7892 371.4715,-75.2454 416.0034,-68.8464"/>
<polygon fill="#191970" stroke="#191970" points="416.6823,-72.2858 426.1065,-67.4448 415.7204,-65.3522 416.6823,-72.2858"/>
</g>
<!-- Node4 -->
<g id="node5" class="node">
<title>Node4</title>
<g id="a_node5"><a xlink:title=" ">
<polygon fill="#ffffff" stroke="#bfbfbf" points="573.6699,-.5 573.6699,-18.5 621.3545,-18.5 621.3545,-.5 573.6699,-.5"/>
<text text-anchor="middle" x="597.5122" y="-6.5" font-family="Helvetica,sans-Serif" font-size="10.00" fill="#000000">stdlib.h</text>
</a>
</g>
</g>
<!-- Node0&#45;&gt;Node4 -->
<g id="edge4" class="edge">
<title>Node0&#45;&gt;Node4</title>
<path fill="none" stroke="#191970" d="M404.8332,-184.5071C487.6771,-176.0681 641.3701,-158.0346 657.5122,-139 666.4612,-128.4475 659.1873,-69.4019 651.5122,-55 644.8245,-42.451 633.1112,-31.9329 622.2994,-24.1815"/>
<polygon fill="#191970" stroke="#191970" points="624.1899,-21.2351 613.9351,-18.5723 620.2911,-27.0488 624.1899,-21.2351"/>
</g>
<!-- Node5 -->
<g id="node6" class="node">
<title>Node5</title>
<g id="a_node6"><a xlink:title=" ">
<polygon fill="#ffffff" stroke="#bfbfbf" points="290.3398,-115.5 290.3398,-133.5 344.6846,-133.5 344.6846,-115.5 290.3398,-115.5"/>
<text text-anchor="middle" x="317.5122" y="-121.5" font-family="Helvetica,sans-Serif" font-size="10.00" fill="#000000">iostream</text>
</a>
</g>
</g>
<!-- Node0&#45;&gt;Node5 -->
<g id="edge5" class="edge">
<title>Node0&#45;&gt;Node5</title>
<path fill="none" stroke="#191970" d="M344.9177,-175.396C339.7375,-165.7756 332.8307,-152.9487 327.247,-142.5788"/>
<polygon fill="#191970" stroke="#191970" points="330.2211,-140.7197 322.3984,-133.5743 324.0578,-144.0384 330.2211,-140.7197"/>
</g>
<!-- Node6 -->
<g id="node7" class="node">
<title>Node6</title>
<g id="a_node7"><a xlink:title=" ">
<polygon fill="#ffffff" stroke="#bfbfbf" points="362.8423,-115.5 362.8423,-133.5 412.1821,-133.5 412.1821,-115.5 362.8423,-115.5"/>
<text text-anchor="middle" x="387.5122" y="-121.5" font-family="Helvetica,sans-Serif" font-size="10.00" fill="#000000">fstream</text>
</a>
</g>
</g>
<!-- Node0&#45;&gt;Node6 -->
<g id="edge6" class="edge">
<title>Node0&#45;&gt;Node6</title>
<path fill="none" stroke="#191970" d="M360.1067,-175.396C365.2869,-165.7756 372.1937,-152.9487 377.7775,-142.5788"/>
<polygon fill="#191970" stroke="#191970" points="380.9666,-144.0384 382.626,-133.5743 374.8033,-140.7197 380.9666,-144.0384"/>
</g>
<!-- Node7 -->
<g id="node8" class="node">
<title>Node7</title>
<g id="a_node8"><a xlink:title=" ">
<polygon fill="#ffffff" stroke="#bfbfbf" points="430.2915,-110.5 430.2915,-138.5 528.7329,-138.5 528.7329,-110.5 430.2915,-110.5"/>
<text text-anchor="start" x="438.2915" y="-126.5" font-family="Helvetica,sans-Serif" font-size="10.00" fill="#000000">../../code/cppTimer</text>
<text text-anchor="middle" x="479.5122" y="-116.5" font-family="Helvetica,sans-Serif" font-size="10.00" fill="#000000">/CppTimer.h</text>
</a>
</g>
</g>
<!-- Node0&#45;&gt;Node7 -->
<g id="edge7" class="edge">
<title>Node0&#45;&gt;Node7</title>
<path fill="none" stroke="#191970" d="M380.0693,-175.396C398.4591,-165.9839 422.8456,-153.5026 442.8664,-143.2557"/>
<polygon fill="#191970" stroke="#191970" points="444.7017,-146.2483 452.0089,-138.5765 441.5124,-140.017 444.7017,-146.2483"/>
</g>
<!-- Node8 -->
<g id="node9" class="node">
<title>Node8</title>
<g id="a_node9"><a xlink:href="_m_p_u6050_8h.html" target="_top" xlink:title=" ">
<polygon fill="#ffffff" stroke="#000000" points="132.7119,-110.5 132.7119,-138.5 234.3125,-138.5 234.3125,-110.5 132.7119,-110.5"/>
<text text-anchor="start" x="140.7119" y="-126.5" font-family="Helvetica,sans-Serif" font-size="10.00" fill="#000000">../../code/MPU6050</text>
<text text-anchor="middle" x="183.5122" y="-116.5" font-family="Helvetica,sans-Serif" font-size="10.00" fill="#000000">/MPU6050.h</text>
</a>
</g>
</g>
<!-- Node0&#45;&gt;Node8 -->
<g id="edge8" class="edge">
<title>Node0&#45;&gt;Node8</title>
<path fill="none" stroke="#191970" d="M315.8417,-175.396C290.5952,-165.6858 256.8552,-152.7088 229.7634,-142.2889"/>
<polygon fill="#191970" stroke="#191970" points="230.701,-138.8996 220.1111,-138.5765 228.1881,-145.4331 230.701,-138.8996"/>
</g>
<!-- Node10 -->
<g id="node11" class="node">
<title>Node10</title>
<g id="a_node11"><a xlink:href="_m_c_p3428_8h.html" target="_top" xlink:title=" ">
<polygon fill="#ffffff" stroke="#000000" points="546.7119,-110.5 546.7119,-138.5 648.3125,-138.5 648.3125,-110.5 546.7119,-110.5"/>
<text text-anchor="start" x="554.7119" y="-126.5" font-family="Helvetica,sans-Serif" font-size="10.00" fill="#000000">../../code/MCP3428</text>
<text text-anchor="middle" x="597.5122" y="-116.5" font-family="Helvetica,sans-Serif" font-size="10.00" fill="#000000">/MCP3428.h</text>
</a>
</g>
</g>
<!-- Node0&#45;&gt;Node10 -->
<g id="edge11" class="edge">
<title>Node0&#45;&gt;Node10</title>
<path fill="none" stroke="#191970" d="M404.7703,-175.6356C443.4597,-165.3711 496.2679,-151.3607 536.8258,-140.6005"/>
<polygon fill="#191970" stroke="#191970" points="537.8254,-143.9564 546.5935,-138.009 536.0303,-137.1905 537.8254,-143.9564"/>
</g>
<!-- Node12 -->
<g id="node13" class="node">
<title>Node12</title>
<g id="a_node13"><a xlink:href="_ring_buff_8h.html" target="_top" xlink:title=" ">
<polygon fill="#ffffff" stroke="#000000" points="704.6865,-115.5 704.6865,-133.5 808.3379,-133.5 808.3379,-115.5 704.6865,-115.5"/>
<text text-anchor="middle" x="756.5122" y="-121.5" font-family="Helvetica,sans-Serif" font-size="10.00" fill="#000000">../../code/RingBuff.h</text>
</a>
</g>
</g>
<!-- Node0&#45;&gt;Node12 -->
<g id="edge15" class="edge">
<title>Node0&#45;&gt;Node12</title>
<path fill="none" stroke="#191970" d="M404.8075,-182.8086C471.3856,-174.0324 589.8604,-157.5534 690.5122,-139 695.9924,-137.9898 701.7111,-136.8553 707.3912,-135.6774"/>
<polygon fill="#191970" stroke="#191970" points="708.4591,-139.0288 717.5138,-133.5277 707.0049,-132.1815 708.4591,-139.0288"/>
</g>
<!-- Node9 -->
<g id="node10" class="node">
<title>Node9</title>
<g id="a_node10"><a xlink:href="_m_p_u6050_2_i2_cdev_2_i2_cdev_8h.html" target="_top" xlink:title=" ">
<polygon fill="#ffffff" stroke="#000000" points="198.6372,-55.5 198.6372,-73.5 288.3872,-73.5 288.3872,-55.5 198.6372,-55.5"/>
<text text-anchor="middle" x="243.5122" y="-61.5" font-family="Helvetica,sans-Serif" font-size="10.00" fill="#000000">I2Cdev/I2Cdev.h</text>
</a>
</g>
</g>
<!-- Node8&#45;&gt;Node9 -->
<g id="edge9" class="edge">
<title>Node8&#45;&gt;Node9</title>
<path fill="none" stroke="#191970" d="M197.7314,-110.2808C206.6114,-101.4008 218.0703,-89.9419 227.3024,-80.7098"/>
<polygon fill="#191970" stroke="#191970" points="229.8318,-83.1302 234.428,-73.5842 224.882,-78.1804 229.8318,-83.1302"/>
</g>
<!-- Node9&#45;&gt;Node4 -->
<g id="edge10" class="edge">
<title>Node9&#45;&gt;Node4</title>
<path fill="none" stroke="#191970" d="M288.7061,-57.4783C360.5681,-46.3133 499.3025,-24.7586 563.4525,-14.7918"/>
<polygon fill="#191970" stroke="#191970" points="564.1043,-18.2326 573.4484,-13.2387 563.0295,-11.3156 564.1043,-18.2326"/>
</g>
<!-- Node10&#45;&gt;Node3 -->
<g id="edge12" class="edge">
<title>Node10&#45;&gt;Node3</title>
<path fill="none" stroke="#191970" d="M563.0472,-110.4327C538.5834,-100.4474 505.9919,-87.1448 482.1809,-77.426"/>
<polygon fill="#191970" stroke="#191970" points="483.4644,-74.1696 472.8833,-73.6311 480.8191,-80.6506 483.4644,-74.1696"/>
</g>
<!-- Node11 -->
<g id="node12" class="node">
<title>Node11</title>
<g id="a_node12"><a xlink:href="_m_c_p3428_2_i2_cdev_2_i2_cdev_8h.html" target="_top" xlink:title=" ">
<polygon fill="#ffffff" stroke="#000000" points="552.6372,-55.5 552.6372,-73.5 642.3872,-73.5 642.3872,-55.5 552.6372,-55.5"/>
<text text-anchor="middle" x="597.5122" y="-61.5" font-family="Helvetica,sans-Serif" font-size="10.00" fill="#000000">I2Cdev/I2Cdev.h</text>
</a>
</g>
</g>
<!-- Node10&#45;&gt;Node11 -->
<g id="edge13" class="edge">
<title>Node10&#45;&gt;Node11</title>
<path fill="none" stroke="#191970" d="M597.5122,-110.2808C597.5122,-102.3776 597.5122,-92.4316 597.5122,-83.8308"/>
<polygon fill="#191970" stroke="#191970" points="601.0123,-83.5842 597.5122,-73.5842 594.0123,-83.5842 601.0123,-83.5842"/>
</g>
<!-- Node11&#45;&gt;Node4 -->
<g id="edge14" class="edge">
<title>Node11&#45;&gt;Node4</title>
<path fill="none" stroke="#191970" d="M597.5122,-55.4179C597.5122,-48.2164 597.5122,-37.8962 597.5122,-28.8632"/>
<polygon fill="#191970" stroke="#191970" points="601.0123,-28.7794 597.5122,-18.7795 594.0123,-28.7795 601.0123,-28.7794"/>
</g>
</g>
</svg>
