<?xml version="1.0" encoding="UTF-8" standalone="no"?>
<!DOCTYPE svg PUBLIC "-//W3C//DTD SVG 1.1//EN"
 "http://www.w3.org/Graphics/SVG/1.1/DTD/svg11.dtd">
<!-- Generated by graphviz version 2.40.1 (20161225.0304)
 -->
<!-- Title: code/pythonTraining/trainNet.hpp Pages: 1 -->
<svg width="254pt" height="92pt"
 viewBox="0.00 0.00 253.98 92.00" xmlns="http://www.w3.org/2000/svg" xmlns:xlink="http://www.w3.org/1999/xlink">
<g id="graph0" class="graph" transform="scale(1 1) rotate(0) translate(4 88)">
<title>code/pythonTraining/trainNet.hpp</title>
<polygon fill="#ffffff" stroke="transparent" points="-4,4 -4,-88 249.9849,-88 249.9849,4 -4,4"/>
<!-- Node0 -->
<g id="node1" class="node">
<title>Node0</title>
<g id="a_node1"><a xlink:title=" ">
<polygon fill="#bfbfbf" stroke="#000000" points="37.6069,-55.5 37.6069,-83.5 143.856,-83.5 143.856,-55.5 37.6069,-55.5"/>
<text text-anchor="start" x="45.6069" y="-71.5" font-family="Helvetica,sans-Serif" font-size="10.00" fill="#000000">code/pythonTraining</text>
<text text-anchor="middle" x="90.7314" y="-61.5" font-family="Helvetica,sans-Serif" font-size="10.00" fill="#000000">/trainNet.hpp</text>
</a>
</g>
</g>
<!-- Node1 -->
<g id="node2" class="node">
<title>Node1</title>
<g id="a_node2"><a xlink:title=" ">
<polygon fill="#ffffff" stroke="#bfbfbf" points="0,-.5 0,-18.5 45.4629,-18.5 45.4629,-.5 0,-.5"/>
<text text-anchor="middle" x="22.7314" y="-6.5" font-family="Helvetica,sans-Serif" font-size="10.00" fill="#000000">stdio.h</text>
</a>
</g>
</g>
<!-- Node0&#45;&gt;Node1 -->
<g id="edge1" class="edge">
<title>Node0&#45;&gt;Node1</title>
<path fill="none" stroke="#191970" d="M74.6164,-55.2808C64.4517,-46.312 51.3055,-34.7124 40.7895,-25.4335"/>
<polygon fill="#191970" stroke="#191970" points="42.8409,-22.576 33.0269,-18.5842 38.2096,-27.8249 42.8409,-22.576"/>
</g>
<!-- Node2 -->
<g id="node3" class="node">
<title>Node2</title>
<g id="a_node3"><a xlink:title=" ">
<polygon fill="#ffffff" stroke="#bfbfbf" points="63.835,-.5 63.835,-18.5 117.6279,-18.5 117.6279,-.5 63.835,-.5"/>
<text text-anchor="middle" x="90.7314" y="-6.5" font-family="Helvetica,sans-Serif" font-size="10.00" fill="#000000">curses.h</text>
</a>
</g>
</g>
<!-- Node0&#45;&gt;Node2 -->
<g id="edge2" class="edge">
<title>Node0&#45;&gt;Node2</title>
<path fill="none" stroke="#191970" d="M90.7314,-55.2808C90.7314,-47.3776 90.7314,-37.4316 90.7314,-28.8308"/>
<polygon fill="#191970" stroke="#191970" points="94.2315,-28.5842 90.7314,-18.5842 87.2315,-28.5842 94.2315,-28.5842"/>
</g>
<!-- Node3 -->
<g id="node4" class="node">
<title>Node3</title>
<g id="a_node4"><a xlink:title=" ">
<polygon fill="#ffffff" stroke="#bfbfbf" points="135.478,-.5 135.478,-18.5 245.9849,-18.5 245.9849,-.5 135.478,-.5"/>
<text text-anchor="middle" x="190.7314" y="-6.5" font-family="Helvetica,sans-Serif" font-size="10.00" fill="#000000">python3.6m/Python.h</text>
</a>
</g>
</g>
<!-- Node0&#45;&gt;Node3 -->
<g id="edge3" class="edge">
<title>Node0&#45;&gt;Node3</title>
<path fill="none" stroke="#191970" d="M114.177,-55.4327C130.0054,-45.9356 150.8355,-33.4376 166.7709,-23.8763"/>
<polygon fill="#191970" stroke="#191970" points="168.7388,-26.7773 175.513,-18.6311 165.1373,-20.7748 168.7388,-26.7773"/>
</g>
</g>
</svg>
